%TF.GenerationSoftware,KiCad,Pcbnew,5.99.0+really5.1.10+dfsg1-1*%
%TF.CreationDate,2021-10-07T20:27:13+11:00*%
%TF.ProjectId,minisynth32,6d696e69-7379-46e7-9468-33322e6b6963,1.2-2.0*%
%TF.SameCoordinates,Original*%
%TF.FileFunction,Legend,Bot*%
%TF.FilePolarity,Positive*%
%FSLAX46Y46*%
G04 Gerber Fmt 4.6, Leading zero omitted, Abs format (unit mm)*
G04 Created by KiCad (PCBNEW 5.99.0+really5.1.10+dfsg1-1) date 2021-10-07 20:27:13*
%MOMM*%
%LPD*%
G01*
G04 APERTURE LIST*
%ADD10C,0.120000*%
%ADD11C,0.150000*%
G04 APERTURE END LIST*
D10*
X116000000Y-128400000D02*
X116000000Y-127635000D01*
X113411000Y-121031000D02*
X113030000Y-121412000D01*
X113411000Y-120523000D02*
X113411000Y-121031000D01*
X114681000Y-119253000D02*
X113411000Y-120523000D01*
X113538000Y-123190000D02*
X114681000Y-122047000D01*
X113538000Y-123444000D02*
X113538000Y-123190000D01*
X113030000Y-123952000D02*
X113538000Y-123444000D01*
X113030000Y-126619000D02*
X113538000Y-127127000D01*
X113538000Y-128524000D02*
X113538000Y-127127000D01*
X113538000Y-129667000D02*
X113538000Y-130048000D01*
X113030000Y-129159000D02*
X113538000Y-129667000D01*
X113538000Y-131699000D02*
X113030000Y-131699000D01*
X123571000Y-128270000D02*
X123571000Y-127635000D01*
X117602000Y-134239000D02*
X123571000Y-128270000D01*
X121031000Y-129159000D02*
X121031000Y-127635000D01*
X117602000Y-132588000D02*
X121031000Y-129159000D01*
X118491000Y-130048000D02*
X118491000Y-127635000D01*
X117602000Y-130937000D02*
X118491000Y-130048000D01*
D11*
X131627619Y-92924000D02*
X132103809Y-93257333D01*
X131627619Y-93495428D02*
X132627619Y-93495428D01*
X132627619Y-93114476D01*
X132580000Y-93019238D01*
X132532380Y-92971619D01*
X132437142Y-92924000D01*
X132294285Y-92924000D01*
X132199047Y-92971619D01*
X132151428Y-93019238D01*
X132103809Y-93114476D01*
X132103809Y-93495428D01*
X132627619Y-92304952D02*
X132627619Y-92114476D01*
X132580000Y-92019238D01*
X132484761Y-91924000D01*
X132294285Y-91876380D01*
X131960952Y-91876380D01*
X131770476Y-91924000D01*
X131675238Y-92019238D01*
X131627619Y-92114476D01*
X131627619Y-92304952D01*
X131675238Y-92400190D01*
X131770476Y-92495428D01*
X131960952Y-92543047D01*
X132294285Y-92543047D01*
X132484761Y-92495428D01*
X132580000Y-92400190D01*
X132627619Y-92304952D01*
X132627619Y-91590666D02*
X132627619Y-91019238D01*
X131627619Y-91304952D02*
X132627619Y-91304952D01*
X131532380Y-90924000D02*
X131532380Y-90162095D01*
X131627619Y-89924000D02*
X132627619Y-89924000D01*
X132151428Y-89924000D02*
X132151428Y-89352571D01*
X131627619Y-89352571D02*
X132627619Y-89352571D01*
X131627619Y-88876380D02*
X132627619Y-88876380D01*
X132627619Y-88638285D01*
X132580000Y-88495428D01*
X132484761Y-88400190D01*
X132389523Y-88352571D01*
X132199047Y-88304952D01*
X132056190Y-88304952D01*
X131865714Y-88352571D01*
X131770476Y-88400190D01*
X131675238Y-88495428D01*
X131627619Y-88638285D01*
X131627619Y-88876380D01*
X131627619Y-87304952D02*
X132103809Y-87638285D01*
X131627619Y-87876380D02*
X132627619Y-87876380D01*
X132627619Y-87495428D01*
X132580000Y-87400190D01*
X132532380Y-87352571D01*
X132437142Y-87304952D01*
X132294285Y-87304952D01*
X132199047Y-87352571D01*
X132151428Y-87400190D01*
X132103809Y-87495428D01*
X132103809Y-87876380D01*
D10*
X133604000Y-134620000D02*
X133096000Y-134112000D01*
X133604000Y-135890000D02*
X133604000Y-134620000D01*
X133858000Y-136144000D02*
X133604000Y-135890000D01*
X133604000Y-132080000D02*
X133096000Y-131572000D01*
X133604000Y-132334000D02*
X133604000Y-132080000D01*
X133858000Y-132588000D02*
X133604000Y-132334000D01*
D11*
X147486380Y-133802380D02*
X147486380Y-132802380D01*
X147153047Y-133516666D01*
X146819714Y-132802380D01*
X146819714Y-133802380D01*
X146343523Y-133802380D02*
X146343523Y-132802380D01*
X145867333Y-133802380D02*
X145867333Y-132802380D01*
X145629238Y-132802380D01*
X145486380Y-132850000D01*
X145391142Y-132945238D01*
X145343523Y-133040476D01*
X145295904Y-133230952D01*
X145295904Y-133373809D01*
X145343523Y-133564285D01*
X145391142Y-133659523D01*
X145486380Y-133754761D01*
X145629238Y-133802380D01*
X145867333Y-133802380D01*
X144867333Y-133802380D02*
X144867333Y-132802380D01*
X144629238Y-133897619D02*
X143867333Y-133897619D01*
X143629238Y-133802380D02*
X143629238Y-132802380D01*
X143153047Y-133802380D02*
X143153047Y-132802380D01*
X142581619Y-133802380D01*
X142581619Y-132802380D01*
X132151428Y-118371619D02*
X132151428Y-118704952D01*
X131627619Y-118704952D02*
X132627619Y-118704952D01*
X132627619Y-118228761D01*
X131532380Y-118085904D02*
X131532380Y-117324000D01*
X131627619Y-117085904D02*
X132627619Y-117085904D01*
X132627619Y-116704952D01*
X132580000Y-116609714D01*
X132532380Y-116562095D01*
X132437142Y-116514476D01*
X132294285Y-116514476D01*
X132199047Y-116562095D01*
X132151428Y-116609714D01*
X132103809Y-116704952D01*
X132103809Y-117085904D01*
X131913333Y-116133523D02*
X131913333Y-115657333D01*
X131627619Y-116228761D02*
X132627619Y-115895428D01*
X131627619Y-115562095D01*
X131627619Y-115228761D02*
X132627619Y-115228761D01*
X131627619Y-114657333D01*
X132627619Y-114657333D01*
X132151428Y-114181142D02*
X132151428Y-113847809D01*
X131627619Y-113704952D02*
X131627619Y-114181142D01*
X132627619Y-114181142D01*
X132627619Y-113704952D01*
X131627619Y-112800190D02*
X131627619Y-113276380D01*
X132627619Y-113276380D01*
X159185619Y-100248404D02*
X160185619Y-100248404D01*
X159471333Y-99915071D01*
X160185619Y-99581738D01*
X159185619Y-99581738D01*
X159185619Y-99105547D02*
X159852285Y-99105547D01*
X160185619Y-99105547D02*
X160138000Y-99153166D01*
X160090380Y-99105547D01*
X160138000Y-99057928D01*
X160185619Y-99105547D01*
X160090380Y-99105547D01*
X159852285Y-98629357D02*
X159185619Y-98629357D01*
X159757047Y-98629357D02*
X159804666Y-98581738D01*
X159852285Y-98486500D01*
X159852285Y-98343642D01*
X159804666Y-98248404D01*
X159709428Y-98200785D01*
X159185619Y-98200785D01*
X159185619Y-97724595D02*
X159852285Y-97724595D01*
X160185619Y-97724595D02*
X160138000Y-97772214D01*
X160090380Y-97724595D01*
X160138000Y-97676976D01*
X160185619Y-97724595D01*
X160090380Y-97724595D01*
X159233238Y-97296023D02*
X159185619Y-97200785D01*
X159185619Y-97010309D01*
X159233238Y-96915071D01*
X159328476Y-96867452D01*
X159376095Y-96867452D01*
X159471333Y-96915071D01*
X159518952Y-97010309D01*
X159518952Y-97153166D01*
X159566571Y-97248404D01*
X159661809Y-97296023D01*
X159709428Y-97296023D01*
X159804666Y-97248404D01*
X159852285Y-97153166D01*
X159852285Y-97010309D01*
X159804666Y-96915071D01*
X159852285Y-96534119D02*
X159185619Y-96296023D01*
X159852285Y-96057928D02*
X159185619Y-96296023D01*
X158947523Y-96391261D01*
X158899904Y-96438880D01*
X158852285Y-96534119D01*
X159852285Y-95676976D02*
X159185619Y-95676976D01*
X159757047Y-95676976D02*
X159804666Y-95629357D01*
X159852285Y-95534119D01*
X159852285Y-95391261D01*
X159804666Y-95296023D01*
X159709428Y-95248404D01*
X159185619Y-95248404D01*
X159852285Y-94915071D02*
X159852285Y-94534119D01*
X160185619Y-94772214D02*
X159328476Y-94772214D01*
X159233238Y-94724595D01*
X159185619Y-94629357D01*
X159185619Y-94534119D01*
X159185619Y-94200785D02*
X160185619Y-94200785D01*
X159185619Y-93772214D02*
X159709428Y-93772214D01*
X159804666Y-93819833D01*
X159852285Y-93915071D01*
X159852285Y-94057928D01*
X159804666Y-94153166D01*
X159757047Y-94200785D01*
X160185619Y-92629357D02*
X160185619Y-92010309D01*
X159804666Y-92343642D01*
X159804666Y-92200785D01*
X159757047Y-92105547D01*
X159709428Y-92057928D01*
X159614190Y-92010309D01*
X159376095Y-92010309D01*
X159280857Y-92057928D01*
X159233238Y-92105547D01*
X159185619Y-92200785D01*
X159185619Y-92486500D01*
X159233238Y-92581738D01*
X159280857Y-92629357D01*
X160090380Y-91629357D02*
X160138000Y-91581738D01*
X160185619Y-91486500D01*
X160185619Y-91248404D01*
X160138000Y-91153166D01*
X160090380Y-91105547D01*
X159995142Y-91057928D01*
X159899904Y-91057928D01*
X159757047Y-91105547D01*
X159185619Y-91676976D01*
X159185619Y-91057928D01*
X159280857Y-90629357D02*
X159233238Y-90581738D01*
X159185619Y-90629357D01*
X159233238Y-90676976D01*
X159280857Y-90629357D01*
X159185619Y-90629357D01*
X159804666Y-90629357D02*
X159757047Y-90581738D01*
X159709428Y-90629357D01*
X159757047Y-90676976D01*
X159804666Y-90629357D01*
X159709428Y-90629357D01*
X159185619Y-88819833D02*
X159661809Y-89153166D01*
X159185619Y-89391261D02*
X160185619Y-89391261D01*
X160185619Y-89010309D01*
X160138000Y-88915071D01*
X160090380Y-88867452D01*
X159995142Y-88819833D01*
X159852285Y-88819833D01*
X159757047Y-88867452D01*
X159709428Y-88915071D01*
X159661809Y-89010309D01*
X159661809Y-89391261D01*
X159233238Y-88010309D02*
X159185619Y-88105547D01*
X159185619Y-88296023D01*
X159233238Y-88391261D01*
X159328476Y-88438880D01*
X159709428Y-88438880D01*
X159804666Y-88391261D01*
X159852285Y-88296023D01*
X159852285Y-88105547D01*
X159804666Y-88010309D01*
X159709428Y-87962690D01*
X159614190Y-87962690D01*
X159518952Y-88438880D01*
X159185619Y-87105547D02*
X159709428Y-87105547D01*
X159804666Y-87153166D01*
X159852285Y-87248404D01*
X159852285Y-87438880D01*
X159804666Y-87534119D01*
X159233238Y-87105547D02*
X159185619Y-87200785D01*
X159185619Y-87438880D01*
X159233238Y-87534119D01*
X159328476Y-87581738D01*
X159423714Y-87581738D01*
X159518952Y-87534119D01*
X159566571Y-87438880D01*
X159566571Y-87200785D01*
X159614190Y-87105547D01*
X159185619Y-86629357D02*
X159852285Y-86629357D01*
X159661809Y-86629357D02*
X159757047Y-86581738D01*
X159804666Y-86534119D01*
X159852285Y-86438880D01*
X159852285Y-86343642D01*
X159852285Y-85248404D02*
X158852285Y-85248404D01*
X159804666Y-85248404D02*
X159852285Y-85153166D01*
X159852285Y-84962690D01*
X159804666Y-84867452D01*
X159757047Y-84819833D01*
X159661809Y-84772214D01*
X159376095Y-84772214D01*
X159280857Y-84819833D01*
X159233238Y-84867452D01*
X159185619Y-84962690D01*
X159185619Y-85153166D01*
X159233238Y-85248404D01*
X159185619Y-83915071D02*
X159709428Y-83915071D01*
X159804666Y-83962690D01*
X159852285Y-84057928D01*
X159852285Y-84248404D01*
X159804666Y-84343642D01*
X159233238Y-83915071D02*
X159185619Y-84010309D01*
X159185619Y-84248404D01*
X159233238Y-84343642D01*
X159328476Y-84391261D01*
X159423714Y-84391261D01*
X159518952Y-84343642D01*
X159566571Y-84248404D01*
X159566571Y-84010309D01*
X159614190Y-83915071D01*
X159852285Y-83438880D02*
X159185619Y-83438880D01*
X159757047Y-83438880D02*
X159804666Y-83391261D01*
X159852285Y-83296023D01*
X159852285Y-83153166D01*
X159804666Y-83057928D01*
X159709428Y-83010309D01*
X159185619Y-83010309D01*
X159233238Y-82153166D02*
X159185619Y-82248404D01*
X159185619Y-82438880D01*
X159233238Y-82534119D01*
X159328476Y-82581738D01*
X159709428Y-82581738D01*
X159804666Y-82534119D01*
X159852285Y-82438880D01*
X159852285Y-82248404D01*
X159804666Y-82153166D01*
X159709428Y-82105547D01*
X159614190Y-82105547D01*
X159518952Y-82581738D01*
X159185619Y-81534119D02*
X159233238Y-81629357D01*
X159328476Y-81676976D01*
X160185619Y-81676976D01*
X159185619Y-80391261D02*
X160185619Y-80391261D01*
X159804666Y-80391261D02*
X159852285Y-80296023D01*
X159852285Y-80105547D01*
X159804666Y-80010309D01*
X159757047Y-79962690D01*
X159661809Y-79915071D01*
X159376095Y-79915071D01*
X159280857Y-79962690D01*
X159233238Y-80010309D01*
X159185619Y-80105547D01*
X159185619Y-80296023D01*
X159233238Y-80391261D01*
X159185619Y-79486500D02*
X159852285Y-79486500D01*
X159661809Y-79486500D02*
X159757047Y-79438880D01*
X159804666Y-79391261D01*
X159852285Y-79296023D01*
X159852285Y-79200785D01*
X159233238Y-78486500D02*
X159185619Y-78581738D01*
X159185619Y-78772214D01*
X159233238Y-78867452D01*
X159328476Y-78915071D01*
X159709428Y-78915071D01*
X159804666Y-78867452D01*
X159852285Y-78772214D01*
X159852285Y-78581738D01*
X159804666Y-78486500D01*
X159709428Y-78438880D01*
X159614190Y-78438880D01*
X159518952Y-78915071D01*
X159185619Y-77581738D02*
X159709428Y-77581738D01*
X159804666Y-77629357D01*
X159852285Y-77724595D01*
X159852285Y-77915071D01*
X159804666Y-78010309D01*
X159233238Y-77581738D02*
X159185619Y-77676976D01*
X159185619Y-77915071D01*
X159233238Y-78010309D01*
X159328476Y-78057928D01*
X159423714Y-78057928D01*
X159518952Y-78010309D01*
X159566571Y-77915071D01*
X159566571Y-77676976D01*
X159614190Y-77581738D01*
X159185619Y-77105547D02*
X160185619Y-77105547D01*
X159566571Y-77010309D02*
X159185619Y-76724595D01*
X159852285Y-76724595D02*
X159471333Y-77105547D01*
X159185619Y-76153166D02*
X159233238Y-76248404D01*
X159280857Y-76296023D01*
X159376095Y-76343642D01*
X159661809Y-76343642D01*
X159757047Y-76296023D01*
X159804666Y-76248404D01*
X159852285Y-76153166D01*
X159852285Y-76010309D01*
X159804666Y-75915071D01*
X159757047Y-75867452D01*
X159661809Y-75819833D01*
X159376095Y-75819833D01*
X159280857Y-75867452D01*
X159233238Y-75915071D01*
X159185619Y-76010309D01*
X159185619Y-76153166D01*
X159852285Y-74962690D02*
X159185619Y-74962690D01*
X159852285Y-75391261D02*
X159328476Y-75391261D01*
X159233238Y-75343642D01*
X159185619Y-75248404D01*
X159185619Y-75105547D01*
X159233238Y-75010309D01*
X159280857Y-74962690D01*
X159852285Y-74629357D02*
X159852285Y-74248404D01*
X160185619Y-74486500D02*
X159328476Y-74486500D01*
X159233238Y-74438880D01*
X159185619Y-74343642D01*
X159185619Y-74248404D01*
X159185619Y-73153166D02*
X160185619Y-73153166D01*
X159804666Y-73153166D02*
X159852285Y-73057928D01*
X159852285Y-72867452D01*
X159804666Y-72772214D01*
X159757047Y-72724595D01*
X159661809Y-72676976D01*
X159376095Y-72676976D01*
X159280857Y-72724595D01*
X159233238Y-72772214D01*
X159185619Y-72867452D01*
X159185619Y-73057928D01*
X159233238Y-73153166D01*
X159185619Y-72105547D02*
X159233238Y-72200785D01*
X159280857Y-72248404D01*
X159376095Y-72296023D01*
X159661809Y-72296023D01*
X159757047Y-72248404D01*
X159804666Y-72200785D01*
X159852285Y-72105547D01*
X159852285Y-71962690D01*
X159804666Y-71867452D01*
X159757047Y-71819833D01*
X159661809Y-71772214D01*
X159376095Y-71772214D01*
X159280857Y-71819833D01*
X159233238Y-71867452D01*
X159185619Y-71962690D01*
X159185619Y-72105547D01*
X159185619Y-70915071D02*
X159709428Y-70915071D01*
X159804666Y-70962690D01*
X159852285Y-71057928D01*
X159852285Y-71248404D01*
X159804666Y-71343642D01*
X159233238Y-70915071D02*
X159185619Y-71010309D01*
X159185619Y-71248404D01*
X159233238Y-71343642D01*
X159328476Y-71391261D01*
X159423714Y-71391261D01*
X159518952Y-71343642D01*
X159566571Y-71248404D01*
X159566571Y-71010309D01*
X159614190Y-70915071D01*
X159185619Y-70438880D02*
X159852285Y-70438880D01*
X159661809Y-70438880D02*
X159757047Y-70391261D01*
X159804666Y-70343642D01*
X159852285Y-70248404D01*
X159852285Y-70153166D01*
X159185619Y-69391261D02*
X160185619Y-69391261D01*
X159233238Y-69391261D02*
X159185619Y-69486500D01*
X159185619Y-69676976D01*
X159233238Y-69772214D01*
X159280857Y-69819833D01*
X159376095Y-69867452D01*
X159661809Y-69867452D01*
X159757047Y-69819833D01*
X159804666Y-69772214D01*
X159852285Y-69676976D01*
X159852285Y-69486500D01*
X159804666Y-69391261D01*
X157535619Y-100248404D02*
X158535619Y-100248404D01*
X157535619Y-99819833D02*
X158059428Y-99819833D01*
X158154666Y-99867452D01*
X158202285Y-99962690D01*
X158202285Y-100105547D01*
X158154666Y-100200785D01*
X158107047Y-100248404D01*
X158202285Y-99486500D02*
X158202285Y-99105547D01*
X158535619Y-99343642D02*
X157678476Y-99343642D01*
X157583238Y-99296023D01*
X157535619Y-99200785D01*
X157535619Y-99105547D01*
X158202285Y-98915071D02*
X158202285Y-98534119D01*
X158535619Y-98772214D02*
X157678476Y-98772214D01*
X157583238Y-98724595D01*
X157535619Y-98629357D01*
X157535619Y-98534119D01*
X158202285Y-98200785D02*
X157202285Y-98200785D01*
X158154666Y-98200785D02*
X158202285Y-98105547D01*
X158202285Y-97915071D01*
X158154666Y-97819833D01*
X158107047Y-97772214D01*
X158011809Y-97724595D01*
X157726095Y-97724595D01*
X157630857Y-97772214D01*
X157583238Y-97819833D01*
X157535619Y-97915071D01*
X157535619Y-98105547D01*
X157583238Y-98200785D01*
X157583238Y-97343642D02*
X157535619Y-97248404D01*
X157535619Y-97057928D01*
X157583238Y-96962690D01*
X157678476Y-96915071D01*
X157726095Y-96915071D01*
X157821333Y-96962690D01*
X157868952Y-97057928D01*
X157868952Y-97200785D01*
X157916571Y-97296023D01*
X158011809Y-97343642D01*
X158059428Y-97343642D01*
X158154666Y-97296023D01*
X158202285Y-97200785D01*
X158202285Y-97057928D01*
X158154666Y-96962690D01*
X157630857Y-96486500D02*
X157583238Y-96438880D01*
X157535619Y-96486500D01*
X157583238Y-96534119D01*
X157630857Y-96486500D01*
X157535619Y-96486500D01*
X158154666Y-96486500D02*
X158107047Y-96438880D01*
X158059428Y-96486500D01*
X158107047Y-96534119D01*
X158154666Y-96486500D01*
X158059428Y-96486500D01*
X158583238Y-95296023D02*
X157297523Y-96153166D01*
X158583238Y-94248404D02*
X157297523Y-95105547D01*
X158202285Y-93486500D02*
X157392761Y-93486500D01*
X157297523Y-93534119D01*
X157249904Y-93581738D01*
X157202285Y-93676976D01*
X157202285Y-93819833D01*
X157249904Y-93915071D01*
X157583238Y-93486500D02*
X157535619Y-93581738D01*
X157535619Y-93772214D01*
X157583238Y-93867452D01*
X157630857Y-93915071D01*
X157726095Y-93962690D01*
X158011809Y-93962690D01*
X158107047Y-93915071D01*
X158154666Y-93867452D01*
X158202285Y-93772214D01*
X158202285Y-93581738D01*
X158154666Y-93486500D01*
X157535619Y-93010309D02*
X158202285Y-93010309D01*
X158535619Y-93010309D02*
X158488000Y-93057928D01*
X158440380Y-93010309D01*
X158488000Y-92962690D01*
X158535619Y-93010309D01*
X158440380Y-93010309D01*
X158202285Y-92676976D02*
X158202285Y-92296023D01*
X158535619Y-92534119D02*
X157678476Y-92534119D01*
X157583238Y-92486500D01*
X157535619Y-92391261D01*
X157535619Y-92296023D01*
X157535619Y-91962690D02*
X158535619Y-91962690D01*
X157535619Y-91534119D02*
X158059428Y-91534119D01*
X158154666Y-91581738D01*
X158202285Y-91676976D01*
X158202285Y-91819833D01*
X158154666Y-91915071D01*
X158107047Y-91962690D01*
X158202285Y-90629357D02*
X157535619Y-90629357D01*
X158202285Y-91057928D02*
X157678476Y-91057928D01*
X157583238Y-91010309D01*
X157535619Y-90915071D01*
X157535619Y-90772214D01*
X157583238Y-90676976D01*
X157630857Y-90629357D01*
X157535619Y-90153166D02*
X158535619Y-90153166D01*
X158154666Y-90153166D02*
X158202285Y-90057928D01*
X158202285Y-89867452D01*
X158154666Y-89772214D01*
X158107047Y-89724595D01*
X158011809Y-89676976D01*
X157726095Y-89676976D01*
X157630857Y-89724595D01*
X157583238Y-89772214D01*
X157535619Y-89867452D01*
X157535619Y-90057928D01*
X157583238Y-90153166D01*
X157630857Y-89248404D02*
X157583238Y-89200785D01*
X157535619Y-89248404D01*
X157583238Y-89296023D01*
X157630857Y-89248404D01*
X157535619Y-89248404D01*
X157583238Y-88343642D02*
X157535619Y-88438880D01*
X157535619Y-88629357D01*
X157583238Y-88724595D01*
X157630857Y-88772214D01*
X157726095Y-88819833D01*
X158011809Y-88819833D01*
X158107047Y-88772214D01*
X158154666Y-88724595D01*
X158202285Y-88629357D01*
X158202285Y-88438880D01*
X158154666Y-88343642D01*
X157535619Y-87772214D02*
X157583238Y-87867452D01*
X157630857Y-87915071D01*
X157726095Y-87962690D01*
X158011809Y-87962690D01*
X158107047Y-87915071D01*
X158154666Y-87867452D01*
X158202285Y-87772214D01*
X158202285Y-87629357D01*
X158154666Y-87534119D01*
X158107047Y-87486500D01*
X158011809Y-87438880D01*
X157726095Y-87438880D01*
X157630857Y-87486500D01*
X157583238Y-87534119D01*
X157535619Y-87629357D01*
X157535619Y-87772214D01*
X157535619Y-87010309D02*
X158202285Y-87010309D01*
X158107047Y-87010309D02*
X158154666Y-86962690D01*
X158202285Y-86867452D01*
X158202285Y-86724595D01*
X158154666Y-86629357D01*
X158059428Y-86581738D01*
X157535619Y-86581738D01*
X158059428Y-86581738D02*
X158154666Y-86534119D01*
X158202285Y-86438880D01*
X158202285Y-86296023D01*
X158154666Y-86200785D01*
X158059428Y-86153166D01*
X157535619Y-86153166D01*
X158583238Y-84962690D02*
X157297523Y-85819833D01*
X158202285Y-84200785D02*
X157392761Y-84200785D01*
X157297523Y-84248404D01*
X157249904Y-84296023D01*
X157202285Y-84391261D01*
X157202285Y-84534119D01*
X157249904Y-84629357D01*
X157583238Y-84200785D02*
X157535619Y-84296023D01*
X157535619Y-84486500D01*
X157583238Y-84581738D01*
X157630857Y-84629357D01*
X157726095Y-84676976D01*
X158011809Y-84676976D01*
X158107047Y-84629357D01*
X158154666Y-84581738D01*
X158202285Y-84486500D01*
X158202285Y-84296023D01*
X158154666Y-84200785D01*
X157535619Y-83724595D02*
X158202285Y-83724595D01*
X158011809Y-83724595D02*
X158107047Y-83676976D01*
X158154666Y-83629357D01*
X158202285Y-83534119D01*
X158202285Y-83438880D01*
X157535619Y-82676976D02*
X158059428Y-82676976D01*
X158154666Y-82724595D01*
X158202285Y-82819833D01*
X158202285Y-83010309D01*
X158154666Y-83105547D01*
X157583238Y-82676976D02*
X157535619Y-82772214D01*
X157535619Y-83010309D01*
X157583238Y-83105547D01*
X157678476Y-83153166D01*
X157773714Y-83153166D01*
X157868952Y-83105547D01*
X157916571Y-83010309D01*
X157916571Y-82772214D01*
X157964190Y-82676976D01*
X158202285Y-82200785D02*
X157535619Y-82200785D01*
X158107047Y-82200785D02*
X158154666Y-82153166D01*
X158202285Y-82057928D01*
X158202285Y-81915071D01*
X158154666Y-81819833D01*
X158059428Y-81772214D01*
X157535619Y-81772214D01*
X158202285Y-81438880D02*
X158202285Y-81057928D01*
X158535619Y-81296023D02*
X157678476Y-81296023D01*
X157583238Y-81248404D01*
X157535619Y-81153166D01*
X157535619Y-81057928D01*
X157583238Y-80343642D02*
X157535619Y-80438880D01*
X157535619Y-80629357D01*
X157583238Y-80724595D01*
X157678476Y-80772214D01*
X158059428Y-80772214D01*
X158154666Y-80724595D01*
X158202285Y-80629357D01*
X158202285Y-80438880D01*
X158154666Y-80343642D01*
X158059428Y-80296023D01*
X157964190Y-80296023D01*
X157868952Y-80772214D01*
X157535619Y-79867452D02*
X158535619Y-79867452D01*
X157916571Y-79772214D02*
X157535619Y-79486500D01*
X158202285Y-79486500D02*
X157821333Y-79867452D01*
X158583238Y-78343642D02*
X157297523Y-79200785D01*
X157535619Y-78010309D02*
X158202285Y-78010309D01*
X158107047Y-78010309D02*
X158154666Y-77962690D01*
X158202285Y-77867452D01*
X158202285Y-77724595D01*
X158154666Y-77629357D01*
X158059428Y-77581738D01*
X157535619Y-77581738D01*
X158059428Y-77581738D02*
X158154666Y-77534119D01*
X158202285Y-77438880D01*
X158202285Y-77296023D01*
X158154666Y-77200785D01*
X158059428Y-77153166D01*
X157535619Y-77153166D01*
X157535619Y-76676976D02*
X158202285Y-76676976D01*
X158535619Y-76676976D02*
X158488000Y-76724595D01*
X158440380Y-76676976D01*
X158488000Y-76629357D01*
X158535619Y-76676976D01*
X158440380Y-76676976D01*
X158202285Y-76200785D02*
X157535619Y-76200785D01*
X158107047Y-76200785D02*
X158154666Y-76153166D01*
X158202285Y-76057928D01*
X158202285Y-75915071D01*
X158154666Y-75819833D01*
X158059428Y-75772214D01*
X157535619Y-75772214D01*
X157535619Y-75296023D02*
X158202285Y-75296023D01*
X158535619Y-75296023D02*
X158488000Y-75343642D01*
X158440380Y-75296023D01*
X158488000Y-75248404D01*
X158535619Y-75296023D01*
X158440380Y-75296023D01*
X157583238Y-74867452D02*
X157535619Y-74772214D01*
X157535619Y-74581738D01*
X157583238Y-74486500D01*
X157678476Y-74438880D01*
X157726095Y-74438880D01*
X157821333Y-74486500D01*
X157868952Y-74581738D01*
X157868952Y-74724595D01*
X157916571Y-74819833D01*
X158011809Y-74867452D01*
X158059428Y-74867452D01*
X158154666Y-74819833D01*
X158202285Y-74724595D01*
X158202285Y-74581738D01*
X158154666Y-74486500D01*
X158202285Y-74105547D02*
X157535619Y-73867452D01*
X158202285Y-73629357D02*
X157535619Y-73867452D01*
X157297523Y-73962690D01*
X157249904Y-74010309D01*
X157202285Y-74105547D01*
X158202285Y-73248404D02*
X157535619Y-73248404D01*
X158107047Y-73248404D02*
X158154666Y-73200785D01*
X158202285Y-73105547D01*
X158202285Y-72962690D01*
X158154666Y-72867452D01*
X158059428Y-72819833D01*
X157535619Y-72819833D01*
X158202285Y-72486500D02*
X158202285Y-72105547D01*
X158535619Y-72343642D02*
X157678476Y-72343642D01*
X157583238Y-72296023D01*
X157535619Y-72200785D01*
X157535619Y-72105547D01*
X157535619Y-71772214D02*
X158535619Y-71772214D01*
X157535619Y-71343642D02*
X158059428Y-71343642D01*
X158154666Y-71391261D01*
X158202285Y-71486500D01*
X158202285Y-71629357D01*
X158154666Y-71724595D01*
X158107047Y-71772214D01*
X158535619Y-70962690D02*
X158535619Y-70343642D01*
X158154666Y-70676976D01*
X158154666Y-70534119D01*
X158107047Y-70438880D01*
X158059428Y-70391261D01*
X157964190Y-70343642D01*
X157726095Y-70343642D01*
X157630857Y-70391261D01*
X157583238Y-70438880D01*
X157535619Y-70534119D01*
X157535619Y-70819833D01*
X157583238Y-70915071D01*
X157630857Y-70962690D01*
X158440380Y-69962690D02*
X158488000Y-69915071D01*
X158535619Y-69819833D01*
X158535619Y-69581738D01*
X158488000Y-69486500D01*
X158440380Y-69438880D01*
X158345142Y-69391261D01*
X158249904Y-69391261D01*
X158107047Y-69438880D01*
X157535619Y-70010309D01*
X157535619Y-69391261D01*
X155885619Y-99676976D02*
X156361809Y-100010309D01*
X155885619Y-100248404D02*
X156885619Y-100248404D01*
X156885619Y-99867452D01*
X156838000Y-99772214D01*
X156790380Y-99724595D01*
X156695142Y-99676976D01*
X156552285Y-99676976D01*
X156457047Y-99724595D01*
X156409428Y-99772214D01*
X156361809Y-99867452D01*
X156361809Y-100248404D01*
X155933238Y-98867452D02*
X155885619Y-98962690D01*
X155885619Y-99153166D01*
X155933238Y-99248404D01*
X156028476Y-99296023D01*
X156409428Y-99296023D01*
X156504666Y-99248404D01*
X156552285Y-99153166D01*
X156552285Y-98962690D01*
X156504666Y-98867452D01*
X156409428Y-98819833D01*
X156314190Y-98819833D01*
X156218952Y-99296023D01*
X156552285Y-98486500D02*
X155885619Y-98248404D01*
X156552285Y-98010309D01*
X155885619Y-96343642D02*
X155885619Y-96915071D01*
X155885619Y-96629357D02*
X156885619Y-96629357D01*
X156742761Y-96724595D01*
X156647523Y-96819833D01*
X156599904Y-96915071D01*
X155980857Y-95915071D02*
X155933238Y-95867452D01*
X155885619Y-95915071D01*
X155933238Y-95962690D01*
X155980857Y-95915071D01*
X155885619Y-95915071D01*
X155885619Y-94915071D02*
X155885619Y-95486500D01*
X155885619Y-95200785D02*
X156885619Y-95200785D01*
X156742761Y-95296023D01*
X156647523Y-95391261D01*
X156599904Y-95486500D01*
X156266571Y-94486500D02*
X156266571Y-93724595D01*
X155885619Y-92724595D02*
X155885619Y-93296023D01*
X155885619Y-93010309D02*
X156885619Y-93010309D01*
X156742761Y-93105547D01*
X156647523Y-93200785D01*
X156599904Y-93296023D01*
X155980857Y-92296023D02*
X155933238Y-92248404D01*
X155885619Y-92296023D01*
X155933238Y-92343642D01*
X155980857Y-92296023D01*
X155885619Y-92296023D01*
X156790380Y-91867452D02*
X156838000Y-91819833D01*
X156885619Y-91724595D01*
X156885619Y-91486500D01*
X156838000Y-91391261D01*
X156790380Y-91343642D01*
X156695142Y-91296023D01*
X156599904Y-91296023D01*
X156457047Y-91343642D01*
X155885619Y-91915071D01*
X155885619Y-91296023D01*
X118127380Y-44835595D02*
X117127380Y-44835595D01*
X117841666Y-45168928D01*
X117127380Y-45502261D01*
X118127380Y-45502261D01*
X118127380Y-45978452D02*
X117460714Y-45978452D01*
X117127380Y-45978452D02*
X117175000Y-45930833D01*
X117222619Y-45978452D01*
X117175000Y-46026071D01*
X117127380Y-45978452D01*
X117222619Y-45978452D01*
X117460714Y-46454642D02*
X118127380Y-46454642D01*
X117555952Y-46454642D02*
X117508333Y-46502261D01*
X117460714Y-46597500D01*
X117460714Y-46740357D01*
X117508333Y-46835595D01*
X117603571Y-46883214D01*
X118127380Y-46883214D01*
X118127380Y-47359404D02*
X117460714Y-47359404D01*
X117127380Y-47359404D02*
X117175000Y-47311785D01*
X117222619Y-47359404D01*
X117175000Y-47407023D01*
X117127380Y-47359404D01*
X117222619Y-47359404D01*
X118079761Y-47787976D02*
X118127380Y-47883214D01*
X118127380Y-48073690D01*
X118079761Y-48168928D01*
X117984523Y-48216547D01*
X117936904Y-48216547D01*
X117841666Y-48168928D01*
X117794047Y-48073690D01*
X117794047Y-47930833D01*
X117746428Y-47835595D01*
X117651190Y-47787976D01*
X117603571Y-47787976D01*
X117508333Y-47835595D01*
X117460714Y-47930833D01*
X117460714Y-48073690D01*
X117508333Y-48168928D01*
X117460714Y-48549880D02*
X118127380Y-48787976D01*
X117460714Y-49026071D02*
X118127380Y-48787976D01*
X118365476Y-48692738D01*
X118413095Y-48645119D01*
X118460714Y-48549880D01*
X117460714Y-49407023D02*
X118127380Y-49407023D01*
X117555952Y-49407023D02*
X117508333Y-49454642D01*
X117460714Y-49549880D01*
X117460714Y-49692738D01*
X117508333Y-49787976D01*
X117603571Y-49835595D01*
X118127380Y-49835595D01*
X117460714Y-50168928D02*
X117460714Y-50549880D01*
X117127380Y-50311785D02*
X117984523Y-50311785D01*
X118079761Y-50359404D01*
X118127380Y-50454642D01*
X118127380Y-50549880D01*
X118127380Y-50883214D02*
X117127380Y-50883214D01*
X118127380Y-51311785D02*
X117603571Y-51311785D01*
X117508333Y-51264166D01*
X117460714Y-51168928D01*
X117460714Y-51026071D01*
X117508333Y-50930833D01*
X117555952Y-50883214D01*
X117127380Y-52454642D02*
X117127380Y-53073690D01*
X117508333Y-52740357D01*
X117508333Y-52883214D01*
X117555952Y-52978452D01*
X117603571Y-53026071D01*
X117698809Y-53073690D01*
X117936904Y-53073690D01*
X118032142Y-53026071D01*
X118079761Y-52978452D01*
X118127380Y-52883214D01*
X118127380Y-52597500D01*
X118079761Y-52502261D01*
X118032142Y-52454642D01*
X117222619Y-53454642D02*
X117175000Y-53502261D01*
X117127380Y-53597500D01*
X117127380Y-53835595D01*
X117175000Y-53930833D01*
X117222619Y-53978452D01*
X117317857Y-54026071D01*
X117413095Y-54026071D01*
X117555952Y-53978452D01*
X118127380Y-53407023D01*
X118127380Y-54026071D01*
X118032142Y-54454642D02*
X118079761Y-54502261D01*
X118127380Y-54454642D01*
X118079761Y-54407023D01*
X118032142Y-54454642D01*
X118127380Y-54454642D01*
X117508333Y-54454642D02*
X117555952Y-54502261D01*
X117603571Y-54454642D01*
X117555952Y-54407023D01*
X117508333Y-54454642D01*
X117603571Y-54454642D01*
X117603571Y-56026071D02*
X117603571Y-55692738D01*
X118127380Y-55692738D02*
X117127380Y-55692738D01*
X117127380Y-56168928D01*
X118127380Y-56549880D02*
X117460714Y-56549880D01*
X117651190Y-56549880D02*
X117555952Y-56597500D01*
X117508333Y-56645119D01*
X117460714Y-56740357D01*
X117460714Y-56835595D01*
X118127380Y-57311785D02*
X118079761Y-57216547D01*
X118032142Y-57168928D01*
X117936904Y-57121309D01*
X117651190Y-57121309D01*
X117555952Y-57168928D01*
X117508333Y-57216547D01*
X117460714Y-57311785D01*
X117460714Y-57454642D01*
X117508333Y-57549880D01*
X117555952Y-57597500D01*
X117651190Y-57645119D01*
X117936904Y-57645119D01*
X118032142Y-57597500D01*
X118079761Y-57549880D01*
X118127380Y-57454642D01*
X118127380Y-57311785D01*
X117460714Y-58073690D02*
X118127380Y-58073690D01*
X117555952Y-58073690D02*
X117508333Y-58121309D01*
X117460714Y-58216547D01*
X117460714Y-58359404D01*
X117508333Y-58454642D01*
X117603571Y-58502261D01*
X118127380Y-58502261D01*
X117460714Y-58835595D02*
X117460714Y-59216547D01*
X117127380Y-58978452D02*
X117984523Y-58978452D01*
X118079761Y-59026071D01*
X118127380Y-59121309D01*
X118127380Y-59216547D01*
X117460714Y-60311785D02*
X118460714Y-60311785D01*
X117508333Y-60311785D02*
X117460714Y-60407023D01*
X117460714Y-60597499D01*
X117508333Y-60692738D01*
X117555952Y-60740357D01*
X117651190Y-60787976D01*
X117936904Y-60787976D01*
X118032142Y-60740357D01*
X118079761Y-60692738D01*
X118127380Y-60597499D01*
X118127380Y-60407023D01*
X118079761Y-60311785D01*
X118127380Y-61645119D02*
X117603571Y-61645119D01*
X117508333Y-61597499D01*
X117460714Y-61502261D01*
X117460714Y-61311785D01*
X117508333Y-61216547D01*
X118079761Y-61645119D02*
X118127380Y-61549880D01*
X118127380Y-61311785D01*
X118079761Y-61216547D01*
X117984523Y-61168928D01*
X117889285Y-61168928D01*
X117794047Y-61216547D01*
X117746428Y-61311785D01*
X117746428Y-61549880D01*
X117698809Y-61645119D01*
X117460714Y-62121309D02*
X118127380Y-62121309D01*
X117555952Y-62121309D02*
X117508333Y-62168928D01*
X117460714Y-62264166D01*
X117460714Y-62407023D01*
X117508333Y-62502261D01*
X117603571Y-62549880D01*
X118127380Y-62549880D01*
X118079761Y-63407023D02*
X118127380Y-63311785D01*
X118127380Y-63121309D01*
X118079761Y-63026071D01*
X117984523Y-62978452D01*
X117603571Y-62978452D01*
X117508333Y-63026071D01*
X117460714Y-63121309D01*
X117460714Y-63311785D01*
X117508333Y-63407023D01*
X117603571Y-63454642D01*
X117698809Y-63454642D01*
X117794047Y-62978452D01*
X118127380Y-64026071D02*
X118079761Y-63930833D01*
X117984523Y-63883214D01*
X117127380Y-63883214D01*
X118127380Y-65168928D02*
X117127380Y-65168928D01*
X117508333Y-65168928D02*
X117460714Y-65264166D01*
X117460714Y-65454642D01*
X117508333Y-65549880D01*
X117555952Y-65597499D01*
X117651190Y-65645119D01*
X117936904Y-65645119D01*
X118032142Y-65597499D01*
X118079761Y-65549880D01*
X118127380Y-65454642D01*
X118127380Y-65264166D01*
X118079761Y-65168928D01*
X118127380Y-66216547D02*
X118079761Y-66121309D01*
X118032142Y-66073690D01*
X117936904Y-66026071D01*
X117651190Y-66026071D01*
X117555952Y-66073690D01*
X117508333Y-66121309D01*
X117460714Y-66216547D01*
X117460714Y-66359404D01*
X117508333Y-66454642D01*
X117555952Y-66502261D01*
X117651190Y-66549880D01*
X117936904Y-66549880D01*
X118032142Y-66502261D01*
X118079761Y-66454642D01*
X118127380Y-66359404D01*
X118127380Y-66216547D01*
X118127380Y-67407023D02*
X117603571Y-67407023D01*
X117508333Y-67359404D01*
X117460714Y-67264166D01*
X117460714Y-67073690D01*
X117508333Y-66978452D01*
X118079761Y-67407023D02*
X118127380Y-67311785D01*
X118127380Y-67073690D01*
X118079761Y-66978452D01*
X117984523Y-66930833D01*
X117889285Y-66930833D01*
X117794047Y-66978452D01*
X117746428Y-67073690D01*
X117746428Y-67311785D01*
X117698809Y-67407023D01*
X118127380Y-67883214D02*
X117460714Y-67883214D01*
X117651190Y-67883214D02*
X117555952Y-67930833D01*
X117508333Y-67978452D01*
X117460714Y-68073690D01*
X117460714Y-68168928D01*
X118127380Y-68930833D02*
X117127380Y-68930833D01*
X118079761Y-68930833D02*
X118127380Y-68835595D01*
X118127380Y-68645119D01*
X118079761Y-68549880D01*
X118032142Y-68502261D01*
X117936904Y-68454642D01*
X117651190Y-68454642D01*
X117555952Y-68502261D01*
X117508333Y-68549880D01*
X117460714Y-68645119D01*
X117460714Y-68835595D01*
X117508333Y-68930833D01*
X118127380Y-70740357D02*
X117651190Y-70407023D01*
X118127380Y-70168928D02*
X117127380Y-70168928D01*
X117127380Y-70549880D01*
X117175000Y-70645119D01*
X117222619Y-70692738D01*
X117317857Y-70740357D01*
X117460714Y-70740357D01*
X117555952Y-70692738D01*
X117603571Y-70645119D01*
X117651190Y-70549880D01*
X117651190Y-70168928D01*
X118079761Y-71549880D02*
X118127380Y-71454642D01*
X118127380Y-71264166D01*
X118079761Y-71168928D01*
X117984523Y-71121309D01*
X117603571Y-71121309D01*
X117508333Y-71168928D01*
X117460714Y-71264166D01*
X117460714Y-71454642D01*
X117508333Y-71549880D01*
X117603571Y-71597499D01*
X117698809Y-71597499D01*
X117794047Y-71121309D01*
X117460714Y-71930833D02*
X118127380Y-72168928D01*
X117460714Y-72407023D01*
X117222619Y-73502261D02*
X117175000Y-73549880D01*
X117127380Y-73645119D01*
X117127380Y-73883214D01*
X117175000Y-73978452D01*
X117222619Y-74026071D01*
X117317857Y-74073690D01*
X117413095Y-74073690D01*
X117555952Y-74026071D01*
X118127380Y-73454642D01*
X118127380Y-74073690D01*
X118032142Y-74502261D02*
X118079761Y-74549880D01*
X118127380Y-74502261D01*
X118079761Y-74454642D01*
X118032142Y-74502261D01*
X118127380Y-74502261D01*
X117127380Y-75168928D02*
X117127380Y-75264166D01*
X117175000Y-75359404D01*
X117222619Y-75407023D01*
X117317857Y-75454642D01*
X117508333Y-75502261D01*
X117746428Y-75502261D01*
X117936904Y-75454642D01*
X118032142Y-75407023D01*
X118079761Y-75359404D01*
X118127380Y-75264166D01*
X118127380Y-75168928D01*
X118079761Y-75073690D01*
X118032142Y-75026071D01*
X117936904Y-74978452D01*
X117746428Y-74930833D01*
X117508333Y-74930833D01*
X117317857Y-74978452D01*
X117222619Y-75026071D01*
X117175000Y-75073690D01*
X117127380Y-75168928D01*
X119777380Y-44835595D02*
X118777380Y-44835595D01*
X119777380Y-45264166D02*
X119253571Y-45264166D01*
X119158333Y-45216547D01*
X119110714Y-45121309D01*
X119110714Y-44978452D01*
X119158333Y-44883214D01*
X119205952Y-44835595D01*
X119110714Y-45597500D02*
X119110714Y-45978452D01*
X118777380Y-45740357D02*
X119634523Y-45740357D01*
X119729761Y-45787976D01*
X119777380Y-45883214D01*
X119777380Y-45978452D01*
X119110714Y-46168928D02*
X119110714Y-46549880D01*
X118777380Y-46311785D02*
X119634523Y-46311785D01*
X119729761Y-46359404D01*
X119777380Y-46454642D01*
X119777380Y-46549880D01*
X119110714Y-46883214D02*
X120110714Y-46883214D01*
X119158333Y-46883214D02*
X119110714Y-46978452D01*
X119110714Y-47168928D01*
X119158333Y-47264166D01*
X119205952Y-47311785D01*
X119301190Y-47359404D01*
X119586904Y-47359404D01*
X119682142Y-47311785D01*
X119729761Y-47264166D01*
X119777380Y-47168928D01*
X119777380Y-46978452D01*
X119729761Y-46883214D01*
X119729761Y-47740357D02*
X119777380Y-47835595D01*
X119777380Y-48026071D01*
X119729761Y-48121309D01*
X119634523Y-48168928D01*
X119586904Y-48168928D01*
X119491666Y-48121309D01*
X119444047Y-48026071D01*
X119444047Y-47883214D01*
X119396428Y-47787976D01*
X119301190Y-47740357D01*
X119253571Y-47740357D01*
X119158333Y-47787976D01*
X119110714Y-47883214D01*
X119110714Y-48026071D01*
X119158333Y-48121309D01*
X119682142Y-48597500D02*
X119729761Y-48645119D01*
X119777380Y-48597500D01*
X119729761Y-48549880D01*
X119682142Y-48597500D01*
X119777380Y-48597500D01*
X119158333Y-48597500D02*
X119205952Y-48645119D01*
X119253571Y-48597500D01*
X119205952Y-48549880D01*
X119158333Y-48597500D01*
X119253571Y-48597500D01*
X118729761Y-49787976D02*
X120015476Y-48930833D01*
X118729761Y-50835595D02*
X120015476Y-49978452D01*
X119110714Y-51597500D02*
X119920238Y-51597500D01*
X120015476Y-51549880D01*
X120063095Y-51502261D01*
X120110714Y-51407023D01*
X120110714Y-51264166D01*
X120063095Y-51168928D01*
X119729761Y-51597500D02*
X119777380Y-51502261D01*
X119777380Y-51311785D01*
X119729761Y-51216547D01*
X119682142Y-51168928D01*
X119586904Y-51121309D01*
X119301190Y-51121309D01*
X119205952Y-51168928D01*
X119158333Y-51216547D01*
X119110714Y-51311785D01*
X119110714Y-51502261D01*
X119158333Y-51597500D01*
X119777380Y-52073690D02*
X119110714Y-52073690D01*
X118777380Y-52073690D02*
X118825000Y-52026071D01*
X118872619Y-52073690D01*
X118825000Y-52121309D01*
X118777380Y-52073690D01*
X118872619Y-52073690D01*
X119110714Y-52407023D02*
X119110714Y-52787976D01*
X118777380Y-52549880D02*
X119634523Y-52549880D01*
X119729761Y-52597500D01*
X119777380Y-52692738D01*
X119777380Y-52787976D01*
X119777380Y-53121309D02*
X118777380Y-53121309D01*
X119777380Y-53549880D02*
X119253571Y-53549880D01*
X119158333Y-53502261D01*
X119110714Y-53407023D01*
X119110714Y-53264166D01*
X119158333Y-53168928D01*
X119205952Y-53121309D01*
X119110714Y-54454642D02*
X119777380Y-54454642D01*
X119110714Y-54026071D02*
X119634523Y-54026071D01*
X119729761Y-54073690D01*
X119777380Y-54168928D01*
X119777380Y-54311785D01*
X119729761Y-54407023D01*
X119682142Y-54454642D01*
X119777380Y-54930833D02*
X118777380Y-54930833D01*
X119158333Y-54930833D02*
X119110714Y-55026071D01*
X119110714Y-55216547D01*
X119158333Y-55311785D01*
X119205952Y-55359404D01*
X119301190Y-55407023D01*
X119586904Y-55407023D01*
X119682142Y-55359404D01*
X119729761Y-55311785D01*
X119777380Y-55216547D01*
X119777380Y-55026071D01*
X119729761Y-54930833D01*
X119682142Y-55835595D02*
X119729761Y-55883214D01*
X119777380Y-55835595D01*
X119729761Y-55787976D01*
X119682142Y-55835595D01*
X119777380Y-55835595D01*
X119729761Y-56740357D02*
X119777380Y-56645119D01*
X119777380Y-56454642D01*
X119729761Y-56359404D01*
X119682142Y-56311785D01*
X119586904Y-56264166D01*
X119301190Y-56264166D01*
X119205952Y-56311785D01*
X119158333Y-56359404D01*
X119110714Y-56454642D01*
X119110714Y-56645119D01*
X119158333Y-56740357D01*
X119777380Y-57311785D02*
X119729761Y-57216547D01*
X119682142Y-57168928D01*
X119586904Y-57121309D01*
X119301190Y-57121309D01*
X119205952Y-57168928D01*
X119158333Y-57216547D01*
X119110714Y-57311785D01*
X119110714Y-57454642D01*
X119158333Y-57549880D01*
X119205952Y-57597500D01*
X119301190Y-57645119D01*
X119586904Y-57645119D01*
X119682142Y-57597500D01*
X119729761Y-57549880D01*
X119777380Y-57454642D01*
X119777380Y-57311785D01*
X119777380Y-58073690D02*
X119110714Y-58073690D01*
X119205952Y-58073690D02*
X119158333Y-58121309D01*
X119110714Y-58216547D01*
X119110714Y-58359404D01*
X119158333Y-58454642D01*
X119253571Y-58502261D01*
X119777380Y-58502261D01*
X119253571Y-58502261D02*
X119158333Y-58549880D01*
X119110714Y-58645119D01*
X119110714Y-58787976D01*
X119158333Y-58883214D01*
X119253571Y-58930833D01*
X119777380Y-58930833D01*
X118729761Y-60121309D02*
X120015476Y-59264166D01*
X119110714Y-60883214D02*
X119920238Y-60883214D01*
X120015476Y-60835595D01*
X120063095Y-60787976D01*
X120110714Y-60692738D01*
X120110714Y-60549880D01*
X120063095Y-60454642D01*
X119729761Y-60883214D02*
X119777380Y-60787976D01*
X119777380Y-60597500D01*
X119729761Y-60502261D01*
X119682142Y-60454642D01*
X119586904Y-60407023D01*
X119301190Y-60407023D01*
X119205952Y-60454642D01*
X119158333Y-60502261D01*
X119110714Y-60597500D01*
X119110714Y-60787976D01*
X119158333Y-60883214D01*
X119777380Y-61359404D02*
X119110714Y-61359404D01*
X119301190Y-61359404D02*
X119205952Y-61407023D01*
X119158333Y-61454642D01*
X119110714Y-61549880D01*
X119110714Y-61645119D01*
X119777380Y-62407023D02*
X119253571Y-62407023D01*
X119158333Y-62359404D01*
X119110714Y-62264166D01*
X119110714Y-62073690D01*
X119158333Y-61978452D01*
X119729761Y-62407023D02*
X119777380Y-62311785D01*
X119777380Y-62073690D01*
X119729761Y-61978452D01*
X119634523Y-61930833D01*
X119539285Y-61930833D01*
X119444047Y-61978452D01*
X119396428Y-62073690D01*
X119396428Y-62311785D01*
X119348809Y-62407023D01*
X119110714Y-62883214D02*
X119777380Y-62883214D01*
X119205952Y-62883214D02*
X119158333Y-62930833D01*
X119110714Y-63026071D01*
X119110714Y-63168928D01*
X119158333Y-63264166D01*
X119253571Y-63311785D01*
X119777380Y-63311785D01*
X119110714Y-63645119D02*
X119110714Y-64026071D01*
X118777380Y-63787976D02*
X119634523Y-63787976D01*
X119729761Y-63835595D01*
X119777380Y-63930833D01*
X119777380Y-64026071D01*
X119729761Y-64740357D02*
X119777380Y-64645119D01*
X119777380Y-64454642D01*
X119729761Y-64359404D01*
X119634523Y-64311785D01*
X119253571Y-64311785D01*
X119158333Y-64359404D01*
X119110714Y-64454642D01*
X119110714Y-64645119D01*
X119158333Y-64740357D01*
X119253571Y-64787976D01*
X119348809Y-64787976D01*
X119444047Y-64311785D01*
X119777380Y-65216547D02*
X118777380Y-65216547D01*
X119396428Y-65311785D02*
X119777380Y-65597500D01*
X119110714Y-65597500D02*
X119491666Y-65216547D01*
X118729761Y-66740357D02*
X120015476Y-65883214D01*
X119777380Y-67073690D02*
X119110714Y-67073690D01*
X119205952Y-67073690D02*
X119158333Y-67121309D01*
X119110714Y-67216547D01*
X119110714Y-67359404D01*
X119158333Y-67454642D01*
X119253571Y-67502261D01*
X119777380Y-67502261D01*
X119253571Y-67502261D02*
X119158333Y-67549880D01*
X119110714Y-67645119D01*
X119110714Y-67787976D01*
X119158333Y-67883214D01*
X119253571Y-67930833D01*
X119777380Y-67930833D01*
X119777380Y-68407023D02*
X119110714Y-68407023D01*
X118777380Y-68407023D02*
X118825000Y-68359404D01*
X118872619Y-68407023D01*
X118825000Y-68454642D01*
X118777380Y-68407023D01*
X118872619Y-68407023D01*
X119110714Y-68883214D02*
X119777380Y-68883214D01*
X119205952Y-68883214D02*
X119158333Y-68930833D01*
X119110714Y-69026071D01*
X119110714Y-69168928D01*
X119158333Y-69264166D01*
X119253571Y-69311785D01*
X119777380Y-69311785D01*
X119777380Y-69787976D02*
X119110714Y-69787976D01*
X118777380Y-69787976D02*
X118825000Y-69740357D01*
X118872619Y-69787976D01*
X118825000Y-69835595D01*
X118777380Y-69787976D01*
X118872619Y-69787976D01*
X119729761Y-70216547D02*
X119777380Y-70311785D01*
X119777380Y-70502261D01*
X119729761Y-70597500D01*
X119634523Y-70645119D01*
X119586904Y-70645119D01*
X119491666Y-70597500D01*
X119444047Y-70502261D01*
X119444047Y-70359404D01*
X119396428Y-70264166D01*
X119301190Y-70216547D01*
X119253571Y-70216547D01*
X119158333Y-70264166D01*
X119110714Y-70359404D01*
X119110714Y-70502261D01*
X119158333Y-70597500D01*
X119110714Y-70978452D02*
X119777380Y-71216547D01*
X119110714Y-71454642D02*
X119777380Y-71216547D01*
X120015476Y-71121309D01*
X120063095Y-71073690D01*
X120110714Y-70978452D01*
X119110714Y-71835595D02*
X119777380Y-71835595D01*
X119205952Y-71835595D02*
X119158333Y-71883214D01*
X119110714Y-71978452D01*
X119110714Y-72121309D01*
X119158333Y-72216547D01*
X119253571Y-72264166D01*
X119777380Y-72264166D01*
X119110714Y-72597500D02*
X119110714Y-72978452D01*
X118777380Y-72740357D02*
X119634523Y-72740357D01*
X119729761Y-72787976D01*
X119777380Y-72883214D01*
X119777380Y-72978452D01*
X119777380Y-73311785D02*
X118777380Y-73311785D01*
X119777380Y-73740357D02*
X119253571Y-73740357D01*
X119158333Y-73692738D01*
X119110714Y-73597500D01*
X119110714Y-73454642D01*
X119158333Y-73359404D01*
X119205952Y-73311785D01*
X118777380Y-74121309D02*
X118777380Y-74740357D01*
X119158333Y-74407023D01*
X119158333Y-74549880D01*
X119205952Y-74645119D01*
X119253571Y-74692738D01*
X119348809Y-74740357D01*
X119586904Y-74740357D01*
X119682142Y-74692738D01*
X119729761Y-74645119D01*
X119777380Y-74549880D01*
X119777380Y-74264166D01*
X119729761Y-74168928D01*
X119682142Y-74121309D01*
X118872619Y-75121309D02*
X118825000Y-75168928D01*
X118777380Y-75264166D01*
X118777380Y-75502261D01*
X118825000Y-75597500D01*
X118872619Y-75645119D01*
X118967857Y-75692738D01*
X119063095Y-75692738D01*
X119205952Y-75645119D01*
X119777380Y-75073690D01*
X119777380Y-75692738D01*
D10*
X133350000Y-104648000D02*
X133096000Y-104394000D01*
X134112000Y-104648000D02*
X133350000Y-104648000D01*
X133858000Y-101092000D02*
X133350000Y-101092000D01*
X134112000Y-101346000D02*
X133858000Y-101092000D01*
X133858000Y-98552000D02*
X133350000Y-98552000D01*
X134112000Y-98298000D02*
X133858000Y-98552000D01*
X133350000Y-96012000D02*
X134112000Y-96012000D01*
X133604000Y-123698000D02*
X133350000Y-123952000D01*
X133604000Y-123444000D02*
X133604000Y-123698000D01*
X133604000Y-122428000D02*
X133604000Y-123444000D01*
X133858000Y-122174000D02*
X133604000Y-122428000D01*
X133604000Y-126238000D02*
X133350000Y-126492000D01*
X133604000Y-125730000D02*
X133604000Y-126238000D01*
X133858000Y-125476000D02*
X133604000Y-125730000D01*
X133858000Y-129032000D02*
X133350000Y-129032000D01*
X132842000Y-119380000D02*
X132334000Y-120142000D01*
X133858000Y-119380000D02*
X132842000Y-119380000D01*
D11*
X135374000Y-105480857D02*
X135421619Y-105576095D01*
X135421619Y-105718952D01*
X135374000Y-105861809D01*
X135278761Y-105957047D01*
X135183523Y-106004666D01*
X134993047Y-106052285D01*
X134850190Y-106052285D01*
X134659714Y-106004666D01*
X134564476Y-105957047D01*
X134469238Y-105861809D01*
X134421619Y-105718952D01*
X134421619Y-105623714D01*
X134469238Y-105480857D01*
X134516857Y-105433238D01*
X134850190Y-105433238D01*
X134850190Y-105623714D01*
X134421619Y-105004666D02*
X135421619Y-105004666D01*
X134421619Y-104433238D01*
X135421619Y-104433238D01*
X134421619Y-103957047D02*
X135421619Y-103957047D01*
X135421619Y-103718952D01*
X135374000Y-103576095D01*
X135278761Y-103480857D01*
X135183523Y-103433238D01*
X134993047Y-103385619D01*
X134850190Y-103385619D01*
X134659714Y-103433238D01*
X134564476Y-103480857D01*
X134469238Y-103576095D01*
X134421619Y-103718952D01*
X134421619Y-103957047D01*
X134469238Y-102242761D02*
X134421619Y-102099904D01*
X134421619Y-101861809D01*
X134469238Y-101766571D01*
X134516857Y-101718952D01*
X134612095Y-101671333D01*
X134707333Y-101671333D01*
X134802571Y-101718952D01*
X134850190Y-101766571D01*
X134897809Y-101861809D01*
X134945428Y-102052285D01*
X134993047Y-102147523D01*
X135040666Y-102195142D01*
X135135904Y-102242761D01*
X135231142Y-102242761D01*
X135326380Y-102195142D01*
X135374000Y-102147523D01*
X135421619Y-102052285D01*
X135421619Y-101814190D01*
X135374000Y-101671333D01*
X135421619Y-101338000D02*
X134421619Y-101099904D01*
X135135904Y-100909428D01*
X134421619Y-100718952D01*
X135421619Y-100480857D01*
X134945428Y-98242761D02*
X134897809Y-98099904D01*
X134850190Y-98052285D01*
X134754952Y-98004666D01*
X134612095Y-98004666D01*
X134516857Y-98052285D01*
X134469238Y-98099904D01*
X134421619Y-98195142D01*
X134421619Y-98576095D01*
X135421619Y-98576095D01*
X135421619Y-98242761D01*
X135374000Y-98147523D01*
X135326380Y-98099904D01*
X135231142Y-98052285D01*
X135135904Y-98052285D01*
X135040666Y-98099904D01*
X134993047Y-98147523D01*
X134945428Y-98242761D01*
X134945428Y-98576095D01*
X134707333Y-96099904D02*
X134707333Y-95623714D01*
X134421619Y-96195142D02*
X135421619Y-95861809D01*
X134421619Y-95528476D01*
D10*
X114378000Y-129350000D02*
X113538000Y-128524000D01*
X114427000Y-130937000D02*
X113538000Y-130048000D01*
X114427000Y-132588000D02*
X113538000Y-131699000D01*
X114173000Y-134239000D02*
X112903000Y-134239000D01*
D11*
X116712904Y-128851000D02*
X116808142Y-128803380D01*
X116951000Y-128803380D01*
X117093857Y-128851000D01*
X117189095Y-128946238D01*
X117236714Y-129041476D01*
X117284333Y-129231952D01*
X117284333Y-129374809D01*
X117236714Y-129565285D01*
X117189095Y-129660523D01*
X117093857Y-129755761D01*
X116951000Y-129803380D01*
X116855761Y-129803380D01*
X116712904Y-129755761D01*
X116665285Y-129708142D01*
X116665285Y-129374809D01*
X116855761Y-129374809D01*
X116236714Y-129803380D02*
X116236714Y-128803380D01*
X115665285Y-129803380D01*
X115665285Y-128803380D01*
X115189095Y-129803380D02*
X115189095Y-128803380D01*
X114951000Y-128803380D01*
X114808142Y-128851000D01*
X114712904Y-128946238D01*
X114665285Y-129041476D01*
X114617666Y-129231952D01*
X114617666Y-129374809D01*
X114665285Y-129565285D01*
X114712904Y-129660523D01*
X114808142Y-129755761D01*
X114951000Y-129803380D01*
X115189095Y-129803380D01*
X117284333Y-130453380D02*
X116951000Y-131453380D01*
X116617666Y-130453380D01*
X115712904Y-131358142D02*
X115760523Y-131405761D01*
X115903380Y-131453380D01*
X115998619Y-131453380D01*
X116141476Y-131405761D01*
X116236714Y-131310523D01*
X116284333Y-131215285D01*
X116331952Y-131024809D01*
X116331952Y-130881952D01*
X116284333Y-130691476D01*
X116236714Y-130596238D01*
X116141476Y-130501000D01*
X115998619Y-130453380D01*
X115903380Y-130453380D01*
X115760523Y-130501000D01*
X115712904Y-130548619D01*
X114712904Y-131358142D02*
X114760523Y-131405761D01*
X114903380Y-131453380D01*
X114998619Y-131453380D01*
X115141476Y-131405761D01*
X115236714Y-131310523D01*
X115284333Y-131215285D01*
X115331952Y-131024809D01*
X115331952Y-130881952D01*
X115284333Y-130691476D01*
X115236714Y-130596238D01*
X115141476Y-130501000D01*
X114998619Y-130453380D01*
X114903380Y-130453380D01*
X114760523Y-130501000D01*
X114712904Y-130548619D01*
X117141476Y-133055761D02*
X116998619Y-133103380D01*
X116760523Y-133103380D01*
X116665285Y-133055761D01*
X116617666Y-133008142D01*
X116570047Y-132912904D01*
X116570047Y-132817666D01*
X116617666Y-132722428D01*
X116665285Y-132674809D01*
X116760523Y-132627190D01*
X116951000Y-132579571D01*
X117046238Y-132531952D01*
X117093857Y-132484333D01*
X117141476Y-132389095D01*
X117141476Y-132293857D01*
X117093857Y-132198619D01*
X117046238Y-132151000D01*
X116951000Y-132103380D01*
X116712904Y-132103380D01*
X116570047Y-132151000D01*
X115570047Y-133008142D02*
X115617666Y-133055761D01*
X115760523Y-133103380D01*
X115855761Y-133103380D01*
X115998619Y-133055761D01*
X116093857Y-132960523D01*
X116141476Y-132865285D01*
X116189095Y-132674809D01*
X116189095Y-132531952D01*
X116141476Y-132341476D01*
X116093857Y-132246238D01*
X115998619Y-132151000D01*
X115855761Y-132103380D01*
X115760523Y-132103380D01*
X115617666Y-132151000D01*
X115570047Y-132198619D01*
X114665285Y-133103380D02*
X115141476Y-133103380D01*
X115141476Y-132103380D01*
X117165285Y-134705761D02*
X117022428Y-134753380D01*
X116784333Y-134753380D01*
X116689095Y-134705761D01*
X116641476Y-134658142D01*
X116593857Y-134562904D01*
X116593857Y-134467666D01*
X116641476Y-134372428D01*
X116689095Y-134324809D01*
X116784333Y-134277190D01*
X116974809Y-134229571D01*
X117070047Y-134181952D01*
X117117666Y-134134333D01*
X117165285Y-134039095D01*
X117165285Y-133943857D01*
X117117666Y-133848619D01*
X117070047Y-133801000D01*
X116974809Y-133753380D01*
X116736714Y-133753380D01*
X116593857Y-133801000D01*
X116165285Y-134753380D02*
X116165285Y-133753380D01*
X115927190Y-133753380D01*
X115784333Y-133801000D01*
X115689095Y-133896238D01*
X115641476Y-133991476D01*
X115593857Y-134181952D01*
X115593857Y-134324809D01*
X115641476Y-134515285D01*
X115689095Y-134610523D01*
X115784333Y-134705761D01*
X115927190Y-134753380D01*
X116165285Y-134753380D01*
X115212904Y-134467666D02*
X114736714Y-134467666D01*
X115308142Y-134753380D02*
X114974809Y-133753380D01*
X114641476Y-134753380D01*
X115328571Y-118838095D02*
X115376190Y-118980952D01*
X115423809Y-119028571D01*
X115519047Y-119076190D01*
X115661904Y-119076190D01*
X115757142Y-119028571D01*
X115804761Y-118980952D01*
X115852380Y-118885714D01*
X115852380Y-118504761D01*
X114852380Y-118504761D01*
X114852380Y-118838095D01*
X114900000Y-118933333D01*
X114947619Y-118980952D01*
X115042857Y-119028571D01*
X115138095Y-119028571D01*
X115233333Y-118980952D01*
X115280952Y-118933333D01*
X115328571Y-118838095D01*
X115328571Y-118504761D01*
X114947619Y-119457142D02*
X114900000Y-119504761D01*
X114852380Y-119600000D01*
X114852380Y-119838095D01*
X114900000Y-119933333D01*
X114947619Y-119980952D01*
X115042857Y-120028571D01*
X115138095Y-120028571D01*
X115280952Y-119980952D01*
X115852380Y-119409523D01*
X115852380Y-120028571D01*
X115328571Y-121552380D02*
X115376190Y-121695238D01*
X115423809Y-121742857D01*
X115519047Y-121790476D01*
X115661904Y-121790476D01*
X115757142Y-121742857D01*
X115804761Y-121695238D01*
X115852380Y-121600000D01*
X115852380Y-121219047D01*
X114852380Y-121219047D01*
X114852380Y-121552380D01*
X114900000Y-121647619D01*
X114947619Y-121695238D01*
X115042857Y-121742857D01*
X115138095Y-121742857D01*
X115233333Y-121695238D01*
X115280952Y-121647619D01*
X115328571Y-121552380D01*
X115328571Y-121219047D01*
X115852380Y-122742857D02*
X115852380Y-122171428D01*
X115852380Y-122457142D02*
X114852380Y-122457142D01*
X114995238Y-122361904D01*
X115090476Y-122266666D01*
X115138095Y-122171428D01*
X134215238Y-137420761D02*
X134167619Y-137277904D01*
X134167619Y-137039809D01*
X134215238Y-136944571D01*
X134262857Y-136896952D01*
X134358095Y-136849333D01*
X134453333Y-136849333D01*
X134548571Y-136896952D01*
X134596190Y-136944571D01*
X134643809Y-137039809D01*
X134691428Y-137230285D01*
X134739047Y-137325523D01*
X134786666Y-137373142D01*
X134881904Y-137420761D01*
X134977142Y-137420761D01*
X135072380Y-137373142D01*
X135120000Y-137325523D01*
X135167619Y-137230285D01*
X135167619Y-136992190D01*
X135120000Y-136849333D01*
X134167619Y-136420761D02*
X135167619Y-136420761D01*
X135167619Y-136182666D01*
X135120000Y-136039809D01*
X135024761Y-135944571D01*
X134929523Y-135896952D01*
X134739047Y-135849333D01*
X134596190Y-135849333D01*
X134405714Y-135896952D01*
X134310476Y-135944571D01*
X134215238Y-136039809D01*
X134167619Y-136182666D01*
X134167619Y-136420761D01*
X134453333Y-135468380D02*
X134453333Y-134992190D01*
X134167619Y-135563619D02*
X135167619Y-135230285D01*
X134167619Y-134896952D01*
X134215238Y-133849333D02*
X134167619Y-133706476D01*
X134167619Y-133468380D01*
X134215238Y-133373142D01*
X134262857Y-133325523D01*
X134358095Y-133277904D01*
X134453333Y-133277904D01*
X134548571Y-133325523D01*
X134596190Y-133373142D01*
X134643809Y-133468380D01*
X134691428Y-133658857D01*
X134739047Y-133754095D01*
X134786666Y-133801714D01*
X134881904Y-133849333D01*
X134977142Y-133849333D01*
X135072380Y-133801714D01*
X135120000Y-133754095D01*
X135167619Y-133658857D01*
X135167619Y-133420761D01*
X135120000Y-133277904D01*
X134262857Y-132277904D02*
X134215238Y-132325523D01*
X134167619Y-132468380D01*
X134167619Y-132563619D01*
X134215238Y-132706476D01*
X134310476Y-132801714D01*
X134405714Y-132849333D01*
X134596190Y-132896952D01*
X134739047Y-132896952D01*
X134929523Y-132849333D01*
X135024761Y-132801714D01*
X135120000Y-132706476D01*
X135167619Y-132563619D01*
X135167619Y-132468380D01*
X135120000Y-132325523D01*
X135072380Y-132277904D01*
X134167619Y-131373142D02*
X134167619Y-131849333D01*
X135167619Y-131849333D01*
X135167619Y-130420761D02*
X134167619Y-130087428D01*
X135167619Y-129754095D01*
X134262857Y-128849333D02*
X134215238Y-128896952D01*
X134167619Y-129039809D01*
X134167619Y-129135047D01*
X134215238Y-129277904D01*
X134310476Y-129373142D01*
X134405714Y-129420761D01*
X134596190Y-129468380D01*
X134739047Y-129468380D01*
X134929523Y-129420761D01*
X135024761Y-129373142D01*
X135120000Y-129277904D01*
X135167619Y-129135047D01*
X135167619Y-129039809D01*
X135120000Y-128896952D01*
X135072380Y-128849333D01*
X134262857Y-127849333D02*
X134215238Y-127896952D01*
X134167619Y-128039809D01*
X134167619Y-128135047D01*
X134215238Y-128277904D01*
X134310476Y-128373142D01*
X134405714Y-128420761D01*
X134596190Y-128468380D01*
X134739047Y-128468380D01*
X134929523Y-128420761D01*
X135024761Y-128373142D01*
X135120000Y-128277904D01*
X135167619Y-128135047D01*
X135167619Y-128039809D01*
X135120000Y-127896952D01*
X135072380Y-127849333D01*
X135120000Y-126135047D02*
X135167619Y-126230285D01*
X135167619Y-126373142D01*
X135120000Y-126516000D01*
X135024761Y-126611238D01*
X134929523Y-126658857D01*
X134739047Y-126706476D01*
X134596190Y-126706476D01*
X134405714Y-126658857D01*
X134310476Y-126611238D01*
X134215238Y-126516000D01*
X134167619Y-126373142D01*
X134167619Y-126277904D01*
X134215238Y-126135047D01*
X134262857Y-126087428D01*
X134596190Y-126087428D01*
X134596190Y-126277904D01*
X134167619Y-125658857D02*
X135167619Y-125658857D01*
X134167619Y-125087428D01*
X135167619Y-125087428D01*
X134167619Y-124611238D02*
X135167619Y-124611238D01*
X135167619Y-124373142D01*
X135120000Y-124230285D01*
X135024761Y-124135047D01*
X134929523Y-124087428D01*
X134739047Y-124039809D01*
X134596190Y-124039809D01*
X134405714Y-124087428D01*
X134310476Y-124135047D01*
X134215238Y-124230285D01*
X134167619Y-124373142D01*
X134167619Y-124611238D01*
X134691428Y-122516000D02*
X134643809Y-122373142D01*
X134596190Y-122325523D01*
X134500952Y-122277904D01*
X134358095Y-122277904D01*
X134262857Y-122325523D01*
X134215238Y-122373142D01*
X134167619Y-122468380D01*
X134167619Y-122849333D01*
X135167619Y-122849333D01*
X135167619Y-122516000D01*
X135120000Y-122420761D01*
X135072380Y-122373142D01*
X134977142Y-122325523D01*
X134881904Y-122325523D01*
X134786666Y-122373142D01*
X134739047Y-122420761D01*
X134691428Y-122516000D01*
X134691428Y-122849333D01*
X134167619Y-121325523D02*
X134167619Y-121896952D01*
X134167619Y-121611238D02*
X135167619Y-121611238D01*
X135024761Y-121706476D01*
X134929523Y-121801714D01*
X134881904Y-121896952D01*
X134691428Y-119801714D02*
X134643809Y-119658857D01*
X134596190Y-119611238D01*
X134500952Y-119563619D01*
X134358095Y-119563619D01*
X134262857Y-119611238D01*
X134215238Y-119658857D01*
X134167619Y-119754095D01*
X134167619Y-120135047D01*
X135167619Y-120135047D01*
X135167619Y-119801714D01*
X135120000Y-119706476D01*
X135072380Y-119658857D01*
X134977142Y-119611238D01*
X134881904Y-119611238D01*
X134786666Y-119658857D01*
X134739047Y-119706476D01*
X134691428Y-119801714D01*
X134691428Y-120135047D01*
X135072380Y-119182666D02*
X135120000Y-119135047D01*
X135167619Y-119039809D01*
X135167619Y-118801714D01*
X135120000Y-118706476D01*
X135072380Y-118658857D01*
X134977142Y-118611238D01*
X134881904Y-118611238D01*
X134739047Y-118658857D01*
X134167619Y-119230285D01*
X134167619Y-118611238D01*
X154385880Y-138120380D02*
X154385880Y-137120380D01*
X154147785Y-137120380D01*
X154004928Y-137168000D01*
X153909690Y-137263238D01*
X153862071Y-137358476D01*
X153814452Y-137548952D01*
X153814452Y-137691809D01*
X153862071Y-137882285D01*
X153909690Y-137977523D01*
X154004928Y-138072761D01*
X154147785Y-138120380D01*
X154385880Y-138120380D01*
X153385880Y-138120380D02*
X153385880Y-137120380D01*
X152909690Y-138120380D02*
X152909690Y-137120380D01*
X152338261Y-138120380D01*
X152338261Y-137120380D01*
X151385880Y-137120380D02*
X151862071Y-137120380D01*
X151909690Y-137596571D01*
X151862071Y-137548952D01*
X151766833Y-137501333D01*
X151528738Y-137501333D01*
X151433500Y-137548952D01*
X151385880Y-137596571D01*
X151338261Y-137691809D01*
X151338261Y-137929904D01*
X151385880Y-138025142D01*
X151433500Y-138072761D01*
X151528738Y-138120380D01*
X151766833Y-138120380D01*
X151862071Y-138072761D01*
X151909690Y-138025142D01*
X150147785Y-138120380D02*
X150147785Y-137120380D01*
X149766833Y-137120380D01*
X149671595Y-137168000D01*
X149623976Y-137215619D01*
X149576357Y-137310857D01*
X149576357Y-137453714D01*
X149623976Y-137548952D01*
X149671595Y-137596571D01*
X149766833Y-137644190D01*
X150147785Y-137644190D01*
X148671595Y-137120380D02*
X149147785Y-137120380D01*
X149195404Y-137596571D01*
X149147785Y-137548952D01*
X149052547Y-137501333D01*
X148814452Y-137501333D01*
X148719214Y-137548952D01*
X148671595Y-137596571D01*
X148623976Y-137691809D01*
X148623976Y-137929904D01*
X148671595Y-138025142D01*
X148719214Y-138072761D01*
X148814452Y-138120380D01*
X149052547Y-138120380D01*
X149147785Y-138072761D01*
X149195404Y-138025142D01*
X144248095Y-139199380D02*
X144248095Y-138199380D01*
X143867142Y-138199380D01*
X143771904Y-138247000D01*
X143724285Y-138294619D01*
X143676666Y-138389857D01*
X143676666Y-138532714D01*
X143724285Y-138627952D01*
X143771904Y-138675571D01*
X143867142Y-138723190D01*
X144248095Y-138723190D01*
X142819523Y-138532714D02*
X142819523Y-139199380D01*
X143057619Y-138151761D02*
X143295714Y-138866047D01*
X142676666Y-138866047D01*
D10*
%TO.C,J9*%
X119830000Y-123750000D02*
X117170000Y-123750000D01*
X119830000Y-116070000D02*
X119830000Y-123750000D01*
X117170000Y-116070000D02*
X117170000Y-123750000D01*
X119830000Y-116070000D02*
X117170000Y-116070000D01*
X119830000Y-114800000D02*
X119830000Y-113470000D01*
X119830000Y-113470000D02*
X118500000Y-113470000D01*
%TO.C,J8*%
X124930000Y-123750000D02*
X122270000Y-123750000D01*
X124930000Y-116070000D02*
X124930000Y-123750000D01*
X122270000Y-116070000D02*
X122270000Y-123750000D01*
X124930000Y-116070000D02*
X122270000Y-116070000D01*
X124930000Y-114800000D02*
X124930000Y-113470000D01*
X124930000Y-113470000D02*
X123600000Y-113470000D01*
%TO.C,J6*%
X112914000Y-135506000D02*
X110254000Y-135506000D01*
X112914000Y-122746000D02*
X112914000Y-135506000D01*
X110254000Y-122746000D02*
X110254000Y-135506000D01*
X112914000Y-122746000D02*
X110254000Y-122746000D01*
X112914000Y-121476000D02*
X112914000Y-120146000D01*
X112914000Y-120146000D02*
X111584000Y-120146000D01*
%TO.C,J9*%
D11*
X120492380Y-114482952D02*
X121301904Y-114482952D01*
X121397142Y-114530571D01*
X121444761Y-114578190D01*
X121492380Y-114673428D01*
X121492380Y-114863904D01*
X121444761Y-114959142D01*
X121397142Y-115006761D01*
X121301904Y-115054380D01*
X120492380Y-115054380D01*
X121492380Y-115530571D02*
X120492380Y-115530571D01*
X121492380Y-116102000D01*
X120492380Y-116102000D01*
X120492380Y-116578190D02*
X121301904Y-116578190D01*
X121397142Y-116625809D01*
X121444761Y-116673428D01*
X121492380Y-116768666D01*
X121492380Y-116959142D01*
X121444761Y-117054380D01*
X121397142Y-117102000D01*
X121301904Y-117149619D01*
X120492380Y-117149619D01*
X121444761Y-117578190D02*
X121492380Y-117721047D01*
X121492380Y-117959142D01*
X121444761Y-118054380D01*
X121397142Y-118102000D01*
X121301904Y-118149619D01*
X121206666Y-118149619D01*
X121111428Y-118102000D01*
X121063809Y-118054380D01*
X121016190Y-117959142D01*
X120968571Y-117768666D01*
X120920952Y-117673428D01*
X120873333Y-117625809D01*
X120778095Y-117578190D01*
X120682857Y-117578190D01*
X120587619Y-117625809D01*
X120540000Y-117673428D01*
X120492380Y-117768666D01*
X120492380Y-118006761D01*
X120540000Y-118149619D01*
X120968571Y-118578190D02*
X120968571Y-118911523D01*
X121492380Y-119054380D02*
X121492380Y-118578190D01*
X120492380Y-118578190D01*
X120492380Y-119054380D01*
X121492380Y-119482952D02*
X120492380Y-119482952D01*
X120492380Y-119721047D01*
X120540000Y-119863904D01*
X120635238Y-119959142D01*
X120730476Y-120006761D01*
X120920952Y-120054380D01*
X121063809Y-120054380D01*
X121254285Y-120006761D01*
X121349523Y-119959142D01*
X121444761Y-119863904D01*
X121492380Y-119721047D01*
X121492380Y-119482952D01*
X121587619Y-120244857D02*
X121587619Y-121006761D01*
X121492380Y-121768666D02*
X121492380Y-121197238D01*
X121492380Y-121482952D02*
X120492380Y-121482952D01*
X120635238Y-121387714D01*
X120730476Y-121292476D01*
X120778095Y-121197238D01*
%TO.C,J8*%
X125592380Y-114482952D02*
X126401904Y-114482952D01*
X126497142Y-114530571D01*
X126544761Y-114578190D01*
X126592380Y-114673428D01*
X126592380Y-114863904D01*
X126544761Y-114959142D01*
X126497142Y-115006761D01*
X126401904Y-115054380D01*
X125592380Y-115054380D01*
X126592380Y-115530571D02*
X125592380Y-115530571D01*
X126592380Y-116102000D01*
X125592380Y-116102000D01*
X125592380Y-116578190D02*
X126401904Y-116578190D01*
X126497142Y-116625809D01*
X126544761Y-116673428D01*
X126592380Y-116768666D01*
X126592380Y-116959142D01*
X126544761Y-117054380D01*
X126497142Y-117102000D01*
X126401904Y-117149619D01*
X125592380Y-117149619D01*
X126544761Y-117578190D02*
X126592380Y-117721047D01*
X126592380Y-117959142D01*
X126544761Y-118054380D01*
X126497142Y-118102000D01*
X126401904Y-118149619D01*
X126306666Y-118149619D01*
X126211428Y-118102000D01*
X126163809Y-118054380D01*
X126116190Y-117959142D01*
X126068571Y-117768666D01*
X126020952Y-117673428D01*
X125973333Y-117625809D01*
X125878095Y-117578190D01*
X125782857Y-117578190D01*
X125687619Y-117625809D01*
X125640000Y-117673428D01*
X125592380Y-117768666D01*
X125592380Y-118006761D01*
X125640000Y-118149619D01*
X126068571Y-118578190D02*
X126068571Y-118911523D01*
X126592380Y-119054380D02*
X126592380Y-118578190D01*
X125592380Y-118578190D01*
X125592380Y-119054380D01*
X126592380Y-119482952D02*
X125592380Y-119482952D01*
X125592380Y-119721047D01*
X125640000Y-119863904D01*
X125735238Y-119959142D01*
X125830476Y-120006761D01*
X126020952Y-120054380D01*
X126163809Y-120054380D01*
X126354285Y-120006761D01*
X126449523Y-119959142D01*
X126544761Y-119863904D01*
X126592380Y-119721047D01*
X126592380Y-119482952D01*
X126687619Y-120244857D02*
X126687619Y-121006761D01*
X125687619Y-121197238D02*
X125640000Y-121244857D01*
X125592380Y-121340095D01*
X125592380Y-121578190D01*
X125640000Y-121673428D01*
X125687619Y-121721047D01*
X125782857Y-121768666D01*
X125878095Y-121768666D01*
X126020952Y-121721047D01*
X126592380Y-121149619D01*
X126592380Y-121768666D01*
%TO.C,J6*%
X112352380Y-110819047D02*
X111876190Y-110485714D01*
X112352380Y-110247619D02*
X111352380Y-110247619D01*
X111352380Y-110628571D01*
X111400000Y-110723809D01*
X111447619Y-110771428D01*
X111542857Y-110819047D01*
X111685714Y-110819047D01*
X111780952Y-110771428D01*
X111828571Y-110723809D01*
X111876190Y-110628571D01*
X111876190Y-110247619D01*
X112447619Y-111009523D02*
X112447619Y-111771428D01*
X111828571Y-112342857D02*
X111876190Y-112485714D01*
X111923809Y-112533333D01*
X112019047Y-112580952D01*
X112161904Y-112580952D01*
X112257142Y-112533333D01*
X112304761Y-112485714D01*
X112352380Y-112390476D01*
X112352380Y-112009523D01*
X111352380Y-112009523D01*
X111352380Y-112342857D01*
X111400000Y-112438095D01*
X111447619Y-112485714D01*
X111542857Y-112533333D01*
X111638095Y-112533333D01*
X111733333Y-112485714D01*
X111780952Y-112438095D01*
X111828571Y-112342857D01*
X111828571Y-112009523D01*
X112352380Y-113580952D02*
X111876190Y-113247619D01*
X112352380Y-113009523D02*
X111352380Y-113009523D01*
X111352380Y-113390476D01*
X111400000Y-113485714D01*
X111447619Y-113533333D01*
X111542857Y-113580952D01*
X111685714Y-113580952D01*
X111780952Y-113533333D01*
X111828571Y-113485714D01*
X111876190Y-113390476D01*
X111876190Y-113009523D01*
X111828571Y-114009523D02*
X111828571Y-114342857D01*
X112352380Y-114485714D02*
X112352380Y-114009523D01*
X111352380Y-114009523D01*
X111352380Y-114485714D01*
X112066666Y-114866666D02*
X112066666Y-115342857D01*
X112352380Y-114771428D02*
X111352380Y-115104761D01*
X112352380Y-115438095D01*
X112352380Y-115771428D02*
X111352380Y-115771428D01*
X112352380Y-116342857D02*
X111780952Y-115914285D01*
X111352380Y-116342857D02*
X111923809Y-115771428D01*
X111352380Y-116961904D02*
X111352380Y-117152380D01*
X111400000Y-117247619D01*
X111495238Y-117342857D01*
X111685714Y-117390476D01*
X112019047Y-117390476D01*
X112209523Y-117342857D01*
X112304761Y-117247619D01*
X112352380Y-117152380D01*
X112352380Y-116961904D01*
X112304761Y-116866666D01*
X112209523Y-116771428D01*
X112019047Y-116723809D01*
X111685714Y-116723809D01*
X111495238Y-116771428D01*
X111400000Y-116866666D01*
X111352380Y-116961904D01*
X111352380Y-117819047D02*
X112161904Y-117819047D01*
X112257142Y-117866666D01*
X112304761Y-117914285D01*
X112352380Y-118009523D01*
X112352380Y-118200000D01*
X112304761Y-118295238D01*
X112257142Y-118342857D01*
X112161904Y-118390476D01*
X111352380Y-118390476D01*
X111352380Y-118723809D02*
X111352380Y-119295238D01*
X112352380Y-119009523D02*
X111352380Y-119009523D01*
%TD*%
M02*
