%TF.GenerationSoftware,KiCad,Pcbnew,5.99.0+really5.1.9+dfsg1-1*%
%TF.CreationDate,2021-05-13T21:59:57+10:00*%
%TF.ProjectId,minisynth32,6d696e69-7379-46e7-9468-33322e6b6963,1.1*%
%TF.SameCoordinates,Original*%
%TF.FileFunction,Copper,L1,Top*%
%TF.FilePolarity,Positive*%
%FSLAX46Y46*%
G04 Gerber Fmt 4.6, Leading zero omitted, Abs format (unit mm)*
G04 Created by KiCad (PCBNEW 5.99.0+really5.1.9+dfsg1-1) date 2021-05-13 21:59:57*
%MOMM*%
%LPD*%
G01*
G04 APERTURE LIST*
%TA.AperFunction,ComponentPad*%
%ADD10O,1.700000X1.700000*%
%TD*%
%TA.AperFunction,ComponentPad*%
%ADD11R,1.700000X1.700000*%
%TD*%
%TA.AperFunction,SMDPad,CuDef*%
%ADD12R,0.762000X1.524000*%
%TD*%
%TA.AperFunction,ComponentPad*%
%ADD13C,1.600200*%
%TD*%
%TA.AperFunction,ComponentPad*%
%ADD14O,4.500000X2.250000*%
%TD*%
%TA.AperFunction,ComponentPad*%
%ADD15O,2.250000X4.500000*%
%TD*%
%TA.AperFunction,ComponentPad*%
%ADD16O,2.500000X5.000000*%
%TD*%
%TA.AperFunction,ComponentPad*%
%ADD17C,1.700000*%
%TD*%
%TA.AperFunction,ComponentPad*%
%ADD18O,1.600000X1.600000*%
%TD*%
%TA.AperFunction,ComponentPad*%
%ADD19R,1.600000X1.600000*%
%TD*%
%TA.AperFunction,ComponentPad*%
%ADD20C,1.600000*%
%TD*%
%TA.AperFunction,Conductor*%
%ADD21C,1.270000*%
%TD*%
%TA.AperFunction,Conductor*%
%ADD22C,0.250000*%
%TD*%
%TA.AperFunction,Conductor*%
%ADD23C,0.760000*%
%TD*%
%TA.AperFunction,NonConductor*%
%ADD24C,0.254000*%
%TD*%
%TA.AperFunction,NonConductor*%
%ADD25C,0.100000*%
%TD*%
G04 APERTURE END LIST*
D10*
%TO.P,J7,4*%
%TO.N,Net-(J6-Pad6)*%
X125476000Y-119634000D03*
%TO.P,J7,3*%
%TO.N,Net-(J6-Pad5)*%
X122936000Y-119634000D03*
%TO.P,J7,2*%
%TO.N,Net-(J6-Pad4)*%
X120396000Y-119634000D03*
D11*
%TO.P,J7,1*%
%TO.N,Net-(J6-Pad3)*%
X117856000Y-119634000D03*
%TD*%
D12*
%TO.P,SW3,1*%
%TO.N,Net-(SW1-Pad2)*%
X122643900Y-67081400D03*
%TO.P,SW3,3*%
%TO.N,Net-(J6-Pad2)*%
X118148100Y-67081400D03*
%TO.P,SW3,4*%
%TO.N,Net-(SW3-Pad4)*%
X118148100Y-57886600D03*
%TO.P,SW3,2*%
%TO.N,Net-(SW3-Pad2)*%
X122643900Y-57886600D03*
%TD*%
D13*
%TO.P,SW2,4*%
%TO.N,Net-(SW2-Pad4)*%
X138684000Y-46939200D03*
%TO.P,SW2,3*%
%TO.N,Net-(SW2-Pad3)*%
X136194800Y-46939200D03*
%TO.P,SW2,2*%
%TO.N,+5V*%
X138684000Y-52832000D03*
%TO.P,SW2,1*%
%TO.N,Net-(J3-Pad1)*%
X136194800Y-52832000D03*
%TD*%
D12*
%TO.P,SW1,1*%
%TO.N,Net-(J6-Pad3)*%
X122643900Y-84861400D03*
%TO.P,SW1,3*%
%TO.N,Net-(J6-Pad1)*%
X118148100Y-84861400D03*
%TO.P,SW1,4*%
%TO.N,Net-(SW1-Pad4)*%
X118148100Y-75666600D03*
%TO.P,SW1,2*%
%TO.N,Net-(SW1-Pad2)*%
X122643900Y-75666600D03*
%TD*%
D10*
%TO.P,J6,6*%
%TO.N,Net-(J6-Pad6)*%
X113284000Y-127254000D03*
%TO.P,J6,5*%
%TO.N,Net-(J6-Pad5)*%
X113284000Y-124714000D03*
%TO.P,J6,4*%
%TO.N,Net-(J6-Pad4)*%
X113284000Y-122174000D03*
%TO.P,J6,3*%
%TO.N,Net-(J6-Pad3)*%
X113284000Y-119634000D03*
%TO.P,J6,2*%
%TO.N,Net-(J6-Pad2)*%
X113284000Y-117094000D03*
D11*
%TO.P,J6,1*%
%TO.N,Net-(J6-Pad1)*%
X113284000Y-114554000D03*
%TD*%
D10*
%TO.P,J5,2*%
%TO.N,Net-(J5-Pad2)*%
X147066000Y-139192000D03*
D11*
%TO.P,J5,1*%
%TO.N,Net-(D1-Pad2)*%
X149606000Y-139192000D03*
%TD*%
D10*
%TO.P,J4,4*%
%TO.N,ENC_DAT*%
X132080000Y-96012000D03*
%TO.P,J4,3*%
%TO.N,ENC_CLK*%
X132080000Y-98552000D03*
%TO.P,J4,2*%
%TO.N,ENC_BTN*%
X132080000Y-101092000D03*
D11*
%TO.P,J4,1*%
%TO.N,GND*%
X132080000Y-103632000D03*
%TD*%
D14*
%TO.P,J3,3*%
%TO.N,Net-(J3-Pad3)*%
X153114000Y-59308000D03*
D15*
%TO.P,J3,2*%
%TO.N,GND*%
X156114000Y-64008000D03*
D16*
%TO.P,J3,1*%
%TO.N,Net-(J3-Pad1)*%
X150114000Y-64008000D03*
%TD*%
D10*
%TO.P,J1,6*%
%TO.N,I2C_SDA*%
X132080000Y-139192000D03*
%TO.P,J1,5*%
%TO.N,I2C_SCL*%
X132080000Y-136652000D03*
%TO.P,J1,4*%
%TO.N,+5V*%
X132080000Y-134112000D03*
%TO.P,J1,3*%
%TO.N,GND*%
X132080000Y-131572000D03*
%TO.P,J1,2*%
%TO.N,BTN1*%
X132080000Y-129032000D03*
D11*
%TO.P,J1,1*%
%TO.N,BTN2*%
X132080000Y-126492000D03*
%TD*%
D17*
%TO.P,A1,6*%
%TO.N,+5V*%
X158750000Y-104140000D03*
%TO.P,A1,5*%
%TO.N,GND*%
X156210000Y-104140000D03*
%TO.P,A1,4*%
%TO.N,I2S_LRCLK*%
X153670000Y-104140000D03*
%TO.P,A1,3*%
%TO.N,I2S_DATA*%
X151130000Y-104140000D03*
%TO.P,A1,2*%
%TO.N,I2S_BCLK*%
X148590000Y-104140000D03*
%TO.P,A1,1*%
%TO.N,GND*%
X146050000Y-104140000D03*
%TO.P,A1,7*%
%TO.N,Net-(A1-Pad7)*%
X145415000Y-77470000D03*
%TO.P,A1,8*%
%TO.N,Net-(A1-Pad8)*%
X145415000Y-80010000D03*
%TO.P,A1,9*%
%TO.N,Net-(A1-Pad9)*%
X145415000Y-82550000D03*
%TO.P,A1,10*%
%TO.N,Net-(A1-Pad10)*%
X145415000Y-85090000D03*
%TO.P,A1,11*%
%TO.N,Net-(A1-Pad11)*%
X145415000Y-87630000D03*
%TO.P,A1,12*%
%TO.N,Net-(A1-Pad12)*%
X145415000Y-90170000D03*
%TO.P,A1,13*%
%TO.N,Net-(A1-Pad13)*%
X145415000Y-92710000D03*
%TO.P,A1,14*%
%TO.N,Net-(A1-Pad14)*%
X145415000Y-95250000D03*
%TO.P,A1,15*%
%TO.N,Net-(A1-Pad15)*%
X145415000Y-97790000D03*
%TD*%
D18*
%TO.P,U1,6*%
%TO.N,+3V3*%
X146812000Y-130302000D03*
%TO.P,U1,3*%
%TO.N,Net-(U1-Pad3)*%
X154432000Y-125222000D03*
%TO.P,U1,5*%
%TO.N,GND*%
X146812000Y-127762000D03*
%TO.P,U1,2*%
%TO.N,Net-(D1-Pad2)*%
X154432000Y-127762000D03*
%TO.P,U1,4*%
%TO.N,/GPIO15(RXD0)*%
X146812000Y-125222000D03*
D19*
%TO.P,U1,1*%
%TO.N,Net-(D1-Pad1)*%
X154432000Y-130302000D03*
%TD*%
D18*
%TO.P,R2,2*%
%TO.N,Net-(D1-Pad1)*%
X153670000Y-135382000D03*
D20*
%TO.P,R2,1*%
%TO.N,Net-(J5-Pad2)*%
X146050000Y-135382000D03*
%TD*%
D18*
%TO.P,R1,2*%
%TO.N,+3V3*%
X154178000Y-116332000D03*
D20*
%TO.P,R1,1*%
%TO.N,/GPIO15(RXD0)*%
X146558000Y-116332000D03*
%TD*%
D10*
%TO.P,J2,40*%
%TO.N,I2S_DATA*%
X139446000Y-88392000D03*
%TO.P,J2,39*%
%TO.N,GND*%
X136906000Y-88392000D03*
%TO.P,J2,38*%
%TO.N,/GPIO20(SPI1_MOSI)*%
X139446000Y-90932000D03*
%TO.P,J2,37*%
%TO.N,/GPIO26*%
X136906000Y-90932000D03*
%TO.P,J2,36*%
%TO.N,/GPIO16*%
X139446000Y-93472000D03*
%TO.P,J2,35*%
%TO.N,I2S_LRCLK*%
X136906000Y-93472000D03*
%TO.P,J2,34*%
%TO.N,GND*%
X139446000Y-96012000D03*
%TO.P,J2,33*%
%TO.N,/GPIO13(PWM1)*%
X136906000Y-96012000D03*
%TO.P,J2,32*%
%TO.N,/GPIO12(PWM0)*%
X139446000Y-98552000D03*
%TO.P,J2,31*%
%TO.N,/GPIO6*%
X136906000Y-98552000D03*
%TO.P,J2,30*%
%TO.N,GND*%
X139446000Y-101092000D03*
%TO.P,J2,29*%
%TO.N,/GPIO5*%
X136906000Y-101092000D03*
%TO.P,J2,28*%
%TO.N,/ID_SC*%
X139446000Y-103632000D03*
%TO.P,J2,27*%
%TO.N,/ID_SD*%
X136906000Y-103632000D03*
%TO.P,J2,26*%
%TO.N,/GPIO7(SPI1_CE_N)*%
X139446000Y-106172000D03*
%TO.P,J2,25*%
%TO.N,GND*%
X136906000Y-106172000D03*
%TO.P,J2,24*%
%TO.N,/GPIO8(SPI0_CE_N)*%
X139446000Y-108712000D03*
%TO.P,J2,23*%
%TO.N,/GPIO11(SPI0_CLK)*%
X136906000Y-108712000D03*
%TO.P,J2,22*%
%TO.N,/GPIO25(GEN6)*%
X139446000Y-111252000D03*
%TO.P,J2,21*%
%TO.N,/GPIO9(SPI0_MISO)*%
X136906000Y-111252000D03*
%TO.P,J2,20*%
%TO.N,GND*%
X139446000Y-113792000D03*
%TO.P,J2,19*%
%TO.N,/GPIO10(SPI0_MOSI)*%
X136906000Y-113792000D03*
%TO.P,J2,18*%
%TO.N,/GPIO24(GEN5)*%
X139446000Y-116332000D03*
%TO.P,J2,17*%
%TO.N,Net-(J2-Pad17)*%
X136906000Y-116332000D03*
%TO.P,J2,16*%
%TO.N,ENC_DAT*%
X139446000Y-118872000D03*
%TO.P,J2,15*%
%TO.N,ENC_CLK*%
X136906000Y-118872000D03*
%TO.P,J2,14*%
%TO.N,GND*%
X139446000Y-121412000D03*
%TO.P,J2,13*%
%TO.N,BTN2*%
X136906000Y-121412000D03*
%TO.P,J2,12*%
%TO.N,I2S_BCLK*%
X139446000Y-123952000D03*
%TO.P,J2,11*%
%TO.N,BTN1*%
X136906000Y-123952000D03*
%TO.P,J2,10*%
%TO.N,/GPIO15(RXD0)*%
X139446000Y-126492000D03*
%TO.P,J2,9*%
%TO.N,GND*%
X136906000Y-126492000D03*
%TO.P,J2,8*%
%TO.N,/GPIO14(TXD0)*%
X139446000Y-129032000D03*
%TO.P,J2,7*%
%TO.N,ENC_BTN*%
X136906000Y-129032000D03*
%TO.P,J2,6*%
%TO.N,GND*%
X139446000Y-131572000D03*
%TO.P,J2,5*%
%TO.N,I2C_SCL*%
X136906000Y-131572000D03*
%TO.P,J2,4*%
%TO.N,+5V*%
X139446000Y-134112000D03*
%TO.P,J2,3*%
%TO.N,I2C_SDA*%
X136906000Y-134112000D03*
%TO.P,J2,2*%
%TO.N,+5V*%
X139446000Y-136652000D03*
D11*
%TO.P,J2,1*%
%TO.N,+3V3*%
X136906000Y-136652000D03*
%TD*%
D18*
%TO.P,D1,2*%
%TO.N,Net-(D1-Pad2)*%
X158750000Y-120396000D03*
D19*
%TO.P,D1,1*%
%TO.N,Net-(D1-Pad1)*%
X158750000Y-128016000D03*
%TD*%
D20*
%TO.P,C4,2*%
%TO.N,GND*%
X153750000Y-112268000D03*
%TO.P,C4,1*%
%TO.N,+5V*%
X158750000Y-112268000D03*
%TD*%
%TO.P,C3,2*%
%TO.N,GND*%
X153750000Y-108204000D03*
%TO.P,C3,1*%
%TO.N,+5V*%
X158750000Y-108204000D03*
%TD*%
%TO.P,C2,2*%
%TO.N,GND*%
X151812000Y-120222000D03*
%TO.P,C2,1*%
%TO.N,+3V3*%
X146812000Y-120222000D03*
%TD*%
%TO.P,C1,2*%
%TO.N,GND*%
X142494000Y-69088000D03*
D19*
%TO.P,C1,1*%
%TO.N,+5V*%
X145994000Y-69088000D03*
%TD*%
D21*
%TO.N,+5V*%
X139446000Y-136652000D02*
X139446000Y-134112000D01*
X158750000Y-116147802D02*
X158750000Y-112268000D01*
X152496999Y-127480803D02*
X152496999Y-122400803D01*
X152496999Y-122400803D02*
X158750000Y-116147802D01*
X147740801Y-132237001D02*
X152496999Y-127480803D01*
X146331197Y-132237001D02*
X147740801Y-132237001D01*
X144456198Y-134112000D02*
X146331197Y-132237001D01*
X139446000Y-134112000D02*
X144456198Y-134112000D01*
X158750000Y-112268000D02*
X158750000Y-108204000D01*
X158750000Y-108204000D02*
X158750000Y-104140000D01*
X158750000Y-104140000D02*
X158750000Y-84892000D01*
D22*
X132080000Y-134112000D02*
X131826000Y-134112000D01*
D21*
X133282081Y-134112000D02*
X132080000Y-134112000D01*
X134065001Y-134894920D02*
X133282081Y-134112000D01*
X135147999Y-138637001D02*
X134065001Y-137554003D01*
X138664001Y-138637001D02*
X135147999Y-138637001D01*
X134065001Y-137554003D02*
X134065001Y-134894920D01*
X139446000Y-137855002D02*
X138664001Y-138637001D01*
X139446000Y-136652000D02*
X139446000Y-137855002D01*
X145994000Y-72136000D02*
X158750000Y-84892000D01*
X145994000Y-69088000D02*
X145994000Y-72136000D01*
X138684000Y-52832000D02*
X142494000Y-52832000D01*
X142494000Y-52832000D02*
X146050000Y-56388000D01*
X145994000Y-56444000D02*
X145994000Y-69088000D01*
X146050000Y-56388000D02*
X145994000Y-56444000D01*
D22*
%TO.N,I2S_LRCLK*%
X135730999Y-87827999D02*
X135730999Y-92296999D01*
X140010001Y-87216999D02*
X136341999Y-87216999D01*
X141071011Y-88278009D02*
X140010001Y-87216999D01*
X136341999Y-87216999D02*
X135730999Y-87827999D01*
X141071011Y-97637011D02*
X141071011Y-88278009D01*
X145948989Y-102514989D02*
X141071011Y-97637011D01*
X152044989Y-102514989D02*
X145948989Y-102514989D01*
X135730999Y-92296999D02*
X136906000Y-93472000D01*
X153670000Y-104140000D02*
X152044989Y-102514989D01*
%TO.N,I2S_DATA*%
X140621001Y-89567001D02*
X139446000Y-88392000D01*
X140621001Y-97987999D02*
X140621001Y-89567001D01*
X145598001Y-102964999D02*
X140621001Y-97987999D01*
X149954999Y-102964999D02*
X145598001Y-102964999D01*
X151130000Y-104140000D02*
X149954999Y-102964999D01*
%TO.N,I2S_BCLK*%
X140621001Y-122776999D02*
X139446000Y-123952000D01*
X140621001Y-112108999D02*
X140621001Y-122776999D01*
X148590000Y-104140000D02*
X140621001Y-112108999D01*
%TO.N,Net-(D1-Pad2)*%
X158750000Y-123444000D02*
X154432000Y-127762000D01*
X158750000Y-120396000D02*
X158750000Y-123444000D01*
X154432000Y-128116998D02*
X154432000Y-127762000D01*
X149606000Y-132942998D02*
X154432000Y-128116998D01*
X149606000Y-139192000D02*
X149606000Y-132942998D01*
%TO.N,Net-(D1-Pad1)*%
X154432000Y-134620000D02*
X153670000Y-135382000D01*
X154432000Y-130302000D02*
X154432000Y-134620000D01*
X156464000Y-130302000D02*
X158750000Y-128016000D01*
X154432000Y-130302000D02*
X156464000Y-130302000D01*
%TO.N,BTN2*%
X132080000Y-126238000D02*
X136906000Y-121412000D01*
X132080000Y-126492000D02*
X132080000Y-126238000D01*
%TO.N,BTN1*%
X136906000Y-124206000D02*
X136906000Y-123952000D01*
X132080000Y-129032000D02*
X136906000Y-124206000D01*
%TO.N,ENC_DAT*%
X136341999Y-120047001D02*
X130904999Y-114610001D01*
X138270999Y-120047001D02*
X136341999Y-120047001D01*
X139446000Y-118872000D02*
X138270999Y-120047001D01*
X130904999Y-97187001D02*
X132080000Y-96012000D01*
X130904999Y-114610001D02*
X130904999Y-97187001D01*
%TO.N,ENC_CLK*%
X136906000Y-118872000D02*
X133255001Y-115221001D01*
X133255001Y-99727001D02*
X132080000Y-98552000D01*
X133255001Y-115221001D02*
X133255001Y-99727001D01*
%TO.N,/GPIO15(RXD0)*%
X145686999Y-124096999D02*
X146812000Y-125222000D01*
X145686999Y-117203001D02*
X145686999Y-124096999D01*
X146558000Y-116332000D02*
X145686999Y-117203001D01*
X143291998Y-126492000D02*
X145686999Y-124096999D01*
X139446000Y-126492000D02*
X143291998Y-126492000D01*
D21*
%TO.N,Net-(J3-Pad1)*%
X136342000Y-52979200D02*
X136194800Y-52832000D01*
X149860000Y-64008000D02*
X150114000Y-64008000D01*
X149728990Y-63622990D02*
X150114000Y-64008000D01*
X149728990Y-57563818D02*
X149728990Y-63622990D01*
X142965172Y-50800000D02*
X149728990Y-57563818D01*
X137852050Y-50800000D02*
X142965172Y-50800000D01*
X136194800Y-52457250D02*
X137852050Y-50800000D01*
X136194800Y-52832000D02*
X136194800Y-52457250D01*
D22*
%TO.N,Net-(J5-Pad2)*%
X146050000Y-138176000D02*
X147066000Y-139192000D01*
X146050000Y-135382000D02*
X146050000Y-138176000D01*
D23*
%TO.N,Net-(J6-Pad6)*%
X125052402Y-119634000D02*
X125476000Y-119634000D01*
X117432402Y-127254000D02*
X125052402Y-119634000D01*
X113284000Y-127254000D02*
X117432402Y-127254000D01*
%TO.N,Net-(J6-Pad5)*%
X117856000Y-124714000D02*
X122936000Y-119634000D01*
X113284000Y-124714000D02*
X117856000Y-124714000D01*
%TO.N,Net-(J6-Pad4)*%
X117856000Y-122174000D02*
X120396000Y-119634000D01*
X113284000Y-122174000D02*
X117856000Y-122174000D01*
%TO.N,Net-(J6-Pad3)*%
X113284000Y-119634000D02*
X117856000Y-119634000D01*
X117856000Y-119634000D02*
X124968000Y-112522000D01*
X124968000Y-87185500D02*
X122643900Y-84861400D01*
X124968000Y-112522000D02*
X124968000Y-87185500D01*
%TO.N,Net-(J6-Pad2)*%
X114714001Y-90482501D02*
X120396000Y-84800502D01*
X114714001Y-115663999D02*
X114714001Y-90482501D01*
X113284000Y-117094000D02*
X114714001Y-115663999D01*
X120396000Y-69329300D02*
X118148100Y-67081400D01*
X120396000Y-84800502D02*
X120396000Y-69329300D01*
%TO.N,Net-(J6-Pad1)*%
X113284000Y-89725500D02*
X118148100Y-84861400D01*
X113284000Y-114554000D02*
X113284000Y-89725500D01*
%TO.N,Net-(SW1-Pad2)*%
X122643900Y-75666600D02*
X122643900Y-67081400D01*
%TD*%
D24*
X160630000Y-141072000D02*
X130200000Y-141072000D01*
X130200000Y-114903270D01*
X130270025Y-115034277D01*
X130300997Y-115072016D01*
X130364998Y-115150002D01*
X130394002Y-115173805D01*
X135725704Y-120505508D01*
X135590010Y-120708589D01*
X135478068Y-120978842D01*
X135421000Y-121265740D01*
X135421000Y-121558260D01*
X135464790Y-121778408D01*
X132239271Y-125003928D01*
X131230000Y-125003928D01*
X131105518Y-125016188D01*
X130985820Y-125052498D01*
X130875506Y-125111463D01*
X130778815Y-125190815D01*
X130699463Y-125287506D01*
X130640498Y-125397820D01*
X130604188Y-125517518D01*
X130591928Y-125642000D01*
X130591928Y-127342000D01*
X130604188Y-127466482D01*
X130640498Y-127586180D01*
X130699463Y-127696494D01*
X130778815Y-127793185D01*
X130875506Y-127872537D01*
X130985820Y-127931502D01*
X131058380Y-127953513D01*
X130926525Y-128085368D01*
X130764010Y-128328589D01*
X130652068Y-128598842D01*
X130595000Y-128885740D01*
X130595000Y-129178260D01*
X130652068Y-129465158D01*
X130764010Y-129735411D01*
X130926525Y-129978632D01*
X131133368Y-130185475D01*
X131307760Y-130302000D01*
X131133368Y-130418525D01*
X130926525Y-130625368D01*
X130764010Y-130868589D01*
X130652068Y-131138842D01*
X130595000Y-131425740D01*
X130595000Y-131718260D01*
X130652068Y-132005158D01*
X130764010Y-132275411D01*
X130926525Y-132518632D01*
X131133368Y-132725475D01*
X131307760Y-132842000D01*
X131133368Y-132958525D01*
X130926525Y-133165368D01*
X130764010Y-133408589D01*
X130652068Y-133678842D01*
X130595000Y-133965740D01*
X130595000Y-134258260D01*
X130652068Y-134545158D01*
X130764010Y-134815411D01*
X130926525Y-135058632D01*
X131133368Y-135265475D01*
X131307760Y-135382000D01*
X131133368Y-135498525D01*
X130926525Y-135705368D01*
X130764010Y-135948589D01*
X130652068Y-136218842D01*
X130595000Y-136505740D01*
X130595000Y-136798260D01*
X130652068Y-137085158D01*
X130764010Y-137355411D01*
X130926525Y-137598632D01*
X131133368Y-137805475D01*
X131307760Y-137922000D01*
X131133368Y-138038525D01*
X130926525Y-138245368D01*
X130764010Y-138488589D01*
X130652068Y-138758842D01*
X130595000Y-139045740D01*
X130595000Y-139338260D01*
X130652068Y-139625158D01*
X130764010Y-139895411D01*
X130926525Y-140138632D01*
X131133368Y-140345475D01*
X131376589Y-140507990D01*
X131646842Y-140619932D01*
X131933740Y-140677000D01*
X132226260Y-140677000D01*
X132513158Y-140619932D01*
X132783411Y-140507990D01*
X133026632Y-140345475D01*
X133233475Y-140138632D01*
X133395990Y-139895411D01*
X133507932Y-139625158D01*
X133565000Y-139338260D01*
X133565000Y-139045740D01*
X133516410Y-138801462D01*
X134205862Y-139490915D01*
X134245629Y-139539371D01*
X134439011Y-139698076D01*
X134659640Y-139816004D01*
X134826415Y-139866595D01*
X134899035Y-139888624D01*
X134924754Y-139891157D01*
X135085619Y-139907001D01*
X135085625Y-139907001D01*
X135147998Y-139913144D01*
X135210371Y-139907001D01*
X138601628Y-139907001D01*
X138664001Y-139913144D01*
X138726374Y-139907001D01*
X138726381Y-139907001D01*
X138912964Y-139888624D01*
X139152360Y-139816004D01*
X139372989Y-139698076D01*
X139566371Y-139539371D01*
X139606142Y-139490910D01*
X140299914Y-138797139D01*
X140348370Y-138757372D01*
X140507075Y-138563990D01*
X140625003Y-138343361D01*
X140697623Y-138103965D01*
X140709093Y-137987506D01*
X140722144Y-137855002D01*
X140716000Y-137792622D01*
X140716000Y-137424240D01*
X140761990Y-137355411D01*
X140873932Y-137085158D01*
X140931000Y-136798260D01*
X140931000Y-136505740D01*
X140873932Y-136218842D01*
X140761990Y-135948589D01*
X140716000Y-135879760D01*
X140716000Y-135382000D01*
X144393825Y-135382000D01*
X144456198Y-135388143D01*
X144518571Y-135382000D01*
X144518578Y-135382000D01*
X144615000Y-135372503D01*
X144615000Y-135523335D01*
X144670147Y-135800574D01*
X144778320Y-136061727D01*
X144935363Y-136296759D01*
X145135241Y-136496637D01*
X145290000Y-136600044D01*
X145290001Y-138138668D01*
X145286324Y-138176000D01*
X145300998Y-138324985D01*
X145344454Y-138468246D01*
X145415026Y-138600276D01*
X145445166Y-138637001D01*
X145510000Y-138716001D01*
X145538998Y-138739799D01*
X145624791Y-138825592D01*
X145581000Y-139045740D01*
X145581000Y-139338260D01*
X145638068Y-139625158D01*
X145750010Y-139895411D01*
X145912525Y-140138632D01*
X146119368Y-140345475D01*
X146362589Y-140507990D01*
X146632842Y-140619932D01*
X146919740Y-140677000D01*
X147212260Y-140677000D01*
X147499158Y-140619932D01*
X147769411Y-140507990D01*
X148012632Y-140345475D01*
X148144487Y-140213620D01*
X148166498Y-140286180D01*
X148225463Y-140396494D01*
X148304815Y-140493185D01*
X148401506Y-140572537D01*
X148511820Y-140631502D01*
X148631518Y-140667812D01*
X148756000Y-140680072D01*
X150456000Y-140680072D01*
X150580482Y-140667812D01*
X150700180Y-140631502D01*
X150810494Y-140572537D01*
X150907185Y-140493185D01*
X150986537Y-140396494D01*
X151045502Y-140286180D01*
X151081812Y-140166482D01*
X151094072Y-140042000D01*
X151094072Y-138342000D01*
X151081812Y-138217518D01*
X151045502Y-138097820D01*
X150986537Y-137987506D01*
X150907185Y-137890815D01*
X150810494Y-137811463D01*
X150700180Y-137752498D01*
X150580482Y-137716188D01*
X150456000Y-137703928D01*
X150366000Y-137703928D01*
X150366000Y-133257799D01*
X152993928Y-130629872D01*
X152993928Y-131102000D01*
X153006188Y-131226482D01*
X153042498Y-131346180D01*
X153101463Y-131456494D01*
X153180815Y-131553185D01*
X153277506Y-131632537D01*
X153387820Y-131691502D01*
X153507518Y-131727812D01*
X153632000Y-131740072D01*
X153672000Y-131740072D01*
X153672001Y-133947000D01*
X153528665Y-133947000D01*
X153251426Y-134002147D01*
X152990273Y-134110320D01*
X152755241Y-134267363D01*
X152555363Y-134467241D01*
X152398320Y-134702273D01*
X152290147Y-134963426D01*
X152235000Y-135240665D01*
X152235000Y-135523335D01*
X152290147Y-135800574D01*
X152398320Y-136061727D01*
X152555363Y-136296759D01*
X152755241Y-136496637D01*
X152990273Y-136653680D01*
X153251426Y-136761853D01*
X153528665Y-136817000D01*
X153811335Y-136817000D01*
X154088574Y-136761853D01*
X154349727Y-136653680D01*
X154584759Y-136496637D01*
X154784637Y-136296759D01*
X154941680Y-136061727D01*
X155049853Y-135800574D01*
X155105000Y-135523335D01*
X155105000Y-135240665D01*
X155066138Y-135045295D01*
X155066974Y-135044276D01*
X155137546Y-134912247D01*
X155181003Y-134768986D01*
X155192000Y-134657333D01*
X155192000Y-134657325D01*
X155195676Y-134620000D01*
X155192000Y-134582675D01*
X155192000Y-131740072D01*
X155232000Y-131740072D01*
X155356482Y-131727812D01*
X155476180Y-131691502D01*
X155586494Y-131632537D01*
X155683185Y-131553185D01*
X155762537Y-131456494D01*
X155821502Y-131346180D01*
X155857812Y-131226482D01*
X155870072Y-131102000D01*
X155870072Y-131062000D01*
X156426678Y-131062000D01*
X156464000Y-131065676D01*
X156501322Y-131062000D01*
X156501333Y-131062000D01*
X156612986Y-131051003D01*
X156756247Y-131007546D01*
X156888276Y-130936974D01*
X157004001Y-130842001D01*
X157027804Y-130812997D01*
X158386730Y-129454072D01*
X159550000Y-129454072D01*
X159674482Y-129441812D01*
X159794180Y-129405502D01*
X159904494Y-129346537D01*
X160001185Y-129267185D01*
X160080537Y-129170494D01*
X160139502Y-129060180D01*
X160175812Y-128940482D01*
X160188072Y-128816000D01*
X160188072Y-127216000D01*
X160175812Y-127091518D01*
X160139502Y-126971820D01*
X160080537Y-126861506D01*
X160001185Y-126764815D01*
X159904494Y-126685463D01*
X159794180Y-126626498D01*
X159674482Y-126590188D01*
X159550000Y-126577928D01*
X157950000Y-126577928D01*
X157825518Y-126590188D01*
X157705820Y-126626498D01*
X157595506Y-126685463D01*
X157498815Y-126764815D01*
X157419463Y-126861506D01*
X157360498Y-126971820D01*
X157324188Y-127091518D01*
X157311928Y-127216000D01*
X157311928Y-128379270D01*
X156149199Y-129542000D01*
X155870072Y-129542000D01*
X155870072Y-129502000D01*
X155857812Y-129377518D01*
X155821502Y-129257820D01*
X155762537Y-129147506D01*
X155683185Y-129050815D01*
X155586494Y-128971463D01*
X155476180Y-128912498D01*
X155356482Y-128876188D01*
X155348039Y-128875357D01*
X155546637Y-128676759D01*
X155703680Y-128441727D01*
X155811853Y-128180574D01*
X155867000Y-127903335D01*
X155867000Y-127620665D01*
X155830688Y-127438113D01*
X159261003Y-124007799D01*
X159290001Y-123984001D01*
X159384974Y-123868276D01*
X159455546Y-123736247D01*
X159499003Y-123592986D01*
X159510000Y-123481333D01*
X159510000Y-123481324D01*
X159513676Y-123444001D01*
X159510000Y-123406678D01*
X159510000Y-121614043D01*
X159664759Y-121510637D01*
X159864637Y-121310759D01*
X160021680Y-121075727D01*
X160129853Y-120814574D01*
X160185000Y-120537335D01*
X160185000Y-120254665D01*
X160129853Y-119977426D01*
X160021680Y-119716273D01*
X159864637Y-119481241D01*
X159664759Y-119281363D01*
X159429727Y-119124320D01*
X159168574Y-119016147D01*
X158891335Y-118961000D01*
X158608665Y-118961000D01*
X158331426Y-119016147D01*
X158070273Y-119124320D01*
X157835241Y-119281363D01*
X157635363Y-119481241D01*
X157478320Y-119716273D01*
X157370147Y-119977426D01*
X157315000Y-120254665D01*
X157315000Y-120537335D01*
X157370147Y-120814574D01*
X157478320Y-121075727D01*
X157635363Y-121310759D01*
X157835241Y-121510637D01*
X157990000Y-121614044D01*
X157990001Y-123129197D01*
X155867000Y-125252199D01*
X155867000Y-125080665D01*
X155811853Y-124803426D01*
X155703680Y-124542273D01*
X155546637Y-124307241D01*
X155346759Y-124107363D01*
X155111727Y-123950320D01*
X154850574Y-123842147D01*
X154573335Y-123787000D01*
X154290665Y-123787000D01*
X154013426Y-123842147D01*
X153766999Y-123944220D01*
X153766999Y-122926853D01*
X159603921Y-117089933D01*
X159652370Y-117050172D01*
X159692132Y-117001722D01*
X159692135Y-117001719D01*
X159733171Y-116951716D01*
X159811075Y-116856790D01*
X159929003Y-116636161D01*
X160001623Y-116396765D01*
X160020000Y-116210182D01*
X160020000Y-116210181D01*
X160026144Y-116147802D01*
X160020000Y-116085422D01*
X160020000Y-112950241D01*
X160021680Y-112947727D01*
X160129853Y-112686574D01*
X160185000Y-112409335D01*
X160185000Y-112126665D01*
X160129853Y-111849426D01*
X160021680Y-111588273D01*
X160020000Y-111585759D01*
X160020000Y-108886241D01*
X160021680Y-108883727D01*
X160129853Y-108622574D01*
X160185000Y-108345335D01*
X160185000Y-108062665D01*
X160129853Y-107785426D01*
X160021680Y-107524273D01*
X160020000Y-107521759D01*
X160020000Y-104912240D01*
X160065990Y-104843411D01*
X160177932Y-104573158D01*
X160235000Y-104286260D01*
X160235000Y-103993740D01*
X160177932Y-103706842D01*
X160065990Y-103436589D01*
X160020000Y-103367760D01*
X160020000Y-84954372D01*
X160026143Y-84891999D01*
X160020000Y-84829626D01*
X160020000Y-84829620D01*
X160001623Y-84643037D01*
X159929003Y-84403641D01*
X159811075Y-84183012D01*
X159652370Y-83989630D01*
X159603914Y-83949863D01*
X147264000Y-71609950D01*
X147264000Y-70316259D01*
X147324537Y-70242494D01*
X147383502Y-70132180D01*
X147419812Y-70012482D01*
X147432072Y-69888000D01*
X147432072Y-68288000D01*
X147419812Y-68163518D01*
X147383502Y-68043820D01*
X147324537Y-67933506D01*
X147264000Y-67859741D01*
X147264000Y-56894879D01*
X148458990Y-58089869D01*
X148458991Y-61855552D01*
X148364061Y-62033153D01*
X148256275Y-62388477D01*
X148229000Y-62665404D01*
X148229001Y-65350597D01*
X148256276Y-65627524D01*
X148364062Y-65982848D01*
X148539098Y-66310317D01*
X148774656Y-66597345D01*
X149061684Y-66832903D01*
X149389153Y-67007939D01*
X149744477Y-67115725D01*
X150114000Y-67152120D01*
X150483524Y-67115725D01*
X150838848Y-67007939D01*
X151166317Y-66832903D01*
X151453345Y-66597345D01*
X151688903Y-66310317D01*
X151863939Y-65982848D01*
X151971725Y-65627524D01*
X151999000Y-65350597D01*
X151999000Y-62796548D01*
X154354000Y-62796548D01*
X154354001Y-65219453D01*
X154379468Y-65478020D01*
X154480106Y-65809781D01*
X154643535Y-66115534D01*
X154863472Y-66383529D01*
X155131467Y-66603466D01*
X155437220Y-66766895D01*
X155768981Y-66867533D01*
X156114000Y-66901515D01*
X156459020Y-66867533D01*
X156790781Y-66766895D01*
X157096534Y-66603466D01*
X157364529Y-66383529D01*
X157584466Y-66115534D01*
X157747895Y-65809781D01*
X157848533Y-65478020D01*
X157874000Y-65219453D01*
X157874000Y-62796547D01*
X157848533Y-62537980D01*
X157747895Y-62206219D01*
X157584466Y-61900466D01*
X157364529Y-61632471D01*
X157096533Y-61412534D01*
X156790780Y-61249105D01*
X156459019Y-61148467D01*
X156114000Y-61114485D01*
X155768980Y-61148467D01*
X155437219Y-61249105D01*
X155131466Y-61412534D01*
X154863471Y-61632471D01*
X154643534Y-61900467D01*
X154480105Y-62206220D01*
X154379467Y-62537981D01*
X154354000Y-62796548D01*
X151999000Y-62796548D01*
X151999000Y-62665403D01*
X151971725Y-62388476D01*
X151863939Y-62033152D01*
X151688903Y-61705683D01*
X151453345Y-61418655D01*
X151166317Y-61183097D01*
X150998990Y-61093659D01*
X150998990Y-60772331D01*
X151006466Y-60778466D01*
X151312219Y-60941895D01*
X151643980Y-61042533D01*
X151902547Y-61068000D01*
X154325453Y-61068000D01*
X154584020Y-61042533D01*
X154915781Y-60941895D01*
X155221534Y-60778466D01*
X155489529Y-60558529D01*
X155709466Y-60290534D01*
X155872895Y-59984781D01*
X155973533Y-59653020D01*
X156007515Y-59308000D01*
X155973533Y-58962980D01*
X155872895Y-58631219D01*
X155709466Y-58325466D01*
X155489529Y-58057471D01*
X155221534Y-57837534D01*
X154915781Y-57674105D01*
X154584020Y-57573467D01*
X154325453Y-57548000D01*
X151902547Y-57548000D01*
X151643980Y-57573467D01*
X151312219Y-57674105D01*
X151006466Y-57837534D01*
X150998990Y-57843669D01*
X150998990Y-57626190D01*
X151005133Y-57563817D01*
X150998990Y-57501444D01*
X150998990Y-57501438D01*
X150980613Y-57314855D01*
X150980568Y-57314705D01*
X150948843Y-57210125D01*
X150907993Y-57075459D01*
X150790065Y-56854830D01*
X150631360Y-56661448D01*
X150582905Y-56621682D01*
X145887568Y-51926345D01*
X148526500Y-51926345D01*
X148526500Y-52239055D01*
X148587507Y-52545757D01*
X148707176Y-52834663D01*
X148880908Y-53094672D01*
X149102028Y-53315792D01*
X149362037Y-53489524D01*
X149650943Y-53609193D01*
X149957645Y-53670200D01*
X150270355Y-53670200D01*
X150577057Y-53609193D01*
X150865963Y-53489524D01*
X151125972Y-53315792D01*
X151347092Y-53094672D01*
X151520824Y-52834663D01*
X151640493Y-52545757D01*
X151701500Y-52239055D01*
X151701500Y-51926345D01*
X151640493Y-51619643D01*
X151520824Y-51330737D01*
X151347092Y-51070728D01*
X151125972Y-50849608D01*
X150865963Y-50675876D01*
X150577057Y-50556207D01*
X150270355Y-50495200D01*
X149957645Y-50495200D01*
X149650943Y-50556207D01*
X149362037Y-50675876D01*
X149102028Y-50849608D01*
X148880908Y-51070728D01*
X148707176Y-51330737D01*
X148587507Y-51619643D01*
X148526500Y-51926345D01*
X145887568Y-51926345D01*
X143907313Y-49946091D01*
X143867542Y-49897630D01*
X143674160Y-49738925D01*
X143453531Y-49620997D01*
X143214135Y-49548377D01*
X143027552Y-49530000D01*
X143027545Y-49530000D01*
X142965172Y-49523857D01*
X142902799Y-49530000D01*
X137914422Y-49530000D01*
X137852049Y-49523857D01*
X137789676Y-49530000D01*
X137789670Y-49530000D01*
X137628805Y-49545844D01*
X137603086Y-49548377D01*
X137530466Y-49570406D01*
X137363691Y-49620997D01*
X137143062Y-49738925D01*
X136949680Y-49897630D01*
X136909913Y-49946086D01*
X135340886Y-51515114D01*
X135292431Y-51554880D01*
X135133725Y-51748262D01*
X135015797Y-51968891D01*
X134991074Y-52050391D01*
X134923031Y-52152225D01*
X134814850Y-52413397D01*
X134759700Y-52690655D01*
X134759700Y-52973345D01*
X134814850Y-53250603D01*
X134923031Y-53511775D01*
X135080085Y-53746823D01*
X135279977Y-53946715D01*
X135515025Y-54103769D01*
X135776197Y-54211950D01*
X136053455Y-54267100D01*
X136336145Y-54267100D01*
X136447478Y-54244955D01*
X136590962Y-54230823D01*
X136830358Y-54158202D01*
X137050987Y-54040274D01*
X137244369Y-53881569D01*
X137403074Y-53688187D01*
X137459531Y-53582564D01*
X137569285Y-53746823D01*
X137769177Y-53946715D01*
X138004225Y-54103769D01*
X138265397Y-54211950D01*
X138542655Y-54267100D01*
X138825345Y-54267100D01*
X139102603Y-54211950D01*
X139363775Y-54103769D01*
X139366422Y-54102000D01*
X141967950Y-54102000D01*
X144724000Y-56858051D01*
X144724001Y-67859740D01*
X144663463Y-67933506D01*
X144604498Y-68043820D01*
X144568188Y-68163518D01*
X144555928Y-68288000D01*
X144555928Y-69888000D01*
X144568188Y-70012482D01*
X144604498Y-70132180D01*
X144663463Y-70242494D01*
X144724000Y-70316259D01*
X144724001Y-72073618D01*
X144717857Y-72136000D01*
X144742377Y-72384963D01*
X144814998Y-72624359D01*
X144932926Y-72844988D01*
X145091631Y-73038370D01*
X145140087Y-73078137D01*
X157480001Y-85418052D01*
X157480000Y-103367760D01*
X157363475Y-103193368D01*
X157156632Y-102986525D01*
X156913411Y-102824010D01*
X156643158Y-102712068D01*
X156356260Y-102655000D01*
X156063740Y-102655000D01*
X155776842Y-102712068D01*
X155506589Y-102824010D01*
X155263368Y-102986525D01*
X155056525Y-103193368D01*
X154940000Y-103367760D01*
X154823475Y-103193368D01*
X154616632Y-102986525D01*
X154373411Y-102824010D01*
X154103158Y-102712068D01*
X153816260Y-102655000D01*
X153523740Y-102655000D01*
X153303592Y-102698791D01*
X152608793Y-102003992D01*
X152584990Y-101974988D01*
X152469265Y-101880015D01*
X152337236Y-101809443D01*
X152193975Y-101765986D01*
X152082322Y-101754989D01*
X152082311Y-101754989D01*
X152044989Y-101751313D01*
X152007667Y-101754989D01*
X146263791Y-101754989D01*
X141831011Y-97322210D01*
X141831011Y-88315334D01*
X141834687Y-88278009D01*
X141831011Y-88240684D01*
X141831011Y-88240676D01*
X141820014Y-88129023D01*
X141776557Y-87985762D01*
X141705985Y-87853733D01*
X141611012Y-87738008D01*
X141582014Y-87714210D01*
X140573805Y-86706001D01*
X140550002Y-86676998D01*
X140434277Y-86582025D01*
X140302248Y-86511453D01*
X140158987Y-86467996D01*
X140047334Y-86456999D01*
X140047323Y-86456999D01*
X140010001Y-86453323D01*
X139972679Y-86456999D01*
X136379321Y-86456999D01*
X136341998Y-86453323D01*
X136304675Y-86456999D01*
X136304666Y-86456999D01*
X136193013Y-86467996D01*
X136049752Y-86511453D01*
X135917723Y-86582025D01*
X135917721Y-86582026D01*
X135917722Y-86582026D01*
X135830995Y-86653200D01*
X135830991Y-86653204D01*
X135801998Y-86676998D01*
X135778204Y-86705991D01*
X135220001Y-87264196D01*
X135190998Y-87287998D01*
X135135870Y-87355173D01*
X135096025Y-87403723D01*
X135073765Y-87445368D01*
X135025453Y-87535753D01*
X134981996Y-87679014D01*
X134970999Y-87790667D01*
X134970999Y-87790677D01*
X134967323Y-87827999D01*
X134970999Y-87865322D01*
X134971000Y-92259667D01*
X134967323Y-92296999D01*
X134981997Y-92445984D01*
X135025453Y-92589245D01*
X135096025Y-92721275D01*
X135167200Y-92808001D01*
X135190999Y-92837000D01*
X135219997Y-92860798D01*
X135464791Y-93105592D01*
X135421000Y-93325740D01*
X135421000Y-93618260D01*
X135478068Y-93905158D01*
X135590010Y-94175411D01*
X135752525Y-94418632D01*
X135959368Y-94625475D01*
X136133760Y-94742000D01*
X135959368Y-94858525D01*
X135752525Y-95065368D01*
X135590010Y-95308589D01*
X135478068Y-95578842D01*
X135421000Y-95865740D01*
X135421000Y-96158260D01*
X135478068Y-96445158D01*
X135590010Y-96715411D01*
X135752525Y-96958632D01*
X135959368Y-97165475D01*
X136133760Y-97282000D01*
X135959368Y-97398525D01*
X135752525Y-97605368D01*
X135590010Y-97848589D01*
X135478068Y-98118842D01*
X135421000Y-98405740D01*
X135421000Y-98698260D01*
X135478068Y-98985158D01*
X135590010Y-99255411D01*
X135752525Y-99498632D01*
X135959368Y-99705475D01*
X136133760Y-99822000D01*
X135959368Y-99938525D01*
X135752525Y-100145368D01*
X135590010Y-100388589D01*
X135478068Y-100658842D01*
X135421000Y-100945740D01*
X135421000Y-101238260D01*
X135478068Y-101525158D01*
X135590010Y-101795411D01*
X135752525Y-102038632D01*
X135959368Y-102245475D01*
X136133760Y-102362000D01*
X135959368Y-102478525D01*
X135752525Y-102685368D01*
X135590010Y-102928589D01*
X135478068Y-103198842D01*
X135421000Y-103485740D01*
X135421000Y-103778260D01*
X135478068Y-104065158D01*
X135590010Y-104335411D01*
X135752525Y-104578632D01*
X135959368Y-104785475D01*
X136133760Y-104902000D01*
X135959368Y-105018525D01*
X135752525Y-105225368D01*
X135590010Y-105468589D01*
X135478068Y-105738842D01*
X135421000Y-106025740D01*
X135421000Y-106318260D01*
X135478068Y-106605158D01*
X135590010Y-106875411D01*
X135752525Y-107118632D01*
X135959368Y-107325475D01*
X136133760Y-107442000D01*
X135959368Y-107558525D01*
X135752525Y-107765368D01*
X135590010Y-108008589D01*
X135478068Y-108278842D01*
X135421000Y-108565740D01*
X135421000Y-108858260D01*
X135478068Y-109145158D01*
X135590010Y-109415411D01*
X135752525Y-109658632D01*
X135959368Y-109865475D01*
X136133760Y-109982000D01*
X135959368Y-110098525D01*
X135752525Y-110305368D01*
X135590010Y-110548589D01*
X135478068Y-110818842D01*
X135421000Y-111105740D01*
X135421000Y-111398260D01*
X135478068Y-111685158D01*
X135590010Y-111955411D01*
X135752525Y-112198632D01*
X135959368Y-112405475D01*
X136133760Y-112522000D01*
X135959368Y-112638525D01*
X135752525Y-112845368D01*
X135590010Y-113088589D01*
X135478068Y-113358842D01*
X135421000Y-113645740D01*
X135421000Y-113938260D01*
X135478068Y-114225158D01*
X135590010Y-114495411D01*
X135752525Y-114738632D01*
X135959368Y-114945475D01*
X136133760Y-115062000D01*
X135959368Y-115178525D01*
X135752525Y-115385368D01*
X135590010Y-115628589D01*
X135478068Y-115898842D01*
X135421000Y-116185740D01*
X135421000Y-116312199D01*
X134015001Y-114906200D01*
X134015001Y-99764323D01*
X134018677Y-99727000D01*
X134015001Y-99689677D01*
X134015001Y-99689668D01*
X134004004Y-99578015D01*
X133960547Y-99434754D01*
X133889975Y-99302725D01*
X133795002Y-99187000D01*
X133766004Y-99163202D01*
X133521210Y-98918408D01*
X133565000Y-98698260D01*
X133565000Y-98405740D01*
X133507932Y-98118842D01*
X133395990Y-97848589D01*
X133233475Y-97605368D01*
X133026632Y-97398525D01*
X132852240Y-97282000D01*
X133026632Y-97165475D01*
X133233475Y-96958632D01*
X133395990Y-96715411D01*
X133507932Y-96445158D01*
X133565000Y-96158260D01*
X133565000Y-95865740D01*
X133507932Y-95578842D01*
X133395990Y-95308589D01*
X133233475Y-95065368D01*
X133026632Y-94858525D01*
X132783411Y-94696010D01*
X132513158Y-94584068D01*
X132226260Y-94527000D01*
X131933740Y-94527000D01*
X131646842Y-94584068D01*
X131376589Y-94696010D01*
X131133368Y-94858525D01*
X130926525Y-95065368D01*
X130764010Y-95308589D01*
X130652068Y-95578842D01*
X130595000Y-95865740D01*
X130595000Y-96158260D01*
X130638791Y-96378408D01*
X130393997Y-96623202D01*
X130364999Y-96647000D01*
X130341201Y-96675998D01*
X130341200Y-96675999D01*
X130270025Y-96762725D01*
X130200000Y-96893732D01*
X130200000Y-89883581D01*
X130196726Y-89850339D01*
X130196726Y-89833863D01*
X130195763Y-89824698D01*
X130168134Y-89578382D01*
X130155695Y-89519865D01*
X130144078Y-89461192D01*
X130141353Y-89452389D01*
X130066408Y-89216131D01*
X130042868Y-89161209D01*
X130020048Y-89105842D01*
X130015664Y-89097736D01*
X129993734Y-89057845D01*
X130057424Y-88994155D01*
X130154277Y-88849205D01*
X130220990Y-88688145D01*
X130255000Y-88517165D01*
X130255000Y-88342835D01*
X130220990Y-88171855D01*
X130162232Y-88030000D01*
X130220990Y-87888145D01*
X130255000Y-87717165D01*
X130255000Y-87542835D01*
X130220990Y-87371855D01*
X130162232Y-87230000D01*
X130220990Y-87088145D01*
X130255000Y-86917165D01*
X130255000Y-86742835D01*
X130220990Y-86571855D01*
X130154277Y-86410795D01*
X130057424Y-86265845D01*
X129993063Y-86201484D01*
X130026919Y-86137809D01*
X130049707Y-86082521D01*
X130073279Y-86027525D01*
X130076003Y-86018722D01*
X130147643Y-85781441D01*
X130159264Y-85722754D01*
X130171700Y-85664248D01*
X130172663Y-85655083D01*
X130196850Y-85408405D01*
X130196850Y-85408402D01*
X130200000Y-85376419D01*
X130200000Y-82194000D01*
X138716419Y-82194000D01*
X138744865Y-82191198D01*
X138752682Y-82191253D01*
X138761853Y-82190354D01*
X139008357Y-82164446D01*
X139066986Y-82152411D01*
X139125716Y-82141208D01*
X139134532Y-82138546D01*
X139134536Y-82138545D01*
X139134539Y-82138544D01*
X139371314Y-82065249D01*
X139426457Y-82042069D01*
X139481920Y-82019661D01*
X139490054Y-82015335D01*
X139490059Y-82015333D01*
X139490064Y-82015330D01*
X139708086Y-81897447D01*
X139757654Y-81864012D01*
X139807735Y-81831241D01*
X139814876Y-81825416D01*
X140005856Y-81667423D01*
X140047995Y-81624988D01*
X140090745Y-81583125D01*
X140096618Y-81576024D01*
X140253273Y-81383947D01*
X140286374Y-81334125D01*
X140320173Y-81284763D01*
X140324556Y-81276657D01*
X140440919Y-81057809D01*
X140463707Y-81002521D01*
X140487279Y-80947525D01*
X140490003Y-80938722D01*
X140561643Y-80701441D01*
X140573264Y-80642754D01*
X140585700Y-80584248D01*
X140586663Y-80575083D01*
X140610850Y-80328405D01*
X140610850Y-80328402D01*
X140614000Y-80296419D01*
X140614000Y-77323740D01*
X143930000Y-77323740D01*
X143930000Y-77616260D01*
X143987068Y-77903158D01*
X144099010Y-78173411D01*
X144261525Y-78416632D01*
X144468368Y-78623475D01*
X144642760Y-78740000D01*
X144468368Y-78856525D01*
X144261525Y-79063368D01*
X144099010Y-79306589D01*
X143987068Y-79576842D01*
X143930000Y-79863740D01*
X143930000Y-80156260D01*
X143987068Y-80443158D01*
X144099010Y-80713411D01*
X144261525Y-80956632D01*
X144468368Y-81163475D01*
X144642760Y-81280000D01*
X144468368Y-81396525D01*
X144261525Y-81603368D01*
X144099010Y-81846589D01*
X143987068Y-82116842D01*
X143930000Y-82403740D01*
X143930000Y-82696260D01*
X143987068Y-82983158D01*
X144099010Y-83253411D01*
X144261525Y-83496632D01*
X144468368Y-83703475D01*
X144642760Y-83820000D01*
X144468368Y-83936525D01*
X144261525Y-84143368D01*
X144099010Y-84386589D01*
X143987068Y-84656842D01*
X143930000Y-84943740D01*
X143930000Y-85236260D01*
X143987068Y-85523158D01*
X144099010Y-85793411D01*
X144261525Y-86036632D01*
X144468368Y-86243475D01*
X144642760Y-86360000D01*
X144468368Y-86476525D01*
X144261525Y-86683368D01*
X144099010Y-86926589D01*
X143987068Y-87196842D01*
X143930000Y-87483740D01*
X143930000Y-87776260D01*
X143987068Y-88063158D01*
X144099010Y-88333411D01*
X144261525Y-88576632D01*
X144468368Y-88783475D01*
X144642760Y-88900000D01*
X144468368Y-89016525D01*
X144261525Y-89223368D01*
X144099010Y-89466589D01*
X143987068Y-89736842D01*
X143930000Y-90023740D01*
X143930000Y-90316260D01*
X143987068Y-90603158D01*
X144099010Y-90873411D01*
X144261525Y-91116632D01*
X144468368Y-91323475D01*
X144642760Y-91440000D01*
X144468368Y-91556525D01*
X144261525Y-91763368D01*
X144099010Y-92006589D01*
X143987068Y-92276842D01*
X143930000Y-92563740D01*
X143930000Y-92856260D01*
X143987068Y-93143158D01*
X144099010Y-93413411D01*
X144261525Y-93656632D01*
X144468368Y-93863475D01*
X144642760Y-93980000D01*
X144468368Y-94096525D01*
X144261525Y-94303368D01*
X144099010Y-94546589D01*
X143987068Y-94816842D01*
X143930000Y-95103740D01*
X143930000Y-95396260D01*
X143987068Y-95683158D01*
X144099010Y-95953411D01*
X144261525Y-96196632D01*
X144468368Y-96403475D01*
X144642760Y-96520000D01*
X144468368Y-96636525D01*
X144261525Y-96843368D01*
X144099010Y-97086589D01*
X143987068Y-97356842D01*
X143930000Y-97643740D01*
X143930000Y-97936260D01*
X143987068Y-98223158D01*
X144099010Y-98493411D01*
X144261525Y-98736632D01*
X144468368Y-98943475D01*
X144711589Y-99105990D01*
X144981842Y-99217932D01*
X145268740Y-99275000D01*
X145561260Y-99275000D01*
X145848158Y-99217932D01*
X146118411Y-99105990D01*
X146361632Y-98943475D01*
X146568475Y-98736632D01*
X146730990Y-98493411D01*
X146842932Y-98223158D01*
X146900000Y-97936260D01*
X146900000Y-97643740D01*
X146842932Y-97356842D01*
X146730990Y-97086589D01*
X146568475Y-96843368D01*
X146361632Y-96636525D01*
X146187240Y-96520000D01*
X146361632Y-96403475D01*
X146568475Y-96196632D01*
X146730990Y-95953411D01*
X146842932Y-95683158D01*
X146900000Y-95396260D01*
X146900000Y-95103740D01*
X146842932Y-94816842D01*
X146730990Y-94546589D01*
X146568475Y-94303368D01*
X146361632Y-94096525D01*
X146187240Y-93980000D01*
X146361632Y-93863475D01*
X146568475Y-93656632D01*
X146730990Y-93413411D01*
X146842932Y-93143158D01*
X146900000Y-92856260D01*
X146900000Y-92563740D01*
X146842932Y-92276842D01*
X146730990Y-92006589D01*
X146568475Y-91763368D01*
X146361632Y-91556525D01*
X146187240Y-91440000D01*
X146361632Y-91323475D01*
X146568475Y-91116632D01*
X146730990Y-90873411D01*
X146842932Y-90603158D01*
X146900000Y-90316260D01*
X146900000Y-90023740D01*
X146842932Y-89736842D01*
X146730990Y-89466589D01*
X146568475Y-89223368D01*
X146361632Y-89016525D01*
X146187240Y-88900000D01*
X146361632Y-88783475D01*
X146568475Y-88576632D01*
X146730990Y-88333411D01*
X146842932Y-88063158D01*
X146900000Y-87776260D01*
X146900000Y-87483740D01*
X146842932Y-87196842D01*
X146730990Y-86926589D01*
X146568475Y-86683368D01*
X146361632Y-86476525D01*
X146187240Y-86360000D01*
X146361632Y-86243475D01*
X146568475Y-86036632D01*
X146730990Y-85793411D01*
X146842932Y-85523158D01*
X146900000Y-85236260D01*
X146900000Y-84943740D01*
X146842932Y-84656842D01*
X146730990Y-84386589D01*
X146568475Y-84143368D01*
X146361632Y-83936525D01*
X146187240Y-83820000D01*
X146361632Y-83703475D01*
X146568475Y-83496632D01*
X146730990Y-83253411D01*
X146842932Y-82983158D01*
X146900000Y-82696260D01*
X146900000Y-82403740D01*
X146842932Y-82116842D01*
X146730990Y-81846589D01*
X146568475Y-81603368D01*
X146361632Y-81396525D01*
X146187240Y-81280000D01*
X146361632Y-81163475D01*
X146568475Y-80956632D01*
X146730990Y-80713411D01*
X146842932Y-80443158D01*
X146900000Y-80156260D01*
X146900000Y-79863740D01*
X146842932Y-79576842D01*
X146730990Y-79306589D01*
X146568475Y-79063368D01*
X146361632Y-78856525D01*
X146187240Y-78740000D01*
X146361632Y-78623475D01*
X146568475Y-78416632D01*
X146730990Y-78173411D01*
X146842932Y-77903158D01*
X146900000Y-77616260D01*
X146900000Y-77323740D01*
X146842932Y-77036842D01*
X146730990Y-76766589D01*
X146568475Y-76523368D01*
X146361632Y-76316525D01*
X146118411Y-76154010D01*
X145848158Y-76042068D01*
X145561260Y-75985000D01*
X145268740Y-75985000D01*
X144981842Y-76042068D01*
X144711589Y-76154010D01*
X144468368Y-76316525D01*
X144261525Y-76523368D01*
X144099010Y-76766589D01*
X143987068Y-77036842D01*
X143930000Y-77323740D01*
X140614000Y-77323740D01*
X140614000Y-68946665D01*
X141059000Y-68946665D01*
X141059000Y-69229335D01*
X141114147Y-69506574D01*
X141222320Y-69767727D01*
X141379363Y-70002759D01*
X141579241Y-70202637D01*
X141814273Y-70359680D01*
X142075426Y-70467853D01*
X142352665Y-70523000D01*
X142635335Y-70523000D01*
X142912574Y-70467853D01*
X143173727Y-70359680D01*
X143408759Y-70202637D01*
X143608637Y-70002759D01*
X143765680Y-69767727D01*
X143873853Y-69506574D01*
X143929000Y-69229335D01*
X143929000Y-68946665D01*
X143873853Y-68669426D01*
X143765680Y-68408273D01*
X143608637Y-68173241D01*
X143408759Y-67973363D01*
X143173727Y-67816320D01*
X142912574Y-67708147D01*
X142635335Y-67653000D01*
X142352665Y-67653000D01*
X142075426Y-67708147D01*
X141814273Y-67816320D01*
X141579241Y-67973363D01*
X141379363Y-68173241D01*
X141222320Y-68408273D01*
X141114147Y-68669426D01*
X141059000Y-68946665D01*
X140614000Y-68946665D01*
X140614000Y-57117581D01*
X140611198Y-57089135D01*
X140611253Y-57081318D01*
X140610354Y-57072147D01*
X140584446Y-56825644D01*
X140572414Y-56767028D01*
X140561208Y-56708284D01*
X140558544Y-56699462D01*
X140485249Y-56462686D01*
X140462074Y-56407555D01*
X140439661Y-56352080D01*
X140435334Y-56343944D01*
X140317446Y-56125914D01*
X140284012Y-56076346D01*
X140251240Y-56026265D01*
X140245416Y-56019124D01*
X140087423Y-55828144D01*
X140044988Y-55786005D01*
X140003125Y-55743255D01*
X139996024Y-55737381D01*
X139803946Y-55580727D01*
X139754169Y-55547655D01*
X139704763Y-55513826D01*
X139696657Y-55509444D01*
X139477809Y-55393081D01*
X139422532Y-55370298D01*
X139367525Y-55346721D01*
X139358722Y-55343997D01*
X139121441Y-55272357D01*
X139062754Y-55260736D01*
X139004248Y-55248300D01*
X138995085Y-55247337D01*
X138995083Y-55247337D01*
X138748405Y-55223150D01*
X138748402Y-55223150D01*
X138716419Y-55220000D01*
X133248000Y-55220000D01*
X133248000Y-46797855D01*
X134759700Y-46797855D01*
X134759700Y-47080545D01*
X134814850Y-47357803D01*
X134923031Y-47618975D01*
X135080085Y-47854023D01*
X135279977Y-48053915D01*
X135515025Y-48210969D01*
X135776197Y-48319150D01*
X136053455Y-48374300D01*
X136336145Y-48374300D01*
X136613403Y-48319150D01*
X136874575Y-48210969D01*
X137109623Y-48053915D01*
X137309515Y-47854023D01*
X137439400Y-47659636D01*
X137569285Y-47854023D01*
X137769177Y-48053915D01*
X138004225Y-48210969D01*
X138265397Y-48319150D01*
X138542655Y-48374300D01*
X138825345Y-48374300D01*
X139102603Y-48319150D01*
X139363775Y-48210969D01*
X139598823Y-48053915D01*
X139798715Y-47854023D01*
X139955769Y-47618975D01*
X139991735Y-47532145D01*
X148526500Y-47532145D01*
X148526500Y-47844855D01*
X148587507Y-48151557D01*
X148707176Y-48440463D01*
X148880908Y-48700472D01*
X149102028Y-48921592D01*
X149362037Y-49095324D01*
X149650943Y-49214993D01*
X149957645Y-49276000D01*
X150270355Y-49276000D01*
X150577057Y-49214993D01*
X150865963Y-49095324D01*
X151125972Y-48921592D01*
X151347092Y-48700472D01*
X151520824Y-48440463D01*
X151640493Y-48151557D01*
X151701500Y-47844855D01*
X151701500Y-47532145D01*
X151640493Y-47225443D01*
X151520824Y-46936537D01*
X151347092Y-46676528D01*
X151125972Y-46455408D01*
X150865963Y-46281676D01*
X150577057Y-46162007D01*
X150270355Y-46101000D01*
X149957645Y-46101000D01*
X149650943Y-46162007D01*
X149362037Y-46281676D01*
X149102028Y-46455408D01*
X148880908Y-46676528D01*
X148707176Y-46936537D01*
X148587507Y-47225443D01*
X148526500Y-47532145D01*
X139991735Y-47532145D01*
X140063950Y-47357803D01*
X140119100Y-47080545D01*
X140119100Y-46797855D01*
X140063950Y-46520597D01*
X139955769Y-46259425D01*
X139798715Y-46024377D01*
X139598823Y-45824485D01*
X139363775Y-45667431D01*
X139102603Y-45559250D01*
X138825345Y-45504100D01*
X138542655Y-45504100D01*
X138265397Y-45559250D01*
X138004225Y-45667431D01*
X137769177Y-45824485D01*
X137569285Y-46024377D01*
X137439400Y-46218764D01*
X137309515Y-46024377D01*
X137109623Y-45824485D01*
X136874575Y-45667431D01*
X136613403Y-45559250D01*
X136336145Y-45504100D01*
X136053455Y-45504100D01*
X135776197Y-45559250D01*
X135515025Y-45667431D01*
X135279977Y-45824485D01*
X135080085Y-46024377D01*
X134923031Y-46259425D01*
X134814850Y-46520597D01*
X134759700Y-46797855D01*
X133248000Y-46797855D01*
X133248000Y-44602000D01*
X160630001Y-44602000D01*
X160630000Y-141072000D01*
%TA.AperFunction,NonConductor*%
D25*
G36*
X160630000Y-141072000D02*
G01*
X130200000Y-141072000D01*
X130200000Y-114903270D01*
X130270025Y-115034277D01*
X130300997Y-115072016D01*
X130364998Y-115150002D01*
X130394002Y-115173805D01*
X135725704Y-120505508D01*
X135590010Y-120708589D01*
X135478068Y-120978842D01*
X135421000Y-121265740D01*
X135421000Y-121558260D01*
X135464790Y-121778408D01*
X132239271Y-125003928D01*
X131230000Y-125003928D01*
X131105518Y-125016188D01*
X130985820Y-125052498D01*
X130875506Y-125111463D01*
X130778815Y-125190815D01*
X130699463Y-125287506D01*
X130640498Y-125397820D01*
X130604188Y-125517518D01*
X130591928Y-125642000D01*
X130591928Y-127342000D01*
X130604188Y-127466482D01*
X130640498Y-127586180D01*
X130699463Y-127696494D01*
X130778815Y-127793185D01*
X130875506Y-127872537D01*
X130985820Y-127931502D01*
X131058380Y-127953513D01*
X130926525Y-128085368D01*
X130764010Y-128328589D01*
X130652068Y-128598842D01*
X130595000Y-128885740D01*
X130595000Y-129178260D01*
X130652068Y-129465158D01*
X130764010Y-129735411D01*
X130926525Y-129978632D01*
X131133368Y-130185475D01*
X131307760Y-130302000D01*
X131133368Y-130418525D01*
X130926525Y-130625368D01*
X130764010Y-130868589D01*
X130652068Y-131138842D01*
X130595000Y-131425740D01*
X130595000Y-131718260D01*
X130652068Y-132005158D01*
X130764010Y-132275411D01*
X130926525Y-132518632D01*
X131133368Y-132725475D01*
X131307760Y-132842000D01*
X131133368Y-132958525D01*
X130926525Y-133165368D01*
X130764010Y-133408589D01*
X130652068Y-133678842D01*
X130595000Y-133965740D01*
X130595000Y-134258260D01*
X130652068Y-134545158D01*
X130764010Y-134815411D01*
X130926525Y-135058632D01*
X131133368Y-135265475D01*
X131307760Y-135382000D01*
X131133368Y-135498525D01*
X130926525Y-135705368D01*
X130764010Y-135948589D01*
X130652068Y-136218842D01*
X130595000Y-136505740D01*
X130595000Y-136798260D01*
X130652068Y-137085158D01*
X130764010Y-137355411D01*
X130926525Y-137598632D01*
X131133368Y-137805475D01*
X131307760Y-137922000D01*
X131133368Y-138038525D01*
X130926525Y-138245368D01*
X130764010Y-138488589D01*
X130652068Y-138758842D01*
X130595000Y-139045740D01*
X130595000Y-139338260D01*
X130652068Y-139625158D01*
X130764010Y-139895411D01*
X130926525Y-140138632D01*
X131133368Y-140345475D01*
X131376589Y-140507990D01*
X131646842Y-140619932D01*
X131933740Y-140677000D01*
X132226260Y-140677000D01*
X132513158Y-140619932D01*
X132783411Y-140507990D01*
X133026632Y-140345475D01*
X133233475Y-140138632D01*
X133395990Y-139895411D01*
X133507932Y-139625158D01*
X133565000Y-139338260D01*
X133565000Y-139045740D01*
X133516410Y-138801462D01*
X134205862Y-139490915D01*
X134245629Y-139539371D01*
X134439011Y-139698076D01*
X134659640Y-139816004D01*
X134826415Y-139866595D01*
X134899035Y-139888624D01*
X134924754Y-139891157D01*
X135085619Y-139907001D01*
X135085625Y-139907001D01*
X135147998Y-139913144D01*
X135210371Y-139907001D01*
X138601628Y-139907001D01*
X138664001Y-139913144D01*
X138726374Y-139907001D01*
X138726381Y-139907001D01*
X138912964Y-139888624D01*
X139152360Y-139816004D01*
X139372989Y-139698076D01*
X139566371Y-139539371D01*
X139606142Y-139490910D01*
X140299914Y-138797139D01*
X140348370Y-138757372D01*
X140507075Y-138563990D01*
X140625003Y-138343361D01*
X140697623Y-138103965D01*
X140709093Y-137987506D01*
X140722144Y-137855002D01*
X140716000Y-137792622D01*
X140716000Y-137424240D01*
X140761990Y-137355411D01*
X140873932Y-137085158D01*
X140931000Y-136798260D01*
X140931000Y-136505740D01*
X140873932Y-136218842D01*
X140761990Y-135948589D01*
X140716000Y-135879760D01*
X140716000Y-135382000D01*
X144393825Y-135382000D01*
X144456198Y-135388143D01*
X144518571Y-135382000D01*
X144518578Y-135382000D01*
X144615000Y-135372503D01*
X144615000Y-135523335D01*
X144670147Y-135800574D01*
X144778320Y-136061727D01*
X144935363Y-136296759D01*
X145135241Y-136496637D01*
X145290000Y-136600044D01*
X145290001Y-138138668D01*
X145286324Y-138176000D01*
X145300998Y-138324985D01*
X145344454Y-138468246D01*
X145415026Y-138600276D01*
X145445166Y-138637001D01*
X145510000Y-138716001D01*
X145538998Y-138739799D01*
X145624791Y-138825592D01*
X145581000Y-139045740D01*
X145581000Y-139338260D01*
X145638068Y-139625158D01*
X145750010Y-139895411D01*
X145912525Y-140138632D01*
X146119368Y-140345475D01*
X146362589Y-140507990D01*
X146632842Y-140619932D01*
X146919740Y-140677000D01*
X147212260Y-140677000D01*
X147499158Y-140619932D01*
X147769411Y-140507990D01*
X148012632Y-140345475D01*
X148144487Y-140213620D01*
X148166498Y-140286180D01*
X148225463Y-140396494D01*
X148304815Y-140493185D01*
X148401506Y-140572537D01*
X148511820Y-140631502D01*
X148631518Y-140667812D01*
X148756000Y-140680072D01*
X150456000Y-140680072D01*
X150580482Y-140667812D01*
X150700180Y-140631502D01*
X150810494Y-140572537D01*
X150907185Y-140493185D01*
X150986537Y-140396494D01*
X151045502Y-140286180D01*
X151081812Y-140166482D01*
X151094072Y-140042000D01*
X151094072Y-138342000D01*
X151081812Y-138217518D01*
X151045502Y-138097820D01*
X150986537Y-137987506D01*
X150907185Y-137890815D01*
X150810494Y-137811463D01*
X150700180Y-137752498D01*
X150580482Y-137716188D01*
X150456000Y-137703928D01*
X150366000Y-137703928D01*
X150366000Y-133257799D01*
X152993928Y-130629872D01*
X152993928Y-131102000D01*
X153006188Y-131226482D01*
X153042498Y-131346180D01*
X153101463Y-131456494D01*
X153180815Y-131553185D01*
X153277506Y-131632537D01*
X153387820Y-131691502D01*
X153507518Y-131727812D01*
X153632000Y-131740072D01*
X153672000Y-131740072D01*
X153672001Y-133947000D01*
X153528665Y-133947000D01*
X153251426Y-134002147D01*
X152990273Y-134110320D01*
X152755241Y-134267363D01*
X152555363Y-134467241D01*
X152398320Y-134702273D01*
X152290147Y-134963426D01*
X152235000Y-135240665D01*
X152235000Y-135523335D01*
X152290147Y-135800574D01*
X152398320Y-136061727D01*
X152555363Y-136296759D01*
X152755241Y-136496637D01*
X152990273Y-136653680D01*
X153251426Y-136761853D01*
X153528665Y-136817000D01*
X153811335Y-136817000D01*
X154088574Y-136761853D01*
X154349727Y-136653680D01*
X154584759Y-136496637D01*
X154784637Y-136296759D01*
X154941680Y-136061727D01*
X155049853Y-135800574D01*
X155105000Y-135523335D01*
X155105000Y-135240665D01*
X155066138Y-135045295D01*
X155066974Y-135044276D01*
X155137546Y-134912247D01*
X155181003Y-134768986D01*
X155192000Y-134657333D01*
X155192000Y-134657325D01*
X155195676Y-134620000D01*
X155192000Y-134582675D01*
X155192000Y-131740072D01*
X155232000Y-131740072D01*
X155356482Y-131727812D01*
X155476180Y-131691502D01*
X155586494Y-131632537D01*
X155683185Y-131553185D01*
X155762537Y-131456494D01*
X155821502Y-131346180D01*
X155857812Y-131226482D01*
X155870072Y-131102000D01*
X155870072Y-131062000D01*
X156426678Y-131062000D01*
X156464000Y-131065676D01*
X156501322Y-131062000D01*
X156501333Y-131062000D01*
X156612986Y-131051003D01*
X156756247Y-131007546D01*
X156888276Y-130936974D01*
X157004001Y-130842001D01*
X157027804Y-130812997D01*
X158386730Y-129454072D01*
X159550000Y-129454072D01*
X159674482Y-129441812D01*
X159794180Y-129405502D01*
X159904494Y-129346537D01*
X160001185Y-129267185D01*
X160080537Y-129170494D01*
X160139502Y-129060180D01*
X160175812Y-128940482D01*
X160188072Y-128816000D01*
X160188072Y-127216000D01*
X160175812Y-127091518D01*
X160139502Y-126971820D01*
X160080537Y-126861506D01*
X160001185Y-126764815D01*
X159904494Y-126685463D01*
X159794180Y-126626498D01*
X159674482Y-126590188D01*
X159550000Y-126577928D01*
X157950000Y-126577928D01*
X157825518Y-126590188D01*
X157705820Y-126626498D01*
X157595506Y-126685463D01*
X157498815Y-126764815D01*
X157419463Y-126861506D01*
X157360498Y-126971820D01*
X157324188Y-127091518D01*
X157311928Y-127216000D01*
X157311928Y-128379270D01*
X156149199Y-129542000D01*
X155870072Y-129542000D01*
X155870072Y-129502000D01*
X155857812Y-129377518D01*
X155821502Y-129257820D01*
X155762537Y-129147506D01*
X155683185Y-129050815D01*
X155586494Y-128971463D01*
X155476180Y-128912498D01*
X155356482Y-128876188D01*
X155348039Y-128875357D01*
X155546637Y-128676759D01*
X155703680Y-128441727D01*
X155811853Y-128180574D01*
X155867000Y-127903335D01*
X155867000Y-127620665D01*
X155830688Y-127438113D01*
X159261003Y-124007799D01*
X159290001Y-123984001D01*
X159384974Y-123868276D01*
X159455546Y-123736247D01*
X159499003Y-123592986D01*
X159510000Y-123481333D01*
X159510000Y-123481324D01*
X159513676Y-123444001D01*
X159510000Y-123406678D01*
X159510000Y-121614043D01*
X159664759Y-121510637D01*
X159864637Y-121310759D01*
X160021680Y-121075727D01*
X160129853Y-120814574D01*
X160185000Y-120537335D01*
X160185000Y-120254665D01*
X160129853Y-119977426D01*
X160021680Y-119716273D01*
X159864637Y-119481241D01*
X159664759Y-119281363D01*
X159429727Y-119124320D01*
X159168574Y-119016147D01*
X158891335Y-118961000D01*
X158608665Y-118961000D01*
X158331426Y-119016147D01*
X158070273Y-119124320D01*
X157835241Y-119281363D01*
X157635363Y-119481241D01*
X157478320Y-119716273D01*
X157370147Y-119977426D01*
X157315000Y-120254665D01*
X157315000Y-120537335D01*
X157370147Y-120814574D01*
X157478320Y-121075727D01*
X157635363Y-121310759D01*
X157835241Y-121510637D01*
X157990000Y-121614044D01*
X157990001Y-123129197D01*
X155867000Y-125252199D01*
X155867000Y-125080665D01*
X155811853Y-124803426D01*
X155703680Y-124542273D01*
X155546637Y-124307241D01*
X155346759Y-124107363D01*
X155111727Y-123950320D01*
X154850574Y-123842147D01*
X154573335Y-123787000D01*
X154290665Y-123787000D01*
X154013426Y-123842147D01*
X153766999Y-123944220D01*
X153766999Y-122926853D01*
X159603921Y-117089933D01*
X159652370Y-117050172D01*
X159692132Y-117001722D01*
X159692135Y-117001719D01*
X159733171Y-116951716D01*
X159811075Y-116856790D01*
X159929003Y-116636161D01*
X160001623Y-116396765D01*
X160020000Y-116210182D01*
X160020000Y-116210181D01*
X160026144Y-116147802D01*
X160020000Y-116085422D01*
X160020000Y-112950241D01*
X160021680Y-112947727D01*
X160129853Y-112686574D01*
X160185000Y-112409335D01*
X160185000Y-112126665D01*
X160129853Y-111849426D01*
X160021680Y-111588273D01*
X160020000Y-111585759D01*
X160020000Y-108886241D01*
X160021680Y-108883727D01*
X160129853Y-108622574D01*
X160185000Y-108345335D01*
X160185000Y-108062665D01*
X160129853Y-107785426D01*
X160021680Y-107524273D01*
X160020000Y-107521759D01*
X160020000Y-104912240D01*
X160065990Y-104843411D01*
X160177932Y-104573158D01*
X160235000Y-104286260D01*
X160235000Y-103993740D01*
X160177932Y-103706842D01*
X160065990Y-103436589D01*
X160020000Y-103367760D01*
X160020000Y-84954372D01*
X160026143Y-84891999D01*
X160020000Y-84829626D01*
X160020000Y-84829620D01*
X160001623Y-84643037D01*
X159929003Y-84403641D01*
X159811075Y-84183012D01*
X159652370Y-83989630D01*
X159603914Y-83949863D01*
X147264000Y-71609950D01*
X147264000Y-70316259D01*
X147324537Y-70242494D01*
X147383502Y-70132180D01*
X147419812Y-70012482D01*
X147432072Y-69888000D01*
X147432072Y-68288000D01*
X147419812Y-68163518D01*
X147383502Y-68043820D01*
X147324537Y-67933506D01*
X147264000Y-67859741D01*
X147264000Y-56894879D01*
X148458990Y-58089869D01*
X148458991Y-61855552D01*
X148364061Y-62033153D01*
X148256275Y-62388477D01*
X148229000Y-62665404D01*
X148229001Y-65350597D01*
X148256276Y-65627524D01*
X148364062Y-65982848D01*
X148539098Y-66310317D01*
X148774656Y-66597345D01*
X149061684Y-66832903D01*
X149389153Y-67007939D01*
X149744477Y-67115725D01*
X150114000Y-67152120D01*
X150483524Y-67115725D01*
X150838848Y-67007939D01*
X151166317Y-66832903D01*
X151453345Y-66597345D01*
X151688903Y-66310317D01*
X151863939Y-65982848D01*
X151971725Y-65627524D01*
X151999000Y-65350597D01*
X151999000Y-62796548D01*
X154354000Y-62796548D01*
X154354001Y-65219453D01*
X154379468Y-65478020D01*
X154480106Y-65809781D01*
X154643535Y-66115534D01*
X154863472Y-66383529D01*
X155131467Y-66603466D01*
X155437220Y-66766895D01*
X155768981Y-66867533D01*
X156114000Y-66901515D01*
X156459020Y-66867533D01*
X156790781Y-66766895D01*
X157096534Y-66603466D01*
X157364529Y-66383529D01*
X157584466Y-66115534D01*
X157747895Y-65809781D01*
X157848533Y-65478020D01*
X157874000Y-65219453D01*
X157874000Y-62796547D01*
X157848533Y-62537980D01*
X157747895Y-62206219D01*
X157584466Y-61900466D01*
X157364529Y-61632471D01*
X157096533Y-61412534D01*
X156790780Y-61249105D01*
X156459019Y-61148467D01*
X156114000Y-61114485D01*
X155768980Y-61148467D01*
X155437219Y-61249105D01*
X155131466Y-61412534D01*
X154863471Y-61632471D01*
X154643534Y-61900467D01*
X154480105Y-62206220D01*
X154379467Y-62537981D01*
X154354000Y-62796548D01*
X151999000Y-62796548D01*
X151999000Y-62665403D01*
X151971725Y-62388476D01*
X151863939Y-62033152D01*
X151688903Y-61705683D01*
X151453345Y-61418655D01*
X151166317Y-61183097D01*
X150998990Y-61093659D01*
X150998990Y-60772331D01*
X151006466Y-60778466D01*
X151312219Y-60941895D01*
X151643980Y-61042533D01*
X151902547Y-61068000D01*
X154325453Y-61068000D01*
X154584020Y-61042533D01*
X154915781Y-60941895D01*
X155221534Y-60778466D01*
X155489529Y-60558529D01*
X155709466Y-60290534D01*
X155872895Y-59984781D01*
X155973533Y-59653020D01*
X156007515Y-59308000D01*
X155973533Y-58962980D01*
X155872895Y-58631219D01*
X155709466Y-58325466D01*
X155489529Y-58057471D01*
X155221534Y-57837534D01*
X154915781Y-57674105D01*
X154584020Y-57573467D01*
X154325453Y-57548000D01*
X151902547Y-57548000D01*
X151643980Y-57573467D01*
X151312219Y-57674105D01*
X151006466Y-57837534D01*
X150998990Y-57843669D01*
X150998990Y-57626190D01*
X151005133Y-57563817D01*
X150998990Y-57501444D01*
X150998990Y-57501438D01*
X150980613Y-57314855D01*
X150980568Y-57314705D01*
X150948843Y-57210125D01*
X150907993Y-57075459D01*
X150790065Y-56854830D01*
X150631360Y-56661448D01*
X150582905Y-56621682D01*
X145887568Y-51926345D01*
X148526500Y-51926345D01*
X148526500Y-52239055D01*
X148587507Y-52545757D01*
X148707176Y-52834663D01*
X148880908Y-53094672D01*
X149102028Y-53315792D01*
X149362037Y-53489524D01*
X149650943Y-53609193D01*
X149957645Y-53670200D01*
X150270355Y-53670200D01*
X150577057Y-53609193D01*
X150865963Y-53489524D01*
X151125972Y-53315792D01*
X151347092Y-53094672D01*
X151520824Y-52834663D01*
X151640493Y-52545757D01*
X151701500Y-52239055D01*
X151701500Y-51926345D01*
X151640493Y-51619643D01*
X151520824Y-51330737D01*
X151347092Y-51070728D01*
X151125972Y-50849608D01*
X150865963Y-50675876D01*
X150577057Y-50556207D01*
X150270355Y-50495200D01*
X149957645Y-50495200D01*
X149650943Y-50556207D01*
X149362037Y-50675876D01*
X149102028Y-50849608D01*
X148880908Y-51070728D01*
X148707176Y-51330737D01*
X148587507Y-51619643D01*
X148526500Y-51926345D01*
X145887568Y-51926345D01*
X143907313Y-49946091D01*
X143867542Y-49897630D01*
X143674160Y-49738925D01*
X143453531Y-49620997D01*
X143214135Y-49548377D01*
X143027552Y-49530000D01*
X143027545Y-49530000D01*
X142965172Y-49523857D01*
X142902799Y-49530000D01*
X137914422Y-49530000D01*
X137852049Y-49523857D01*
X137789676Y-49530000D01*
X137789670Y-49530000D01*
X137628805Y-49545844D01*
X137603086Y-49548377D01*
X137530466Y-49570406D01*
X137363691Y-49620997D01*
X137143062Y-49738925D01*
X136949680Y-49897630D01*
X136909913Y-49946086D01*
X135340886Y-51515114D01*
X135292431Y-51554880D01*
X135133725Y-51748262D01*
X135015797Y-51968891D01*
X134991074Y-52050391D01*
X134923031Y-52152225D01*
X134814850Y-52413397D01*
X134759700Y-52690655D01*
X134759700Y-52973345D01*
X134814850Y-53250603D01*
X134923031Y-53511775D01*
X135080085Y-53746823D01*
X135279977Y-53946715D01*
X135515025Y-54103769D01*
X135776197Y-54211950D01*
X136053455Y-54267100D01*
X136336145Y-54267100D01*
X136447478Y-54244955D01*
X136590962Y-54230823D01*
X136830358Y-54158202D01*
X137050987Y-54040274D01*
X137244369Y-53881569D01*
X137403074Y-53688187D01*
X137459531Y-53582564D01*
X137569285Y-53746823D01*
X137769177Y-53946715D01*
X138004225Y-54103769D01*
X138265397Y-54211950D01*
X138542655Y-54267100D01*
X138825345Y-54267100D01*
X139102603Y-54211950D01*
X139363775Y-54103769D01*
X139366422Y-54102000D01*
X141967950Y-54102000D01*
X144724000Y-56858051D01*
X144724001Y-67859740D01*
X144663463Y-67933506D01*
X144604498Y-68043820D01*
X144568188Y-68163518D01*
X144555928Y-68288000D01*
X144555928Y-69888000D01*
X144568188Y-70012482D01*
X144604498Y-70132180D01*
X144663463Y-70242494D01*
X144724000Y-70316259D01*
X144724001Y-72073618D01*
X144717857Y-72136000D01*
X144742377Y-72384963D01*
X144814998Y-72624359D01*
X144932926Y-72844988D01*
X145091631Y-73038370D01*
X145140087Y-73078137D01*
X157480001Y-85418052D01*
X157480000Y-103367760D01*
X157363475Y-103193368D01*
X157156632Y-102986525D01*
X156913411Y-102824010D01*
X156643158Y-102712068D01*
X156356260Y-102655000D01*
X156063740Y-102655000D01*
X155776842Y-102712068D01*
X155506589Y-102824010D01*
X155263368Y-102986525D01*
X155056525Y-103193368D01*
X154940000Y-103367760D01*
X154823475Y-103193368D01*
X154616632Y-102986525D01*
X154373411Y-102824010D01*
X154103158Y-102712068D01*
X153816260Y-102655000D01*
X153523740Y-102655000D01*
X153303592Y-102698791D01*
X152608793Y-102003992D01*
X152584990Y-101974988D01*
X152469265Y-101880015D01*
X152337236Y-101809443D01*
X152193975Y-101765986D01*
X152082322Y-101754989D01*
X152082311Y-101754989D01*
X152044989Y-101751313D01*
X152007667Y-101754989D01*
X146263791Y-101754989D01*
X141831011Y-97322210D01*
X141831011Y-88315334D01*
X141834687Y-88278009D01*
X141831011Y-88240684D01*
X141831011Y-88240676D01*
X141820014Y-88129023D01*
X141776557Y-87985762D01*
X141705985Y-87853733D01*
X141611012Y-87738008D01*
X141582014Y-87714210D01*
X140573805Y-86706001D01*
X140550002Y-86676998D01*
X140434277Y-86582025D01*
X140302248Y-86511453D01*
X140158987Y-86467996D01*
X140047334Y-86456999D01*
X140047323Y-86456999D01*
X140010001Y-86453323D01*
X139972679Y-86456999D01*
X136379321Y-86456999D01*
X136341998Y-86453323D01*
X136304675Y-86456999D01*
X136304666Y-86456999D01*
X136193013Y-86467996D01*
X136049752Y-86511453D01*
X135917723Y-86582025D01*
X135917721Y-86582026D01*
X135917722Y-86582026D01*
X135830995Y-86653200D01*
X135830991Y-86653204D01*
X135801998Y-86676998D01*
X135778204Y-86705991D01*
X135220001Y-87264196D01*
X135190998Y-87287998D01*
X135135870Y-87355173D01*
X135096025Y-87403723D01*
X135073765Y-87445368D01*
X135025453Y-87535753D01*
X134981996Y-87679014D01*
X134970999Y-87790667D01*
X134970999Y-87790677D01*
X134967323Y-87827999D01*
X134970999Y-87865322D01*
X134971000Y-92259667D01*
X134967323Y-92296999D01*
X134981997Y-92445984D01*
X135025453Y-92589245D01*
X135096025Y-92721275D01*
X135167200Y-92808001D01*
X135190999Y-92837000D01*
X135219997Y-92860798D01*
X135464791Y-93105592D01*
X135421000Y-93325740D01*
X135421000Y-93618260D01*
X135478068Y-93905158D01*
X135590010Y-94175411D01*
X135752525Y-94418632D01*
X135959368Y-94625475D01*
X136133760Y-94742000D01*
X135959368Y-94858525D01*
X135752525Y-95065368D01*
X135590010Y-95308589D01*
X135478068Y-95578842D01*
X135421000Y-95865740D01*
X135421000Y-96158260D01*
X135478068Y-96445158D01*
X135590010Y-96715411D01*
X135752525Y-96958632D01*
X135959368Y-97165475D01*
X136133760Y-97282000D01*
X135959368Y-97398525D01*
X135752525Y-97605368D01*
X135590010Y-97848589D01*
X135478068Y-98118842D01*
X135421000Y-98405740D01*
X135421000Y-98698260D01*
X135478068Y-98985158D01*
X135590010Y-99255411D01*
X135752525Y-99498632D01*
X135959368Y-99705475D01*
X136133760Y-99822000D01*
X135959368Y-99938525D01*
X135752525Y-100145368D01*
X135590010Y-100388589D01*
X135478068Y-100658842D01*
X135421000Y-100945740D01*
X135421000Y-101238260D01*
X135478068Y-101525158D01*
X135590010Y-101795411D01*
X135752525Y-102038632D01*
X135959368Y-102245475D01*
X136133760Y-102362000D01*
X135959368Y-102478525D01*
X135752525Y-102685368D01*
X135590010Y-102928589D01*
X135478068Y-103198842D01*
X135421000Y-103485740D01*
X135421000Y-103778260D01*
X135478068Y-104065158D01*
X135590010Y-104335411D01*
X135752525Y-104578632D01*
X135959368Y-104785475D01*
X136133760Y-104902000D01*
X135959368Y-105018525D01*
X135752525Y-105225368D01*
X135590010Y-105468589D01*
X135478068Y-105738842D01*
X135421000Y-106025740D01*
X135421000Y-106318260D01*
X135478068Y-106605158D01*
X135590010Y-106875411D01*
X135752525Y-107118632D01*
X135959368Y-107325475D01*
X136133760Y-107442000D01*
X135959368Y-107558525D01*
X135752525Y-107765368D01*
X135590010Y-108008589D01*
X135478068Y-108278842D01*
X135421000Y-108565740D01*
X135421000Y-108858260D01*
X135478068Y-109145158D01*
X135590010Y-109415411D01*
X135752525Y-109658632D01*
X135959368Y-109865475D01*
X136133760Y-109982000D01*
X135959368Y-110098525D01*
X135752525Y-110305368D01*
X135590010Y-110548589D01*
X135478068Y-110818842D01*
X135421000Y-111105740D01*
X135421000Y-111398260D01*
X135478068Y-111685158D01*
X135590010Y-111955411D01*
X135752525Y-112198632D01*
X135959368Y-112405475D01*
X136133760Y-112522000D01*
X135959368Y-112638525D01*
X135752525Y-112845368D01*
X135590010Y-113088589D01*
X135478068Y-113358842D01*
X135421000Y-113645740D01*
X135421000Y-113938260D01*
X135478068Y-114225158D01*
X135590010Y-114495411D01*
X135752525Y-114738632D01*
X135959368Y-114945475D01*
X136133760Y-115062000D01*
X135959368Y-115178525D01*
X135752525Y-115385368D01*
X135590010Y-115628589D01*
X135478068Y-115898842D01*
X135421000Y-116185740D01*
X135421000Y-116312199D01*
X134015001Y-114906200D01*
X134015001Y-99764323D01*
X134018677Y-99727000D01*
X134015001Y-99689677D01*
X134015001Y-99689668D01*
X134004004Y-99578015D01*
X133960547Y-99434754D01*
X133889975Y-99302725D01*
X133795002Y-99187000D01*
X133766004Y-99163202D01*
X133521210Y-98918408D01*
X133565000Y-98698260D01*
X133565000Y-98405740D01*
X133507932Y-98118842D01*
X133395990Y-97848589D01*
X133233475Y-97605368D01*
X133026632Y-97398525D01*
X132852240Y-97282000D01*
X133026632Y-97165475D01*
X133233475Y-96958632D01*
X133395990Y-96715411D01*
X133507932Y-96445158D01*
X133565000Y-96158260D01*
X133565000Y-95865740D01*
X133507932Y-95578842D01*
X133395990Y-95308589D01*
X133233475Y-95065368D01*
X133026632Y-94858525D01*
X132783411Y-94696010D01*
X132513158Y-94584068D01*
X132226260Y-94527000D01*
X131933740Y-94527000D01*
X131646842Y-94584068D01*
X131376589Y-94696010D01*
X131133368Y-94858525D01*
X130926525Y-95065368D01*
X130764010Y-95308589D01*
X130652068Y-95578842D01*
X130595000Y-95865740D01*
X130595000Y-96158260D01*
X130638791Y-96378408D01*
X130393997Y-96623202D01*
X130364999Y-96647000D01*
X130341201Y-96675998D01*
X130341200Y-96675999D01*
X130270025Y-96762725D01*
X130200000Y-96893732D01*
X130200000Y-89883581D01*
X130196726Y-89850339D01*
X130196726Y-89833863D01*
X130195763Y-89824698D01*
X130168134Y-89578382D01*
X130155695Y-89519865D01*
X130144078Y-89461192D01*
X130141353Y-89452389D01*
X130066408Y-89216131D01*
X130042868Y-89161209D01*
X130020048Y-89105842D01*
X130015664Y-89097736D01*
X129993734Y-89057845D01*
X130057424Y-88994155D01*
X130154277Y-88849205D01*
X130220990Y-88688145D01*
X130255000Y-88517165D01*
X130255000Y-88342835D01*
X130220990Y-88171855D01*
X130162232Y-88030000D01*
X130220990Y-87888145D01*
X130255000Y-87717165D01*
X130255000Y-87542835D01*
X130220990Y-87371855D01*
X130162232Y-87230000D01*
X130220990Y-87088145D01*
X130255000Y-86917165D01*
X130255000Y-86742835D01*
X130220990Y-86571855D01*
X130154277Y-86410795D01*
X130057424Y-86265845D01*
X129993063Y-86201484D01*
X130026919Y-86137809D01*
X130049707Y-86082521D01*
X130073279Y-86027525D01*
X130076003Y-86018722D01*
X130147643Y-85781441D01*
X130159264Y-85722754D01*
X130171700Y-85664248D01*
X130172663Y-85655083D01*
X130196850Y-85408405D01*
X130196850Y-85408402D01*
X130200000Y-85376419D01*
X130200000Y-82194000D01*
X138716419Y-82194000D01*
X138744865Y-82191198D01*
X138752682Y-82191253D01*
X138761853Y-82190354D01*
X139008357Y-82164446D01*
X139066986Y-82152411D01*
X139125716Y-82141208D01*
X139134532Y-82138546D01*
X139134536Y-82138545D01*
X139134539Y-82138544D01*
X139371314Y-82065249D01*
X139426457Y-82042069D01*
X139481920Y-82019661D01*
X139490054Y-82015335D01*
X139490059Y-82015333D01*
X139490064Y-82015330D01*
X139708086Y-81897447D01*
X139757654Y-81864012D01*
X139807735Y-81831241D01*
X139814876Y-81825416D01*
X140005856Y-81667423D01*
X140047995Y-81624988D01*
X140090745Y-81583125D01*
X140096618Y-81576024D01*
X140253273Y-81383947D01*
X140286374Y-81334125D01*
X140320173Y-81284763D01*
X140324556Y-81276657D01*
X140440919Y-81057809D01*
X140463707Y-81002521D01*
X140487279Y-80947525D01*
X140490003Y-80938722D01*
X140561643Y-80701441D01*
X140573264Y-80642754D01*
X140585700Y-80584248D01*
X140586663Y-80575083D01*
X140610850Y-80328405D01*
X140610850Y-80328402D01*
X140614000Y-80296419D01*
X140614000Y-77323740D01*
X143930000Y-77323740D01*
X143930000Y-77616260D01*
X143987068Y-77903158D01*
X144099010Y-78173411D01*
X144261525Y-78416632D01*
X144468368Y-78623475D01*
X144642760Y-78740000D01*
X144468368Y-78856525D01*
X144261525Y-79063368D01*
X144099010Y-79306589D01*
X143987068Y-79576842D01*
X143930000Y-79863740D01*
X143930000Y-80156260D01*
X143987068Y-80443158D01*
X144099010Y-80713411D01*
X144261525Y-80956632D01*
X144468368Y-81163475D01*
X144642760Y-81280000D01*
X144468368Y-81396525D01*
X144261525Y-81603368D01*
X144099010Y-81846589D01*
X143987068Y-82116842D01*
X143930000Y-82403740D01*
X143930000Y-82696260D01*
X143987068Y-82983158D01*
X144099010Y-83253411D01*
X144261525Y-83496632D01*
X144468368Y-83703475D01*
X144642760Y-83820000D01*
X144468368Y-83936525D01*
X144261525Y-84143368D01*
X144099010Y-84386589D01*
X143987068Y-84656842D01*
X143930000Y-84943740D01*
X143930000Y-85236260D01*
X143987068Y-85523158D01*
X144099010Y-85793411D01*
X144261525Y-86036632D01*
X144468368Y-86243475D01*
X144642760Y-86360000D01*
X144468368Y-86476525D01*
X144261525Y-86683368D01*
X144099010Y-86926589D01*
X143987068Y-87196842D01*
X143930000Y-87483740D01*
X143930000Y-87776260D01*
X143987068Y-88063158D01*
X144099010Y-88333411D01*
X144261525Y-88576632D01*
X144468368Y-88783475D01*
X144642760Y-88900000D01*
X144468368Y-89016525D01*
X144261525Y-89223368D01*
X144099010Y-89466589D01*
X143987068Y-89736842D01*
X143930000Y-90023740D01*
X143930000Y-90316260D01*
X143987068Y-90603158D01*
X144099010Y-90873411D01*
X144261525Y-91116632D01*
X144468368Y-91323475D01*
X144642760Y-91440000D01*
X144468368Y-91556525D01*
X144261525Y-91763368D01*
X144099010Y-92006589D01*
X143987068Y-92276842D01*
X143930000Y-92563740D01*
X143930000Y-92856260D01*
X143987068Y-93143158D01*
X144099010Y-93413411D01*
X144261525Y-93656632D01*
X144468368Y-93863475D01*
X144642760Y-93980000D01*
X144468368Y-94096525D01*
X144261525Y-94303368D01*
X144099010Y-94546589D01*
X143987068Y-94816842D01*
X143930000Y-95103740D01*
X143930000Y-95396260D01*
X143987068Y-95683158D01*
X144099010Y-95953411D01*
X144261525Y-96196632D01*
X144468368Y-96403475D01*
X144642760Y-96520000D01*
X144468368Y-96636525D01*
X144261525Y-96843368D01*
X144099010Y-97086589D01*
X143987068Y-97356842D01*
X143930000Y-97643740D01*
X143930000Y-97936260D01*
X143987068Y-98223158D01*
X144099010Y-98493411D01*
X144261525Y-98736632D01*
X144468368Y-98943475D01*
X144711589Y-99105990D01*
X144981842Y-99217932D01*
X145268740Y-99275000D01*
X145561260Y-99275000D01*
X145848158Y-99217932D01*
X146118411Y-99105990D01*
X146361632Y-98943475D01*
X146568475Y-98736632D01*
X146730990Y-98493411D01*
X146842932Y-98223158D01*
X146900000Y-97936260D01*
X146900000Y-97643740D01*
X146842932Y-97356842D01*
X146730990Y-97086589D01*
X146568475Y-96843368D01*
X146361632Y-96636525D01*
X146187240Y-96520000D01*
X146361632Y-96403475D01*
X146568475Y-96196632D01*
X146730990Y-95953411D01*
X146842932Y-95683158D01*
X146900000Y-95396260D01*
X146900000Y-95103740D01*
X146842932Y-94816842D01*
X146730990Y-94546589D01*
X146568475Y-94303368D01*
X146361632Y-94096525D01*
X146187240Y-93980000D01*
X146361632Y-93863475D01*
X146568475Y-93656632D01*
X146730990Y-93413411D01*
X146842932Y-93143158D01*
X146900000Y-92856260D01*
X146900000Y-92563740D01*
X146842932Y-92276842D01*
X146730990Y-92006589D01*
X146568475Y-91763368D01*
X146361632Y-91556525D01*
X146187240Y-91440000D01*
X146361632Y-91323475D01*
X146568475Y-91116632D01*
X146730990Y-90873411D01*
X146842932Y-90603158D01*
X146900000Y-90316260D01*
X146900000Y-90023740D01*
X146842932Y-89736842D01*
X146730990Y-89466589D01*
X146568475Y-89223368D01*
X146361632Y-89016525D01*
X146187240Y-88900000D01*
X146361632Y-88783475D01*
X146568475Y-88576632D01*
X146730990Y-88333411D01*
X146842932Y-88063158D01*
X146900000Y-87776260D01*
X146900000Y-87483740D01*
X146842932Y-87196842D01*
X146730990Y-86926589D01*
X146568475Y-86683368D01*
X146361632Y-86476525D01*
X146187240Y-86360000D01*
X146361632Y-86243475D01*
X146568475Y-86036632D01*
X146730990Y-85793411D01*
X146842932Y-85523158D01*
X146900000Y-85236260D01*
X146900000Y-84943740D01*
X146842932Y-84656842D01*
X146730990Y-84386589D01*
X146568475Y-84143368D01*
X146361632Y-83936525D01*
X146187240Y-83820000D01*
X146361632Y-83703475D01*
X146568475Y-83496632D01*
X146730990Y-83253411D01*
X146842932Y-82983158D01*
X146900000Y-82696260D01*
X146900000Y-82403740D01*
X146842932Y-82116842D01*
X146730990Y-81846589D01*
X146568475Y-81603368D01*
X146361632Y-81396525D01*
X146187240Y-81280000D01*
X146361632Y-81163475D01*
X146568475Y-80956632D01*
X146730990Y-80713411D01*
X146842932Y-80443158D01*
X146900000Y-80156260D01*
X146900000Y-79863740D01*
X146842932Y-79576842D01*
X146730990Y-79306589D01*
X146568475Y-79063368D01*
X146361632Y-78856525D01*
X146187240Y-78740000D01*
X146361632Y-78623475D01*
X146568475Y-78416632D01*
X146730990Y-78173411D01*
X146842932Y-77903158D01*
X146900000Y-77616260D01*
X146900000Y-77323740D01*
X146842932Y-77036842D01*
X146730990Y-76766589D01*
X146568475Y-76523368D01*
X146361632Y-76316525D01*
X146118411Y-76154010D01*
X145848158Y-76042068D01*
X145561260Y-75985000D01*
X145268740Y-75985000D01*
X144981842Y-76042068D01*
X144711589Y-76154010D01*
X144468368Y-76316525D01*
X144261525Y-76523368D01*
X144099010Y-76766589D01*
X143987068Y-77036842D01*
X143930000Y-77323740D01*
X140614000Y-77323740D01*
X140614000Y-68946665D01*
X141059000Y-68946665D01*
X141059000Y-69229335D01*
X141114147Y-69506574D01*
X141222320Y-69767727D01*
X141379363Y-70002759D01*
X141579241Y-70202637D01*
X141814273Y-70359680D01*
X142075426Y-70467853D01*
X142352665Y-70523000D01*
X142635335Y-70523000D01*
X142912574Y-70467853D01*
X143173727Y-70359680D01*
X143408759Y-70202637D01*
X143608637Y-70002759D01*
X143765680Y-69767727D01*
X143873853Y-69506574D01*
X143929000Y-69229335D01*
X143929000Y-68946665D01*
X143873853Y-68669426D01*
X143765680Y-68408273D01*
X143608637Y-68173241D01*
X143408759Y-67973363D01*
X143173727Y-67816320D01*
X142912574Y-67708147D01*
X142635335Y-67653000D01*
X142352665Y-67653000D01*
X142075426Y-67708147D01*
X141814273Y-67816320D01*
X141579241Y-67973363D01*
X141379363Y-68173241D01*
X141222320Y-68408273D01*
X141114147Y-68669426D01*
X141059000Y-68946665D01*
X140614000Y-68946665D01*
X140614000Y-57117581D01*
X140611198Y-57089135D01*
X140611253Y-57081318D01*
X140610354Y-57072147D01*
X140584446Y-56825644D01*
X140572414Y-56767028D01*
X140561208Y-56708284D01*
X140558544Y-56699462D01*
X140485249Y-56462686D01*
X140462074Y-56407555D01*
X140439661Y-56352080D01*
X140435334Y-56343944D01*
X140317446Y-56125914D01*
X140284012Y-56076346D01*
X140251240Y-56026265D01*
X140245416Y-56019124D01*
X140087423Y-55828144D01*
X140044988Y-55786005D01*
X140003125Y-55743255D01*
X139996024Y-55737381D01*
X139803946Y-55580727D01*
X139754169Y-55547655D01*
X139704763Y-55513826D01*
X139696657Y-55509444D01*
X139477809Y-55393081D01*
X139422532Y-55370298D01*
X139367525Y-55346721D01*
X139358722Y-55343997D01*
X139121441Y-55272357D01*
X139062754Y-55260736D01*
X139004248Y-55248300D01*
X138995085Y-55247337D01*
X138995083Y-55247337D01*
X138748405Y-55223150D01*
X138748402Y-55223150D01*
X138716419Y-55220000D01*
X133248000Y-55220000D01*
X133248000Y-46797855D01*
X134759700Y-46797855D01*
X134759700Y-47080545D01*
X134814850Y-47357803D01*
X134923031Y-47618975D01*
X135080085Y-47854023D01*
X135279977Y-48053915D01*
X135515025Y-48210969D01*
X135776197Y-48319150D01*
X136053455Y-48374300D01*
X136336145Y-48374300D01*
X136613403Y-48319150D01*
X136874575Y-48210969D01*
X137109623Y-48053915D01*
X137309515Y-47854023D01*
X137439400Y-47659636D01*
X137569285Y-47854023D01*
X137769177Y-48053915D01*
X138004225Y-48210969D01*
X138265397Y-48319150D01*
X138542655Y-48374300D01*
X138825345Y-48374300D01*
X139102603Y-48319150D01*
X139363775Y-48210969D01*
X139598823Y-48053915D01*
X139798715Y-47854023D01*
X139955769Y-47618975D01*
X139991735Y-47532145D01*
X148526500Y-47532145D01*
X148526500Y-47844855D01*
X148587507Y-48151557D01*
X148707176Y-48440463D01*
X148880908Y-48700472D01*
X149102028Y-48921592D01*
X149362037Y-49095324D01*
X149650943Y-49214993D01*
X149957645Y-49276000D01*
X150270355Y-49276000D01*
X150577057Y-49214993D01*
X150865963Y-49095324D01*
X151125972Y-48921592D01*
X151347092Y-48700472D01*
X151520824Y-48440463D01*
X151640493Y-48151557D01*
X151701500Y-47844855D01*
X151701500Y-47532145D01*
X151640493Y-47225443D01*
X151520824Y-46936537D01*
X151347092Y-46676528D01*
X151125972Y-46455408D01*
X150865963Y-46281676D01*
X150577057Y-46162007D01*
X150270355Y-46101000D01*
X149957645Y-46101000D01*
X149650943Y-46162007D01*
X149362037Y-46281676D01*
X149102028Y-46455408D01*
X148880908Y-46676528D01*
X148707176Y-46936537D01*
X148587507Y-47225443D01*
X148526500Y-47532145D01*
X139991735Y-47532145D01*
X140063950Y-47357803D01*
X140119100Y-47080545D01*
X140119100Y-46797855D01*
X140063950Y-46520597D01*
X139955769Y-46259425D01*
X139798715Y-46024377D01*
X139598823Y-45824485D01*
X139363775Y-45667431D01*
X139102603Y-45559250D01*
X138825345Y-45504100D01*
X138542655Y-45504100D01*
X138265397Y-45559250D01*
X138004225Y-45667431D01*
X137769177Y-45824485D01*
X137569285Y-46024377D01*
X137439400Y-46218764D01*
X137309515Y-46024377D01*
X137109623Y-45824485D01*
X136874575Y-45667431D01*
X136613403Y-45559250D01*
X136336145Y-45504100D01*
X136053455Y-45504100D01*
X135776197Y-45559250D01*
X135515025Y-45667431D01*
X135279977Y-45824485D01*
X135080085Y-46024377D01*
X134923031Y-46259425D01*
X134814850Y-46520597D01*
X134759700Y-46797855D01*
X133248000Y-46797855D01*
X133248000Y-44602000D01*
X160630001Y-44602000D01*
X160630000Y-141072000D01*
G37*
%TD.AperFunction*%
D24*
X148842324Y-132942998D02*
X148846001Y-132980330D01*
X148846000Y-137703928D01*
X148756000Y-137703928D01*
X148631518Y-137716188D01*
X148511820Y-137752498D01*
X148401506Y-137811463D01*
X148304815Y-137890815D01*
X148225463Y-137987506D01*
X148166498Y-138097820D01*
X148144487Y-138170380D01*
X148012632Y-138038525D01*
X147769411Y-137876010D01*
X147499158Y-137764068D01*
X147212260Y-137707000D01*
X146919740Y-137707000D01*
X146810000Y-137728829D01*
X146810000Y-136600043D01*
X146964759Y-136496637D01*
X147164637Y-136296759D01*
X147321680Y-136061727D01*
X147429853Y-135800574D01*
X147485000Y-135523335D01*
X147485000Y-135240665D01*
X147429853Y-134963426D01*
X147321680Y-134702273D01*
X147164637Y-134467241D01*
X146964759Y-134267363D01*
X146729727Y-134110320D01*
X146468574Y-134002147D01*
X146379767Y-133984482D01*
X146857248Y-133507001D01*
X147678428Y-133507001D01*
X147740801Y-133513144D01*
X147803174Y-133507001D01*
X147803181Y-133507001D01*
X147989764Y-133488624D01*
X148229160Y-133416004D01*
X148449789Y-133298076D01*
X148643171Y-133139371D01*
X148682942Y-133090910D01*
X148843577Y-132930275D01*
X148842324Y-132942998D01*
%TA.AperFunction,NonConductor*%
D25*
G36*
X148842324Y-132942998D02*
G01*
X148846001Y-132980330D01*
X148846000Y-137703928D01*
X148756000Y-137703928D01*
X148631518Y-137716188D01*
X148511820Y-137752498D01*
X148401506Y-137811463D01*
X148304815Y-137890815D01*
X148225463Y-137987506D01*
X148166498Y-138097820D01*
X148144487Y-138170380D01*
X148012632Y-138038525D01*
X147769411Y-137876010D01*
X147499158Y-137764068D01*
X147212260Y-137707000D01*
X146919740Y-137707000D01*
X146810000Y-137728829D01*
X146810000Y-136600043D01*
X146964759Y-136496637D01*
X147164637Y-136296759D01*
X147321680Y-136061727D01*
X147429853Y-135800574D01*
X147485000Y-135523335D01*
X147485000Y-135240665D01*
X147429853Y-134963426D01*
X147321680Y-134702273D01*
X147164637Y-134467241D01*
X146964759Y-134267363D01*
X146729727Y-134110320D01*
X146468574Y-134002147D01*
X146379767Y-133984482D01*
X146857248Y-133507001D01*
X147678428Y-133507001D01*
X147740801Y-133513144D01*
X147803174Y-133507001D01*
X147803181Y-133507001D01*
X147989764Y-133488624D01*
X148229160Y-133416004D01*
X148449789Y-133298076D01*
X148643171Y-133139371D01*
X148682942Y-133090910D01*
X148843577Y-132930275D01*
X148842324Y-132942998D01*
G37*
%TD.AperFunction*%
D24*
X135478068Y-126925158D02*
X135590010Y-127195411D01*
X135752525Y-127438632D01*
X135959368Y-127645475D01*
X136133760Y-127762000D01*
X135959368Y-127878525D01*
X135752525Y-128085368D01*
X135590010Y-128328589D01*
X135478068Y-128598842D01*
X135421000Y-128885740D01*
X135421000Y-129178260D01*
X135478068Y-129465158D01*
X135590010Y-129735411D01*
X135752525Y-129978632D01*
X135959368Y-130185475D01*
X136133760Y-130302000D01*
X135959368Y-130418525D01*
X135752525Y-130625368D01*
X135590010Y-130868589D01*
X135478068Y-131138842D01*
X135421000Y-131425740D01*
X135421000Y-131718260D01*
X135478068Y-132005158D01*
X135590010Y-132275411D01*
X135752525Y-132518632D01*
X135959368Y-132725475D01*
X136133760Y-132842000D01*
X135959368Y-132958525D01*
X135752525Y-133165368D01*
X135590010Y-133408589D01*
X135478068Y-133678842D01*
X135421000Y-133965740D01*
X135421000Y-134258260D01*
X135478068Y-134545158D01*
X135590010Y-134815411D01*
X135752525Y-135058632D01*
X135884380Y-135190487D01*
X135811820Y-135212498D01*
X135701506Y-135271463D01*
X135604815Y-135350815D01*
X135525463Y-135447506D01*
X135466498Y-135557820D01*
X135430188Y-135677518D01*
X135417928Y-135802000D01*
X135417928Y-137110880D01*
X135335001Y-137027953D01*
X135335001Y-134957292D01*
X135341144Y-134894919D01*
X135335001Y-134832546D01*
X135335001Y-134832540D01*
X135319157Y-134671675D01*
X135316624Y-134645956D01*
X135286047Y-134545158D01*
X135244004Y-134406561D01*
X135126076Y-134185932D01*
X134967371Y-133992550D01*
X134918910Y-133952779D01*
X134224222Y-133258091D01*
X134184451Y-133209630D01*
X133991069Y-133050925D01*
X133770440Y-132932997D01*
X133531044Y-132860377D01*
X133344461Y-132842000D01*
X133344454Y-132842000D01*
X133282081Y-132835857D01*
X133219708Y-132842000D01*
X132852240Y-132842000D01*
X133026632Y-132725475D01*
X133233475Y-132518632D01*
X133395990Y-132275411D01*
X133507932Y-132005158D01*
X133565000Y-131718260D01*
X133565000Y-131425740D01*
X133507932Y-131138842D01*
X133395990Y-130868589D01*
X133233475Y-130625368D01*
X133026632Y-130418525D01*
X132852240Y-130302000D01*
X133026632Y-130185475D01*
X133233475Y-129978632D01*
X133395990Y-129735411D01*
X133507932Y-129465158D01*
X133565000Y-129178260D01*
X133565000Y-128885740D01*
X133521209Y-128665592D01*
X135442161Y-126744641D01*
X135478068Y-126925158D01*
%TA.AperFunction,NonConductor*%
D25*
G36*
X135478068Y-126925158D02*
G01*
X135590010Y-127195411D01*
X135752525Y-127438632D01*
X135959368Y-127645475D01*
X136133760Y-127762000D01*
X135959368Y-127878525D01*
X135752525Y-128085368D01*
X135590010Y-128328589D01*
X135478068Y-128598842D01*
X135421000Y-128885740D01*
X135421000Y-129178260D01*
X135478068Y-129465158D01*
X135590010Y-129735411D01*
X135752525Y-129978632D01*
X135959368Y-130185475D01*
X136133760Y-130302000D01*
X135959368Y-130418525D01*
X135752525Y-130625368D01*
X135590010Y-130868589D01*
X135478068Y-131138842D01*
X135421000Y-131425740D01*
X135421000Y-131718260D01*
X135478068Y-132005158D01*
X135590010Y-132275411D01*
X135752525Y-132518632D01*
X135959368Y-132725475D01*
X136133760Y-132842000D01*
X135959368Y-132958525D01*
X135752525Y-133165368D01*
X135590010Y-133408589D01*
X135478068Y-133678842D01*
X135421000Y-133965740D01*
X135421000Y-134258260D01*
X135478068Y-134545158D01*
X135590010Y-134815411D01*
X135752525Y-135058632D01*
X135884380Y-135190487D01*
X135811820Y-135212498D01*
X135701506Y-135271463D01*
X135604815Y-135350815D01*
X135525463Y-135447506D01*
X135466498Y-135557820D01*
X135430188Y-135677518D01*
X135417928Y-135802000D01*
X135417928Y-137110880D01*
X135335001Y-137027953D01*
X135335001Y-134957292D01*
X135341144Y-134894919D01*
X135335001Y-134832546D01*
X135335001Y-134832540D01*
X135319157Y-134671675D01*
X135316624Y-134645956D01*
X135286047Y-134545158D01*
X135244004Y-134406561D01*
X135126076Y-134185932D01*
X134967371Y-133992550D01*
X134918910Y-133952779D01*
X134224222Y-133258091D01*
X134184451Y-133209630D01*
X133991069Y-133050925D01*
X133770440Y-132932997D01*
X133531044Y-132860377D01*
X133344461Y-132842000D01*
X133344454Y-132842000D01*
X133282081Y-132835857D01*
X133219708Y-132842000D01*
X132852240Y-132842000D01*
X133026632Y-132725475D01*
X133233475Y-132518632D01*
X133395990Y-132275411D01*
X133507932Y-132005158D01*
X133565000Y-131718260D01*
X133565000Y-131425740D01*
X133507932Y-131138842D01*
X133395990Y-130868589D01*
X133233475Y-130625368D01*
X133026632Y-130418525D01*
X132852240Y-130302000D01*
X133026632Y-130185475D01*
X133233475Y-129978632D01*
X133395990Y-129735411D01*
X133507932Y-129465158D01*
X133565000Y-129178260D01*
X133565000Y-128885740D01*
X133521209Y-128665592D01*
X135442161Y-126744641D01*
X135478068Y-126925158D01*
G37*
%TD.AperFunction*%
D24*
X138176001Y-134884241D02*
X138176001Y-135325223D01*
X138110494Y-135271463D01*
X138000180Y-135212498D01*
X137927620Y-135190487D01*
X138059475Y-135058632D01*
X138176000Y-134884240D01*
X138176001Y-134884241D01*
%TA.AperFunction,NonConductor*%
D25*
G36*
X138176001Y-134884241D02*
G01*
X138176001Y-135325223D01*
X138110494Y-135271463D01*
X138000180Y-135212498D01*
X137927620Y-135190487D01*
X138059475Y-135058632D01*
X138176000Y-134884240D01*
X138176001Y-134884241D01*
G37*
%TD.AperFunction*%
D24*
X138292525Y-132518632D02*
X138499368Y-132725475D01*
X138673760Y-132842000D01*
X138499368Y-132958525D01*
X138292525Y-133165368D01*
X138176000Y-133339760D01*
X138059475Y-133165368D01*
X137852632Y-132958525D01*
X137678240Y-132842000D01*
X137852632Y-132725475D01*
X138059475Y-132518632D01*
X138176000Y-132344240D01*
X138292525Y-132518632D01*
%TA.AperFunction,NonConductor*%
D25*
G36*
X138292525Y-132518632D02*
G01*
X138499368Y-132725475D01*
X138673760Y-132842000D01*
X138499368Y-132958525D01*
X138292525Y-133165368D01*
X138176000Y-133339760D01*
X138059475Y-133165368D01*
X137852632Y-132958525D01*
X137678240Y-132842000D01*
X137852632Y-132725475D01*
X138059475Y-132518632D01*
X138176000Y-132344240D01*
X138292525Y-132518632D01*
G37*
%TD.AperFunction*%
D24*
X145432147Y-125640574D02*
X145540320Y-125901727D01*
X145697363Y-126136759D01*
X145897241Y-126336637D01*
X146129759Y-126492000D01*
X145897241Y-126647363D01*
X145697363Y-126847241D01*
X145540320Y-127082273D01*
X145432147Y-127343426D01*
X145377000Y-127620665D01*
X145377000Y-127903335D01*
X145432147Y-128180574D01*
X145540320Y-128441727D01*
X145697363Y-128676759D01*
X145897241Y-128876637D01*
X146129759Y-129032000D01*
X145897241Y-129187363D01*
X145697363Y-129387241D01*
X145540320Y-129622273D01*
X145432147Y-129883426D01*
X145377000Y-130160665D01*
X145377000Y-130443335D01*
X145432147Y-130720574D01*
X145540320Y-130981727D01*
X145657482Y-131157072D01*
X145622209Y-131175926D01*
X145428827Y-131334631D01*
X145389062Y-131383085D01*
X143930148Y-132842000D01*
X140218240Y-132842000D01*
X140392632Y-132725475D01*
X140599475Y-132518632D01*
X140761990Y-132275411D01*
X140873932Y-132005158D01*
X140931000Y-131718260D01*
X140931000Y-131425740D01*
X140873932Y-131138842D01*
X140761990Y-130868589D01*
X140599475Y-130625368D01*
X140392632Y-130418525D01*
X140218240Y-130302000D01*
X140392632Y-130185475D01*
X140599475Y-129978632D01*
X140761990Y-129735411D01*
X140873932Y-129465158D01*
X140931000Y-129178260D01*
X140931000Y-128885740D01*
X140873932Y-128598842D01*
X140761990Y-128328589D01*
X140599475Y-128085368D01*
X140392632Y-127878525D01*
X140218240Y-127762000D01*
X140392632Y-127645475D01*
X140599475Y-127438632D01*
X140724178Y-127252000D01*
X143254676Y-127252000D01*
X143291998Y-127255676D01*
X143329320Y-127252000D01*
X143329331Y-127252000D01*
X143440984Y-127241003D01*
X143584245Y-127197546D01*
X143716274Y-127126974D01*
X143831999Y-127032001D01*
X143855802Y-127002997D01*
X145396655Y-125462145D01*
X145432147Y-125640574D01*
%TA.AperFunction,NonConductor*%
D25*
G36*
X145432147Y-125640574D02*
G01*
X145540320Y-125901727D01*
X145697363Y-126136759D01*
X145897241Y-126336637D01*
X146129759Y-126492000D01*
X145897241Y-126647363D01*
X145697363Y-126847241D01*
X145540320Y-127082273D01*
X145432147Y-127343426D01*
X145377000Y-127620665D01*
X145377000Y-127903335D01*
X145432147Y-128180574D01*
X145540320Y-128441727D01*
X145697363Y-128676759D01*
X145897241Y-128876637D01*
X146129759Y-129032000D01*
X145897241Y-129187363D01*
X145697363Y-129387241D01*
X145540320Y-129622273D01*
X145432147Y-129883426D01*
X145377000Y-130160665D01*
X145377000Y-130443335D01*
X145432147Y-130720574D01*
X145540320Y-130981727D01*
X145657482Y-131157072D01*
X145622209Y-131175926D01*
X145428827Y-131334631D01*
X145389062Y-131383085D01*
X143930148Y-132842000D01*
X140218240Y-132842000D01*
X140392632Y-132725475D01*
X140599475Y-132518632D01*
X140761990Y-132275411D01*
X140873932Y-132005158D01*
X140931000Y-131718260D01*
X140931000Y-131425740D01*
X140873932Y-131138842D01*
X140761990Y-130868589D01*
X140599475Y-130625368D01*
X140392632Y-130418525D01*
X140218240Y-130302000D01*
X140392632Y-130185475D01*
X140599475Y-129978632D01*
X140761990Y-129735411D01*
X140873932Y-129465158D01*
X140931000Y-129178260D01*
X140931000Y-128885740D01*
X140873932Y-128598842D01*
X140761990Y-128328589D01*
X140599475Y-128085368D01*
X140392632Y-127878525D01*
X140218240Y-127762000D01*
X140392632Y-127645475D01*
X140599475Y-127438632D01*
X140724178Y-127252000D01*
X143254676Y-127252000D01*
X143291998Y-127255676D01*
X143329320Y-127252000D01*
X143329331Y-127252000D01*
X143440984Y-127241003D01*
X143584245Y-127197546D01*
X143716274Y-127126974D01*
X143831999Y-127032001D01*
X143855802Y-127002997D01*
X145396655Y-125462145D01*
X145432147Y-125640574D01*
G37*
%TD.AperFunction*%
D24*
X138292525Y-129978632D02*
X138499368Y-130185475D01*
X138673760Y-130302000D01*
X138499368Y-130418525D01*
X138292525Y-130625368D01*
X138176000Y-130799760D01*
X138059475Y-130625368D01*
X137852632Y-130418525D01*
X137678240Y-130302000D01*
X137852632Y-130185475D01*
X138059475Y-129978632D01*
X138176000Y-129804240D01*
X138292525Y-129978632D01*
%TA.AperFunction,NonConductor*%
D25*
G36*
X138292525Y-129978632D02*
G01*
X138499368Y-130185475D01*
X138673760Y-130302000D01*
X138499368Y-130418525D01*
X138292525Y-130625368D01*
X138176000Y-130799760D01*
X138059475Y-130625368D01*
X137852632Y-130418525D01*
X137678240Y-130302000D01*
X137852632Y-130185475D01*
X138059475Y-129978632D01*
X138176000Y-129804240D01*
X138292525Y-129978632D01*
G37*
%TD.AperFunction*%
D24*
X157480001Y-104912241D02*
X157480000Y-107521758D01*
X157478320Y-107524273D01*
X157370147Y-107785426D01*
X157315000Y-108062665D01*
X157315000Y-108345335D01*
X157370147Y-108622574D01*
X157478320Y-108883727D01*
X157480001Y-108886243D01*
X157480000Y-111585758D01*
X157478320Y-111588273D01*
X157370147Y-111849426D01*
X157315000Y-112126665D01*
X157315000Y-112409335D01*
X157370147Y-112686574D01*
X157478320Y-112947727D01*
X157480001Y-112950243D01*
X157480000Y-115621750D01*
X153209518Y-119892233D01*
X153191853Y-119803426D01*
X153083680Y-119542273D01*
X152926637Y-119307241D01*
X152726759Y-119107363D01*
X152491727Y-118950320D01*
X152230574Y-118842147D01*
X151953335Y-118787000D01*
X151670665Y-118787000D01*
X151393426Y-118842147D01*
X151132273Y-118950320D01*
X150897241Y-119107363D01*
X150697363Y-119307241D01*
X150540320Y-119542273D01*
X150432147Y-119803426D01*
X150377000Y-120080665D01*
X150377000Y-120363335D01*
X150432147Y-120640574D01*
X150540320Y-120901727D01*
X150697363Y-121136759D01*
X150897241Y-121336637D01*
X151132273Y-121493680D01*
X151393426Y-121601853D01*
X151493430Y-121621745D01*
X151435925Y-121691815D01*
X151353962Y-121845158D01*
X151317997Y-121912444D01*
X151245376Y-122151840D01*
X151220856Y-122400803D01*
X151227000Y-122463186D01*
X151226999Y-126954751D01*
X148209518Y-129972233D01*
X148191853Y-129883426D01*
X148083680Y-129622273D01*
X147926637Y-129387241D01*
X147726759Y-129187363D01*
X147494241Y-129032000D01*
X147726759Y-128876637D01*
X147926637Y-128676759D01*
X148083680Y-128441727D01*
X148191853Y-128180574D01*
X148247000Y-127903335D01*
X148247000Y-127620665D01*
X148191853Y-127343426D01*
X148083680Y-127082273D01*
X147926637Y-126847241D01*
X147726759Y-126647363D01*
X147494241Y-126492000D01*
X147726759Y-126336637D01*
X147926637Y-126136759D01*
X148083680Y-125901727D01*
X148191853Y-125640574D01*
X148247000Y-125363335D01*
X148247000Y-125080665D01*
X148191853Y-124803426D01*
X148083680Y-124542273D01*
X147926637Y-124307241D01*
X147726759Y-124107363D01*
X147491727Y-123950320D01*
X147230574Y-123842147D01*
X146953335Y-123787000D01*
X146670665Y-123787000D01*
X146488113Y-123823312D01*
X146446999Y-123782198D01*
X146446999Y-121612509D01*
X146670665Y-121657000D01*
X146953335Y-121657000D01*
X147230574Y-121601853D01*
X147491727Y-121493680D01*
X147726759Y-121336637D01*
X147926637Y-121136759D01*
X148083680Y-120901727D01*
X148191853Y-120640574D01*
X148247000Y-120363335D01*
X148247000Y-120080665D01*
X148191853Y-119803426D01*
X148083680Y-119542273D01*
X147926637Y-119307241D01*
X147726759Y-119107363D01*
X147491727Y-118950320D01*
X147230574Y-118842147D01*
X146953335Y-118787000D01*
X146670665Y-118787000D01*
X146446999Y-118831491D01*
X146446999Y-117767000D01*
X146699335Y-117767000D01*
X146976574Y-117711853D01*
X147237727Y-117603680D01*
X147472759Y-117446637D01*
X147672637Y-117246759D01*
X147829680Y-117011727D01*
X147937853Y-116750574D01*
X147993000Y-116473335D01*
X147993000Y-116190665D01*
X152743000Y-116190665D01*
X152743000Y-116473335D01*
X152798147Y-116750574D01*
X152906320Y-117011727D01*
X153063363Y-117246759D01*
X153263241Y-117446637D01*
X153498273Y-117603680D01*
X153759426Y-117711853D01*
X154036665Y-117767000D01*
X154319335Y-117767000D01*
X154596574Y-117711853D01*
X154857727Y-117603680D01*
X155092759Y-117446637D01*
X155292637Y-117246759D01*
X155449680Y-117011727D01*
X155557853Y-116750574D01*
X155613000Y-116473335D01*
X155613000Y-116190665D01*
X155557853Y-115913426D01*
X155449680Y-115652273D01*
X155292637Y-115417241D01*
X155092759Y-115217363D01*
X154857727Y-115060320D01*
X154596574Y-114952147D01*
X154319335Y-114897000D01*
X154036665Y-114897000D01*
X153759426Y-114952147D01*
X153498273Y-115060320D01*
X153263241Y-115217363D01*
X153063363Y-115417241D01*
X152906320Y-115652273D01*
X152798147Y-115913426D01*
X152743000Y-116190665D01*
X147993000Y-116190665D01*
X147937853Y-115913426D01*
X147829680Y-115652273D01*
X147672637Y-115417241D01*
X147472759Y-115217363D01*
X147237727Y-115060320D01*
X146976574Y-114952147D01*
X146699335Y-114897000D01*
X146416665Y-114897000D01*
X146139426Y-114952147D01*
X145878273Y-115060320D01*
X145643241Y-115217363D01*
X145443363Y-115417241D01*
X145286320Y-115652273D01*
X145178147Y-115913426D01*
X145123000Y-116190665D01*
X145123000Y-116473335D01*
X145158801Y-116653314D01*
X145146998Y-116663000D01*
X145091870Y-116730175D01*
X145052025Y-116778725D01*
X145017667Y-116843004D01*
X144981453Y-116910755D01*
X144937996Y-117054016D01*
X144926999Y-117165669D01*
X144926999Y-117165679D01*
X144923323Y-117203001D01*
X144926999Y-117240324D01*
X144927000Y-123782196D01*
X142977197Y-125732000D01*
X140724178Y-125732000D01*
X140599475Y-125545368D01*
X140392632Y-125338525D01*
X140218240Y-125222000D01*
X140392632Y-125105475D01*
X140599475Y-124898632D01*
X140761990Y-124655411D01*
X140873932Y-124385158D01*
X140931000Y-124098260D01*
X140931000Y-123805740D01*
X140887210Y-123585592D01*
X141132004Y-123340798D01*
X141161002Y-123317000D01*
X141255975Y-123201275D01*
X141326547Y-123069246D01*
X141370004Y-122925985D01*
X141381001Y-122814332D01*
X141381001Y-122814323D01*
X141384677Y-122777000D01*
X141381001Y-122739677D01*
X141381001Y-112423800D01*
X141678136Y-112126665D01*
X152315000Y-112126665D01*
X152315000Y-112409335D01*
X152370147Y-112686574D01*
X152478320Y-112947727D01*
X152635363Y-113182759D01*
X152835241Y-113382637D01*
X153070273Y-113539680D01*
X153331426Y-113647853D01*
X153608665Y-113703000D01*
X153891335Y-113703000D01*
X154168574Y-113647853D01*
X154429727Y-113539680D01*
X154664759Y-113382637D01*
X154864637Y-113182759D01*
X155021680Y-112947727D01*
X155129853Y-112686574D01*
X155185000Y-112409335D01*
X155185000Y-112126665D01*
X155129853Y-111849426D01*
X155021680Y-111588273D01*
X154864637Y-111353241D01*
X154664759Y-111153363D01*
X154429727Y-110996320D01*
X154168574Y-110888147D01*
X153891335Y-110833000D01*
X153608665Y-110833000D01*
X153331426Y-110888147D01*
X153070273Y-110996320D01*
X152835241Y-111153363D01*
X152635363Y-111353241D01*
X152478320Y-111588273D01*
X152370147Y-111849426D01*
X152315000Y-112126665D01*
X141678136Y-112126665D01*
X145742137Y-108062665D01*
X152315000Y-108062665D01*
X152315000Y-108345335D01*
X152370147Y-108622574D01*
X152478320Y-108883727D01*
X152635363Y-109118759D01*
X152835241Y-109318637D01*
X153070273Y-109475680D01*
X153331426Y-109583853D01*
X153608665Y-109639000D01*
X153891335Y-109639000D01*
X154168574Y-109583853D01*
X154429727Y-109475680D01*
X154664759Y-109318637D01*
X154864637Y-109118759D01*
X155021680Y-108883727D01*
X155129853Y-108622574D01*
X155185000Y-108345335D01*
X155185000Y-108062665D01*
X155129853Y-107785426D01*
X155021680Y-107524273D01*
X154864637Y-107289241D01*
X154664759Y-107089363D01*
X154429727Y-106932320D01*
X154168574Y-106824147D01*
X153891335Y-106769000D01*
X153608665Y-106769000D01*
X153331426Y-106824147D01*
X153070273Y-106932320D01*
X152835241Y-107089363D01*
X152635363Y-107289241D01*
X152478320Y-107524273D01*
X152370147Y-107785426D01*
X152315000Y-108062665D01*
X145742137Y-108062665D01*
X148223593Y-105581210D01*
X148443740Y-105625000D01*
X148736260Y-105625000D01*
X149023158Y-105567932D01*
X149293411Y-105455990D01*
X149536632Y-105293475D01*
X149743475Y-105086632D01*
X149860000Y-104912240D01*
X149976525Y-105086632D01*
X150183368Y-105293475D01*
X150426589Y-105455990D01*
X150696842Y-105567932D01*
X150983740Y-105625000D01*
X151276260Y-105625000D01*
X151563158Y-105567932D01*
X151833411Y-105455990D01*
X152076632Y-105293475D01*
X152283475Y-105086632D01*
X152400000Y-104912240D01*
X152516525Y-105086632D01*
X152723368Y-105293475D01*
X152966589Y-105455990D01*
X153236842Y-105567932D01*
X153523740Y-105625000D01*
X153816260Y-105625000D01*
X154103158Y-105567932D01*
X154373411Y-105455990D01*
X154616632Y-105293475D01*
X154823475Y-105086632D01*
X154940000Y-104912240D01*
X155056525Y-105086632D01*
X155263368Y-105293475D01*
X155506589Y-105455990D01*
X155776842Y-105567932D01*
X156063740Y-105625000D01*
X156356260Y-105625000D01*
X156643158Y-105567932D01*
X156913411Y-105455990D01*
X157156632Y-105293475D01*
X157363475Y-105086632D01*
X157480000Y-104912240D01*
X157480001Y-104912241D01*
%TA.AperFunction,NonConductor*%
D25*
G36*
X157480001Y-104912241D02*
G01*
X157480000Y-107521758D01*
X157478320Y-107524273D01*
X157370147Y-107785426D01*
X157315000Y-108062665D01*
X157315000Y-108345335D01*
X157370147Y-108622574D01*
X157478320Y-108883727D01*
X157480001Y-108886243D01*
X157480000Y-111585758D01*
X157478320Y-111588273D01*
X157370147Y-111849426D01*
X157315000Y-112126665D01*
X157315000Y-112409335D01*
X157370147Y-112686574D01*
X157478320Y-112947727D01*
X157480001Y-112950243D01*
X157480000Y-115621750D01*
X153209518Y-119892233D01*
X153191853Y-119803426D01*
X153083680Y-119542273D01*
X152926637Y-119307241D01*
X152726759Y-119107363D01*
X152491727Y-118950320D01*
X152230574Y-118842147D01*
X151953335Y-118787000D01*
X151670665Y-118787000D01*
X151393426Y-118842147D01*
X151132273Y-118950320D01*
X150897241Y-119107363D01*
X150697363Y-119307241D01*
X150540320Y-119542273D01*
X150432147Y-119803426D01*
X150377000Y-120080665D01*
X150377000Y-120363335D01*
X150432147Y-120640574D01*
X150540320Y-120901727D01*
X150697363Y-121136759D01*
X150897241Y-121336637D01*
X151132273Y-121493680D01*
X151393426Y-121601853D01*
X151493430Y-121621745D01*
X151435925Y-121691815D01*
X151353962Y-121845158D01*
X151317997Y-121912444D01*
X151245376Y-122151840D01*
X151220856Y-122400803D01*
X151227000Y-122463186D01*
X151226999Y-126954751D01*
X148209518Y-129972233D01*
X148191853Y-129883426D01*
X148083680Y-129622273D01*
X147926637Y-129387241D01*
X147726759Y-129187363D01*
X147494241Y-129032000D01*
X147726759Y-128876637D01*
X147926637Y-128676759D01*
X148083680Y-128441727D01*
X148191853Y-128180574D01*
X148247000Y-127903335D01*
X148247000Y-127620665D01*
X148191853Y-127343426D01*
X148083680Y-127082273D01*
X147926637Y-126847241D01*
X147726759Y-126647363D01*
X147494241Y-126492000D01*
X147726759Y-126336637D01*
X147926637Y-126136759D01*
X148083680Y-125901727D01*
X148191853Y-125640574D01*
X148247000Y-125363335D01*
X148247000Y-125080665D01*
X148191853Y-124803426D01*
X148083680Y-124542273D01*
X147926637Y-124307241D01*
X147726759Y-124107363D01*
X147491727Y-123950320D01*
X147230574Y-123842147D01*
X146953335Y-123787000D01*
X146670665Y-123787000D01*
X146488113Y-123823312D01*
X146446999Y-123782198D01*
X146446999Y-121612509D01*
X146670665Y-121657000D01*
X146953335Y-121657000D01*
X147230574Y-121601853D01*
X147491727Y-121493680D01*
X147726759Y-121336637D01*
X147926637Y-121136759D01*
X148083680Y-120901727D01*
X148191853Y-120640574D01*
X148247000Y-120363335D01*
X148247000Y-120080665D01*
X148191853Y-119803426D01*
X148083680Y-119542273D01*
X147926637Y-119307241D01*
X147726759Y-119107363D01*
X147491727Y-118950320D01*
X147230574Y-118842147D01*
X146953335Y-118787000D01*
X146670665Y-118787000D01*
X146446999Y-118831491D01*
X146446999Y-117767000D01*
X146699335Y-117767000D01*
X146976574Y-117711853D01*
X147237727Y-117603680D01*
X147472759Y-117446637D01*
X147672637Y-117246759D01*
X147829680Y-117011727D01*
X147937853Y-116750574D01*
X147993000Y-116473335D01*
X147993000Y-116190665D01*
X152743000Y-116190665D01*
X152743000Y-116473335D01*
X152798147Y-116750574D01*
X152906320Y-117011727D01*
X153063363Y-117246759D01*
X153263241Y-117446637D01*
X153498273Y-117603680D01*
X153759426Y-117711853D01*
X154036665Y-117767000D01*
X154319335Y-117767000D01*
X154596574Y-117711853D01*
X154857727Y-117603680D01*
X155092759Y-117446637D01*
X155292637Y-117246759D01*
X155449680Y-117011727D01*
X155557853Y-116750574D01*
X155613000Y-116473335D01*
X155613000Y-116190665D01*
X155557853Y-115913426D01*
X155449680Y-115652273D01*
X155292637Y-115417241D01*
X155092759Y-115217363D01*
X154857727Y-115060320D01*
X154596574Y-114952147D01*
X154319335Y-114897000D01*
X154036665Y-114897000D01*
X153759426Y-114952147D01*
X153498273Y-115060320D01*
X153263241Y-115217363D01*
X153063363Y-115417241D01*
X152906320Y-115652273D01*
X152798147Y-115913426D01*
X152743000Y-116190665D01*
X147993000Y-116190665D01*
X147937853Y-115913426D01*
X147829680Y-115652273D01*
X147672637Y-115417241D01*
X147472759Y-115217363D01*
X147237727Y-115060320D01*
X146976574Y-114952147D01*
X146699335Y-114897000D01*
X146416665Y-114897000D01*
X146139426Y-114952147D01*
X145878273Y-115060320D01*
X145643241Y-115217363D01*
X145443363Y-115417241D01*
X145286320Y-115652273D01*
X145178147Y-115913426D01*
X145123000Y-116190665D01*
X145123000Y-116473335D01*
X145158801Y-116653314D01*
X145146998Y-116663000D01*
X145091870Y-116730175D01*
X145052025Y-116778725D01*
X145017667Y-116843004D01*
X144981453Y-116910755D01*
X144937996Y-117054016D01*
X144926999Y-117165669D01*
X144926999Y-117165679D01*
X144923323Y-117203001D01*
X144926999Y-117240324D01*
X144927000Y-123782196D01*
X142977197Y-125732000D01*
X140724178Y-125732000D01*
X140599475Y-125545368D01*
X140392632Y-125338525D01*
X140218240Y-125222000D01*
X140392632Y-125105475D01*
X140599475Y-124898632D01*
X140761990Y-124655411D01*
X140873932Y-124385158D01*
X140931000Y-124098260D01*
X140931000Y-123805740D01*
X140887210Y-123585592D01*
X141132004Y-123340798D01*
X141161002Y-123317000D01*
X141255975Y-123201275D01*
X141326547Y-123069246D01*
X141370004Y-122925985D01*
X141381001Y-122814332D01*
X141381001Y-122814323D01*
X141384677Y-122777000D01*
X141381001Y-122739677D01*
X141381001Y-112423800D01*
X141678136Y-112126665D01*
X152315000Y-112126665D01*
X152315000Y-112409335D01*
X152370147Y-112686574D01*
X152478320Y-112947727D01*
X152635363Y-113182759D01*
X152835241Y-113382637D01*
X153070273Y-113539680D01*
X153331426Y-113647853D01*
X153608665Y-113703000D01*
X153891335Y-113703000D01*
X154168574Y-113647853D01*
X154429727Y-113539680D01*
X154664759Y-113382637D01*
X154864637Y-113182759D01*
X155021680Y-112947727D01*
X155129853Y-112686574D01*
X155185000Y-112409335D01*
X155185000Y-112126665D01*
X155129853Y-111849426D01*
X155021680Y-111588273D01*
X154864637Y-111353241D01*
X154664759Y-111153363D01*
X154429727Y-110996320D01*
X154168574Y-110888147D01*
X153891335Y-110833000D01*
X153608665Y-110833000D01*
X153331426Y-110888147D01*
X153070273Y-110996320D01*
X152835241Y-111153363D01*
X152635363Y-111353241D01*
X152478320Y-111588273D01*
X152370147Y-111849426D01*
X152315000Y-112126665D01*
X141678136Y-112126665D01*
X145742137Y-108062665D01*
X152315000Y-108062665D01*
X152315000Y-108345335D01*
X152370147Y-108622574D01*
X152478320Y-108883727D01*
X152635363Y-109118759D01*
X152835241Y-109318637D01*
X153070273Y-109475680D01*
X153331426Y-109583853D01*
X153608665Y-109639000D01*
X153891335Y-109639000D01*
X154168574Y-109583853D01*
X154429727Y-109475680D01*
X154664759Y-109318637D01*
X154864637Y-109118759D01*
X155021680Y-108883727D01*
X155129853Y-108622574D01*
X155185000Y-108345335D01*
X155185000Y-108062665D01*
X155129853Y-107785426D01*
X155021680Y-107524273D01*
X154864637Y-107289241D01*
X154664759Y-107089363D01*
X154429727Y-106932320D01*
X154168574Y-106824147D01*
X153891335Y-106769000D01*
X153608665Y-106769000D01*
X153331426Y-106824147D01*
X153070273Y-106932320D01*
X152835241Y-107089363D01*
X152635363Y-107289241D01*
X152478320Y-107524273D01*
X152370147Y-107785426D01*
X152315000Y-108062665D01*
X145742137Y-108062665D01*
X148223593Y-105581210D01*
X148443740Y-105625000D01*
X148736260Y-105625000D01*
X149023158Y-105567932D01*
X149293411Y-105455990D01*
X149536632Y-105293475D01*
X149743475Y-105086632D01*
X149860000Y-104912240D01*
X149976525Y-105086632D01*
X150183368Y-105293475D01*
X150426589Y-105455990D01*
X150696842Y-105567932D01*
X150983740Y-105625000D01*
X151276260Y-105625000D01*
X151563158Y-105567932D01*
X151833411Y-105455990D01*
X152076632Y-105293475D01*
X152283475Y-105086632D01*
X152400000Y-104912240D01*
X152516525Y-105086632D01*
X152723368Y-105293475D01*
X152966589Y-105455990D01*
X153236842Y-105567932D01*
X153523740Y-105625000D01*
X153816260Y-105625000D01*
X154103158Y-105567932D01*
X154373411Y-105455990D01*
X154616632Y-105293475D01*
X154823475Y-105086632D01*
X154940000Y-104912240D01*
X155056525Y-105086632D01*
X155263368Y-105293475D01*
X155506589Y-105455990D01*
X155776842Y-105567932D01*
X156063740Y-105625000D01*
X156356260Y-105625000D01*
X156643158Y-105567932D01*
X156913411Y-105455990D01*
X157156632Y-105293475D01*
X157363475Y-105086632D01*
X157480000Y-104912240D01*
X157480001Y-104912241D01*
G37*
%TD.AperFunction*%
D24*
X138292525Y-127438632D02*
X138499368Y-127645475D01*
X138673760Y-127762000D01*
X138499368Y-127878525D01*
X138292525Y-128085368D01*
X138176000Y-128259760D01*
X138059475Y-128085368D01*
X137852632Y-127878525D01*
X137678240Y-127762000D01*
X137852632Y-127645475D01*
X138059475Y-127438632D01*
X138176000Y-127264240D01*
X138292525Y-127438632D01*
%TA.AperFunction,NonConductor*%
D25*
G36*
X138292525Y-127438632D02*
G01*
X138499368Y-127645475D01*
X138673760Y-127762000D01*
X138499368Y-127878525D01*
X138292525Y-128085368D01*
X138176000Y-128259760D01*
X138059475Y-128085368D01*
X137852632Y-127878525D01*
X137678240Y-127762000D01*
X137852632Y-127645475D01*
X138059475Y-127438632D01*
X138176000Y-127264240D01*
X138292525Y-127438632D01*
G37*
%TD.AperFunction*%
D24*
X135421000Y-124098260D02*
X135478068Y-124385158D01*
X135529023Y-124508175D01*
X133568072Y-126469127D01*
X133568072Y-125824729D01*
X135421000Y-123971802D01*
X135421000Y-124098260D01*
%TA.AperFunction,NonConductor*%
D25*
G36*
X135421000Y-124098260D02*
G01*
X135478068Y-124385158D01*
X135529023Y-124508175D01*
X133568072Y-126469127D01*
X133568072Y-125824729D01*
X135421000Y-123971802D01*
X135421000Y-124098260D01*
G37*
%TD.AperFunction*%
D24*
X138292525Y-124898632D02*
X138499368Y-125105475D01*
X138673760Y-125222000D01*
X138499368Y-125338525D01*
X138292525Y-125545368D01*
X138176000Y-125719760D01*
X138059475Y-125545368D01*
X137852632Y-125338525D01*
X137678240Y-125222000D01*
X137852632Y-125105475D01*
X138059475Y-124898632D01*
X138176000Y-124724240D01*
X138292525Y-124898632D01*
%TA.AperFunction,NonConductor*%
D25*
G36*
X138292525Y-124898632D02*
G01*
X138499368Y-125105475D01*
X138673760Y-125222000D01*
X138499368Y-125338525D01*
X138292525Y-125545368D01*
X138176000Y-125719760D01*
X138059475Y-125545368D01*
X137852632Y-125338525D01*
X137678240Y-125222000D01*
X137852632Y-125105475D01*
X138059475Y-124898632D01*
X138176000Y-124724240D01*
X138292525Y-124898632D01*
G37*
%TD.AperFunction*%
D24*
X138292525Y-122358632D02*
X138499368Y-122565475D01*
X138673760Y-122682000D01*
X138499368Y-122798525D01*
X138292525Y-123005368D01*
X138176000Y-123179760D01*
X138059475Y-123005368D01*
X137852632Y-122798525D01*
X137678240Y-122682000D01*
X137852632Y-122565475D01*
X138059475Y-122358632D01*
X138176000Y-122184240D01*
X138292525Y-122358632D01*
%TA.AperFunction,NonConductor*%
D25*
G36*
X138292525Y-122358632D02*
G01*
X138499368Y-122565475D01*
X138673760Y-122682000D01*
X138499368Y-122798525D01*
X138292525Y-123005368D01*
X138176000Y-123179760D01*
X138059475Y-123005368D01*
X137852632Y-122798525D01*
X137678240Y-122682000D01*
X137852632Y-122565475D01*
X138059475Y-122358632D01*
X138176000Y-122184240D01*
X138292525Y-122358632D01*
G37*
%TD.AperFunction*%
D24*
X138292525Y-117278632D02*
X138499368Y-117485475D01*
X138673760Y-117602000D01*
X138499368Y-117718525D01*
X138292525Y-117925368D01*
X138176000Y-118099760D01*
X138059475Y-117925368D01*
X137852632Y-117718525D01*
X137678240Y-117602000D01*
X137852632Y-117485475D01*
X138059475Y-117278632D01*
X138176000Y-117104240D01*
X138292525Y-117278632D01*
%TA.AperFunction,NonConductor*%
D25*
G36*
X138292525Y-117278632D02*
G01*
X138499368Y-117485475D01*
X138673760Y-117602000D01*
X138499368Y-117718525D01*
X138292525Y-117925368D01*
X138176000Y-118099760D01*
X138059475Y-117925368D01*
X137852632Y-117718525D01*
X137678240Y-117602000D01*
X137852632Y-117485475D01*
X138059475Y-117278632D01*
X138176000Y-117104240D01*
X138292525Y-117278632D01*
G37*
%TD.AperFunction*%
D24*
X138292525Y-114738632D02*
X138499368Y-114945475D01*
X138673760Y-115062000D01*
X138499368Y-115178525D01*
X138292525Y-115385368D01*
X138176000Y-115559760D01*
X138059475Y-115385368D01*
X137852632Y-115178525D01*
X137678240Y-115062000D01*
X137852632Y-114945475D01*
X138059475Y-114738632D01*
X138176000Y-114564240D01*
X138292525Y-114738632D01*
%TA.AperFunction,NonConductor*%
D25*
G36*
X138292525Y-114738632D02*
G01*
X138499368Y-114945475D01*
X138673760Y-115062000D01*
X138499368Y-115178525D01*
X138292525Y-115385368D01*
X138176000Y-115559760D01*
X138059475Y-115385368D01*
X137852632Y-115178525D01*
X137678240Y-115062000D01*
X137852632Y-114945475D01*
X138059475Y-114738632D01*
X138176000Y-114564240D01*
X138292525Y-114738632D01*
G37*
%TD.AperFunction*%
D24*
X132495001Y-115125202D02*
X131664999Y-114295200D01*
X131664999Y-105120072D01*
X132495002Y-105120072D01*
X132495001Y-115125202D01*
%TA.AperFunction,NonConductor*%
D25*
G36*
X132495001Y-115125202D02*
G01*
X131664999Y-114295200D01*
X131664999Y-105120072D01*
X132495002Y-105120072D01*
X132495001Y-115125202D01*
G37*
%TD.AperFunction*%
D24*
X130144999Y-113849844D02*
X130144078Y-113845192D01*
X130141353Y-113836389D01*
X130066408Y-113600131D01*
X130042868Y-113545209D01*
X130020048Y-113489842D01*
X130015664Y-113481736D01*
X129993734Y-113441845D01*
X130057424Y-113378155D01*
X130144999Y-113247090D01*
X130144999Y-113849844D01*
%TA.AperFunction,NonConductor*%
D25*
G36*
X130144999Y-113849844D02*
G01*
X130144078Y-113845192D01*
X130141353Y-113836389D01*
X130066408Y-113600131D01*
X130042868Y-113545209D01*
X130020048Y-113489842D01*
X130015664Y-113481736D01*
X129993734Y-113441845D01*
X130057424Y-113378155D01*
X130144999Y-113247090D01*
X130144999Y-113849844D01*
G37*
%TD.AperFunction*%
D24*
X138292525Y-112198632D02*
X138499368Y-112405475D01*
X138673760Y-112522000D01*
X138499368Y-112638525D01*
X138292525Y-112845368D01*
X138176000Y-113019760D01*
X138059475Y-112845368D01*
X137852632Y-112638525D01*
X137678240Y-112522000D01*
X137852632Y-112405475D01*
X138059475Y-112198632D01*
X138176000Y-112024240D01*
X138292525Y-112198632D01*
%TA.AperFunction,NonConductor*%
D25*
G36*
X138292525Y-112198632D02*
G01*
X138499368Y-112405475D01*
X138673760Y-112522000D01*
X138499368Y-112638525D01*
X138292525Y-112845368D01*
X138176000Y-113019760D01*
X138059475Y-112845368D01*
X137852632Y-112638525D01*
X137678240Y-112522000D01*
X137852632Y-112405475D01*
X138059475Y-112198632D01*
X138176000Y-112024240D01*
X138292525Y-112198632D01*
G37*
%TD.AperFunction*%
D24*
X144838463Y-103280263D02*
X144734010Y-103436589D01*
X144622068Y-103706842D01*
X144565000Y-103993740D01*
X144565000Y-104286260D01*
X144622068Y-104573158D01*
X144734010Y-104843411D01*
X144896525Y-105086632D01*
X145103368Y-105293475D01*
X145346589Y-105455990D01*
X145616842Y-105567932D01*
X145903740Y-105625000D01*
X146030198Y-105625000D01*
X140862927Y-110792272D01*
X140761990Y-110548589D01*
X140599475Y-110305368D01*
X140392632Y-110098525D01*
X140218240Y-109982000D01*
X140392632Y-109865475D01*
X140599475Y-109658632D01*
X140761990Y-109415411D01*
X140873932Y-109145158D01*
X140931000Y-108858260D01*
X140931000Y-108565740D01*
X140873932Y-108278842D01*
X140761990Y-108008589D01*
X140599475Y-107765368D01*
X140392632Y-107558525D01*
X140218240Y-107442000D01*
X140392632Y-107325475D01*
X140599475Y-107118632D01*
X140761990Y-106875411D01*
X140873932Y-106605158D01*
X140931000Y-106318260D01*
X140931000Y-106025740D01*
X140873932Y-105738842D01*
X140761990Y-105468589D01*
X140599475Y-105225368D01*
X140392632Y-105018525D01*
X140218240Y-104902000D01*
X140392632Y-104785475D01*
X140599475Y-104578632D01*
X140761990Y-104335411D01*
X140873932Y-104065158D01*
X140931000Y-103778260D01*
X140931000Y-103485740D01*
X140873932Y-103198842D01*
X140761990Y-102928589D01*
X140599475Y-102685368D01*
X140392632Y-102478525D01*
X140218240Y-102362000D01*
X140392632Y-102245475D01*
X140599475Y-102038632D01*
X140761990Y-101795411D01*
X140873932Y-101525158D01*
X140931000Y-101238260D01*
X140931000Y-100945740D01*
X140873932Y-100658842D01*
X140761990Y-100388589D01*
X140599475Y-100145368D01*
X140392632Y-99938525D01*
X140218240Y-99822000D01*
X140392632Y-99705475D01*
X140599475Y-99498632D01*
X140761990Y-99255411D01*
X140777110Y-99218909D01*
X144838463Y-103280263D01*
%TA.AperFunction,NonConductor*%
D25*
G36*
X144838463Y-103280263D02*
G01*
X144734010Y-103436589D01*
X144622068Y-103706842D01*
X144565000Y-103993740D01*
X144565000Y-104286260D01*
X144622068Y-104573158D01*
X144734010Y-104843411D01*
X144896525Y-105086632D01*
X145103368Y-105293475D01*
X145346589Y-105455990D01*
X145616842Y-105567932D01*
X145903740Y-105625000D01*
X146030198Y-105625000D01*
X140862927Y-110792272D01*
X140761990Y-110548589D01*
X140599475Y-110305368D01*
X140392632Y-110098525D01*
X140218240Y-109982000D01*
X140392632Y-109865475D01*
X140599475Y-109658632D01*
X140761990Y-109415411D01*
X140873932Y-109145158D01*
X140931000Y-108858260D01*
X140931000Y-108565740D01*
X140873932Y-108278842D01*
X140761990Y-108008589D01*
X140599475Y-107765368D01*
X140392632Y-107558525D01*
X140218240Y-107442000D01*
X140392632Y-107325475D01*
X140599475Y-107118632D01*
X140761990Y-106875411D01*
X140873932Y-106605158D01*
X140931000Y-106318260D01*
X140931000Y-106025740D01*
X140873932Y-105738842D01*
X140761990Y-105468589D01*
X140599475Y-105225368D01*
X140392632Y-105018525D01*
X140218240Y-104902000D01*
X140392632Y-104785475D01*
X140599475Y-104578632D01*
X140761990Y-104335411D01*
X140873932Y-104065158D01*
X140931000Y-103778260D01*
X140931000Y-103485740D01*
X140873932Y-103198842D01*
X140761990Y-102928589D01*
X140599475Y-102685368D01*
X140392632Y-102478525D01*
X140218240Y-102362000D01*
X140392632Y-102245475D01*
X140599475Y-102038632D01*
X140761990Y-101795411D01*
X140873932Y-101525158D01*
X140931000Y-101238260D01*
X140931000Y-100945740D01*
X140873932Y-100658842D01*
X140761990Y-100388589D01*
X140599475Y-100145368D01*
X140392632Y-99938525D01*
X140218240Y-99822000D01*
X140392632Y-99705475D01*
X140599475Y-99498632D01*
X140761990Y-99255411D01*
X140777110Y-99218909D01*
X144838463Y-103280263D01*
G37*
%TD.AperFunction*%
D24*
X130144999Y-110780910D02*
X130057424Y-110649845D01*
X129993063Y-110585484D01*
X130026919Y-110521809D01*
X130049707Y-110466521D01*
X130073279Y-110411525D01*
X130076003Y-110402722D01*
X130144999Y-110174197D01*
X130144999Y-110780910D01*
%TA.AperFunction,NonConductor*%
D25*
G36*
X130144999Y-110780910D02*
G01*
X130057424Y-110649845D01*
X129993063Y-110585484D01*
X130026919Y-110521809D01*
X130049707Y-110466521D01*
X130073279Y-110411525D01*
X130076003Y-110402722D01*
X130144999Y-110174197D01*
X130144999Y-110780910D01*
G37*
%TD.AperFunction*%
D24*
X138292525Y-109658632D02*
X138499368Y-109865475D01*
X138673760Y-109982000D01*
X138499368Y-110098525D01*
X138292525Y-110305368D01*
X138176000Y-110479760D01*
X138059475Y-110305368D01*
X137852632Y-110098525D01*
X137678240Y-109982000D01*
X137852632Y-109865475D01*
X138059475Y-109658632D01*
X138176000Y-109484240D01*
X138292525Y-109658632D01*
%TA.AperFunction,NonConductor*%
D25*
G36*
X138292525Y-109658632D02*
G01*
X138499368Y-109865475D01*
X138673760Y-109982000D01*
X138499368Y-110098525D01*
X138292525Y-110305368D01*
X138176000Y-110479760D01*
X138059475Y-110305368D01*
X137852632Y-110098525D01*
X137678240Y-109982000D01*
X137852632Y-109865475D01*
X138059475Y-109658632D01*
X138176000Y-109484240D01*
X138292525Y-109658632D01*
G37*
%TD.AperFunction*%
D24*
X138292525Y-107118632D02*
X138499368Y-107325475D01*
X138673760Y-107442000D01*
X138499368Y-107558525D01*
X138292525Y-107765368D01*
X138176000Y-107939760D01*
X138059475Y-107765368D01*
X137852632Y-107558525D01*
X137678240Y-107442000D01*
X137852632Y-107325475D01*
X138059475Y-107118632D01*
X138176000Y-106944240D01*
X138292525Y-107118632D01*
%TA.AperFunction,NonConductor*%
D25*
G36*
X138292525Y-107118632D02*
G01*
X138499368Y-107325475D01*
X138673760Y-107442000D01*
X138499368Y-107558525D01*
X138292525Y-107765368D01*
X138176000Y-107939760D01*
X138059475Y-107765368D01*
X137852632Y-107558525D01*
X137678240Y-107442000D01*
X137852632Y-107325475D01*
X138059475Y-107118632D01*
X138176000Y-106944240D01*
X138292525Y-107118632D01*
G37*
%TD.AperFunction*%
D24*
X138292525Y-104578632D02*
X138499368Y-104785475D01*
X138673760Y-104902000D01*
X138499368Y-105018525D01*
X138292525Y-105225368D01*
X138176000Y-105399760D01*
X138059475Y-105225368D01*
X137852632Y-105018525D01*
X137678240Y-104902000D01*
X137852632Y-104785475D01*
X138059475Y-104578632D01*
X138176000Y-104404240D01*
X138292525Y-104578632D01*
%TA.AperFunction,NonConductor*%
D25*
G36*
X138292525Y-104578632D02*
G01*
X138499368Y-104785475D01*
X138673760Y-104902000D01*
X138499368Y-105018525D01*
X138292525Y-105225368D01*
X138176000Y-105399760D01*
X138059475Y-105225368D01*
X137852632Y-105018525D01*
X137678240Y-104902000D01*
X137852632Y-104785475D01*
X138059475Y-104578632D01*
X138176000Y-104404240D01*
X138292525Y-104578632D01*
G37*
%TD.AperFunction*%
D24*
X138292525Y-102038632D02*
X138499368Y-102245475D01*
X138673760Y-102362000D01*
X138499368Y-102478525D01*
X138292525Y-102685368D01*
X138176000Y-102859760D01*
X138059475Y-102685368D01*
X137852632Y-102478525D01*
X137678240Y-102362000D01*
X137852632Y-102245475D01*
X138059475Y-102038632D01*
X138176000Y-101864240D01*
X138292525Y-102038632D01*
%TA.AperFunction,NonConductor*%
D25*
G36*
X138292525Y-102038632D02*
G01*
X138499368Y-102245475D01*
X138673760Y-102362000D01*
X138499368Y-102478525D01*
X138292525Y-102685368D01*
X138176000Y-102859760D01*
X138059475Y-102685368D01*
X137852632Y-102478525D01*
X137678240Y-102362000D01*
X137852632Y-102245475D01*
X138059475Y-102038632D01*
X138176000Y-101864240D01*
X138292525Y-102038632D01*
G37*
%TD.AperFunction*%
D24*
X138292525Y-99498632D02*
X138499368Y-99705475D01*
X138673760Y-99822000D01*
X138499368Y-99938525D01*
X138292525Y-100145368D01*
X138176000Y-100319760D01*
X138059475Y-100145368D01*
X137852632Y-99938525D01*
X137678240Y-99822000D01*
X137852632Y-99705475D01*
X138059475Y-99498632D01*
X138176000Y-99324240D01*
X138292525Y-99498632D01*
%TA.AperFunction,NonConductor*%
D25*
G36*
X138292525Y-99498632D02*
G01*
X138499368Y-99705475D01*
X138673760Y-99822000D01*
X138499368Y-99938525D01*
X138292525Y-100145368D01*
X138176000Y-100319760D01*
X138059475Y-100145368D01*
X137852632Y-99938525D01*
X137678240Y-99822000D01*
X137852632Y-99705475D01*
X138059475Y-99498632D01*
X138176000Y-99324240D01*
X138292525Y-99498632D01*
G37*
%TD.AperFunction*%
D24*
X138292525Y-96958632D02*
X138499368Y-97165475D01*
X138673760Y-97282000D01*
X138499368Y-97398525D01*
X138292525Y-97605368D01*
X138176000Y-97779760D01*
X138059475Y-97605368D01*
X137852632Y-97398525D01*
X137678240Y-97282000D01*
X137852632Y-97165475D01*
X138059475Y-96958632D01*
X138176000Y-96784240D01*
X138292525Y-96958632D01*
%TA.AperFunction,NonConductor*%
D25*
G36*
X138292525Y-96958632D02*
G01*
X138499368Y-97165475D01*
X138673760Y-97282000D01*
X138499368Y-97398525D01*
X138292525Y-97605368D01*
X138176000Y-97779760D01*
X138059475Y-97605368D01*
X137852632Y-97398525D01*
X137678240Y-97282000D01*
X137852632Y-97165475D01*
X138059475Y-96958632D01*
X138176000Y-96784240D01*
X138292525Y-96958632D01*
G37*
%TD.AperFunction*%
D24*
X138292525Y-94418632D02*
X138499368Y-94625475D01*
X138673760Y-94742000D01*
X138499368Y-94858525D01*
X138292525Y-95065368D01*
X138176000Y-95239760D01*
X138059475Y-95065368D01*
X137852632Y-94858525D01*
X137678240Y-94742000D01*
X137852632Y-94625475D01*
X138059475Y-94418632D01*
X138176000Y-94244240D01*
X138292525Y-94418632D01*
%TA.AperFunction,NonConductor*%
D25*
G36*
X138292525Y-94418632D02*
G01*
X138499368Y-94625475D01*
X138673760Y-94742000D01*
X138499368Y-94858525D01*
X138292525Y-95065368D01*
X138176000Y-95239760D01*
X138059475Y-95065368D01*
X137852632Y-94858525D01*
X137678240Y-94742000D01*
X137852632Y-94625475D01*
X138059475Y-94418632D01*
X138176000Y-94244240D01*
X138292525Y-94418632D01*
G37*
%TD.AperFunction*%
D24*
X138292525Y-91878632D02*
X138499368Y-92085475D01*
X138673760Y-92202000D01*
X138499368Y-92318525D01*
X138292525Y-92525368D01*
X138176000Y-92699760D01*
X138059475Y-92525368D01*
X137852632Y-92318525D01*
X137678240Y-92202000D01*
X137852632Y-92085475D01*
X138059475Y-91878632D01*
X138176000Y-91704240D01*
X138292525Y-91878632D01*
%TA.AperFunction,NonConductor*%
D25*
G36*
X138292525Y-91878632D02*
G01*
X138499368Y-92085475D01*
X138673760Y-92202000D01*
X138499368Y-92318525D01*
X138292525Y-92525368D01*
X138176000Y-92699760D01*
X138059475Y-92525368D01*
X137852632Y-92318525D01*
X137678240Y-92202000D01*
X137852632Y-92085475D01*
X138059475Y-91878632D01*
X138176000Y-91704240D01*
X138292525Y-91878632D01*
G37*
%TD.AperFunction*%
D24*
X138292525Y-89338632D02*
X138499368Y-89545475D01*
X138673760Y-89662000D01*
X138499368Y-89778525D01*
X138292525Y-89985368D01*
X138176000Y-90159760D01*
X138059475Y-89985368D01*
X137852632Y-89778525D01*
X137678240Y-89662000D01*
X137852632Y-89545475D01*
X138059475Y-89338632D01*
X138176000Y-89164240D01*
X138292525Y-89338632D01*
%TA.AperFunction,NonConductor*%
D25*
G36*
X138292525Y-89338632D02*
G01*
X138499368Y-89545475D01*
X138673760Y-89662000D01*
X138499368Y-89778525D01*
X138292525Y-89985368D01*
X138176000Y-90159760D01*
X138059475Y-89985368D01*
X137852632Y-89778525D01*
X137678240Y-89662000D01*
X137852632Y-89545475D01*
X138059475Y-89338632D01*
X138176000Y-89164240D01*
X138292525Y-89338632D01*
G37*
%TD.AperFunction*%
D24*
X126340000Y-141072000D02*
X112420000Y-141072000D01*
X112420000Y-128462688D01*
X112580589Y-128569990D01*
X112850842Y-128681932D01*
X113137740Y-128739000D01*
X113430260Y-128739000D01*
X113717158Y-128681932D01*
X113987411Y-128569990D01*
X114230632Y-128407475D01*
X114369107Y-128269000D01*
X117382542Y-128269000D01*
X117432402Y-128273911D01*
X117482262Y-128269000D01*
X117482265Y-128269000D01*
X117631377Y-128254314D01*
X117822705Y-128196275D01*
X117999034Y-128102025D01*
X118153588Y-127975186D01*
X118185381Y-127936446D01*
X125057067Y-121064762D01*
X125329740Y-121119000D01*
X125622260Y-121119000D01*
X125909158Y-121061932D01*
X126179411Y-120949990D01*
X126340001Y-120842687D01*
X126340000Y-141072000D01*
%TA.AperFunction,NonConductor*%
D25*
G36*
X126340000Y-141072000D02*
G01*
X112420000Y-141072000D01*
X112420000Y-128462688D01*
X112580589Y-128569990D01*
X112850842Y-128681932D01*
X113137740Y-128739000D01*
X113430260Y-128739000D01*
X113717158Y-128681932D01*
X113987411Y-128569990D01*
X114230632Y-128407475D01*
X114369107Y-128269000D01*
X117382542Y-128269000D01*
X117432402Y-128273911D01*
X117482262Y-128269000D01*
X117482265Y-128269000D01*
X117631377Y-128254314D01*
X117822705Y-128196275D01*
X117999034Y-128102025D01*
X118153588Y-127975186D01*
X118185381Y-127936446D01*
X125057067Y-121064762D01*
X125329740Y-121119000D01*
X125622260Y-121119000D01*
X125909158Y-121061932D01*
X126179411Y-120949990D01*
X126340001Y-120842687D01*
X126340000Y-141072000D01*
G37*
%TD.AperFunction*%
D24*
X117011977Y-126239000D02*
X114369107Y-126239000D01*
X114230632Y-126100525D01*
X114056240Y-125984000D01*
X114230632Y-125867475D01*
X114369107Y-125729000D01*
X117521977Y-125729000D01*
X117011977Y-126239000D01*
%TA.AperFunction,NonConductor*%
D25*
G36*
X117011977Y-126239000D02*
G01*
X114369107Y-126239000D01*
X114230632Y-126100525D01*
X114056240Y-125984000D01*
X114230632Y-125867475D01*
X114369107Y-125729000D01*
X117521977Y-125729000D01*
X117011977Y-126239000D01*
G37*
%TD.AperFunction*%
D24*
X112511760Y-125984000D02*
X112420000Y-126045312D01*
X112420000Y-125922688D01*
X112511760Y-125984000D01*
%TA.AperFunction,NonConductor*%
D25*
G36*
X112511760Y-125984000D02*
G01*
X112420000Y-126045312D01*
X112420000Y-125922688D01*
X112511760Y-125984000D01*
G37*
%TD.AperFunction*%
D24*
X117435575Y-123699000D02*
X114369107Y-123699000D01*
X114230632Y-123560525D01*
X114056240Y-123444000D01*
X114230632Y-123327475D01*
X114369107Y-123189000D01*
X117806140Y-123189000D01*
X117856000Y-123193911D01*
X117905860Y-123189000D01*
X117905863Y-123189000D01*
X117949913Y-123184661D01*
X117435575Y-123699000D01*
%TA.AperFunction,NonConductor*%
D25*
G36*
X117435575Y-123699000D02*
G01*
X114369107Y-123699000D01*
X114230632Y-123560525D01*
X114056240Y-123444000D01*
X114230632Y-123327475D01*
X114369107Y-123189000D01*
X117806140Y-123189000D01*
X117856000Y-123193911D01*
X117905860Y-123189000D01*
X117905863Y-123189000D01*
X117949913Y-123184661D01*
X117435575Y-123699000D01*
G37*
%TD.AperFunction*%
D24*
X112511760Y-123444000D02*
X112420000Y-123505312D01*
X112420000Y-123382688D01*
X112511760Y-123444000D01*
%TA.AperFunction,NonConductor*%
D25*
G36*
X112511760Y-123444000D02*
G01*
X112420000Y-123505312D01*
X112420000Y-123382688D01*
X112511760Y-123444000D01*
G37*
%TD.AperFunction*%
D24*
X116416498Y-120728180D02*
X116475463Y-120838494D01*
X116554815Y-120935185D01*
X116651506Y-121014537D01*
X116761820Y-121073502D01*
X116881518Y-121109812D01*
X117006000Y-121122072D01*
X117472503Y-121122072D01*
X117435575Y-121159000D01*
X114369107Y-121159000D01*
X114230632Y-121020525D01*
X114056240Y-120904000D01*
X114230632Y-120787475D01*
X114369107Y-120649000D01*
X116392479Y-120649000D01*
X116416498Y-120728180D01*
%TA.AperFunction,NonConductor*%
D25*
G36*
X116416498Y-120728180D02*
G01*
X116475463Y-120838494D01*
X116554815Y-120935185D01*
X116651506Y-121014537D01*
X116761820Y-121073502D01*
X116881518Y-121109812D01*
X117006000Y-121122072D01*
X117472503Y-121122072D01*
X117435575Y-121159000D01*
X114369107Y-121159000D01*
X114230632Y-121020525D01*
X114056240Y-120904000D01*
X114230632Y-120787475D01*
X114369107Y-120649000D01*
X116392479Y-120649000D01*
X116416498Y-120728180D01*
G37*
%TD.AperFunction*%
D24*
X112511760Y-120904000D02*
X112420000Y-120965312D01*
X112420000Y-120842688D01*
X112511760Y-120904000D01*
%TA.AperFunction,NonConductor*%
D25*
G36*
X112511760Y-120904000D02*
G01*
X112420000Y-120965312D01*
X112420000Y-120842688D01*
X112511760Y-120904000D01*
G37*
%TD.AperFunction*%
D24*
X126340001Y-85376419D02*
X126343274Y-85409651D01*
X126343274Y-85426137D01*
X126344237Y-85435302D01*
X126371866Y-85681618D01*
X126384297Y-85740098D01*
X126395921Y-85798808D01*
X126398647Y-85807611D01*
X126473592Y-86043869D01*
X126497146Y-86098824D01*
X126519953Y-86154158D01*
X126524336Y-86162264D01*
X126546266Y-86202155D01*
X126482576Y-86265845D01*
X126385723Y-86410795D01*
X126319010Y-86571855D01*
X126285000Y-86742835D01*
X126285000Y-86917165D01*
X126319010Y-87088145D01*
X126377768Y-87230000D01*
X126319010Y-87371855D01*
X126285000Y-87542835D01*
X126285000Y-87717165D01*
X126319010Y-87888145D01*
X126377768Y-88030000D01*
X126319010Y-88171855D01*
X126285000Y-88342835D01*
X126285000Y-88517165D01*
X126319010Y-88688145D01*
X126385723Y-88849205D01*
X126482576Y-88994155D01*
X126546937Y-89058516D01*
X126513081Y-89122191D01*
X126490298Y-89177468D01*
X126466721Y-89232475D01*
X126463997Y-89241278D01*
X126392357Y-89478559D01*
X126380736Y-89537246D01*
X126368300Y-89595752D01*
X126367337Y-89604917D01*
X126343150Y-89851595D01*
X126343150Y-89851608D01*
X126340001Y-89883581D01*
X126340000Y-109760418D01*
X126343274Y-109793660D01*
X126343274Y-109810137D01*
X126344237Y-109819302D01*
X126371866Y-110065618D01*
X126384297Y-110124098D01*
X126395921Y-110182808D01*
X126398647Y-110191611D01*
X126473592Y-110427869D01*
X126497146Y-110482824D01*
X126519953Y-110538158D01*
X126524336Y-110546264D01*
X126546266Y-110586155D01*
X126482576Y-110649845D01*
X126385723Y-110794795D01*
X126319010Y-110955855D01*
X126285000Y-111126835D01*
X126285000Y-111301165D01*
X126319010Y-111472145D01*
X126377768Y-111614000D01*
X126319010Y-111755855D01*
X126285000Y-111926835D01*
X126285000Y-112101165D01*
X126319010Y-112272145D01*
X126377768Y-112414000D01*
X126319010Y-112555855D01*
X126285000Y-112726835D01*
X126285000Y-112901165D01*
X126319010Y-113072145D01*
X126385723Y-113233205D01*
X126482576Y-113378155D01*
X126546937Y-113442516D01*
X126513081Y-113506191D01*
X126490298Y-113561468D01*
X126466721Y-113616475D01*
X126463997Y-113625278D01*
X126392357Y-113862559D01*
X126380736Y-113921246D01*
X126368300Y-113979752D01*
X126367337Y-113988917D01*
X126343150Y-114235595D01*
X126343150Y-114235608D01*
X126340001Y-114267581D01*
X126340001Y-118425313D01*
X126179411Y-118318010D01*
X125909158Y-118206068D01*
X125622260Y-118149000D01*
X125329740Y-118149000D01*
X125042842Y-118206068D01*
X124772589Y-118318010D01*
X124529368Y-118480525D01*
X124322525Y-118687368D01*
X124206000Y-118861760D01*
X124089475Y-118687368D01*
X123882632Y-118480525D01*
X123639411Y-118318010D01*
X123369158Y-118206068D01*
X123082260Y-118149000D01*
X122789740Y-118149000D01*
X122502842Y-118206068D01*
X122232589Y-118318010D01*
X121989368Y-118480525D01*
X121782525Y-118687368D01*
X121666000Y-118861760D01*
X121549475Y-118687368D01*
X121342632Y-118480525D01*
X121099411Y-118318010D01*
X120829158Y-118206068D01*
X120737575Y-118187851D01*
X125650451Y-113274975D01*
X125689186Y-113243186D01*
X125771891Y-113142410D01*
X125816025Y-113088633D01*
X125910275Y-112912304D01*
X125935247Y-112829982D01*
X125968314Y-112720975D01*
X125983000Y-112571863D01*
X125983000Y-112571861D01*
X125987911Y-112522000D01*
X125983000Y-112472139D01*
X125983000Y-87235361D01*
X125987911Y-87185500D01*
X125979696Y-87102090D01*
X125968314Y-86986525D01*
X125910275Y-86795197D01*
X125894531Y-86765742D01*
X125816025Y-86618867D01*
X125720972Y-86503045D01*
X125720970Y-86503043D01*
X125689186Y-86464314D01*
X125650457Y-86432530D01*
X123662972Y-84445047D01*
X123662972Y-84099400D01*
X123650712Y-83974918D01*
X123614402Y-83855220D01*
X123555437Y-83744906D01*
X123476085Y-83648215D01*
X123379394Y-83568863D01*
X123269080Y-83509898D01*
X123149382Y-83473588D01*
X123024900Y-83461328D01*
X122262900Y-83461328D01*
X122138418Y-83473588D01*
X122018720Y-83509898D01*
X121908406Y-83568863D01*
X121811715Y-83648215D01*
X121732363Y-83744906D01*
X121673398Y-83855220D01*
X121637088Y-83974918D01*
X121624828Y-84099400D01*
X121624828Y-84852882D01*
X121623989Y-84861400D01*
X121624828Y-84869918D01*
X121624828Y-85623400D01*
X121637088Y-85747882D01*
X121673398Y-85867580D01*
X121732363Y-85977894D01*
X121811715Y-86074585D01*
X121908406Y-86153937D01*
X122018720Y-86212902D01*
X122138418Y-86249212D01*
X122262900Y-86261472D01*
X122608546Y-86261472D01*
X123953001Y-87605928D01*
X123953000Y-112101574D01*
X117908647Y-118145928D01*
X117006000Y-118145928D01*
X116881518Y-118158188D01*
X116761820Y-118194498D01*
X116651506Y-118253463D01*
X116554815Y-118332815D01*
X116475463Y-118429506D01*
X116416498Y-118539820D01*
X116392479Y-118619000D01*
X114369107Y-118619000D01*
X114230632Y-118480525D01*
X114056240Y-118364000D01*
X114230632Y-118247475D01*
X114437475Y-118040632D01*
X114599990Y-117797411D01*
X114711932Y-117527158D01*
X114769000Y-117240260D01*
X114769000Y-117044426D01*
X115396452Y-116416974D01*
X115435187Y-116385185D01*
X115509437Y-116294712D01*
X115562026Y-116230632D01*
X115656276Y-116054303D01*
X115669784Y-116009772D01*
X115714315Y-115862974D01*
X115729001Y-115713862D01*
X115729001Y-115713860D01*
X115733912Y-115663999D01*
X115729001Y-115614138D01*
X115729001Y-96299872D01*
X118161000Y-96299872D01*
X118161000Y-96740128D01*
X118246890Y-97171925D01*
X118415369Y-97578669D01*
X118659962Y-97944729D01*
X118971271Y-98256038D01*
X119337331Y-98500631D01*
X119744075Y-98669110D01*
X120175872Y-98755000D01*
X120616128Y-98755000D01*
X121047925Y-98669110D01*
X121454669Y-98500631D01*
X121820729Y-98256038D01*
X122132038Y-97944729D01*
X122376631Y-97578669D01*
X122545110Y-97171925D01*
X122631000Y-96740128D01*
X122631000Y-96299872D01*
X122545110Y-95868075D01*
X122376631Y-95461331D01*
X122132038Y-95095271D01*
X121820729Y-94783962D01*
X121454669Y-94539369D01*
X121047925Y-94370890D01*
X120616128Y-94285000D01*
X120175872Y-94285000D01*
X119744075Y-94370890D01*
X119337331Y-94539369D01*
X118971271Y-94783962D01*
X118659962Y-95095271D01*
X118415369Y-95461331D01*
X118246890Y-95868075D01*
X118161000Y-96299872D01*
X115729001Y-96299872D01*
X115729001Y-90902926D01*
X121078451Y-85553477D01*
X121117186Y-85521688D01*
X121200585Y-85420066D01*
X121244025Y-85367135D01*
X121327396Y-85211158D01*
X121338275Y-85190805D01*
X121396314Y-84999477D01*
X121411000Y-84850365D01*
X121411000Y-84850356D01*
X121415910Y-84800503D01*
X121411000Y-84750650D01*
X121411000Y-69379161D01*
X121415911Y-69329300D01*
X121411000Y-69279437D01*
X121396314Y-69130325D01*
X121338275Y-68938997D01*
X121244025Y-68762667D01*
X121148972Y-68646845D01*
X121148970Y-68646843D01*
X121117186Y-68608114D01*
X121078457Y-68576330D01*
X119167172Y-66665047D01*
X119167172Y-66319400D01*
X121624828Y-66319400D01*
X121624828Y-67843400D01*
X121628901Y-67884754D01*
X121628900Y-74863254D01*
X121624828Y-74904600D01*
X121624828Y-76428600D01*
X121637088Y-76553082D01*
X121673398Y-76672780D01*
X121732363Y-76783094D01*
X121811715Y-76879785D01*
X121908406Y-76959137D01*
X122018720Y-77018102D01*
X122138418Y-77054412D01*
X122262900Y-77066672D01*
X123024900Y-77066672D01*
X123149382Y-77054412D01*
X123269080Y-77018102D01*
X123379394Y-76959137D01*
X123476085Y-76879785D01*
X123555437Y-76783094D01*
X123614402Y-76672780D01*
X123650712Y-76553082D01*
X123662972Y-76428600D01*
X123662972Y-74904600D01*
X123658900Y-74863255D01*
X123658900Y-67884745D01*
X123662972Y-67843400D01*
X123662972Y-66319400D01*
X123650712Y-66194918D01*
X123614402Y-66075220D01*
X123555437Y-65964906D01*
X123476085Y-65868215D01*
X123379394Y-65788863D01*
X123269080Y-65729898D01*
X123149382Y-65693588D01*
X123024900Y-65681328D01*
X122262900Y-65681328D01*
X122138418Y-65693588D01*
X122018720Y-65729898D01*
X121908406Y-65788863D01*
X121811715Y-65868215D01*
X121732363Y-65964906D01*
X121673398Y-66075220D01*
X121637088Y-66194918D01*
X121624828Y-66319400D01*
X119167172Y-66319400D01*
X119154912Y-66194918D01*
X119118602Y-66075220D01*
X119059637Y-65964906D01*
X118980285Y-65868215D01*
X118883594Y-65788863D01*
X118773280Y-65729898D01*
X118653582Y-65693588D01*
X118529100Y-65681328D01*
X117767100Y-65681328D01*
X117642618Y-65693588D01*
X117522920Y-65729898D01*
X117412606Y-65788863D01*
X117315915Y-65868215D01*
X117236563Y-65964906D01*
X117177598Y-66075220D01*
X117141288Y-66194918D01*
X117129028Y-66319400D01*
X117129028Y-67072882D01*
X117128189Y-67081400D01*
X117129028Y-67089918D01*
X117129028Y-67843400D01*
X117141288Y-67967882D01*
X117177598Y-68087580D01*
X117236563Y-68197894D01*
X117315915Y-68294585D01*
X117412606Y-68373937D01*
X117522920Y-68432902D01*
X117642618Y-68469212D01*
X117767100Y-68481472D01*
X118112746Y-68481472D01*
X119381001Y-69749728D01*
X119381000Y-84380076D01*
X119167172Y-84593904D01*
X119167172Y-84099400D01*
X119154912Y-83974918D01*
X119118602Y-83855220D01*
X119059637Y-83744906D01*
X118980285Y-83648215D01*
X118883594Y-83568863D01*
X118773280Y-83509898D01*
X118653582Y-83473588D01*
X118529100Y-83461328D01*
X117767100Y-83461328D01*
X117642618Y-83473588D01*
X117522920Y-83509898D01*
X117412606Y-83568863D01*
X117315915Y-83648215D01*
X117236563Y-83744906D01*
X117177598Y-83855220D01*
X117141288Y-83974918D01*
X117129028Y-84099400D01*
X117129028Y-84445045D01*
X112601550Y-88972525D01*
X112562815Y-89004314D01*
X112514512Y-89063172D01*
X112435975Y-89158868D01*
X112420000Y-89188755D01*
X112420000Y-74904600D01*
X117129028Y-74904600D01*
X117129028Y-76428600D01*
X117141288Y-76553082D01*
X117177598Y-76672780D01*
X117236563Y-76783094D01*
X117315915Y-76879785D01*
X117412606Y-76959137D01*
X117522920Y-77018102D01*
X117642618Y-77054412D01*
X117767100Y-77066672D01*
X118529100Y-77066672D01*
X118653582Y-77054412D01*
X118773280Y-77018102D01*
X118883594Y-76959137D01*
X118980285Y-76879785D01*
X119059637Y-76783094D01*
X119118602Y-76672780D01*
X119154912Y-76553082D01*
X119167172Y-76428600D01*
X119167172Y-74904600D01*
X119154912Y-74780118D01*
X119118602Y-74660420D01*
X119059637Y-74550106D01*
X118980285Y-74453415D01*
X118883594Y-74374063D01*
X118773280Y-74315098D01*
X118653582Y-74278788D01*
X118529100Y-74266528D01*
X117767100Y-74266528D01*
X117642618Y-74278788D01*
X117522920Y-74315098D01*
X117412606Y-74374063D01*
X117315915Y-74453415D01*
X117236563Y-74550106D01*
X117177598Y-74660420D01*
X117141288Y-74780118D01*
X117129028Y-74904600D01*
X112420000Y-74904600D01*
X112420000Y-57124600D01*
X117129028Y-57124600D01*
X117129028Y-58648600D01*
X117141288Y-58773082D01*
X117177598Y-58892780D01*
X117236563Y-59003094D01*
X117315915Y-59099785D01*
X117412606Y-59179137D01*
X117522920Y-59238102D01*
X117642618Y-59274412D01*
X117767100Y-59286672D01*
X118529100Y-59286672D01*
X118653582Y-59274412D01*
X118773280Y-59238102D01*
X118883594Y-59179137D01*
X118980285Y-59099785D01*
X119059637Y-59003094D01*
X119118602Y-58892780D01*
X119154912Y-58773082D01*
X119167172Y-58648600D01*
X119167172Y-57124600D01*
X121624828Y-57124600D01*
X121624828Y-58648600D01*
X121637088Y-58773082D01*
X121673398Y-58892780D01*
X121732363Y-59003094D01*
X121811715Y-59099785D01*
X121908406Y-59179137D01*
X122018720Y-59238102D01*
X122138418Y-59274412D01*
X122262900Y-59286672D01*
X123024900Y-59286672D01*
X123149382Y-59274412D01*
X123269080Y-59238102D01*
X123379394Y-59179137D01*
X123476085Y-59099785D01*
X123555437Y-59003094D01*
X123614402Y-58892780D01*
X123650712Y-58773082D01*
X123662972Y-58648600D01*
X123662972Y-57124600D01*
X123650712Y-57000118D01*
X123614402Y-56880420D01*
X123555437Y-56770106D01*
X123476085Y-56673415D01*
X123379394Y-56594063D01*
X123269080Y-56535098D01*
X123149382Y-56498788D01*
X123024900Y-56486528D01*
X122262900Y-56486528D01*
X122138418Y-56498788D01*
X122018720Y-56535098D01*
X121908406Y-56594063D01*
X121811715Y-56673415D01*
X121732363Y-56770106D01*
X121673398Y-56880420D01*
X121637088Y-57000118D01*
X121624828Y-57124600D01*
X119167172Y-57124600D01*
X119154912Y-57000118D01*
X119118602Y-56880420D01*
X119059637Y-56770106D01*
X118980285Y-56673415D01*
X118883594Y-56594063D01*
X118773280Y-56535098D01*
X118653582Y-56498788D01*
X118529100Y-56486528D01*
X117767100Y-56486528D01*
X117642618Y-56498788D01*
X117522920Y-56535098D01*
X117412606Y-56594063D01*
X117315915Y-56673415D01*
X117236563Y-56770106D01*
X117177598Y-56880420D01*
X117141288Y-57000118D01*
X117129028Y-57124600D01*
X112420000Y-57124600D01*
X112420000Y-52476000D01*
X126340000Y-52476000D01*
X126340001Y-85376419D01*
%TA.AperFunction,NonConductor*%
D25*
G36*
X126340001Y-85376419D02*
G01*
X126343274Y-85409651D01*
X126343274Y-85426137D01*
X126344237Y-85435302D01*
X126371866Y-85681618D01*
X126384297Y-85740098D01*
X126395921Y-85798808D01*
X126398647Y-85807611D01*
X126473592Y-86043869D01*
X126497146Y-86098824D01*
X126519953Y-86154158D01*
X126524336Y-86162264D01*
X126546266Y-86202155D01*
X126482576Y-86265845D01*
X126385723Y-86410795D01*
X126319010Y-86571855D01*
X126285000Y-86742835D01*
X126285000Y-86917165D01*
X126319010Y-87088145D01*
X126377768Y-87230000D01*
X126319010Y-87371855D01*
X126285000Y-87542835D01*
X126285000Y-87717165D01*
X126319010Y-87888145D01*
X126377768Y-88030000D01*
X126319010Y-88171855D01*
X126285000Y-88342835D01*
X126285000Y-88517165D01*
X126319010Y-88688145D01*
X126385723Y-88849205D01*
X126482576Y-88994155D01*
X126546937Y-89058516D01*
X126513081Y-89122191D01*
X126490298Y-89177468D01*
X126466721Y-89232475D01*
X126463997Y-89241278D01*
X126392357Y-89478559D01*
X126380736Y-89537246D01*
X126368300Y-89595752D01*
X126367337Y-89604917D01*
X126343150Y-89851595D01*
X126343150Y-89851608D01*
X126340001Y-89883581D01*
X126340000Y-109760418D01*
X126343274Y-109793660D01*
X126343274Y-109810137D01*
X126344237Y-109819302D01*
X126371866Y-110065618D01*
X126384297Y-110124098D01*
X126395921Y-110182808D01*
X126398647Y-110191611D01*
X126473592Y-110427869D01*
X126497146Y-110482824D01*
X126519953Y-110538158D01*
X126524336Y-110546264D01*
X126546266Y-110586155D01*
X126482576Y-110649845D01*
X126385723Y-110794795D01*
X126319010Y-110955855D01*
X126285000Y-111126835D01*
X126285000Y-111301165D01*
X126319010Y-111472145D01*
X126377768Y-111614000D01*
X126319010Y-111755855D01*
X126285000Y-111926835D01*
X126285000Y-112101165D01*
X126319010Y-112272145D01*
X126377768Y-112414000D01*
X126319010Y-112555855D01*
X126285000Y-112726835D01*
X126285000Y-112901165D01*
X126319010Y-113072145D01*
X126385723Y-113233205D01*
X126482576Y-113378155D01*
X126546937Y-113442516D01*
X126513081Y-113506191D01*
X126490298Y-113561468D01*
X126466721Y-113616475D01*
X126463997Y-113625278D01*
X126392357Y-113862559D01*
X126380736Y-113921246D01*
X126368300Y-113979752D01*
X126367337Y-113988917D01*
X126343150Y-114235595D01*
X126343150Y-114235608D01*
X126340001Y-114267581D01*
X126340001Y-118425313D01*
X126179411Y-118318010D01*
X125909158Y-118206068D01*
X125622260Y-118149000D01*
X125329740Y-118149000D01*
X125042842Y-118206068D01*
X124772589Y-118318010D01*
X124529368Y-118480525D01*
X124322525Y-118687368D01*
X124206000Y-118861760D01*
X124089475Y-118687368D01*
X123882632Y-118480525D01*
X123639411Y-118318010D01*
X123369158Y-118206068D01*
X123082260Y-118149000D01*
X122789740Y-118149000D01*
X122502842Y-118206068D01*
X122232589Y-118318010D01*
X121989368Y-118480525D01*
X121782525Y-118687368D01*
X121666000Y-118861760D01*
X121549475Y-118687368D01*
X121342632Y-118480525D01*
X121099411Y-118318010D01*
X120829158Y-118206068D01*
X120737575Y-118187851D01*
X125650451Y-113274975D01*
X125689186Y-113243186D01*
X125771891Y-113142410D01*
X125816025Y-113088633D01*
X125910275Y-112912304D01*
X125935247Y-112829982D01*
X125968314Y-112720975D01*
X125983000Y-112571863D01*
X125983000Y-112571861D01*
X125987911Y-112522000D01*
X125983000Y-112472139D01*
X125983000Y-87235361D01*
X125987911Y-87185500D01*
X125979696Y-87102090D01*
X125968314Y-86986525D01*
X125910275Y-86795197D01*
X125894531Y-86765742D01*
X125816025Y-86618867D01*
X125720972Y-86503045D01*
X125720970Y-86503043D01*
X125689186Y-86464314D01*
X125650457Y-86432530D01*
X123662972Y-84445047D01*
X123662972Y-84099400D01*
X123650712Y-83974918D01*
X123614402Y-83855220D01*
X123555437Y-83744906D01*
X123476085Y-83648215D01*
X123379394Y-83568863D01*
X123269080Y-83509898D01*
X123149382Y-83473588D01*
X123024900Y-83461328D01*
X122262900Y-83461328D01*
X122138418Y-83473588D01*
X122018720Y-83509898D01*
X121908406Y-83568863D01*
X121811715Y-83648215D01*
X121732363Y-83744906D01*
X121673398Y-83855220D01*
X121637088Y-83974918D01*
X121624828Y-84099400D01*
X121624828Y-84852882D01*
X121623989Y-84861400D01*
X121624828Y-84869918D01*
X121624828Y-85623400D01*
X121637088Y-85747882D01*
X121673398Y-85867580D01*
X121732363Y-85977894D01*
X121811715Y-86074585D01*
X121908406Y-86153937D01*
X122018720Y-86212902D01*
X122138418Y-86249212D01*
X122262900Y-86261472D01*
X122608546Y-86261472D01*
X123953001Y-87605928D01*
X123953000Y-112101574D01*
X117908647Y-118145928D01*
X117006000Y-118145928D01*
X116881518Y-118158188D01*
X116761820Y-118194498D01*
X116651506Y-118253463D01*
X116554815Y-118332815D01*
X116475463Y-118429506D01*
X116416498Y-118539820D01*
X116392479Y-118619000D01*
X114369107Y-118619000D01*
X114230632Y-118480525D01*
X114056240Y-118364000D01*
X114230632Y-118247475D01*
X114437475Y-118040632D01*
X114599990Y-117797411D01*
X114711932Y-117527158D01*
X114769000Y-117240260D01*
X114769000Y-117044426D01*
X115396452Y-116416974D01*
X115435187Y-116385185D01*
X115509437Y-116294712D01*
X115562026Y-116230632D01*
X115656276Y-116054303D01*
X115669784Y-116009772D01*
X115714315Y-115862974D01*
X115729001Y-115713862D01*
X115729001Y-115713860D01*
X115733912Y-115663999D01*
X115729001Y-115614138D01*
X115729001Y-96299872D01*
X118161000Y-96299872D01*
X118161000Y-96740128D01*
X118246890Y-97171925D01*
X118415369Y-97578669D01*
X118659962Y-97944729D01*
X118971271Y-98256038D01*
X119337331Y-98500631D01*
X119744075Y-98669110D01*
X120175872Y-98755000D01*
X120616128Y-98755000D01*
X121047925Y-98669110D01*
X121454669Y-98500631D01*
X121820729Y-98256038D01*
X122132038Y-97944729D01*
X122376631Y-97578669D01*
X122545110Y-97171925D01*
X122631000Y-96740128D01*
X122631000Y-96299872D01*
X122545110Y-95868075D01*
X122376631Y-95461331D01*
X122132038Y-95095271D01*
X121820729Y-94783962D01*
X121454669Y-94539369D01*
X121047925Y-94370890D01*
X120616128Y-94285000D01*
X120175872Y-94285000D01*
X119744075Y-94370890D01*
X119337331Y-94539369D01*
X118971271Y-94783962D01*
X118659962Y-95095271D01*
X118415369Y-95461331D01*
X118246890Y-95868075D01*
X118161000Y-96299872D01*
X115729001Y-96299872D01*
X115729001Y-90902926D01*
X121078451Y-85553477D01*
X121117186Y-85521688D01*
X121200585Y-85420066D01*
X121244025Y-85367135D01*
X121327396Y-85211158D01*
X121338275Y-85190805D01*
X121396314Y-84999477D01*
X121411000Y-84850365D01*
X121411000Y-84850356D01*
X121415910Y-84800503D01*
X121411000Y-84750650D01*
X121411000Y-69379161D01*
X121415911Y-69329300D01*
X121411000Y-69279437D01*
X121396314Y-69130325D01*
X121338275Y-68938997D01*
X121244025Y-68762667D01*
X121148972Y-68646845D01*
X121148970Y-68646843D01*
X121117186Y-68608114D01*
X121078457Y-68576330D01*
X119167172Y-66665047D01*
X119167172Y-66319400D01*
X121624828Y-66319400D01*
X121624828Y-67843400D01*
X121628901Y-67884754D01*
X121628900Y-74863254D01*
X121624828Y-74904600D01*
X121624828Y-76428600D01*
X121637088Y-76553082D01*
X121673398Y-76672780D01*
X121732363Y-76783094D01*
X121811715Y-76879785D01*
X121908406Y-76959137D01*
X122018720Y-77018102D01*
X122138418Y-77054412D01*
X122262900Y-77066672D01*
X123024900Y-77066672D01*
X123149382Y-77054412D01*
X123269080Y-77018102D01*
X123379394Y-76959137D01*
X123476085Y-76879785D01*
X123555437Y-76783094D01*
X123614402Y-76672780D01*
X123650712Y-76553082D01*
X123662972Y-76428600D01*
X123662972Y-74904600D01*
X123658900Y-74863255D01*
X123658900Y-67884745D01*
X123662972Y-67843400D01*
X123662972Y-66319400D01*
X123650712Y-66194918D01*
X123614402Y-66075220D01*
X123555437Y-65964906D01*
X123476085Y-65868215D01*
X123379394Y-65788863D01*
X123269080Y-65729898D01*
X123149382Y-65693588D01*
X123024900Y-65681328D01*
X122262900Y-65681328D01*
X122138418Y-65693588D01*
X122018720Y-65729898D01*
X121908406Y-65788863D01*
X121811715Y-65868215D01*
X121732363Y-65964906D01*
X121673398Y-66075220D01*
X121637088Y-66194918D01*
X121624828Y-66319400D01*
X119167172Y-66319400D01*
X119154912Y-66194918D01*
X119118602Y-66075220D01*
X119059637Y-65964906D01*
X118980285Y-65868215D01*
X118883594Y-65788863D01*
X118773280Y-65729898D01*
X118653582Y-65693588D01*
X118529100Y-65681328D01*
X117767100Y-65681328D01*
X117642618Y-65693588D01*
X117522920Y-65729898D01*
X117412606Y-65788863D01*
X117315915Y-65868215D01*
X117236563Y-65964906D01*
X117177598Y-66075220D01*
X117141288Y-66194918D01*
X117129028Y-66319400D01*
X117129028Y-67072882D01*
X117128189Y-67081400D01*
X117129028Y-67089918D01*
X117129028Y-67843400D01*
X117141288Y-67967882D01*
X117177598Y-68087580D01*
X117236563Y-68197894D01*
X117315915Y-68294585D01*
X117412606Y-68373937D01*
X117522920Y-68432902D01*
X117642618Y-68469212D01*
X117767100Y-68481472D01*
X118112746Y-68481472D01*
X119381001Y-69749728D01*
X119381000Y-84380076D01*
X119167172Y-84593904D01*
X119167172Y-84099400D01*
X119154912Y-83974918D01*
X119118602Y-83855220D01*
X119059637Y-83744906D01*
X118980285Y-83648215D01*
X118883594Y-83568863D01*
X118773280Y-83509898D01*
X118653582Y-83473588D01*
X118529100Y-83461328D01*
X117767100Y-83461328D01*
X117642618Y-83473588D01*
X117522920Y-83509898D01*
X117412606Y-83568863D01*
X117315915Y-83648215D01*
X117236563Y-83744906D01*
X117177598Y-83855220D01*
X117141288Y-83974918D01*
X117129028Y-84099400D01*
X117129028Y-84445045D01*
X112601550Y-88972525D01*
X112562815Y-89004314D01*
X112514512Y-89063172D01*
X112435975Y-89158868D01*
X112420000Y-89188755D01*
X112420000Y-74904600D01*
X117129028Y-74904600D01*
X117129028Y-76428600D01*
X117141288Y-76553082D01*
X117177598Y-76672780D01*
X117236563Y-76783094D01*
X117315915Y-76879785D01*
X117412606Y-76959137D01*
X117522920Y-77018102D01*
X117642618Y-77054412D01*
X117767100Y-77066672D01*
X118529100Y-77066672D01*
X118653582Y-77054412D01*
X118773280Y-77018102D01*
X118883594Y-76959137D01*
X118980285Y-76879785D01*
X119059637Y-76783094D01*
X119118602Y-76672780D01*
X119154912Y-76553082D01*
X119167172Y-76428600D01*
X119167172Y-74904600D01*
X119154912Y-74780118D01*
X119118602Y-74660420D01*
X119059637Y-74550106D01*
X118980285Y-74453415D01*
X118883594Y-74374063D01*
X118773280Y-74315098D01*
X118653582Y-74278788D01*
X118529100Y-74266528D01*
X117767100Y-74266528D01*
X117642618Y-74278788D01*
X117522920Y-74315098D01*
X117412606Y-74374063D01*
X117315915Y-74453415D01*
X117236563Y-74550106D01*
X117177598Y-74660420D01*
X117141288Y-74780118D01*
X117129028Y-74904600D01*
X112420000Y-74904600D01*
X112420000Y-57124600D01*
X117129028Y-57124600D01*
X117129028Y-58648600D01*
X117141288Y-58773082D01*
X117177598Y-58892780D01*
X117236563Y-59003094D01*
X117315915Y-59099785D01*
X117412606Y-59179137D01*
X117522920Y-59238102D01*
X117642618Y-59274412D01*
X117767100Y-59286672D01*
X118529100Y-59286672D01*
X118653582Y-59274412D01*
X118773280Y-59238102D01*
X118883594Y-59179137D01*
X118980285Y-59099785D01*
X119059637Y-59003094D01*
X119118602Y-58892780D01*
X119154912Y-58773082D01*
X119167172Y-58648600D01*
X119167172Y-57124600D01*
X121624828Y-57124600D01*
X121624828Y-58648600D01*
X121637088Y-58773082D01*
X121673398Y-58892780D01*
X121732363Y-59003094D01*
X121811715Y-59099785D01*
X121908406Y-59179137D01*
X122018720Y-59238102D01*
X122138418Y-59274412D01*
X122262900Y-59286672D01*
X123024900Y-59286672D01*
X123149382Y-59274412D01*
X123269080Y-59238102D01*
X123379394Y-59179137D01*
X123476085Y-59099785D01*
X123555437Y-59003094D01*
X123614402Y-58892780D01*
X123650712Y-58773082D01*
X123662972Y-58648600D01*
X123662972Y-57124600D01*
X123650712Y-57000118D01*
X123614402Y-56880420D01*
X123555437Y-56770106D01*
X123476085Y-56673415D01*
X123379394Y-56594063D01*
X123269080Y-56535098D01*
X123149382Y-56498788D01*
X123024900Y-56486528D01*
X122262900Y-56486528D01*
X122138418Y-56498788D01*
X122018720Y-56535098D01*
X121908406Y-56594063D01*
X121811715Y-56673415D01*
X121732363Y-56770106D01*
X121673398Y-56880420D01*
X121637088Y-57000118D01*
X121624828Y-57124600D01*
X119167172Y-57124600D01*
X119154912Y-57000118D01*
X119118602Y-56880420D01*
X119059637Y-56770106D01*
X118980285Y-56673415D01*
X118883594Y-56594063D01*
X118773280Y-56535098D01*
X118653582Y-56498788D01*
X118529100Y-56486528D01*
X117767100Y-56486528D01*
X117642618Y-56498788D01*
X117522920Y-56535098D01*
X117412606Y-56594063D01*
X117315915Y-56673415D01*
X117236563Y-56770106D01*
X117177598Y-56880420D01*
X117141288Y-57000118D01*
X117129028Y-57124600D01*
X112420000Y-57124600D01*
X112420000Y-52476000D01*
X126340000Y-52476000D01*
X126340001Y-85376419D01*
G37*
%TD.AperFunction*%
D24*
X112511760Y-118364000D02*
X112420000Y-118425312D01*
X112420000Y-118302688D01*
X112511760Y-118364000D01*
%TA.AperFunction,NonConductor*%
D25*
G36*
X112511760Y-118364000D02*
G01*
X112420000Y-118425312D01*
X112420000Y-118302688D01*
X112511760Y-118364000D01*
G37*
%TD.AperFunction*%
M02*
