%TF.GenerationSoftware,KiCad,Pcbnew,5.99.0+really5.1.10+dfsg1-1*%
%TF.CreationDate,2021-10-07T20:27:13+11:00*%
%TF.ProjectId,minisynth32,6d696e69-7379-46e7-9468-33322e6b6963,1.2-2.0*%
%TF.SameCoordinates,Original*%
%TF.FileFunction,Profile,NP*%
%FSLAX46Y46*%
G04 Gerber Fmt 4.6, Leading zero omitted, Abs format (unit mm)*
G04 Created by KiCad (PCBNEW 5.99.0+really5.1.10+dfsg1-1) date 2021-10-07 20:27:13*
%MOMM*%
%LPD*%
G01*
G04 APERTURE LIST*
%TA.AperFunction,Profile*%
%ADD10C,0.050000*%
%TD*%
G04 APERTURE END LIST*
D10*
X120730000Y-136000000D02*
G75*
G02*
X122000000Y-137270000I0J-1270000D01*
G01*
X115000000Y-137270000D02*
G75*
G02*
X116270000Y-136000000I1270000J0D01*
G01*
X116270000Y-136000000D02*
X120730000Y-136000000D01*
X122000000Y-140000000D02*
X122000000Y-137270000D01*
X115000000Y-140000000D02*
X115000000Y-137270000D01*
X110000000Y-140000000D02*
X115000000Y-140000000D01*
X129540000Y-88265000D02*
G75*
G02*
X127000000Y-88265000I-1270000J-127000D01*
G01*
X127000000Y-92964000D02*
G75*
G02*
X129540000Y-92964000I1270000J0D01*
G01*
X129540000Y-109728000D02*
G75*
G02*
X127000000Y-109728000I-1270000J0D01*
G01*
X127000000Y-114300000D02*
G75*
G02*
X129540000Y-114300000I1270000J0D01*
G01*
X129540000Y-114300000D02*
X129540000Y-140000000D01*
X127000000Y-140000000D02*
X127000000Y-114300000D01*
X127000000Y-109728000D02*
X127000000Y-92964000D01*
X129540000Y-92964000D02*
X129540000Y-109728000D01*
X132588000Y-55880000D02*
X132588000Y-43800000D01*
X129540000Y-88265000D02*
X129540000Y-85852000D01*
X127000000Y-43800000D02*
X127000000Y-88265000D01*
X139954000Y-84582000D02*
X139954000Y-57150000D01*
X138684000Y-55880000D02*
G75*
G02*
X139954000Y-57150000I0J-1270000D01*
G01*
X138684000Y-85852000D02*
X129540000Y-85852000D01*
X139954000Y-84582000D02*
G75*
G02*
X138684000Y-85852000I-1270000J0D01*
G01*
X138684000Y-55880000D02*
X132588000Y-55880000D01*
X122000000Y-140000000D02*
X127000000Y-140000000D01*
X110000000Y-43800000D02*
X110000000Y-140000000D01*
X127000000Y-43800000D02*
X110000000Y-43800000D01*
X161290000Y-43800000D02*
X132588000Y-43800000D01*
X161290000Y-140000000D02*
X161290000Y-43800000D01*
X129540000Y-140000000D02*
X161290000Y-140000000D01*
M02*
