%TF.GenerationSoftware,KiCad,Pcbnew,5.99.0+really5.1.9+dfsg1-1*%
%TF.CreationDate,2021-05-15T22:05:00+10:00*%
%TF.ProjectId,minisynth32,6d696e69-7379-46e7-9468-33322e6b6963,1.1*%
%TF.SameCoordinates,Original*%
%TF.FileFunction,Legend,Bot*%
%TF.FilePolarity,Positive*%
%FSLAX46Y46*%
G04 Gerber Fmt 4.6, Leading zero omitted, Abs format (unit mm)*
G04 Created by KiCad (PCBNEW 5.99.0+really5.1.9+dfsg1-1) date 2021-05-15 22:05:00*
%MOMM*%
%LPD*%
G01*
G04 APERTURE LIST*
%ADD10C,0.150000*%
%ADD11C,0.120000*%
G04 APERTURE END LIST*
D10*
X131627619Y-92924000D02*
X132103809Y-93257333D01*
X131627619Y-93495428D02*
X132627619Y-93495428D01*
X132627619Y-93114476D01*
X132580000Y-93019238D01*
X132532380Y-92971619D01*
X132437142Y-92924000D01*
X132294285Y-92924000D01*
X132199047Y-92971619D01*
X132151428Y-93019238D01*
X132103809Y-93114476D01*
X132103809Y-93495428D01*
X132627619Y-92304952D02*
X132627619Y-92114476D01*
X132580000Y-92019238D01*
X132484761Y-91924000D01*
X132294285Y-91876380D01*
X131960952Y-91876380D01*
X131770476Y-91924000D01*
X131675238Y-92019238D01*
X131627619Y-92114476D01*
X131627619Y-92304952D01*
X131675238Y-92400190D01*
X131770476Y-92495428D01*
X131960952Y-92543047D01*
X132294285Y-92543047D01*
X132484761Y-92495428D01*
X132580000Y-92400190D01*
X132627619Y-92304952D01*
X132627619Y-91590666D02*
X132627619Y-91019238D01*
X131627619Y-91304952D02*
X132627619Y-91304952D01*
X131532380Y-90924000D02*
X131532380Y-90162095D01*
X131627619Y-89924000D02*
X132627619Y-89924000D01*
X132151428Y-89924000D02*
X132151428Y-89352571D01*
X131627619Y-89352571D02*
X132627619Y-89352571D01*
X131627619Y-88876380D02*
X132627619Y-88876380D01*
X132627619Y-88638285D01*
X132580000Y-88495428D01*
X132484761Y-88400190D01*
X132389523Y-88352571D01*
X132199047Y-88304952D01*
X132056190Y-88304952D01*
X131865714Y-88352571D01*
X131770476Y-88400190D01*
X131675238Y-88495428D01*
X131627619Y-88638285D01*
X131627619Y-88876380D01*
X131627619Y-87304952D02*
X132103809Y-87638285D01*
X131627619Y-87876380D02*
X132627619Y-87876380D01*
X132627619Y-87495428D01*
X132580000Y-87400190D01*
X132532380Y-87352571D01*
X132437142Y-87304952D01*
X132294285Y-87304952D01*
X132199047Y-87352571D01*
X132151428Y-87400190D01*
X132103809Y-87495428D01*
X132103809Y-87876380D01*
D11*
X133604000Y-134620000D02*
X133096000Y-134112000D01*
X133604000Y-135890000D02*
X133604000Y-134620000D01*
X133858000Y-136144000D02*
X133604000Y-135890000D01*
X133604000Y-132080000D02*
X133096000Y-131572000D01*
X133604000Y-132334000D02*
X133604000Y-132080000D01*
X133858000Y-132588000D02*
X133604000Y-132334000D01*
D10*
X147486380Y-133802380D02*
X147486380Y-132802380D01*
X147153047Y-133516666D01*
X146819714Y-132802380D01*
X146819714Y-133802380D01*
X146343523Y-133802380D02*
X146343523Y-132802380D01*
X145867333Y-133802380D02*
X145867333Y-132802380D01*
X145629238Y-132802380D01*
X145486380Y-132850000D01*
X145391142Y-132945238D01*
X145343523Y-133040476D01*
X145295904Y-133230952D01*
X145295904Y-133373809D01*
X145343523Y-133564285D01*
X145391142Y-133659523D01*
X145486380Y-133754761D01*
X145629238Y-133802380D01*
X145867333Y-133802380D01*
X144867333Y-133802380D02*
X144867333Y-132802380D01*
X144629238Y-133897619D02*
X143867333Y-133897619D01*
X143629238Y-133802380D02*
X143629238Y-132802380D01*
X143153047Y-133802380D02*
X143153047Y-132802380D01*
X142581619Y-133802380D01*
X142581619Y-132802380D01*
X132151428Y-118371619D02*
X132151428Y-118704952D01*
X131627619Y-118704952D02*
X132627619Y-118704952D01*
X132627619Y-118228761D01*
X131532380Y-118085904D02*
X131532380Y-117324000D01*
X131627619Y-117085904D02*
X132627619Y-117085904D01*
X132627619Y-116704952D01*
X132580000Y-116609714D01*
X132532380Y-116562095D01*
X132437142Y-116514476D01*
X132294285Y-116514476D01*
X132199047Y-116562095D01*
X132151428Y-116609714D01*
X132103809Y-116704952D01*
X132103809Y-117085904D01*
X131913333Y-116133523D02*
X131913333Y-115657333D01*
X131627619Y-116228761D02*
X132627619Y-115895428D01*
X131627619Y-115562095D01*
X131627619Y-115228761D02*
X132627619Y-115228761D01*
X131627619Y-114657333D01*
X132627619Y-114657333D01*
X132151428Y-114181142D02*
X132151428Y-113847809D01*
X131627619Y-113704952D02*
X131627619Y-114181142D01*
X132627619Y-114181142D01*
X132627619Y-113704952D01*
X131627619Y-112800190D02*
X131627619Y-113276380D01*
X132627619Y-113276380D01*
X159185619Y-100248404D02*
X160185619Y-100248404D01*
X159471333Y-99915071D01*
X160185619Y-99581738D01*
X159185619Y-99581738D01*
X159185619Y-99105547D02*
X159852285Y-99105547D01*
X160185619Y-99105547D02*
X160138000Y-99153166D01*
X160090380Y-99105547D01*
X160138000Y-99057928D01*
X160185619Y-99105547D01*
X160090380Y-99105547D01*
X159852285Y-98629357D02*
X159185619Y-98629357D01*
X159757047Y-98629357D02*
X159804666Y-98581738D01*
X159852285Y-98486500D01*
X159852285Y-98343642D01*
X159804666Y-98248404D01*
X159709428Y-98200785D01*
X159185619Y-98200785D01*
X159185619Y-97724595D02*
X159852285Y-97724595D01*
X160185619Y-97724595D02*
X160138000Y-97772214D01*
X160090380Y-97724595D01*
X160138000Y-97676976D01*
X160185619Y-97724595D01*
X160090380Y-97724595D01*
X159233238Y-97296023D02*
X159185619Y-97200785D01*
X159185619Y-97010309D01*
X159233238Y-96915071D01*
X159328476Y-96867452D01*
X159376095Y-96867452D01*
X159471333Y-96915071D01*
X159518952Y-97010309D01*
X159518952Y-97153166D01*
X159566571Y-97248404D01*
X159661809Y-97296023D01*
X159709428Y-97296023D01*
X159804666Y-97248404D01*
X159852285Y-97153166D01*
X159852285Y-97010309D01*
X159804666Y-96915071D01*
X159852285Y-96534119D02*
X159185619Y-96296023D01*
X159852285Y-96057928D02*
X159185619Y-96296023D01*
X158947523Y-96391261D01*
X158899904Y-96438880D01*
X158852285Y-96534119D01*
X159852285Y-95676976D02*
X159185619Y-95676976D01*
X159757047Y-95676976D02*
X159804666Y-95629357D01*
X159852285Y-95534119D01*
X159852285Y-95391261D01*
X159804666Y-95296023D01*
X159709428Y-95248404D01*
X159185619Y-95248404D01*
X159852285Y-94915071D02*
X159852285Y-94534119D01*
X160185619Y-94772214D02*
X159328476Y-94772214D01*
X159233238Y-94724595D01*
X159185619Y-94629357D01*
X159185619Y-94534119D01*
X159185619Y-94200785D02*
X160185619Y-94200785D01*
X159185619Y-93772214D02*
X159709428Y-93772214D01*
X159804666Y-93819833D01*
X159852285Y-93915071D01*
X159852285Y-94057928D01*
X159804666Y-94153166D01*
X159757047Y-94200785D01*
X160185619Y-92629357D02*
X160185619Y-92010309D01*
X159804666Y-92343642D01*
X159804666Y-92200785D01*
X159757047Y-92105547D01*
X159709428Y-92057928D01*
X159614190Y-92010309D01*
X159376095Y-92010309D01*
X159280857Y-92057928D01*
X159233238Y-92105547D01*
X159185619Y-92200785D01*
X159185619Y-92486500D01*
X159233238Y-92581738D01*
X159280857Y-92629357D01*
X160090380Y-91629357D02*
X160138000Y-91581738D01*
X160185619Y-91486500D01*
X160185619Y-91248404D01*
X160138000Y-91153166D01*
X160090380Y-91105547D01*
X159995142Y-91057928D01*
X159899904Y-91057928D01*
X159757047Y-91105547D01*
X159185619Y-91676976D01*
X159185619Y-91057928D01*
X159280857Y-90629357D02*
X159233238Y-90581738D01*
X159185619Y-90629357D01*
X159233238Y-90676976D01*
X159280857Y-90629357D01*
X159185619Y-90629357D01*
X159804666Y-90629357D02*
X159757047Y-90581738D01*
X159709428Y-90629357D01*
X159757047Y-90676976D01*
X159804666Y-90629357D01*
X159709428Y-90629357D01*
X159185619Y-88819833D02*
X159661809Y-89153166D01*
X159185619Y-89391261D02*
X160185619Y-89391261D01*
X160185619Y-89010309D01*
X160138000Y-88915071D01*
X160090380Y-88867452D01*
X159995142Y-88819833D01*
X159852285Y-88819833D01*
X159757047Y-88867452D01*
X159709428Y-88915071D01*
X159661809Y-89010309D01*
X159661809Y-89391261D01*
X159233238Y-88010309D02*
X159185619Y-88105547D01*
X159185619Y-88296023D01*
X159233238Y-88391261D01*
X159328476Y-88438880D01*
X159709428Y-88438880D01*
X159804666Y-88391261D01*
X159852285Y-88296023D01*
X159852285Y-88105547D01*
X159804666Y-88010309D01*
X159709428Y-87962690D01*
X159614190Y-87962690D01*
X159518952Y-88438880D01*
X159185619Y-87105547D02*
X159709428Y-87105547D01*
X159804666Y-87153166D01*
X159852285Y-87248404D01*
X159852285Y-87438880D01*
X159804666Y-87534119D01*
X159233238Y-87105547D02*
X159185619Y-87200785D01*
X159185619Y-87438880D01*
X159233238Y-87534119D01*
X159328476Y-87581738D01*
X159423714Y-87581738D01*
X159518952Y-87534119D01*
X159566571Y-87438880D01*
X159566571Y-87200785D01*
X159614190Y-87105547D01*
X159185619Y-86629357D02*
X159852285Y-86629357D01*
X159661809Y-86629357D02*
X159757047Y-86581738D01*
X159804666Y-86534119D01*
X159852285Y-86438880D01*
X159852285Y-86343642D01*
X159852285Y-85248404D02*
X158852285Y-85248404D01*
X159804666Y-85248404D02*
X159852285Y-85153166D01*
X159852285Y-84962690D01*
X159804666Y-84867452D01*
X159757047Y-84819833D01*
X159661809Y-84772214D01*
X159376095Y-84772214D01*
X159280857Y-84819833D01*
X159233238Y-84867452D01*
X159185619Y-84962690D01*
X159185619Y-85153166D01*
X159233238Y-85248404D01*
X159185619Y-83915071D02*
X159709428Y-83915071D01*
X159804666Y-83962690D01*
X159852285Y-84057928D01*
X159852285Y-84248404D01*
X159804666Y-84343642D01*
X159233238Y-83915071D02*
X159185619Y-84010309D01*
X159185619Y-84248404D01*
X159233238Y-84343642D01*
X159328476Y-84391261D01*
X159423714Y-84391261D01*
X159518952Y-84343642D01*
X159566571Y-84248404D01*
X159566571Y-84010309D01*
X159614190Y-83915071D01*
X159852285Y-83438880D02*
X159185619Y-83438880D01*
X159757047Y-83438880D02*
X159804666Y-83391261D01*
X159852285Y-83296023D01*
X159852285Y-83153166D01*
X159804666Y-83057928D01*
X159709428Y-83010309D01*
X159185619Y-83010309D01*
X159233238Y-82153166D02*
X159185619Y-82248404D01*
X159185619Y-82438880D01*
X159233238Y-82534119D01*
X159328476Y-82581738D01*
X159709428Y-82581738D01*
X159804666Y-82534119D01*
X159852285Y-82438880D01*
X159852285Y-82248404D01*
X159804666Y-82153166D01*
X159709428Y-82105547D01*
X159614190Y-82105547D01*
X159518952Y-82581738D01*
X159185619Y-81534119D02*
X159233238Y-81629357D01*
X159328476Y-81676976D01*
X160185619Y-81676976D01*
X159185619Y-80391261D02*
X160185619Y-80391261D01*
X159804666Y-80391261D02*
X159852285Y-80296023D01*
X159852285Y-80105547D01*
X159804666Y-80010309D01*
X159757047Y-79962690D01*
X159661809Y-79915071D01*
X159376095Y-79915071D01*
X159280857Y-79962690D01*
X159233238Y-80010309D01*
X159185619Y-80105547D01*
X159185619Y-80296023D01*
X159233238Y-80391261D01*
X159185619Y-79486500D02*
X159852285Y-79486500D01*
X159661809Y-79486500D02*
X159757047Y-79438880D01*
X159804666Y-79391261D01*
X159852285Y-79296023D01*
X159852285Y-79200785D01*
X159233238Y-78486500D02*
X159185619Y-78581738D01*
X159185619Y-78772214D01*
X159233238Y-78867452D01*
X159328476Y-78915071D01*
X159709428Y-78915071D01*
X159804666Y-78867452D01*
X159852285Y-78772214D01*
X159852285Y-78581738D01*
X159804666Y-78486500D01*
X159709428Y-78438880D01*
X159614190Y-78438880D01*
X159518952Y-78915071D01*
X159185619Y-77581738D02*
X159709428Y-77581738D01*
X159804666Y-77629357D01*
X159852285Y-77724595D01*
X159852285Y-77915071D01*
X159804666Y-78010309D01*
X159233238Y-77581738D02*
X159185619Y-77676976D01*
X159185619Y-77915071D01*
X159233238Y-78010309D01*
X159328476Y-78057928D01*
X159423714Y-78057928D01*
X159518952Y-78010309D01*
X159566571Y-77915071D01*
X159566571Y-77676976D01*
X159614190Y-77581738D01*
X159185619Y-77105547D02*
X160185619Y-77105547D01*
X159566571Y-77010309D02*
X159185619Y-76724595D01*
X159852285Y-76724595D02*
X159471333Y-77105547D01*
X159185619Y-76153166D02*
X159233238Y-76248404D01*
X159280857Y-76296023D01*
X159376095Y-76343642D01*
X159661809Y-76343642D01*
X159757047Y-76296023D01*
X159804666Y-76248404D01*
X159852285Y-76153166D01*
X159852285Y-76010309D01*
X159804666Y-75915071D01*
X159757047Y-75867452D01*
X159661809Y-75819833D01*
X159376095Y-75819833D01*
X159280857Y-75867452D01*
X159233238Y-75915071D01*
X159185619Y-76010309D01*
X159185619Y-76153166D01*
X159852285Y-74962690D02*
X159185619Y-74962690D01*
X159852285Y-75391261D02*
X159328476Y-75391261D01*
X159233238Y-75343642D01*
X159185619Y-75248404D01*
X159185619Y-75105547D01*
X159233238Y-75010309D01*
X159280857Y-74962690D01*
X159852285Y-74629357D02*
X159852285Y-74248404D01*
X160185619Y-74486500D02*
X159328476Y-74486500D01*
X159233238Y-74438880D01*
X159185619Y-74343642D01*
X159185619Y-74248404D01*
X159185619Y-73153166D02*
X160185619Y-73153166D01*
X159804666Y-73153166D02*
X159852285Y-73057928D01*
X159852285Y-72867452D01*
X159804666Y-72772214D01*
X159757047Y-72724595D01*
X159661809Y-72676976D01*
X159376095Y-72676976D01*
X159280857Y-72724595D01*
X159233238Y-72772214D01*
X159185619Y-72867452D01*
X159185619Y-73057928D01*
X159233238Y-73153166D01*
X159185619Y-72105547D02*
X159233238Y-72200785D01*
X159280857Y-72248404D01*
X159376095Y-72296023D01*
X159661809Y-72296023D01*
X159757047Y-72248404D01*
X159804666Y-72200785D01*
X159852285Y-72105547D01*
X159852285Y-71962690D01*
X159804666Y-71867452D01*
X159757047Y-71819833D01*
X159661809Y-71772214D01*
X159376095Y-71772214D01*
X159280857Y-71819833D01*
X159233238Y-71867452D01*
X159185619Y-71962690D01*
X159185619Y-72105547D01*
X159185619Y-70915071D02*
X159709428Y-70915071D01*
X159804666Y-70962690D01*
X159852285Y-71057928D01*
X159852285Y-71248404D01*
X159804666Y-71343642D01*
X159233238Y-70915071D02*
X159185619Y-71010309D01*
X159185619Y-71248404D01*
X159233238Y-71343642D01*
X159328476Y-71391261D01*
X159423714Y-71391261D01*
X159518952Y-71343642D01*
X159566571Y-71248404D01*
X159566571Y-71010309D01*
X159614190Y-70915071D01*
X159185619Y-70438880D02*
X159852285Y-70438880D01*
X159661809Y-70438880D02*
X159757047Y-70391261D01*
X159804666Y-70343642D01*
X159852285Y-70248404D01*
X159852285Y-70153166D01*
X159185619Y-69391261D02*
X160185619Y-69391261D01*
X159233238Y-69391261D02*
X159185619Y-69486500D01*
X159185619Y-69676976D01*
X159233238Y-69772214D01*
X159280857Y-69819833D01*
X159376095Y-69867452D01*
X159661809Y-69867452D01*
X159757047Y-69819833D01*
X159804666Y-69772214D01*
X159852285Y-69676976D01*
X159852285Y-69486500D01*
X159804666Y-69391261D01*
X157535619Y-100248404D02*
X158535619Y-100248404D01*
X157535619Y-99819833D02*
X158059428Y-99819833D01*
X158154666Y-99867452D01*
X158202285Y-99962690D01*
X158202285Y-100105547D01*
X158154666Y-100200785D01*
X158107047Y-100248404D01*
X158202285Y-99486500D02*
X158202285Y-99105547D01*
X158535619Y-99343642D02*
X157678476Y-99343642D01*
X157583238Y-99296023D01*
X157535619Y-99200785D01*
X157535619Y-99105547D01*
X158202285Y-98915071D02*
X158202285Y-98534119D01*
X158535619Y-98772214D02*
X157678476Y-98772214D01*
X157583238Y-98724595D01*
X157535619Y-98629357D01*
X157535619Y-98534119D01*
X158202285Y-98200785D02*
X157202285Y-98200785D01*
X158154666Y-98200785D02*
X158202285Y-98105547D01*
X158202285Y-97915071D01*
X158154666Y-97819833D01*
X158107047Y-97772214D01*
X158011809Y-97724595D01*
X157726095Y-97724595D01*
X157630857Y-97772214D01*
X157583238Y-97819833D01*
X157535619Y-97915071D01*
X157535619Y-98105547D01*
X157583238Y-98200785D01*
X157583238Y-97343642D02*
X157535619Y-97248404D01*
X157535619Y-97057928D01*
X157583238Y-96962690D01*
X157678476Y-96915071D01*
X157726095Y-96915071D01*
X157821333Y-96962690D01*
X157868952Y-97057928D01*
X157868952Y-97200785D01*
X157916571Y-97296023D01*
X158011809Y-97343642D01*
X158059428Y-97343642D01*
X158154666Y-97296023D01*
X158202285Y-97200785D01*
X158202285Y-97057928D01*
X158154666Y-96962690D01*
X157630857Y-96486500D02*
X157583238Y-96438880D01*
X157535619Y-96486500D01*
X157583238Y-96534119D01*
X157630857Y-96486500D01*
X157535619Y-96486500D01*
X158154666Y-96486500D02*
X158107047Y-96438880D01*
X158059428Y-96486500D01*
X158107047Y-96534119D01*
X158154666Y-96486500D01*
X158059428Y-96486500D01*
X158583238Y-95296023D02*
X157297523Y-96153166D01*
X158583238Y-94248404D02*
X157297523Y-95105547D01*
X158202285Y-93486500D02*
X157392761Y-93486500D01*
X157297523Y-93534119D01*
X157249904Y-93581738D01*
X157202285Y-93676976D01*
X157202285Y-93819833D01*
X157249904Y-93915071D01*
X157583238Y-93486500D02*
X157535619Y-93581738D01*
X157535619Y-93772214D01*
X157583238Y-93867452D01*
X157630857Y-93915071D01*
X157726095Y-93962690D01*
X158011809Y-93962690D01*
X158107047Y-93915071D01*
X158154666Y-93867452D01*
X158202285Y-93772214D01*
X158202285Y-93581738D01*
X158154666Y-93486500D01*
X157535619Y-93010309D02*
X158202285Y-93010309D01*
X158535619Y-93010309D02*
X158488000Y-93057928D01*
X158440380Y-93010309D01*
X158488000Y-92962690D01*
X158535619Y-93010309D01*
X158440380Y-93010309D01*
X158202285Y-92676976D02*
X158202285Y-92296023D01*
X158535619Y-92534119D02*
X157678476Y-92534119D01*
X157583238Y-92486500D01*
X157535619Y-92391261D01*
X157535619Y-92296023D01*
X157535619Y-91962690D02*
X158535619Y-91962690D01*
X157535619Y-91534119D02*
X158059428Y-91534119D01*
X158154666Y-91581738D01*
X158202285Y-91676976D01*
X158202285Y-91819833D01*
X158154666Y-91915071D01*
X158107047Y-91962690D01*
X158202285Y-90629357D02*
X157535619Y-90629357D01*
X158202285Y-91057928D02*
X157678476Y-91057928D01*
X157583238Y-91010309D01*
X157535619Y-90915071D01*
X157535619Y-90772214D01*
X157583238Y-90676976D01*
X157630857Y-90629357D01*
X157535619Y-90153166D02*
X158535619Y-90153166D01*
X158154666Y-90153166D02*
X158202285Y-90057928D01*
X158202285Y-89867452D01*
X158154666Y-89772214D01*
X158107047Y-89724595D01*
X158011809Y-89676976D01*
X157726095Y-89676976D01*
X157630857Y-89724595D01*
X157583238Y-89772214D01*
X157535619Y-89867452D01*
X157535619Y-90057928D01*
X157583238Y-90153166D01*
X157630857Y-89248404D02*
X157583238Y-89200785D01*
X157535619Y-89248404D01*
X157583238Y-89296023D01*
X157630857Y-89248404D01*
X157535619Y-89248404D01*
X157583238Y-88343642D02*
X157535619Y-88438880D01*
X157535619Y-88629357D01*
X157583238Y-88724595D01*
X157630857Y-88772214D01*
X157726095Y-88819833D01*
X158011809Y-88819833D01*
X158107047Y-88772214D01*
X158154666Y-88724595D01*
X158202285Y-88629357D01*
X158202285Y-88438880D01*
X158154666Y-88343642D01*
X157535619Y-87772214D02*
X157583238Y-87867452D01*
X157630857Y-87915071D01*
X157726095Y-87962690D01*
X158011809Y-87962690D01*
X158107047Y-87915071D01*
X158154666Y-87867452D01*
X158202285Y-87772214D01*
X158202285Y-87629357D01*
X158154666Y-87534119D01*
X158107047Y-87486500D01*
X158011809Y-87438880D01*
X157726095Y-87438880D01*
X157630857Y-87486500D01*
X157583238Y-87534119D01*
X157535619Y-87629357D01*
X157535619Y-87772214D01*
X157535619Y-87010309D02*
X158202285Y-87010309D01*
X158107047Y-87010309D02*
X158154666Y-86962690D01*
X158202285Y-86867452D01*
X158202285Y-86724595D01*
X158154666Y-86629357D01*
X158059428Y-86581738D01*
X157535619Y-86581738D01*
X158059428Y-86581738D02*
X158154666Y-86534119D01*
X158202285Y-86438880D01*
X158202285Y-86296023D01*
X158154666Y-86200785D01*
X158059428Y-86153166D01*
X157535619Y-86153166D01*
X158583238Y-84962690D02*
X157297523Y-85819833D01*
X158202285Y-84200785D02*
X157392761Y-84200785D01*
X157297523Y-84248404D01*
X157249904Y-84296023D01*
X157202285Y-84391261D01*
X157202285Y-84534119D01*
X157249904Y-84629357D01*
X157583238Y-84200785D02*
X157535619Y-84296023D01*
X157535619Y-84486500D01*
X157583238Y-84581738D01*
X157630857Y-84629357D01*
X157726095Y-84676976D01*
X158011809Y-84676976D01*
X158107047Y-84629357D01*
X158154666Y-84581738D01*
X158202285Y-84486500D01*
X158202285Y-84296023D01*
X158154666Y-84200785D01*
X157535619Y-83724595D02*
X158202285Y-83724595D01*
X158011809Y-83724595D02*
X158107047Y-83676976D01*
X158154666Y-83629357D01*
X158202285Y-83534119D01*
X158202285Y-83438880D01*
X157535619Y-82676976D02*
X158059428Y-82676976D01*
X158154666Y-82724595D01*
X158202285Y-82819833D01*
X158202285Y-83010309D01*
X158154666Y-83105547D01*
X157583238Y-82676976D02*
X157535619Y-82772214D01*
X157535619Y-83010309D01*
X157583238Y-83105547D01*
X157678476Y-83153166D01*
X157773714Y-83153166D01*
X157868952Y-83105547D01*
X157916571Y-83010309D01*
X157916571Y-82772214D01*
X157964190Y-82676976D01*
X158202285Y-82200785D02*
X157535619Y-82200785D01*
X158107047Y-82200785D02*
X158154666Y-82153166D01*
X158202285Y-82057928D01*
X158202285Y-81915071D01*
X158154666Y-81819833D01*
X158059428Y-81772214D01*
X157535619Y-81772214D01*
X158202285Y-81438880D02*
X158202285Y-81057928D01*
X158535619Y-81296023D02*
X157678476Y-81296023D01*
X157583238Y-81248404D01*
X157535619Y-81153166D01*
X157535619Y-81057928D01*
X157583238Y-80343642D02*
X157535619Y-80438880D01*
X157535619Y-80629357D01*
X157583238Y-80724595D01*
X157678476Y-80772214D01*
X158059428Y-80772214D01*
X158154666Y-80724595D01*
X158202285Y-80629357D01*
X158202285Y-80438880D01*
X158154666Y-80343642D01*
X158059428Y-80296023D01*
X157964190Y-80296023D01*
X157868952Y-80772214D01*
X157535619Y-79867452D02*
X158535619Y-79867452D01*
X157916571Y-79772214D02*
X157535619Y-79486500D01*
X158202285Y-79486500D02*
X157821333Y-79867452D01*
X158583238Y-78343642D02*
X157297523Y-79200785D01*
X157535619Y-78010309D02*
X158202285Y-78010309D01*
X158107047Y-78010309D02*
X158154666Y-77962690D01*
X158202285Y-77867452D01*
X158202285Y-77724595D01*
X158154666Y-77629357D01*
X158059428Y-77581738D01*
X157535619Y-77581738D01*
X158059428Y-77581738D02*
X158154666Y-77534119D01*
X158202285Y-77438880D01*
X158202285Y-77296023D01*
X158154666Y-77200785D01*
X158059428Y-77153166D01*
X157535619Y-77153166D01*
X157535619Y-76676976D02*
X158202285Y-76676976D01*
X158535619Y-76676976D02*
X158488000Y-76724595D01*
X158440380Y-76676976D01*
X158488000Y-76629357D01*
X158535619Y-76676976D01*
X158440380Y-76676976D01*
X158202285Y-76200785D02*
X157535619Y-76200785D01*
X158107047Y-76200785D02*
X158154666Y-76153166D01*
X158202285Y-76057928D01*
X158202285Y-75915071D01*
X158154666Y-75819833D01*
X158059428Y-75772214D01*
X157535619Y-75772214D01*
X157535619Y-75296023D02*
X158202285Y-75296023D01*
X158535619Y-75296023D02*
X158488000Y-75343642D01*
X158440380Y-75296023D01*
X158488000Y-75248404D01*
X158535619Y-75296023D01*
X158440380Y-75296023D01*
X157583238Y-74867452D02*
X157535619Y-74772214D01*
X157535619Y-74581738D01*
X157583238Y-74486500D01*
X157678476Y-74438880D01*
X157726095Y-74438880D01*
X157821333Y-74486500D01*
X157868952Y-74581738D01*
X157868952Y-74724595D01*
X157916571Y-74819833D01*
X158011809Y-74867452D01*
X158059428Y-74867452D01*
X158154666Y-74819833D01*
X158202285Y-74724595D01*
X158202285Y-74581738D01*
X158154666Y-74486500D01*
X158202285Y-74105547D02*
X157535619Y-73867452D01*
X158202285Y-73629357D02*
X157535619Y-73867452D01*
X157297523Y-73962690D01*
X157249904Y-74010309D01*
X157202285Y-74105547D01*
X158202285Y-73248404D02*
X157535619Y-73248404D01*
X158107047Y-73248404D02*
X158154666Y-73200785D01*
X158202285Y-73105547D01*
X158202285Y-72962690D01*
X158154666Y-72867452D01*
X158059428Y-72819833D01*
X157535619Y-72819833D01*
X158202285Y-72486500D02*
X158202285Y-72105547D01*
X158535619Y-72343642D02*
X157678476Y-72343642D01*
X157583238Y-72296023D01*
X157535619Y-72200785D01*
X157535619Y-72105547D01*
X157535619Y-71772214D02*
X158535619Y-71772214D01*
X157535619Y-71343642D02*
X158059428Y-71343642D01*
X158154666Y-71391261D01*
X158202285Y-71486500D01*
X158202285Y-71629357D01*
X158154666Y-71724595D01*
X158107047Y-71772214D01*
X158535619Y-70962690D02*
X158535619Y-70343642D01*
X158154666Y-70676976D01*
X158154666Y-70534119D01*
X158107047Y-70438880D01*
X158059428Y-70391261D01*
X157964190Y-70343642D01*
X157726095Y-70343642D01*
X157630857Y-70391261D01*
X157583238Y-70438880D01*
X157535619Y-70534119D01*
X157535619Y-70819833D01*
X157583238Y-70915071D01*
X157630857Y-70962690D01*
X158440380Y-69962690D02*
X158488000Y-69915071D01*
X158535619Y-69819833D01*
X158535619Y-69581738D01*
X158488000Y-69486500D01*
X158440380Y-69438880D01*
X158345142Y-69391261D01*
X158249904Y-69391261D01*
X158107047Y-69438880D01*
X157535619Y-70010309D01*
X157535619Y-69391261D01*
X155885619Y-99676976D02*
X156361809Y-100010309D01*
X155885619Y-100248404D02*
X156885619Y-100248404D01*
X156885619Y-99867452D01*
X156838000Y-99772214D01*
X156790380Y-99724595D01*
X156695142Y-99676976D01*
X156552285Y-99676976D01*
X156457047Y-99724595D01*
X156409428Y-99772214D01*
X156361809Y-99867452D01*
X156361809Y-100248404D01*
X155933238Y-98867452D02*
X155885619Y-98962690D01*
X155885619Y-99153166D01*
X155933238Y-99248404D01*
X156028476Y-99296023D01*
X156409428Y-99296023D01*
X156504666Y-99248404D01*
X156552285Y-99153166D01*
X156552285Y-98962690D01*
X156504666Y-98867452D01*
X156409428Y-98819833D01*
X156314190Y-98819833D01*
X156218952Y-99296023D01*
X156552285Y-98486500D02*
X155885619Y-98248404D01*
X156552285Y-98010309D01*
X155885619Y-96343642D02*
X155885619Y-96915071D01*
X155885619Y-96629357D02*
X156885619Y-96629357D01*
X156742761Y-96724595D01*
X156647523Y-96819833D01*
X156599904Y-96915071D01*
X155980857Y-95915071D02*
X155933238Y-95867452D01*
X155885619Y-95915071D01*
X155933238Y-95962690D01*
X155980857Y-95915071D01*
X155885619Y-95915071D01*
X155885619Y-94915071D02*
X155885619Y-95486500D01*
X155885619Y-95200785D02*
X156885619Y-95200785D01*
X156742761Y-95296023D01*
X156647523Y-95391261D01*
X156599904Y-95486500D01*
X121992380Y-56977595D02*
X120992380Y-56977595D01*
X121706666Y-57310928D01*
X120992380Y-57644261D01*
X121992380Y-57644261D01*
X121992380Y-58120452D02*
X121325714Y-58120452D01*
X120992380Y-58120452D02*
X121040000Y-58072833D01*
X121087619Y-58120452D01*
X121040000Y-58168071D01*
X120992380Y-58120452D01*
X121087619Y-58120452D01*
X121325714Y-58596642D02*
X121992380Y-58596642D01*
X121420952Y-58596642D02*
X121373333Y-58644261D01*
X121325714Y-58739500D01*
X121325714Y-58882357D01*
X121373333Y-58977595D01*
X121468571Y-59025214D01*
X121992380Y-59025214D01*
X121992380Y-59501404D02*
X121325714Y-59501404D01*
X120992380Y-59501404D02*
X121040000Y-59453785D01*
X121087619Y-59501404D01*
X121040000Y-59549023D01*
X120992380Y-59501404D01*
X121087619Y-59501404D01*
X121944761Y-59929976D02*
X121992380Y-60025214D01*
X121992380Y-60215690D01*
X121944761Y-60310928D01*
X121849523Y-60358547D01*
X121801904Y-60358547D01*
X121706666Y-60310928D01*
X121659047Y-60215690D01*
X121659047Y-60072833D01*
X121611428Y-59977595D01*
X121516190Y-59929976D01*
X121468571Y-59929976D01*
X121373333Y-59977595D01*
X121325714Y-60072833D01*
X121325714Y-60215690D01*
X121373333Y-60310928D01*
X121325714Y-60691880D02*
X121992380Y-60929976D01*
X121325714Y-61168071D02*
X121992380Y-60929976D01*
X122230476Y-60834738D01*
X122278095Y-60787119D01*
X122325714Y-60691880D01*
X121325714Y-61549023D02*
X121992380Y-61549023D01*
X121420952Y-61549023D02*
X121373333Y-61596642D01*
X121325714Y-61691880D01*
X121325714Y-61834738D01*
X121373333Y-61929976D01*
X121468571Y-61977595D01*
X121992380Y-61977595D01*
X121325714Y-62310928D02*
X121325714Y-62691880D01*
X120992380Y-62453785D02*
X121849523Y-62453785D01*
X121944761Y-62501404D01*
X121992380Y-62596642D01*
X121992380Y-62691880D01*
X121992380Y-63025214D02*
X120992380Y-63025214D01*
X121992380Y-63453785D02*
X121468571Y-63453785D01*
X121373333Y-63406166D01*
X121325714Y-63310928D01*
X121325714Y-63168071D01*
X121373333Y-63072833D01*
X121420952Y-63025214D01*
X120992380Y-64596642D02*
X120992380Y-65215690D01*
X121373333Y-64882357D01*
X121373333Y-65025214D01*
X121420952Y-65120452D01*
X121468571Y-65168071D01*
X121563809Y-65215690D01*
X121801904Y-65215690D01*
X121897142Y-65168071D01*
X121944761Y-65120452D01*
X121992380Y-65025214D01*
X121992380Y-64739500D01*
X121944761Y-64644261D01*
X121897142Y-64596642D01*
X121087619Y-65596642D02*
X121040000Y-65644261D01*
X120992380Y-65739500D01*
X120992380Y-65977595D01*
X121040000Y-66072833D01*
X121087619Y-66120452D01*
X121182857Y-66168071D01*
X121278095Y-66168071D01*
X121420952Y-66120452D01*
X121992380Y-65549023D01*
X121992380Y-66168071D01*
X121897142Y-66596642D02*
X121944761Y-66644261D01*
X121992380Y-66596642D01*
X121944761Y-66549023D01*
X121897142Y-66596642D01*
X121992380Y-66596642D01*
X121373333Y-66596642D02*
X121420952Y-66644261D01*
X121468571Y-66596642D01*
X121420952Y-66549023D01*
X121373333Y-66596642D01*
X121468571Y-66596642D01*
X121468571Y-68168071D02*
X121468571Y-67834738D01*
X121992380Y-67834738D02*
X120992380Y-67834738D01*
X120992380Y-68310928D01*
X121992380Y-68691880D02*
X121325714Y-68691880D01*
X121516190Y-68691880D02*
X121420952Y-68739500D01*
X121373333Y-68787119D01*
X121325714Y-68882357D01*
X121325714Y-68977595D01*
X121992380Y-69453785D02*
X121944761Y-69358547D01*
X121897142Y-69310928D01*
X121801904Y-69263309D01*
X121516190Y-69263309D01*
X121420952Y-69310928D01*
X121373333Y-69358547D01*
X121325714Y-69453785D01*
X121325714Y-69596642D01*
X121373333Y-69691880D01*
X121420952Y-69739500D01*
X121516190Y-69787119D01*
X121801904Y-69787119D01*
X121897142Y-69739500D01*
X121944761Y-69691880D01*
X121992380Y-69596642D01*
X121992380Y-69453785D01*
X121325714Y-70215690D02*
X121992380Y-70215690D01*
X121420952Y-70215690D02*
X121373333Y-70263309D01*
X121325714Y-70358547D01*
X121325714Y-70501404D01*
X121373333Y-70596642D01*
X121468571Y-70644261D01*
X121992380Y-70644261D01*
X121325714Y-70977595D02*
X121325714Y-71358547D01*
X120992380Y-71120452D02*
X121849523Y-71120452D01*
X121944761Y-71168071D01*
X121992380Y-71263309D01*
X121992380Y-71358547D01*
X121325714Y-72453785D02*
X122325714Y-72453785D01*
X121373333Y-72453785D02*
X121325714Y-72549023D01*
X121325714Y-72739500D01*
X121373333Y-72834738D01*
X121420952Y-72882357D01*
X121516190Y-72929976D01*
X121801904Y-72929976D01*
X121897142Y-72882357D01*
X121944761Y-72834738D01*
X121992380Y-72739500D01*
X121992380Y-72549023D01*
X121944761Y-72453785D01*
X121992380Y-73787119D02*
X121468571Y-73787119D01*
X121373333Y-73739500D01*
X121325714Y-73644261D01*
X121325714Y-73453785D01*
X121373333Y-73358547D01*
X121944761Y-73787119D02*
X121992380Y-73691880D01*
X121992380Y-73453785D01*
X121944761Y-73358547D01*
X121849523Y-73310928D01*
X121754285Y-73310928D01*
X121659047Y-73358547D01*
X121611428Y-73453785D01*
X121611428Y-73691880D01*
X121563809Y-73787119D01*
X121325714Y-74263309D02*
X121992380Y-74263309D01*
X121420952Y-74263309D02*
X121373333Y-74310928D01*
X121325714Y-74406166D01*
X121325714Y-74549023D01*
X121373333Y-74644261D01*
X121468571Y-74691880D01*
X121992380Y-74691880D01*
X121944761Y-75549023D02*
X121992380Y-75453785D01*
X121992380Y-75263309D01*
X121944761Y-75168071D01*
X121849523Y-75120452D01*
X121468571Y-75120452D01*
X121373333Y-75168071D01*
X121325714Y-75263309D01*
X121325714Y-75453785D01*
X121373333Y-75549023D01*
X121468571Y-75596642D01*
X121563809Y-75596642D01*
X121659047Y-75120452D01*
X121992380Y-76168071D02*
X121944761Y-76072833D01*
X121849523Y-76025214D01*
X120992380Y-76025214D01*
X121992380Y-77310928D02*
X120992380Y-77310928D01*
X121373333Y-77310928D02*
X121325714Y-77406166D01*
X121325714Y-77596642D01*
X121373333Y-77691880D01*
X121420952Y-77739500D01*
X121516190Y-77787119D01*
X121801904Y-77787119D01*
X121897142Y-77739500D01*
X121944761Y-77691880D01*
X121992380Y-77596642D01*
X121992380Y-77406166D01*
X121944761Y-77310928D01*
X121992380Y-78358547D02*
X121944761Y-78263309D01*
X121897142Y-78215690D01*
X121801904Y-78168071D01*
X121516190Y-78168071D01*
X121420952Y-78215690D01*
X121373333Y-78263309D01*
X121325714Y-78358547D01*
X121325714Y-78501404D01*
X121373333Y-78596642D01*
X121420952Y-78644261D01*
X121516190Y-78691880D01*
X121801904Y-78691880D01*
X121897142Y-78644261D01*
X121944761Y-78596642D01*
X121992380Y-78501404D01*
X121992380Y-78358547D01*
X121992380Y-79549023D02*
X121468571Y-79549023D01*
X121373333Y-79501404D01*
X121325714Y-79406166D01*
X121325714Y-79215690D01*
X121373333Y-79120452D01*
X121944761Y-79549023D02*
X121992380Y-79453785D01*
X121992380Y-79215690D01*
X121944761Y-79120452D01*
X121849523Y-79072833D01*
X121754285Y-79072833D01*
X121659047Y-79120452D01*
X121611428Y-79215690D01*
X121611428Y-79453785D01*
X121563809Y-79549023D01*
X121992380Y-80025214D02*
X121325714Y-80025214D01*
X121516190Y-80025214D02*
X121420952Y-80072833D01*
X121373333Y-80120452D01*
X121325714Y-80215690D01*
X121325714Y-80310928D01*
X121992380Y-81072833D02*
X120992380Y-81072833D01*
X121944761Y-81072833D02*
X121992380Y-80977595D01*
X121992380Y-80787119D01*
X121944761Y-80691880D01*
X121897142Y-80644261D01*
X121801904Y-80596642D01*
X121516190Y-80596642D01*
X121420952Y-80644261D01*
X121373333Y-80691880D01*
X121325714Y-80787119D01*
X121325714Y-80977595D01*
X121373333Y-81072833D01*
X123642380Y-56977595D02*
X122642380Y-56977595D01*
X123642380Y-57406166D02*
X123118571Y-57406166D01*
X123023333Y-57358547D01*
X122975714Y-57263309D01*
X122975714Y-57120452D01*
X123023333Y-57025214D01*
X123070952Y-56977595D01*
X122975714Y-57739500D02*
X122975714Y-58120452D01*
X122642380Y-57882357D02*
X123499523Y-57882357D01*
X123594761Y-57929976D01*
X123642380Y-58025214D01*
X123642380Y-58120452D01*
X122975714Y-58310928D02*
X122975714Y-58691880D01*
X122642380Y-58453785D02*
X123499523Y-58453785D01*
X123594761Y-58501404D01*
X123642380Y-58596642D01*
X123642380Y-58691880D01*
X122975714Y-59025214D02*
X123975714Y-59025214D01*
X123023333Y-59025214D02*
X122975714Y-59120452D01*
X122975714Y-59310928D01*
X123023333Y-59406166D01*
X123070952Y-59453785D01*
X123166190Y-59501404D01*
X123451904Y-59501404D01*
X123547142Y-59453785D01*
X123594761Y-59406166D01*
X123642380Y-59310928D01*
X123642380Y-59120452D01*
X123594761Y-59025214D01*
X123594761Y-59882357D02*
X123642380Y-59977595D01*
X123642380Y-60168071D01*
X123594761Y-60263309D01*
X123499523Y-60310928D01*
X123451904Y-60310928D01*
X123356666Y-60263309D01*
X123309047Y-60168071D01*
X123309047Y-60025214D01*
X123261428Y-59929976D01*
X123166190Y-59882357D01*
X123118571Y-59882357D01*
X123023333Y-59929976D01*
X122975714Y-60025214D01*
X122975714Y-60168071D01*
X123023333Y-60263309D01*
X123547142Y-60739500D02*
X123594761Y-60787119D01*
X123642380Y-60739500D01*
X123594761Y-60691880D01*
X123547142Y-60739500D01*
X123642380Y-60739500D01*
X123023333Y-60739500D02*
X123070952Y-60787119D01*
X123118571Y-60739500D01*
X123070952Y-60691880D01*
X123023333Y-60739500D01*
X123118571Y-60739500D01*
X122594761Y-61929976D02*
X123880476Y-61072833D01*
X122594761Y-62977595D02*
X123880476Y-62120452D01*
X122975714Y-63739500D02*
X123785238Y-63739500D01*
X123880476Y-63691880D01*
X123928095Y-63644261D01*
X123975714Y-63549023D01*
X123975714Y-63406166D01*
X123928095Y-63310928D01*
X123594761Y-63739500D02*
X123642380Y-63644261D01*
X123642380Y-63453785D01*
X123594761Y-63358547D01*
X123547142Y-63310928D01*
X123451904Y-63263309D01*
X123166190Y-63263309D01*
X123070952Y-63310928D01*
X123023333Y-63358547D01*
X122975714Y-63453785D01*
X122975714Y-63644261D01*
X123023333Y-63739500D01*
X123642380Y-64215690D02*
X122975714Y-64215690D01*
X122642380Y-64215690D02*
X122690000Y-64168071D01*
X122737619Y-64215690D01*
X122690000Y-64263309D01*
X122642380Y-64215690D01*
X122737619Y-64215690D01*
X122975714Y-64549023D02*
X122975714Y-64929976D01*
X122642380Y-64691880D02*
X123499523Y-64691880D01*
X123594761Y-64739500D01*
X123642380Y-64834738D01*
X123642380Y-64929976D01*
X123642380Y-65263309D02*
X122642380Y-65263309D01*
X123642380Y-65691880D02*
X123118571Y-65691880D01*
X123023333Y-65644261D01*
X122975714Y-65549023D01*
X122975714Y-65406166D01*
X123023333Y-65310928D01*
X123070952Y-65263309D01*
X122975714Y-66596642D02*
X123642380Y-66596642D01*
X122975714Y-66168071D02*
X123499523Y-66168071D01*
X123594761Y-66215690D01*
X123642380Y-66310928D01*
X123642380Y-66453785D01*
X123594761Y-66549023D01*
X123547142Y-66596642D01*
X123642380Y-67072833D02*
X122642380Y-67072833D01*
X123023333Y-67072833D02*
X122975714Y-67168071D01*
X122975714Y-67358547D01*
X123023333Y-67453785D01*
X123070952Y-67501404D01*
X123166190Y-67549023D01*
X123451904Y-67549023D01*
X123547142Y-67501404D01*
X123594761Y-67453785D01*
X123642380Y-67358547D01*
X123642380Y-67168071D01*
X123594761Y-67072833D01*
X123547142Y-67977595D02*
X123594761Y-68025214D01*
X123642380Y-67977595D01*
X123594761Y-67929976D01*
X123547142Y-67977595D01*
X123642380Y-67977595D01*
X123594761Y-68882357D02*
X123642380Y-68787119D01*
X123642380Y-68596642D01*
X123594761Y-68501404D01*
X123547142Y-68453785D01*
X123451904Y-68406166D01*
X123166190Y-68406166D01*
X123070952Y-68453785D01*
X123023333Y-68501404D01*
X122975714Y-68596642D01*
X122975714Y-68787119D01*
X123023333Y-68882357D01*
X123642380Y-69453785D02*
X123594761Y-69358547D01*
X123547142Y-69310928D01*
X123451904Y-69263309D01*
X123166190Y-69263309D01*
X123070952Y-69310928D01*
X123023333Y-69358547D01*
X122975714Y-69453785D01*
X122975714Y-69596642D01*
X123023333Y-69691880D01*
X123070952Y-69739500D01*
X123166190Y-69787119D01*
X123451904Y-69787119D01*
X123547142Y-69739500D01*
X123594761Y-69691880D01*
X123642380Y-69596642D01*
X123642380Y-69453785D01*
X123642380Y-70215690D02*
X122975714Y-70215690D01*
X123070952Y-70215690D02*
X123023333Y-70263309D01*
X122975714Y-70358547D01*
X122975714Y-70501404D01*
X123023333Y-70596642D01*
X123118571Y-70644261D01*
X123642380Y-70644261D01*
X123118571Y-70644261D02*
X123023333Y-70691880D01*
X122975714Y-70787119D01*
X122975714Y-70929976D01*
X123023333Y-71025214D01*
X123118571Y-71072833D01*
X123642380Y-71072833D01*
X122594761Y-72263309D02*
X123880476Y-71406166D01*
X122975714Y-73025214D02*
X123785238Y-73025214D01*
X123880476Y-72977595D01*
X123928095Y-72929976D01*
X123975714Y-72834738D01*
X123975714Y-72691880D01*
X123928095Y-72596642D01*
X123594761Y-73025214D02*
X123642380Y-72929976D01*
X123642380Y-72739500D01*
X123594761Y-72644261D01*
X123547142Y-72596642D01*
X123451904Y-72549023D01*
X123166190Y-72549023D01*
X123070952Y-72596642D01*
X123023333Y-72644261D01*
X122975714Y-72739500D01*
X122975714Y-72929976D01*
X123023333Y-73025214D01*
X123642380Y-73501404D02*
X122975714Y-73501404D01*
X123166190Y-73501404D02*
X123070952Y-73549023D01*
X123023333Y-73596642D01*
X122975714Y-73691880D01*
X122975714Y-73787119D01*
X123642380Y-74549023D02*
X123118571Y-74549023D01*
X123023333Y-74501404D01*
X122975714Y-74406166D01*
X122975714Y-74215690D01*
X123023333Y-74120452D01*
X123594761Y-74549023D02*
X123642380Y-74453785D01*
X123642380Y-74215690D01*
X123594761Y-74120452D01*
X123499523Y-74072833D01*
X123404285Y-74072833D01*
X123309047Y-74120452D01*
X123261428Y-74215690D01*
X123261428Y-74453785D01*
X123213809Y-74549023D01*
X122975714Y-75025214D02*
X123642380Y-75025214D01*
X123070952Y-75025214D02*
X123023333Y-75072833D01*
X122975714Y-75168071D01*
X122975714Y-75310928D01*
X123023333Y-75406166D01*
X123118571Y-75453785D01*
X123642380Y-75453785D01*
X122975714Y-75787119D02*
X122975714Y-76168071D01*
X122642380Y-75929976D02*
X123499523Y-75929976D01*
X123594761Y-75977595D01*
X123642380Y-76072833D01*
X123642380Y-76168071D01*
X123594761Y-76882357D02*
X123642380Y-76787119D01*
X123642380Y-76596642D01*
X123594761Y-76501404D01*
X123499523Y-76453785D01*
X123118571Y-76453785D01*
X123023333Y-76501404D01*
X122975714Y-76596642D01*
X122975714Y-76787119D01*
X123023333Y-76882357D01*
X123118571Y-76929976D01*
X123213809Y-76929976D01*
X123309047Y-76453785D01*
X123642380Y-77358547D02*
X122642380Y-77358547D01*
X123261428Y-77453785D02*
X123642380Y-77739500D01*
X122975714Y-77739500D02*
X123356666Y-77358547D01*
X122594761Y-78882357D02*
X123880476Y-78025214D01*
X123642380Y-79215690D02*
X122975714Y-79215690D01*
X123070952Y-79215690D02*
X123023333Y-79263309D01*
X122975714Y-79358547D01*
X122975714Y-79501404D01*
X123023333Y-79596642D01*
X123118571Y-79644261D01*
X123642380Y-79644261D01*
X123118571Y-79644261D02*
X123023333Y-79691880D01*
X122975714Y-79787119D01*
X122975714Y-79929976D01*
X123023333Y-80025214D01*
X123118571Y-80072833D01*
X123642380Y-80072833D01*
X123642380Y-80549023D02*
X122975714Y-80549023D01*
X122642380Y-80549023D02*
X122690000Y-80501404D01*
X122737619Y-80549023D01*
X122690000Y-80596642D01*
X122642380Y-80549023D01*
X122737619Y-80549023D01*
X122975714Y-81025214D02*
X123642380Y-81025214D01*
X123070952Y-81025214D02*
X123023333Y-81072833D01*
X122975714Y-81168071D01*
X122975714Y-81310928D01*
X123023333Y-81406166D01*
X123118571Y-81453785D01*
X123642380Y-81453785D01*
X123642380Y-81929976D02*
X122975714Y-81929976D01*
X122642380Y-81929976D02*
X122690000Y-81882357D01*
X122737619Y-81929976D01*
X122690000Y-81977595D01*
X122642380Y-81929976D01*
X122737619Y-81929976D01*
X123594761Y-82358547D02*
X123642380Y-82453785D01*
X123642380Y-82644261D01*
X123594761Y-82739500D01*
X123499523Y-82787119D01*
X123451904Y-82787119D01*
X123356666Y-82739500D01*
X123309047Y-82644261D01*
X123309047Y-82501404D01*
X123261428Y-82406166D01*
X123166190Y-82358547D01*
X123118571Y-82358547D01*
X123023333Y-82406166D01*
X122975714Y-82501404D01*
X122975714Y-82644261D01*
X123023333Y-82739500D01*
X122975714Y-83120452D02*
X123642380Y-83358547D01*
X122975714Y-83596642D02*
X123642380Y-83358547D01*
X123880476Y-83263309D01*
X123928095Y-83215690D01*
X123975714Y-83120452D01*
X122975714Y-83977595D02*
X123642380Y-83977595D01*
X123070952Y-83977595D02*
X123023333Y-84025214D01*
X122975714Y-84120452D01*
X122975714Y-84263309D01*
X123023333Y-84358547D01*
X123118571Y-84406166D01*
X123642380Y-84406166D01*
X122975714Y-84739500D02*
X122975714Y-85120452D01*
X122642380Y-84882357D02*
X123499523Y-84882357D01*
X123594761Y-84929976D01*
X123642380Y-85025214D01*
X123642380Y-85120452D01*
X123642380Y-85453785D02*
X122642380Y-85453785D01*
X123642380Y-85882357D02*
X123118571Y-85882357D01*
X123023333Y-85834738D01*
X122975714Y-85739500D01*
X122975714Y-85596642D01*
X123023333Y-85501404D01*
X123070952Y-85453785D01*
X122642380Y-86263309D02*
X122642380Y-86882357D01*
X123023333Y-86549023D01*
X123023333Y-86691880D01*
X123070952Y-86787119D01*
X123118571Y-86834738D01*
X123213809Y-86882357D01*
X123451904Y-86882357D01*
X123547142Y-86834738D01*
X123594761Y-86787119D01*
X123642380Y-86691880D01*
X123642380Y-86406166D01*
X123594761Y-86310928D01*
X123547142Y-86263309D01*
X122737619Y-87263309D02*
X122690000Y-87310928D01*
X122642380Y-87406166D01*
X122642380Y-87644261D01*
X122690000Y-87739500D01*
X122737619Y-87787119D01*
X122832857Y-87834738D01*
X122928095Y-87834738D01*
X123070952Y-87787119D01*
X123642380Y-87215690D01*
X123642380Y-87834738D01*
X125292380Y-57549023D02*
X124816190Y-57215690D01*
X125292380Y-56977595D02*
X124292380Y-56977595D01*
X124292380Y-57358547D01*
X124340000Y-57453785D01*
X124387619Y-57501404D01*
X124482857Y-57549023D01*
X124625714Y-57549023D01*
X124720952Y-57501404D01*
X124768571Y-57453785D01*
X124816190Y-57358547D01*
X124816190Y-56977595D01*
X125244761Y-58358547D02*
X125292380Y-58263309D01*
X125292380Y-58072833D01*
X125244761Y-57977595D01*
X125149523Y-57929976D01*
X124768571Y-57929976D01*
X124673333Y-57977595D01*
X124625714Y-58072833D01*
X124625714Y-58263309D01*
X124673333Y-58358547D01*
X124768571Y-58406166D01*
X124863809Y-58406166D01*
X124959047Y-57929976D01*
X124625714Y-58739500D02*
X125292380Y-58977595D01*
X124625714Y-59215690D01*
X125292380Y-60882357D02*
X125292380Y-60310928D01*
X125292380Y-60596642D02*
X124292380Y-60596642D01*
X124435238Y-60501404D01*
X124530476Y-60406166D01*
X124578095Y-60310928D01*
X125197142Y-61310928D02*
X125244761Y-61358547D01*
X125292380Y-61310928D01*
X125244761Y-61263309D01*
X125197142Y-61310928D01*
X125292380Y-61310928D01*
X125292380Y-62310928D02*
X125292380Y-61739500D01*
X125292380Y-62025214D02*
X124292380Y-62025214D01*
X124435238Y-61929976D01*
X124530476Y-61834738D01*
X124578095Y-61739500D01*
D11*
X133350000Y-104648000D02*
X133096000Y-104394000D01*
X134112000Y-104648000D02*
X133350000Y-104648000D01*
X133858000Y-101092000D02*
X133350000Y-101092000D01*
X134112000Y-101346000D02*
X133858000Y-101092000D01*
X133858000Y-98552000D02*
X133350000Y-98552000D01*
X134112000Y-98298000D02*
X133858000Y-98552000D01*
X133350000Y-96012000D02*
X134112000Y-96012000D01*
X133604000Y-123698000D02*
X133350000Y-123952000D01*
X133604000Y-123444000D02*
X133604000Y-123698000D01*
X133604000Y-122428000D02*
X133604000Y-123444000D01*
X133858000Y-122174000D02*
X133604000Y-122428000D01*
X133604000Y-126238000D02*
X133350000Y-126492000D01*
X133604000Y-125730000D02*
X133604000Y-126238000D01*
X133858000Y-125476000D02*
X133604000Y-125730000D01*
X133858000Y-129032000D02*
X133350000Y-129032000D01*
X132842000Y-119380000D02*
X132334000Y-120142000D01*
X133858000Y-119380000D02*
X132842000Y-119380000D01*
D10*
X135374000Y-105480857D02*
X135421619Y-105576095D01*
X135421619Y-105718952D01*
X135374000Y-105861809D01*
X135278761Y-105957047D01*
X135183523Y-106004666D01*
X134993047Y-106052285D01*
X134850190Y-106052285D01*
X134659714Y-106004666D01*
X134564476Y-105957047D01*
X134469238Y-105861809D01*
X134421619Y-105718952D01*
X134421619Y-105623714D01*
X134469238Y-105480857D01*
X134516857Y-105433238D01*
X134850190Y-105433238D01*
X134850190Y-105623714D01*
X134421619Y-105004666D02*
X135421619Y-105004666D01*
X134421619Y-104433238D01*
X135421619Y-104433238D01*
X134421619Y-103957047D02*
X135421619Y-103957047D01*
X135421619Y-103718952D01*
X135374000Y-103576095D01*
X135278761Y-103480857D01*
X135183523Y-103433238D01*
X134993047Y-103385619D01*
X134850190Y-103385619D01*
X134659714Y-103433238D01*
X134564476Y-103480857D01*
X134469238Y-103576095D01*
X134421619Y-103718952D01*
X134421619Y-103957047D01*
X134469238Y-102242761D02*
X134421619Y-102099904D01*
X134421619Y-101861809D01*
X134469238Y-101766571D01*
X134516857Y-101718952D01*
X134612095Y-101671333D01*
X134707333Y-101671333D01*
X134802571Y-101718952D01*
X134850190Y-101766571D01*
X134897809Y-101861809D01*
X134945428Y-102052285D01*
X134993047Y-102147523D01*
X135040666Y-102195142D01*
X135135904Y-102242761D01*
X135231142Y-102242761D01*
X135326380Y-102195142D01*
X135374000Y-102147523D01*
X135421619Y-102052285D01*
X135421619Y-101814190D01*
X135374000Y-101671333D01*
X135421619Y-101338000D02*
X134421619Y-101099904D01*
X135135904Y-100909428D01*
X134421619Y-100718952D01*
X135421619Y-100480857D01*
X134945428Y-98242761D02*
X134897809Y-98099904D01*
X134850190Y-98052285D01*
X134754952Y-98004666D01*
X134612095Y-98004666D01*
X134516857Y-98052285D01*
X134469238Y-98099904D01*
X134421619Y-98195142D01*
X134421619Y-98576095D01*
X135421619Y-98576095D01*
X135421619Y-98242761D01*
X135374000Y-98147523D01*
X135326380Y-98099904D01*
X135231142Y-98052285D01*
X135135904Y-98052285D01*
X135040666Y-98099904D01*
X134993047Y-98147523D01*
X134945428Y-98242761D01*
X134945428Y-98576095D01*
X134707333Y-96099904D02*
X134707333Y-95623714D01*
X134421619Y-96195142D02*
X135421619Y-95861809D01*
X134421619Y-95528476D01*
D11*
X125476000Y-119634000D02*
X125476000Y-119126000D01*
X119380000Y-125730000D02*
X125476000Y-119634000D01*
X122936000Y-120396000D02*
X122936000Y-119126000D01*
X119380000Y-123952000D02*
X122936000Y-120396000D01*
X120396000Y-121158000D02*
X120396000Y-119126000D01*
X119380000Y-122174000D02*
X120396000Y-121158000D01*
X117856000Y-119634000D02*
X117856000Y-119126000D01*
X116078000Y-120650000D02*
X114554000Y-117856000D01*
X116078000Y-122174000D02*
X114554000Y-120650000D01*
X116078000Y-123952000D02*
X114554000Y-123190000D01*
X116078000Y-125476000D02*
X114808000Y-125476000D01*
D10*
X118617904Y-120215000D02*
X118713142Y-120167380D01*
X118856000Y-120167380D01*
X118998857Y-120215000D01*
X119094095Y-120310238D01*
X119141714Y-120405476D01*
X119189333Y-120595952D01*
X119189333Y-120738809D01*
X119141714Y-120929285D01*
X119094095Y-121024523D01*
X118998857Y-121119761D01*
X118856000Y-121167380D01*
X118760761Y-121167380D01*
X118617904Y-121119761D01*
X118570285Y-121072142D01*
X118570285Y-120738809D01*
X118760761Y-120738809D01*
X118141714Y-121167380D02*
X118141714Y-120167380D01*
X117570285Y-121167380D01*
X117570285Y-120167380D01*
X117094095Y-121167380D02*
X117094095Y-120167380D01*
X116856000Y-120167380D01*
X116713142Y-120215000D01*
X116617904Y-120310238D01*
X116570285Y-120405476D01*
X116522666Y-120595952D01*
X116522666Y-120738809D01*
X116570285Y-120929285D01*
X116617904Y-121024523D01*
X116713142Y-121119761D01*
X116856000Y-121167380D01*
X117094095Y-121167380D01*
X119189333Y-121817380D02*
X118856000Y-122817380D01*
X118522666Y-121817380D01*
X117617904Y-122722142D02*
X117665523Y-122769761D01*
X117808380Y-122817380D01*
X117903619Y-122817380D01*
X118046476Y-122769761D01*
X118141714Y-122674523D01*
X118189333Y-122579285D01*
X118236952Y-122388809D01*
X118236952Y-122245952D01*
X118189333Y-122055476D01*
X118141714Y-121960238D01*
X118046476Y-121865000D01*
X117903619Y-121817380D01*
X117808380Y-121817380D01*
X117665523Y-121865000D01*
X117617904Y-121912619D01*
X116617904Y-122722142D02*
X116665523Y-122769761D01*
X116808380Y-122817380D01*
X116903619Y-122817380D01*
X117046476Y-122769761D01*
X117141714Y-122674523D01*
X117189333Y-122579285D01*
X117236952Y-122388809D01*
X117236952Y-122245952D01*
X117189333Y-122055476D01*
X117141714Y-121960238D01*
X117046476Y-121865000D01*
X116903619Y-121817380D01*
X116808380Y-121817380D01*
X116665523Y-121865000D01*
X116617904Y-121912619D01*
X119046476Y-124419761D02*
X118903619Y-124467380D01*
X118665523Y-124467380D01*
X118570285Y-124419761D01*
X118522666Y-124372142D01*
X118475047Y-124276904D01*
X118475047Y-124181666D01*
X118522666Y-124086428D01*
X118570285Y-124038809D01*
X118665523Y-123991190D01*
X118856000Y-123943571D01*
X118951238Y-123895952D01*
X118998857Y-123848333D01*
X119046476Y-123753095D01*
X119046476Y-123657857D01*
X118998857Y-123562619D01*
X118951238Y-123515000D01*
X118856000Y-123467380D01*
X118617904Y-123467380D01*
X118475047Y-123515000D01*
X117475047Y-124372142D02*
X117522666Y-124419761D01*
X117665523Y-124467380D01*
X117760761Y-124467380D01*
X117903619Y-124419761D01*
X117998857Y-124324523D01*
X118046476Y-124229285D01*
X118094095Y-124038809D01*
X118094095Y-123895952D01*
X118046476Y-123705476D01*
X117998857Y-123610238D01*
X117903619Y-123515000D01*
X117760761Y-123467380D01*
X117665523Y-123467380D01*
X117522666Y-123515000D01*
X117475047Y-123562619D01*
X116570285Y-124467380D02*
X117046476Y-124467380D01*
X117046476Y-123467380D01*
X119070285Y-126069761D02*
X118927428Y-126117380D01*
X118689333Y-126117380D01*
X118594095Y-126069761D01*
X118546476Y-126022142D01*
X118498857Y-125926904D01*
X118498857Y-125831666D01*
X118546476Y-125736428D01*
X118594095Y-125688809D01*
X118689333Y-125641190D01*
X118879809Y-125593571D01*
X118975047Y-125545952D01*
X119022666Y-125498333D01*
X119070285Y-125403095D01*
X119070285Y-125307857D01*
X119022666Y-125212619D01*
X118975047Y-125165000D01*
X118879809Y-125117380D01*
X118641714Y-125117380D01*
X118498857Y-125165000D01*
X118070285Y-126117380D02*
X118070285Y-125117380D01*
X117832190Y-125117380D01*
X117689333Y-125165000D01*
X117594095Y-125260238D01*
X117546476Y-125355476D01*
X117498857Y-125545952D01*
X117498857Y-125688809D01*
X117546476Y-125879285D01*
X117594095Y-125974523D01*
X117689333Y-126069761D01*
X117832190Y-126117380D01*
X118070285Y-126117380D01*
X117117904Y-125831666D02*
X116641714Y-125831666D01*
X117213142Y-126117380D02*
X116879809Y-125117380D01*
X116546476Y-126117380D01*
D11*
X116078000Y-110744000D02*
X114554000Y-113030000D01*
X116332000Y-113284000D02*
X114808000Y-115316000D01*
D10*
X117419428Y-113521904D02*
X117371809Y-113379047D01*
X117324190Y-113331428D01*
X117228952Y-113283809D01*
X117086095Y-113283809D01*
X116990857Y-113331428D01*
X116943238Y-113379047D01*
X116895619Y-113474285D01*
X116895619Y-113855238D01*
X117895619Y-113855238D01*
X117895619Y-113521904D01*
X117848000Y-113426666D01*
X117800380Y-113379047D01*
X117705142Y-113331428D01*
X117609904Y-113331428D01*
X117514666Y-113379047D01*
X117467047Y-113426666D01*
X117419428Y-113521904D01*
X117419428Y-113855238D01*
X116895619Y-112331428D02*
X116895619Y-112902857D01*
X116895619Y-112617142D02*
X117895619Y-112617142D01*
X117752761Y-112712380D01*
X117657523Y-112807619D01*
X117609904Y-112902857D01*
X117419428Y-110807619D02*
X117371809Y-110664761D01*
X117324190Y-110617142D01*
X117228952Y-110569523D01*
X117086095Y-110569523D01*
X116990857Y-110617142D01*
X116943238Y-110664761D01*
X116895619Y-110760000D01*
X116895619Y-111140952D01*
X117895619Y-111140952D01*
X117895619Y-110807619D01*
X117848000Y-110712380D01*
X117800380Y-110664761D01*
X117705142Y-110617142D01*
X117609904Y-110617142D01*
X117514666Y-110664761D01*
X117467047Y-110712380D01*
X117419428Y-110807619D01*
X117419428Y-111140952D01*
X117800380Y-110188571D02*
X117848000Y-110140952D01*
X117895619Y-110045714D01*
X117895619Y-109807619D01*
X117848000Y-109712380D01*
X117800380Y-109664761D01*
X117705142Y-109617142D01*
X117609904Y-109617142D01*
X117467047Y-109664761D01*
X116895619Y-110236190D01*
X116895619Y-109617142D01*
X134215238Y-137420761D02*
X134167619Y-137277904D01*
X134167619Y-137039809D01*
X134215238Y-136944571D01*
X134262857Y-136896952D01*
X134358095Y-136849333D01*
X134453333Y-136849333D01*
X134548571Y-136896952D01*
X134596190Y-136944571D01*
X134643809Y-137039809D01*
X134691428Y-137230285D01*
X134739047Y-137325523D01*
X134786666Y-137373142D01*
X134881904Y-137420761D01*
X134977142Y-137420761D01*
X135072380Y-137373142D01*
X135120000Y-137325523D01*
X135167619Y-137230285D01*
X135167619Y-136992190D01*
X135120000Y-136849333D01*
X134167619Y-136420761D02*
X135167619Y-136420761D01*
X135167619Y-136182666D01*
X135120000Y-136039809D01*
X135024761Y-135944571D01*
X134929523Y-135896952D01*
X134739047Y-135849333D01*
X134596190Y-135849333D01*
X134405714Y-135896952D01*
X134310476Y-135944571D01*
X134215238Y-136039809D01*
X134167619Y-136182666D01*
X134167619Y-136420761D01*
X134453333Y-135468380D02*
X134453333Y-134992190D01*
X134167619Y-135563619D02*
X135167619Y-135230285D01*
X134167619Y-134896952D01*
X134215238Y-133849333D02*
X134167619Y-133706476D01*
X134167619Y-133468380D01*
X134215238Y-133373142D01*
X134262857Y-133325523D01*
X134358095Y-133277904D01*
X134453333Y-133277904D01*
X134548571Y-133325523D01*
X134596190Y-133373142D01*
X134643809Y-133468380D01*
X134691428Y-133658857D01*
X134739047Y-133754095D01*
X134786666Y-133801714D01*
X134881904Y-133849333D01*
X134977142Y-133849333D01*
X135072380Y-133801714D01*
X135120000Y-133754095D01*
X135167619Y-133658857D01*
X135167619Y-133420761D01*
X135120000Y-133277904D01*
X134262857Y-132277904D02*
X134215238Y-132325523D01*
X134167619Y-132468380D01*
X134167619Y-132563619D01*
X134215238Y-132706476D01*
X134310476Y-132801714D01*
X134405714Y-132849333D01*
X134596190Y-132896952D01*
X134739047Y-132896952D01*
X134929523Y-132849333D01*
X135024761Y-132801714D01*
X135120000Y-132706476D01*
X135167619Y-132563619D01*
X135167619Y-132468380D01*
X135120000Y-132325523D01*
X135072380Y-132277904D01*
X134167619Y-131373142D02*
X134167619Y-131849333D01*
X135167619Y-131849333D01*
X135167619Y-130420761D02*
X134167619Y-130087428D01*
X135167619Y-129754095D01*
X134262857Y-128849333D02*
X134215238Y-128896952D01*
X134167619Y-129039809D01*
X134167619Y-129135047D01*
X134215238Y-129277904D01*
X134310476Y-129373142D01*
X134405714Y-129420761D01*
X134596190Y-129468380D01*
X134739047Y-129468380D01*
X134929523Y-129420761D01*
X135024761Y-129373142D01*
X135120000Y-129277904D01*
X135167619Y-129135047D01*
X135167619Y-129039809D01*
X135120000Y-128896952D01*
X135072380Y-128849333D01*
X134262857Y-127849333D02*
X134215238Y-127896952D01*
X134167619Y-128039809D01*
X134167619Y-128135047D01*
X134215238Y-128277904D01*
X134310476Y-128373142D01*
X134405714Y-128420761D01*
X134596190Y-128468380D01*
X134739047Y-128468380D01*
X134929523Y-128420761D01*
X135024761Y-128373142D01*
X135120000Y-128277904D01*
X135167619Y-128135047D01*
X135167619Y-128039809D01*
X135120000Y-127896952D01*
X135072380Y-127849333D01*
X135120000Y-126135047D02*
X135167619Y-126230285D01*
X135167619Y-126373142D01*
X135120000Y-126516000D01*
X135024761Y-126611238D01*
X134929523Y-126658857D01*
X134739047Y-126706476D01*
X134596190Y-126706476D01*
X134405714Y-126658857D01*
X134310476Y-126611238D01*
X134215238Y-126516000D01*
X134167619Y-126373142D01*
X134167619Y-126277904D01*
X134215238Y-126135047D01*
X134262857Y-126087428D01*
X134596190Y-126087428D01*
X134596190Y-126277904D01*
X134167619Y-125658857D02*
X135167619Y-125658857D01*
X134167619Y-125087428D01*
X135167619Y-125087428D01*
X134167619Y-124611238D02*
X135167619Y-124611238D01*
X135167619Y-124373142D01*
X135120000Y-124230285D01*
X135024761Y-124135047D01*
X134929523Y-124087428D01*
X134739047Y-124039809D01*
X134596190Y-124039809D01*
X134405714Y-124087428D01*
X134310476Y-124135047D01*
X134215238Y-124230285D01*
X134167619Y-124373142D01*
X134167619Y-124611238D01*
X134691428Y-122516000D02*
X134643809Y-122373142D01*
X134596190Y-122325523D01*
X134500952Y-122277904D01*
X134358095Y-122277904D01*
X134262857Y-122325523D01*
X134215238Y-122373142D01*
X134167619Y-122468380D01*
X134167619Y-122849333D01*
X135167619Y-122849333D01*
X135167619Y-122516000D01*
X135120000Y-122420761D01*
X135072380Y-122373142D01*
X134977142Y-122325523D01*
X134881904Y-122325523D01*
X134786666Y-122373142D01*
X134739047Y-122420761D01*
X134691428Y-122516000D01*
X134691428Y-122849333D01*
X134167619Y-121325523D02*
X134167619Y-121896952D01*
X134167619Y-121611238D02*
X135167619Y-121611238D01*
X135024761Y-121706476D01*
X134929523Y-121801714D01*
X134881904Y-121896952D01*
X134691428Y-119801714D02*
X134643809Y-119658857D01*
X134596190Y-119611238D01*
X134500952Y-119563619D01*
X134358095Y-119563619D01*
X134262857Y-119611238D01*
X134215238Y-119658857D01*
X134167619Y-119754095D01*
X134167619Y-120135047D01*
X135167619Y-120135047D01*
X135167619Y-119801714D01*
X135120000Y-119706476D01*
X135072380Y-119658857D01*
X134977142Y-119611238D01*
X134881904Y-119611238D01*
X134786666Y-119658857D01*
X134739047Y-119706476D01*
X134691428Y-119801714D01*
X134691428Y-120135047D01*
X135072380Y-119182666D02*
X135120000Y-119135047D01*
X135167619Y-119039809D01*
X135167619Y-118801714D01*
X135120000Y-118706476D01*
X135072380Y-118658857D01*
X134977142Y-118611238D01*
X134881904Y-118611238D01*
X134739047Y-118658857D01*
X134167619Y-119230285D01*
X134167619Y-118611238D01*
X154385880Y-138120380D02*
X154385880Y-137120380D01*
X154147785Y-137120380D01*
X154004928Y-137168000D01*
X153909690Y-137263238D01*
X153862071Y-137358476D01*
X153814452Y-137548952D01*
X153814452Y-137691809D01*
X153862071Y-137882285D01*
X153909690Y-137977523D01*
X154004928Y-138072761D01*
X154147785Y-138120380D01*
X154385880Y-138120380D01*
X153385880Y-138120380D02*
X153385880Y-137120380D01*
X152909690Y-138120380D02*
X152909690Y-137120380D01*
X152338261Y-138120380D01*
X152338261Y-137120380D01*
X151385880Y-137120380D02*
X151862071Y-137120380D01*
X151909690Y-137596571D01*
X151862071Y-137548952D01*
X151766833Y-137501333D01*
X151528738Y-137501333D01*
X151433500Y-137548952D01*
X151385880Y-137596571D01*
X151338261Y-137691809D01*
X151338261Y-137929904D01*
X151385880Y-138025142D01*
X151433500Y-138072761D01*
X151528738Y-138120380D01*
X151766833Y-138120380D01*
X151862071Y-138072761D01*
X151909690Y-138025142D01*
X150147785Y-138120380D02*
X150147785Y-137120380D01*
X149766833Y-137120380D01*
X149671595Y-137168000D01*
X149623976Y-137215619D01*
X149576357Y-137310857D01*
X149576357Y-137453714D01*
X149623976Y-137548952D01*
X149671595Y-137596571D01*
X149766833Y-137644190D01*
X150147785Y-137644190D01*
X148671595Y-137120380D02*
X149147785Y-137120380D01*
X149195404Y-137596571D01*
X149147785Y-137548952D01*
X149052547Y-137501333D01*
X148814452Y-137501333D01*
X148719214Y-137548952D01*
X148671595Y-137596571D01*
X148623976Y-137691809D01*
X148623976Y-137929904D01*
X148671595Y-138025142D01*
X148719214Y-138072761D01*
X148814452Y-138120380D01*
X149052547Y-138120380D01*
X149147785Y-138072761D01*
X149195404Y-138025142D01*
X144248095Y-139199380D02*
X144248095Y-138199380D01*
X143867142Y-138199380D01*
X143771904Y-138247000D01*
X143724285Y-138294619D01*
X143676666Y-138389857D01*
X143676666Y-138532714D01*
X143724285Y-138627952D01*
X143771904Y-138675571D01*
X143867142Y-138723190D01*
X144248095Y-138723190D01*
X142819523Y-138532714D02*
X142819523Y-139199380D01*
X143057619Y-138151761D02*
X143295714Y-138866047D01*
X142676666Y-138866047D01*
D11*
%TO.C,J6*%
X114614000Y-111446000D02*
X113284000Y-111446000D01*
X114614000Y-112776000D02*
X114614000Y-111446000D01*
X114614000Y-114046000D02*
X111954000Y-114046000D01*
X111954000Y-114046000D02*
X111954000Y-126806000D01*
X114614000Y-114046000D02*
X114614000Y-126806000D01*
X114614000Y-126806000D02*
X111954000Y-126806000D01*
D10*
X112831619Y-110814952D02*
X113307809Y-111148285D01*
X112831619Y-111386380D02*
X113831619Y-111386380D01*
X113831619Y-111005428D01*
X113784000Y-110910190D01*
X113736380Y-110862571D01*
X113641142Y-110814952D01*
X113498285Y-110814952D01*
X113403047Y-110862571D01*
X113355428Y-110910190D01*
X113307809Y-111005428D01*
X113307809Y-111386380D01*
X112736380Y-110624476D02*
X112736380Y-109862571D01*
X113355428Y-109291142D02*
X113307809Y-109148285D01*
X113260190Y-109100666D01*
X113164952Y-109053047D01*
X113022095Y-109053047D01*
X112926857Y-109100666D01*
X112879238Y-109148285D01*
X112831619Y-109243523D01*
X112831619Y-109624476D01*
X113831619Y-109624476D01*
X113831619Y-109291142D01*
X113784000Y-109195904D01*
X113736380Y-109148285D01*
X113641142Y-109100666D01*
X113545904Y-109100666D01*
X113450666Y-109148285D01*
X113403047Y-109195904D01*
X113355428Y-109291142D01*
X113355428Y-109624476D01*
X112831619Y-108053047D02*
X113307809Y-108386380D01*
X112831619Y-108624476D02*
X113831619Y-108624476D01*
X113831619Y-108243523D01*
X113784000Y-108148285D01*
X113736380Y-108100666D01*
X113641142Y-108053047D01*
X113498285Y-108053047D01*
X113403047Y-108100666D01*
X113355428Y-108148285D01*
X113307809Y-108243523D01*
X113307809Y-108624476D01*
X113355428Y-107624476D02*
X113355428Y-107291142D01*
X112831619Y-107148285D02*
X112831619Y-107624476D01*
X113831619Y-107624476D01*
X113831619Y-107148285D01*
X113117333Y-106767333D02*
X113117333Y-106291142D01*
X112831619Y-106862571D02*
X113831619Y-106529238D01*
X112831619Y-106195904D01*
X112831619Y-105862571D02*
X113831619Y-105862571D01*
X112831619Y-105291142D02*
X113403047Y-105719714D01*
X113831619Y-105291142D02*
X113260190Y-105862571D01*
X113831619Y-104672095D02*
X113831619Y-104481619D01*
X113784000Y-104386380D01*
X113688761Y-104291142D01*
X113498285Y-104243523D01*
X113164952Y-104243523D01*
X112974476Y-104291142D01*
X112879238Y-104386380D01*
X112831619Y-104481619D01*
X112831619Y-104672095D01*
X112879238Y-104767333D01*
X112974476Y-104862571D01*
X113164952Y-104910190D01*
X113498285Y-104910190D01*
X113688761Y-104862571D01*
X113784000Y-104767333D01*
X113831619Y-104672095D01*
X113831619Y-103814952D02*
X113022095Y-103814952D01*
X112926857Y-103767333D01*
X112879238Y-103719714D01*
X112831619Y-103624476D01*
X112831619Y-103434000D01*
X112879238Y-103338761D01*
X112926857Y-103291142D01*
X113022095Y-103243523D01*
X113831619Y-103243523D01*
X113831619Y-102910190D02*
X113831619Y-102338761D01*
X112831619Y-102624476D02*
X113831619Y-102624476D01*
%TD*%
M02*
