%TF.GenerationSoftware,KiCad,Pcbnew,5.99.0+really5.1.9+dfsg1-1*%
%TF.CreationDate,2021-05-13T21:59:57+10:00*%
%TF.ProjectId,minisynth32,6d696e69-7379-46e7-9468-33322e6b6963,1.1*%
%TF.SameCoordinates,Original*%
%TF.FileFunction,Copper,L2,Bot*%
%TF.FilePolarity,Positive*%
%FSLAX46Y46*%
G04 Gerber Fmt 4.6, Leading zero omitted, Abs format (unit mm)*
G04 Created by KiCad (PCBNEW 5.99.0+really5.1.9+dfsg1-1) date 2021-05-13 21:59:57*
%MOMM*%
%LPD*%
G01*
G04 APERTURE LIST*
%TA.AperFunction,ComponentPad*%
%ADD10O,1.700000X1.700000*%
%TD*%
%TA.AperFunction,ComponentPad*%
%ADD11R,1.700000X1.700000*%
%TD*%
%TA.AperFunction,ComponentPad*%
%ADD12C,1.600200*%
%TD*%
%TA.AperFunction,ComponentPad*%
%ADD13O,4.500000X2.250000*%
%TD*%
%TA.AperFunction,ComponentPad*%
%ADD14O,2.250000X4.500000*%
%TD*%
%TA.AperFunction,ComponentPad*%
%ADD15O,2.500000X5.000000*%
%TD*%
%TA.AperFunction,ComponentPad*%
%ADD16C,1.700000*%
%TD*%
%TA.AperFunction,ComponentPad*%
%ADD17O,1.600000X1.600000*%
%TD*%
%TA.AperFunction,ComponentPad*%
%ADD18R,1.600000X1.600000*%
%TD*%
%TA.AperFunction,ComponentPad*%
%ADD19C,1.600000*%
%TD*%
%TA.AperFunction,Conductor*%
%ADD20C,0.250000*%
%TD*%
%TA.AperFunction,Conductor*%
%ADD21C,0.760000*%
%TD*%
%TA.AperFunction,NonConductor*%
%ADD22C,0.254000*%
%TD*%
%TA.AperFunction,NonConductor*%
%ADD23C,0.100000*%
%TD*%
%TA.AperFunction,Conductor*%
%ADD24C,0.254000*%
%TD*%
%TA.AperFunction,Conductor*%
%ADD25C,0.100000*%
%TD*%
G04 APERTURE END LIST*
D10*
%TO.P,J7,4*%
%TO.N,Net-(J6-Pad6)*%
X125476000Y-119634000D03*
%TO.P,J7,3*%
%TO.N,Net-(J6-Pad5)*%
X122936000Y-119634000D03*
%TO.P,J7,2*%
%TO.N,Net-(J6-Pad4)*%
X120396000Y-119634000D03*
D11*
%TO.P,J7,1*%
%TO.N,Net-(J6-Pad3)*%
X117856000Y-119634000D03*
%TD*%
D12*
%TO.P,SW2,4*%
%TO.N,Net-(SW2-Pad4)*%
X138684000Y-46939200D03*
%TO.P,SW2,3*%
%TO.N,Net-(SW2-Pad3)*%
X136194800Y-46939200D03*
%TO.P,SW2,2*%
%TO.N,+5V*%
X138684000Y-52832000D03*
%TO.P,SW2,1*%
%TO.N,Net-(J3-Pad1)*%
X136194800Y-52832000D03*
%TD*%
D10*
%TO.P,J6,6*%
%TO.N,Net-(J6-Pad6)*%
X113284000Y-127254000D03*
%TO.P,J6,5*%
%TO.N,Net-(J6-Pad5)*%
X113284000Y-124714000D03*
%TO.P,J6,4*%
%TO.N,Net-(J6-Pad4)*%
X113284000Y-122174000D03*
%TO.P,J6,3*%
%TO.N,Net-(J6-Pad3)*%
X113284000Y-119634000D03*
%TO.P,J6,2*%
%TO.N,Net-(J6-Pad2)*%
X113284000Y-117094000D03*
D11*
%TO.P,J6,1*%
%TO.N,Net-(J6-Pad1)*%
X113284000Y-114554000D03*
%TD*%
D10*
%TO.P,J5,2*%
%TO.N,Net-(J5-Pad2)*%
X147066000Y-139192000D03*
D11*
%TO.P,J5,1*%
%TO.N,Net-(D1-Pad2)*%
X149606000Y-139192000D03*
%TD*%
D10*
%TO.P,J4,4*%
%TO.N,ENC_DAT*%
X132080000Y-96012000D03*
%TO.P,J4,3*%
%TO.N,ENC_CLK*%
X132080000Y-98552000D03*
%TO.P,J4,2*%
%TO.N,ENC_BTN*%
X132080000Y-101092000D03*
D11*
%TO.P,J4,1*%
%TO.N,GND*%
X132080000Y-103632000D03*
%TD*%
D13*
%TO.P,J3,3*%
%TO.N,Net-(J3-Pad3)*%
X153114000Y-59308000D03*
D14*
%TO.P,J3,2*%
%TO.N,GND*%
X156114000Y-64008000D03*
D15*
%TO.P,J3,1*%
%TO.N,Net-(J3-Pad1)*%
X150114000Y-64008000D03*
%TD*%
D10*
%TO.P,J1,6*%
%TO.N,I2C_SDA*%
X132080000Y-139192000D03*
%TO.P,J1,5*%
%TO.N,I2C_SCL*%
X132080000Y-136652000D03*
%TO.P,J1,4*%
%TO.N,+5V*%
X132080000Y-134112000D03*
%TO.P,J1,3*%
%TO.N,GND*%
X132080000Y-131572000D03*
%TO.P,J1,2*%
%TO.N,BTN1*%
X132080000Y-129032000D03*
D11*
%TO.P,J1,1*%
%TO.N,BTN2*%
X132080000Y-126492000D03*
%TD*%
D16*
%TO.P,A1,6*%
%TO.N,+5V*%
X158750000Y-104140000D03*
%TO.P,A1,5*%
%TO.N,GND*%
X156210000Y-104140000D03*
%TO.P,A1,4*%
%TO.N,I2S_LRCLK*%
X153670000Y-104140000D03*
%TO.P,A1,3*%
%TO.N,I2S_DATA*%
X151130000Y-104140000D03*
%TO.P,A1,2*%
%TO.N,I2S_BCLK*%
X148590000Y-104140000D03*
%TO.P,A1,1*%
%TO.N,GND*%
X146050000Y-104140000D03*
%TO.P,A1,7*%
%TO.N,Net-(A1-Pad7)*%
X145415000Y-77470000D03*
%TO.P,A1,8*%
%TO.N,Net-(A1-Pad8)*%
X145415000Y-80010000D03*
%TO.P,A1,9*%
%TO.N,Net-(A1-Pad9)*%
X145415000Y-82550000D03*
%TO.P,A1,10*%
%TO.N,Net-(A1-Pad10)*%
X145415000Y-85090000D03*
%TO.P,A1,11*%
%TO.N,Net-(A1-Pad11)*%
X145415000Y-87630000D03*
%TO.P,A1,12*%
%TO.N,Net-(A1-Pad12)*%
X145415000Y-90170000D03*
%TO.P,A1,13*%
%TO.N,Net-(A1-Pad13)*%
X145415000Y-92710000D03*
%TO.P,A1,14*%
%TO.N,Net-(A1-Pad14)*%
X145415000Y-95250000D03*
%TO.P,A1,15*%
%TO.N,Net-(A1-Pad15)*%
X145415000Y-97790000D03*
%TD*%
D17*
%TO.P,U1,6*%
%TO.N,+3V3*%
X146812000Y-130302000D03*
%TO.P,U1,3*%
%TO.N,Net-(U1-Pad3)*%
X154432000Y-125222000D03*
%TO.P,U1,5*%
%TO.N,GND*%
X146812000Y-127762000D03*
%TO.P,U1,2*%
%TO.N,Net-(D1-Pad2)*%
X154432000Y-127762000D03*
%TO.P,U1,4*%
%TO.N,/GPIO15(RXD0)*%
X146812000Y-125222000D03*
D18*
%TO.P,U1,1*%
%TO.N,Net-(D1-Pad1)*%
X154432000Y-130302000D03*
%TD*%
D17*
%TO.P,R2,2*%
%TO.N,Net-(D1-Pad1)*%
X153670000Y-135382000D03*
D19*
%TO.P,R2,1*%
%TO.N,Net-(J5-Pad2)*%
X146050000Y-135382000D03*
%TD*%
D17*
%TO.P,R1,2*%
%TO.N,+3V3*%
X154178000Y-116332000D03*
D19*
%TO.P,R1,1*%
%TO.N,/GPIO15(RXD0)*%
X146558000Y-116332000D03*
%TD*%
D10*
%TO.P,J2,40*%
%TO.N,I2S_DATA*%
X139446000Y-88392000D03*
%TO.P,J2,39*%
%TO.N,GND*%
X136906000Y-88392000D03*
%TO.P,J2,38*%
%TO.N,/GPIO20(SPI1_MOSI)*%
X139446000Y-90932000D03*
%TO.P,J2,37*%
%TO.N,/GPIO26*%
X136906000Y-90932000D03*
%TO.P,J2,36*%
%TO.N,/GPIO16*%
X139446000Y-93472000D03*
%TO.P,J2,35*%
%TO.N,I2S_LRCLK*%
X136906000Y-93472000D03*
%TO.P,J2,34*%
%TO.N,GND*%
X139446000Y-96012000D03*
%TO.P,J2,33*%
%TO.N,/GPIO13(PWM1)*%
X136906000Y-96012000D03*
%TO.P,J2,32*%
%TO.N,/GPIO12(PWM0)*%
X139446000Y-98552000D03*
%TO.P,J2,31*%
%TO.N,/GPIO6*%
X136906000Y-98552000D03*
%TO.P,J2,30*%
%TO.N,GND*%
X139446000Y-101092000D03*
%TO.P,J2,29*%
%TO.N,/GPIO5*%
X136906000Y-101092000D03*
%TO.P,J2,28*%
%TO.N,/ID_SC*%
X139446000Y-103632000D03*
%TO.P,J2,27*%
%TO.N,/ID_SD*%
X136906000Y-103632000D03*
%TO.P,J2,26*%
%TO.N,/GPIO7(SPI1_CE_N)*%
X139446000Y-106172000D03*
%TO.P,J2,25*%
%TO.N,GND*%
X136906000Y-106172000D03*
%TO.P,J2,24*%
%TO.N,/GPIO8(SPI0_CE_N)*%
X139446000Y-108712000D03*
%TO.P,J2,23*%
%TO.N,/GPIO11(SPI0_CLK)*%
X136906000Y-108712000D03*
%TO.P,J2,22*%
%TO.N,/GPIO25(GEN6)*%
X139446000Y-111252000D03*
%TO.P,J2,21*%
%TO.N,/GPIO9(SPI0_MISO)*%
X136906000Y-111252000D03*
%TO.P,J2,20*%
%TO.N,GND*%
X139446000Y-113792000D03*
%TO.P,J2,19*%
%TO.N,/GPIO10(SPI0_MOSI)*%
X136906000Y-113792000D03*
%TO.P,J2,18*%
%TO.N,/GPIO24(GEN5)*%
X139446000Y-116332000D03*
%TO.P,J2,17*%
%TO.N,Net-(J2-Pad17)*%
X136906000Y-116332000D03*
%TO.P,J2,16*%
%TO.N,ENC_DAT*%
X139446000Y-118872000D03*
%TO.P,J2,15*%
%TO.N,ENC_CLK*%
X136906000Y-118872000D03*
%TO.P,J2,14*%
%TO.N,GND*%
X139446000Y-121412000D03*
%TO.P,J2,13*%
%TO.N,BTN2*%
X136906000Y-121412000D03*
%TO.P,J2,12*%
%TO.N,I2S_BCLK*%
X139446000Y-123952000D03*
%TO.P,J2,11*%
%TO.N,BTN1*%
X136906000Y-123952000D03*
%TO.P,J2,10*%
%TO.N,/GPIO15(RXD0)*%
X139446000Y-126492000D03*
%TO.P,J2,9*%
%TO.N,GND*%
X136906000Y-126492000D03*
%TO.P,J2,8*%
%TO.N,/GPIO14(TXD0)*%
X139446000Y-129032000D03*
%TO.P,J2,7*%
%TO.N,ENC_BTN*%
X136906000Y-129032000D03*
%TO.P,J2,6*%
%TO.N,GND*%
X139446000Y-131572000D03*
%TO.P,J2,5*%
%TO.N,I2C_SCL*%
X136906000Y-131572000D03*
%TO.P,J2,4*%
%TO.N,+5V*%
X139446000Y-134112000D03*
%TO.P,J2,3*%
%TO.N,I2C_SDA*%
X136906000Y-134112000D03*
%TO.P,J2,2*%
%TO.N,+5V*%
X139446000Y-136652000D03*
D11*
%TO.P,J2,1*%
%TO.N,+3V3*%
X136906000Y-136652000D03*
%TD*%
D17*
%TO.P,D1,2*%
%TO.N,Net-(D1-Pad2)*%
X158750000Y-120396000D03*
D18*
%TO.P,D1,1*%
%TO.N,Net-(D1-Pad1)*%
X158750000Y-128016000D03*
%TD*%
D19*
%TO.P,C4,2*%
%TO.N,GND*%
X153750000Y-112268000D03*
%TO.P,C4,1*%
%TO.N,+5V*%
X158750000Y-112268000D03*
%TD*%
%TO.P,C3,2*%
%TO.N,GND*%
X153750000Y-108204000D03*
%TO.P,C3,1*%
%TO.N,+5V*%
X158750000Y-108204000D03*
%TD*%
%TO.P,C2,2*%
%TO.N,GND*%
X151812000Y-120222000D03*
%TO.P,C2,1*%
%TO.N,+3V3*%
X146812000Y-120222000D03*
%TD*%
%TO.P,C1,2*%
%TO.N,GND*%
X142494000Y-69088000D03*
D18*
%TO.P,C1,1*%
%TO.N,+5V*%
X145994000Y-69088000D03*
%TD*%
D20*
%TO.N,GND*%
X136906000Y-126492000D02*
X135890000Y-125476000D01*
D21*
%TO.N,+3V3*%
X146812000Y-131846402D02*
X146812000Y-130302000D01*
X140276401Y-138382001D02*
X146812000Y-131846402D01*
X138636001Y-138382001D02*
X140276401Y-138382001D01*
X136906000Y-136652000D02*
X138636001Y-138382001D01*
X153659598Y-116332000D02*
X154178000Y-116332000D01*
X148192001Y-121799597D02*
X153659598Y-116332000D01*
X148192001Y-128921999D02*
X148192001Y-121799597D01*
X146812000Y-130302000D02*
X148192001Y-128921999D01*
X148192001Y-121602001D02*
X148192001Y-121799597D01*
X146812000Y-120222000D02*
X148192001Y-121602001D01*
D20*
%TO.N,I2C_SDA*%
X136906000Y-134366000D02*
X136906000Y-134112000D01*
X132080000Y-139192000D02*
X136906000Y-134366000D01*
%TO.N,I2C_SCL*%
X136906000Y-131826000D02*
X136906000Y-131572000D01*
X132080000Y-136652000D02*
X136906000Y-131826000D01*
%TO.N,ENC_BTN*%
X135730999Y-126332999D02*
X133350000Y-123952000D01*
X135730999Y-127856999D02*
X135730999Y-126332999D01*
X136906000Y-129032000D02*
X135730999Y-127856999D01*
X133350000Y-102362000D02*
X132080000Y-101092000D01*
X133350000Y-123952000D02*
X133350000Y-102362000D01*
%TD*%
D22*
X126340001Y-85376419D02*
X126343274Y-85409651D01*
X126343274Y-85426137D01*
X126344237Y-85435302D01*
X126371866Y-85681618D01*
X126384297Y-85740098D01*
X126395921Y-85798808D01*
X126398647Y-85807611D01*
X126473592Y-86043869D01*
X126497146Y-86098824D01*
X126519953Y-86154158D01*
X126524336Y-86162264D01*
X126546266Y-86202155D01*
X126482576Y-86265845D01*
X126385723Y-86410795D01*
X126319010Y-86571855D01*
X126285000Y-86742835D01*
X126285000Y-86917165D01*
X126319010Y-87088145D01*
X126377768Y-87230000D01*
X126319010Y-87371855D01*
X126285000Y-87542835D01*
X126285000Y-87717165D01*
X126319010Y-87888145D01*
X126377768Y-88030000D01*
X126319010Y-88171855D01*
X126285000Y-88342835D01*
X126285000Y-88517165D01*
X126319010Y-88688145D01*
X126385723Y-88849205D01*
X126482576Y-88994155D01*
X126546937Y-89058516D01*
X126513081Y-89122191D01*
X126490298Y-89177468D01*
X126466721Y-89232475D01*
X126463997Y-89241278D01*
X126392357Y-89478559D01*
X126380736Y-89537246D01*
X126368300Y-89595752D01*
X126367337Y-89604917D01*
X126343150Y-89851595D01*
X126343150Y-89851608D01*
X126340001Y-89883581D01*
X126340000Y-109760418D01*
X126343274Y-109793660D01*
X126343274Y-109810137D01*
X126344237Y-109819302D01*
X126371866Y-110065618D01*
X126384297Y-110124098D01*
X126395921Y-110182808D01*
X126398647Y-110191611D01*
X126473592Y-110427869D01*
X126497146Y-110482824D01*
X126519953Y-110538158D01*
X126524336Y-110546264D01*
X126546266Y-110586155D01*
X126482576Y-110649845D01*
X126385723Y-110794795D01*
X126319010Y-110955855D01*
X126285000Y-111126835D01*
X126285000Y-111301165D01*
X126319010Y-111472145D01*
X126377768Y-111614000D01*
X126319010Y-111755855D01*
X126285000Y-111926835D01*
X126285000Y-112101165D01*
X126319010Y-112272145D01*
X126377768Y-112414000D01*
X126319010Y-112555855D01*
X126285000Y-112726835D01*
X126285000Y-112901165D01*
X126319010Y-113072145D01*
X126385723Y-113233205D01*
X126482576Y-113378155D01*
X126546937Y-113442516D01*
X126513081Y-113506191D01*
X126490298Y-113561468D01*
X126466721Y-113616475D01*
X126463997Y-113625278D01*
X126392357Y-113862559D01*
X126380736Y-113921246D01*
X126368300Y-113979752D01*
X126367337Y-113988917D01*
X126343150Y-114235595D01*
X126343150Y-114235608D01*
X126340001Y-114267581D01*
X126340001Y-118425313D01*
X126179411Y-118318010D01*
X125909158Y-118206068D01*
X125622260Y-118149000D01*
X125329740Y-118149000D01*
X125042842Y-118206068D01*
X124772589Y-118318010D01*
X124529368Y-118480525D01*
X124322525Y-118687368D01*
X124206000Y-118861760D01*
X124089475Y-118687368D01*
X123882632Y-118480525D01*
X123639411Y-118318010D01*
X123369158Y-118206068D01*
X123082260Y-118149000D01*
X122789740Y-118149000D01*
X122502842Y-118206068D01*
X122232589Y-118318010D01*
X121989368Y-118480525D01*
X121782525Y-118687368D01*
X121666000Y-118861760D01*
X121549475Y-118687368D01*
X121342632Y-118480525D01*
X121099411Y-118318010D01*
X120829158Y-118206068D01*
X120542260Y-118149000D01*
X120249740Y-118149000D01*
X119962842Y-118206068D01*
X119692589Y-118318010D01*
X119449368Y-118480525D01*
X119317513Y-118612380D01*
X119295502Y-118539820D01*
X119236537Y-118429506D01*
X119157185Y-118332815D01*
X119060494Y-118253463D01*
X118950180Y-118194498D01*
X118830482Y-118158188D01*
X118706000Y-118145928D01*
X117006000Y-118145928D01*
X116881518Y-118158188D01*
X116761820Y-118194498D01*
X116651506Y-118253463D01*
X116554815Y-118332815D01*
X116475463Y-118429506D01*
X116416498Y-118539820D01*
X116380188Y-118659518D01*
X116367928Y-118784000D01*
X116367928Y-120484000D01*
X116380188Y-120608482D01*
X116416498Y-120728180D01*
X116475463Y-120838494D01*
X116554815Y-120935185D01*
X116651506Y-121014537D01*
X116761820Y-121073502D01*
X116881518Y-121109812D01*
X117006000Y-121122072D01*
X118706000Y-121122072D01*
X118830482Y-121109812D01*
X118950180Y-121073502D01*
X119060494Y-121014537D01*
X119157185Y-120935185D01*
X119236537Y-120838494D01*
X119295502Y-120728180D01*
X119317513Y-120655620D01*
X119449368Y-120787475D01*
X119692589Y-120949990D01*
X119962842Y-121061932D01*
X120249740Y-121119000D01*
X120542260Y-121119000D01*
X120829158Y-121061932D01*
X121099411Y-120949990D01*
X121342632Y-120787475D01*
X121549475Y-120580632D01*
X121666000Y-120406240D01*
X121782525Y-120580632D01*
X121989368Y-120787475D01*
X122232589Y-120949990D01*
X122502842Y-121061932D01*
X122789740Y-121119000D01*
X123082260Y-121119000D01*
X123369158Y-121061932D01*
X123639411Y-120949990D01*
X123882632Y-120787475D01*
X124089475Y-120580632D01*
X124206000Y-120406240D01*
X124322525Y-120580632D01*
X124529368Y-120787475D01*
X124772589Y-120949990D01*
X125042842Y-121061932D01*
X125329740Y-121119000D01*
X125622260Y-121119000D01*
X125909158Y-121061932D01*
X126179411Y-120949990D01*
X126340001Y-120842687D01*
X126340000Y-141072000D01*
X112420000Y-141072000D01*
X112420000Y-128462688D01*
X112580589Y-128569990D01*
X112850842Y-128681932D01*
X113137740Y-128739000D01*
X113430260Y-128739000D01*
X113717158Y-128681932D01*
X113987411Y-128569990D01*
X114230632Y-128407475D01*
X114437475Y-128200632D01*
X114599990Y-127957411D01*
X114711932Y-127687158D01*
X114769000Y-127400260D01*
X114769000Y-127107740D01*
X114711932Y-126820842D01*
X114599990Y-126550589D01*
X114437475Y-126307368D01*
X114230632Y-126100525D01*
X114056240Y-125984000D01*
X114230632Y-125867475D01*
X114437475Y-125660632D01*
X114599990Y-125417411D01*
X114711932Y-125147158D01*
X114769000Y-124860260D01*
X114769000Y-124567740D01*
X114711932Y-124280842D01*
X114599990Y-124010589D01*
X114437475Y-123767368D01*
X114230632Y-123560525D01*
X114056240Y-123444000D01*
X114230632Y-123327475D01*
X114437475Y-123120632D01*
X114599990Y-122877411D01*
X114711932Y-122607158D01*
X114769000Y-122320260D01*
X114769000Y-122027740D01*
X114711932Y-121740842D01*
X114599990Y-121470589D01*
X114437475Y-121227368D01*
X114230632Y-121020525D01*
X114056240Y-120904000D01*
X114230632Y-120787475D01*
X114437475Y-120580632D01*
X114599990Y-120337411D01*
X114711932Y-120067158D01*
X114769000Y-119780260D01*
X114769000Y-119487740D01*
X114711932Y-119200842D01*
X114599990Y-118930589D01*
X114437475Y-118687368D01*
X114230632Y-118480525D01*
X114056240Y-118364000D01*
X114230632Y-118247475D01*
X114437475Y-118040632D01*
X114599990Y-117797411D01*
X114711932Y-117527158D01*
X114769000Y-117240260D01*
X114769000Y-116947740D01*
X114711932Y-116660842D01*
X114599990Y-116390589D01*
X114437475Y-116147368D01*
X114305620Y-116015513D01*
X114378180Y-115993502D01*
X114488494Y-115934537D01*
X114585185Y-115855185D01*
X114664537Y-115758494D01*
X114723502Y-115648180D01*
X114759812Y-115528482D01*
X114772072Y-115404000D01*
X114772072Y-113704000D01*
X114759812Y-113579518D01*
X114723502Y-113459820D01*
X114664537Y-113349506D01*
X114585185Y-113252815D01*
X114488494Y-113173463D01*
X114378180Y-113114498D01*
X114258482Y-113078188D01*
X114134000Y-113065928D01*
X112434000Y-113065928D01*
X112420000Y-113067307D01*
X112420000Y-96299872D01*
X118161000Y-96299872D01*
X118161000Y-96740128D01*
X118246890Y-97171925D01*
X118415369Y-97578669D01*
X118659962Y-97944729D01*
X118971271Y-98256038D01*
X119337331Y-98500631D01*
X119744075Y-98669110D01*
X120175872Y-98755000D01*
X120616128Y-98755000D01*
X121047925Y-98669110D01*
X121454669Y-98500631D01*
X121820729Y-98256038D01*
X122132038Y-97944729D01*
X122376631Y-97578669D01*
X122545110Y-97171925D01*
X122631000Y-96740128D01*
X122631000Y-96299872D01*
X122545110Y-95868075D01*
X122376631Y-95461331D01*
X122132038Y-95095271D01*
X121820729Y-94783962D01*
X121454669Y-94539369D01*
X121047925Y-94370890D01*
X120616128Y-94285000D01*
X120175872Y-94285000D01*
X119744075Y-94370890D01*
X119337331Y-94539369D01*
X118971271Y-94783962D01*
X118659962Y-95095271D01*
X118415369Y-95461331D01*
X118246890Y-95868075D01*
X118161000Y-96299872D01*
X112420000Y-96299872D01*
X112420000Y-52476000D01*
X126340000Y-52476000D01*
X126340001Y-85376419D01*
%TA.AperFunction,NonConductor*%
D23*
G36*
X126340001Y-85376419D02*
G01*
X126343274Y-85409651D01*
X126343274Y-85426137D01*
X126344237Y-85435302D01*
X126371866Y-85681618D01*
X126384297Y-85740098D01*
X126395921Y-85798808D01*
X126398647Y-85807611D01*
X126473592Y-86043869D01*
X126497146Y-86098824D01*
X126519953Y-86154158D01*
X126524336Y-86162264D01*
X126546266Y-86202155D01*
X126482576Y-86265845D01*
X126385723Y-86410795D01*
X126319010Y-86571855D01*
X126285000Y-86742835D01*
X126285000Y-86917165D01*
X126319010Y-87088145D01*
X126377768Y-87230000D01*
X126319010Y-87371855D01*
X126285000Y-87542835D01*
X126285000Y-87717165D01*
X126319010Y-87888145D01*
X126377768Y-88030000D01*
X126319010Y-88171855D01*
X126285000Y-88342835D01*
X126285000Y-88517165D01*
X126319010Y-88688145D01*
X126385723Y-88849205D01*
X126482576Y-88994155D01*
X126546937Y-89058516D01*
X126513081Y-89122191D01*
X126490298Y-89177468D01*
X126466721Y-89232475D01*
X126463997Y-89241278D01*
X126392357Y-89478559D01*
X126380736Y-89537246D01*
X126368300Y-89595752D01*
X126367337Y-89604917D01*
X126343150Y-89851595D01*
X126343150Y-89851608D01*
X126340001Y-89883581D01*
X126340000Y-109760418D01*
X126343274Y-109793660D01*
X126343274Y-109810137D01*
X126344237Y-109819302D01*
X126371866Y-110065618D01*
X126384297Y-110124098D01*
X126395921Y-110182808D01*
X126398647Y-110191611D01*
X126473592Y-110427869D01*
X126497146Y-110482824D01*
X126519953Y-110538158D01*
X126524336Y-110546264D01*
X126546266Y-110586155D01*
X126482576Y-110649845D01*
X126385723Y-110794795D01*
X126319010Y-110955855D01*
X126285000Y-111126835D01*
X126285000Y-111301165D01*
X126319010Y-111472145D01*
X126377768Y-111614000D01*
X126319010Y-111755855D01*
X126285000Y-111926835D01*
X126285000Y-112101165D01*
X126319010Y-112272145D01*
X126377768Y-112414000D01*
X126319010Y-112555855D01*
X126285000Y-112726835D01*
X126285000Y-112901165D01*
X126319010Y-113072145D01*
X126385723Y-113233205D01*
X126482576Y-113378155D01*
X126546937Y-113442516D01*
X126513081Y-113506191D01*
X126490298Y-113561468D01*
X126466721Y-113616475D01*
X126463997Y-113625278D01*
X126392357Y-113862559D01*
X126380736Y-113921246D01*
X126368300Y-113979752D01*
X126367337Y-113988917D01*
X126343150Y-114235595D01*
X126343150Y-114235608D01*
X126340001Y-114267581D01*
X126340001Y-118425313D01*
X126179411Y-118318010D01*
X125909158Y-118206068D01*
X125622260Y-118149000D01*
X125329740Y-118149000D01*
X125042842Y-118206068D01*
X124772589Y-118318010D01*
X124529368Y-118480525D01*
X124322525Y-118687368D01*
X124206000Y-118861760D01*
X124089475Y-118687368D01*
X123882632Y-118480525D01*
X123639411Y-118318010D01*
X123369158Y-118206068D01*
X123082260Y-118149000D01*
X122789740Y-118149000D01*
X122502842Y-118206068D01*
X122232589Y-118318010D01*
X121989368Y-118480525D01*
X121782525Y-118687368D01*
X121666000Y-118861760D01*
X121549475Y-118687368D01*
X121342632Y-118480525D01*
X121099411Y-118318010D01*
X120829158Y-118206068D01*
X120542260Y-118149000D01*
X120249740Y-118149000D01*
X119962842Y-118206068D01*
X119692589Y-118318010D01*
X119449368Y-118480525D01*
X119317513Y-118612380D01*
X119295502Y-118539820D01*
X119236537Y-118429506D01*
X119157185Y-118332815D01*
X119060494Y-118253463D01*
X118950180Y-118194498D01*
X118830482Y-118158188D01*
X118706000Y-118145928D01*
X117006000Y-118145928D01*
X116881518Y-118158188D01*
X116761820Y-118194498D01*
X116651506Y-118253463D01*
X116554815Y-118332815D01*
X116475463Y-118429506D01*
X116416498Y-118539820D01*
X116380188Y-118659518D01*
X116367928Y-118784000D01*
X116367928Y-120484000D01*
X116380188Y-120608482D01*
X116416498Y-120728180D01*
X116475463Y-120838494D01*
X116554815Y-120935185D01*
X116651506Y-121014537D01*
X116761820Y-121073502D01*
X116881518Y-121109812D01*
X117006000Y-121122072D01*
X118706000Y-121122072D01*
X118830482Y-121109812D01*
X118950180Y-121073502D01*
X119060494Y-121014537D01*
X119157185Y-120935185D01*
X119236537Y-120838494D01*
X119295502Y-120728180D01*
X119317513Y-120655620D01*
X119449368Y-120787475D01*
X119692589Y-120949990D01*
X119962842Y-121061932D01*
X120249740Y-121119000D01*
X120542260Y-121119000D01*
X120829158Y-121061932D01*
X121099411Y-120949990D01*
X121342632Y-120787475D01*
X121549475Y-120580632D01*
X121666000Y-120406240D01*
X121782525Y-120580632D01*
X121989368Y-120787475D01*
X122232589Y-120949990D01*
X122502842Y-121061932D01*
X122789740Y-121119000D01*
X123082260Y-121119000D01*
X123369158Y-121061932D01*
X123639411Y-120949990D01*
X123882632Y-120787475D01*
X124089475Y-120580632D01*
X124206000Y-120406240D01*
X124322525Y-120580632D01*
X124529368Y-120787475D01*
X124772589Y-120949990D01*
X125042842Y-121061932D01*
X125329740Y-121119000D01*
X125622260Y-121119000D01*
X125909158Y-121061932D01*
X126179411Y-120949990D01*
X126340001Y-120842687D01*
X126340000Y-141072000D01*
X112420000Y-141072000D01*
X112420000Y-128462688D01*
X112580589Y-128569990D01*
X112850842Y-128681932D01*
X113137740Y-128739000D01*
X113430260Y-128739000D01*
X113717158Y-128681932D01*
X113987411Y-128569990D01*
X114230632Y-128407475D01*
X114437475Y-128200632D01*
X114599990Y-127957411D01*
X114711932Y-127687158D01*
X114769000Y-127400260D01*
X114769000Y-127107740D01*
X114711932Y-126820842D01*
X114599990Y-126550589D01*
X114437475Y-126307368D01*
X114230632Y-126100525D01*
X114056240Y-125984000D01*
X114230632Y-125867475D01*
X114437475Y-125660632D01*
X114599990Y-125417411D01*
X114711932Y-125147158D01*
X114769000Y-124860260D01*
X114769000Y-124567740D01*
X114711932Y-124280842D01*
X114599990Y-124010589D01*
X114437475Y-123767368D01*
X114230632Y-123560525D01*
X114056240Y-123444000D01*
X114230632Y-123327475D01*
X114437475Y-123120632D01*
X114599990Y-122877411D01*
X114711932Y-122607158D01*
X114769000Y-122320260D01*
X114769000Y-122027740D01*
X114711932Y-121740842D01*
X114599990Y-121470589D01*
X114437475Y-121227368D01*
X114230632Y-121020525D01*
X114056240Y-120904000D01*
X114230632Y-120787475D01*
X114437475Y-120580632D01*
X114599990Y-120337411D01*
X114711932Y-120067158D01*
X114769000Y-119780260D01*
X114769000Y-119487740D01*
X114711932Y-119200842D01*
X114599990Y-118930589D01*
X114437475Y-118687368D01*
X114230632Y-118480525D01*
X114056240Y-118364000D01*
X114230632Y-118247475D01*
X114437475Y-118040632D01*
X114599990Y-117797411D01*
X114711932Y-117527158D01*
X114769000Y-117240260D01*
X114769000Y-116947740D01*
X114711932Y-116660842D01*
X114599990Y-116390589D01*
X114437475Y-116147368D01*
X114305620Y-116015513D01*
X114378180Y-115993502D01*
X114488494Y-115934537D01*
X114585185Y-115855185D01*
X114664537Y-115758494D01*
X114723502Y-115648180D01*
X114759812Y-115528482D01*
X114772072Y-115404000D01*
X114772072Y-113704000D01*
X114759812Y-113579518D01*
X114723502Y-113459820D01*
X114664537Y-113349506D01*
X114585185Y-113252815D01*
X114488494Y-113173463D01*
X114378180Y-113114498D01*
X114258482Y-113078188D01*
X114134000Y-113065928D01*
X112434000Y-113065928D01*
X112420000Y-113067307D01*
X112420000Y-96299872D01*
X118161000Y-96299872D01*
X118161000Y-96740128D01*
X118246890Y-97171925D01*
X118415369Y-97578669D01*
X118659962Y-97944729D01*
X118971271Y-98256038D01*
X119337331Y-98500631D01*
X119744075Y-98669110D01*
X120175872Y-98755000D01*
X120616128Y-98755000D01*
X121047925Y-98669110D01*
X121454669Y-98500631D01*
X121820729Y-98256038D01*
X122132038Y-97944729D01*
X122376631Y-97578669D01*
X122545110Y-97171925D01*
X122631000Y-96740128D01*
X122631000Y-96299872D01*
X122545110Y-95868075D01*
X122376631Y-95461331D01*
X122132038Y-95095271D01*
X121820729Y-94783962D01*
X121454669Y-94539369D01*
X121047925Y-94370890D01*
X120616128Y-94285000D01*
X120175872Y-94285000D01*
X119744075Y-94370890D01*
X119337331Y-94539369D01*
X118971271Y-94783962D01*
X118659962Y-95095271D01*
X118415369Y-95461331D01*
X118246890Y-95868075D01*
X118161000Y-96299872D01*
X112420000Y-96299872D01*
X112420000Y-52476000D01*
X126340000Y-52476000D01*
X126340001Y-85376419D01*
G37*
%TD.AperFunction*%
D22*
X112511760Y-125984000D02*
X112420000Y-126045312D01*
X112420000Y-125922688D01*
X112511760Y-125984000D01*
%TA.AperFunction,NonConductor*%
D23*
G36*
X112511760Y-125984000D02*
G01*
X112420000Y-126045312D01*
X112420000Y-125922688D01*
X112511760Y-125984000D01*
G37*
%TD.AperFunction*%
D22*
X112511760Y-123444000D02*
X112420000Y-123505312D01*
X112420000Y-123382688D01*
X112511760Y-123444000D01*
%TA.AperFunction,NonConductor*%
D23*
G36*
X112511760Y-123444000D02*
G01*
X112420000Y-123505312D01*
X112420000Y-123382688D01*
X112511760Y-123444000D01*
G37*
%TD.AperFunction*%
D22*
X112511760Y-120904000D02*
X112420000Y-120965312D01*
X112420000Y-120842688D01*
X112511760Y-120904000D01*
%TA.AperFunction,NonConductor*%
D23*
G36*
X112511760Y-120904000D02*
G01*
X112420000Y-120965312D01*
X112420000Y-120842688D01*
X112511760Y-120904000D01*
G37*
%TD.AperFunction*%
D22*
X112511760Y-118364000D02*
X112420000Y-118425312D01*
X112420000Y-118302688D01*
X112511760Y-118364000D01*
%TA.AperFunction,NonConductor*%
D23*
G36*
X112511760Y-118364000D02*
G01*
X112420000Y-118425312D01*
X112420000Y-118302688D01*
X112511760Y-118364000D01*
G37*
%TD.AperFunction*%
D24*
%TO.N,GND*%
X160630000Y-141072000D02*
X130200000Y-141072000D01*
X130200000Y-125642000D01*
X130591928Y-125642000D01*
X130591928Y-127342000D01*
X130604188Y-127466482D01*
X130640498Y-127586180D01*
X130699463Y-127696494D01*
X130778815Y-127793185D01*
X130875506Y-127872537D01*
X130985820Y-127931502D01*
X131058380Y-127953513D01*
X130926525Y-128085368D01*
X130764010Y-128328589D01*
X130652068Y-128598842D01*
X130595000Y-128885740D01*
X130595000Y-129178260D01*
X130652068Y-129465158D01*
X130764010Y-129735411D01*
X130926525Y-129978632D01*
X131133368Y-130185475D01*
X131315534Y-130307195D01*
X131198645Y-130376822D01*
X130982412Y-130571731D01*
X130808359Y-130805080D01*
X130683175Y-131067901D01*
X130638524Y-131215110D01*
X130759845Y-131445000D01*
X131953000Y-131445000D01*
X131953000Y-131425000D01*
X132207000Y-131425000D01*
X132207000Y-131445000D01*
X133400155Y-131445000D01*
X133521476Y-131215110D01*
X133476825Y-131067901D01*
X133351641Y-130805080D01*
X133177588Y-130571731D01*
X132961355Y-130376822D01*
X132844466Y-130307195D01*
X133026632Y-130185475D01*
X133233475Y-129978632D01*
X133395990Y-129735411D01*
X133507932Y-129465158D01*
X133565000Y-129178260D01*
X133565000Y-128885740D01*
X133507932Y-128598842D01*
X133395990Y-128328589D01*
X133233475Y-128085368D01*
X133101620Y-127953513D01*
X133174180Y-127931502D01*
X133284494Y-127872537D01*
X133381185Y-127793185D01*
X133460537Y-127696494D01*
X133519502Y-127586180D01*
X133555812Y-127466482D01*
X133568072Y-127342000D01*
X133568072Y-125642000D01*
X133555812Y-125517518D01*
X133519502Y-125397820D01*
X133460537Y-125287506D01*
X133381185Y-125190815D01*
X133284494Y-125111463D01*
X133174180Y-125052498D01*
X133054482Y-125016188D01*
X132930000Y-125003928D01*
X131230000Y-125003928D01*
X131105518Y-125016188D01*
X130985820Y-125052498D01*
X130875506Y-125111463D01*
X130778815Y-125190815D01*
X130699463Y-125287506D01*
X130640498Y-125397820D01*
X130604188Y-125517518D01*
X130591928Y-125642000D01*
X130200000Y-125642000D01*
X130200000Y-114267581D01*
X130196726Y-114234339D01*
X130196726Y-114217863D01*
X130195763Y-114208698D01*
X130168134Y-113962382D01*
X130155695Y-113903865D01*
X130144078Y-113845192D01*
X130141353Y-113836389D01*
X130066408Y-113600131D01*
X130042868Y-113545209D01*
X130020048Y-113489842D01*
X130015664Y-113481736D01*
X129993734Y-113441845D01*
X130057424Y-113378155D01*
X130154277Y-113233205D01*
X130220990Y-113072145D01*
X130255000Y-112901165D01*
X130255000Y-112726835D01*
X130220990Y-112555855D01*
X130162232Y-112414000D01*
X130220990Y-112272145D01*
X130255000Y-112101165D01*
X130255000Y-111926835D01*
X130220990Y-111755855D01*
X130162232Y-111614000D01*
X130220990Y-111472145D01*
X130255000Y-111301165D01*
X130255000Y-111126835D01*
X130220990Y-110955855D01*
X130154277Y-110794795D01*
X130057424Y-110649845D01*
X129993063Y-110585484D01*
X130026919Y-110521809D01*
X130049707Y-110466521D01*
X130073279Y-110411525D01*
X130076003Y-110402722D01*
X130147643Y-110165441D01*
X130159264Y-110106754D01*
X130171700Y-110048248D01*
X130172663Y-110039083D01*
X130196850Y-109792405D01*
X130196850Y-109792402D01*
X130200000Y-109760419D01*
X130200000Y-104482000D01*
X130591928Y-104482000D01*
X130604188Y-104606482D01*
X130640498Y-104726180D01*
X130699463Y-104836494D01*
X130778815Y-104933185D01*
X130875506Y-105012537D01*
X130985820Y-105071502D01*
X131105518Y-105107812D01*
X131230000Y-105120072D01*
X131794250Y-105117000D01*
X131953000Y-104958250D01*
X131953000Y-103759000D01*
X130753750Y-103759000D01*
X130595000Y-103917750D01*
X130591928Y-104482000D01*
X130200000Y-104482000D01*
X130200000Y-102782000D01*
X130591928Y-102782000D01*
X130595000Y-103346250D01*
X130753750Y-103505000D01*
X131953000Y-103505000D01*
X131953000Y-103485000D01*
X132207000Y-103485000D01*
X132207000Y-103505000D01*
X132227000Y-103505000D01*
X132227000Y-103759000D01*
X132207000Y-103759000D01*
X132207000Y-104958250D01*
X132365750Y-105117000D01*
X132590001Y-105118221D01*
X132590000Y-123914678D01*
X132586324Y-123952000D01*
X132590000Y-123989322D01*
X132590000Y-123989332D01*
X132600997Y-124100985D01*
X132644454Y-124244246D01*
X132715026Y-124376276D01*
X132754871Y-124424826D01*
X132809999Y-124492001D01*
X132839003Y-124515804D01*
X134971000Y-126647802D01*
X134970999Y-127819676D01*
X134967323Y-127856999D01*
X134970999Y-127894321D01*
X134970999Y-127894331D01*
X134981996Y-128005984D01*
X135013864Y-128111039D01*
X135025453Y-128149245D01*
X135096025Y-128281275D01*
X135134855Y-128328589D01*
X135190998Y-128397000D01*
X135220002Y-128420803D01*
X135464791Y-128665592D01*
X135421000Y-128885740D01*
X135421000Y-129178260D01*
X135478068Y-129465158D01*
X135590010Y-129735411D01*
X135752525Y-129978632D01*
X135959368Y-130185475D01*
X136133760Y-130302000D01*
X135959368Y-130418525D01*
X135752525Y-130625368D01*
X135590010Y-130868589D01*
X135478068Y-131138842D01*
X135421000Y-131425740D01*
X135421000Y-131718260D01*
X135478068Y-132005158D01*
X135529023Y-132128175D01*
X133565000Y-134092199D01*
X133565000Y-133965740D01*
X133507932Y-133678842D01*
X133395990Y-133408589D01*
X133233475Y-133165368D01*
X133026632Y-132958525D01*
X132844466Y-132836805D01*
X132961355Y-132767178D01*
X133177588Y-132572269D01*
X133351641Y-132338920D01*
X133476825Y-132076099D01*
X133521476Y-131928890D01*
X133400155Y-131699000D01*
X132207000Y-131699000D01*
X132207000Y-131719000D01*
X131953000Y-131719000D01*
X131953000Y-131699000D01*
X130759845Y-131699000D01*
X130638524Y-131928890D01*
X130683175Y-132076099D01*
X130808359Y-132338920D01*
X130982412Y-132572269D01*
X131198645Y-132767178D01*
X131315534Y-132836805D01*
X131133368Y-132958525D01*
X130926525Y-133165368D01*
X130764010Y-133408589D01*
X130652068Y-133678842D01*
X130595000Y-133965740D01*
X130595000Y-134258260D01*
X130652068Y-134545158D01*
X130764010Y-134815411D01*
X130926525Y-135058632D01*
X131133368Y-135265475D01*
X131307760Y-135382000D01*
X131133368Y-135498525D01*
X130926525Y-135705368D01*
X130764010Y-135948589D01*
X130652068Y-136218842D01*
X130595000Y-136505740D01*
X130595000Y-136798260D01*
X130652068Y-137085158D01*
X130764010Y-137355411D01*
X130926525Y-137598632D01*
X131133368Y-137805475D01*
X131307760Y-137922000D01*
X131133368Y-138038525D01*
X130926525Y-138245368D01*
X130764010Y-138488589D01*
X130652068Y-138758842D01*
X130595000Y-139045740D01*
X130595000Y-139338260D01*
X130652068Y-139625158D01*
X130764010Y-139895411D01*
X130926525Y-140138632D01*
X131133368Y-140345475D01*
X131376589Y-140507990D01*
X131646842Y-140619932D01*
X131933740Y-140677000D01*
X132226260Y-140677000D01*
X132513158Y-140619932D01*
X132783411Y-140507990D01*
X133026632Y-140345475D01*
X133233475Y-140138632D01*
X133395990Y-139895411D01*
X133507932Y-139625158D01*
X133565000Y-139338260D01*
X133565000Y-139045740D01*
X133521209Y-138825592D01*
X135417928Y-136928874D01*
X135417928Y-137502000D01*
X135430188Y-137626482D01*
X135466498Y-137746180D01*
X135525463Y-137856494D01*
X135604815Y-137953185D01*
X135701506Y-138032537D01*
X135811820Y-138091502D01*
X135931518Y-138127812D01*
X136056000Y-138140072D01*
X136958647Y-138140072D01*
X137883026Y-139064452D01*
X137914815Y-139103187D01*
X138005288Y-139177437D01*
X138069368Y-139230026D01*
X138245697Y-139324276D01*
X138290228Y-139337784D01*
X138437026Y-139382315D01*
X138586138Y-139397001D01*
X138586140Y-139397001D01*
X138636001Y-139401912D01*
X138685861Y-139397001D01*
X140226541Y-139397001D01*
X140276401Y-139401912D01*
X140326261Y-139397001D01*
X140326264Y-139397001D01*
X140475376Y-139382315D01*
X140666704Y-139324276D01*
X140843033Y-139230026D01*
X140997587Y-139103187D01*
X141029380Y-139064447D01*
X141048087Y-139045740D01*
X145581000Y-139045740D01*
X145581000Y-139338260D01*
X145638068Y-139625158D01*
X145750010Y-139895411D01*
X145912525Y-140138632D01*
X146119368Y-140345475D01*
X146362589Y-140507990D01*
X146632842Y-140619932D01*
X146919740Y-140677000D01*
X147212260Y-140677000D01*
X147499158Y-140619932D01*
X147769411Y-140507990D01*
X148012632Y-140345475D01*
X148144487Y-140213620D01*
X148166498Y-140286180D01*
X148225463Y-140396494D01*
X148304815Y-140493185D01*
X148401506Y-140572537D01*
X148511820Y-140631502D01*
X148631518Y-140667812D01*
X148756000Y-140680072D01*
X150456000Y-140680072D01*
X150580482Y-140667812D01*
X150700180Y-140631502D01*
X150810494Y-140572537D01*
X150907185Y-140493185D01*
X150986537Y-140396494D01*
X151045502Y-140286180D01*
X151081812Y-140166482D01*
X151094072Y-140042000D01*
X151094072Y-138342000D01*
X151081812Y-138217518D01*
X151045502Y-138097820D01*
X150986537Y-137987506D01*
X150907185Y-137890815D01*
X150810494Y-137811463D01*
X150700180Y-137752498D01*
X150580482Y-137716188D01*
X150456000Y-137703928D01*
X148756000Y-137703928D01*
X148631518Y-137716188D01*
X148511820Y-137752498D01*
X148401506Y-137811463D01*
X148304815Y-137890815D01*
X148225463Y-137987506D01*
X148166498Y-138097820D01*
X148144487Y-138170380D01*
X148012632Y-138038525D01*
X147769411Y-137876010D01*
X147499158Y-137764068D01*
X147212260Y-137707000D01*
X146919740Y-137707000D01*
X146632842Y-137764068D01*
X146362589Y-137876010D01*
X146119368Y-138038525D01*
X145912525Y-138245368D01*
X145750010Y-138488589D01*
X145638068Y-138758842D01*
X145581000Y-139045740D01*
X141048087Y-139045740D01*
X144615000Y-135478828D01*
X144615000Y-135523335D01*
X144670147Y-135800574D01*
X144778320Y-136061727D01*
X144935363Y-136296759D01*
X145135241Y-136496637D01*
X145370273Y-136653680D01*
X145631426Y-136761853D01*
X145908665Y-136817000D01*
X146191335Y-136817000D01*
X146468574Y-136761853D01*
X146729727Y-136653680D01*
X146964759Y-136496637D01*
X147164637Y-136296759D01*
X147321680Y-136061727D01*
X147429853Y-135800574D01*
X147485000Y-135523335D01*
X147485000Y-135240665D01*
X152235000Y-135240665D01*
X152235000Y-135523335D01*
X152290147Y-135800574D01*
X152398320Y-136061727D01*
X152555363Y-136296759D01*
X152755241Y-136496637D01*
X152990273Y-136653680D01*
X153251426Y-136761853D01*
X153528665Y-136817000D01*
X153811335Y-136817000D01*
X154088574Y-136761853D01*
X154349727Y-136653680D01*
X154584759Y-136496637D01*
X154784637Y-136296759D01*
X154941680Y-136061727D01*
X155049853Y-135800574D01*
X155105000Y-135523335D01*
X155105000Y-135240665D01*
X155049853Y-134963426D01*
X154941680Y-134702273D01*
X154784637Y-134467241D01*
X154584759Y-134267363D01*
X154349727Y-134110320D01*
X154088574Y-134002147D01*
X153811335Y-133947000D01*
X153528665Y-133947000D01*
X153251426Y-134002147D01*
X152990273Y-134110320D01*
X152755241Y-134267363D01*
X152555363Y-134467241D01*
X152398320Y-134702273D01*
X152290147Y-134963426D01*
X152235000Y-135240665D01*
X147485000Y-135240665D01*
X147429853Y-134963426D01*
X147321680Y-134702273D01*
X147164637Y-134467241D01*
X146964759Y-134267363D01*
X146729727Y-134110320D01*
X146468574Y-134002147D01*
X146191335Y-133947000D01*
X146146829Y-133947000D01*
X147494457Y-132599372D01*
X147533186Y-132567588D01*
X147620682Y-132460974D01*
X147660025Y-132413035D01*
X147754275Y-132236705D01*
X147754275Y-132236704D01*
X147812314Y-132045377D01*
X147827000Y-131896265D01*
X147827000Y-131896263D01*
X147831911Y-131846402D01*
X147827000Y-131796541D01*
X147827000Y-131316396D01*
X147926637Y-131216759D01*
X148083680Y-130981727D01*
X148191853Y-130720574D01*
X148247000Y-130443335D01*
X148247000Y-130302426D01*
X148874457Y-129674970D01*
X148913187Y-129643185D01*
X148952076Y-129595799D01*
X149029055Y-129502000D01*
X152993928Y-129502000D01*
X152993928Y-131102000D01*
X153006188Y-131226482D01*
X153042498Y-131346180D01*
X153101463Y-131456494D01*
X153180815Y-131553185D01*
X153277506Y-131632537D01*
X153387820Y-131691502D01*
X153507518Y-131727812D01*
X153632000Y-131740072D01*
X155232000Y-131740072D01*
X155356482Y-131727812D01*
X155476180Y-131691502D01*
X155586494Y-131632537D01*
X155683185Y-131553185D01*
X155762537Y-131456494D01*
X155821502Y-131346180D01*
X155857812Y-131226482D01*
X155870072Y-131102000D01*
X155870072Y-129502000D01*
X155857812Y-129377518D01*
X155821502Y-129257820D01*
X155762537Y-129147506D01*
X155683185Y-129050815D01*
X155586494Y-128971463D01*
X155476180Y-128912498D01*
X155356482Y-128876188D01*
X155348039Y-128875357D01*
X155546637Y-128676759D01*
X155703680Y-128441727D01*
X155811853Y-128180574D01*
X155867000Y-127903335D01*
X155867000Y-127620665D01*
X155811853Y-127343426D01*
X155759072Y-127216000D01*
X157311928Y-127216000D01*
X157311928Y-128816000D01*
X157324188Y-128940482D01*
X157360498Y-129060180D01*
X157419463Y-129170494D01*
X157498815Y-129267185D01*
X157595506Y-129346537D01*
X157705820Y-129405502D01*
X157825518Y-129441812D01*
X157950000Y-129454072D01*
X159550000Y-129454072D01*
X159674482Y-129441812D01*
X159794180Y-129405502D01*
X159904494Y-129346537D01*
X160001185Y-129267185D01*
X160080537Y-129170494D01*
X160139502Y-129060180D01*
X160175812Y-128940482D01*
X160188072Y-128816000D01*
X160188072Y-127216000D01*
X160175812Y-127091518D01*
X160139502Y-126971820D01*
X160080537Y-126861506D01*
X160001185Y-126764815D01*
X159904494Y-126685463D01*
X159794180Y-126626498D01*
X159674482Y-126590188D01*
X159550000Y-126577928D01*
X157950000Y-126577928D01*
X157825518Y-126590188D01*
X157705820Y-126626498D01*
X157595506Y-126685463D01*
X157498815Y-126764815D01*
X157419463Y-126861506D01*
X157360498Y-126971820D01*
X157324188Y-127091518D01*
X157311928Y-127216000D01*
X155759072Y-127216000D01*
X155703680Y-127082273D01*
X155546637Y-126847241D01*
X155346759Y-126647363D01*
X155114241Y-126492000D01*
X155346759Y-126336637D01*
X155546637Y-126136759D01*
X155703680Y-125901727D01*
X155811853Y-125640574D01*
X155867000Y-125363335D01*
X155867000Y-125080665D01*
X155811853Y-124803426D01*
X155703680Y-124542273D01*
X155546637Y-124307241D01*
X155346759Y-124107363D01*
X155111727Y-123950320D01*
X154850574Y-123842147D01*
X154573335Y-123787000D01*
X154290665Y-123787000D01*
X154013426Y-123842147D01*
X153752273Y-123950320D01*
X153517241Y-124107363D01*
X153317363Y-124307241D01*
X153160320Y-124542273D01*
X153052147Y-124803426D01*
X152997000Y-125080665D01*
X152997000Y-125363335D01*
X153052147Y-125640574D01*
X153160320Y-125901727D01*
X153317363Y-126136759D01*
X153517241Y-126336637D01*
X153749759Y-126492000D01*
X153517241Y-126647363D01*
X153317363Y-126847241D01*
X153160320Y-127082273D01*
X153052147Y-127343426D01*
X152997000Y-127620665D01*
X152997000Y-127903335D01*
X153052147Y-128180574D01*
X153160320Y-128441727D01*
X153317363Y-128676759D01*
X153515961Y-128875357D01*
X153507518Y-128876188D01*
X153387820Y-128912498D01*
X153277506Y-128971463D01*
X153180815Y-129050815D01*
X153101463Y-129147506D01*
X153042498Y-129257820D01*
X153006188Y-129377518D01*
X152993928Y-129502000D01*
X149029055Y-129502000D01*
X149040026Y-129488632D01*
X149115977Y-129346537D01*
X149134276Y-129312302D01*
X149192315Y-129120974D01*
X149207001Y-128971862D01*
X149207001Y-128971853D01*
X149211911Y-128922000D01*
X149207001Y-128872147D01*
X149207001Y-122220022D01*
X150212321Y-121214702D01*
X150998903Y-121214702D01*
X151070486Y-121458671D01*
X151325996Y-121579571D01*
X151600184Y-121648300D01*
X151882512Y-121662217D01*
X152162130Y-121620787D01*
X152428292Y-121525603D01*
X152553514Y-121458671D01*
X152625097Y-121214702D01*
X151812000Y-120401605D01*
X150998903Y-121214702D01*
X150212321Y-121214702D01*
X150536379Y-120890644D01*
X150575329Y-120963514D01*
X150819298Y-121035097D01*
X151632395Y-120222000D01*
X151991605Y-120222000D01*
X152804702Y-121035097D01*
X153048671Y-120963514D01*
X153169571Y-120708004D01*
X153238300Y-120433816D01*
X153247131Y-120254665D01*
X157315000Y-120254665D01*
X157315000Y-120537335D01*
X157370147Y-120814574D01*
X157478320Y-121075727D01*
X157635363Y-121310759D01*
X157835241Y-121510637D01*
X158070273Y-121667680D01*
X158331426Y-121775853D01*
X158608665Y-121831000D01*
X158891335Y-121831000D01*
X159168574Y-121775853D01*
X159429727Y-121667680D01*
X159664759Y-121510637D01*
X159864637Y-121310759D01*
X160021680Y-121075727D01*
X160129853Y-120814574D01*
X160185000Y-120537335D01*
X160185000Y-120254665D01*
X160129853Y-119977426D01*
X160021680Y-119716273D01*
X159864637Y-119481241D01*
X159664759Y-119281363D01*
X159429727Y-119124320D01*
X159168574Y-119016147D01*
X158891335Y-118961000D01*
X158608665Y-118961000D01*
X158331426Y-119016147D01*
X158070273Y-119124320D01*
X157835241Y-119281363D01*
X157635363Y-119481241D01*
X157478320Y-119716273D01*
X157370147Y-119977426D01*
X157315000Y-120254665D01*
X153247131Y-120254665D01*
X153252217Y-120151488D01*
X153210787Y-119871870D01*
X153115603Y-119605708D01*
X153048671Y-119480486D01*
X152804702Y-119408903D01*
X151991605Y-120222000D01*
X151632395Y-120222000D01*
X151618253Y-120207858D01*
X151797858Y-120028253D01*
X151812000Y-120042395D01*
X152625097Y-119229298D01*
X152553514Y-118985329D01*
X152477610Y-118949413D01*
X153728133Y-117698891D01*
X153759426Y-117711853D01*
X154036665Y-117767000D01*
X154319335Y-117767000D01*
X154596574Y-117711853D01*
X154857727Y-117603680D01*
X155092759Y-117446637D01*
X155292637Y-117246759D01*
X155449680Y-117011727D01*
X155557853Y-116750574D01*
X155613000Y-116473335D01*
X155613000Y-116190665D01*
X155557853Y-115913426D01*
X155449680Y-115652273D01*
X155292637Y-115417241D01*
X155092759Y-115217363D01*
X154857727Y-115060320D01*
X154596574Y-114952147D01*
X154319335Y-114897000D01*
X154036665Y-114897000D01*
X153759426Y-114952147D01*
X153498273Y-115060320D01*
X153263241Y-115217363D01*
X153063363Y-115417241D01*
X152914787Y-115639601D01*
X152906623Y-115649549D01*
X148290799Y-120265373D01*
X148247000Y-120221574D01*
X148247000Y-120080665D01*
X148191853Y-119803426D01*
X148083680Y-119542273D01*
X147926637Y-119307241D01*
X147726759Y-119107363D01*
X147491727Y-118950320D01*
X147230574Y-118842147D01*
X146953335Y-118787000D01*
X146670665Y-118787000D01*
X146393426Y-118842147D01*
X146132273Y-118950320D01*
X145897241Y-119107363D01*
X145697363Y-119307241D01*
X145540320Y-119542273D01*
X145432147Y-119803426D01*
X145377000Y-120080665D01*
X145377000Y-120363335D01*
X145432147Y-120640574D01*
X145540320Y-120901727D01*
X145697363Y-121136759D01*
X145897241Y-121336637D01*
X146132273Y-121493680D01*
X146393426Y-121601853D01*
X146670665Y-121657000D01*
X146811574Y-121657000D01*
X147177002Y-122022429D01*
X147177002Y-123831491D01*
X146953335Y-123787000D01*
X146670665Y-123787000D01*
X146393426Y-123842147D01*
X146132273Y-123950320D01*
X145897241Y-124107363D01*
X145697363Y-124307241D01*
X145540320Y-124542273D01*
X145432147Y-124803426D01*
X145377000Y-125080665D01*
X145377000Y-125363335D01*
X145432147Y-125640574D01*
X145540320Y-125901727D01*
X145697363Y-126136759D01*
X145897241Y-126336637D01*
X146132273Y-126493680D01*
X146142865Y-126498067D01*
X145956869Y-126609615D01*
X145748481Y-126798586D01*
X145580963Y-127024580D01*
X145460754Y-127278913D01*
X145420096Y-127412961D01*
X145542085Y-127635000D01*
X146685000Y-127635000D01*
X146685000Y-127615000D01*
X146939000Y-127615000D01*
X146939000Y-127635000D01*
X146959000Y-127635000D01*
X146959000Y-127889000D01*
X146939000Y-127889000D01*
X146939000Y-127909000D01*
X146685000Y-127909000D01*
X146685000Y-127889000D01*
X145542085Y-127889000D01*
X145420096Y-128111039D01*
X145460754Y-128245087D01*
X145580963Y-128499420D01*
X145748481Y-128725414D01*
X145956869Y-128914385D01*
X146142865Y-129025933D01*
X146132273Y-129030320D01*
X145897241Y-129187363D01*
X145697363Y-129387241D01*
X145540320Y-129622273D01*
X145432147Y-129883426D01*
X145377000Y-130160665D01*
X145377000Y-130443335D01*
X145432147Y-130720574D01*
X145540320Y-130981727D01*
X145697363Y-131216759D01*
X145797000Y-131316396D01*
X145797000Y-131425975D01*
X140895534Y-136327442D01*
X140873932Y-136218842D01*
X140761990Y-135948589D01*
X140599475Y-135705368D01*
X140392632Y-135498525D01*
X140218240Y-135382000D01*
X140392632Y-135265475D01*
X140599475Y-135058632D01*
X140761990Y-134815411D01*
X140873932Y-134545158D01*
X140931000Y-134258260D01*
X140931000Y-133965740D01*
X140873932Y-133678842D01*
X140761990Y-133408589D01*
X140599475Y-133165368D01*
X140392632Y-132958525D01*
X140210466Y-132836805D01*
X140327355Y-132767178D01*
X140543588Y-132572269D01*
X140717641Y-132338920D01*
X140842825Y-132076099D01*
X140887476Y-131928890D01*
X140766155Y-131699000D01*
X139573000Y-131699000D01*
X139573000Y-131719000D01*
X139319000Y-131719000D01*
X139319000Y-131699000D01*
X139299000Y-131699000D01*
X139299000Y-131445000D01*
X139319000Y-131445000D01*
X139319000Y-131425000D01*
X139573000Y-131425000D01*
X139573000Y-131445000D01*
X140766155Y-131445000D01*
X140887476Y-131215110D01*
X140842825Y-131067901D01*
X140717641Y-130805080D01*
X140543588Y-130571731D01*
X140327355Y-130376822D01*
X140210466Y-130307195D01*
X140392632Y-130185475D01*
X140599475Y-129978632D01*
X140761990Y-129735411D01*
X140873932Y-129465158D01*
X140931000Y-129178260D01*
X140931000Y-128885740D01*
X140873932Y-128598842D01*
X140761990Y-128328589D01*
X140599475Y-128085368D01*
X140392632Y-127878525D01*
X140218240Y-127762000D01*
X140392632Y-127645475D01*
X140599475Y-127438632D01*
X140761990Y-127195411D01*
X140873932Y-126925158D01*
X140931000Y-126638260D01*
X140931000Y-126345740D01*
X140873932Y-126058842D01*
X140761990Y-125788589D01*
X140599475Y-125545368D01*
X140392632Y-125338525D01*
X140218240Y-125222000D01*
X140392632Y-125105475D01*
X140599475Y-124898632D01*
X140761990Y-124655411D01*
X140873932Y-124385158D01*
X140931000Y-124098260D01*
X140931000Y-123805740D01*
X140873932Y-123518842D01*
X140761990Y-123248589D01*
X140599475Y-123005368D01*
X140392632Y-122798525D01*
X140210466Y-122676805D01*
X140327355Y-122607178D01*
X140543588Y-122412269D01*
X140717641Y-122178920D01*
X140842825Y-121916099D01*
X140887476Y-121768890D01*
X140766155Y-121539000D01*
X139573000Y-121539000D01*
X139573000Y-121559000D01*
X139319000Y-121559000D01*
X139319000Y-121539000D01*
X139299000Y-121539000D01*
X139299000Y-121285000D01*
X139319000Y-121285000D01*
X139319000Y-121265000D01*
X139573000Y-121265000D01*
X139573000Y-121285000D01*
X140766155Y-121285000D01*
X140887476Y-121055110D01*
X140842825Y-120907901D01*
X140717641Y-120645080D01*
X140543588Y-120411731D01*
X140327355Y-120216822D01*
X140210466Y-120147195D01*
X140392632Y-120025475D01*
X140599475Y-119818632D01*
X140761990Y-119575411D01*
X140873932Y-119305158D01*
X140931000Y-119018260D01*
X140931000Y-118725740D01*
X140873932Y-118438842D01*
X140761990Y-118168589D01*
X140599475Y-117925368D01*
X140392632Y-117718525D01*
X140218240Y-117602000D01*
X140392632Y-117485475D01*
X140599475Y-117278632D01*
X140761990Y-117035411D01*
X140873932Y-116765158D01*
X140931000Y-116478260D01*
X140931000Y-116190665D01*
X145123000Y-116190665D01*
X145123000Y-116473335D01*
X145178147Y-116750574D01*
X145286320Y-117011727D01*
X145443363Y-117246759D01*
X145643241Y-117446637D01*
X145878273Y-117603680D01*
X146139426Y-117711853D01*
X146416665Y-117767000D01*
X146699335Y-117767000D01*
X146976574Y-117711853D01*
X147237727Y-117603680D01*
X147472759Y-117446637D01*
X147672637Y-117246759D01*
X147829680Y-117011727D01*
X147937853Y-116750574D01*
X147993000Y-116473335D01*
X147993000Y-116190665D01*
X147937853Y-115913426D01*
X147829680Y-115652273D01*
X147672637Y-115417241D01*
X147472759Y-115217363D01*
X147237727Y-115060320D01*
X146976574Y-114952147D01*
X146699335Y-114897000D01*
X146416665Y-114897000D01*
X146139426Y-114952147D01*
X145878273Y-115060320D01*
X145643241Y-115217363D01*
X145443363Y-115417241D01*
X145286320Y-115652273D01*
X145178147Y-115913426D01*
X145123000Y-116190665D01*
X140931000Y-116190665D01*
X140931000Y-116185740D01*
X140873932Y-115898842D01*
X140761990Y-115628589D01*
X140599475Y-115385368D01*
X140392632Y-115178525D01*
X140210466Y-115056805D01*
X140327355Y-114987178D01*
X140543588Y-114792269D01*
X140717641Y-114558920D01*
X140842825Y-114296099D01*
X140887476Y-114148890D01*
X140766155Y-113919000D01*
X139573000Y-113919000D01*
X139573000Y-113939000D01*
X139319000Y-113939000D01*
X139319000Y-113919000D01*
X139299000Y-113919000D01*
X139299000Y-113665000D01*
X139319000Y-113665000D01*
X139319000Y-113645000D01*
X139573000Y-113645000D01*
X139573000Y-113665000D01*
X140766155Y-113665000D01*
X140887476Y-113435110D01*
X140842825Y-113287901D01*
X140829870Y-113260702D01*
X152936903Y-113260702D01*
X153008486Y-113504671D01*
X153263996Y-113625571D01*
X153538184Y-113694300D01*
X153820512Y-113708217D01*
X154100130Y-113666787D01*
X154366292Y-113571603D01*
X154491514Y-113504671D01*
X154563097Y-113260702D01*
X153750000Y-112447605D01*
X152936903Y-113260702D01*
X140829870Y-113260702D01*
X140717641Y-113025080D01*
X140543588Y-112791731D01*
X140327355Y-112596822D01*
X140210466Y-112527195D01*
X140392632Y-112405475D01*
X140459595Y-112338512D01*
X152309783Y-112338512D01*
X152351213Y-112618130D01*
X152446397Y-112884292D01*
X152513329Y-113009514D01*
X152757298Y-113081097D01*
X153570395Y-112268000D01*
X153929605Y-112268000D01*
X154742702Y-113081097D01*
X154986671Y-113009514D01*
X155107571Y-112754004D01*
X155176300Y-112479816D01*
X155190217Y-112197488D01*
X155179724Y-112126665D01*
X157315000Y-112126665D01*
X157315000Y-112409335D01*
X157370147Y-112686574D01*
X157478320Y-112947727D01*
X157635363Y-113182759D01*
X157835241Y-113382637D01*
X158070273Y-113539680D01*
X158331426Y-113647853D01*
X158608665Y-113703000D01*
X158891335Y-113703000D01*
X159168574Y-113647853D01*
X159429727Y-113539680D01*
X159664759Y-113382637D01*
X159864637Y-113182759D01*
X160021680Y-112947727D01*
X160129853Y-112686574D01*
X160185000Y-112409335D01*
X160185000Y-112126665D01*
X160129853Y-111849426D01*
X160021680Y-111588273D01*
X159864637Y-111353241D01*
X159664759Y-111153363D01*
X159429727Y-110996320D01*
X159168574Y-110888147D01*
X158891335Y-110833000D01*
X158608665Y-110833000D01*
X158331426Y-110888147D01*
X158070273Y-110996320D01*
X157835241Y-111153363D01*
X157635363Y-111353241D01*
X157478320Y-111588273D01*
X157370147Y-111849426D01*
X157315000Y-112126665D01*
X155179724Y-112126665D01*
X155148787Y-111917870D01*
X155053603Y-111651708D01*
X154986671Y-111526486D01*
X154742702Y-111454903D01*
X153929605Y-112268000D01*
X153570395Y-112268000D01*
X152757298Y-111454903D01*
X152513329Y-111526486D01*
X152392429Y-111781996D01*
X152323700Y-112056184D01*
X152309783Y-112338512D01*
X140459595Y-112338512D01*
X140599475Y-112198632D01*
X140761990Y-111955411D01*
X140873932Y-111685158D01*
X140931000Y-111398260D01*
X140931000Y-111275298D01*
X152936903Y-111275298D01*
X153750000Y-112088395D01*
X154563097Y-111275298D01*
X154491514Y-111031329D01*
X154236004Y-110910429D01*
X153961816Y-110841700D01*
X153679488Y-110827783D01*
X153399870Y-110869213D01*
X153133708Y-110964397D01*
X153008486Y-111031329D01*
X152936903Y-111275298D01*
X140931000Y-111275298D01*
X140931000Y-111105740D01*
X140873932Y-110818842D01*
X140761990Y-110548589D01*
X140599475Y-110305368D01*
X140392632Y-110098525D01*
X140218240Y-109982000D01*
X140392632Y-109865475D01*
X140599475Y-109658632D01*
X140761990Y-109415411D01*
X140852581Y-109196702D01*
X152936903Y-109196702D01*
X153008486Y-109440671D01*
X153263996Y-109561571D01*
X153538184Y-109630300D01*
X153820512Y-109644217D01*
X154100130Y-109602787D01*
X154366292Y-109507603D01*
X154491514Y-109440671D01*
X154563097Y-109196702D01*
X153750000Y-108383605D01*
X152936903Y-109196702D01*
X140852581Y-109196702D01*
X140873932Y-109145158D01*
X140931000Y-108858260D01*
X140931000Y-108565740D01*
X140873932Y-108278842D01*
X140872139Y-108274512D01*
X152309783Y-108274512D01*
X152351213Y-108554130D01*
X152446397Y-108820292D01*
X152513329Y-108945514D01*
X152757298Y-109017097D01*
X153570395Y-108204000D01*
X153929605Y-108204000D01*
X154742702Y-109017097D01*
X154986671Y-108945514D01*
X155107571Y-108690004D01*
X155176300Y-108415816D01*
X155190217Y-108133488D01*
X155179724Y-108062665D01*
X157315000Y-108062665D01*
X157315000Y-108345335D01*
X157370147Y-108622574D01*
X157478320Y-108883727D01*
X157635363Y-109118759D01*
X157835241Y-109318637D01*
X158070273Y-109475680D01*
X158331426Y-109583853D01*
X158608665Y-109639000D01*
X158891335Y-109639000D01*
X159168574Y-109583853D01*
X159429727Y-109475680D01*
X159664759Y-109318637D01*
X159864637Y-109118759D01*
X160021680Y-108883727D01*
X160129853Y-108622574D01*
X160185000Y-108345335D01*
X160185000Y-108062665D01*
X160129853Y-107785426D01*
X160021680Y-107524273D01*
X159864637Y-107289241D01*
X159664759Y-107089363D01*
X159429727Y-106932320D01*
X159168574Y-106824147D01*
X158891335Y-106769000D01*
X158608665Y-106769000D01*
X158331426Y-106824147D01*
X158070273Y-106932320D01*
X157835241Y-107089363D01*
X157635363Y-107289241D01*
X157478320Y-107524273D01*
X157370147Y-107785426D01*
X157315000Y-108062665D01*
X155179724Y-108062665D01*
X155148787Y-107853870D01*
X155053603Y-107587708D01*
X154986671Y-107462486D01*
X154742702Y-107390903D01*
X153929605Y-108204000D01*
X153570395Y-108204000D01*
X152757298Y-107390903D01*
X152513329Y-107462486D01*
X152392429Y-107717996D01*
X152323700Y-107992184D01*
X152309783Y-108274512D01*
X140872139Y-108274512D01*
X140761990Y-108008589D01*
X140599475Y-107765368D01*
X140392632Y-107558525D01*
X140218240Y-107442000D01*
X140392632Y-107325475D01*
X140506809Y-107211298D01*
X152936903Y-107211298D01*
X153750000Y-108024395D01*
X154563097Y-107211298D01*
X154491514Y-106967329D01*
X154236004Y-106846429D01*
X153961816Y-106777700D01*
X153679488Y-106763783D01*
X153399870Y-106805213D01*
X153133708Y-106900397D01*
X153008486Y-106967329D01*
X152936903Y-107211298D01*
X140506809Y-107211298D01*
X140599475Y-107118632D01*
X140761990Y-106875411D01*
X140873932Y-106605158D01*
X140931000Y-106318260D01*
X140931000Y-106025740D01*
X140873932Y-105738842D01*
X140761990Y-105468589D01*
X140599475Y-105225368D01*
X140542504Y-105168397D01*
X145201208Y-105168397D01*
X145278843Y-105417472D01*
X145542883Y-105543371D01*
X145826411Y-105615339D01*
X146118531Y-105630611D01*
X146408019Y-105588599D01*
X146683747Y-105490919D01*
X146821157Y-105417472D01*
X146898792Y-105168397D01*
X146050000Y-104319605D01*
X145201208Y-105168397D01*
X140542504Y-105168397D01*
X140392632Y-105018525D01*
X140218240Y-104902000D01*
X140392632Y-104785475D01*
X140599475Y-104578632D01*
X140761990Y-104335411D01*
X140814545Y-104208531D01*
X144559389Y-104208531D01*
X144601401Y-104498019D01*
X144699081Y-104773747D01*
X144772528Y-104911157D01*
X145021603Y-104988792D01*
X145870395Y-104140000D01*
X146229605Y-104140000D01*
X147078397Y-104988792D01*
X147320689Y-104913271D01*
X147436525Y-105086632D01*
X147643368Y-105293475D01*
X147886589Y-105455990D01*
X148156842Y-105567932D01*
X148443740Y-105625000D01*
X148736260Y-105625000D01*
X149023158Y-105567932D01*
X149293411Y-105455990D01*
X149536632Y-105293475D01*
X149743475Y-105086632D01*
X149860000Y-104912240D01*
X149976525Y-105086632D01*
X150183368Y-105293475D01*
X150426589Y-105455990D01*
X150696842Y-105567932D01*
X150983740Y-105625000D01*
X151276260Y-105625000D01*
X151563158Y-105567932D01*
X151833411Y-105455990D01*
X152076632Y-105293475D01*
X152283475Y-105086632D01*
X152400000Y-104912240D01*
X152516525Y-105086632D01*
X152723368Y-105293475D01*
X152966589Y-105455990D01*
X153236842Y-105567932D01*
X153523740Y-105625000D01*
X153816260Y-105625000D01*
X154103158Y-105567932D01*
X154373411Y-105455990D01*
X154616632Y-105293475D01*
X154741710Y-105168397D01*
X155361208Y-105168397D01*
X155438843Y-105417472D01*
X155702883Y-105543371D01*
X155986411Y-105615339D01*
X156278531Y-105630611D01*
X156568019Y-105588599D01*
X156843747Y-105490919D01*
X156981157Y-105417472D01*
X157058792Y-105168397D01*
X156210000Y-104319605D01*
X155361208Y-105168397D01*
X154741710Y-105168397D01*
X154823475Y-105086632D01*
X154939311Y-104913271D01*
X155181603Y-104988792D01*
X156030395Y-104140000D01*
X156389605Y-104140000D01*
X157238397Y-104988792D01*
X157480689Y-104913271D01*
X157596525Y-105086632D01*
X157803368Y-105293475D01*
X158046589Y-105455990D01*
X158316842Y-105567932D01*
X158603740Y-105625000D01*
X158896260Y-105625000D01*
X159183158Y-105567932D01*
X159453411Y-105455990D01*
X159696632Y-105293475D01*
X159903475Y-105086632D01*
X160065990Y-104843411D01*
X160177932Y-104573158D01*
X160235000Y-104286260D01*
X160235000Y-103993740D01*
X160177932Y-103706842D01*
X160065990Y-103436589D01*
X159903475Y-103193368D01*
X159696632Y-102986525D01*
X159453411Y-102824010D01*
X159183158Y-102712068D01*
X158896260Y-102655000D01*
X158603740Y-102655000D01*
X158316842Y-102712068D01*
X158046589Y-102824010D01*
X157803368Y-102986525D01*
X157596525Y-103193368D01*
X157480689Y-103366729D01*
X157238397Y-103291208D01*
X156389605Y-104140000D01*
X156030395Y-104140000D01*
X155181603Y-103291208D01*
X154939311Y-103366729D01*
X154823475Y-103193368D01*
X154741710Y-103111603D01*
X155361208Y-103111603D01*
X156210000Y-103960395D01*
X157058792Y-103111603D01*
X156981157Y-102862528D01*
X156717117Y-102736629D01*
X156433589Y-102664661D01*
X156141469Y-102649389D01*
X155851981Y-102691401D01*
X155576253Y-102789081D01*
X155438843Y-102862528D01*
X155361208Y-103111603D01*
X154741710Y-103111603D01*
X154616632Y-102986525D01*
X154373411Y-102824010D01*
X154103158Y-102712068D01*
X153816260Y-102655000D01*
X153523740Y-102655000D01*
X153236842Y-102712068D01*
X152966589Y-102824010D01*
X152723368Y-102986525D01*
X152516525Y-103193368D01*
X152400000Y-103367760D01*
X152283475Y-103193368D01*
X152076632Y-102986525D01*
X151833411Y-102824010D01*
X151563158Y-102712068D01*
X151276260Y-102655000D01*
X150983740Y-102655000D01*
X150696842Y-102712068D01*
X150426589Y-102824010D01*
X150183368Y-102986525D01*
X149976525Y-103193368D01*
X149860000Y-103367760D01*
X149743475Y-103193368D01*
X149536632Y-102986525D01*
X149293411Y-102824010D01*
X149023158Y-102712068D01*
X148736260Y-102655000D01*
X148443740Y-102655000D01*
X148156842Y-102712068D01*
X147886589Y-102824010D01*
X147643368Y-102986525D01*
X147436525Y-103193368D01*
X147320689Y-103366729D01*
X147078397Y-103291208D01*
X146229605Y-104140000D01*
X145870395Y-104140000D01*
X145021603Y-103291208D01*
X144772528Y-103368843D01*
X144646629Y-103632883D01*
X144574661Y-103916411D01*
X144559389Y-104208531D01*
X140814545Y-104208531D01*
X140873932Y-104065158D01*
X140931000Y-103778260D01*
X140931000Y-103485740D01*
X140873932Y-103198842D01*
X140837797Y-103111603D01*
X145201208Y-103111603D01*
X146050000Y-103960395D01*
X146898792Y-103111603D01*
X146821157Y-102862528D01*
X146557117Y-102736629D01*
X146273589Y-102664661D01*
X145981469Y-102649389D01*
X145691981Y-102691401D01*
X145416253Y-102789081D01*
X145278843Y-102862528D01*
X145201208Y-103111603D01*
X140837797Y-103111603D01*
X140761990Y-102928589D01*
X140599475Y-102685368D01*
X140392632Y-102478525D01*
X140210466Y-102356805D01*
X140327355Y-102287178D01*
X140543588Y-102092269D01*
X140717641Y-101858920D01*
X140842825Y-101596099D01*
X140887476Y-101448890D01*
X140766155Y-101219000D01*
X139573000Y-101219000D01*
X139573000Y-101239000D01*
X139319000Y-101239000D01*
X139319000Y-101219000D01*
X139299000Y-101219000D01*
X139299000Y-100965000D01*
X139319000Y-100965000D01*
X139319000Y-100945000D01*
X139573000Y-100945000D01*
X139573000Y-100965000D01*
X140766155Y-100965000D01*
X140887476Y-100735110D01*
X140842825Y-100587901D01*
X140717641Y-100325080D01*
X140543588Y-100091731D01*
X140327355Y-99896822D01*
X140210466Y-99827195D01*
X140392632Y-99705475D01*
X140599475Y-99498632D01*
X140761990Y-99255411D01*
X140873932Y-98985158D01*
X140931000Y-98698260D01*
X140931000Y-98405740D01*
X140873932Y-98118842D01*
X140761990Y-97848589D01*
X140599475Y-97605368D01*
X140392632Y-97398525D01*
X140210466Y-97276805D01*
X140327355Y-97207178D01*
X140543588Y-97012269D01*
X140717641Y-96778920D01*
X140842825Y-96516099D01*
X140887476Y-96368890D01*
X140766155Y-96139000D01*
X139573000Y-96139000D01*
X139573000Y-96159000D01*
X139319000Y-96159000D01*
X139319000Y-96139000D01*
X139299000Y-96139000D01*
X139299000Y-95885000D01*
X139319000Y-95885000D01*
X139319000Y-95865000D01*
X139573000Y-95865000D01*
X139573000Y-95885000D01*
X140766155Y-95885000D01*
X140887476Y-95655110D01*
X140842825Y-95507901D01*
X140717641Y-95245080D01*
X140543588Y-95011731D01*
X140327355Y-94816822D01*
X140210466Y-94747195D01*
X140392632Y-94625475D01*
X140599475Y-94418632D01*
X140761990Y-94175411D01*
X140873932Y-93905158D01*
X140931000Y-93618260D01*
X140931000Y-93325740D01*
X140873932Y-93038842D01*
X140761990Y-92768589D01*
X140599475Y-92525368D01*
X140392632Y-92318525D01*
X140218240Y-92202000D01*
X140392632Y-92085475D01*
X140599475Y-91878632D01*
X140761990Y-91635411D01*
X140873932Y-91365158D01*
X140931000Y-91078260D01*
X140931000Y-90785740D01*
X140873932Y-90498842D01*
X140761990Y-90228589D01*
X140599475Y-89985368D01*
X140392632Y-89778525D01*
X140218240Y-89662000D01*
X140392632Y-89545475D01*
X140599475Y-89338632D01*
X140761990Y-89095411D01*
X140873932Y-88825158D01*
X140931000Y-88538260D01*
X140931000Y-88245740D01*
X140873932Y-87958842D01*
X140761990Y-87688589D01*
X140599475Y-87445368D01*
X140392632Y-87238525D01*
X140149411Y-87076010D01*
X139879158Y-86964068D01*
X139592260Y-86907000D01*
X139299740Y-86907000D01*
X139012842Y-86964068D01*
X138742589Y-87076010D01*
X138499368Y-87238525D01*
X138292525Y-87445368D01*
X138174900Y-87621406D01*
X138003588Y-87391731D01*
X137787355Y-87196822D01*
X137537252Y-87047843D01*
X137262891Y-86950519D01*
X137033000Y-87071186D01*
X137033000Y-88265000D01*
X137053000Y-88265000D01*
X137053000Y-88519000D01*
X137033000Y-88519000D01*
X137033000Y-88539000D01*
X136779000Y-88539000D01*
X136779000Y-88519000D01*
X135585845Y-88519000D01*
X135464524Y-88748890D01*
X135509175Y-88896099D01*
X135634359Y-89158920D01*
X135808412Y-89392269D01*
X136024645Y-89587178D01*
X136141534Y-89656805D01*
X135959368Y-89778525D01*
X135752525Y-89985368D01*
X135590010Y-90228589D01*
X135478068Y-90498842D01*
X135421000Y-90785740D01*
X135421000Y-91078260D01*
X135478068Y-91365158D01*
X135590010Y-91635411D01*
X135752525Y-91878632D01*
X135959368Y-92085475D01*
X136133760Y-92202000D01*
X135959368Y-92318525D01*
X135752525Y-92525368D01*
X135590010Y-92768589D01*
X135478068Y-93038842D01*
X135421000Y-93325740D01*
X135421000Y-93618260D01*
X135478068Y-93905158D01*
X135590010Y-94175411D01*
X135752525Y-94418632D01*
X135959368Y-94625475D01*
X136133760Y-94742000D01*
X135959368Y-94858525D01*
X135752525Y-95065368D01*
X135590010Y-95308589D01*
X135478068Y-95578842D01*
X135421000Y-95865740D01*
X135421000Y-96158260D01*
X135478068Y-96445158D01*
X135590010Y-96715411D01*
X135752525Y-96958632D01*
X135959368Y-97165475D01*
X136133760Y-97282000D01*
X135959368Y-97398525D01*
X135752525Y-97605368D01*
X135590010Y-97848589D01*
X135478068Y-98118842D01*
X135421000Y-98405740D01*
X135421000Y-98698260D01*
X135478068Y-98985158D01*
X135590010Y-99255411D01*
X135752525Y-99498632D01*
X135959368Y-99705475D01*
X136133760Y-99822000D01*
X135959368Y-99938525D01*
X135752525Y-100145368D01*
X135590010Y-100388589D01*
X135478068Y-100658842D01*
X135421000Y-100945740D01*
X135421000Y-101238260D01*
X135478068Y-101525158D01*
X135590010Y-101795411D01*
X135752525Y-102038632D01*
X135959368Y-102245475D01*
X136133760Y-102362000D01*
X135959368Y-102478525D01*
X135752525Y-102685368D01*
X135590010Y-102928589D01*
X135478068Y-103198842D01*
X135421000Y-103485740D01*
X135421000Y-103778260D01*
X135478068Y-104065158D01*
X135590010Y-104335411D01*
X135752525Y-104578632D01*
X135959368Y-104785475D01*
X136141534Y-104907195D01*
X136024645Y-104976822D01*
X135808412Y-105171731D01*
X135634359Y-105405080D01*
X135509175Y-105667901D01*
X135464524Y-105815110D01*
X135585845Y-106045000D01*
X136779000Y-106045000D01*
X136779000Y-106025000D01*
X137033000Y-106025000D01*
X137033000Y-106045000D01*
X137053000Y-106045000D01*
X137053000Y-106299000D01*
X137033000Y-106299000D01*
X137033000Y-106319000D01*
X136779000Y-106319000D01*
X136779000Y-106299000D01*
X135585845Y-106299000D01*
X135464524Y-106528890D01*
X135509175Y-106676099D01*
X135634359Y-106938920D01*
X135808412Y-107172269D01*
X136024645Y-107367178D01*
X136141534Y-107436805D01*
X135959368Y-107558525D01*
X135752525Y-107765368D01*
X135590010Y-108008589D01*
X135478068Y-108278842D01*
X135421000Y-108565740D01*
X135421000Y-108858260D01*
X135478068Y-109145158D01*
X135590010Y-109415411D01*
X135752525Y-109658632D01*
X135959368Y-109865475D01*
X136133760Y-109982000D01*
X135959368Y-110098525D01*
X135752525Y-110305368D01*
X135590010Y-110548589D01*
X135478068Y-110818842D01*
X135421000Y-111105740D01*
X135421000Y-111398260D01*
X135478068Y-111685158D01*
X135590010Y-111955411D01*
X135752525Y-112198632D01*
X135959368Y-112405475D01*
X136133760Y-112522000D01*
X135959368Y-112638525D01*
X135752525Y-112845368D01*
X135590010Y-113088589D01*
X135478068Y-113358842D01*
X135421000Y-113645740D01*
X135421000Y-113938260D01*
X135478068Y-114225158D01*
X135590010Y-114495411D01*
X135752525Y-114738632D01*
X135959368Y-114945475D01*
X136133760Y-115062000D01*
X135959368Y-115178525D01*
X135752525Y-115385368D01*
X135590010Y-115628589D01*
X135478068Y-115898842D01*
X135421000Y-116185740D01*
X135421000Y-116478260D01*
X135478068Y-116765158D01*
X135590010Y-117035411D01*
X135752525Y-117278632D01*
X135959368Y-117485475D01*
X136133760Y-117602000D01*
X135959368Y-117718525D01*
X135752525Y-117925368D01*
X135590010Y-118168589D01*
X135478068Y-118438842D01*
X135421000Y-118725740D01*
X135421000Y-119018260D01*
X135478068Y-119305158D01*
X135590010Y-119575411D01*
X135752525Y-119818632D01*
X135959368Y-120025475D01*
X136133760Y-120142000D01*
X135959368Y-120258525D01*
X135752525Y-120465368D01*
X135590010Y-120708589D01*
X135478068Y-120978842D01*
X135421000Y-121265740D01*
X135421000Y-121558260D01*
X135478068Y-121845158D01*
X135590010Y-122115411D01*
X135752525Y-122358632D01*
X135959368Y-122565475D01*
X136133760Y-122682000D01*
X135959368Y-122798525D01*
X135752525Y-123005368D01*
X135590010Y-123248589D01*
X135478068Y-123518842D01*
X135421000Y-123805740D01*
X135421000Y-124098260D01*
X135478068Y-124385158D01*
X135590010Y-124655411D01*
X135752525Y-124898632D01*
X135959368Y-125105475D01*
X136141534Y-125227195D01*
X136024645Y-125296822D01*
X135890521Y-125417719D01*
X134110000Y-123637199D01*
X134110000Y-102399322D01*
X134113676Y-102361999D01*
X134110000Y-102324676D01*
X134110000Y-102324667D01*
X134099003Y-102213014D01*
X134055546Y-102069753D01*
X133984974Y-101937724D01*
X133890001Y-101821999D01*
X133861003Y-101798201D01*
X133521210Y-101458408D01*
X133565000Y-101238260D01*
X133565000Y-100945740D01*
X133507932Y-100658842D01*
X133395990Y-100388589D01*
X133233475Y-100145368D01*
X133026632Y-99938525D01*
X132852240Y-99822000D01*
X133026632Y-99705475D01*
X133233475Y-99498632D01*
X133395990Y-99255411D01*
X133507932Y-98985158D01*
X133565000Y-98698260D01*
X133565000Y-98405740D01*
X133507932Y-98118842D01*
X133395990Y-97848589D01*
X133233475Y-97605368D01*
X133026632Y-97398525D01*
X132852240Y-97282000D01*
X133026632Y-97165475D01*
X133233475Y-96958632D01*
X133395990Y-96715411D01*
X133507932Y-96445158D01*
X133565000Y-96158260D01*
X133565000Y-95865740D01*
X133507932Y-95578842D01*
X133395990Y-95308589D01*
X133233475Y-95065368D01*
X133026632Y-94858525D01*
X132783411Y-94696010D01*
X132513158Y-94584068D01*
X132226260Y-94527000D01*
X131933740Y-94527000D01*
X131646842Y-94584068D01*
X131376589Y-94696010D01*
X131133368Y-94858525D01*
X130926525Y-95065368D01*
X130764010Y-95308589D01*
X130652068Y-95578842D01*
X130595000Y-95865740D01*
X130595000Y-96158260D01*
X130652068Y-96445158D01*
X130764010Y-96715411D01*
X130926525Y-96958632D01*
X131133368Y-97165475D01*
X131307760Y-97282000D01*
X131133368Y-97398525D01*
X130926525Y-97605368D01*
X130764010Y-97848589D01*
X130652068Y-98118842D01*
X130595000Y-98405740D01*
X130595000Y-98698260D01*
X130652068Y-98985158D01*
X130764010Y-99255411D01*
X130926525Y-99498632D01*
X131133368Y-99705475D01*
X131307760Y-99822000D01*
X131133368Y-99938525D01*
X130926525Y-100145368D01*
X130764010Y-100388589D01*
X130652068Y-100658842D01*
X130595000Y-100945740D01*
X130595000Y-101238260D01*
X130652068Y-101525158D01*
X130764010Y-101795411D01*
X130926525Y-102038632D01*
X131058380Y-102170487D01*
X130985820Y-102192498D01*
X130875506Y-102251463D01*
X130778815Y-102330815D01*
X130699463Y-102427506D01*
X130640498Y-102537820D01*
X130604188Y-102657518D01*
X130591928Y-102782000D01*
X130200000Y-102782000D01*
X130200000Y-89883581D01*
X130196726Y-89850339D01*
X130196726Y-89833863D01*
X130195763Y-89824698D01*
X130168134Y-89578382D01*
X130155695Y-89519865D01*
X130144078Y-89461192D01*
X130141353Y-89452389D01*
X130066408Y-89216131D01*
X130042868Y-89161209D01*
X130020048Y-89105842D01*
X130015664Y-89097736D01*
X129993734Y-89057845D01*
X130057424Y-88994155D01*
X130154277Y-88849205D01*
X130220990Y-88688145D01*
X130255000Y-88517165D01*
X130255000Y-88342835D01*
X130220990Y-88171855D01*
X130164349Y-88035110D01*
X135464524Y-88035110D01*
X135585845Y-88265000D01*
X136779000Y-88265000D01*
X136779000Y-87071186D01*
X136549109Y-86950519D01*
X136274748Y-87047843D01*
X136024645Y-87196822D01*
X135808412Y-87391731D01*
X135634359Y-87625080D01*
X135509175Y-87887901D01*
X135464524Y-88035110D01*
X130164349Y-88035110D01*
X130162232Y-88030000D01*
X130220990Y-87888145D01*
X130255000Y-87717165D01*
X130255000Y-87542835D01*
X130220990Y-87371855D01*
X130162232Y-87230000D01*
X130220990Y-87088145D01*
X130255000Y-86917165D01*
X130255000Y-86742835D01*
X130220990Y-86571855D01*
X130154277Y-86410795D01*
X130057424Y-86265845D01*
X129993063Y-86201484D01*
X130026919Y-86137809D01*
X130049707Y-86082521D01*
X130073279Y-86027525D01*
X130076003Y-86018722D01*
X130147643Y-85781441D01*
X130159264Y-85722754D01*
X130171700Y-85664248D01*
X130172663Y-85655083D01*
X130196850Y-85408405D01*
X130196850Y-85408402D01*
X130200000Y-85376419D01*
X130200000Y-82194000D01*
X138716419Y-82194000D01*
X138744865Y-82191198D01*
X138752682Y-82191253D01*
X138761853Y-82190354D01*
X139008357Y-82164446D01*
X139066986Y-82152411D01*
X139125716Y-82141208D01*
X139134532Y-82138546D01*
X139134536Y-82138545D01*
X139134539Y-82138544D01*
X139371314Y-82065249D01*
X139426457Y-82042069D01*
X139481920Y-82019661D01*
X139490054Y-82015335D01*
X139490059Y-82015333D01*
X139490064Y-82015330D01*
X139708086Y-81897447D01*
X139757654Y-81864012D01*
X139807735Y-81831241D01*
X139814876Y-81825416D01*
X140005856Y-81667423D01*
X140047995Y-81624988D01*
X140090745Y-81583125D01*
X140096618Y-81576024D01*
X140253273Y-81383947D01*
X140286374Y-81334125D01*
X140320173Y-81284763D01*
X140324556Y-81276657D01*
X140440919Y-81057809D01*
X140463707Y-81002521D01*
X140487279Y-80947525D01*
X140490003Y-80938722D01*
X140561643Y-80701441D01*
X140573264Y-80642754D01*
X140585700Y-80584248D01*
X140586663Y-80575083D01*
X140610850Y-80328405D01*
X140610850Y-80328402D01*
X140614000Y-80296419D01*
X140614000Y-77323740D01*
X143930000Y-77323740D01*
X143930000Y-77616260D01*
X143987068Y-77903158D01*
X144099010Y-78173411D01*
X144261525Y-78416632D01*
X144468368Y-78623475D01*
X144642760Y-78740000D01*
X144468368Y-78856525D01*
X144261525Y-79063368D01*
X144099010Y-79306589D01*
X143987068Y-79576842D01*
X143930000Y-79863740D01*
X143930000Y-80156260D01*
X143987068Y-80443158D01*
X144099010Y-80713411D01*
X144261525Y-80956632D01*
X144468368Y-81163475D01*
X144642760Y-81280000D01*
X144468368Y-81396525D01*
X144261525Y-81603368D01*
X144099010Y-81846589D01*
X143987068Y-82116842D01*
X143930000Y-82403740D01*
X143930000Y-82696260D01*
X143987068Y-82983158D01*
X144099010Y-83253411D01*
X144261525Y-83496632D01*
X144468368Y-83703475D01*
X144642760Y-83820000D01*
X144468368Y-83936525D01*
X144261525Y-84143368D01*
X144099010Y-84386589D01*
X143987068Y-84656842D01*
X143930000Y-84943740D01*
X143930000Y-85236260D01*
X143987068Y-85523158D01*
X144099010Y-85793411D01*
X144261525Y-86036632D01*
X144468368Y-86243475D01*
X144642760Y-86360000D01*
X144468368Y-86476525D01*
X144261525Y-86683368D01*
X144099010Y-86926589D01*
X143987068Y-87196842D01*
X143930000Y-87483740D01*
X143930000Y-87776260D01*
X143987068Y-88063158D01*
X144099010Y-88333411D01*
X144261525Y-88576632D01*
X144468368Y-88783475D01*
X144642760Y-88900000D01*
X144468368Y-89016525D01*
X144261525Y-89223368D01*
X144099010Y-89466589D01*
X143987068Y-89736842D01*
X143930000Y-90023740D01*
X143930000Y-90316260D01*
X143987068Y-90603158D01*
X144099010Y-90873411D01*
X144261525Y-91116632D01*
X144468368Y-91323475D01*
X144642760Y-91440000D01*
X144468368Y-91556525D01*
X144261525Y-91763368D01*
X144099010Y-92006589D01*
X143987068Y-92276842D01*
X143930000Y-92563740D01*
X143930000Y-92856260D01*
X143987068Y-93143158D01*
X144099010Y-93413411D01*
X144261525Y-93656632D01*
X144468368Y-93863475D01*
X144642760Y-93980000D01*
X144468368Y-94096525D01*
X144261525Y-94303368D01*
X144099010Y-94546589D01*
X143987068Y-94816842D01*
X143930000Y-95103740D01*
X143930000Y-95396260D01*
X143987068Y-95683158D01*
X144099010Y-95953411D01*
X144261525Y-96196632D01*
X144468368Y-96403475D01*
X144642760Y-96520000D01*
X144468368Y-96636525D01*
X144261525Y-96843368D01*
X144099010Y-97086589D01*
X143987068Y-97356842D01*
X143930000Y-97643740D01*
X143930000Y-97936260D01*
X143987068Y-98223158D01*
X144099010Y-98493411D01*
X144261525Y-98736632D01*
X144468368Y-98943475D01*
X144711589Y-99105990D01*
X144981842Y-99217932D01*
X145268740Y-99275000D01*
X145561260Y-99275000D01*
X145848158Y-99217932D01*
X146118411Y-99105990D01*
X146361632Y-98943475D01*
X146568475Y-98736632D01*
X146730990Y-98493411D01*
X146842932Y-98223158D01*
X146900000Y-97936260D01*
X146900000Y-97643740D01*
X146842932Y-97356842D01*
X146730990Y-97086589D01*
X146568475Y-96843368D01*
X146361632Y-96636525D01*
X146187240Y-96520000D01*
X146361632Y-96403475D01*
X146568475Y-96196632D01*
X146730990Y-95953411D01*
X146842932Y-95683158D01*
X146900000Y-95396260D01*
X146900000Y-95103740D01*
X146842932Y-94816842D01*
X146730990Y-94546589D01*
X146568475Y-94303368D01*
X146361632Y-94096525D01*
X146187240Y-93980000D01*
X146361632Y-93863475D01*
X146568475Y-93656632D01*
X146730990Y-93413411D01*
X146842932Y-93143158D01*
X146900000Y-92856260D01*
X146900000Y-92563740D01*
X146842932Y-92276842D01*
X146730990Y-92006589D01*
X146568475Y-91763368D01*
X146361632Y-91556525D01*
X146187240Y-91440000D01*
X146361632Y-91323475D01*
X146568475Y-91116632D01*
X146730990Y-90873411D01*
X146842932Y-90603158D01*
X146900000Y-90316260D01*
X146900000Y-90023740D01*
X146842932Y-89736842D01*
X146730990Y-89466589D01*
X146568475Y-89223368D01*
X146361632Y-89016525D01*
X146187240Y-88900000D01*
X146361632Y-88783475D01*
X146568475Y-88576632D01*
X146730990Y-88333411D01*
X146842932Y-88063158D01*
X146900000Y-87776260D01*
X146900000Y-87483740D01*
X146842932Y-87196842D01*
X146730990Y-86926589D01*
X146568475Y-86683368D01*
X146361632Y-86476525D01*
X146187240Y-86360000D01*
X146361632Y-86243475D01*
X146568475Y-86036632D01*
X146730990Y-85793411D01*
X146842932Y-85523158D01*
X146900000Y-85236260D01*
X146900000Y-84943740D01*
X146842932Y-84656842D01*
X146730990Y-84386589D01*
X146568475Y-84143368D01*
X146361632Y-83936525D01*
X146187240Y-83820000D01*
X146361632Y-83703475D01*
X146568475Y-83496632D01*
X146730990Y-83253411D01*
X146842932Y-82983158D01*
X146900000Y-82696260D01*
X146900000Y-82403740D01*
X146842932Y-82116842D01*
X146730990Y-81846589D01*
X146568475Y-81603368D01*
X146361632Y-81396525D01*
X146187240Y-81280000D01*
X146361632Y-81163475D01*
X146568475Y-80956632D01*
X146730990Y-80713411D01*
X146842932Y-80443158D01*
X146900000Y-80156260D01*
X146900000Y-79863740D01*
X146842932Y-79576842D01*
X146730990Y-79306589D01*
X146568475Y-79063368D01*
X146361632Y-78856525D01*
X146187240Y-78740000D01*
X146361632Y-78623475D01*
X146568475Y-78416632D01*
X146730990Y-78173411D01*
X146842932Y-77903158D01*
X146900000Y-77616260D01*
X146900000Y-77323740D01*
X146842932Y-77036842D01*
X146730990Y-76766589D01*
X146568475Y-76523368D01*
X146361632Y-76316525D01*
X146118411Y-76154010D01*
X145848158Y-76042068D01*
X145561260Y-75985000D01*
X145268740Y-75985000D01*
X144981842Y-76042068D01*
X144711589Y-76154010D01*
X144468368Y-76316525D01*
X144261525Y-76523368D01*
X144099010Y-76766589D01*
X143987068Y-77036842D01*
X143930000Y-77323740D01*
X140614000Y-77323740D01*
X140614000Y-70080702D01*
X141680903Y-70080702D01*
X141752486Y-70324671D01*
X142007996Y-70445571D01*
X142282184Y-70514300D01*
X142564512Y-70528217D01*
X142844130Y-70486787D01*
X143110292Y-70391603D01*
X143235514Y-70324671D01*
X143307097Y-70080702D01*
X142494000Y-69267605D01*
X141680903Y-70080702D01*
X140614000Y-70080702D01*
X140614000Y-69158512D01*
X141053783Y-69158512D01*
X141095213Y-69438130D01*
X141190397Y-69704292D01*
X141257329Y-69829514D01*
X141501298Y-69901097D01*
X142314395Y-69088000D01*
X142673605Y-69088000D01*
X143486702Y-69901097D01*
X143730671Y-69829514D01*
X143851571Y-69574004D01*
X143920300Y-69299816D01*
X143934217Y-69017488D01*
X143892787Y-68737870D01*
X143797603Y-68471708D01*
X143730671Y-68346486D01*
X143531340Y-68288000D01*
X144555928Y-68288000D01*
X144555928Y-69888000D01*
X144568188Y-70012482D01*
X144604498Y-70132180D01*
X144663463Y-70242494D01*
X144742815Y-70339185D01*
X144839506Y-70418537D01*
X144949820Y-70477502D01*
X145069518Y-70513812D01*
X145194000Y-70526072D01*
X146794000Y-70526072D01*
X146918482Y-70513812D01*
X147038180Y-70477502D01*
X147148494Y-70418537D01*
X147245185Y-70339185D01*
X147324537Y-70242494D01*
X147383502Y-70132180D01*
X147419812Y-70012482D01*
X147432072Y-69888000D01*
X147432072Y-68288000D01*
X147419812Y-68163518D01*
X147383502Y-68043820D01*
X147324537Y-67933506D01*
X147245185Y-67836815D01*
X147148494Y-67757463D01*
X147038180Y-67698498D01*
X146918482Y-67662188D01*
X146794000Y-67649928D01*
X145194000Y-67649928D01*
X145069518Y-67662188D01*
X144949820Y-67698498D01*
X144839506Y-67757463D01*
X144742815Y-67836815D01*
X144663463Y-67933506D01*
X144604498Y-68043820D01*
X144568188Y-68163518D01*
X144555928Y-68288000D01*
X143531340Y-68288000D01*
X143486702Y-68274903D01*
X142673605Y-69088000D01*
X142314395Y-69088000D01*
X141501298Y-68274903D01*
X141257329Y-68346486D01*
X141136429Y-68601996D01*
X141067700Y-68876184D01*
X141053783Y-69158512D01*
X140614000Y-69158512D01*
X140614000Y-68095298D01*
X141680903Y-68095298D01*
X142494000Y-68908395D01*
X143307097Y-68095298D01*
X143235514Y-67851329D01*
X142980004Y-67730429D01*
X142705816Y-67661700D01*
X142423488Y-67647783D01*
X142143870Y-67689213D01*
X141877708Y-67784397D01*
X141752486Y-67851329D01*
X141680903Y-68095298D01*
X140614000Y-68095298D01*
X140614000Y-62665404D01*
X148229000Y-62665404D01*
X148229001Y-65350597D01*
X148256276Y-65627524D01*
X148364062Y-65982848D01*
X148539098Y-66310317D01*
X148774656Y-66597345D01*
X149061684Y-66832903D01*
X149389153Y-67007939D01*
X149744477Y-67115725D01*
X150114000Y-67152120D01*
X150483524Y-67115725D01*
X150838848Y-67007939D01*
X151166317Y-66832903D01*
X151453345Y-66597345D01*
X151688903Y-66310317D01*
X151863939Y-65982848D01*
X151971725Y-65627524D01*
X151999000Y-65350597D01*
X151999000Y-64135000D01*
X154354000Y-64135000D01*
X154354000Y-65260000D01*
X154412594Y-65600919D01*
X154536573Y-65923856D01*
X154721171Y-66216401D01*
X154959295Y-66467311D01*
X155241793Y-66666944D01*
X155557810Y-66807629D01*
X155713957Y-66846933D01*
X155987000Y-66729206D01*
X155987000Y-64135000D01*
X156241000Y-64135000D01*
X156241000Y-66729206D01*
X156514043Y-66846933D01*
X156670190Y-66807629D01*
X156986207Y-66666944D01*
X157268705Y-66467311D01*
X157506829Y-66216401D01*
X157691427Y-65923856D01*
X157815406Y-65600919D01*
X157874000Y-65260000D01*
X157874000Y-64135000D01*
X156241000Y-64135000D01*
X155987000Y-64135000D01*
X154354000Y-64135000D01*
X151999000Y-64135000D01*
X151999000Y-62756000D01*
X154354000Y-62756000D01*
X154354000Y-63881000D01*
X155987000Y-63881000D01*
X155987000Y-61286794D01*
X156241000Y-61286794D01*
X156241000Y-63881000D01*
X157874000Y-63881000D01*
X157874000Y-62756000D01*
X157815406Y-62415081D01*
X157691427Y-62092144D01*
X157506829Y-61799599D01*
X157268705Y-61548689D01*
X156986207Y-61349056D01*
X156670190Y-61208371D01*
X156514043Y-61169067D01*
X156241000Y-61286794D01*
X155987000Y-61286794D01*
X155713957Y-61169067D01*
X155557810Y-61208371D01*
X155241793Y-61349056D01*
X154959295Y-61548689D01*
X154721171Y-61799599D01*
X154536573Y-62092144D01*
X154412594Y-62415081D01*
X154354000Y-62756000D01*
X151999000Y-62756000D01*
X151999000Y-62665403D01*
X151971725Y-62388476D01*
X151863939Y-62033152D01*
X151688903Y-61705683D01*
X151453345Y-61418655D01*
X151166317Y-61183097D01*
X150838847Y-61008061D01*
X150483523Y-60900275D01*
X150114000Y-60863880D01*
X149744476Y-60900275D01*
X149389152Y-61008061D01*
X149061683Y-61183097D01*
X148774655Y-61418655D01*
X148539097Y-61705683D01*
X148364061Y-62033153D01*
X148256275Y-62388477D01*
X148229000Y-62665404D01*
X140614000Y-62665404D01*
X140614000Y-59308000D01*
X150220485Y-59308000D01*
X150254467Y-59653020D01*
X150355105Y-59984781D01*
X150518534Y-60290534D01*
X150738471Y-60558529D01*
X151006466Y-60778466D01*
X151312219Y-60941895D01*
X151643980Y-61042533D01*
X151902547Y-61068000D01*
X154325453Y-61068000D01*
X154584020Y-61042533D01*
X154915781Y-60941895D01*
X155221534Y-60778466D01*
X155489529Y-60558529D01*
X155709466Y-60290534D01*
X155872895Y-59984781D01*
X155973533Y-59653020D01*
X156007515Y-59308000D01*
X155973533Y-58962980D01*
X155872895Y-58631219D01*
X155709466Y-58325466D01*
X155489529Y-58057471D01*
X155221534Y-57837534D01*
X154915781Y-57674105D01*
X154584020Y-57573467D01*
X154325453Y-57548000D01*
X151902547Y-57548000D01*
X151643980Y-57573467D01*
X151312219Y-57674105D01*
X151006466Y-57837534D01*
X150738471Y-58057471D01*
X150518534Y-58325466D01*
X150355105Y-58631219D01*
X150254467Y-58962980D01*
X150220485Y-59308000D01*
X140614000Y-59308000D01*
X140614000Y-57117581D01*
X140611198Y-57089135D01*
X140611253Y-57081318D01*
X140610354Y-57072147D01*
X140584446Y-56825644D01*
X140572414Y-56767028D01*
X140561208Y-56708284D01*
X140558544Y-56699462D01*
X140485249Y-56462686D01*
X140462074Y-56407555D01*
X140439661Y-56352080D01*
X140435334Y-56343944D01*
X140317446Y-56125914D01*
X140284012Y-56076346D01*
X140251240Y-56026265D01*
X140245416Y-56019124D01*
X140087423Y-55828144D01*
X140044988Y-55786005D01*
X140003125Y-55743255D01*
X139996024Y-55737381D01*
X139803946Y-55580727D01*
X139754169Y-55547655D01*
X139704763Y-55513826D01*
X139696657Y-55509444D01*
X139477809Y-55393081D01*
X139422532Y-55370298D01*
X139367525Y-55346721D01*
X139358722Y-55343997D01*
X139121441Y-55272357D01*
X139062754Y-55260736D01*
X139004248Y-55248300D01*
X138995085Y-55247337D01*
X138995083Y-55247337D01*
X138748405Y-55223150D01*
X138748402Y-55223150D01*
X138716419Y-55220000D01*
X133248000Y-55220000D01*
X133248000Y-52690655D01*
X134759700Y-52690655D01*
X134759700Y-52973345D01*
X134814850Y-53250603D01*
X134923031Y-53511775D01*
X135080085Y-53746823D01*
X135279977Y-53946715D01*
X135515025Y-54103769D01*
X135776197Y-54211950D01*
X136053455Y-54267100D01*
X136336145Y-54267100D01*
X136613403Y-54211950D01*
X136874575Y-54103769D01*
X137109623Y-53946715D01*
X137309515Y-53746823D01*
X137439400Y-53552436D01*
X137569285Y-53746823D01*
X137769177Y-53946715D01*
X138004225Y-54103769D01*
X138265397Y-54211950D01*
X138542655Y-54267100D01*
X138825345Y-54267100D01*
X139102603Y-54211950D01*
X139363775Y-54103769D01*
X139598823Y-53946715D01*
X139798715Y-53746823D01*
X139955769Y-53511775D01*
X140063950Y-53250603D01*
X140119100Y-52973345D01*
X140119100Y-52690655D01*
X140063950Y-52413397D01*
X139955769Y-52152225D01*
X139804841Y-51926345D01*
X148526500Y-51926345D01*
X148526500Y-52239055D01*
X148587507Y-52545757D01*
X148707176Y-52834663D01*
X148880908Y-53094672D01*
X149102028Y-53315792D01*
X149362037Y-53489524D01*
X149650943Y-53609193D01*
X149957645Y-53670200D01*
X150270355Y-53670200D01*
X150577057Y-53609193D01*
X150865963Y-53489524D01*
X151125972Y-53315792D01*
X151347092Y-53094672D01*
X151520824Y-52834663D01*
X151640493Y-52545757D01*
X151701500Y-52239055D01*
X151701500Y-51926345D01*
X151640493Y-51619643D01*
X151520824Y-51330737D01*
X151347092Y-51070728D01*
X151125972Y-50849608D01*
X150865963Y-50675876D01*
X150577057Y-50556207D01*
X150270355Y-50495200D01*
X149957645Y-50495200D01*
X149650943Y-50556207D01*
X149362037Y-50675876D01*
X149102028Y-50849608D01*
X148880908Y-51070728D01*
X148707176Y-51330737D01*
X148587507Y-51619643D01*
X148526500Y-51926345D01*
X139804841Y-51926345D01*
X139798715Y-51917177D01*
X139598823Y-51717285D01*
X139363775Y-51560231D01*
X139102603Y-51452050D01*
X138825345Y-51396900D01*
X138542655Y-51396900D01*
X138265397Y-51452050D01*
X138004225Y-51560231D01*
X137769177Y-51717285D01*
X137569285Y-51917177D01*
X137439400Y-52111564D01*
X137309515Y-51917177D01*
X137109623Y-51717285D01*
X136874575Y-51560231D01*
X136613403Y-51452050D01*
X136336145Y-51396900D01*
X136053455Y-51396900D01*
X135776197Y-51452050D01*
X135515025Y-51560231D01*
X135279977Y-51717285D01*
X135080085Y-51917177D01*
X134923031Y-52152225D01*
X134814850Y-52413397D01*
X134759700Y-52690655D01*
X133248000Y-52690655D01*
X133248000Y-46797855D01*
X134759700Y-46797855D01*
X134759700Y-47080545D01*
X134814850Y-47357803D01*
X134923031Y-47618975D01*
X135080085Y-47854023D01*
X135279977Y-48053915D01*
X135515025Y-48210969D01*
X135776197Y-48319150D01*
X136053455Y-48374300D01*
X136336145Y-48374300D01*
X136613403Y-48319150D01*
X136874575Y-48210969D01*
X137109623Y-48053915D01*
X137309515Y-47854023D01*
X137439400Y-47659636D01*
X137569285Y-47854023D01*
X137769177Y-48053915D01*
X138004225Y-48210969D01*
X138265397Y-48319150D01*
X138542655Y-48374300D01*
X138825345Y-48374300D01*
X139102603Y-48319150D01*
X139363775Y-48210969D01*
X139598823Y-48053915D01*
X139798715Y-47854023D01*
X139955769Y-47618975D01*
X139991735Y-47532145D01*
X148526500Y-47532145D01*
X148526500Y-47844855D01*
X148587507Y-48151557D01*
X148707176Y-48440463D01*
X148880908Y-48700472D01*
X149102028Y-48921592D01*
X149362037Y-49095324D01*
X149650943Y-49214993D01*
X149957645Y-49276000D01*
X150270355Y-49276000D01*
X150577057Y-49214993D01*
X150865963Y-49095324D01*
X151125972Y-48921592D01*
X151347092Y-48700472D01*
X151520824Y-48440463D01*
X151640493Y-48151557D01*
X151701500Y-47844855D01*
X151701500Y-47532145D01*
X151640493Y-47225443D01*
X151520824Y-46936537D01*
X151347092Y-46676528D01*
X151125972Y-46455408D01*
X150865963Y-46281676D01*
X150577057Y-46162007D01*
X150270355Y-46101000D01*
X149957645Y-46101000D01*
X149650943Y-46162007D01*
X149362037Y-46281676D01*
X149102028Y-46455408D01*
X148880908Y-46676528D01*
X148707176Y-46936537D01*
X148587507Y-47225443D01*
X148526500Y-47532145D01*
X139991735Y-47532145D01*
X140063950Y-47357803D01*
X140119100Y-47080545D01*
X140119100Y-46797855D01*
X140063950Y-46520597D01*
X139955769Y-46259425D01*
X139798715Y-46024377D01*
X139598823Y-45824485D01*
X139363775Y-45667431D01*
X139102603Y-45559250D01*
X138825345Y-45504100D01*
X138542655Y-45504100D01*
X138265397Y-45559250D01*
X138004225Y-45667431D01*
X137769177Y-45824485D01*
X137569285Y-46024377D01*
X137439400Y-46218764D01*
X137309515Y-46024377D01*
X137109623Y-45824485D01*
X136874575Y-45667431D01*
X136613403Y-45559250D01*
X136336145Y-45504100D01*
X136053455Y-45504100D01*
X135776197Y-45559250D01*
X135515025Y-45667431D01*
X135279977Y-45824485D01*
X135080085Y-46024377D01*
X134923031Y-46259425D01*
X134814850Y-46520597D01*
X134759700Y-46797855D01*
X133248000Y-46797855D01*
X133248000Y-44602000D01*
X160630001Y-44602000D01*
X160630000Y-141072000D01*
%TA.AperFunction,Conductor*%
D25*
G36*
X160630000Y-141072000D02*
G01*
X130200000Y-141072000D01*
X130200000Y-125642000D01*
X130591928Y-125642000D01*
X130591928Y-127342000D01*
X130604188Y-127466482D01*
X130640498Y-127586180D01*
X130699463Y-127696494D01*
X130778815Y-127793185D01*
X130875506Y-127872537D01*
X130985820Y-127931502D01*
X131058380Y-127953513D01*
X130926525Y-128085368D01*
X130764010Y-128328589D01*
X130652068Y-128598842D01*
X130595000Y-128885740D01*
X130595000Y-129178260D01*
X130652068Y-129465158D01*
X130764010Y-129735411D01*
X130926525Y-129978632D01*
X131133368Y-130185475D01*
X131315534Y-130307195D01*
X131198645Y-130376822D01*
X130982412Y-130571731D01*
X130808359Y-130805080D01*
X130683175Y-131067901D01*
X130638524Y-131215110D01*
X130759845Y-131445000D01*
X131953000Y-131445000D01*
X131953000Y-131425000D01*
X132207000Y-131425000D01*
X132207000Y-131445000D01*
X133400155Y-131445000D01*
X133521476Y-131215110D01*
X133476825Y-131067901D01*
X133351641Y-130805080D01*
X133177588Y-130571731D01*
X132961355Y-130376822D01*
X132844466Y-130307195D01*
X133026632Y-130185475D01*
X133233475Y-129978632D01*
X133395990Y-129735411D01*
X133507932Y-129465158D01*
X133565000Y-129178260D01*
X133565000Y-128885740D01*
X133507932Y-128598842D01*
X133395990Y-128328589D01*
X133233475Y-128085368D01*
X133101620Y-127953513D01*
X133174180Y-127931502D01*
X133284494Y-127872537D01*
X133381185Y-127793185D01*
X133460537Y-127696494D01*
X133519502Y-127586180D01*
X133555812Y-127466482D01*
X133568072Y-127342000D01*
X133568072Y-125642000D01*
X133555812Y-125517518D01*
X133519502Y-125397820D01*
X133460537Y-125287506D01*
X133381185Y-125190815D01*
X133284494Y-125111463D01*
X133174180Y-125052498D01*
X133054482Y-125016188D01*
X132930000Y-125003928D01*
X131230000Y-125003928D01*
X131105518Y-125016188D01*
X130985820Y-125052498D01*
X130875506Y-125111463D01*
X130778815Y-125190815D01*
X130699463Y-125287506D01*
X130640498Y-125397820D01*
X130604188Y-125517518D01*
X130591928Y-125642000D01*
X130200000Y-125642000D01*
X130200000Y-114267581D01*
X130196726Y-114234339D01*
X130196726Y-114217863D01*
X130195763Y-114208698D01*
X130168134Y-113962382D01*
X130155695Y-113903865D01*
X130144078Y-113845192D01*
X130141353Y-113836389D01*
X130066408Y-113600131D01*
X130042868Y-113545209D01*
X130020048Y-113489842D01*
X130015664Y-113481736D01*
X129993734Y-113441845D01*
X130057424Y-113378155D01*
X130154277Y-113233205D01*
X130220990Y-113072145D01*
X130255000Y-112901165D01*
X130255000Y-112726835D01*
X130220990Y-112555855D01*
X130162232Y-112414000D01*
X130220990Y-112272145D01*
X130255000Y-112101165D01*
X130255000Y-111926835D01*
X130220990Y-111755855D01*
X130162232Y-111614000D01*
X130220990Y-111472145D01*
X130255000Y-111301165D01*
X130255000Y-111126835D01*
X130220990Y-110955855D01*
X130154277Y-110794795D01*
X130057424Y-110649845D01*
X129993063Y-110585484D01*
X130026919Y-110521809D01*
X130049707Y-110466521D01*
X130073279Y-110411525D01*
X130076003Y-110402722D01*
X130147643Y-110165441D01*
X130159264Y-110106754D01*
X130171700Y-110048248D01*
X130172663Y-110039083D01*
X130196850Y-109792405D01*
X130196850Y-109792402D01*
X130200000Y-109760419D01*
X130200000Y-104482000D01*
X130591928Y-104482000D01*
X130604188Y-104606482D01*
X130640498Y-104726180D01*
X130699463Y-104836494D01*
X130778815Y-104933185D01*
X130875506Y-105012537D01*
X130985820Y-105071502D01*
X131105518Y-105107812D01*
X131230000Y-105120072D01*
X131794250Y-105117000D01*
X131953000Y-104958250D01*
X131953000Y-103759000D01*
X130753750Y-103759000D01*
X130595000Y-103917750D01*
X130591928Y-104482000D01*
X130200000Y-104482000D01*
X130200000Y-102782000D01*
X130591928Y-102782000D01*
X130595000Y-103346250D01*
X130753750Y-103505000D01*
X131953000Y-103505000D01*
X131953000Y-103485000D01*
X132207000Y-103485000D01*
X132207000Y-103505000D01*
X132227000Y-103505000D01*
X132227000Y-103759000D01*
X132207000Y-103759000D01*
X132207000Y-104958250D01*
X132365750Y-105117000D01*
X132590001Y-105118221D01*
X132590000Y-123914678D01*
X132586324Y-123952000D01*
X132590000Y-123989322D01*
X132590000Y-123989332D01*
X132600997Y-124100985D01*
X132644454Y-124244246D01*
X132715026Y-124376276D01*
X132754871Y-124424826D01*
X132809999Y-124492001D01*
X132839003Y-124515804D01*
X134971000Y-126647802D01*
X134970999Y-127819676D01*
X134967323Y-127856999D01*
X134970999Y-127894321D01*
X134970999Y-127894331D01*
X134981996Y-128005984D01*
X135013864Y-128111039D01*
X135025453Y-128149245D01*
X135096025Y-128281275D01*
X135134855Y-128328589D01*
X135190998Y-128397000D01*
X135220002Y-128420803D01*
X135464791Y-128665592D01*
X135421000Y-128885740D01*
X135421000Y-129178260D01*
X135478068Y-129465158D01*
X135590010Y-129735411D01*
X135752525Y-129978632D01*
X135959368Y-130185475D01*
X136133760Y-130302000D01*
X135959368Y-130418525D01*
X135752525Y-130625368D01*
X135590010Y-130868589D01*
X135478068Y-131138842D01*
X135421000Y-131425740D01*
X135421000Y-131718260D01*
X135478068Y-132005158D01*
X135529023Y-132128175D01*
X133565000Y-134092199D01*
X133565000Y-133965740D01*
X133507932Y-133678842D01*
X133395990Y-133408589D01*
X133233475Y-133165368D01*
X133026632Y-132958525D01*
X132844466Y-132836805D01*
X132961355Y-132767178D01*
X133177588Y-132572269D01*
X133351641Y-132338920D01*
X133476825Y-132076099D01*
X133521476Y-131928890D01*
X133400155Y-131699000D01*
X132207000Y-131699000D01*
X132207000Y-131719000D01*
X131953000Y-131719000D01*
X131953000Y-131699000D01*
X130759845Y-131699000D01*
X130638524Y-131928890D01*
X130683175Y-132076099D01*
X130808359Y-132338920D01*
X130982412Y-132572269D01*
X131198645Y-132767178D01*
X131315534Y-132836805D01*
X131133368Y-132958525D01*
X130926525Y-133165368D01*
X130764010Y-133408589D01*
X130652068Y-133678842D01*
X130595000Y-133965740D01*
X130595000Y-134258260D01*
X130652068Y-134545158D01*
X130764010Y-134815411D01*
X130926525Y-135058632D01*
X131133368Y-135265475D01*
X131307760Y-135382000D01*
X131133368Y-135498525D01*
X130926525Y-135705368D01*
X130764010Y-135948589D01*
X130652068Y-136218842D01*
X130595000Y-136505740D01*
X130595000Y-136798260D01*
X130652068Y-137085158D01*
X130764010Y-137355411D01*
X130926525Y-137598632D01*
X131133368Y-137805475D01*
X131307760Y-137922000D01*
X131133368Y-138038525D01*
X130926525Y-138245368D01*
X130764010Y-138488589D01*
X130652068Y-138758842D01*
X130595000Y-139045740D01*
X130595000Y-139338260D01*
X130652068Y-139625158D01*
X130764010Y-139895411D01*
X130926525Y-140138632D01*
X131133368Y-140345475D01*
X131376589Y-140507990D01*
X131646842Y-140619932D01*
X131933740Y-140677000D01*
X132226260Y-140677000D01*
X132513158Y-140619932D01*
X132783411Y-140507990D01*
X133026632Y-140345475D01*
X133233475Y-140138632D01*
X133395990Y-139895411D01*
X133507932Y-139625158D01*
X133565000Y-139338260D01*
X133565000Y-139045740D01*
X133521209Y-138825592D01*
X135417928Y-136928874D01*
X135417928Y-137502000D01*
X135430188Y-137626482D01*
X135466498Y-137746180D01*
X135525463Y-137856494D01*
X135604815Y-137953185D01*
X135701506Y-138032537D01*
X135811820Y-138091502D01*
X135931518Y-138127812D01*
X136056000Y-138140072D01*
X136958647Y-138140072D01*
X137883026Y-139064452D01*
X137914815Y-139103187D01*
X138005288Y-139177437D01*
X138069368Y-139230026D01*
X138245697Y-139324276D01*
X138290228Y-139337784D01*
X138437026Y-139382315D01*
X138586138Y-139397001D01*
X138586140Y-139397001D01*
X138636001Y-139401912D01*
X138685861Y-139397001D01*
X140226541Y-139397001D01*
X140276401Y-139401912D01*
X140326261Y-139397001D01*
X140326264Y-139397001D01*
X140475376Y-139382315D01*
X140666704Y-139324276D01*
X140843033Y-139230026D01*
X140997587Y-139103187D01*
X141029380Y-139064447D01*
X141048087Y-139045740D01*
X145581000Y-139045740D01*
X145581000Y-139338260D01*
X145638068Y-139625158D01*
X145750010Y-139895411D01*
X145912525Y-140138632D01*
X146119368Y-140345475D01*
X146362589Y-140507990D01*
X146632842Y-140619932D01*
X146919740Y-140677000D01*
X147212260Y-140677000D01*
X147499158Y-140619932D01*
X147769411Y-140507990D01*
X148012632Y-140345475D01*
X148144487Y-140213620D01*
X148166498Y-140286180D01*
X148225463Y-140396494D01*
X148304815Y-140493185D01*
X148401506Y-140572537D01*
X148511820Y-140631502D01*
X148631518Y-140667812D01*
X148756000Y-140680072D01*
X150456000Y-140680072D01*
X150580482Y-140667812D01*
X150700180Y-140631502D01*
X150810494Y-140572537D01*
X150907185Y-140493185D01*
X150986537Y-140396494D01*
X151045502Y-140286180D01*
X151081812Y-140166482D01*
X151094072Y-140042000D01*
X151094072Y-138342000D01*
X151081812Y-138217518D01*
X151045502Y-138097820D01*
X150986537Y-137987506D01*
X150907185Y-137890815D01*
X150810494Y-137811463D01*
X150700180Y-137752498D01*
X150580482Y-137716188D01*
X150456000Y-137703928D01*
X148756000Y-137703928D01*
X148631518Y-137716188D01*
X148511820Y-137752498D01*
X148401506Y-137811463D01*
X148304815Y-137890815D01*
X148225463Y-137987506D01*
X148166498Y-138097820D01*
X148144487Y-138170380D01*
X148012632Y-138038525D01*
X147769411Y-137876010D01*
X147499158Y-137764068D01*
X147212260Y-137707000D01*
X146919740Y-137707000D01*
X146632842Y-137764068D01*
X146362589Y-137876010D01*
X146119368Y-138038525D01*
X145912525Y-138245368D01*
X145750010Y-138488589D01*
X145638068Y-138758842D01*
X145581000Y-139045740D01*
X141048087Y-139045740D01*
X144615000Y-135478828D01*
X144615000Y-135523335D01*
X144670147Y-135800574D01*
X144778320Y-136061727D01*
X144935363Y-136296759D01*
X145135241Y-136496637D01*
X145370273Y-136653680D01*
X145631426Y-136761853D01*
X145908665Y-136817000D01*
X146191335Y-136817000D01*
X146468574Y-136761853D01*
X146729727Y-136653680D01*
X146964759Y-136496637D01*
X147164637Y-136296759D01*
X147321680Y-136061727D01*
X147429853Y-135800574D01*
X147485000Y-135523335D01*
X147485000Y-135240665D01*
X152235000Y-135240665D01*
X152235000Y-135523335D01*
X152290147Y-135800574D01*
X152398320Y-136061727D01*
X152555363Y-136296759D01*
X152755241Y-136496637D01*
X152990273Y-136653680D01*
X153251426Y-136761853D01*
X153528665Y-136817000D01*
X153811335Y-136817000D01*
X154088574Y-136761853D01*
X154349727Y-136653680D01*
X154584759Y-136496637D01*
X154784637Y-136296759D01*
X154941680Y-136061727D01*
X155049853Y-135800574D01*
X155105000Y-135523335D01*
X155105000Y-135240665D01*
X155049853Y-134963426D01*
X154941680Y-134702273D01*
X154784637Y-134467241D01*
X154584759Y-134267363D01*
X154349727Y-134110320D01*
X154088574Y-134002147D01*
X153811335Y-133947000D01*
X153528665Y-133947000D01*
X153251426Y-134002147D01*
X152990273Y-134110320D01*
X152755241Y-134267363D01*
X152555363Y-134467241D01*
X152398320Y-134702273D01*
X152290147Y-134963426D01*
X152235000Y-135240665D01*
X147485000Y-135240665D01*
X147429853Y-134963426D01*
X147321680Y-134702273D01*
X147164637Y-134467241D01*
X146964759Y-134267363D01*
X146729727Y-134110320D01*
X146468574Y-134002147D01*
X146191335Y-133947000D01*
X146146829Y-133947000D01*
X147494457Y-132599372D01*
X147533186Y-132567588D01*
X147620682Y-132460974D01*
X147660025Y-132413035D01*
X147754275Y-132236705D01*
X147754275Y-132236704D01*
X147812314Y-132045377D01*
X147827000Y-131896265D01*
X147827000Y-131896263D01*
X147831911Y-131846402D01*
X147827000Y-131796541D01*
X147827000Y-131316396D01*
X147926637Y-131216759D01*
X148083680Y-130981727D01*
X148191853Y-130720574D01*
X148247000Y-130443335D01*
X148247000Y-130302426D01*
X148874457Y-129674970D01*
X148913187Y-129643185D01*
X148952076Y-129595799D01*
X149029055Y-129502000D01*
X152993928Y-129502000D01*
X152993928Y-131102000D01*
X153006188Y-131226482D01*
X153042498Y-131346180D01*
X153101463Y-131456494D01*
X153180815Y-131553185D01*
X153277506Y-131632537D01*
X153387820Y-131691502D01*
X153507518Y-131727812D01*
X153632000Y-131740072D01*
X155232000Y-131740072D01*
X155356482Y-131727812D01*
X155476180Y-131691502D01*
X155586494Y-131632537D01*
X155683185Y-131553185D01*
X155762537Y-131456494D01*
X155821502Y-131346180D01*
X155857812Y-131226482D01*
X155870072Y-131102000D01*
X155870072Y-129502000D01*
X155857812Y-129377518D01*
X155821502Y-129257820D01*
X155762537Y-129147506D01*
X155683185Y-129050815D01*
X155586494Y-128971463D01*
X155476180Y-128912498D01*
X155356482Y-128876188D01*
X155348039Y-128875357D01*
X155546637Y-128676759D01*
X155703680Y-128441727D01*
X155811853Y-128180574D01*
X155867000Y-127903335D01*
X155867000Y-127620665D01*
X155811853Y-127343426D01*
X155759072Y-127216000D01*
X157311928Y-127216000D01*
X157311928Y-128816000D01*
X157324188Y-128940482D01*
X157360498Y-129060180D01*
X157419463Y-129170494D01*
X157498815Y-129267185D01*
X157595506Y-129346537D01*
X157705820Y-129405502D01*
X157825518Y-129441812D01*
X157950000Y-129454072D01*
X159550000Y-129454072D01*
X159674482Y-129441812D01*
X159794180Y-129405502D01*
X159904494Y-129346537D01*
X160001185Y-129267185D01*
X160080537Y-129170494D01*
X160139502Y-129060180D01*
X160175812Y-128940482D01*
X160188072Y-128816000D01*
X160188072Y-127216000D01*
X160175812Y-127091518D01*
X160139502Y-126971820D01*
X160080537Y-126861506D01*
X160001185Y-126764815D01*
X159904494Y-126685463D01*
X159794180Y-126626498D01*
X159674482Y-126590188D01*
X159550000Y-126577928D01*
X157950000Y-126577928D01*
X157825518Y-126590188D01*
X157705820Y-126626498D01*
X157595506Y-126685463D01*
X157498815Y-126764815D01*
X157419463Y-126861506D01*
X157360498Y-126971820D01*
X157324188Y-127091518D01*
X157311928Y-127216000D01*
X155759072Y-127216000D01*
X155703680Y-127082273D01*
X155546637Y-126847241D01*
X155346759Y-126647363D01*
X155114241Y-126492000D01*
X155346759Y-126336637D01*
X155546637Y-126136759D01*
X155703680Y-125901727D01*
X155811853Y-125640574D01*
X155867000Y-125363335D01*
X155867000Y-125080665D01*
X155811853Y-124803426D01*
X155703680Y-124542273D01*
X155546637Y-124307241D01*
X155346759Y-124107363D01*
X155111727Y-123950320D01*
X154850574Y-123842147D01*
X154573335Y-123787000D01*
X154290665Y-123787000D01*
X154013426Y-123842147D01*
X153752273Y-123950320D01*
X153517241Y-124107363D01*
X153317363Y-124307241D01*
X153160320Y-124542273D01*
X153052147Y-124803426D01*
X152997000Y-125080665D01*
X152997000Y-125363335D01*
X153052147Y-125640574D01*
X153160320Y-125901727D01*
X153317363Y-126136759D01*
X153517241Y-126336637D01*
X153749759Y-126492000D01*
X153517241Y-126647363D01*
X153317363Y-126847241D01*
X153160320Y-127082273D01*
X153052147Y-127343426D01*
X152997000Y-127620665D01*
X152997000Y-127903335D01*
X153052147Y-128180574D01*
X153160320Y-128441727D01*
X153317363Y-128676759D01*
X153515961Y-128875357D01*
X153507518Y-128876188D01*
X153387820Y-128912498D01*
X153277506Y-128971463D01*
X153180815Y-129050815D01*
X153101463Y-129147506D01*
X153042498Y-129257820D01*
X153006188Y-129377518D01*
X152993928Y-129502000D01*
X149029055Y-129502000D01*
X149040026Y-129488632D01*
X149115977Y-129346537D01*
X149134276Y-129312302D01*
X149192315Y-129120974D01*
X149207001Y-128971862D01*
X149207001Y-128971853D01*
X149211911Y-128922000D01*
X149207001Y-128872147D01*
X149207001Y-122220022D01*
X150212321Y-121214702D01*
X150998903Y-121214702D01*
X151070486Y-121458671D01*
X151325996Y-121579571D01*
X151600184Y-121648300D01*
X151882512Y-121662217D01*
X152162130Y-121620787D01*
X152428292Y-121525603D01*
X152553514Y-121458671D01*
X152625097Y-121214702D01*
X151812000Y-120401605D01*
X150998903Y-121214702D01*
X150212321Y-121214702D01*
X150536379Y-120890644D01*
X150575329Y-120963514D01*
X150819298Y-121035097D01*
X151632395Y-120222000D01*
X151991605Y-120222000D01*
X152804702Y-121035097D01*
X153048671Y-120963514D01*
X153169571Y-120708004D01*
X153238300Y-120433816D01*
X153247131Y-120254665D01*
X157315000Y-120254665D01*
X157315000Y-120537335D01*
X157370147Y-120814574D01*
X157478320Y-121075727D01*
X157635363Y-121310759D01*
X157835241Y-121510637D01*
X158070273Y-121667680D01*
X158331426Y-121775853D01*
X158608665Y-121831000D01*
X158891335Y-121831000D01*
X159168574Y-121775853D01*
X159429727Y-121667680D01*
X159664759Y-121510637D01*
X159864637Y-121310759D01*
X160021680Y-121075727D01*
X160129853Y-120814574D01*
X160185000Y-120537335D01*
X160185000Y-120254665D01*
X160129853Y-119977426D01*
X160021680Y-119716273D01*
X159864637Y-119481241D01*
X159664759Y-119281363D01*
X159429727Y-119124320D01*
X159168574Y-119016147D01*
X158891335Y-118961000D01*
X158608665Y-118961000D01*
X158331426Y-119016147D01*
X158070273Y-119124320D01*
X157835241Y-119281363D01*
X157635363Y-119481241D01*
X157478320Y-119716273D01*
X157370147Y-119977426D01*
X157315000Y-120254665D01*
X153247131Y-120254665D01*
X153252217Y-120151488D01*
X153210787Y-119871870D01*
X153115603Y-119605708D01*
X153048671Y-119480486D01*
X152804702Y-119408903D01*
X151991605Y-120222000D01*
X151632395Y-120222000D01*
X151618253Y-120207858D01*
X151797858Y-120028253D01*
X151812000Y-120042395D01*
X152625097Y-119229298D01*
X152553514Y-118985329D01*
X152477610Y-118949413D01*
X153728133Y-117698891D01*
X153759426Y-117711853D01*
X154036665Y-117767000D01*
X154319335Y-117767000D01*
X154596574Y-117711853D01*
X154857727Y-117603680D01*
X155092759Y-117446637D01*
X155292637Y-117246759D01*
X155449680Y-117011727D01*
X155557853Y-116750574D01*
X155613000Y-116473335D01*
X155613000Y-116190665D01*
X155557853Y-115913426D01*
X155449680Y-115652273D01*
X155292637Y-115417241D01*
X155092759Y-115217363D01*
X154857727Y-115060320D01*
X154596574Y-114952147D01*
X154319335Y-114897000D01*
X154036665Y-114897000D01*
X153759426Y-114952147D01*
X153498273Y-115060320D01*
X153263241Y-115217363D01*
X153063363Y-115417241D01*
X152914787Y-115639601D01*
X152906623Y-115649549D01*
X148290799Y-120265373D01*
X148247000Y-120221574D01*
X148247000Y-120080665D01*
X148191853Y-119803426D01*
X148083680Y-119542273D01*
X147926637Y-119307241D01*
X147726759Y-119107363D01*
X147491727Y-118950320D01*
X147230574Y-118842147D01*
X146953335Y-118787000D01*
X146670665Y-118787000D01*
X146393426Y-118842147D01*
X146132273Y-118950320D01*
X145897241Y-119107363D01*
X145697363Y-119307241D01*
X145540320Y-119542273D01*
X145432147Y-119803426D01*
X145377000Y-120080665D01*
X145377000Y-120363335D01*
X145432147Y-120640574D01*
X145540320Y-120901727D01*
X145697363Y-121136759D01*
X145897241Y-121336637D01*
X146132273Y-121493680D01*
X146393426Y-121601853D01*
X146670665Y-121657000D01*
X146811574Y-121657000D01*
X147177002Y-122022429D01*
X147177002Y-123831491D01*
X146953335Y-123787000D01*
X146670665Y-123787000D01*
X146393426Y-123842147D01*
X146132273Y-123950320D01*
X145897241Y-124107363D01*
X145697363Y-124307241D01*
X145540320Y-124542273D01*
X145432147Y-124803426D01*
X145377000Y-125080665D01*
X145377000Y-125363335D01*
X145432147Y-125640574D01*
X145540320Y-125901727D01*
X145697363Y-126136759D01*
X145897241Y-126336637D01*
X146132273Y-126493680D01*
X146142865Y-126498067D01*
X145956869Y-126609615D01*
X145748481Y-126798586D01*
X145580963Y-127024580D01*
X145460754Y-127278913D01*
X145420096Y-127412961D01*
X145542085Y-127635000D01*
X146685000Y-127635000D01*
X146685000Y-127615000D01*
X146939000Y-127615000D01*
X146939000Y-127635000D01*
X146959000Y-127635000D01*
X146959000Y-127889000D01*
X146939000Y-127889000D01*
X146939000Y-127909000D01*
X146685000Y-127909000D01*
X146685000Y-127889000D01*
X145542085Y-127889000D01*
X145420096Y-128111039D01*
X145460754Y-128245087D01*
X145580963Y-128499420D01*
X145748481Y-128725414D01*
X145956869Y-128914385D01*
X146142865Y-129025933D01*
X146132273Y-129030320D01*
X145897241Y-129187363D01*
X145697363Y-129387241D01*
X145540320Y-129622273D01*
X145432147Y-129883426D01*
X145377000Y-130160665D01*
X145377000Y-130443335D01*
X145432147Y-130720574D01*
X145540320Y-130981727D01*
X145697363Y-131216759D01*
X145797000Y-131316396D01*
X145797000Y-131425975D01*
X140895534Y-136327442D01*
X140873932Y-136218842D01*
X140761990Y-135948589D01*
X140599475Y-135705368D01*
X140392632Y-135498525D01*
X140218240Y-135382000D01*
X140392632Y-135265475D01*
X140599475Y-135058632D01*
X140761990Y-134815411D01*
X140873932Y-134545158D01*
X140931000Y-134258260D01*
X140931000Y-133965740D01*
X140873932Y-133678842D01*
X140761990Y-133408589D01*
X140599475Y-133165368D01*
X140392632Y-132958525D01*
X140210466Y-132836805D01*
X140327355Y-132767178D01*
X140543588Y-132572269D01*
X140717641Y-132338920D01*
X140842825Y-132076099D01*
X140887476Y-131928890D01*
X140766155Y-131699000D01*
X139573000Y-131699000D01*
X139573000Y-131719000D01*
X139319000Y-131719000D01*
X139319000Y-131699000D01*
X139299000Y-131699000D01*
X139299000Y-131445000D01*
X139319000Y-131445000D01*
X139319000Y-131425000D01*
X139573000Y-131425000D01*
X139573000Y-131445000D01*
X140766155Y-131445000D01*
X140887476Y-131215110D01*
X140842825Y-131067901D01*
X140717641Y-130805080D01*
X140543588Y-130571731D01*
X140327355Y-130376822D01*
X140210466Y-130307195D01*
X140392632Y-130185475D01*
X140599475Y-129978632D01*
X140761990Y-129735411D01*
X140873932Y-129465158D01*
X140931000Y-129178260D01*
X140931000Y-128885740D01*
X140873932Y-128598842D01*
X140761990Y-128328589D01*
X140599475Y-128085368D01*
X140392632Y-127878525D01*
X140218240Y-127762000D01*
X140392632Y-127645475D01*
X140599475Y-127438632D01*
X140761990Y-127195411D01*
X140873932Y-126925158D01*
X140931000Y-126638260D01*
X140931000Y-126345740D01*
X140873932Y-126058842D01*
X140761990Y-125788589D01*
X140599475Y-125545368D01*
X140392632Y-125338525D01*
X140218240Y-125222000D01*
X140392632Y-125105475D01*
X140599475Y-124898632D01*
X140761990Y-124655411D01*
X140873932Y-124385158D01*
X140931000Y-124098260D01*
X140931000Y-123805740D01*
X140873932Y-123518842D01*
X140761990Y-123248589D01*
X140599475Y-123005368D01*
X140392632Y-122798525D01*
X140210466Y-122676805D01*
X140327355Y-122607178D01*
X140543588Y-122412269D01*
X140717641Y-122178920D01*
X140842825Y-121916099D01*
X140887476Y-121768890D01*
X140766155Y-121539000D01*
X139573000Y-121539000D01*
X139573000Y-121559000D01*
X139319000Y-121559000D01*
X139319000Y-121539000D01*
X139299000Y-121539000D01*
X139299000Y-121285000D01*
X139319000Y-121285000D01*
X139319000Y-121265000D01*
X139573000Y-121265000D01*
X139573000Y-121285000D01*
X140766155Y-121285000D01*
X140887476Y-121055110D01*
X140842825Y-120907901D01*
X140717641Y-120645080D01*
X140543588Y-120411731D01*
X140327355Y-120216822D01*
X140210466Y-120147195D01*
X140392632Y-120025475D01*
X140599475Y-119818632D01*
X140761990Y-119575411D01*
X140873932Y-119305158D01*
X140931000Y-119018260D01*
X140931000Y-118725740D01*
X140873932Y-118438842D01*
X140761990Y-118168589D01*
X140599475Y-117925368D01*
X140392632Y-117718525D01*
X140218240Y-117602000D01*
X140392632Y-117485475D01*
X140599475Y-117278632D01*
X140761990Y-117035411D01*
X140873932Y-116765158D01*
X140931000Y-116478260D01*
X140931000Y-116190665D01*
X145123000Y-116190665D01*
X145123000Y-116473335D01*
X145178147Y-116750574D01*
X145286320Y-117011727D01*
X145443363Y-117246759D01*
X145643241Y-117446637D01*
X145878273Y-117603680D01*
X146139426Y-117711853D01*
X146416665Y-117767000D01*
X146699335Y-117767000D01*
X146976574Y-117711853D01*
X147237727Y-117603680D01*
X147472759Y-117446637D01*
X147672637Y-117246759D01*
X147829680Y-117011727D01*
X147937853Y-116750574D01*
X147993000Y-116473335D01*
X147993000Y-116190665D01*
X147937853Y-115913426D01*
X147829680Y-115652273D01*
X147672637Y-115417241D01*
X147472759Y-115217363D01*
X147237727Y-115060320D01*
X146976574Y-114952147D01*
X146699335Y-114897000D01*
X146416665Y-114897000D01*
X146139426Y-114952147D01*
X145878273Y-115060320D01*
X145643241Y-115217363D01*
X145443363Y-115417241D01*
X145286320Y-115652273D01*
X145178147Y-115913426D01*
X145123000Y-116190665D01*
X140931000Y-116190665D01*
X140931000Y-116185740D01*
X140873932Y-115898842D01*
X140761990Y-115628589D01*
X140599475Y-115385368D01*
X140392632Y-115178525D01*
X140210466Y-115056805D01*
X140327355Y-114987178D01*
X140543588Y-114792269D01*
X140717641Y-114558920D01*
X140842825Y-114296099D01*
X140887476Y-114148890D01*
X140766155Y-113919000D01*
X139573000Y-113919000D01*
X139573000Y-113939000D01*
X139319000Y-113939000D01*
X139319000Y-113919000D01*
X139299000Y-113919000D01*
X139299000Y-113665000D01*
X139319000Y-113665000D01*
X139319000Y-113645000D01*
X139573000Y-113645000D01*
X139573000Y-113665000D01*
X140766155Y-113665000D01*
X140887476Y-113435110D01*
X140842825Y-113287901D01*
X140829870Y-113260702D01*
X152936903Y-113260702D01*
X153008486Y-113504671D01*
X153263996Y-113625571D01*
X153538184Y-113694300D01*
X153820512Y-113708217D01*
X154100130Y-113666787D01*
X154366292Y-113571603D01*
X154491514Y-113504671D01*
X154563097Y-113260702D01*
X153750000Y-112447605D01*
X152936903Y-113260702D01*
X140829870Y-113260702D01*
X140717641Y-113025080D01*
X140543588Y-112791731D01*
X140327355Y-112596822D01*
X140210466Y-112527195D01*
X140392632Y-112405475D01*
X140459595Y-112338512D01*
X152309783Y-112338512D01*
X152351213Y-112618130D01*
X152446397Y-112884292D01*
X152513329Y-113009514D01*
X152757298Y-113081097D01*
X153570395Y-112268000D01*
X153929605Y-112268000D01*
X154742702Y-113081097D01*
X154986671Y-113009514D01*
X155107571Y-112754004D01*
X155176300Y-112479816D01*
X155190217Y-112197488D01*
X155179724Y-112126665D01*
X157315000Y-112126665D01*
X157315000Y-112409335D01*
X157370147Y-112686574D01*
X157478320Y-112947727D01*
X157635363Y-113182759D01*
X157835241Y-113382637D01*
X158070273Y-113539680D01*
X158331426Y-113647853D01*
X158608665Y-113703000D01*
X158891335Y-113703000D01*
X159168574Y-113647853D01*
X159429727Y-113539680D01*
X159664759Y-113382637D01*
X159864637Y-113182759D01*
X160021680Y-112947727D01*
X160129853Y-112686574D01*
X160185000Y-112409335D01*
X160185000Y-112126665D01*
X160129853Y-111849426D01*
X160021680Y-111588273D01*
X159864637Y-111353241D01*
X159664759Y-111153363D01*
X159429727Y-110996320D01*
X159168574Y-110888147D01*
X158891335Y-110833000D01*
X158608665Y-110833000D01*
X158331426Y-110888147D01*
X158070273Y-110996320D01*
X157835241Y-111153363D01*
X157635363Y-111353241D01*
X157478320Y-111588273D01*
X157370147Y-111849426D01*
X157315000Y-112126665D01*
X155179724Y-112126665D01*
X155148787Y-111917870D01*
X155053603Y-111651708D01*
X154986671Y-111526486D01*
X154742702Y-111454903D01*
X153929605Y-112268000D01*
X153570395Y-112268000D01*
X152757298Y-111454903D01*
X152513329Y-111526486D01*
X152392429Y-111781996D01*
X152323700Y-112056184D01*
X152309783Y-112338512D01*
X140459595Y-112338512D01*
X140599475Y-112198632D01*
X140761990Y-111955411D01*
X140873932Y-111685158D01*
X140931000Y-111398260D01*
X140931000Y-111275298D01*
X152936903Y-111275298D01*
X153750000Y-112088395D01*
X154563097Y-111275298D01*
X154491514Y-111031329D01*
X154236004Y-110910429D01*
X153961816Y-110841700D01*
X153679488Y-110827783D01*
X153399870Y-110869213D01*
X153133708Y-110964397D01*
X153008486Y-111031329D01*
X152936903Y-111275298D01*
X140931000Y-111275298D01*
X140931000Y-111105740D01*
X140873932Y-110818842D01*
X140761990Y-110548589D01*
X140599475Y-110305368D01*
X140392632Y-110098525D01*
X140218240Y-109982000D01*
X140392632Y-109865475D01*
X140599475Y-109658632D01*
X140761990Y-109415411D01*
X140852581Y-109196702D01*
X152936903Y-109196702D01*
X153008486Y-109440671D01*
X153263996Y-109561571D01*
X153538184Y-109630300D01*
X153820512Y-109644217D01*
X154100130Y-109602787D01*
X154366292Y-109507603D01*
X154491514Y-109440671D01*
X154563097Y-109196702D01*
X153750000Y-108383605D01*
X152936903Y-109196702D01*
X140852581Y-109196702D01*
X140873932Y-109145158D01*
X140931000Y-108858260D01*
X140931000Y-108565740D01*
X140873932Y-108278842D01*
X140872139Y-108274512D01*
X152309783Y-108274512D01*
X152351213Y-108554130D01*
X152446397Y-108820292D01*
X152513329Y-108945514D01*
X152757298Y-109017097D01*
X153570395Y-108204000D01*
X153929605Y-108204000D01*
X154742702Y-109017097D01*
X154986671Y-108945514D01*
X155107571Y-108690004D01*
X155176300Y-108415816D01*
X155190217Y-108133488D01*
X155179724Y-108062665D01*
X157315000Y-108062665D01*
X157315000Y-108345335D01*
X157370147Y-108622574D01*
X157478320Y-108883727D01*
X157635363Y-109118759D01*
X157835241Y-109318637D01*
X158070273Y-109475680D01*
X158331426Y-109583853D01*
X158608665Y-109639000D01*
X158891335Y-109639000D01*
X159168574Y-109583853D01*
X159429727Y-109475680D01*
X159664759Y-109318637D01*
X159864637Y-109118759D01*
X160021680Y-108883727D01*
X160129853Y-108622574D01*
X160185000Y-108345335D01*
X160185000Y-108062665D01*
X160129853Y-107785426D01*
X160021680Y-107524273D01*
X159864637Y-107289241D01*
X159664759Y-107089363D01*
X159429727Y-106932320D01*
X159168574Y-106824147D01*
X158891335Y-106769000D01*
X158608665Y-106769000D01*
X158331426Y-106824147D01*
X158070273Y-106932320D01*
X157835241Y-107089363D01*
X157635363Y-107289241D01*
X157478320Y-107524273D01*
X157370147Y-107785426D01*
X157315000Y-108062665D01*
X155179724Y-108062665D01*
X155148787Y-107853870D01*
X155053603Y-107587708D01*
X154986671Y-107462486D01*
X154742702Y-107390903D01*
X153929605Y-108204000D01*
X153570395Y-108204000D01*
X152757298Y-107390903D01*
X152513329Y-107462486D01*
X152392429Y-107717996D01*
X152323700Y-107992184D01*
X152309783Y-108274512D01*
X140872139Y-108274512D01*
X140761990Y-108008589D01*
X140599475Y-107765368D01*
X140392632Y-107558525D01*
X140218240Y-107442000D01*
X140392632Y-107325475D01*
X140506809Y-107211298D01*
X152936903Y-107211298D01*
X153750000Y-108024395D01*
X154563097Y-107211298D01*
X154491514Y-106967329D01*
X154236004Y-106846429D01*
X153961816Y-106777700D01*
X153679488Y-106763783D01*
X153399870Y-106805213D01*
X153133708Y-106900397D01*
X153008486Y-106967329D01*
X152936903Y-107211298D01*
X140506809Y-107211298D01*
X140599475Y-107118632D01*
X140761990Y-106875411D01*
X140873932Y-106605158D01*
X140931000Y-106318260D01*
X140931000Y-106025740D01*
X140873932Y-105738842D01*
X140761990Y-105468589D01*
X140599475Y-105225368D01*
X140542504Y-105168397D01*
X145201208Y-105168397D01*
X145278843Y-105417472D01*
X145542883Y-105543371D01*
X145826411Y-105615339D01*
X146118531Y-105630611D01*
X146408019Y-105588599D01*
X146683747Y-105490919D01*
X146821157Y-105417472D01*
X146898792Y-105168397D01*
X146050000Y-104319605D01*
X145201208Y-105168397D01*
X140542504Y-105168397D01*
X140392632Y-105018525D01*
X140218240Y-104902000D01*
X140392632Y-104785475D01*
X140599475Y-104578632D01*
X140761990Y-104335411D01*
X140814545Y-104208531D01*
X144559389Y-104208531D01*
X144601401Y-104498019D01*
X144699081Y-104773747D01*
X144772528Y-104911157D01*
X145021603Y-104988792D01*
X145870395Y-104140000D01*
X146229605Y-104140000D01*
X147078397Y-104988792D01*
X147320689Y-104913271D01*
X147436525Y-105086632D01*
X147643368Y-105293475D01*
X147886589Y-105455990D01*
X148156842Y-105567932D01*
X148443740Y-105625000D01*
X148736260Y-105625000D01*
X149023158Y-105567932D01*
X149293411Y-105455990D01*
X149536632Y-105293475D01*
X149743475Y-105086632D01*
X149860000Y-104912240D01*
X149976525Y-105086632D01*
X150183368Y-105293475D01*
X150426589Y-105455990D01*
X150696842Y-105567932D01*
X150983740Y-105625000D01*
X151276260Y-105625000D01*
X151563158Y-105567932D01*
X151833411Y-105455990D01*
X152076632Y-105293475D01*
X152283475Y-105086632D01*
X152400000Y-104912240D01*
X152516525Y-105086632D01*
X152723368Y-105293475D01*
X152966589Y-105455990D01*
X153236842Y-105567932D01*
X153523740Y-105625000D01*
X153816260Y-105625000D01*
X154103158Y-105567932D01*
X154373411Y-105455990D01*
X154616632Y-105293475D01*
X154741710Y-105168397D01*
X155361208Y-105168397D01*
X155438843Y-105417472D01*
X155702883Y-105543371D01*
X155986411Y-105615339D01*
X156278531Y-105630611D01*
X156568019Y-105588599D01*
X156843747Y-105490919D01*
X156981157Y-105417472D01*
X157058792Y-105168397D01*
X156210000Y-104319605D01*
X155361208Y-105168397D01*
X154741710Y-105168397D01*
X154823475Y-105086632D01*
X154939311Y-104913271D01*
X155181603Y-104988792D01*
X156030395Y-104140000D01*
X156389605Y-104140000D01*
X157238397Y-104988792D01*
X157480689Y-104913271D01*
X157596525Y-105086632D01*
X157803368Y-105293475D01*
X158046589Y-105455990D01*
X158316842Y-105567932D01*
X158603740Y-105625000D01*
X158896260Y-105625000D01*
X159183158Y-105567932D01*
X159453411Y-105455990D01*
X159696632Y-105293475D01*
X159903475Y-105086632D01*
X160065990Y-104843411D01*
X160177932Y-104573158D01*
X160235000Y-104286260D01*
X160235000Y-103993740D01*
X160177932Y-103706842D01*
X160065990Y-103436589D01*
X159903475Y-103193368D01*
X159696632Y-102986525D01*
X159453411Y-102824010D01*
X159183158Y-102712068D01*
X158896260Y-102655000D01*
X158603740Y-102655000D01*
X158316842Y-102712068D01*
X158046589Y-102824010D01*
X157803368Y-102986525D01*
X157596525Y-103193368D01*
X157480689Y-103366729D01*
X157238397Y-103291208D01*
X156389605Y-104140000D01*
X156030395Y-104140000D01*
X155181603Y-103291208D01*
X154939311Y-103366729D01*
X154823475Y-103193368D01*
X154741710Y-103111603D01*
X155361208Y-103111603D01*
X156210000Y-103960395D01*
X157058792Y-103111603D01*
X156981157Y-102862528D01*
X156717117Y-102736629D01*
X156433589Y-102664661D01*
X156141469Y-102649389D01*
X155851981Y-102691401D01*
X155576253Y-102789081D01*
X155438843Y-102862528D01*
X155361208Y-103111603D01*
X154741710Y-103111603D01*
X154616632Y-102986525D01*
X154373411Y-102824010D01*
X154103158Y-102712068D01*
X153816260Y-102655000D01*
X153523740Y-102655000D01*
X153236842Y-102712068D01*
X152966589Y-102824010D01*
X152723368Y-102986525D01*
X152516525Y-103193368D01*
X152400000Y-103367760D01*
X152283475Y-103193368D01*
X152076632Y-102986525D01*
X151833411Y-102824010D01*
X151563158Y-102712068D01*
X151276260Y-102655000D01*
X150983740Y-102655000D01*
X150696842Y-102712068D01*
X150426589Y-102824010D01*
X150183368Y-102986525D01*
X149976525Y-103193368D01*
X149860000Y-103367760D01*
X149743475Y-103193368D01*
X149536632Y-102986525D01*
X149293411Y-102824010D01*
X149023158Y-102712068D01*
X148736260Y-102655000D01*
X148443740Y-102655000D01*
X148156842Y-102712068D01*
X147886589Y-102824010D01*
X147643368Y-102986525D01*
X147436525Y-103193368D01*
X147320689Y-103366729D01*
X147078397Y-103291208D01*
X146229605Y-104140000D01*
X145870395Y-104140000D01*
X145021603Y-103291208D01*
X144772528Y-103368843D01*
X144646629Y-103632883D01*
X144574661Y-103916411D01*
X144559389Y-104208531D01*
X140814545Y-104208531D01*
X140873932Y-104065158D01*
X140931000Y-103778260D01*
X140931000Y-103485740D01*
X140873932Y-103198842D01*
X140837797Y-103111603D01*
X145201208Y-103111603D01*
X146050000Y-103960395D01*
X146898792Y-103111603D01*
X146821157Y-102862528D01*
X146557117Y-102736629D01*
X146273589Y-102664661D01*
X145981469Y-102649389D01*
X145691981Y-102691401D01*
X145416253Y-102789081D01*
X145278843Y-102862528D01*
X145201208Y-103111603D01*
X140837797Y-103111603D01*
X140761990Y-102928589D01*
X140599475Y-102685368D01*
X140392632Y-102478525D01*
X140210466Y-102356805D01*
X140327355Y-102287178D01*
X140543588Y-102092269D01*
X140717641Y-101858920D01*
X140842825Y-101596099D01*
X140887476Y-101448890D01*
X140766155Y-101219000D01*
X139573000Y-101219000D01*
X139573000Y-101239000D01*
X139319000Y-101239000D01*
X139319000Y-101219000D01*
X139299000Y-101219000D01*
X139299000Y-100965000D01*
X139319000Y-100965000D01*
X139319000Y-100945000D01*
X139573000Y-100945000D01*
X139573000Y-100965000D01*
X140766155Y-100965000D01*
X140887476Y-100735110D01*
X140842825Y-100587901D01*
X140717641Y-100325080D01*
X140543588Y-100091731D01*
X140327355Y-99896822D01*
X140210466Y-99827195D01*
X140392632Y-99705475D01*
X140599475Y-99498632D01*
X140761990Y-99255411D01*
X140873932Y-98985158D01*
X140931000Y-98698260D01*
X140931000Y-98405740D01*
X140873932Y-98118842D01*
X140761990Y-97848589D01*
X140599475Y-97605368D01*
X140392632Y-97398525D01*
X140210466Y-97276805D01*
X140327355Y-97207178D01*
X140543588Y-97012269D01*
X140717641Y-96778920D01*
X140842825Y-96516099D01*
X140887476Y-96368890D01*
X140766155Y-96139000D01*
X139573000Y-96139000D01*
X139573000Y-96159000D01*
X139319000Y-96159000D01*
X139319000Y-96139000D01*
X139299000Y-96139000D01*
X139299000Y-95885000D01*
X139319000Y-95885000D01*
X139319000Y-95865000D01*
X139573000Y-95865000D01*
X139573000Y-95885000D01*
X140766155Y-95885000D01*
X140887476Y-95655110D01*
X140842825Y-95507901D01*
X140717641Y-95245080D01*
X140543588Y-95011731D01*
X140327355Y-94816822D01*
X140210466Y-94747195D01*
X140392632Y-94625475D01*
X140599475Y-94418632D01*
X140761990Y-94175411D01*
X140873932Y-93905158D01*
X140931000Y-93618260D01*
X140931000Y-93325740D01*
X140873932Y-93038842D01*
X140761990Y-92768589D01*
X140599475Y-92525368D01*
X140392632Y-92318525D01*
X140218240Y-92202000D01*
X140392632Y-92085475D01*
X140599475Y-91878632D01*
X140761990Y-91635411D01*
X140873932Y-91365158D01*
X140931000Y-91078260D01*
X140931000Y-90785740D01*
X140873932Y-90498842D01*
X140761990Y-90228589D01*
X140599475Y-89985368D01*
X140392632Y-89778525D01*
X140218240Y-89662000D01*
X140392632Y-89545475D01*
X140599475Y-89338632D01*
X140761990Y-89095411D01*
X140873932Y-88825158D01*
X140931000Y-88538260D01*
X140931000Y-88245740D01*
X140873932Y-87958842D01*
X140761990Y-87688589D01*
X140599475Y-87445368D01*
X140392632Y-87238525D01*
X140149411Y-87076010D01*
X139879158Y-86964068D01*
X139592260Y-86907000D01*
X139299740Y-86907000D01*
X139012842Y-86964068D01*
X138742589Y-87076010D01*
X138499368Y-87238525D01*
X138292525Y-87445368D01*
X138174900Y-87621406D01*
X138003588Y-87391731D01*
X137787355Y-87196822D01*
X137537252Y-87047843D01*
X137262891Y-86950519D01*
X137033000Y-87071186D01*
X137033000Y-88265000D01*
X137053000Y-88265000D01*
X137053000Y-88519000D01*
X137033000Y-88519000D01*
X137033000Y-88539000D01*
X136779000Y-88539000D01*
X136779000Y-88519000D01*
X135585845Y-88519000D01*
X135464524Y-88748890D01*
X135509175Y-88896099D01*
X135634359Y-89158920D01*
X135808412Y-89392269D01*
X136024645Y-89587178D01*
X136141534Y-89656805D01*
X135959368Y-89778525D01*
X135752525Y-89985368D01*
X135590010Y-90228589D01*
X135478068Y-90498842D01*
X135421000Y-90785740D01*
X135421000Y-91078260D01*
X135478068Y-91365158D01*
X135590010Y-91635411D01*
X135752525Y-91878632D01*
X135959368Y-92085475D01*
X136133760Y-92202000D01*
X135959368Y-92318525D01*
X135752525Y-92525368D01*
X135590010Y-92768589D01*
X135478068Y-93038842D01*
X135421000Y-93325740D01*
X135421000Y-93618260D01*
X135478068Y-93905158D01*
X135590010Y-94175411D01*
X135752525Y-94418632D01*
X135959368Y-94625475D01*
X136133760Y-94742000D01*
X135959368Y-94858525D01*
X135752525Y-95065368D01*
X135590010Y-95308589D01*
X135478068Y-95578842D01*
X135421000Y-95865740D01*
X135421000Y-96158260D01*
X135478068Y-96445158D01*
X135590010Y-96715411D01*
X135752525Y-96958632D01*
X135959368Y-97165475D01*
X136133760Y-97282000D01*
X135959368Y-97398525D01*
X135752525Y-97605368D01*
X135590010Y-97848589D01*
X135478068Y-98118842D01*
X135421000Y-98405740D01*
X135421000Y-98698260D01*
X135478068Y-98985158D01*
X135590010Y-99255411D01*
X135752525Y-99498632D01*
X135959368Y-99705475D01*
X136133760Y-99822000D01*
X135959368Y-99938525D01*
X135752525Y-100145368D01*
X135590010Y-100388589D01*
X135478068Y-100658842D01*
X135421000Y-100945740D01*
X135421000Y-101238260D01*
X135478068Y-101525158D01*
X135590010Y-101795411D01*
X135752525Y-102038632D01*
X135959368Y-102245475D01*
X136133760Y-102362000D01*
X135959368Y-102478525D01*
X135752525Y-102685368D01*
X135590010Y-102928589D01*
X135478068Y-103198842D01*
X135421000Y-103485740D01*
X135421000Y-103778260D01*
X135478068Y-104065158D01*
X135590010Y-104335411D01*
X135752525Y-104578632D01*
X135959368Y-104785475D01*
X136141534Y-104907195D01*
X136024645Y-104976822D01*
X135808412Y-105171731D01*
X135634359Y-105405080D01*
X135509175Y-105667901D01*
X135464524Y-105815110D01*
X135585845Y-106045000D01*
X136779000Y-106045000D01*
X136779000Y-106025000D01*
X137033000Y-106025000D01*
X137033000Y-106045000D01*
X137053000Y-106045000D01*
X137053000Y-106299000D01*
X137033000Y-106299000D01*
X137033000Y-106319000D01*
X136779000Y-106319000D01*
X136779000Y-106299000D01*
X135585845Y-106299000D01*
X135464524Y-106528890D01*
X135509175Y-106676099D01*
X135634359Y-106938920D01*
X135808412Y-107172269D01*
X136024645Y-107367178D01*
X136141534Y-107436805D01*
X135959368Y-107558525D01*
X135752525Y-107765368D01*
X135590010Y-108008589D01*
X135478068Y-108278842D01*
X135421000Y-108565740D01*
X135421000Y-108858260D01*
X135478068Y-109145158D01*
X135590010Y-109415411D01*
X135752525Y-109658632D01*
X135959368Y-109865475D01*
X136133760Y-109982000D01*
X135959368Y-110098525D01*
X135752525Y-110305368D01*
X135590010Y-110548589D01*
X135478068Y-110818842D01*
X135421000Y-111105740D01*
X135421000Y-111398260D01*
X135478068Y-111685158D01*
X135590010Y-111955411D01*
X135752525Y-112198632D01*
X135959368Y-112405475D01*
X136133760Y-112522000D01*
X135959368Y-112638525D01*
X135752525Y-112845368D01*
X135590010Y-113088589D01*
X135478068Y-113358842D01*
X135421000Y-113645740D01*
X135421000Y-113938260D01*
X135478068Y-114225158D01*
X135590010Y-114495411D01*
X135752525Y-114738632D01*
X135959368Y-114945475D01*
X136133760Y-115062000D01*
X135959368Y-115178525D01*
X135752525Y-115385368D01*
X135590010Y-115628589D01*
X135478068Y-115898842D01*
X135421000Y-116185740D01*
X135421000Y-116478260D01*
X135478068Y-116765158D01*
X135590010Y-117035411D01*
X135752525Y-117278632D01*
X135959368Y-117485475D01*
X136133760Y-117602000D01*
X135959368Y-117718525D01*
X135752525Y-117925368D01*
X135590010Y-118168589D01*
X135478068Y-118438842D01*
X135421000Y-118725740D01*
X135421000Y-119018260D01*
X135478068Y-119305158D01*
X135590010Y-119575411D01*
X135752525Y-119818632D01*
X135959368Y-120025475D01*
X136133760Y-120142000D01*
X135959368Y-120258525D01*
X135752525Y-120465368D01*
X135590010Y-120708589D01*
X135478068Y-120978842D01*
X135421000Y-121265740D01*
X135421000Y-121558260D01*
X135478068Y-121845158D01*
X135590010Y-122115411D01*
X135752525Y-122358632D01*
X135959368Y-122565475D01*
X136133760Y-122682000D01*
X135959368Y-122798525D01*
X135752525Y-123005368D01*
X135590010Y-123248589D01*
X135478068Y-123518842D01*
X135421000Y-123805740D01*
X135421000Y-124098260D01*
X135478068Y-124385158D01*
X135590010Y-124655411D01*
X135752525Y-124898632D01*
X135959368Y-125105475D01*
X136141534Y-125227195D01*
X136024645Y-125296822D01*
X135890521Y-125417719D01*
X134110000Y-123637199D01*
X134110000Y-102399322D01*
X134113676Y-102361999D01*
X134110000Y-102324676D01*
X134110000Y-102324667D01*
X134099003Y-102213014D01*
X134055546Y-102069753D01*
X133984974Y-101937724D01*
X133890001Y-101821999D01*
X133861003Y-101798201D01*
X133521210Y-101458408D01*
X133565000Y-101238260D01*
X133565000Y-100945740D01*
X133507932Y-100658842D01*
X133395990Y-100388589D01*
X133233475Y-100145368D01*
X133026632Y-99938525D01*
X132852240Y-99822000D01*
X133026632Y-99705475D01*
X133233475Y-99498632D01*
X133395990Y-99255411D01*
X133507932Y-98985158D01*
X133565000Y-98698260D01*
X133565000Y-98405740D01*
X133507932Y-98118842D01*
X133395990Y-97848589D01*
X133233475Y-97605368D01*
X133026632Y-97398525D01*
X132852240Y-97282000D01*
X133026632Y-97165475D01*
X133233475Y-96958632D01*
X133395990Y-96715411D01*
X133507932Y-96445158D01*
X133565000Y-96158260D01*
X133565000Y-95865740D01*
X133507932Y-95578842D01*
X133395990Y-95308589D01*
X133233475Y-95065368D01*
X133026632Y-94858525D01*
X132783411Y-94696010D01*
X132513158Y-94584068D01*
X132226260Y-94527000D01*
X131933740Y-94527000D01*
X131646842Y-94584068D01*
X131376589Y-94696010D01*
X131133368Y-94858525D01*
X130926525Y-95065368D01*
X130764010Y-95308589D01*
X130652068Y-95578842D01*
X130595000Y-95865740D01*
X130595000Y-96158260D01*
X130652068Y-96445158D01*
X130764010Y-96715411D01*
X130926525Y-96958632D01*
X131133368Y-97165475D01*
X131307760Y-97282000D01*
X131133368Y-97398525D01*
X130926525Y-97605368D01*
X130764010Y-97848589D01*
X130652068Y-98118842D01*
X130595000Y-98405740D01*
X130595000Y-98698260D01*
X130652068Y-98985158D01*
X130764010Y-99255411D01*
X130926525Y-99498632D01*
X131133368Y-99705475D01*
X131307760Y-99822000D01*
X131133368Y-99938525D01*
X130926525Y-100145368D01*
X130764010Y-100388589D01*
X130652068Y-100658842D01*
X130595000Y-100945740D01*
X130595000Y-101238260D01*
X130652068Y-101525158D01*
X130764010Y-101795411D01*
X130926525Y-102038632D01*
X131058380Y-102170487D01*
X130985820Y-102192498D01*
X130875506Y-102251463D01*
X130778815Y-102330815D01*
X130699463Y-102427506D01*
X130640498Y-102537820D01*
X130604188Y-102657518D01*
X130591928Y-102782000D01*
X130200000Y-102782000D01*
X130200000Y-89883581D01*
X130196726Y-89850339D01*
X130196726Y-89833863D01*
X130195763Y-89824698D01*
X130168134Y-89578382D01*
X130155695Y-89519865D01*
X130144078Y-89461192D01*
X130141353Y-89452389D01*
X130066408Y-89216131D01*
X130042868Y-89161209D01*
X130020048Y-89105842D01*
X130015664Y-89097736D01*
X129993734Y-89057845D01*
X130057424Y-88994155D01*
X130154277Y-88849205D01*
X130220990Y-88688145D01*
X130255000Y-88517165D01*
X130255000Y-88342835D01*
X130220990Y-88171855D01*
X130164349Y-88035110D01*
X135464524Y-88035110D01*
X135585845Y-88265000D01*
X136779000Y-88265000D01*
X136779000Y-87071186D01*
X136549109Y-86950519D01*
X136274748Y-87047843D01*
X136024645Y-87196822D01*
X135808412Y-87391731D01*
X135634359Y-87625080D01*
X135509175Y-87887901D01*
X135464524Y-88035110D01*
X130164349Y-88035110D01*
X130162232Y-88030000D01*
X130220990Y-87888145D01*
X130255000Y-87717165D01*
X130255000Y-87542835D01*
X130220990Y-87371855D01*
X130162232Y-87230000D01*
X130220990Y-87088145D01*
X130255000Y-86917165D01*
X130255000Y-86742835D01*
X130220990Y-86571855D01*
X130154277Y-86410795D01*
X130057424Y-86265845D01*
X129993063Y-86201484D01*
X130026919Y-86137809D01*
X130049707Y-86082521D01*
X130073279Y-86027525D01*
X130076003Y-86018722D01*
X130147643Y-85781441D01*
X130159264Y-85722754D01*
X130171700Y-85664248D01*
X130172663Y-85655083D01*
X130196850Y-85408405D01*
X130196850Y-85408402D01*
X130200000Y-85376419D01*
X130200000Y-82194000D01*
X138716419Y-82194000D01*
X138744865Y-82191198D01*
X138752682Y-82191253D01*
X138761853Y-82190354D01*
X139008357Y-82164446D01*
X139066986Y-82152411D01*
X139125716Y-82141208D01*
X139134532Y-82138546D01*
X139134536Y-82138545D01*
X139134539Y-82138544D01*
X139371314Y-82065249D01*
X139426457Y-82042069D01*
X139481920Y-82019661D01*
X139490054Y-82015335D01*
X139490059Y-82015333D01*
X139490064Y-82015330D01*
X139708086Y-81897447D01*
X139757654Y-81864012D01*
X139807735Y-81831241D01*
X139814876Y-81825416D01*
X140005856Y-81667423D01*
X140047995Y-81624988D01*
X140090745Y-81583125D01*
X140096618Y-81576024D01*
X140253273Y-81383947D01*
X140286374Y-81334125D01*
X140320173Y-81284763D01*
X140324556Y-81276657D01*
X140440919Y-81057809D01*
X140463707Y-81002521D01*
X140487279Y-80947525D01*
X140490003Y-80938722D01*
X140561643Y-80701441D01*
X140573264Y-80642754D01*
X140585700Y-80584248D01*
X140586663Y-80575083D01*
X140610850Y-80328405D01*
X140610850Y-80328402D01*
X140614000Y-80296419D01*
X140614000Y-77323740D01*
X143930000Y-77323740D01*
X143930000Y-77616260D01*
X143987068Y-77903158D01*
X144099010Y-78173411D01*
X144261525Y-78416632D01*
X144468368Y-78623475D01*
X144642760Y-78740000D01*
X144468368Y-78856525D01*
X144261525Y-79063368D01*
X144099010Y-79306589D01*
X143987068Y-79576842D01*
X143930000Y-79863740D01*
X143930000Y-80156260D01*
X143987068Y-80443158D01*
X144099010Y-80713411D01*
X144261525Y-80956632D01*
X144468368Y-81163475D01*
X144642760Y-81280000D01*
X144468368Y-81396525D01*
X144261525Y-81603368D01*
X144099010Y-81846589D01*
X143987068Y-82116842D01*
X143930000Y-82403740D01*
X143930000Y-82696260D01*
X143987068Y-82983158D01*
X144099010Y-83253411D01*
X144261525Y-83496632D01*
X144468368Y-83703475D01*
X144642760Y-83820000D01*
X144468368Y-83936525D01*
X144261525Y-84143368D01*
X144099010Y-84386589D01*
X143987068Y-84656842D01*
X143930000Y-84943740D01*
X143930000Y-85236260D01*
X143987068Y-85523158D01*
X144099010Y-85793411D01*
X144261525Y-86036632D01*
X144468368Y-86243475D01*
X144642760Y-86360000D01*
X144468368Y-86476525D01*
X144261525Y-86683368D01*
X144099010Y-86926589D01*
X143987068Y-87196842D01*
X143930000Y-87483740D01*
X143930000Y-87776260D01*
X143987068Y-88063158D01*
X144099010Y-88333411D01*
X144261525Y-88576632D01*
X144468368Y-88783475D01*
X144642760Y-88900000D01*
X144468368Y-89016525D01*
X144261525Y-89223368D01*
X144099010Y-89466589D01*
X143987068Y-89736842D01*
X143930000Y-90023740D01*
X143930000Y-90316260D01*
X143987068Y-90603158D01*
X144099010Y-90873411D01*
X144261525Y-91116632D01*
X144468368Y-91323475D01*
X144642760Y-91440000D01*
X144468368Y-91556525D01*
X144261525Y-91763368D01*
X144099010Y-92006589D01*
X143987068Y-92276842D01*
X143930000Y-92563740D01*
X143930000Y-92856260D01*
X143987068Y-93143158D01*
X144099010Y-93413411D01*
X144261525Y-93656632D01*
X144468368Y-93863475D01*
X144642760Y-93980000D01*
X144468368Y-94096525D01*
X144261525Y-94303368D01*
X144099010Y-94546589D01*
X143987068Y-94816842D01*
X143930000Y-95103740D01*
X143930000Y-95396260D01*
X143987068Y-95683158D01*
X144099010Y-95953411D01*
X144261525Y-96196632D01*
X144468368Y-96403475D01*
X144642760Y-96520000D01*
X144468368Y-96636525D01*
X144261525Y-96843368D01*
X144099010Y-97086589D01*
X143987068Y-97356842D01*
X143930000Y-97643740D01*
X143930000Y-97936260D01*
X143987068Y-98223158D01*
X144099010Y-98493411D01*
X144261525Y-98736632D01*
X144468368Y-98943475D01*
X144711589Y-99105990D01*
X144981842Y-99217932D01*
X145268740Y-99275000D01*
X145561260Y-99275000D01*
X145848158Y-99217932D01*
X146118411Y-99105990D01*
X146361632Y-98943475D01*
X146568475Y-98736632D01*
X146730990Y-98493411D01*
X146842932Y-98223158D01*
X146900000Y-97936260D01*
X146900000Y-97643740D01*
X146842932Y-97356842D01*
X146730990Y-97086589D01*
X146568475Y-96843368D01*
X146361632Y-96636525D01*
X146187240Y-96520000D01*
X146361632Y-96403475D01*
X146568475Y-96196632D01*
X146730990Y-95953411D01*
X146842932Y-95683158D01*
X146900000Y-95396260D01*
X146900000Y-95103740D01*
X146842932Y-94816842D01*
X146730990Y-94546589D01*
X146568475Y-94303368D01*
X146361632Y-94096525D01*
X146187240Y-93980000D01*
X146361632Y-93863475D01*
X146568475Y-93656632D01*
X146730990Y-93413411D01*
X146842932Y-93143158D01*
X146900000Y-92856260D01*
X146900000Y-92563740D01*
X146842932Y-92276842D01*
X146730990Y-92006589D01*
X146568475Y-91763368D01*
X146361632Y-91556525D01*
X146187240Y-91440000D01*
X146361632Y-91323475D01*
X146568475Y-91116632D01*
X146730990Y-90873411D01*
X146842932Y-90603158D01*
X146900000Y-90316260D01*
X146900000Y-90023740D01*
X146842932Y-89736842D01*
X146730990Y-89466589D01*
X146568475Y-89223368D01*
X146361632Y-89016525D01*
X146187240Y-88900000D01*
X146361632Y-88783475D01*
X146568475Y-88576632D01*
X146730990Y-88333411D01*
X146842932Y-88063158D01*
X146900000Y-87776260D01*
X146900000Y-87483740D01*
X146842932Y-87196842D01*
X146730990Y-86926589D01*
X146568475Y-86683368D01*
X146361632Y-86476525D01*
X146187240Y-86360000D01*
X146361632Y-86243475D01*
X146568475Y-86036632D01*
X146730990Y-85793411D01*
X146842932Y-85523158D01*
X146900000Y-85236260D01*
X146900000Y-84943740D01*
X146842932Y-84656842D01*
X146730990Y-84386589D01*
X146568475Y-84143368D01*
X146361632Y-83936525D01*
X146187240Y-83820000D01*
X146361632Y-83703475D01*
X146568475Y-83496632D01*
X146730990Y-83253411D01*
X146842932Y-82983158D01*
X146900000Y-82696260D01*
X146900000Y-82403740D01*
X146842932Y-82116842D01*
X146730990Y-81846589D01*
X146568475Y-81603368D01*
X146361632Y-81396525D01*
X146187240Y-81280000D01*
X146361632Y-81163475D01*
X146568475Y-80956632D01*
X146730990Y-80713411D01*
X146842932Y-80443158D01*
X146900000Y-80156260D01*
X146900000Y-79863740D01*
X146842932Y-79576842D01*
X146730990Y-79306589D01*
X146568475Y-79063368D01*
X146361632Y-78856525D01*
X146187240Y-78740000D01*
X146361632Y-78623475D01*
X146568475Y-78416632D01*
X146730990Y-78173411D01*
X146842932Y-77903158D01*
X146900000Y-77616260D01*
X146900000Y-77323740D01*
X146842932Y-77036842D01*
X146730990Y-76766589D01*
X146568475Y-76523368D01*
X146361632Y-76316525D01*
X146118411Y-76154010D01*
X145848158Y-76042068D01*
X145561260Y-75985000D01*
X145268740Y-75985000D01*
X144981842Y-76042068D01*
X144711589Y-76154010D01*
X144468368Y-76316525D01*
X144261525Y-76523368D01*
X144099010Y-76766589D01*
X143987068Y-77036842D01*
X143930000Y-77323740D01*
X140614000Y-77323740D01*
X140614000Y-70080702D01*
X141680903Y-70080702D01*
X141752486Y-70324671D01*
X142007996Y-70445571D01*
X142282184Y-70514300D01*
X142564512Y-70528217D01*
X142844130Y-70486787D01*
X143110292Y-70391603D01*
X143235514Y-70324671D01*
X143307097Y-70080702D01*
X142494000Y-69267605D01*
X141680903Y-70080702D01*
X140614000Y-70080702D01*
X140614000Y-69158512D01*
X141053783Y-69158512D01*
X141095213Y-69438130D01*
X141190397Y-69704292D01*
X141257329Y-69829514D01*
X141501298Y-69901097D01*
X142314395Y-69088000D01*
X142673605Y-69088000D01*
X143486702Y-69901097D01*
X143730671Y-69829514D01*
X143851571Y-69574004D01*
X143920300Y-69299816D01*
X143934217Y-69017488D01*
X143892787Y-68737870D01*
X143797603Y-68471708D01*
X143730671Y-68346486D01*
X143531340Y-68288000D01*
X144555928Y-68288000D01*
X144555928Y-69888000D01*
X144568188Y-70012482D01*
X144604498Y-70132180D01*
X144663463Y-70242494D01*
X144742815Y-70339185D01*
X144839506Y-70418537D01*
X144949820Y-70477502D01*
X145069518Y-70513812D01*
X145194000Y-70526072D01*
X146794000Y-70526072D01*
X146918482Y-70513812D01*
X147038180Y-70477502D01*
X147148494Y-70418537D01*
X147245185Y-70339185D01*
X147324537Y-70242494D01*
X147383502Y-70132180D01*
X147419812Y-70012482D01*
X147432072Y-69888000D01*
X147432072Y-68288000D01*
X147419812Y-68163518D01*
X147383502Y-68043820D01*
X147324537Y-67933506D01*
X147245185Y-67836815D01*
X147148494Y-67757463D01*
X147038180Y-67698498D01*
X146918482Y-67662188D01*
X146794000Y-67649928D01*
X145194000Y-67649928D01*
X145069518Y-67662188D01*
X144949820Y-67698498D01*
X144839506Y-67757463D01*
X144742815Y-67836815D01*
X144663463Y-67933506D01*
X144604498Y-68043820D01*
X144568188Y-68163518D01*
X144555928Y-68288000D01*
X143531340Y-68288000D01*
X143486702Y-68274903D01*
X142673605Y-69088000D01*
X142314395Y-69088000D01*
X141501298Y-68274903D01*
X141257329Y-68346486D01*
X141136429Y-68601996D01*
X141067700Y-68876184D01*
X141053783Y-69158512D01*
X140614000Y-69158512D01*
X140614000Y-68095298D01*
X141680903Y-68095298D01*
X142494000Y-68908395D01*
X143307097Y-68095298D01*
X143235514Y-67851329D01*
X142980004Y-67730429D01*
X142705816Y-67661700D01*
X142423488Y-67647783D01*
X142143870Y-67689213D01*
X141877708Y-67784397D01*
X141752486Y-67851329D01*
X141680903Y-68095298D01*
X140614000Y-68095298D01*
X140614000Y-62665404D01*
X148229000Y-62665404D01*
X148229001Y-65350597D01*
X148256276Y-65627524D01*
X148364062Y-65982848D01*
X148539098Y-66310317D01*
X148774656Y-66597345D01*
X149061684Y-66832903D01*
X149389153Y-67007939D01*
X149744477Y-67115725D01*
X150114000Y-67152120D01*
X150483524Y-67115725D01*
X150838848Y-67007939D01*
X151166317Y-66832903D01*
X151453345Y-66597345D01*
X151688903Y-66310317D01*
X151863939Y-65982848D01*
X151971725Y-65627524D01*
X151999000Y-65350597D01*
X151999000Y-64135000D01*
X154354000Y-64135000D01*
X154354000Y-65260000D01*
X154412594Y-65600919D01*
X154536573Y-65923856D01*
X154721171Y-66216401D01*
X154959295Y-66467311D01*
X155241793Y-66666944D01*
X155557810Y-66807629D01*
X155713957Y-66846933D01*
X155987000Y-66729206D01*
X155987000Y-64135000D01*
X156241000Y-64135000D01*
X156241000Y-66729206D01*
X156514043Y-66846933D01*
X156670190Y-66807629D01*
X156986207Y-66666944D01*
X157268705Y-66467311D01*
X157506829Y-66216401D01*
X157691427Y-65923856D01*
X157815406Y-65600919D01*
X157874000Y-65260000D01*
X157874000Y-64135000D01*
X156241000Y-64135000D01*
X155987000Y-64135000D01*
X154354000Y-64135000D01*
X151999000Y-64135000D01*
X151999000Y-62756000D01*
X154354000Y-62756000D01*
X154354000Y-63881000D01*
X155987000Y-63881000D01*
X155987000Y-61286794D01*
X156241000Y-61286794D01*
X156241000Y-63881000D01*
X157874000Y-63881000D01*
X157874000Y-62756000D01*
X157815406Y-62415081D01*
X157691427Y-62092144D01*
X157506829Y-61799599D01*
X157268705Y-61548689D01*
X156986207Y-61349056D01*
X156670190Y-61208371D01*
X156514043Y-61169067D01*
X156241000Y-61286794D01*
X155987000Y-61286794D01*
X155713957Y-61169067D01*
X155557810Y-61208371D01*
X155241793Y-61349056D01*
X154959295Y-61548689D01*
X154721171Y-61799599D01*
X154536573Y-62092144D01*
X154412594Y-62415081D01*
X154354000Y-62756000D01*
X151999000Y-62756000D01*
X151999000Y-62665403D01*
X151971725Y-62388476D01*
X151863939Y-62033152D01*
X151688903Y-61705683D01*
X151453345Y-61418655D01*
X151166317Y-61183097D01*
X150838847Y-61008061D01*
X150483523Y-60900275D01*
X150114000Y-60863880D01*
X149744476Y-60900275D01*
X149389152Y-61008061D01*
X149061683Y-61183097D01*
X148774655Y-61418655D01*
X148539097Y-61705683D01*
X148364061Y-62033153D01*
X148256275Y-62388477D01*
X148229000Y-62665404D01*
X140614000Y-62665404D01*
X140614000Y-59308000D01*
X150220485Y-59308000D01*
X150254467Y-59653020D01*
X150355105Y-59984781D01*
X150518534Y-60290534D01*
X150738471Y-60558529D01*
X151006466Y-60778466D01*
X151312219Y-60941895D01*
X151643980Y-61042533D01*
X151902547Y-61068000D01*
X154325453Y-61068000D01*
X154584020Y-61042533D01*
X154915781Y-60941895D01*
X155221534Y-60778466D01*
X155489529Y-60558529D01*
X155709466Y-60290534D01*
X155872895Y-59984781D01*
X155973533Y-59653020D01*
X156007515Y-59308000D01*
X155973533Y-58962980D01*
X155872895Y-58631219D01*
X155709466Y-58325466D01*
X155489529Y-58057471D01*
X155221534Y-57837534D01*
X154915781Y-57674105D01*
X154584020Y-57573467D01*
X154325453Y-57548000D01*
X151902547Y-57548000D01*
X151643980Y-57573467D01*
X151312219Y-57674105D01*
X151006466Y-57837534D01*
X150738471Y-58057471D01*
X150518534Y-58325466D01*
X150355105Y-58631219D01*
X150254467Y-58962980D01*
X150220485Y-59308000D01*
X140614000Y-59308000D01*
X140614000Y-57117581D01*
X140611198Y-57089135D01*
X140611253Y-57081318D01*
X140610354Y-57072147D01*
X140584446Y-56825644D01*
X140572414Y-56767028D01*
X140561208Y-56708284D01*
X140558544Y-56699462D01*
X140485249Y-56462686D01*
X140462074Y-56407555D01*
X140439661Y-56352080D01*
X140435334Y-56343944D01*
X140317446Y-56125914D01*
X140284012Y-56076346D01*
X140251240Y-56026265D01*
X140245416Y-56019124D01*
X140087423Y-55828144D01*
X140044988Y-55786005D01*
X140003125Y-55743255D01*
X139996024Y-55737381D01*
X139803946Y-55580727D01*
X139754169Y-55547655D01*
X139704763Y-55513826D01*
X139696657Y-55509444D01*
X139477809Y-55393081D01*
X139422532Y-55370298D01*
X139367525Y-55346721D01*
X139358722Y-55343997D01*
X139121441Y-55272357D01*
X139062754Y-55260736D01*
X139004248Y-55248300D01*
X138995085Y-55247337D01*
X138995083Y-55247337D01*
X138748405Y-55223150D01*
X138748402Y-55223150D01*
X138716419Y-55220000D01*
X133248000Y-55220000D01*
X133248000Y-52690655D01*
X134759700Y-52690655D01*
X134759700Y-52973345D01*
X134814850Y-53250603D01*
X134923031Y-53511775D01*
X135080085Y-53746823D01*
X135279977Y-53946715D01*
X135515025Y-54103769D01*
X135776197Y-54211950D01*
X136053455Y-54267100D01*
X136336145Y-54267100D01*
X136613403Y-54211950D01*
X136874575Y-54103769D01*
X137109623Y-53946715D01*
X137309515Y-53746823D01*
X137439400Y-53552436D01*
X137569285Y-53746823D01*
X137769177Y-53946715D01*
X138004225Y-54103769D01*
X138265397Y-54211950D01*
X138542655Y-54267100D01*
X138825345Y-54267100D01*
X139102603Y-54211950D01*
X139363775Y-54103769D01*
X139598823Y-53946715D01*
X139798715Y-53746823D01*
X139955769Y-53511775D01*
X140063950Y-53250603D01*
X140119100Y-52973345D01*
X140119100Y-52690655D01*
X140063950Y-52413397D01*
X139955769Y-52152225D01*
X139804841Y-51926345D01*
X148526500Y-51926345D01*
X148526500Y-52239055D01*
X148587507Y-52545757D01*
X148707176Y-52834663D01*
X148880908Y-53094672D01*
X149102028Y-53315792D01*
X149362037Y-53489524D01*
X149650943Y-53609193D01*
X149957645Y-53670200D01*
X150270355Y-53670200D01*
X150577057Y-53609193D01*
X150865963Y-53489524D01*
X151125972Y-53315792D01*
X151347092Y-53094672D01*
X151520824Y-52834663D01*
X151640493Y-52545757D01*
X151701500Y-52239055D01*
X151701500Y-51926345D01*
X151640493Y-51619643D01*
X151520824Y-51330737D01*
X151347092Y-51070728D01*
X151125972Y-50849608D01*
X150865963Y-50675876D01*
X150577057Y-50556207D01*
X150270355Y-50495200D01*
X149957645Y-50495200D01*
X149650943Y-50556207D01*
X149362037Y-50675876D01*
X149102028Y-50849608D01*
X148880908Y-51070728D01*
X148707176Y-51330737D01*
X148587507Y-51619643D01*
X148526500Y-51926345D01*
X139804841Y-51926345D01*
X139798715Y-51917177D01*
X139598823Y-51717285D01*
X139363775Y-51560231D01*
X139102603Y-51452050D01*
X138825345Y-51396900D01*
X138542655Y-51396900D01*
X138265397Y-51452050D01*
X138004225Y-51560231D01*
X137769177Y-51717285D01*
X137569285Y-51917177D01*
X137439400Y-52111564D01*
X137309515Y-51917177D01*
X137109623Y-51717285D01*
X136874575Y-51560231D01*
X136613403Y-51452050D01*
X136336145Y-51396900D01*
X136053455Y-51396900D01*
X135776197Y-51452050D01*
X135515025Y-51560231D01*
X135279977Y-51717285D01*
X135080085Y-51917177D01*
X134923031Y-52152225D01*
X134814850Y-52413397D01*
X134759700Y-52690655D01*
X133248000Y-52690655D01*
X133248000Y-46797855D01*
X134759700Y-46797855D01*
X134759700Y-47080545D01*
X134814850Y-47357803D01*
X134923031Y-47618975D01*
X135080085Y-47854023D01*
X135279977Y-48053915D01*
X135515025Y-48210969D01*
X135776197Y-48319150D01*
X136053455Y-48374300D01*
X136336145Y-48374300D01*
X136613403Y-48319150D01*
X136874575Y-48210969D01*
X137109623Y-48053915D01*
X137309515Y-47854023D01*
X137439400Y-47659636D01*
X137569285Y-47854023D01*
X137769177Y-48053915D01*
X138004225Y-48210969D01*
X138265397Y-48319150D01*
X138542655Y-48374300D01*
X138825345Y-48374300D01*
X139102603Y-48319150D01*
X139363775Y-48210969D01*
X139598823Y-48053915D01*
X139798715Y-47854023D01*
X139955769Y-47618975D01*
X139991735Y-47532145D01*
X148526500Y-47532145D01*
X148526500Y-47844855D01*
X148587507Y-48151557D01*
X148707176Y-48440463D01*
X148880908Y-48700472D01*
X149102028Y-48921592D01*
X149362037Y-49095324D01*
X149650943Y-49214993D01*
X149957645Y-49276000D01*
X150270355Y-49276000D01*
X150577057Y-49214993D01*
X150865963Y-49095324D01*
X151125972Y-48921592D01*
X151347092Y-48700472D01*
X151520824Y-48440463D01*
X151640493Y-48151557D01*
X151701500Y-47844855D01*
X151701500Y-47532145D01*
X151640493Y-47225443D01*
X151520824Y-46936537D01*
X151347092Y-46676528D01*
X151125972Y-46455408D01*
X150865963Y-46281676D01*
X150577057Y-46162007D01*
X150270355Y-46101000D01*
X149957645Y-46101000D01*
X149650943Y-46162007D01*
X149362037Y-46281676D01*
X149102028Y-46455408D01*
X148880908Y-46676528D01*
X148707176Y-46936537D01*
X148587507Y-47225443D01*
X148526500Y-47532145D01*
X139991735Y-47532145D01*
X140063950Y-47357803D01*
X140119100Y-47080545D01*
X140119100Y-46797855D01*
X140063950Y-46520597D01*
X139955769Y-46259425D01*
X139798715Y-46024377D01*
X139598823Y-45824485D01*
X139363775Y-45667431D01*
X139102603Y-45559250D01*
X138825345Y-45504100D01*
X138542655Y-45504100D01*
X138265397Y-45559250D01*
X138004225Y-45667431D01*
X137769177Y-45824485D01*
X137569285Y-46024377D01*
X137439400Y-46218764D01*
X137309515Y-46024377D01*
X137109623Y-45824485D01*
X136874575Y-45667431D01*
X136613403Y-45559250D01*
X136336145Y-45504100D01*
X136053455Y-45504100D01*
X135776197Y-45559250D01*
X135515025Y-45667431D01*
X135279977Y-45824485D01*
X135080085Y-46024377D01*
X134923031Y-46259425D01*
X134814850Y-46520597D01*
X134759700Y-46797855D01*
X133248000Y-46797855D01*
X133248000Y-44602000D01*
X160630001Y-44602000D01*
X160630000Y-141072000D01*
G37*
%TD.AperFunction*%
D24*
X137033000Y-126365000D02*
X137053000Y-126365000D01*
X137053000Y-126619000D01*
X137033000Y-126619000D01*
X137033000Y-126639000D01*
X136779000Y-126639000D01*
X136779000Y-126619000D01*
X136759000Y-126619000D01*
X136759000Y-126365000D01*
X136779000Y-126365000D01*
X136779000Y-126345000D01*
X137033000Y-126345000D01*
X137033000Y-126365000D01*
%TA.AperFunction,Conductor*%
D25*
G36*
X137033000Y-126365000D02*
G01*
X137053000Y-126365000D01*
X137053000Y-126619000D01*
X137033000Y-126619000D01*
X137033000Y-126639000D01*
X136779000Y-126639000D01*
X136779000Y-126619000D01*
X136759000Y-126619000D01*
X136759000Y-126365000D01*
X136779000Y-126365000D01*
X136779000Y-126345000D01*
X137033000Y-126345000D01*
X137033000Y-126365000D01*
G37*
%TD.AperFunction*%
%TD*%
M02*
