%TF.GenerationSoftware,KiCad,Pcbnew,5.99.0+really5.1.9+dfsg1-1*%
%TF.CreationDate,2021-05-15T22:05:00+10:00*%
%TF.ProjectId,minisynth32,6d696e69-7379-46e7-9468-33322e6b6963,1.1*%
%TF.SameCoordinates,Original*%
%TF.FileFunction,Copper,L1,Top*%
%TF.FilePolarity,Positive*%
%FSLAX46Y46*%
G04 Gerber Fmt 4.6, Leading zero omitted, Abs format (unit mm)*
G04 Created by KiCad (PCBNEW 5.99.0+really5.1.9+dfsg1-1) date 2021-05-15 22:05:00*
%MOMM*%
%LPD*%
G01*
G04 APERTURE LIST*
%TA.AperFunction,ComponentPad*%
%ADD10O,1.600000X1.600000*%
%TD*%
%TA.AperFunction,ComponentPad*%
%ADD11C,1.600000*%
%TD*%
%TA.AperFunction,ComponentPad*%
%ADD12R,1.600000X1.600000*%
%TD*%
%TA.AperFunction,ComponentPad*%
%ADD13O,1.700000X1.700000*%
%TD*%
%TA.AperFunction,ComponentPad*%
%ADD14R,1.700000X1.700000*%
%TD*%
%TA.AperFunction,SMDPad,CuDef*%
%ADD15R,0.762000X1.524000*%
%TD*%
%TA.AperFunction,ComponentPad*%
%ADD16C,1.600200*%
%TD*%
%TA.AperFunction,ComponentPad*%
%ADD17O,4.500000X2.250000*%
%TD*%
%TA.AperFunction,ComponentPad*%
%ADD18O,2.250000X4.500000*%
%TD*%
%TA.AperFunction,ComponentPad*%
%ADD19O,2.500000X5.000000*%
%TD*%
%TA.AperFunction,ComponentPad*%
%ADD20C,1.700000*%
%TD*%
%TA.AperFunction,Conductor*%
%ADD21C,1.270000*%
%TD*%
%TA.AperFunction,Conductor*%
%ADD22C,0.760000*%
%TD*%
%TA.AperFunction,Conductor*%
%ADD23C,0.250000*%
%TD*%
%TA.AperFunction,NonConductor*%
%ADD24C,0.254000*%
%TD*%
%TA.AperFunction,NonConductor*%
%ADD25C,0.100000*%
%TD*%
G04 APERTURE END LIST*
D10*
%TO.P,R1,2*%
%TO.N,+3V3*%
X143891000Y-116332000D03*
D11*
%TO.P,R1,1*%
%TO.N,/GPIO15(RXD0)*%
X154051000Y-116332000D03*
%TD*%
D10*
%TO.P,R2,2*%
%TO.N,Net-(D1-Pad1)*%
X158750000Y-126746000D03*
D11*
%TO.P,R2,1*%
%TO.N,Net-(J5-Pad2)*%
X158750000Y-136906000D03*
%TD*%
%TO.P,C3,2*%
%TO.N,GND*%
X148844000Y-111212000D03*
D12*
%TO.P,C3,1*%
%TO.N,+5V*%
X148844000Y-108712000D03*
%TD*%
D13*
%TO.P,J7,4*%
%TO.N,Net-(J6-Pad6)*%
X125476000Y-117856000D03*
%TO.P,J7,3*%
%TO.N,Net-(J6-Pad5)*%
X122936000Y-117856000D03*
%TO.P,J7,2*%
%TO.N,Net-(J6-Pad4)*%
X120396000Y-117856000D03*
D14*
%TO.P,J7,1*%
%TO.N,Net-(J6-Pad3)*%
X117856000Y-117856000D03*
%TD*%
D15*
%TO.P,SW3,1*%
%TO.N,Net-(J6-Pad3)*%
X122643900Y-65303400D03*
%TO.P,SW3,3*%
%TO.N,Net-(J6-Pad1)*%
X118148100Y-65303400D03*
%TO.P,SW3,4*%
X118148100Y-56108600D03*
%TO.P,SW3,2*%
%TO.N,Net-(J6-Pad3)*%
X122643900Y-56108600D03*
%TD*%
D16*
%TO.P,SW2,4*%
%TO.N,Net-(SW2-Pad4)*%
X138684000Y-46939200D03*
%TO.P,SW2,3*%
%TO.N,Net-(SW2-Pad3)*%
X136194800Y-46939200D03*
%TO.P,SW2,2*%
%TO.N,+5V*%
X138684000Y-52832000D03*
%TO.P,SW2,1*%
%TO.N,Net-(J3-Pad1)*%
X136194800Y-52832000D03*
%TD*%
D15*
%TO.P,SW1,1*%
%TO.N,Net-(J6-Pad3)*%
X122643900Y-83083400D03*
%TO.P,SW1,3*%
%TO.N,Net-(J6-Pad2)*%
X118148100Y-83083400D03*
%TO.P,SW1,4*%
X118148100Y-73888600D03*
%TO.P,SW1,2*%
%TO.N,Net-(J6-Pad3)*%
X122643900Y-73888600D03*
%TD*%
D13*
%TO.P,J6,6*%
%TO.N,Net-(J6-Pad6)*%
X113284000Y-125476000D03*
%TO.P,J6,5*%
%TO.N,Net-(J6-Pad5)*%
X113284000Y-122936000D03*
%TO.P,J6,4*%
%TO.N,Net-(J6-Pad4)*%
X113284000Y-120396000D03*
%TO.P,J6,3*%
%TO.N,Net-(J6-Pad3)*%
X113284000Y-117856000D03*
%TO.P,J6,2*%
%TO.N,Net-(J6-Pad2)*%
X113284000Y-115316000D03*
D14*
%TO.P,J6,1*%
%TO.N,Net-(J6-Pad1)*%
X113284000Y-112776000D03*
%TD*%
D13*
%TO.P,J5,2*%
%TO.N,Net-(J5-Pad2)*%
X143764000Y-136652000D03*
D14*
%TO.P,J5,1*%
%TO.N,Net-(D1-Pad2)*%
X146304000Y-136652000D03*
%TD*%
D13*
%TO.P,J4,4*%
%TO.N,ENC_DAT*%
X132080000Y-96012000D03*
%TO.P,J4,3*%
%TO.N,ENC_CLK*%
X132080000Y-98552000D03*
%TO.P,J4,2*%
%TO.N,ENC_BTN*%
X132080000Y-101092000D03*
D14*
%TO.P,J4,1*%
%TO.N,GND*%
X132080000Y-103632000D03*
%TD*%
D17*
%TO.P,J3,3*%
%TO.N,Net-(J3-Pad3)*%
X153114000Y-59308000D03*
D18*
%TO.P,J3,2*%
%TO.N,GND*%
X156114000Y-64008000D03*
D19*
%TO.P,J3,1*%
%TO.N,Net-(J3-Pad1)*%
X150114000Y-64008000D03*
%TD*%
D13*
%TO.P,J1,6*%
%TO.N,I2C_SDA*%
X132080000Y-134112000D03*
%TO.P,J1,5*%
%TO.N,I2C_SCL*%
X132080000Y-131572000D03*
%TO.P,J1,4*%
%TO.N,+5V*%
X132080000Y-129032000D03*
%TO.P,J1,3*%
%TO.N,GND*%
X132080000Y-126492000D03*
%TO.P,J1,2*%
%TO.N,BTN1*%
X132080000Y-123952000D03*
D14*
%TO.P,J1,1*%
%TO.N,BTN2*%
X132080000Y-121412000D03*
%TD*%
D20*
%TO.P,A1,6*%
%TO.N,+5V*%
X158750000Y-104140000D03*
%TO.P,A1,5*%
%TO.N,GND*%
X156210000Y-104140000D03*
%TO.P,A1,4*%
%TO.N,I2S_LRCLK*%
X153670000Y-104140000D03*
%TO.P,A1,3*%
%TO.N,I2S_DATA*%
X151130000Y-104140000D03*
%TO.P,A1,2*%
%TO.N,I2S_BCLK*%
X148590000Y-104140000D03*
%TO.P,A1,1*%
%TO.N,GND*%
X146050000Y-104140000D03*
%TO.P,A1,7*%
%TO.N,Net-(A1-Pad7)*%
X145415000Y-77470000D03*
%TO.P,A1,8*%
%TO.N,Net-(A1-Pad8)*%
X145415000Y-80010000D03*
%TO.P,A1,9*%
%TO.N,Net-(A1-Pad9)*%
X145415000Y-82550000D03*
%TO.P,A1,10*%
%TO.N,Net-(A1-Pad10)*%
X145415000Y-85090000D03*
%TO.P,A1,11*%
%TO.N,Net-(A1-Pad11)*%
X145415000Y-87630000D03*
%TO.P,A1,12*%
%TO.N,Net-(A1-Pad12)*%
X145415000Y-90170000D03*
%TO.P,A1,13*%
%TO.N,Net-(A1-Pad13)*%
X145415000Y-92710000D03*
%TO.P,A1,14*%
%TO.N,Net-(A1-Pad14)*%
X145415000Y-95250000D03*
%TO.P,A1,15*%
%TO.N,Net-(A1-Pad15)*%
X145415000Y-97790000D03*
%TD*%
D10*
%TO.P,U1,6*%
%TO.N,+3V3*%
X146050000Y-130302000D03*
%TO.P,U1,3*%
%TO.N,Net-(U1-Pad3)*%
X153670000Y-125222000D03*
%TO.P,U1,5*%
%TO.N,GND*%
X146050000Y-127762000D03*
%TO.P,U1,2*%
%TO.N,Net-(D1-Pad2)*%
X153670000Y-127762000D03*
%TO.P,U1,4*%
%TO.N,/GPIO15(RXD0)*%
X146050000Y-125222000D03*
D12*
%TO.P,U1,1*%
%TO.N,Net-(D1-Pad1)*%
X153670000Y-130302000D03*
%TD*%
D13*
%TO.P,J2,40*%
%TO.N,I2S_DATA*%
X139446000Y-88392000D03*
%TO.P,J2,39*%
%TO.N,GND*%
X136906000Y-88392000D03*
%TO.P,J2,38*%
%TO.N,/GPIO20(SPI1_MOSI)*%
X139446000Y-90932000D03*
%TO.P,J2,37*%
%TO.N,/GPIO26*%
X136906000Y-90932000D03*
%TO.P,J2,36*%
%TO.N,/GPIO16*%
X139446000Y-93472000D03*
%TO.P,J2,35*%
%TO.N,I2S_LRCLK*%
X136906000Y-93472000D03*
%TO.P,J2,34*%
%TO.N,GND*%
X139446000Y-96012000D03*
%TO.P,J2,33*%
%TO.N,/GPIO13(PWM1)*%
X136906000Y-96012000D03*
%TO.P,J2,32*%
%TO.N,/GPIO12(PWM0)*%
X139446000Y-98552000D03*
%TO.P,J2,31*%
%TO.N,/GPIO6*%
X136906000Y-98552000D03*
%TO.P,J2,30*%
%TO.N,GND*%
X139446000Y-101092000D03*
%TO.P,J2,29*%
%TO.N,/GPIO5*%
X136906000Y-101092000D03*
%TO.P,J2,28*%
%TO.N,/ID_SC*%
X139446000Y-103632000D03*
%TO.P,J2,27*%
%TO.N,/ID_SD*%
X136906000Y-103632000D03*
%TO.P,J2,26*%
%TO.N,/GPIO7(SPI1_CE_N)*%
X139446000Y-106172000D03*
%TO.P,J2,25*%
%TO.N,GND*%
X136906000Y-106172000D03*
%TO.P,J2,24*%
%TO.N,/GPIO8(SPI0_CE_N)*%
X139446000Y-108712000D03*
%TO.P,J2,23*%
%TO.N,/GPIO11(SPI0_CLK)*%
X136906000Y-108712000D03*
%TO.P,J2,22*%
%TO.N,/GPIO25(GEN6)*%
X139446000Y-111252000D03*
%TO.P,J2,21*%
%TO.N,/GPIO9(SPI0_MISO)*%
X136906000Y-111252000D03*
%TO.P,J2,20*%
%TO.N,GND*%
X139446000Y-113792000D03*
%TO.P,J2,19*%
%TO.N,/GPIO10(SPI0_MOSI)*%
X136906000Y-113792000D03*
%TO.P,J2,18*%
%TO.N,/GPIO24(GEN5)*%
X139446000Y-116332000D03*
%TO.P,J2,17*%
%TO.N,Net-(J2-Pad17)*%
X136906000Y-116332000D03*
%TO.P,J2,16*%
%TO.N,ENC_DAT*%
X139446000Y-118872000D03*
%TO.P,J2,15*%
%TO.N,ENC_CLK*%
X136906000Y-118872000D03*
%TO.P,J2,14*%
%TO.N,GND*%
X139446000Y-121412000D03*
%TO.P,J2,13*%
%TO.N,BTN2*%
X136906000Y-121412000D03*
%TO.P,J2,12*%
%TO.N,I2S_BCLK*%
X139446000Y-123952000D03*
%TO.P,J2,11*%
%TO.N,BTN1*%
X136906000Y-123952000D03*
%TO.P,J2,10*%
%TO.N,/GPIO15(RXD0)*%
X139446000Y-126492000D03*
%TO.P,J2,9*%
%TO.N,GND*%
X136906000Y-126492000D03*
%TO.P,J2,8*%
%TO.N,/GPIO14(TXD0)*%
X139446000Y-129032000D03*
%TO.P,J2,7*%
%TO.N,ENC_BTN*%
X136906000Y-129032000D03*
%TO.P,J2,6*%
%TO.N,GND*%
X139446000Y-131572000D03*
%TO.P,J2,5*%
%TO.N,I2C_SCL*%
X136906000Y-131572000D03*
%TO.P,J2,4*%
%TO.N,+5V*%
X139446000Y-134112000D03*
%TO.P,J2,3*%
%TO.N,I2C_SDA*%
X136906000Y-134112000D03*
%TO.P,J2,2*%
%TO.N,+5V*%
X139446000Y-136652000D03*
D14*
%TO.P,J2,1*%
%TO.N,+3V3*%
X136906000Y-136652000D03*
%TD*%
D10*
%TO.P,D1,2*%
%TO.N,Net-(D1-Pad2)*%
X158750000Y-116078000D03*
D12*
%TO.P,D1,1*%
%TO.N,Net-(D1-Pad1)*%
X158750000Y-123698000D03*
%TD*%
D11*
%TO.P,C4,2*%
%TO.N,GND*%
X158750000Y-112442000D03*
%TO.P,C4,1*%
%TO.N,+5V*%
X158750000Y-107442000D03*
%TD*%
%TO.P,C2,2*%
%TO.N,GND*%
X152066000Y-120222000D03*
%TO.P,C2,1*%
%TO.N,+3V3*%
X147066000Y-120222000D03*
%TD*%
%TO.P,C1,2*%
%TO.N,GND*%
X142494000Y-69088000D03*
D12*
%TO.P,C1,1*%
%TO.N,+5V*%
X145994000Y-69088000D03*
%TD*%
D21*
%TO.N,+5V*%
X139446000Y-136652000D02*
X139446000Y-134112000D01*
X158750000Y-104140000D02*
X158750000Y-84892000D01*
X145994000Y-72136000D02*
X158750000Y-84892000D01*
X145994000Y-69088000D02*
X145994000Y-72136000D01*
X138684000Y-52832000D02*
X142494000Y-52832000D01*
X142494000Y-52832000D02*
X146050000Y-56388000D01*
X145994000Y-56444000D02*
X145994000Y-69088000D01*
X146050000Y-56388000D02*
X145994000Y-56444000D01*
X158750000Y-104140000D02*
X158750000Y-107442000D01*
X150114000Y-107442000D02*
X148844000Y-108712000D01*
X158750000Y-107442000D02*
X156210000Y-107442000D01*
X154940000Y-107442000D02*
X150114000Y-107442000D01*
X156210000Y-107442000D02*
X154940000Y-107442000D01*
X141881011Y-132879070D02*
X140648081Y-134112000D01*
X141881011Y-113604989D02*
X141881011Y-132879070D01*
X146774000Y-108712000D02*
X141881011Y-113604989D01*
X140648081Y-134112000D02*
X139446000Y-134112000D01*
X148844000Y-108712000D02*
X146774000Y-108712000D01*
X134065001Y-129747001D02*
X133350000Y-129032000D01*
X134065001Y-137554003D02*
X134065001Y-129747001D01*
X135147999Y-138637001D02*
X134065001Y-137554003D01*
X138664001Y-138637001D02*
X135147999Y-138637001D01*
X139446000Y-137855002D02*
X138664001Y-138637001D01*
X133350000Y-129032000D02*
X132080000Y-129032000D01*
X139446000Y-136652000D02*
X139446000Y-137855002D01*
D22*
%TO.N,GND*%
X136906000Y-126492000D02*
X132080000Y-126492000D01*
D23*
%TO.N,I2S_LRCLK*%
X135730999Y-87827999D02*
X135730999Y-92296999D01*
X140010001Y-87216999D02*
X136341999Y-87216999D01*
X141071011Y-88278009D02*
X140010001Y-87216999D01*
X136341999Y-87216999D02*
X135730999Y-87827999D01*
X141071011Y-97637011D02*
X141071011Y-88278009D01*
X145948989Y-102514989D02*
X141071011Y-97637011D01*
X152044989Y-102514989D02*
X145948989Y-102514989D01*
X135730999Y-92296999D02*
X136906000Y-93472000D01*
X153670000Y-104140000D02*
X152044989Y-102514989D01*
%TO.N,I2S_DATA*%
X140621001Y-89567001D02*
X139446000Y-88392000D01*
X140621001Y-97987999D02*
X140621001Y-89567001D01*
X145598001Y-102964999D02*
X140621001Y-97987999D01*
X149954999Y-102964999D02*
X145598001Y-102964999D01*
X151130000Y-104140000D02*
X149954999Y-102964999D01*
%TO.N,I2S_BCLK*%
X140621001Y-122776999D02*
X139446000Y-123952000D01*
X140621001Y-112108999D02*
X140621001Y-122776999D01*
X148590000Y-104140000D02*
X140621001Y-112108999D01*
%TO.N,Net-(D1-Pad2)*%
X146304000Y-135128000D02*
X153670000Y-127762000D01*
X146304000Y-136652000D02*
X146304000Y-135128000D01*
X154795001Y-120032999D02*
X158750000Y-116078000D01*
X154795001Y-126636999D02*
X154795001Y-120032999D01*
X153670000Y-127762000D02*
X154795001Y-126636999D01*
%TO.N,Net-(D1-Pad1)*%
X158750000Y-123698000D02*
X158750000Y-126746000D01*
X155194000Y-130302000D02*
X158750000Y-126746000D01*
X153670000Y-130302000D02*
X155194000Y-130302000D01*
%TO.N,I2C_SDA*%
X132080000Y-134112000D02*
X131826000Y-134112000D01*
%TO.N,BTN2*%
X132080000Y-121412000D02*
X136906000Y-121412000D01*
%TO.N,BTN1*%
X136906000Y-124206000D02*
X136906000Y-123952000D01*
X132080000Y-123952000D02*
X136906000Y-123952000D01*
%TO.N,ENC_DAT*%
X136341999Y-120047001D02*
X130904999Y-114610001D01*
X138270999Y-120047001D02*
X136341999Y-120047001D01*
X139446000Y-118872000D02*
X138270999Y-120047001D01*
X130904999Y-97187001D02*
X132080000Y-96012000D01*
X130904999Y-114610001D02*
X130904999Y-97187001D01*
%TO.N,ENC_CLK*%
X136906000Y-118872000D02*
X133255001Y-115221001D01*
X133255001Y-99727001D02*
X132080000Y-98552000D01*
X133255001Y-115221001D02*
X133255001Y-99727001D01*
%TO.N,/GPIO15(RXD0)*%
X153808630Y-116332000D02*
X154051000Y-116332000D01*
X146050000Y-124090630D02*
X153808630Y-116332000D01*
X146050000Y-125222000D02*
X146050000Y-124090630D01*
D21*
%TO.N,Net-(J3-Pad1)*%
X136342000Y-52979200D02*
X136194800Y-52832000D01*
X149860000Y-64008000D02*
X150114000Y-64008000D01*
X149728990Y-63622990D02*
X150114000Y-64008000D01*
X149728990Y-57563818D02*
X149728990Y-63622990D01*
X142965172Y-50800000D02*
X149728990Y-57563818D01*
X137852050Y-50800000D02*
X142965172Y-50800000D01*
X136194800Y-52457250D02*
X137852050Y-50800000D01*
X136194800Y-52832000D02*
X136194800Y-52457250D01*
D22*
%TO.N,Net-(J6-Pad6)*%
X125052402Y-117856000D02*
X125476000Y-117856000D01*
X117432402Y-125476000D02*
X125052402Y-117856000D01*
X113284000Y-125476000D02*
X117432402Y-125476000D01*
%TO.N,Net-(J6-Pad5)*%
X117856000Y-122936000D02*
X122936000Y-117856000D01*
X113284000Y-122936000D02*
X117856000Y-122936000D01*
%TO.N,Net-(J6-Pad4)*%
X117856000Y-120396000D02*
X120396000Y-117856000D01*
X113284000Y-120396000D02*
X117856000Y-120396000D01*
%TO.N,Net-(J6-Pad3)*%
X113284000Y-117856000D02*
X117856000Y-117856000D01*
X117856000Y-117856000D02*
X124968000Y-110744000D01*
X124968000Y-110744000D02*
X124968000Y-85407500D01*
X124968000Y-85407500D02*
X122643900Y-83083400D01*
X122643900Y-83083400D02*
X122643900Y-73888600D01*
X122643900Y-73888600D02*
X122643900Y-65303400D01*
X122643900Y-65303400D02*
X122643900Y-56108600D01*
%TO.N,Net-(J6-Pad2)*%
X114714001Y-113885999D02*
X114714001Y-86517499D01*
X114714001Y-86517499D02*
X118148100Y-83083400D01*
X113284000Y-115316000D02*
X114714001Y-113885999D01*
X118148100Y-83083400D02*
X118148100Y-73888600D01*
%TO.N,Net-(J6-Pad1)*%
X113284000Y-70167500D02*
X118148100Y-65303400D01*
X113284000Y-112776000D02*
X113284000Y-70167500D01*
X118148100Y-65303400D02*
X118148100Y-56108600D01*
%TD*%
D24*
X130270025Y-115034277D02*
X130300997Y-115072016D01*
X130364998Y-115150002D01*
X130394002Y-115173805D01*
X135725704Y-120505508D01*
X135627822Y-120652000D01*
X133568072Y-120652000D01*
X133568072Y-120562000D01*
X133555812Y-120437518D01*
X133519502Y-120317820D01*
X133460537Y-120207506D01*
X133381185Y-120110815D01*
X133284494Y-120031463D01*
X133174180Y-119972498D01*
X133054482Y-119936188D01*
X132930000Y-119923928D01*
X131230000Y-119923928D01*
X131105518Y-119936188D01*
X130985820Y-119972498D01*
X130875506Y-120031463D01*
X130778815Y-120110815D01*
X130699463Y-120207506D01*
X130640498Y-120317820D01*
X130604188Y-120437518D01*
X130591928Y-120562000D01*
X130591928Y-122262000D01*
X130604188Y-122386482D01*
X130640498Y-122506180D01*
X130699463Y-122616494D01*
X130778815Y-122713185D01*
X130875506Y-122792537D01*
X130985820Y-122851502D01*
X131058380Y-122873513D01*
X130926525Y-123005368D01*
X130764010Y-123248589D01*
X130652068Y-123518842D01*
X130595000Y-123805740D01*
X130595000Y-124098260D01*
X130652068Y-124385158D01*
X130764010Y-124655411D01*
X130926525Y-124898632D01*
X131133368Y-125105475D01*
X131307760Y-125222000D01*
X131133368Y-125338525D01*
X130926525Y-125545368D01*
X130764010Y-125788589D01*
X130652068Y-126058842D01*
X130595000Y-126345740D01*
X130595000Y-126638260D01*
X130652068Y-126925158D01*
X130764010Y-127195411D01*
X130926525Y-127438632D01*
X131133368Y-127645475D01*
X131307760Y-127762000D01*
X131133368Y-127878525D01*
X130926525Y-128085368D01*
X130764010Y-128328589D01*
X130652068Y-128598842D01*
X130595000Y-128885740D01*
X130595000Y-129178260D01*
X130652068Y-129465158D01*
X130764010Y-129735411D01*
X130926525Y-129978632D01*
X131133368Y-130185475D01*
X131307760Y-130302000D01*
X131133368Y-130418525D01*
X130926525Y-130625368D01*
X130764010Y-130868589D01*
X130652068Y-131138842D01*
X130595000Y-131425740D01*
X130595000Y-131718260D01*
X130652068Y-132005158D01*
X130764010Y-132275411D01*
X130926525Y-132518632D01*
X131133368Y-132725475D01*
X131307760Y-132842000D01*
X131133368Y-132958525D01*
X130926525Y-133165368D01*
X130764010Y-133408589D01*
X130652068Y-133678842D01*
X130595000Y-133965740D01*
X130595000Y-134258260D01*
X130652068Y-134545158D01*
X130764010Y-134815411D01*
X130926525Y-135058632D01*
X131133368Y-135265475D01*
X131376589Y-135427990D01*
X131646842Y-135539932D01*
X131933740Y-135597000D01*
X132226260Y-135597000D01*
X132513158Y-135539932D01*
X132783411Y-135427990D01*
X132795001Y-135420246D01*
X132795001Y-137491630D01*
X132788858Y-137554003D01*
X132795001Y-137616376D01*
X132795001Y-137616382D01*
X132813378Y-137802965D01*
X132885998Y-138042361D01*
X133003926Y-138262990D01*
X133162631Y-138456373D01*
X133211092Y-138496144D01*
X134008947Y-139294000D01*
X130200000Y-139294000D01*
X130200000Y-114903270D01*
X130270025Y-115034277D01*
%TA.AperFunction,NonConductor*%
D25*
G36*
X130270025Y-115034277D02*
G01*
X130300997Y-115072016D01*
X130364998Y-115150002D01*
X130394002Y-115173805D01*
X135725704Y-120505508D01*
X135627822Y-120652000D01*
X133568072Y-120652000D01*
X133568072Y-120562000D01*
X133555812Y-120437518D01*
X133519502Y-120317820D01*
X133460537Y-120207506D01*
X133381185Y-120110815D01*
X133284494Y-120031463D01*
X133174180Y-119972498D01*
X133054482Y-119936188D01*
X132930000Y-119923928D01*
X131230000Y-119923928D01*
X131105518Y-119936188D01*
X130985820Y-119972498D01*
X130875506Y-120031463D01*
X130778815Y-120110815D01*
X130699463Y-120207506D01*
X130640498Y-120317820D01*
X130604188Y-120437518D01*
X130591928Y-120562000D01*
X130591928Y-122262000D01*
X130604188Y-122386482D01*
X130640498Y-122506180D01*
X130699463Y-122616494D01*
X130778815Y-122713185D01*
X130875506Y-122792537D01*
X130985820Y-122851502D01*
X131058380Y-122873513D01*
X130926525Y-123005368D01*
X130764010Y-123248589D01*
X130652068Y-123518842D01*
X130595000Y-123805740D01*
X130595000Y-124098260D01*
X130652068Y-124385158D01*
X130764010Y-124655411D01*
X130926525Y-124898632D01*
X131133368Y-125105475D01*
X131307760Y-125222000D01*
X131133368Y-125338525D01*
X130926525Y-125545368D01*
X130764010Y-125788589D01*
X130652068Y-126058842D01*
X130595000Y-126345740D01*
X130595000Y-126638260D01*
X130652068Y-126925158D01*
X130764010Y-127195411D01*
X130926525Y-127438632D01*
X131133368Y-127645475D01*
X131307760Y-127762000D01*
X131133368Y-127878525D01*
X130926525Y-128085368D01*
X130764010Y-128328589D01*
X130652068Y-128598842D01*
X130595000Y-128885740D01*
X130595000Y-129178260D01*
X130652068Y-129465158D01*
X130764010Y-129735411D01*
X130926525Y-129978632D01*
X131133368Y-130185475D01*
X131307760Y-130302000D01*
X131133368Y-130418525D01*
X130926525Y-130625368D01*
X130764010Y-130868589D01*
X130652068Y-131138842D01*
X130595000Y-131425740D01*
X130595000Y-131718260D01*
X130652068Y-132005158D01*
X130764010Y-132275411D01*
X130926525Y-132518632D01*
X131133368Y-132725475D01*
X131307760Y-132842000D01*
X131133368Y-132958525D01*
X130926525Y-133165368D01*
X130764010Y-133408589D01*
X130652068Y-133678842D01*
X130595000Y-133965740D01*
X130595000Y-134258260D01*
X130652068Y-134545158D01*
X130764010Y-134815411D01*
X130926525Y-135058632D01*
X131133368Y-135265475D01*
X131376589Y-135427990D01*
X131646842Y-135539932D01*
X131933740Y-135597000D01*
X132226260Y-135597000D01*
X132513158Y-135539932D01*
X132783411Y-135427990D01*
X132795001Y-135420246D01*
X132795001Y-137491630D01*
X132788858Y-137554003D01*
X132795001Y-137616376D01*
X132795001Y-137616382D01*
X132813378Y-137802965D01*
X132885998Y-138042361D01*
X133003926Y-138262990D01*
X133162631Y-138456373D01*
X133211092Y-138496144D01*
X134008947Y-139294000D01*
X130200000Y-139294000D01*
X130200000Y-114903270D01*
X130270025Y-115034277D01*
G37*
%TD.AperFunction*%
D24*
X160630000Y-139294000D02*
X139803052Y-139294000D01*
X140299914Y-138797139D01*
X140348370Y-138757372D01*
X140507075Y-138563990D01*
X140625003Y-138343361D01*
X140697623Y-138103965D01*
X140705830Y-138020637D01*
X140722144Y-137855002D01*
X140716000Y-137792622D01*
X140716000Y-137424240D01*
X140761990Y-137355411D01*
X140873932Y-137085158D01*
X140931000Y-136798260D01*
X140931000Y-136505740D01*
X142279000Y-136505740D01*
X142279000Y-136798260D01*
X142336068Y-137085158D01*
X142448010Y-137355411D01*
X142610525Y-137598632D01*
X142817368Y-137805475D01*
X143060589Y-137967990D01*
X143330842Y-138079932D01*
X143617740Y-138137000D01*
X143910260Y-138137000D01*
X144197158Y-138079932D01*
X144467411Y-137967990D01*
X144710632Y-137805475D01*
X144842487Y-137673620D01*
X144864498Y-137746180D01*
X144923463Y-137856494D01*
X145002815Y-137953185D01*
X145099506Y-138032537D01*
X145209820Y-138091502D01*
X145329518Y-138127812D01*
X145454000Y-138140072D01*
X147154000Y-138140072D01*
X147278482Y-138127812D01*
X147398180Y-138091502D01*
X147508494Y-138032537D01*
X147605185Y-137953185D01*
X147684537Y-137856494D01*
X147743502Y-137746180D01*
X147779812Y-137626482D01*
X147792072Y-137502000D01*
X147792072Y-136764665D01*
X157315000Y-136764665D01*
X157315000Y-137047335D01*
X157370147Y-137324574D01*
X157478320Y-137585727D01*
X157635363Y-137820759D01*
X157835241Y-138020637D01*
X158070273Y-138177680D01*
X158331426Y-138285853D01*
X158608665Y-138341000D01*
X158891335Y-138341000D01*
X159168574Y-138285853D01*
X159429727Y-138177680D01*
X159664759Y-138020637D01*
X159864637Y-137820759D01*
X160021680Y-137585727D01*
X160129853Y-137324574D01*
X160185000Y-137047335D01*
X160185000Y-136764665D01*
X160129853Y-136487426D01*
X160021680Y-136226273D01*
X159864637Y-135991241D01*
X159664759Y-135791363D01*
X159429727Y-135634320D01*
X159168574Y-135526147D01*
X158891335Y-135471000D01*
X158608665Y-135471000D01*
X158331426Y-135526147D01*
X158070273Y-135634320D01*
X157835241Y-135791363D01*
X157635363Y-135991241D01*
X157478320Y-136226273D01*
X157370147Y-136487426D01*
X157315000Y-136764665D01*
X147792072Y-136764665D01*
X147792072Y-135802000D01*
X147779812Y-135677518D01*
X147743502Y-135557820D01*
X147684537Y-135447506D01*
X147605185Y-135350815D01*
X147508494Y-135271463D01*
X147398180Y-135212498D01*
X147318480Y-135188321D01*
X152231928Y-130274874D01*
X152231928Y-131102000D01*
X152244188Y-131226482D01*
X152280498Y-131346180D01*
X152339463Y-131456494D01*
X152418815Y-131553185D01*
X152515506Y-131632537D01*
X152625820Y-131691502D01*
X152745518Y-131727812D01*
X152870000Y-131740072D01*
X154470000Y-131740072D01*
X154594482Y-131727812D01*
X154714180Y-131691502D01*
X154824494Y-131632537D01*
X154921185Y-131553185D01*
X155000537Y-131456494D01*
X155059502Y-131346180D01*
X155095812Y-131226482D01*
X155108072Y-131102000D01*
X155108072Y-131062000D01*
X155156678Y-131062000D01*
X155194000Y-131065676D01*
X155231322Y-131062000D01*
X155231333Y-131062000D01*
X155342986Y-131051003D01*
X155486247Y-131007546D01*
X155618276Y-130936974D01*
X155734001Y-130842001D01*
X155757804Y-130812997D01*
X158426115Y-128144688D01*
X158608665Y-128181000D01*
X158891335Y-128181000D01*
X159168574Y-128125853D01*
X159429727Y-128017680D01*
X159664759Y-127860637D01*
X159864637Y-127660759D01*
X160021680Y-127425727D01*
X160129853Y-127164574D01*
X160185000Y-126887335D01*
X160185000Y-126604665D01*
X160129853Y-126327426D01*
X160021680Y-126066273D01*
X159864637Y-125831241D01*
X159664759Y-125631363D01*
X159510000Y-125527957D01*
X159510000Y-125136072D01*
X159550000Y-125136072D01*
X159674482Y-125123812D01*
X159794180Y-125087502D01*
X159904494Y-125028537D01*
X160001185Y-124949185D01*
X160080537Y-124852494D01*
X160139502Y-124742180D01*
X160175812Y-124622482D01*
X160188072Y-124498000D01*
X160188072Y-122898000D01*
X160175812Y-122773518D01*
X160139502Y-122653820D01*
X160080537Y-122543506D01*
X160001185Y-122446815D01*
X159904494Y-122367463D01*
X159794180Y-122308498D01*
X159674482Y-122272188D01*
X159550000Y-122259928D01*
X157950000Y-122259928D01*
X157825518Y-122272188D01*
X157705820Y-122308498D01*
X157595506Y-122367463D01*
X157498815Y-122446815D01*
X157419463Y-122543506D01*
X157360498Y-122653820D01*
X157324188Y-122773518D01*
X157311928Y-122898000D01*
X157311928Y-124498000D01*
X157324188Y-124622482D01*
X157360498Y-124742180D01*
X157419463Y-124852494D01*
X157498815Y-124949185D01*
X157595506Y-125028537D01*
X157705820Y-125087502D01*
X157825518Y-125123812D01*
X157950000Y-125136072D01*
X157990000Y-125136072D01*
X157990001Y-125527956D01*
X157835241Y-125631363D01*
X157635363Y-125831241D01*
X157478320Y-126066273D01*
X157370147Y-126327426D01*
X157315000Y-126604665D01*
X157315000Y-126887335D01*
X157351312Y-127069885D01*
X155083679Y-129337520D01*
X155059502Y-129257820D01*
X155000537Y-129147506D01*
X154921185Y-129050815D01*
X154824494Y-128971463D01*
X154714180Y-128912498D01*
X154594482Y-128876188D01*
X154586039Y-128875357D01*
X154784637Y-128676759D01*
X154941680Y-128441727D01*
X155049853Y-128180574D01*
X155105000Y-127903335D01*
X155105000Y-127620665D01*
X155068688Y-127438114D01*
X155306005Y-127200797D01*
X155335002Y-127177000D01*
X155429975Y-127061275D01*
X155500547Y-126929246D01*
X155544004Y-126785985D01*
X155555001Y-126674332D01*
X155555001Y-126674324D01*
X155558677Y-126636999D01*
X155555001Y-126599674D01*
X155555001Y-120347800D01*
X158426114Y-117476688D01*
X158608665Y-117513000D01*
X158891335Y-117513000D01*
X159168574Y-117457853D01*
X159429727Y-117349680D01*
X159664759Y-117192637D01*
X159864637Y-116992759D01*
X160021680Y-116757727D01*
X160129853Y-116496574D01*
X160185000Y-116219335D01*
X160185000Y-115936665D01*
X160129853Y-115659426D01*
X160021680Y-115398273D01*
X159864637Y-115163241D01*
X159664759Y-114963363D01*
X159429727Y-114806320D01*
X159168574Y-114698147D01*
X158891335Y-114643000D01*
X158608665Y-114643000D01*
X158331426Y-114698147D01*
X158070273Y-114806320D01*
X157835241Y-114963363D01*
X157635363Y-115163241D01*
X157478320Y-115398273D01*
X157370147Y-115659426D01*
X157315000Y-115936665D01*
X157315000Y-116219335D01*
X157351312Y-116401886D01*
X154283999Y-119469200D01*
X154255001Y-119492998D01*
X154231203Y-119521996D01*
X154231202Y-119521997D01*
X154160027Y-119608723D01*
X154089455Y-119740753D01*
X154045999Y-119884014D01*
X154031325Y-120032999D01*
X154035002Y-120070331D01*
X154035001Y-123831491D01*
X153811335Y-123787000D01*
X153528665Y-123787000D01*
X153251426Y-123842147D01*
X152990273Y-123950320D01*
X152755241Y-124107363D01*
X152555363Y-124307241D01*
X152398320Y-124542273D01*
X152290147Y-124803426D01*
X152235000Y-125080665D01*
X152235000Y-125363335D01*
X152290147Y-125640574D01*
X152398320Y-125901727D01*
X152555363Y-126136759D01*
X152755241Y-126336637D01*
X152987759Y-126492000D01*
X152755241Y-126647363D01*
X152555363Y-126847241D01*
X152398320Y-127082273D01*
X152290147Y-127343426D01*
X152235000Y-127620665D01*
X152235000Y-127903335D01*
X152271312Y-128085886D01*
X145792998Y-134564201D01*
X145764000Y-134587999D01*
X145740202Y-134616997D01*
X145740201Y-134616998D01*
X145669026Y-134703724D01*
X145598454Y-134835754D01*
X145554998Y-134979015D01*
X145540324Y-135128000D01*
X145543863Y-135163928D01*
X145454000Y-135163928D01*
X145329518Y-135176188D01*
X145209820Y-135212498D01*
X145099506Y-135271463D01*
X145002815Y-135350815D01*
X144923463Y-135447506D01*
X144864498Y-135557820D01*
X144842487Y-135630380D01*
X144710632Y-135498525D01*
X144467411Y-135336010D01*
X144197158Y-135224068D01*
X143910260Y-135167000D01*
X143617740Y-135167000D01*
X143330842Y-135224068D01*
X143060589Y-135336010D01*
X142817368Y-135498525D01*
X142610525Y-135705368D01*
X142448010Y-135948589D01*
X142336068Y-136218842D01*
X142279000Y-136505740D01*
X140931000Y-136505740D01*
X140873932Y-136218842D01*
X140761990Y-135948589D01*
X140716000Y-135879760D01*
X140716000Y-135381454D01*
X140897044Y-135363623D01*
X141136440Y-135291003D01*
X141357069Y-135173075D01*
X141550451Y-135014370D01*
X141590222Y-134965909D01*
X142734925Y-133821207D01*
X142783381Y-133781440D01*
X142942086Y-133588058D01*
X143060014Y-133367429D01*
X143132634Y-133128033D01*
X143151011Y-132941450D01*
X143151011Y-132941444D01*
X143157154Y-132879071D01*
X143151011Y-132816698D01*
X143151011Y-125080665D01*
X144615000Y-125080665D01*
X144615000Y-125363335D01*
X144670147Y-125640574D01*
X144778320Y-125901727D01*
X144935363Y-126136759D01*
X145135241Y-126336637D01*
X145367759Y-126492000D01*
X145135241Y-126647363D01*
X144935363Y-126847241D01*
X144778320Y-127082273D01*
X144670147Y-127343426D01*
X144615000Y-127620665D01*
X144615000Y-127903335D01*
X144670147Y-128180574D01*
X144778320Y-128441727D01*
X144935363Y-128676759D01*
X145135241Y-128876637D01*
X145367759Y-129032000D01*
X145135241Y-129187363D01*
X144935363Y-129387241D01*
X144778320Y-129622273D01*
X144670147Y-129883426D01*
X144615000Y-130160665D01*
X144615000Y-130443335D01*
X144670147Y-130720574D01*
X144778320Y-130981727D01*
X144935363Y-131216759D01*
X145135241Y-131416637D01*
X145370273Y-131573680D01*
X145631426Y-131681853D01*
X145908665Y-131737000D01*
X146191335Y-131737000D01*
X146468574Y-131681853D01*
X146729727Y-131573680D01*
X146964759Y-131416637D01*
X147164637Y-131216759D01*
X147321680Y-130981727D01*
X147429853Y-130720574D01*
X147485000Y-130443335D01*
X147485000Y-130160665D01*
X147429853Y-129883426D01*
X147321680Y-129622273D01*
X147164637Y-129387241D01*
X146964759Y-129187363D01*
X146732241Y-129032000D01*
X146964759Y-128876637D01*
X147164637Y-128676759D01*
X147321680Y-128441727D01*
X147429853Y-128180574D01*
X147485000Y-127903335D01*
X147485000Y-127620665D01*
X147429853Y-127343426D01*
X147321680Y-127082273D01*
X147164637Y-126847241D01*
X146964759Y-126647363D01*
X146732241Y-126492000D01*
X146964759Y-126336637D01*
X147164637Y-126136759D01*
X147321680Y-125901727D01*
X147429853Y-125640574D01*
X147485000Y-125363335D01*
X147485000Y-125080665D01*
X147429853Y-124803426D01*
X147321680Y-124542273D01*
X147164637Y-124307241D01*
X147036414Y-124179018D01*
X150667683Y-120547749D01*
X150686147Y-120640574D01*
X150794320Y-120901727D01*
X150951363Y-121136759D01*
X151151241Y-121336637D01*
X151386273Y-121493680D01*
X151647426Y-121601853D01*
X151924665Y-121657000D01*
X152207335Y-121657000D01*
X152484574Y-121601853D01*
X152745727Y-121493680D01*
X152980759Y-121336637D01*
X153180637Y-121136759D01*
X153337680Y-120901727D01*
X153445853Y-120640574D01*
X153501000Y-120363335D01*
X153501000Y-120080665D01*
X153445853Y-119803426D01*
X153337680Y-119542273D01*
X153180637Y-119307241D01*
X152980759Y-119107363D01*
X152745727Y-118950320D01*
X152484574Y-118842147D01*
X152391749Y-118823683D01*
X153541317Y-117674115D01*
X153632426Y-117711853D01*
X153909665Y-117767000D01*
X154192335Y-117767000D01*
X154469574Y-117711853D01*
X154730727Y-117603680D01*
X154965759Y-117446637D01*
X155165637Y-117246759D01*
X155322680Y-117011727D01*
X155430853Y-116750574D01*
X155486000Y-116473335D01*
X155486000Y-116190665D01*
X155430853Y-115913426D01*
X155322680Y-115652273D01*
X155165637Y-115417241D01*
X154965759Y-115217363D01*
X154730727Y-115060320D01*
X154469574Y-114952147D01*
X154192335Y-114897000D01*
X153909665Y-114897000D01*
X153632426Y-114952147D01*
X153371273Y-115060320D01*
X153136241Y-115217363D01*
X152936363Y-115417241D01*
X152779320Y-115652273D01*
X152671147Y-115913426D01*
X152616000Y-116190665D01*
X152616000Y-116449828D01*
X148450968Y-120614861D01*
X148501000Y-120363335D01*
X148501000Y-120080665D01*
X148445853Y-119803426D01*
X148337680Y-119542273D01*
X148180637Y-119307241D01*
X147980759Y-119107363D01*
X147745727Y-118950320D01*
X147484574Y-118842147D01*
X147207335Y-118787000D01*
X146924665Y-118787000D01*
X146647426Y-118842147D01*
X146386273Y-118950320D01*
X146151241Y-119107363D01*
X145951363Y-119307241D01*
X145794320Y-119542273D01*
X145686147Y-119803426D01*
X145631000Y-120080665D01*
X145631000Y-120363335D01*
X145686147Y-120640574D01*
X145794320Y-120901727D01*
X145951363Y-121136759D01*
X146151241Y-121336637D01*
X146386273Y-121493680D01*
X146647426Y-121601853D01*
X146924665Y-121657000D01*
X147207335Y-121657000D01*
X147458861Y-121606968D01*
X145538998Y-123526831D01*
X145510000Y-123550629D01*
X145486202Y-123579627D01*
X145486201Y-123579628D01*
X145415026Y-123666354D01*
X145344454Y-123798384D01*
X145314180Y-123898188D01*
X145300998Y-123941644D01*
X145299978Y-123952000D01*
X145295203Y-124000480D01*
X145135241Y-124107363D01*
X144935363Y-124307241D01*
X144778320Y-124542273D01*
X144670147Y-124803426D01*
X144615000Y-125080665D01*
X143151011Y-125080665D01*
X143151011Y-117563414D01*
X143211273Y-117603680D01*
X143472426Y-117711853D01*
X143749665Y-117767000D01*
X144032335Y-117767000D01*
X144309574Y-117711853D01*
X144570727Y-117603680D01*
X144805759Y-117446637D01*
X145005637Y-117246759D01*
X145162680Y-117011727D01*
X145270853Y-116750574D01*
X145326000Y-116473335D01*
X145326000Y-116190665D01*
X145270853Y-115913426D01*
X145162680Y-115652273D01*
X145005637Y-115417241D01*
X144805759Y-115217363D01*
X144570727Y-115060320D01*
X144309574Y-114952147D01*
X144032335Y-114897000D01*
X143749665Y-114897000D01*
X143472426Y-114952147D01*
X143211273Y-115060320D01*
X143151011Y-115100586D01*
X143151011Y-114131039D01*
X147300051Y-109982000D01*
X147615741Y-109982000D01*
X147689506Y-110042537D01*
X147799820Y-110101502D01*
X147895943Y-110130661D01*
X147729363Y-110297241D01*
X147572320Y-110532273D01*
X147464147Y-110793426D01*
X147409000Y-111070665D01*
X147409000Y-111353335D01*
X147464147Y-111630574D01*
X147572320Y-111891727D01*
X147729363Y-112126759D01*
X147929241Y-112326637D01*
X148164273Y-112483680D01*
X148425426Y-112591853D01*
X148702665Y-112647000D01*
X148985335Y-112647000D01*
X149262574Y-112591853D01*
X149523727Y-112483680D01*
X149758759Y-112326637D01*
X149784731Y-112300665D01*
X157315000Y-112300665D01*
X157315000Y-112583335D01*
X157370147Y-112860574D01*
X157478320Y-113121727D01*
X157635363Y-113356759D01*
X157835241Y-113556637D01*
X158070273Y-113713680D01*
X158331426Y-113821853D01*
X158608665Y-113877000D01*
X158891335Y-113877000D01*
X159168574Y-113821853D01*
X159429727Y-113713680D01*
X159664759Y-113556637D01*
X159864637Y-113356759D01*
X160021680Y-113121727D01*
X160129853Y-112860574D01*
X160185000Y-112583335D01*
X160185000Y-112300665D01*
X160129853Y-112023426D01*
X160021680Y-111762273D01*
X159864637Y-111527241D01*
X159664759Y-111327363D01*
X159429727Y-111170320D01*
X159168574Y-111062147D01*
X158891335Y-111007000D01*
X158608665Y-111007000D01*
X158331426Y-111062147D01*
X158070273Y-111170320D01*
X157835241Y-111327363D01*
X157635363Y-111527241D01*
X157478320Y-111762273D01*
X157370147Y-112023426D01*
X157315000Y-112300665D01*
X149784731Y-112300665D01*
X149958637Y-112126759D01*
X150115680Y-111891727D01*
X150223853Y-111630574D01*
X150279000Y-111353335D01*
X150279000Y-111070665D01*
X150223853Y-110793426D01*
X150115680Y-110532273D01*
X149958637Y-110297241D01*
X149792057Y-110130661D01*
X149888180Y-110101502D01*
X149998494Y-110042537D01*
X150095185Y-109963185D01*
X150174537Y-109866494D01*
X150233502Y-109756180D01*
X150269812Y-109636482D01*
X150282072Y-109512000D01*
X150282072Y-109069978D01*
X150640051Y-108712000D01*
X158067759Y-108712000D01*
X158070273Y-108713680D01*
X158331426Y-108821853D01*
X158608665Y-108877000D01*
X158891335Y-108877000D01*
X159168574Y-108821853D01*
X159429727Y-108713680D01*
X159664759Y-108556637D01*
X159864637Y-108356759D01*
X160021680Y-108121727D01*
X160129853Y-107860574D01*
X160185000Y-107583335D01*
X160185000Y-107300665D01*
X160129853Y-107023426D01*
X160021680Y-106762273D01*
X160020000Y-106759759D01*
X160020000Y-104912240D01*
X160065990Y-104843411D01*
X160177932Y-104573158D01*
X160235000Y-104286260D01*
X160235000Y-103993740D01*
X160177932Y-103706842D01*
X160065990Y-103436589D01*
X160020000Y-103367760D01*
X160020000Y-84954372D01*
X160026143Y-84891999D01*
X160020000Y-84829626D01*
X160020000Y-84829620D01*
X160002472Y-84651660D01*
X160001623Y-84643036D01*
X159973885Y-84551597D01*
X159929003Y-84403641D01*
X159811075Y-84183012D01*
X159652370Y-83989630D01*
X159603914Y-83949863D01*
X147264000Y-71609950D01*
X147264000Y-70316259D01*
X147324537Y-70242494D01*
X147383502Y-70132180D01*
X147419812Y-70012482D01*
X147432072Y-69888000D01*
X147432072Y-68288000D01*
X147419812Y-68163518D01*
X147383502Y-68043820D01*
X147324537Y-67933506D01*
X147264000Y-67859741D01*
X147264000Y-56894879D01*
X148458990Y-58089869D01*
X148458991Y-61855552D01*
X148364061Y-62033153D01*
X148256275Y-62388477D01*
X148229000Y-62665404D01*
X148229001Y-65350597D01*
X148256276Y-65627524D01*
X148364062Y-65982848D01*
X148539098Y-66310317D01*
X148774656Y-66597345D01*
X149061684Y-66832903D01*
X149389153Y-67007939D01*
X149744477Y-67115725D01*
X150114000Y-67152120D01*
X150483524Y-67115725D01*
X150838848Y-67007939D01*
X151166317Y-66832903D01*
X151453345Y-66597345D01*
X151688903Y-66310317D01*
X151863939Y-65982848D01*
X151971725Y-65627524D01*
X151999000Y-65350597D01*
X151999000Y-62796548D01*
X154354000Y-62796548D01*
X154354001Y-65219453D01*
X154379468Y-65478020D01*
X154480106Y-65809781D01*
X154643535Y-66115534D01*
X154863472Y-66383529D01*
X155131467Y-66603466D01*
X155437220Y-66766895D01*
X155768981Y-66867533D01*
X156114000Y-66901515D01*
X156459020Y-66867533D01*
X156790781Y-66766895D01*
X157096534Y-66603466D01*
X157364529Y-66383529D01*
X157584466Y-66115534D01*
X157747895Y-65809781D01*
X157848533Y-65478020D01*
X157874000Y-65219453D01*
X157874000Y-62796547D01*
X157848533Y-62537980D01*
X157747895Y-62206219D01*
X157584466Y-61900466D01*
X157364529Y-61632471D01*
X157096533Y-61412534D01*
X156790780Y-61249105D01*
X156459019Y-61148467D01*
X156114000Y-61114485D01*
X155768980Y-61148467D01*
X155437219Y-61249105D01*
X155131466Y-61412534D01*
X154863471Y-61632471D01*
X154643534Y-61900467D01*
X154480105Y-62206220D01*
X154379467Y-62537981D01*
X154354000Y-62796548D01*
X151999000Y-62796548D01*
X151999000Y-62665403D01*
X151971725Y-62388476D01*
X151863939Y-62033152D01*
X151688903Y-61705683D01*
X151453345Y-61418655D01*
X151166317Y-61183097D01*
X150998990Y-61093659D01*
X150998990Y-60772331D01*
X151006466Y-60778466D01*
X151312219Y-60941895D01*
X151643980Y-61042533D01*
X151902547Y-61068000D01*
X154325453Y-61068000D01*
X154584020Y-61042533D01*
X154915781Y-60941895D01*
X155221534Y-60778466D01*
X155489529Y-60558529D01*
X155709466Y-60290534D01*
X155872895Y-59984781D01*
X155973533Y-59653020D01*
X156007515Y-59308000D01*
X155973533Y-58962980D01*
X155872895Y-58631219D01*
X155709466Y-58325466D01*
X155489529Y-58057471D01*
X155221534Y-57837534D01*
X154915781Y-57674105D01*
X154584020Y-57573467D01*
X154325453Y-57548000D01*
X151902547Y-57548000D01*
X151643980Y-57573467D01*
X151312219Y-57674105D01*
X151006466Y-57837534D01*
X150998990Y-57843669D01*
X150998990Y-57626190D01*
X151005133Y-57563817D01*
X150998990Y-57501444D01*
X150998990Y-57501438D01*
X150980613Y-57314855D01*
X150980568Y-57314705D01*
X150948843Y-57210125D01*
X150907993Y-57075459D01*
X150790065Y-56854830D01*
X150631360Y-56661448D01*
X150582905Y-56621682D01*
X145887568Y-51926345D01*
X148526500Y-51926345D01*
X148526500Y-52239055D01*
X148587507Y-52545757D01*
X148707176Y-52834663D01*
X148880908Y-53094672D01*
X149102028Y-53315792D01*
X149362037Y-53489524D01*
X149650943Y-53609193D01*
X149957645Y-53670200D01*
X150270355Y-53670200D01*
X150577057Y-53609193D01*
X150865963Y-53489524D01*
X151125972Y-53315792D01*
X151347092Y-53094672D01*
X151520824Y-52834663D01*
X151640493Y-52545757D01*
X151701500Y-52239055D01*
X151701500Y-51926345D01*
X151640493Y-51619643D01*
X151520824Y-51330737D01*
X151347092Y-51070728D01*
X151125972Y-50849608D01*
X150865963Y-50675876D01*
X150577057Y-50556207D01*
X150270355Y-50495200D01*
X149957645Y-50495200D01*
X149650943Y-50556207D01*
X149362037Y-50675876D01*
X149102028Y-50849608D01*
X148880908Y-51070728D01*
X148707176Y-51330737D01*
X148587507Y-51619643D01*
X148526500Y-51926345D01*
X145887568Y-51926345D01*
X143907313Y-49946091D01*
X143867542Y-49897630D01*
X143674160Y-49738925D01*
X143453531Y-49620997D01*
X143214135Y-49548377D01*
X143027552Y-49530000D01*
X143027545Y-49530000D01*
X142965172Y-49523857D01*
X142902799Y-49530000D01*
X137914422Y-49530000D01*
X137852049Y-49523857D01*
X137789676Y-49530000D01*
X137789670Y-49530000D01*
X137628805Y-49545844D01*
X137603086Y-49548377D01*
X137530466Y-49570406D01*
X137363691Y-49620997D01*
X137143062Y-49738925D01*
X136949680Y-49897630D01*
X136909913Y-49946086D01*
X135340886Y-51515114D01*
X135292431Y-51554880D01*
X135133725Y-51748262D01*
X135015797Y-51968891D01*
X134991074Y-52050391D01*
X134923031Y-52152225D01*
X134814850Y-52413397D01*
X134759700Y-52690655D01*
X134759700Y-52973345D01*
X134814850Y-53250603D01*
X134923031Y-53511775D01*
X135080085Y-53746823D01*
X135279977Y-53946715D01*
X135515025Y-54103769D01*
X135776197Y-54211950D01*
X136053455Y-54267100D01*
X136336145Y-54267100D01*
X136447478Y-54244955D01*
X136590962Y-54230823D01*
X136830358Y-54158202D01*
X137050987Y-54040274D01*
X137244369Y-53881569D01*
X137403074Y-53688187D01*
X137459531Y-53582564D01*
X137569285Y-53746823D01*
X137769177Y-53946715D01*
X138004225Y-54103769D01*
X138265397Y-54211950D01*
X138542655Y-54267100D01*
X138825345Y-54267100D01*
X139102603Y-54211950D01*
X139363775Y-54103769D01*
X139366422Y-54102000D01*
X141967950Y-54102000D01*
X144724000Y-56858051D01*
X144724001Y-67859740D01*
X144663463Y-67933506D01*
X144604498Y-68043820D01*
X144568188Y-68163518D01*
X144555928Y-68288000D01*
X144555928Y-69888000D01*
X144568188Y-70012482D01*
X144604498Y-70132180D01*
X144663463Y-70242494D01*
X144724000Y-70316259D01*
X144724001Y-72073618D01*
X144717857Y-72136000D01*
X144742377Y-72384963D01*
X144814998Y-72624359D01*
X144932926Y-72844988D01*
X145091631Y-73038370D01*
X145140087Y-73078137D01*
X157480001Y-85418052D01*
X157480000Y-103367760D01*
X157363475Y-103193368D01*
X157156632Y-102986525D01*
X156913411Y-102824010D01*
X156643158Y-102712068D01*
X156356260Y-102655000D01*
X156063740Y-102655000D01*
X155776842Y-102712068D01*
X155506589Y-102824010D01*
X155263368Y-102986525D01*
X155056525Y-103193368D01*
X154940000Y-103367760D01*
X154823475Y-103193368D01*
X154616632Y-102986525D01*
X154373411Y-102824010D01*
X154103158Y-102712068D01*
X153816260Y-102655000D01*
X153523740Y-102655000D01*
X153303592Y-102698791D01*
X152608793Y-102003992D01*
X152584990Y-101974988D01*
X152469265Y-101880015D01*
X152337236Y-101809443D01*
X152193975Y-101765986D01*
X152082322Y-101754989D01*
X152082311Y-101754989D01*
X152044989Y-101751313D01*
X152007667Y-101754989D01*
X146263791Y-101754989D01*
X141831011Y-97322210D01*
X141831011Y-88315334D01*
X141834687Y-88278009D01*
X141831011Y-88240684D01*
X141831011Y-88240676D01*
X141820014Y-88129023D01*
X141776557Y-87985762D01*
X141705985Y-87853733D01*
X141611012Y-87738008D01*
X141582014Y-87714210D01*
X140573805Y-86706001D01*
X140550002Y-86676998D01*
X140434277Y-86582025D01*
X140302248Y-86511453D01*
X140158987Y-86467996D01*
X140047334Y-86456999D01*
X140047323Y-86456999D01*
X140010001Y-86453323D01*
X139972679Y-86456999D01*
X139133031Y-86456999D01*
X139134532Y-86456546D01*
X139134536Y-86456545D01*
X139134539Y-86456544D01*
X139371314Y-86383249D01*
X139426457Y-86360069D01*
X139481920Y-86337661D01*
X139490054Y-86333335D01*
X139490059Y-86333333D01*
X139490064Y-86333330D01*
X139708086Y-86215447D01*
X139757654Y-86182012D01*
X139807735Y-86149241D01*
X139814876Y-86143416D01*
X140005856Y-85985423D01*
X140047995Y-85942988D01*
X140090745Y-85901125D01*
X140096618Y-85894024D01*
X140253273Y-85701947D01*
X140286374Y-85652125D01*
X140320173Y-85602763D01*
X140324556Y-85594657D01*
X140440919Y-85375809D01*
X140463707Y-85320521D01*
X140487279Y-85265525D01*
X140490003Y-85256722D01*
X140561643Y-85019441D01*
X140573264Y-84960754D01*
X140585700Y-84902248D01*
X140586663Y-84893083D01*
X140610850Y-84646405D01*
X140610850Y-84646402D01*
X140614000Y-84614419D01*
X140614000Y-77323740D01*
X143930000Y-77323740D01*
X143930000Y-77616260D01*
X143987068Y-77903158D01*
X144099010Y-78173411D01*
X144261525Y-78416632D01*
X144468368Y-78623475D01*
X144642760Y-78740000D01*
X144468368Y-78856525D01*
X144261525Y-79063368D01*
X144099010Y-79306589D01*
X143987068Y-79576842D01*
X143930000Y-79863740D01*
X143930000Y-80156260D01*
X143987068Y-80443158D01*
X144099010Y-80713411D01*
X144261525Y-80956632D01*
X144468368Y-81163475D01*
X144642760Y-81280000D01*
X144468368Y-81396525D01*
X144261525Y-81603368D01*
X144099010Y-81846589D01*
X143987068Y-82116842D01*
X143930000Y-82403740D01*
X143930000Y-82696260D01*
X143987068Y-82983158D01*
X144099010Y-83253411D01*
X144261525Y-83496632D01*
X144468368Y-83703475D01*
X144642760Y-83820000D01*
X144468368Y-83936525D01*
X144261525Y-84143368D01*
X144099010Y-84386589D01*
X143987068Y-84656842D01*
X143930000Y-84943740D01*
X143930000Y-85236260D01*
X143987068Y-85523158D01*
X144099010Y-85793411D01*
X144261525Y-86036632D01*
X144468368Y-86243475D01*
X144642760Y-86360000D01*
X144468368Y-86476525D01*
X144261525Y-86683368D01*
X144099010Y-86926589D01*
X143987068Y-87196842D01*
X143930000Y-87483740D01*
X143930000Y-87776260D01*
X143987068Y-88063158D01*
X144099010Y-88333411D01*
X144261525Y-88576632D01*
X144468368Y-88783475D01*
X144642760Y-88900000D01*
X144468368Y-89016525D01*
X144261525Y-89223368D01*
X144099010Y-89466589D01*
X143987068Y-89736842D01*
X143930000Y-90023740D01*
X143930000Y-90316260D01*
X143987068Y-90603158D01*
X144099010Y-90873411D01*
X144261525Y-91116632D01*
X144468368Y-91323475D01*
X144642760Y-91440000D01*
X144468368Y-91556525D01*
X144261525Y-91763368D01*
X144099010Y-92006589D01*
X143987068Y-92276842D01*
X143930000Y-92563740D01*
X143930000Y-92856260D01*
X143987068Y-93143158D01*
X144099010Y-93413411D01*
X144261525Y-93656632D01*
X144468368Y-93863475D01*
X144642760Y-93980000D01*
X144468368Y-94096525D01*
X144261525Y-94303368D01*
X144099010Y-94546589D01*
X143987068Y-94816842D01*
X143930000Y-95103740D01*
X143930000Y-95396260D01*
X143987068Y-95683158D01*
X144099010Y-95953411D01*
X144261525Y-96196632D01*
X144468368Y-96403475D01*
X144642760Y-96520000D01*
X144468368Y-96636525D01*
X144261525Y-96843368D01*
X144099010Y-97086589D01*
X143987068Y-97356842D01*
X143930000Y-97643740D01*
X143930000Y-97936260D01*
X143987068Y-98223158D01*
X144099010Y-98493411D01*
X144261525Y-98736632D01*
X144468368Y-98943475D01*
X144711589Y-99105990D01*
X144981842Y-99217932D01*
X145268740Y-99275000D01*
X145561260Y-99275000D01*
X145848158Y-99217932D01*
X146118411Y-99105990D01*
X146361632Y-98943475D01*
X146568475Y-98736632D01*
X146730990Y-98493411D01*
X146842932Y-98223158D01*
X146900000Y-97936260D01*
X146900000Y-97643740D01*
X146842932Y-97356842D01*
X146730990Y-97086589D01*
X146568475Y-96843368D01*
X146361632Y-96636525D01*
X146187240Y-96520000D01*
X146361632Y-96403475D01*
X146568475Y-96196632D01*
X146730990Y-95953411D01*
X146842932Y-95683158D01*
X146900000Y-95396260D01*
X146900000Y-95103740D01*
X146842932Y-94816842D01*
X146730990Y-94546589D01*
X146568475Y-94303368D01*
X146361632Y-94096525D01*
X146187240Y-93980000D01*
X146361632Y-93863475D01*
X146568475Y-93656632D01*
X146730990Y-93413411D01*
X146842932Y-93143158D01*
X146900000Y-92856260D01*
X146900000Y-92563740D01*
X146842932Y-92276842D01*
X146730990Y-92006589D01*
X146568475Y-91763368D01*
X146361632Y-91556525D01*
X146187240Y-91440000D01*
X146361632Y-91323475D01*
X146568475Y-91116632D01*
X146730990Y-90873411D01*
X146842932Y-90603158D01*
X146900000Y-90316260D01*
X146900000Y-90023740D01*
X146842932Y-89736842D01*
X146730990Y-89466589D01*
X146568475Y-89223368D01*
X146361632Y-89016525D01*
X146187240Y-88900000D01*
X146361632Y-88783475D01*
X146568475Y-88576632D01*
X146730990Y-88333411D01*
X146842932Y-88063158D01*
X146900000Y-87776260D01*
X146900000Y-87483740D01*
X146842932Y-87196842D01*
X146730990Y-86926589D01*
X146568475Y-86683368D01*
X146361632Y-86476525D01*
X146187240Y-86360000D01*
X146361632Y-86243475D01*
X146568475Y-86036632D01*
X146730990Y-85793411D01*
X146842932Y-85523158D01*
X146900000Y-85236260D01*
X146900000Y-84943740D01*
X146842932Y-84656842D01*
X146730990Y-84386589D01*
X146568475Y-84143368D01*
X146361632Y-83936525D01*
X146187240Y-83820000D01*
X146361632Y-83703475D01*
X146568475Y-83496632D01*
X146730990Y-83253411D01*
X146842932Y-82983158D01*
X146900000Y-82696260D01*
X146900000Y-82403740D01*
X146842932Y-82116842D01*
X146730990Y-81846589D01*
X146568475Y-81603368D01*
X146361632Y-81396525D01*
X146187240Y-81280000D01*
X146361632Y-81163475D01*
X146568475Y-80956632D01*
X146730990Y-80713411D01*
X146842932Y-80443158D01*
X146900000Y-80156260D01*
X146900000Y-79863740D01*
X146842932Y-79576842D01*
X146730990Y-79306589D01*
X146568475Y-79063368D01*
X146361632Y-78856525D01*
X146187240Y-78740000D01*
X146361632Y-78623475D01*
X146568475Y-78416632D01*
X146730990Y-78173411D01*
X146842932Y-77903158D01*
X146900000Y-77616260D01*
X146900000Y-77323740D01*
X146842932Y-77036842D01*
X146730990Y-76766589D01*
X146568475Y-76523368D01*
X146361632Y-76316525D01*
X146118411Y-76154010D01*
X145848158Y-76042068D01*
X145561260Y-75985000D01*
X145268740Y-75985000D01*
X144981842Y-76042068D01*
X144711589Y-76154010D01*
X144468368Y-76316525D01*
X144261525Y-76523368D01*
X144099010Y-76766589D01*
X143987068Y-77036842D01*
X143930000Y-77323740D01*
X140614000Y-77323740D01*
X140614000Y-68946665D01*
X141059000Y-68946665D01*
X141059000Y-69229335D01*
X141114147Y-69506574D01*
X141222320Y-69767727D01*
X141379363Y-70002759D01*
X141579241Y-70202637D01*
X141814273Y-70359680D01*
X142075426Y-70467853D01*
X142352665Y-70523000D01*
X142635335Y-70523000D01*
X142912574Y-70467853D01*
X143173727Y-70359680D01*
X143408759Y-70202637D01*
X143608637Y-70002759D01*
X143765680Y-69767727D01*
X143873853Y-69506574D01*
X143929000Y-69229335D01*
X143929000Y-68946665D01*
X143873853Y-68669426D01*
X143765680Y-68408273D01*
X143608637Y-68173241D01*
X143408759Y-67973363D01*
X143173727Y-67816320D01*
X142912574Y-67708147D01*
X142635335Y-67653000D01*
X142352665Y-67653000D01*
X142075426Y-67708147D01*
X141814273Y-67816320D01*
X141579241Y-67973363D01*
X141379363Y-68173241D01*
X141222320Y-68408273D01*
X141114147Y-68669426D01*
X141059000Y-68946665D01*
X140614000Y-68946665D01*
X140614000Y-57117581D01*
X140611198Y-57089135D01*
X140611253Y-57081318D01*
X140610354Y-57072147D01*
X140584446Y-56825644D01*
X140572414Y-56767028D01*
X140561208Y-56708284D01*
X140558544Y-56699462D01*
X140485249Y-56462686D01*
X140462074Y-56407555D01*
X140439661Y-56352080D01*
X140435334Y-56343944D01*
X140317446Y-56125914D01*
X140284012Y-56076346D01*
X140251240Y-56026265D01*
X140245416Y-56019124D01*
X140087423Y-55828144D01*
X140044988Y-55786005D01*
X140003125Y-55743255D01*
X139996024Y-55737381D01*
X139803946Y-55580727D01*
X139754169Y-55547655D01*
X139704763Y-55513826D01*
X139696657Y-55509444D01*
X139477809Y-55393081D01*
X139422532Y-55370298D01*
X139367525Y-55346721D01*
X139358722Y-55343997D01*
X139121441Y-55272357D01*
X139062754Y-55260736D01*
X139004248Y-55248300D01*
X138995085Y-55247337D01*
X138995083Y-55247337D01*
X138748405Y-55223150D01*
X138748402Y-55223150D01*
X138716419Y-55220000D01*
X133248000Y-55220000D01*
X133248000Y-46797855D01*
X134759700Y-46797855D01*
X134759700Y-47080545D01*
X134814850Y-47357803D01*
X134923031Y-47618975D01*
X135080085Y-47854023D01*
X135279977Y-48053915D01*
X135515025Y-48210969D01*
X135776197Y-48319150D01*
X136053455Y-48374300D01*
X136336145Y-48374300D01*
X136613403Y-48319150D01*
X136874575Y-48210969D01*
X137109623Y-48053915D01*
X137309515Y-47854023D01*
X137439400Y-47659636D01*
X137569285Y-47854023D01*
X137769177Y-48053915D01*
X138004225Y-48210969D01*
X138265397Y-48319150D01*
X138542655Y-48374300D01*
X138825345Y-48374300D01*
X139102603Y-48319150D01*
X139363775Y-48210969D01*
X139598823Y-48053915D01*
X139798715Y-47854023D01*
X139955769Y-47618975D01*
X139991735Y-47532145D01*
X148526500Y-47532145D01*
X148526500Y-47844855D01*
X148587507Y-48151557D01*
X148707176Y-48440463D01*
X148880908Y-48700472D01*
X149102028Y-48921592D01*
X149362037Y-49095324D01*
X149650943Y-49214993D01*
X149957645Y-49276000D01*
X150270355Y-49276000D01*
X150577057Y-49214993D01*
X150865963Y-49095324D01*
X151125972Y-48921592D01*
X151347092Y-48700472D01*
X151520824Y-48440463D01*
X151640493Y-48151557D01*
X151701500Y-47844855D01*
X151701500Y-47532145D01*
X151640493Y-47225443D01*
X151520824Y-46936537D01*
X151347092Y-46676528D01*
X151125972Y-46455408D01*
X150865963Y-46281676D01*
X150577057Y-46162007D01*
X150270355Y-46101000D01*
X149957645Y-46101000D01*
X149650943Y-46162007D01*
X149362037Y-46281676D01*
X149102028Y-46455408D01*
X148880908Y-46676528D01*
X148707176Y-46936537D01*
X148587507Y-47225443D01*
X148526500Y-47532145D01*
X139991735Y-47532145D01*
X140063950Y-47357803D01*
X140119100Y-47080545D01*
X140119100Y-46797855D01*
X140063950Y-46520597D01*
X139955769Y-46259425D01*
X139798715Y-46024377D01*
X139598823Y-45824485D01*
X139363775Y-45667431D01*
X139102603Y-45559250D01*
X138825345Y-45504100D01*
X138542655Y-45504100D01*
X138265397Y-45559250D01*
X138004225Y-45667431D01*
X137769177Y-45824485D01*
X137569285Y-46024377D01*
X137439400Y-46218764D01*
X137309515Y-46024377D01*
X137109623Y-45824485D01*
X136874575Y-45667431D01*
X136613403Y-45559250D01*
X136336145Y-45504100D01*
X136053455Y-45504100D01*
X135776197Y-45559250D01*
X135515025Y-45667431D01*
X135279977Y-45824485D01*
X135080085Y-46024377D01*
X134923031Y-46259425D01*
X134814850Y-46520597D01*
X134759700Y-46797855D01*
X133248000Y-46797855D01*
X133248000Y-44602000D01*
X160630001Y-44602000D01*
X160630000Y-139294000D01*
%TA.AperFunction,NonConductor*%
D25*
G36*
X160630000Y-139294000D02*
G01*
X139803052Y-139294000D01*
X140299914Y-138797139D01*
X140348370Y-138757372D01*
X140507075Y-138563990D01*
X140625003Y-138343361D01*
X140697623Y-138103965D01*
X140705830Y-138020637D01*
X140722144Y-137855002D01*
X140716000Y-137792622D01*
X140716000Y-137424240D01*
X140761990Y-137355411D01*
X140873932Y-137085158D01*
X140931000Y-136798260D01*
X140931000Y-136505740D01*
X142279000Y-136505740D01*
X142279000Y-136798260D01*
X142336068Y-137085158D01*
X142448010Y-137355411D01*
X142610525Y-137598632D01*
X142817368Y-137805475D01*
X143060589Y-137967990D01*
X143330842Y-138079932D01*
X143617740Y-138137000D01*
X143910260Y-138137000D01*
X144197158Y-138079932D01*
X144467411Y-137967990D01*
X144710632Y-137805475D01*
X144842487Y-137673620D01*
X144864498Y-137746180D01*
X144923463Y-137856494D01*
X145002815Y-137953185D01*
X145099506Y-138032537D01*
X145209820Y-138091502D01*
X145329518Y-138127812D01*
X145454000Y-138140072D01*
X147154000Y-138140072D01*
X147278482Y-138127812D01*
X147398180Y-138091502D01*
X147508494Y-138032537D01*
X147605185Y-137953185D01*
X147684537Y-137856494D01*
X147743502Y-137746180D01*
X147779812Y-137626482D01*
X147792072Y-137502000D01*
X147792072Y-136764665D01*
X157315000Y-136764665D01*
X157315000Y-137047335D01*
X157370147Y-137324574D01*
X157478320Y-137585727D01*
X157635363Y-137820759D01*
X157835241Y-138020637D01*
X158070273Y-138177680D01*
X158331426Y-138285853D01*
X158608665Y-138341000D01*
X158891335Y-138341000D01*
X159168574Y-138285853D01*
X159429727Y-138177680D01*
X159664759Y-138020637D01*
X159864637Y-137820759D01*
X160021680Y-137585727D01*
X160129853Y-137324574D01*
X160185000Y-137047335D01*
X160185000Y-136764665D01*
X160129853Y-136487426D01*
X160021680Y-136226273D01*
X159864637Y-135991241D01*
X159664759Y-135791363D01*
X159429727Y-135634320D01*
X159168574Y-135526147D01*
X158891335Y-135471000D01*
X158608665Y-135471000D01*
X158331426Y-135526147D01*
X158070273Y-135634320D01*
X157835241Y-135791363D01*
X157635363Y-135991241D01*
X157478320Y-136226273D01*
X157370147Y-136487426D01*
X157315000Y-136764665D01*
X147792072Y-136764665D01*
X147792072Y-135802000D01*
X147779812Y-135677518D01*
X147743502Y-135557820D01*
X147684537Y-135447506D01*
X147605185Y-135350815D01*
X147508494Y-135271463D01*
X147398180Y-135212498D01*
X147318480Y-135188321D01*
X152231928Y-130274874D01*
X152231928Y-131102000D01*
X152244188Y-131226482D01*
X152280498Y-131346180D01*
X152339463Y-131456494D01*
X152418815Y-131553185D01*
X152515506Y-131632537D01*
X152625820Y-131691502D01*
X152745518Y-131727812D01*
X152870000Y-131740072D01*
X154470000Y-131740072D01*
X154594482Y-131727812D01*
X154714180Y-131691502D01*
X154824494Y-131632537D01*
X154921185Y-131553185D01*
X155000537Y-131456494D01*
X155059502Y-131346180D01*
X155095812Y-131226482D01*
X155108072Y-131102000D01*
X155108072Y-131062000D01*
X155156678Y-131062000D01*
X155194000Y-131065676D01*
X155231322Y-131062000D01*
X155231333Y-131062000D01*
X155342986Y-131051003D01*
X155486247Y-131007546D01*
X155618276Y-130936974D01*
X155734001Y-130842001D01*
X155757804Y-130812997D01*
X158426115Y-128144688D01*
X158608665Y-128181000D01*
X158891335Y-128181000D01*
X159168574Y-128125853D01*
X159429727Y-128017680D01*
X159664759Y-127860637D01*
X159864637Y-127660759D01*
X160021680Y-127425727D01*
X160129853Y-127164574D01*
X160185000Y-126887335D01*
X160185000Y-126604665D01*
X160129853Y-126327426D01*
X160021680Y-126066273D01*
X159864637Y-125831241D01*
X159664759Y-125631363D01*
X159510000Y-125527957D01*
X159510000Y-125136072D01*
X159550000Y-125136072D01*
X159674482Y-125123812D01*
X159794180Y-125087502D01*
X159904494Y-125028537D01*
X160001185Y-124949185D01*
X160080537Y-124852494D01*
X160139502Y-124742180D01*
X160175812Y-124622482D01*
X160188072Y-124498000D01*
X160188072Y-122898000D01*
X160175812Y-122773518D01*
X160139502Y-122653820D01*
X160080537Y-122543506D01*
X160001185Y-122446815D01*
X159904494Y-122367463D01*
X159794180Y-122308498D01*
X159674482Y-122272188D01*
X159550000Y-122259928D01*
X157950000Y-122259928D01*
X157825518Y-122272188D01*
X157705820Y-122308498D01*
X157595506Y-122367463D01*
X157498815Y-122446815D01*
X157419463Y-122543506D01*
X157360498Y-122653820D01*
X157324188Y-122773518D01*
X157311928Y-122898000D01*
X157311928Y-124498000D01*
X157324188Y-124622482D01*
X157360498Y-124742180D01*
X157419463Y-124852494D01*
X157498815Y-124949185D01*
X157595506Y-125028537D01*
X157705820Y-125087502D01*
X157825518Y-125123812D01*
X157950000Y-125136072D01*
X157990000Y-125136072D01*
X157990001Y-125527956D01*
X157835241Y-125631363D01*
X157635363Y-125831241D01*
X157478320Y-126066273D01*
X157370147Y-126327426D01*
X157315000Y-126604665D01*
X157315000Y-126887335D01*
X157351312Y-127069885D01*
X155083679Y-129337520D01*
X155059502Y-129257820D01*
X155000537Y-129147506D01*
X154921185Y-129050815D01*
X154824494Y-128971463D01*
X154714180Y-128912498D01*
X154594482Y-128876188D01*
X154586039Y-128875357D01*
X154784637Y-128676759D01*
X154941680Y-128441727D01*
X155049853Y-128180574D01*
X155105000Y-127903335D01*
X155105000Y-127620665D01*
X155068688Y-127438114D01*
X155306005Y-127200797D01*
X155335002Y-127177000D01*
X155429975Y-127061275D01*
X155500547Y-126929246D01*
X155544004Y-126785985D01*
X155555001Y-126674332D01*
X155555001Y-126674324D01*
X155558677Y-126636999D01*
X155555001Y-126599674D01*
X155555001Y-120347800D01*
X158426114Y-117476688D01*
X158608665Y-117513000D01*
X158891335Y-117513000D01*
X159168574Y-117457853D01*
X159429727Y-117349680D01*
X159664759Y-117192637D01*
X159864637Y-116992759D01*
X160021680Y-116757727D01*
X160129853Y-116496574D01*
X160185000Y-116219335D01*
X160185000Y-115936665D01*
X160129853Y-115659426D01*
X160021680Y-115398273D01*
X159864637Y-115163241D01*
X159664759Y-114963363D01*
X159429727Y-114806320D01*
X159168574Y-114698147D01*
X158891335Y-114643000D01*
X158608665Y-114643000D01*
X158331426Y-114698147D01*
X158070273Y-114806320D01*
X157835241Y-114963363D01*
X157635363Y-115163241D01*
X157478320Y-115398273D01*
X157370147Y-115659426D01*
X157315000Y-115936665D01*
X157315000Y-116219335D01*
X157351312Y-116401886D01*
X154283999Y-119469200D01*
X154255001Y-119492998D01*
X154231203Y-119521996D01*
X154231202Y-119521997D01*
X154160027Y-119608723D01*
X154089455Y-119740753D01*
X154045999Y-119884014D01*
X154031325Y-120032999D01*
X154035002Y-120070331D01*
X154035001Y-123831491D01*
X153811335Y-123787000D01*
X153528665Y-123787000D01*
X153251426Y-123842147D01*
X152990273Y-123950320D01*
X152755241Y-124107363D01*
X152555363Y-124307241D01*
X152398320Y-124542273D01*
X152290147Y-124803426D01*
X152235000Y-125080665D01*
X152235000Y-125363335D01*
X152290147Y-125640574D01*
X152398320Y-125901727D01*
X152555363Y-126136759D01*
X152755241Y-126336637D01*
X152987759Y-126492000D01*
X152755241Y-126647363D01*
X152555363Y-126847241D01*
X152398320Y-127082273D01*
X152290147Y-127343426D01*
X152235000Y-127620665D01*
X152235000Y-127903335D01*
X152271312Y-128085886D01*
X145792998Y-134564201D01*
X145764000Y-134587999D01*
X145740202Y-134616997D01*
X145740201Y-134616998D01*
X145669026Y-134703724D01*
X145598454Y-134835754D01*
X145554998Y-134979015D01*
X145540324Y-135128000D01*
X145543863Y-135163928D01*
X145454000Y-135163928D01*
X145329518Y-135176188D01*
X145209820Y-135212498D01*
X145099506Y-135271463D01*
X145002815Y-135350815D01*
X144923463Y-135447506D01*
X144864498Y-135557820D01*
X144842487Y-135630380D01*
X144710632Y-135498525D01*
X144467411Y-135336010D01*
X144197158Y-135224068D01*
X143910260Y-135167000D01*
X143617740Y-135167000D01*
X143330842Y-135224068D01*
X143060589Y-135336010D01*
X142817368Y-135498525D01*
X142610525Y-135705368D01*
X142448010Y-135948589D01*
X142336068Y-136218842D01*
X142279000Y-136505740D01*
X140931000Y-136505740D01*
X140873932Y-136218842D01*
X140761990Y-135948589D01*
X140716000Y-135879760D01*
X140716000Y-135381454D01*
X140897044Y-135363623D01*
X141136440Y-135291003D01*
X141357069Y-135173075D01*
X141550451Y-135014370D01*
X141590222Y-134965909D01*
X142734925Y-133821207D01*
X142783381Y-133781440D01*
X142942086Y-133588058D01*
X143060014Y-133367429D01*
X143132634Y-133128033D01*
X143151011Y-132941450D01*
X143151011Y-132941444D01*
X143157154Y-132879071D01*
X143151011Y-132816698D01*
X143151011Y-125080665D01*
X144615000Y-125080665D01*
X144615000Y-125363335D01*
X144670147Y-125640574D01*
X144778320Y-125901727D01*
X144935363Y-126136759D01*
X145135241Y-126336637D01*
X145367759Y-126492000D01*
X145135241Y-126647363D01*
X144935363Y-126847241D01*
X144778320Y-127082273D01*
X144670147Y-127343426D01*
X144615000Y-127620665D01*
X144615000Y-127903335D01*
X144670147Y-128180574D01*
X144778320Y-128441727D01*
X144935363Y-128676759D01*
X145135241Y-128876637D01*
X145367759Y-129032000D01*
X145135241Y-129187363D01*
X144935363Y-129387241D01*
X144778320Y-129622273D01*
X144670147Y-129883426D01*
X144615000Y-130160665D01*
X144615000Y-130443335D01*
X144670147Y-130720574D01*
X144778320Y-130981727D01*
X144935363Y-131216759D01*
X145135241Y-131416637D01*
X145370273Y-131573680D01*
X145631426Y-131681853D01*
X145908665Y-131737000D01*
X146191335Y-131737000D01*
X146468574Y-131681853D01*
X146729727Y-131573680D01*
X146964759Y-131416637D01*
X147164637Y-131216759D01*
X147321680Y-130981727D01*
X147429853Y-130720574D01*
X147485000Y-130443335D01*
X147485000Y-130160665D01*
X147429853Y-129883426D01*
X147321680Y-129622273D01*
X147164637Y-129387241D01*
X146964759Y-129187363D01*
X146732241Y-129032000D01*
X146964759Y-128876637D01*
X147164637Y-128676759D01*
X147321680Y-128441727D01*
X147429853Y-128180574D01*
X147485000Y-127903335D01*
X147485000Y-127620665D01*
X147429853Y-127343426D01*
X147321680Y-127082273D01*
X147164637Y-126847241D01*
X146964759Y-126647363D01*
X146732241Y-126492000D01*
X146964759Y-126336637D01*
X147164637Y-126136759D01*
X147321680Y-125901727D01*
X147429853Y-125640574D01*
X147485000Y-125363335D01*
X147485000Y-125080665D01*
X147429853Y-124803426D01*
X147321680Y-124542273D01*
X147164637Y-124307241D01*
X147036414Y-124179018D01*
X150667683Y-120547749D01*
X150686147Y-120640574D01*
X150794320Y-120901727D01*
X150951363Y-121136759D01*
X151151241Y-121336637D01*
X151386273Y-121493680D01*
X151647426Y-121601853D01*
X151924665Y-121657000D01*
X152207335Y-121657000D01*
X152484574Y-121601853D01*
X152745727Y-121493680D01*
X152980759Y-121336637D01*
X153180637Y-121136759D01*
X153337680Y-120901727D01*
X153445853Y-120640574D01*
X153501000Y-120363335D01*
X153501000Y-120080665D01*
X153445853Y-119803426D01*
X153337680Y-119542273D01*
X153180637Y-119307241D01*
X152980759Y-119107363D01*
X152745727Y-118950320D01*
X152484574Y-118842147D01*
X152391749Y-118823683D01*
X153541317Y-117674115D01*
X153632426Y-117711853D01*
X153909665Y-117767000D01*
X154192335Y-117767000D01*
X154469574Y-117711853D01*
X154730727Y-117603680D01*
X154965759Y-117446637D01*
X155165637Y-117246759D01*
X155322680Y-117011727D01*
X155430853Y-116750574D01*
X155486000Y-116473335D01*
X155486000Y-116190665D01*
X155430853Y-115913426D01*
X155322680Y-115652273D01*
X155165637Y-115417241D01*
X154965759Y-115217363D01*
X154730727Y-115060320D01*
X154469574Y-114952147D01*
X154192335Y-114897000D01*
X153909665Y-114897000D01*
X153632426Y-114952147D01*
X153371273Y-115060320D01*
X153136241Y-115217363D01*
X152936363Y-115417241D01*
X152779320Y-115652273D01*
X152671147Y-115913426D01*
X152616000Y-116190665D01*
X152616000Y-116449828D01*
X148450968Y-120614861D01*
X148501000Y-120363335D01*
X148501000Y-120080665D01*
X148445853Y-119803426D01*
X148337680Y-119542273D01*
X148180637Y-119307241D01*
X147980759Y-119107363D01*
X147745727Y-118950320D01*
X147484574Y-118842147D01*
X147207335Y-118787000D01*
X146924665Y-118787000D01*
X146647426Y-118842147D01*
X146386273Y-118950320D01*
X146151241Y-119107363D01*
X145951363Y-119307241D01*
X145794320Y-119542273D01*
X145686147Y-119803426D01*
X145631000Y-120080665D01*
X145631000Y-120363335D01*
X145686147Y-120640574D01*
X145794320Y-120901727D01*
X145951363Y-121136759D01*
X146151241Y-121336637D01*
X146386273Y-121493680D01*
X146647426Y-121601853D01*
X146924665Y-121657000D01*
X147207335Y-121657000D01*
X147458861Y-121606968D01*
X145538998Y-123526831D01*
X145510000Y-123550629D01*
X145486202Y-123579627D01*
X145486201Y-123579628D01*
X145415026Y-123666354D01*
X145344454Y-123798384D01*
X145314180Y-123898188D01*
X145300998Y-123941644D01*
X145299978Y-123952000D01*
X145295203Y-124000480D01*
X145135241Y-124107363D01*
X144935363Y-124307241D01*
X144778320Y-124542273D01*
X144670147Y-124803426D01*
X144615000Y-125080665D01*
X143151011Y-125080665D01*
X143151011Y-117563414D01*
X143211273Y-117603680D01*
X143472426Y-117711853D01*
X143749665Y-117767000D01*
X144032335Y-117767000D01*
X144309574Y-117711853D01*
X144570727Y-117603680D01*
X144805759Y-117446637D01*
X145005637Y-117246759D01*
X145162680Y-117011727D01*
X145270853Y-116750574D01*
X145326000Y-116473335D01*
X145326000Y-116190665D01*
X145270853Y-115913426D01*
X145162680Y-115652273D01*
X145005637Y-115417241D01*
X144805759Y-115217363D01*
X144570727Y-115060320D01*
X144309574Y-114952147D01*
X144032335Y-114897000D01*
X143749665Y-114897000D01*
X143472426Y-114952147D01*
X143211273Y-115060320D01*
X143151011Y-115100586D01*
X143151011Y-114131039D01*
X147300051Y-109982000D01*
X147615741Y-109982000D01*
X147689506Y-110042537D01*
X147799820Y-110101502D01*
X147895943Y-110130661D01*
X147729363Y-110297241D01*
X147572320Y-110532273D01*
X147464147Y-110793426D01*
X147409000Y-111070665D01*
X147409000Y-111353335D01*
X147464147Y-111630574D01*
X147572320Y-111891727D01*
X147729363Y-112126759D01*
X147929241Y-112326637D01*
X148164273Y-112483680D01*
X148425426Y-112591853D01*
X148702665Y-112647000D01*
X148985335Y-112647000D01*
X149262574Y-112591853D01*
X149523727Y-112483680D01*
X149758759Y-112326637D01*
X149784731Y-112300665D01*
X157315000Y-112300665D01*
X157315000Y-112583335D01*
X157370147Y-112860574D01*
X157478320Y-113121727D01*
X157635363Y-113356759D01*
X157835241Y-113556637D01*
X158070273Y-113713680D01*
X158331426Y-113821853D01*
X158608665Y-113877000D01*
X158891335Y-113877000D01*
X159168574Y-113821853D01*
X159429727Y-113713680D01*
X159664759Y-113556637D01*
X159864637Y-113356759D01*
X160021680Y-113121727D01*
X160129853Y-112860574D01*
X160185000Y-112583335D01*
X160185000Y-112300665D01*
X160129853Y-112023426D01*
X160021680Y-111762273D01*
X159864637Y-111527241D01*
X159664759Y-111327363D01*
X159429727Y-111170320D01*
X159168574Y-111062147D01*
X158891335Y-111007000D01*
X158608665Y-111007000D01*
X158331426Y-111062147D01*
X158070273Y-111170320D01*
X157835241Y-111327363D01*
X157635363Y-111527241D01*
X157478320Y-111762273D01*
X157370147Y-112023426D01*
X157315000Y-112300665D01*
X149784731Y-112300665D01*
X149958637Y-112126759D01*
X150115680Y-111891727D01*
X150223853Y-111630574D01*
X150279000Y-111353335D01*
X150279000Y-111070665D01*
X150223853Y-110793426D01*
X150115680Y-110532273D01*
X149958637Y-110297241D01*
X149792057Y-110130661D01*
X149888180Y-110101502D01*
X149998494Y-110042537D01*
X150095185Y-109963185D01*
X150174537Y-109866494D01*
X150233502Y-109756180D01*
X150269812Y-109636482D01*
X150282072Y-109512000D01*
X150282072Y-109069978D01*
X150640051Y-108712000D01*
X158067759Y-108712000D01*
X158070273Y-108713680D01*
X158331426Y-108821853D01*
X158608665Y-108877000D01*
X158891335Y-108877000D01*
X159168574Y-108821853D01*
X159429727Y-108713680D01*
X159664759Y-108556637D01*
X159864637Y-108356759D01*
X160021680Y-108121727D01*
X160129853Y-107860574D01*
X160185000Y-107583335D01*
X160185000Y-107300665D01*
X160129853Y-107023426D01*
X160021680Y-106762273D01*
X160020000Y-106759759D01*
X160020000Y-104912240D01*
X160065990Y-104843411D01*
X160177932Y-104573158D01*
X160235000Y-104286260D01*
X160235000Y-103993740D01*
X160177932Y-103706842D01*
X160065990Y-103436589D01*
X160020000Y-103367760D01*
X160020000Y-84954372D01*
X160026143Y-84891999D01*
X160020000Y-84829626D01*
X160020000Y-84829620D01*
X160002472Y-84651660D01*
X160001623Y-84643036D01*
X159973885Y-84551597D01*
X159929003Y-84403641D01*
X159811075Y-84183012D01*
X159652370Y-83989630D01*
X159603914Y-83949863D01*
X147264000Y-71609950D01*
X147264000Y-70316259D01*
X147324537Y-70242494D01*
X147383502Y-70132180D01*
X147419812Y-70012482D01*
X147432072Y-69888000D01*
X147432072Y-68288000D01*
X147419812Y-68163518D01*
X147383502Y-68043820D01*
X147324537Y-67933506D01*
X147264000Y-67859741D01*
X147264000Y-56894879D01*
X148458990Y-58089869D01*
X148458991Y-61855552D01*
X148364061Y-62033153D01*
X148256275Y-62388477D01*
X148229000Y-62665404D01*
X148229001Y-65350597D01*
X148256276Y-65627524D01*
X148364062Y-65982848D01*
X148539098Y-66310317D01*
X148774656Y-66597345D01*
X149061684Y-66832903D01*
X149389153Y-67007939D01*
X149744477Y-67115725D01*
X150114000Y-67152120D01*
X150483524Y-67115725D01*
X150838848Y-67007939D01*
X151166317Y-66832903D01*
X151453345Y-66597345D01*
X151688903Y-66310317D01*
X151863939Y-65982848D01*
X151971725Y-65627524D01*
X151999000Y-65350597D01*
X151999000Y-62796548D01*
X154354000Y-62796548D01*
X154354001Y-65219453D01*
X154379468Y-65478020D01*
X154480106Y-65809781D01*
X154643535Y-66115534D01*
X154863472Y-66383529D01*
X155131467Y-66603466D01*
X155437220Y-66766895D01*
X155768981Y-66867533D01*
X156114000Y-66901515D01*
X156459020Y-66867533D01*
X156790781Y-66766895D01*
X157096534Y-66603466D01*
X157364529Y-66383529D01*
X157584466Y-66115534D01*
X157747895Y-65809781D01*
X157848533Y-65478020D01*
X157874000Y-65219453D01*
X157874000Y-62796547D01*
X157848533Y-62537980D01*
X157747895Y-62206219D01*
X157584466Y-61900466D01*
X157364529Y-61632471D01*
X157096533Y-61412534D01*
X156790780Y-61249105D01*
X156459019Y-61148467D01*
X156114000Y-61114485D01*
X155768980Y-61148467D01*
X155437219Y-61249105D01*
X155131466Y-61412534D01*
X154863471Y-61632471D01*
X154643534Y-61900467D01*
X154480105Y-62206220D01*
X154379467Y-62537981D01*
X154354000Y-62796548D01*
X151999000Y-62796548D01*
X151999000Y-62665403D01*
X151971725Y-62388476D01*
X151863939Y-62033152D01*
X151688903Y-61705683D01*
X151453345Y-61418655D01*
X151166317Y-61183097D01*
X150998990Y-61093659D01*
X150998990Y-60772331D01*
X151006466Y-60778466D01*
X151312219Y-60941895D01*
X151643980Y-61042533D01*
X151902547Y-61068000D01*
X154325453Y-61068000D01*
X154584020Y-61042533D01*
X154915781Y-60941895D01*
X155221534Y-60778466D01*
X155489529Y-60558529D01*
X155709466Y-60290534D01*
X155872895Y-59984781D01*
X155973533Y-59653020D01*
X156007515Y-59308000D01*
X155973533Y-58962980D01*
X155872895Y-58631219D01*
X155709466Y-58325466D01*
X155489529Y-58057471D01*
X155221534Y-57837534D01*
X154915781Y-57674105D01*
X154584020Y-57573467D01*
X154325453Y-57548000D01*
X151902547Y-57548000D01*
X151643980Y-57573467D01*
X151312219Y-57674105D01*
X151006466Y-57837534D01*
X150998990Y-57843669D01*
X150998990Y-57626190D01*
X151005133Y-57563817D01*
X150998990Y-57501444D01*
X150998990Y-57501438D01*
X150980613Y-57314855D01*
X150980568Y-57314705D01*
X150948843Y-57210125D01*
X150907993Y-57075459D01*
X150790065Y-56854830D01*
X150631360Y-56661448D01*
X150582905Y-56621682D01*
X145887568Y-51926345D01*
X148526500Y-51926345D01*
X148526500Y-52239055D01*
X148587507Y-52545757D01*
X148707176Y-52834663D01*
X148880908Y-53094672D01*
X149102028Y-53315792D01*
X149362037Y-53489524D01*
X149650943Y-53609193D01*
X149957645Y-53670200D01*
X150270355Y-53670200D01*
X150577057Y-53609193D01*
X150865963Y-53489524D01*
X151125972Y-53315792D01*
X151347092Y-53094672D01*
X151520824Y-52834663D01*
X151640493Y-52545757D01*
X151701500Y-52239055D01*
X151701500Y-51926345D01*
X151640493Y-51619643D01*
X151520824Y-51330737D01*
X151347092Y-51070728D01*
X151125972Y-50849608D01*
X150865963Y-50675876D01*
X150577057Y-50556207D01*
X150270355Y-50495200D01*
X149957645Y-50495200D01*
X149650943Y-50556207D01*
X149362037Y-50675876D01*
X149102028Y-50849608D01*
X148880908Y-51070728D01*
X148707176Y-51330737D01*
X148587507Y-51619643D01*
X148526500Y-51926345D01*
X145887568Y-51926345D01*
X143907313Y-49946091D01*
X143867542Y-49897630D01*
X143674160Y-49738925D01*
X143453531Y-49620997D01*
X143214135Y-49548377D01*
X143027552Y-49530000D01*
X143027545Y-49530000D01*
X142965172Y-49523857D01*
X142902799Y-49530000D01*
X137914422Y-49530000D01*
X137852049Y-49523857D01*
X137789676Y-49530000D01*
X137789670Y-49530000D01*
X137628805Y-49545844D01*
X137603086Y-49548377D01*
X137530466Y-49570406D01*
X137363691Y-49620997D01*
X137143062Y-49738925D01*
X136949680Y-49897630D01*
X136909913Y-49946086D01*
X135340886Y-51515114D01*
X135292431Y-51554880D01*
X135133725Y-51748262D01*
X135015797Y-51968891D01*
X134991074Y-52050391D01*
X134923031Y-52152225D01*
X134814850Y-52413397D01*
X134759700Y-52690655D01*
X134759700Y-52973345D01*
X134814850Y-53250603D01*
X134923031Y-53511775D01*
X135080085Y-53746823D01*
X135279977Y-53946715D01*
X135515025Y-54103769D01*
X135776197Y-54211950D01*
X136053455Y-54267100D01*
X136336145Y-54267100D01*
X136447478Y-54244955D01*
X136590962Y-54230823D01*
X136830358Y-54158202D01*
X137050987Y-54040274D01*
X137244369Y-53881569D01*
X137403074Y-53688187D01*
X137459531Y-53582564D01*
X137569285Y-53746823D01*
X137769177Y-53946715D01*
X138004225Y-54103769D01*
X138265397Y-54211950D01*
X138542655Y-54267100D01*
X138825345Y-54267100D01*
X139102603Y-54211950D01*
X139363775Y-54103769D01*
X139366422Y-54102000D01*
X141967950Y-54102000D01*
X144724000Y-56858051D01*
X144724001Y-67859740D01*
X144663463Y-67933506D01*
X144604498Y-68043820D01*
X144568188Y-68163518D01*
X144555928Y-68288000D01*
X144555928Y-69888000D01*
X144568188Y-70012482D01*
X144604498Y-70132180D01*
X144663463Y-70242494D01*
X144724000Y-70316259D01*
X144724001Y-72073618D01*
X144717857Y-72136000D01*
X144742377Y-72384963D01*
X144814998Y-72624359D01*
X144932926Y-72844988D01*
X145091631Y-73038370D01*
X145140087Y-73078137D01*
X157480001Y-85418052D01*
X157480000Y-103367760D01*
X157363475Y-103193368D01*
X157156632Y-102986525D01*
X156913411Y-102824010D01*
X156643158Y-102712068D01*
X156356260Y-102655000D01*
X156063740Y-102655000D01*
X155776842Y-102712068D01*
X155506589Y-102824010D01*
X155263368Y-102986525D01*
X155056525Y-103193368D01*
X154940000Y-103367760D01*
X154823475Y-103193368D01*
X154616632Y-102986525D01*
X154373411Y-102824010D01*
X154103158Y-102712068D01*
X153816260Y-102655000D01*
X153523740Y-102655000D01*
X153303592Y-102698791D01*
X152608793Y-102003992D01*
X152584990Y-101974988D01*
X152469265Y-101880015D01*
X152337236Y-101809443D01*
X152193975Y-101765986D01*
X152082322Y-101754989D01*
X152082311Y-101754989D01*
X152044989Y-101751313D01*
X152007667Y-101754989D01*
X146263791Y-101754989D01*
X141831011Y-97322210D01*
X141831011Y-88315334D01*
X141834687Y-88278009D01*
X141831011Y-88240684D01*
X141831011Y-88240676D01*
X141820014Y-88129023D01*
X141776557Y-87985762D01*
X141705985Y-87853733D01*
X141611012Y-87738008D01*
X141582014Y-87714210D01*
X140573805Y-86706001D01*
X140550002Y-86676998D01*
X140434277Y-86582025D01*
X140302248Y-86511453D01*
X140158987Y-86467996D01*
X140047334Y-86456999D01*
X140047323Y-86456999D01*
X140010001Y-86453323D01*
X139972679Y-86456999D01*
X139133031Y-86456999D01*
X139134532Y-86456546D01*
X139134536Y-86456545D01*
X139134539Y-86456544D01*
X139371314Y-86383249D01*
X139426457Y-86360069D01*
X139481920Y-86337661D01*
X139490054Y-86333335D01*
X139490059Y-86333333D01*
X139490064Y-86333330D01*
X139708086Y-86215447D01*
X139757654Y-86182012D01*
X139807735Y-86149241D01*
X139814876Y-86143416D01*
X140005856Y-85985423D01*
X140047995Y-85942988D01*
X140090745Y-85901125D01*
X140096618Y-85894024D01*
X140253273Y-85701947D01*
X140286374Y-85652125D01*
X140320173Y-85602763D01*
X140324556Y-85594657D01*
X140440919Y-85375809D01*
X140463707Y-85320521D01*
X140487279Y-85265525D01*
X140490003Y-85256722D01*
X140561643Y-85019441D01*
X140573264Y-84960754D01*
X140585700Y-84902248D01*
X140586663Y-84893083D01*
X140610850Y-84646405D01*
X140610850Y-84646402D01*
X140614000Y-84614419D01*
X140614000Y-77323740D01*
X143930000Y-77323740D01*
X143930000Y-77616260D01*
X143987068Y-77903158D01*
X144099010Y-78173411D01*
X144261525Y-78416632D01*
X144468368Y-78623475D01*
X144642760Y-78740000D01*
X144468368Y-78856525D01*
X144261525Y-79063368D01*
X144099010Y-79306589D01*
X143987068Y-79576842D01*
X143930000Y-79863740D01*
X143930000Y-80156260D01*
X143987068Y-80443158D01*
X144099010Y-80713411D01*
X144261525Y-80956632D01*
X144468368Y-81163475D01*
X144642760Y-81280000D01*
X144468368Y-81396525D01*
X144261525Y-81603368D01*
X144099010Y-81846589D01*
X143987068Y-82116842D01*
X143930000Y-82403740D01*
X143930000Y-82696260D01*
X143987068Y-82983158D01*
X144099010Y-83253411D01*
X144261525Y-83496632D01*
X144468368Y-83703475D01*
X144642760Y-83820000D01*
X144468368Y-83936525D01*
X144261525Y-84143368D01*
X144099010Y-84386589D01*
X143987068Y-84656842D01*
X143930000Y-84943740D01*
X143930000Y-85236260D01*
X143987068Y-85523158D01*
X144099010Y-85793411D01*
X144261525Y-86036632D01*
X144468368Y-86243475D01*
X144642760Y-86360000D01*
X144468368Y-86476525D01*
X144261525Y-86683368D01*
X144099010Y-86926589D01*
X143987068Y-87196842D01*
X143930000Y-87483740D01*
X143930000Y-87776260D01*
X143987068Y-88063158D01*
X144099010Y-88333411D01*
X144261525Y-88576632D01*
X144468368Y-88783475D01*
X144642760Y-88900000D01*
X144468368Y-89016525D01*
X144261525Y-89223368D01*
X144099010Y-89466589D01*
X143987068Y-89736842D01*
X143930000Y-90023740D01*
X143930000Y-90316260D01*
X143987068Y-90603158D01*
X144099010Y-90873411D01*
X144261525Y-91116632D01*
X144468368Y-91323475D01*
X144642760Y-91440000D01*
X144468368Y-91556525D01*
X144261525Y-91763368D01*
X144099010Y-92006589D01*
X143987068Y-92276842D01*
X143930000Y-92563740D01*
X143930000Y-92856260D01*
X143987068Y-93143158D01*
X144099010Y-93413411D01*
X144261525Y-93656632D01*
X144468368Y-93863475D01*
X144642760Y-93980000D01*
X144468368Y-94096525D01*
X144261525Y-94303368D01*
X144099010Y-94546589D01*
X143987068Y-94816842D01*
X143930000Y-95103740D01*
X143930000Y-95396260D01*
X143987068Y-95683158D01*
X144099010Y-95953411D01*
X144261525Y-96196632D01*
X144468368Y-96403475D01*
X144642760Y-96520000D01*
X144468368Y-96636525D01*
X144261525Y-96843368D01*
X144099010Y-97086589D01*
X143987068Y-97356842D01*
X143930000Y-97643740D01*
X143930000Y-97936260D01*
X143987068Y-98223158D01*
X144099010Y-98493411D01*
X144261525Y-98736632D01*
X144468368Y-98943475D01*
X144711589Y-99105990D01*
X144981842Y-99217932D01*
X145268740Y-99275000D01*
X145561260Y-99275000D01*
X145848158Y-99217932D01*
X146118411Y-99105990D01*
X146361632Y-98943475D01*
X146568475Y-98736632D01*
X146730990Y-98493411D01*
X146842932Y-98223158D01*
X146900000Y-97936260D01*
X146900000Y-97643740D01*
X146842932Y-97356842D01*
X146730990Y-97086589D01*
X146568475Y-96843368D01*
X146361632Y-96636525D01*
X146187240Y-96520000D01*
X146361632Y-96403475D01*
X146568475Y-96196632D01*
X146730990Y-95953411D01*
X146842932Y-95683158D01*
X146900000Y-95396260D01*
X146900000Y-95103740D01*
X146842932Y-94816842D01*
X146730990Y-94546589D01*
X146568475Y-94303368D01*
X146361632Y-94096525D01*
X146187240Y-93980000D01*
X146361632Y-93863475D01*
X146568475Y-93656632D01*
X146730990Y-93413411D01*
X146842932Y-93143158D01*
X146900000Y-92856260D01*
X146900000Y-92563740D01*
X146842932Y-92276842D01*
X146730990Y-92006589D01*
X146568475Y-91763368D01*
X146361632Y-91556525D01*
X146187240Y-91440000D01*
X146361632Y-91323475D01*
X146568475Y-91116632D01*
X146730990Y-90873411D01*
X146842932Y-90603158D01*
X146900000Y-90316260D01*
X146900000Y-90023740D01*
X146842932Y-89736842D01*
X146730990Y-89466589D01*
X146568475Y-89223368D01*
X146361632Y-89016525D01*
X146187240Y-88900000D01*
X146361632Y-88783475D01*
X146568475Y-88576632D01*
X146730990Y-88333411D01*
X146842932Y-88063158D01*
X146900000Y-87776260D01*
X146900000Y-87483740D01*
X146842932Y-87196842D01*
X146730990Y-86926589D01*
X146568475Y-86683368D01*
X146361632Y-86476525D01*
X146187240Y-86360000D01*
X146361632Y-86243475D01*
X146568475Y-86036632D01*
X146730990Y-85793411D01*
X146842932Y-85523158D01*
X146900000Y-85236260D01*
X146900000Y-84943740D01*
X146842932Y-84656842D01*
X146730990Y-84386589D01*
X146568475Y-84143368D01*
X146361632Y-83936525D01*
X146187240Y-83820000D01*
X146361632Y-83703475D01*
X146568475Y-83496632D01*
X146730990Y-83253411D01*
X146842932Y-82983158D01*
X146900000Y-82696260D01*
X146900000Y-82403740D01*
X146842932Y-82116842D01*
X146730990Y-81846589D01*
X146568475Y-81603368D01*
X146361632Y-81396525D01*
X146187240Y-81280000D01*
X146361632Y-81163475D01*
X146568475Y-80956632D01*
X146730990Y-80713411D01*
X146842932Y-80443158D01*
X146900000Y-80156260D01*
X146900000Y-79863740D01*
X146842932Y-79576842D01*
X146730990Y-79306589D01*
X146568475Y-79063368D01*
X146361632Y-78856525D01*
X146187240Y-78740000D01*
X146361632Y-78623475D01*
X146568475Y-78416632D01*
X146730990Y-78173411D01*
X146842932Y-77903158D01*
X146900000Y-77616260D01*
X146900000Y-77323740D01*
X146842932Y-77036842D01*
X146730990Y-76766589D01*
X146568475Y-76523368D01*
X146361632Y-76316525D01*
X146118411Y-76154010D01*
X145848158Y-76042068D01*
X145561260Y-75985000D01*
X145268740Y-75985000D01*
X144981842Y-76042068D01*
X144711589Y-76154010D01*
X144468368Y-76316525D01*
X144261525Y-76523368D01*
X144099010Y-76766589D01*
X143987068Y-77036842D01*
X143930000Y-77323740D01*
X140614000Y-77323740D01*
X140614000Y-68946665D01*
X141059000Y-68946665D01*
X141059000Y-69229335D01*
X141114147Y-69506574D01*
X141222320Y-69767727D01*
X141379363Y-70002759D01*
X141579241Y-70202637D01*
X141814273Y-70359680D01*
X142075426Y-70467853D01*
X142352665Y-70523000D01*
X142635335Y-70523000D01*
X142912574Y-70467853D01*
X143173727Y-70359680D01*
X143408759Y-70202637D01*
X143608637Y-70002759D01*
X143765680Y-69767727D01*
X143873853Y-69506574D01*
X143929000Y-69229335D01*
X143929000Y-68946665D01*
X143873853Y-68669426D01*
X143765680Y-68408273D01*
X143608637Y-68173241D01*
X143408759Y-67973363D01*
X143173727Y-67816320D01*
X142912574Y-67708147D01*
X142635335Y-67653000D01*
X142352665Y-67653000D01*
X142075426Y-67708147D01*
X141814273Y-67816320D01*
X141579241Y-67973363D01*
X141379363Y-68173241D01*
X141222320Y-68408273D01*
X141114147Y-68669426D01*
X141059000Y-68946665D01*
X140614000Y-68946665D01*
X140614000Y-57117581D01*
X140611198Y-57089135D01*
X140611253Y-57081318D01*
X140610354Y-57072147D01*
X140584446Y-56825644D01*
X140572414Y-56767028D01*
X140561208Y-56708284D01*
X140558544Y-56699462D01*
X140485249Y-56462686D01*
X140462074Y-56407555D01*
X140439661Y-56352080D01*
X140435334Y-56343944D01*
X140317446Y-56125914D01*
X140284012Y-56076346D01*
X140251240Y-56026265D01*
X140245416Y-56019124D01*
X140087423Y-55828144D01*
X140044988Y-55786005D01*
X140003125Y-55743255D01*
X139996024Y-55737381D01*
X139803946Y-55580727D01*
X139754169Y-55547655D01*
X139704763Y-55513826D01*
X139696657Y-55509444D01*
X139477809Y-55393081D01*
X139422532Y-55370298D01*
X139367525Y-55346721D01*
X139358722Y-55343997D01*
X139121441Y-55272357D01*
X139062754Y-55260736D01*
X139004248Y-55248300D01*
X138995085Y-55247337D01*
X138995083Y-55247337D01*
X138748405Y-55223150D01*
X138748402Y-55223150D01*
X138716419Y-55220000D01*
X133248000Y-55220000D01*
X133248000Y-46797855D01*
X134759700Y-46797855D01*
X134759700Y-47080545D01*
X134814850Y-47357803D01*
X134923031Y-47618975D01*
X135080085Y-47854023D01*
X135279977Y-48053915D01*
X135515025Y-48210969D01*
X135776197Y-48319150D01*
X136053455Y-48374300D01*
X136336145Y-48374300D01*
X136613403Y-48319150D01*
X136874575Y-48210969D01*
X137109623Y-48053915D01*
X137309515Y-47854023D01*
X137439400Y-47659636D01*
X137569285Y-47854023D01*
X137769177Y-48053915D01*
X138004225Y-48210969D01*
X138265397Y-48319150D01*
X138542655Y-48374300D01*
X138825345Y-48374300D01*
X139102603Y-48319150D01*
X139363775Y-48210969D01*
X139598823Y-48053915D01*
X139798715Y-47854023D01*
X139955769Y-47618975D01*
X139991735Y-47532145D01*
X148526500Y-47532145D01*
X148526500Y-47844855D01*
X148587507Y-48151557D01*
X148707176Y-48440463D01*
X148880908Y-48700472D01*
X149102028Y-48921592D01*
X149362037Y-49095324D01*
X149650943Y-49214993D01*
X149957645Y-49276000D01*
X150270355Y-49276000D01*
X150577057Y-49214993D01*
X150865963Y-49095324D01*
X151125972Y-48921592D01*
X151347092Y-48700472D01*
X151520824Y-48440463D01*
X151640493Y-48151557D01*
X151701500Y-47844855D01*
X151701500Y-47532145D01*
X151640493Y-47225443D01*
X151520824Y-46936537D01*
X151347092Y-46676528D01*
X151125972Y-46455408D01*
X150865963Y-46281676D01*
X150577057Y-46162007D01*
X150270355Y-46101000D01*
X149957645Y-46101000D01*
X149650943Y-46162007D01*
X149362037Y-46281676D01*
X149102028Y-46455408D01*
X148880908Y-46676528D01*
X148707176Y-46936537D01*
X148587507Y-47225443D01*
X148526500Y-47532145D01*
X139991735Y-47532145D01*
X140063950Y-47357803D01*
X140119100Y-47080545D01*
X140119100Y-46797855D01*
X140063950Y-46520597D01*
X139955769Y-46259425D01*
X139798715Y-46024377D01*
X139598823Y-45824485D01*
X139363775Y-45667431D01*
X139102603Y-45559250D01*
X138825345Y-45504100D01*
X138542655Y-45504100D01*
X138265397Y-45559250D01*
X138004225Y-45667431D01*
X137769177Y-45824485D01*
X137569285Y-46024377D01*
X137439400Y-46218764D01*
X137309515Y-46024377D01*
X137109623Y-45824485D01*
X136874575Y-45667431D01*
X136613403Y-45559250D01*
X136336145Y-45504100D01*
X136053455Y-45504100D01*
X135776197Y-45559250D01*
X135515025Y-45667431D01*
X135279977Y-45824485D01*
X135080085Y-46024377D01*
X134923031Y-46259425D01*
X134814850Y-46520597D01*
X134759700Y-46797855D01*
X133248000Y-46797855D01*
X133248000Y-44602000D01*
X160630001Y-44602000D01*
X160630000Y-139294000D01*
G37*
%TD.AperFunction*%
D24*
X135959368Y-127645475D02*
X136133760Y-127762000D01*
X135959368Y-127878525D01*
X135752525Y-128085368D01*
X135590010Y-128328589D01*
X135478068Y-128598842D01*
X135421000Y-128885740D01*
X135421000Y-129178260D01*
X135478068Y-129465158D01*
X135590010Y-129735411D01*
X135752525Y-129978632D01*
X135959368Y-130185475D01*
X136133760Y-130302000D01*
X135959368Y-130418525D01*
X135752525Y-130625368D01*
X135590010Y-130868589D01*
X135478068Y-131138842D01*
X135421000Y-131425740D01*
X135421000Y-131718260D01*
X135478068Y-132005158D01*
X135590010Y-132275411D01*
X135752525Y-132518632D01*
X135959368Y-132725475D01*
X136133760Y-132842000D01*
X135959368Y-132958525D01*
X135752525Y-133165368D01*
X135590010Y-133408589D01*
X135478068Y-133678842D01*
X135421000Y-133965740D01*
X135421000Y-134258260D01*
X135478068Y-134545158D01*
X135590010Y-134815411D01*
X135752525Y-135058632D01*
X135884380Y-135190487D01*
X135811820Y-135212498D01*
X135701506Y-135271463D01*
X135604815Y-135350815D01*
X135525463Y-135447506D01*
X135466498Y-135557820D01*
X135430188Y-135677518D01*
X135417928Y-135802000D01*
X135417928Y-137110880D01*
X135335001Y-137027953D01*
X135335001Y-129809373D01*
X135341144Y-129747000D01*
X135335001Y-129684627D01*
X135335001Y-129684621D01*
X135316624Y-129498038D01*
X135244004Y-129258642D01*
X135126076Y-129038013D01*
X134967371Y-128844631D01*
X134918910Y-128804860D01*
X134292141Y-128178091D01*
X134252370Y-128129630D01*
X134058988Y-127970925D01*
X133838359Y-127852997D01*
X133598963Y-127780377D01*
X133412380Y-127762000D01*
X133412373Y-127762000D01*
X133350000Y-127755857D01*
X133287627Y-127762000D01*
X132852240Y-127762000D01*
X133026632Y-127645475D01*
X133165107Y-127507000D01*
X135820893Y-127507000D01*
X135959368Y-127645475D01*
%TA.AperFunction,NonConductor*%
D25*
G36*
X135959368Y-127645475D02*
G01*
X136133760Y-127762000D01*
X135959368Y-127878525D01*
X135752525Y-128085368D01*
X135590010Y-128328589D01*
X135478068Y-128598842D01*
X135421000Y-128885740D01*
X135421000Y-129178260D01*
X135478068Y-129465158D01*
X135590010Y-129735411D01*
X135752525Y-129978632D01*
X135959368Y-130185475D01*
X136133760Y-130302000D01*
X135959368Y-130418525D01*
X135752525Y-130625368D01*
X135590010Y-130868589D01*
X135478068Y-131138842D01*
X135421000Y-131425740D01*
X135421000Y-131718260D01*
X135478068Y-132005158D01*
X135590010Y-132275411D01*
X135752525Y-132518632D01*
X135959368Y-132725475D01*
X136133760Y-132842000D01*
X135959368Y-132958525D01*
X135752525Y-133165368D01*
X135590010Y-133408589D01*
X135478068Y-133678842D01*
X135421000Y-133965740D01*
X135421000Y-134258260D01*
X135478068Y-134545158D01*
X135590010Y-134815411D01*
X135752525Y-135058632D01*
X135884380Y-135190487D01*
X135811820Y-135212498D01*
X135701506Y-135271463D01*
X135604815Y-135350815D01*
X135525463Y-135447506D01*
X135466498Y-135557820D01*
X135430188Y-135677518D01*
X135417928Y-135802000D01*
X135417928Y-137110880D01*
X135335001Y-137027953D01*
X135335001Y-129809373D01*
X135341144Y-129747000D01*
X135335001Y-129684627D01*
X135335001Y-129684621D01*
X135316624Y-129498038D01*
X135244004Y-129258642D01*
X135126076Y-129038013D01*
X134967371Y-128844631D01*
X134918910Y-128804860D01*
X134292141Y-128178091D01*
X134252370Y-128129630D01*
X134058988Y-127970925D01*
X133838359Y-127852997D01*
X133598963Y-127780377D01*
X133412380Y-127762000D01*
X133412373Y-127762000D01*
X133350000Y-127755857D01*
X133287627Y-127762000D01*
X132852240Y-127762000D01*
X133026632Y-127645475D01*
X133165107Y-127507000D01*
X135820893Y-127507000D01*
X135959368Y-127645475D01*
G37*
%TD.AperFunction*%
D24*
X138176001Y-134884241D02*
X138176001Y-135325223D01*
X138110494Y-135271463D01*
X138000180Y-135212498D01*
X137927620Y-135190487D01*
X138059475Y-135058632D01*
X138176000Y-134884240D01*
X138176001Y-134884241D01*
%TA.AperFunction,NonConductor*%
D25*
G36*
X138176001Y-134884241D02*
G01*
X138176001Y-135325223D01*
X138110494Y-135271463D01*
X138000180Y-135212498D01*
X137927620Y-135190487D01*
X138059475Y-135058632D01*
X138176000Y-134884240D01*
X138176001Y-134884241D01*
G37*
%TD.AperFunction*%
D24*
X138292525Y-132518632D02*
X138499368Y-132725475D01*
X138673760Y-132842000D01*
X138499368Y-132958525D01*
X138292525Y-133165368D01*
X138176000Y-133339760D01*
X138059475Y-133165368D01*
X137852632Y-132958525D01*
X137678240Y-132842000D01*
X137852632Y-132725475D01*
X138059475Y-132518632D01*
X138176000Y-132344240D01*
X138292525Y-132518632D01*
%TA.AperFunction,NonConductor*%
D25*
G36*
X138292525Y-132518632D02*
G01*
X138499368Y-132725475D01*
X138673760Y-132842000D01*
X138499368Y-132958525D01*
X138292525Y-133165368D01*
X138176000Y-133339760D01*
X138059475Y-133165368D01*
X137852632Y-132958525D01*
X137678240Y-132842000D01*
X137852632Y-132725475D01*
X138059475Y-132518632D01*
X138176000Y-132344240D01*
X138292525Y-132518632D01*
G37*
%TD.AperFunction*%
D24*
X138292525Y-129978632D02*
X138499368Y-130185475D01*
X138673760Y-130302000D01*
X138499368Y-130418525D01*
X138292525Y-130625368D01*
X138176000Y-130799760D01*
X138059475Y-130625368D01*
X137852632Y-130418525D01*
X137678240Y-130302000D01*
X137852632Y-130185475D01*
X138059475Y-129978632D01*
X138176000Y-129804240D01*
X138292525Y-129978632D01*
%TA.AperFunction,NonConductor*%
D25*
G36*
X138292525Y-129978632D02*
G01*
X138499368Y-130185475D01*
X138673760Y-130302000D01*
X138499368Y-130418525D01*
X138292525Y-130625368D01*
X138176000Y-130799760D01*
X138059475Y-130625368D01*
X137852632Y-130418525D01*
X137678240Y-130302000D01*
X137852632Y-130185475D01*
X138059475Y-129978632D01*
X138176000Y-129804240D01*
X138292525Y-129978632D01*
G37*
%TD.AperFunction*%
D24*
X140611012Y-130642634D02*
X140599475Y-130625368D01*
X140392632Y-130418525D01*
X140218240Y-130302000D01*
X140392632Y-130185475D01*
X140599475Y-129978632D01*
X140611012Y-129961366D01*
X140611012Y-130642634D01*
%TA.AperFunction,NonConductor*%
D25*
G36*
X140611012Y-130642634D02*
G01*
X140599475Y-130625368D01*
X140392632Y-130418525D01*
X140218240Y-130302000D01*
X140392632Y-130185475D01*
X140599475Y-129978632D01*
X140611012Y-129961366D01*
X140611012Y-130642634D01*
G37*
%TD.AperFunction*%
D24*
X138292525Y-127438632D02*
X138499368Y-127645475D01*
X138673760Y-127762000D01*
X138499368Y-127878525D01*
X138292525Y-128085368D01*
X138176000Y-128259760D01*
X138059475Y-128085368D01*
X137852632Y-127878525D01*
X137678240Y-127762000D01*
X137852632Y-127645475D01*
X138059475Y-127438632D01*
X138176000Y-127264240D01*
X138292525Y-127438632D01*
%TA.AperFunction,NonConductor*%
D25*
G36*
X138292525Y-127438632D02*
G01*
X138499368Y-127645475D01*
X138673760Y-127762000D01*
X138499368Y-127878525D01*
X138292525Y-128085368D01*
X138176000Y-128259760D01*
X138059475Y-128085368D01*
X137852632Y-127878525D01*
X137678240Y-127762000D01*
X137852632Y-127645475D01*
X138059475Y-127438632D01*
X138176000Y-127264240D01*
X138292525Y-127438632D01*
G37*
%TD.AperFunction*%
D24*
X140611012Y-128102634D02*
X140599475Y-128085368D01*
X140392632Y-127878525D01*
X140218240Y-127762000D01*
X140392632Y-127645475D01*
X140599475Y-127438632D01*
X140611012Y-127421366D01*
X140611012Y-128102634D01*
%TA.AperFunction,NonConductor*%
D25*
G36*
X140611012Y-128102634D02*
G01*
X140599475Y-128085368D01*
X140392632Y-127878525D01*
X140218240Y-127762000D01*
X140392632Y-127645475D01*
X140599475Y-127438632D01*
X140611012Y-127421366D01*
X140611012Y-128102634D01*
G37*
%TD.AperFunction*%
D24*
X138292525Y-124898632D02*
X138499368Y-125105475D01*
X138673760Y-125222000D01*
X138499368Y-125338525D01*
X138292525Y-125545368D01*
X138176000Y-125719760D01*
X138059475Y-125545368D01*
X137852632Y-125338525D01*
X137678240Y-125222000D01*
X137852632Y-125105475D01*
X138059475Y-124898632D01*
X138176000Y-124724240D01*
X138292525Y-124898632D01*
%TA.AperFunction,NonConductor*%
D25*
G36*
X138292525Y-124898632D02*
G01*
X138499368Y-125105475D01*
X138673760Y-125222000D01*
X138499368Y-125338525D01*
X138292525Y-125545368D01*
X138176000Y-125719760D01*
X138059475Y-125545368D01*
X137852632Y-125338525D01*
X137678240Y-125222000D01*
X137852632Y-125105475D01*
X138059475Y-124898632D01*
X138176000Y-124724240D01*
X138292525Y-124898632D01*
G37*
%TD.AperFunction*%
D24*
X140611012Y-125562634D02*
X140599475Y-125545368D01*
X140392632Y-125338525D01*
X140218240Y-125222000D01*
X140392632Y-125105475D01*
X140599475Y-124898632D01*
X140611012Y-124881366D01*
X140611012Y-125562634D01*
%TA.AperFunction,NonConductor*%
D25*
G36*
X140611012Y-125562634D02*
G01*
X140599475Y-125545368D01*
X140392632Y-125338525D01*
X140218240Y-125222000D01*
X140392632Y-125105475D01*
X140599475Y-124898632D01*
X140611012Y-124881366D01*
X140611012Y-125562634D01*
G37*
%TD.AperFunction*%
D24*
X135752525Y-124898632D02*
X135959368Y-125105475D01*
X136133760Y-125222000D01*
X135959368Y-125338525D01*
X135820893Y-125477000D01*
X133165107Y-125477000D01*
X133026632Y-125338525D01*
X132852240Y-125222000D01*
X133026632Y-125105475D01*
X133233475Y-124898632D01*
X133358178Y-124712000D01*
X135627822Y-124712000D01*
X135752525Y-124898632D01*
%TA.AperFunction,NonConductor*%
D25*
G36*
X135752525Y-124898632D02*
G01*
X135959368Y-125105475D01*
X136133760Y-125222000D01*
X135959368Y-125338525D01*
X135820893Y-125477000D01*
X133165107Y-125477000D01*
X133026632Y-125338525D01*
X132852240Y-125222000D01*
X133026632Y-125105475D01*
X133233475Y-124898632D01*
X133358178Y-124712000D01*
X135627822Y-124712000D01*
X135752525Y-124898632D01*
G37*
%TD.AperFunction*%
D24*
X135752525Y-122358632D02*
X135959368Y-122565475D01*
X136133760Y-122682000D01*
X135959368Y-122798525D01*
X135752525Y-123005368D01*
X135627822Y-123192000D01*
X133358178Y-123192000D01*
X133233475Y-123005368D01*
X133101620Y-122873513D01*
X133174180Y-122851502D01*
X133284494Y-122792537D01*
X133381185Y-122713185D01*
X133460537Y-122616494D01*
X133519502Y-122506180D01*
X133555812Y-122386482D01*
X133568072Y-122262000D01*
X133568072Y-122172000D01*
X135627822Y-122172000D01*
X135752525Y-122358632D01*
%TA.AperFunction,NonConductor*%
D25*
G36*
X135752525Y-122358632D02*
G01*
X135959368Y-122565475D01*
X136133760Y-122682000D01*
X135959368Y-122798525D01*
X135752525Y-123005368D01*
X135627822Y-123192000D01*
X133358178Y-123192000D01*
X133233475Y-123005368D01*
X133101620Y-122873513D01*
X133174180Y-122851502D01*
X133284494Y-122792537D01*
X133381185Y-122713185D01*
X133460537Y-122616494D01*
X133519502Y-122506180D01*
X133555812Y-122386482D01*
X133568072Y-122262000D01*
X133568072Y-122172000D01*
X135627822Y-122172000D01*
X135752525Y-122358632D01*
G37*
%TD.AperFunction*%
D24*
X138292525Y-122358632D02*
X138499368Y-122565475D01*
X138673760Y-122682000D01*
X138499368Y-122798525D01*
X138292525Y-123005368D01*
X138176000Y-123179760D01*
X138059475Y-123005368D01*
X137852632Y-122798525D01*
X137678240Y-122682000D01*
X137852632Y-122565475D01*
X138059475Y-122358632D01*
X138176000Y-122184240D01*
X138292525Y-122358632D01*
%TA.AperFunction,NonConductor*%
D25*
G36*
X138292525Y-122358632D02*
G01*
X138499368Y-122565475D01*
X138673760Y-122682000D01*
X138499368Y-122798525D01*
X138292525Y-123005368D01*
X138176000Y-123179760D01*
X138059475Y-123005368D01*
X137852632Y-122798525D01*
X137678240Y-122682000D01*
X137852632Y-122565475D01*
X138059475Y-122358632D01*
X138176000Y-122184240D01*
X138292525Y-122358632D01*
G37*
%TD.AperFunction*%
D24*
X138292525Y-117278632D02*
X138499368Y-117485475D01*
X138673760Y-117602000D01*
X138499368Y-117718525D01*
X138292525Y-117925368D01*
X138176000Y-118099760D01*
X138059475Y-117925368D01*
X137852632Y-117718525D01*
X137678240Y-117602000D01*
X137852632Y-117485475D01*
X138059475Y-117278632D01*
X138176000Y-117104240D01*
X138292525Y-117278632D01*
%TA.AperFunction,NonConductor*%
D25*
G36*
X138292525Y-117278632D02*
G01*
X138499368Y-117485475D01*
X138673760Y-117602000D01*
X138499368Y-117718525D01*
X138292525Y-117925368D01*
X138176000Y-118099760D01*
X138059475Y-117925368D01*
X137852632Y-117718525D01*
X137678240Y-117602000D01*
X137852632Y-117485475D01*
X138059475Y-117278632D01*
X138176000Y-117104240D01*
X138292525Y-117278632D01*
G37*
%TD.AperFunction*%
D24*
X135917723Y-86582025D02*
X135917721Y-86582026D01*
X135917722Y-86582026D01*
X135830995Y-86653200D01*
X135830991Y-86653204D01*
X135801998Y-86676998D01*
X135778204Y-86705991D01*
X135220001Y-87264196D01*
X135190998Y-87287998D01*
X135135870Y-87355173D01*
X135096025Y-87403723D01*
X135073765Y-87445368D01*
X135025453Y-87535753D01*
X134981996Y-87679014D01*
X134970999Y-87790667D01*
X134970999Y-87790677D01*
X134967323Y-87827999D01*
X134970999Y-87865322D01*
X134971000Y-92259667D01*
X134967323Y-92296999D01*
X134971000Y-92334332D01*
X134981997Y-92445985D01*
X134992576Y-92480861D01*
X135025453Y-92589245D01*
X135096025Y-92721275D01*
X135152340Y-92789894D01*
X135190999Y-92837000D01*
X135219997Y-92860798D01*
X135464791Y-93105592D01*
X135421000Y-93325740D01*
X135421000Y-93618260D01*
X135478068Y-93905158D01*
X135590010Y-94175411D01*
X135752525Y-94418632D01*
X135959368Y-94625475D01*
X136133760Y-94742000D01*
X135959368Y-94858525D01*
X135752525Y-95065368D01*
X135590010Y-95308589D01*
X135478068Y-95578842D01*
X135421000Y-95865740D01*
X135421000Y-96158260D01*
X135478068Y-96445158D01*
X135590010Y-96715411D01*
X135752525Y-96958632D01*
X135959368Y-97165475D01*
X136133760Y-97282000D01*
X135959368Y-97398525D01*
X135752525Y-97605368D01*
X135590010Y-97848589D01*
X135478068Y-98118842D01*
X135421000Y-98405740D01*
X135421000Y-98698260D01*
X135478068Y-98985158D01*
X135590010Y-99255411D01*
X135752525Y-99498632D01*
X135959368Y-99705475D01*
X136133760Y-99822000D01*
X135959368Y-99938525D01*
X135752525Y-100145368D01*
X135590010Y-100388589D01*
X135478068Y-100658842D01*
X135421000Y-100945740D01*
X135421000Y-101238260D01*
X135478068Y-101525158D01*
X135590010Y-101795411D01*
X135752525Y-102038632D01*
X135959368Y-102245475D01*
X136133760Y-102362000D01*
X135959368Y-102478525D01*
X135752525Y-102685368D01*
X135590010Y-102928589D01*
X135478068Y-103198842D01*
X135421000Y-103485740D01*
X135421000Y-103778260D01*
X135478068Y-104065158D01*
X135590010Y-104335411D01*
X135752525Y-104578632D01*
X135959368Y-104785475D01*
X136133760Y-104902000D01*
X135959368Y-105018525D01*
X135752525Y-105225368D01*
X135590010Y-105468589D01*
X135478068Y-105738842D01*
X135421000Y-106025740D01*
X135421000Y-106318260D01*
X135478068Y-106605158D01*
X135590010Y-106875411D01*
X135752525Y-107118632D01*
X135959368Y-107325475D01*
X136133760Y-107442000D01*
X135959368Y-107558525D01*
X135752525Y-107765368D01*
X135590010Y-108008589D01*
X135478068Y-108278842D01*
X135421000Y-108565740D01*
X135421000Y-108858260D01*
X135478068Y-109145158D01*
X135590010Y-109415411D01*
X135752525Y-109658632D01*
X135959368Y-109865475D01*
X136133760Y-109982000D01*
X135959368Y-110098525D01*
X135752525Y-110305368D01*
X135590010Y-110548589D01*
X135478068Y-110818842D01*
X135421000Y-111105740D01*
X135421000Y-111398260D01*
X135478068Y-111685158D01*
X135590010Y-111955411D01*
X135752525Y-112198632D01*
X135959368Y-112405475D01*
X136133760Y-112522000D01*
X135959368Y-112638525D01*
X135752525Y-112845368D01*
X135590010Y-113088589D01*
X135478068Y-113358842D01*
X135421000Y-113645740D01*
X135421000Y-113938260D01*
X135478068Y-114225158D01*
X135590010Y-114495411D01*
X135752525Y-114738632D01*
X135959368Y-114945475D01*
X136133760Y-115062000D01*
X135959368Y-115178525D01*
X135752525Y-115385368D01*
X135590010Y-115628589D01*
X135478068Y-115898842D01*
X135421000Y-116185740D01*
X135421000Y-116312199D01*
X134015001Y-114906200D01*
X134015001Y-99764323D01*
X134018677Y-99727000D01*
X134015001Y-99689677D01*
X134015001Y-99689668D01*
X134004004Y-99578015D01*
X133960547Y-99434754D01*
X133889975Y-99302725D01*
X133795002Y-99187000D01*
X133766004Y-99163202D01*
X133521210Y-98918408D01*
X133565000Y-98698260D01*
X133565000Y-98405740D01*
X133507932Y-98118842D01*
X133395990Y-97848589D01*
X133233475Y-97605368D01*
X133026632Y-97398525D01*
X132852240Y-97282000D01*
X133026632Y-97165475D01*
X133233475Y-96958632D01*
X133395990Y-96715411D01*
X133507932Y-96445158D01*
X133565000Y-96158260D01*
X133565000Y-95865740D01*
X133507932Y-95578842D01*
X133395990Y-95308589D01*
X133233475Y-95065368D01*
X133026632Y-94858525D01*
X132783411Y-94696010D01*
X132513158Y-94584068D01*
X132226260Y-94527000D01*
X131933740Y-94527000D01*
X131646842Y-94584068D01*
X131376589Y-94696010D01*
X131133368Y-94858525D01*
X130926525Y-95065368D01*
X130764010Y-95308589D01*
X130652068Y-95578842D01*
X130595000Y-95865740D01*
X130595000Y-96158260D01*
X130638791Y-96378408D01*
X130393997Y-96623202D01*
X130364999Y-96647000D01*
X130341201Y-96675998D01*
X130341200Y-96675999D01*
X130270025Y-96762725D01*
X130200000Y-96893732D01*
X130200000Y-92931581D01*
X130196726Y-92898339D01*
X130196726Y-92881863D01*
X130195763Y-92872698D01*
X130168134Y-92626382D01*
X130155695Y-92567865D01*
X130144078Y-92509192D01*
X130141353Y-92500389D01*
X130066408Y-92264131D01*
X130042868Y-92209209D01*
X130020048Y-92153842D01*
X130015664Y-92145736D01*
X129993734Y-92105845D01*
X130057424Y-92042155D01*
X130154277Y-91897205D01*
X130220990Y-91736145D01*
X130255000Y-91565165D01*
X130255000Y-91390835D01*
X130220990Y-91219855D01*
X130162232Y-91078000D01*
X130220990Y-90936145D01*
X130255000Y-90765165D01*
X130255000Y-90590835D01*
X130220990Y-90419855D01*
X130162232Y-90278000D01*
X130220990Y-90136145D01*
X130255000Y-89965165D01*
X130255000Y-89790835D01*
X130220990Y-89619855D01*
X130154277Y-89458795D01*
X130057424Y-89313845D01*
X130000345Y-89256766D01*
X130005222Y-89247855D01*
X130008776Y-89239353D01*
X130103254Y-89008869D01*
X130120431Y-88951578D01*
X130138410Y-88894519D01*
X130140245Y-88885488D01*
X130188157Y-88641042D01*
X130193873Y-88581559D01*
X130200434Y-88522036D01*
X130200480Y-88512821D01*
X130200000Y-88264244D01*
X130200000Y-86512000D01*
X136048729Y-86512000D01*
X135917723Y-86582025D01*
%TA.AperFunction,NonConductor*%
D25*
G36*
X135917723Y-86582025D02*
G01*
X135917721Y-86582026D01*
X135917722Y-86582026D01*
X135830995Y-86653200D01*
X135830991Y-86653204D01*
X135801998Y-86676998D01*
X135778204Y-86705991D01*
X135220001Y-87264196D01*
X135190998Y-87287998D01*
X135135870Y-87355173D01*
X135096025Y-87403723D01*
X135073765Y-87445368D01*
X135025453Y-87535753D01*
X134981996Y-87679014D01*
X134970999Y-87790667D01*
X134970999Y-87790677D01*
X134967323Y-87827999D01*
X134970999Y-87865322D01*
X134971000Y-92259667D01*
X134967323Y-92296999D01*
X134971000Y-92334332D01*
X134981997Y-92445985D01*
X134992576Y-92480861D01*
X135025453Y-92589245D01*
X135096025Y-92721275D01*
X135152340Y-92789894D01*
X135190999Y-92837000D01*
X135219997Y-92860798D01*
X135464791Y-93105592D01*
X135421000Y-93325740D01*
X135421000Y-93618260D01*
X135478068Y-93905158D01*
X135590010Y-94175411D01*
X135752525Y-94418632D01*
X135959368Y-94625475D01*
X136133760Y-94742000D01*
X135959368Y-94858525D01*
X135752525Y-95065368D01*
X135590010Y-95308589D01*
X135478068Y-95578842D01*
X135421000Y-95865740D01*
X135421000Y-96158260D01*
X135478068Y-96445158D01*
X135590010Y-96715411D01*
X135752525Y-96958632D01*
X135959368Y-97165475D01*
X136133760Y-97282000D01*
X135959368Y-97398525D01*
X135752525Y-97605368D01*
X135590010Y-97848589D01*
X135478068Y-98118842D01*
X135421000Y-98405740D01*
X135421000Y-98698260D01*
X135478068Y-98985158D01*
X135590010Y-99255411D01*
X135752525Y-99498632D01*
X135959368Y-99705475D01*
X136133760Y-99822000D01*
X135959368Y-99938525D01*
X135752525Y-100145368D01*
X135590010Y-100388589D01*
X135478068Y-100658842D01*
X135421000Y-100945740D01*
X135421000Y-101238260D01*
X135478068Y-101525158D01*
X135590010Y-101795411D01*
X135752525Y-102038632D01*
X135959368Y-102245475D01*
X136133760Y-102362000D01*
X135959368Y-102478525D01*
X135752525Y-102685368D01*
X135590010Y-102928589D01*
X135478068Y-103198842D01*
X135421000Y-103485740D01*
X135421000Y-103778260D01*
X135478068Y-104065158D01*
X135590010Y-104335411D01*
X135752525Y-104578632D01*
X135959368Y-104785475D01*
X136133760Y-104902000D01*
X135959368Y-105018525D01*
X135752525Y-105225368D01*
X135590010Y-105468589D01*
X135478068Y-105738842D01*
X135421000Y-106025740D01*
X135421000Y-106318260D01*
X135478068Y-106605158D01*
X135590010Y-106875411D01*
X135752525Y-107118632D01*
X135959368Y-107325475D01*
X136133760Y-107442000D01*
X135959368Y-107558525D01*
X135752525Y-107765368D01*
X135590010Y-108008589D01*
X135478068Y-108278842D01*
X135421000Y-108565740D01*
X135421000Y-108858260D01*
X135478068Y-109145158D01*
X135590010Y-109415411D01*
X135752525Y-109658632D01*
X135959368Y-109865475D01*
X136133760Y-109982000D01*
X135959368Y-110098525D01*
X135752525Y-110305368D01*
X135590010Y-110548589D01*
X135478068Y-110818842D01*
X135421000Y-111105740D01*
X135421000Y-111398260D01*
X135478068Y-111685158D01*
X135590010Y-111955411D01*
X135752525Y-112198632D01*
X135959368Y-112405475D01*
X136133760Y-112522000D01*
X135959368Y-112638525D01*
X135752525Y-112845368D01*
X135590010Y-113088589D01*
X135478068Y-113358842D01*
X135421000Y-113645740D01*
X135421000Y-113938260D01*
X135478068Y-114225158D01*
X135590010Y-114495411D01*
X135752525Y-114738632D01*
X135959368Y-114945475D01*
X136133760Y-115062000D01*
X135959368Y-115178525D01*
X135752525Y-115385368D01*
X135590010Y-115628589D01*
X135478068Y-115898842D01*
X135421000Y-116185740D01*
X135421000Y-116312199D01*
X134015001Y-114906200D01*
X134015001Y-99764323D01*
X134018677Y-99727000D01*
X134015001Y-99689677D01*
X134015001Y-99689668D01*
X134004004Y-99578015D01*
X133960547Y-99434754D01*
X133889975Y-99302725D01*
X133795002Y-99187000D01*
X133766004Y-99163202D01*
X133521210Y-98918408D01*
X133565000Y-98698260D01*
X133565000Y-98405740D01*
X133507932Y-98118842D01*
X133395990Y-97848589D01*
X133233475Y-97605368D01*
X133026632Y-97398525D01*
X132852240Y-97282000D01*
X133026632Y-97165475D01*
X133233475Y-96958632D01*
X133395990Y-96715411D01*
X133507932Y-96445158D01*
X133565000Y-96158260D01*
X133565000Y-95865740D01*
X133507932Y-95578842D01*
X133395990Y-95308589D01*
X133233475Y-95065368D01*
X133026632Y-94858525D01*
X132783411Y-94696010D01*
X132513158Y-94584068D01*
X132226260Y-94527000D01*
X131933740Y-94527000D01*
X131646842Y-94584068D01*
X131376589Y-94696010D01*
X131133368Y-94858525D01*
X130926525Y-95065368D01*
X130764010Y-95308589D01*
X130652068Y-95578842D01*
X130595000Y-95865740D01*
X130595000Y-96158260D01*
X130638791Y-96378408D01*
X130393997Y-96623202D01*
X130364999Y-96647000D01*
X130341201Y-96675998D01*
X130341200Y-96675999D01*
X130270025Y-96762725D01*
X130200000Y-96893732D01*
X130200000Y-92931581D01*
X130196726Y-92898339D01*
X130196726Y-92881863D01*
X130195763Y-92872698D01*
X130168134Y-92626382D01*
X130155695Y-92567865D01*
X130144078Y-92509192D01*
X130141353Y-92500389D01*
X130066408Y-92264131D01*
X130042868Y-92209209D01*
X130020048Y-92153842D01*
X130015664Y-92145736D01*
X129993734Y-92105845D01*
X130057424Y-92042155D01*
X130154277Y-91897205D01*
X130220990Y-91736145D01*
X130255000Y-91565165D01*
X130255000Y-91390835D01*
X130220990Y-91219855D01*
X130162232Y-91078000D01*
X130220990Y-90936145D01*
X130255000Y-90765165D01*
X130255000Y-90590835D01*
X130220990Y-90419855D01*
X130162232Y-90278000D01*
X130220990Y-90136145D01*
X130255000Y-89965165D01*
X130255000Y-89790835D01*
X130220990Y-89619855D01*
X130154277Y-89458795D01*
X130057424Y-89313845D01*
X130000345Y-89256766D01*
X130005222Y-89247855D01*
X130008776Y-89239353D01*
X130103254Y-89008869D01*
X130120431Y-88951578D01*
X130138410Y-88894519D01*
X130140245Y-88885488D01*
X130188157Y-88641042D01*
X130193873Y-88581559D01*
X130200434Y-88522036D01*
X130200480Y-88512821D01*
X130200000Y-88264244D01*
X130200000Y-86512000D01*
X136048729Y-86512000D01*
X135917723Y-86582025D01*
G37*
%TD.AperFunction*%
D24*
X138292525Y-114738632D02*
X138499368Y-114945475D01*
X138673760Y-115062000D01*
X138499368Y-115178525D01*
X138292525Y-115385368D01*
X138176000Y-115559760D01*
X138059475Y-115385368D01*
X137852632Y-115178525D01*
X137678240Y-115062000D01*
X137852632Y-114945475D01*
X138059475Y-114738632D01*
X138176000Y-114564240D01*
X138292525Y-114738632D01*
%TA.AperFunction,NonConductor*%
D25*
G36*
X138292525Y-114738632D02*
G01*
X138499368Y-114945475D01*
X138673760Y-115062000D01*
X138499368Y-115178525D01*
X138292525Y-115385368D01*
X138176000Y-115559760D01*
X138059475Y-115385368D01*
X137852632Y-115178525D01*
X137678240Y-115062000D01*
X137852632Y-114945475D01*
X138059475Y-114738632D01*
X138176000Y-114564240D01*
X138292525Y-114738632D01*
G37*
%TD.AperFunction*%
D24*
X132495001Y-115125202D02*
X131664999Y-114295200D01*
X131664999Y-105120072D01*
X132495002Y-105120072D01*
X132495001Y-115125202D01*
%TA.AperFunction,NonConductor*%
D25*
G36*
X132495001Y-115125202D02*
G01*
X131664999Y-114295200D01*
X131664999Y-105120072D01*
X132495002Y-105120072D01*
X132495001Y-115125202D01*
G37*
%TD.AperFunction*%
D24*
X130144999Y-113849844D02*
X130144078Y-113845192D01*
X130141353Y-113836389D01*
X130066408Y-113600131D01*
X130042868Y-113545209D01*
X130020048Y-113489842D01*
X130015664Y-113481736D01*
X129993734Y-113441845D01*
X130057424Y-113378155D01*
X130144999Y-113247090D01*
X130144999Y-113849844D01*
%TA.AperFunction,NonConductor*%
D25*
G36*
X130144999Y-113849844D02*
G01*
X130144078Y-113845192D01*
X130141353Y-113836389D01*
X130066408Y-113600131D01*
X130042868Y-113545209D01*
X130020048Y-113489842D01*
X130015664Y-113481736D01*
X129993734Y-113441845D01*
X130057424Y-113378155D01*
X130144999Y-113247090D01*
X130144999Y-113849844D01*
G37*
%TD.AperFunction*%
D24*
X138292525Y-112198632D02*
X138499368Y-112405475D01*
X138673760Y-112522000D01*
X138499368Y-112638525D01*
X138292525Y-112845368D01*
X138176000Y-113019760D01*
X138059475Y-112845368D01*
X137852632Y-112638525D01*
X137678240Y-112522000D01*
X137852632Y-112405475D01*
X138059475Y-112198632D01*
X138176000Y-112024240D01*
X138292525Y-112198632D01*
%TA.AperFunction,NonConductor*%
D25*
G36*
X138292525Y-112198632D02*
G01*
X138499368Y-112405475D01*
X138673760Y-112522000D01*
X138499368Y-112638525D01*
X138292525Y-112845368D01*
X138176000Y-113019760D01*
X138059475Y-112845368D01*
X137852632Y-112638525D01*
X137678240Y-112522000D01*
X137852632Y-112405475D01*
X138059475Y-112198632D01*
X138176000Y-112024240D01*
X138292525Y-112198632D01*
G37*
%TD.AperFunction*%
D24*
X144838463Y-103280263D02*
X144734010Y-103436589D01*
X144622068Y-103706842D01*
X144565000Y-103993740D01*
X144565000Y-104286260D01*
X144622068Y-104573158D01*
X144734010Y-104843411D01*
X144896525Y-105086632D01*
X145103368Y-105293475D01*
X145346589Y-105455990D01*
X145616842Y-105567932D01*
X145903740Y-105625000D01*
X146030198Y-105625000D01*
X140862927Y-110792272D01*
X140761990Y-110548589D01*
X140599475Y-110305368D01*
X140392632Y-110098525D01*
X140218240Y-109982000D01*
X140392632Y-109865475D01*
X140599475Y-109658632D01*
X140761990Y-109415411D01*
X140873932Y-109145158D01*
X140931000Y-108858260D01*
X140931000Y-108565740D01*
X140873932Y-108278842D01*
X140761990Y-108008589D01*
X140599475Y-107765368D01*
X140392632Y-107558525D01*
X140218240Y-107442000D01*
X140392632Y-107325475D01*
X140599475Y-107118632D01*
X140761990Y-106875411D01*
X140873932Y-106605158D01*
X140931000Y-106318260D01*
X140931000Y-106025740D01*
X140873932Y-105738842D01*
X140761990Y-105468589D01*
X140599475Y-105225368D01*
X140392632Y-105018525D01*
X140218240Y-104902000D01*
X140392632Y-104785475D01*
X140599475Y-104578632D01*
X140761990Y-104335411D01*
X140873932Y-104065158D01*
X140931000Y-103778260D01*
X140931000Y-103485740D01*
X140873932Y-103198842D01*
X140761990Y-102928589D01*
X140599475Y-102685368D01*
X140392632Y-102478525D01*
X140218240Y-102362000D01*
X140392632Y-102245475D01*
X140599475Y-102038632D01*
X140761990Y-101795411D01*
X140873932Y-101525158D01*
X140931000Y-101238260D01*
X140931000Y-100945740D01*
X140873932Y-100658842D01*
X140761990Y-100388589D01*
X140599475Y-100145368D01*
X140392632Y-99938525D01*
X140218240Y-99822000D01*
X140392632Y-99705475D01*
X140599475Y-99498632D01*
X140761990Y-99255411D01*
X140777110Y-99218909D01*
X144838463Y-103280263D01*
%TA.AperFunction,NonConductor*%
D25*
G36*
X144838463Y-103280263D02*
G01*
X144734010Y-103436589D01*
X144622068Y-103706842D01*
X144565000Y-103993740D01*
X144565000Y-104286260D01*
X144622068Y-104573158D01*
X144734010Y-104843411D01*
X144896525Y-105086632D01*
X145103368Y-105293475D01*
X145346589Y-105455990D01*
X145616842Y-105567932D01*
X145903740Y-105625000D01*
X146030198Y-105625000D01*
X140862927Y-110792272D01*
X140761990Y-110548589D01*
X140599475Y-110305368D01*
X140392632Y-110098525D01*
X140218240Y-109982000D01*
X140392632Y-109865475D01*
X140599475Y-109658632D01*
X140761990Y-109415411D01*
X140873932Y-109145158D01*
X140931000Y-108858260D01*
X140931000Y-108565740D01*
X140873932Y-108278842D01*
X140761990Y-108008589D01*
X140599475Y-107765368D01*
X140392632Y-107558525D01*
X140218240Y-107442000D01*
X140392632Y-107325475D01*
X140599475Y-107118632D01*
X140761990Y-106875411D01*
X140873932Y-106605158D01*
X140931000Y-106318260D01*
X140931000Y-106025740D01*
X140873932Y-105738842D01*
X140761990Y-105468589D01*
X140599475Y-105225368D01*
X140392632Y-105018525D01*
X140218240Y-104902000D01*
X140392632Y-104785475D01*
X140599475Y-104578632D01*
X140761990Y-104335411D01*
X140873932Y-104065158D01*
X140931000Y-103778260D01*
X140931000Y-103485740D01*
X140873932Y-103198842D01*
X140761990Y-102928589D01*
X140599475Y-102685368D01*
X140392632Y-102478525D01*
X140218240Y-102362000D01*
X140392632Y-102245475D01*
X140599475Y-102038632D01*
X140761990Y-101795411D01*
X140873932Y-101525158D01*
X140931000Y-101238260D01*
X140931000Y-100945740D01*
X140873932Y-100658842D01*
X140761990Y-100388589D01*
X140599475Y-100145368D01*
X140392632Y-99938525D01*
X140218240Y-99822000D01*
X140392632Y-99705475D01*
X140599475Y-99498632D01*
X140761990Y-99255411D01*
X140777110Y-99218909D01*
X144838463Y-103280263D01*
G37*
%TD.AperFunction*%
D24*
X130144999Y-110780910D02*
X130057424Y-110649845D01*
X129993063Y-110585484D01*
X130026919Y-110521809D01*
X130049707Y-110466521D01*
X130073279Y-110411525D01*
X130076003Y-110402722D01*
X130144999Y-110174197D01*
X130144999Y-110780910D01*
%TA.AperFunction,NonConductor*%
D25*
G36*
X130144999Y-110780910D02*
G01*
X130057424Y-110649845D01*
X129993063Y-110585484D01*
X130026919Y-110521809D01*
X130049707Y-110466521D01*
X130073279Y-110411525D01*
X130076003Y-110402722D01*
X130144999Y-110174197D01*
X130144999Y-110780910D01*
G37*
%TD.AperFunction*%
D24*
X138292525Y-109658632D02*
X138499368Y-109865475D01*
X138673760Y-109982000D01*
X138499368Y-110098525D01*
X138292525Y-110305368D01*
X138176000Y-110479760D01*
X138059475Y-110305368D01*
X137852632Y-110098525D01*
X137678240Y-109982000D01*
X137852632Y-109865475D01*
X138059475Y-109658632D01*
X138176000Y-109484240D01*
X138292525Y-109658632D01*
%TA.AperFunction,NonConductor*%
D25*
G36*
X138292525Y-109658632D02*
G01*
X138499368Y-109865475D01*
X138673760Y-109982000D01*
X138499368Y-110098525D01*
X138292525Y-110305368D01*
X138176000Y-110479760D01*
X138059475Y-110305368D01*
X137852632Y-110098525D01*
X137678240Y-109982000D01*
X137852632Y-109865475D01*
X138059475Y-109658632D01*
X138176000Y-109484240D01*
X138292525Y-109658632D01*
G37*
%TD.AperFunction*%
D24*
X138292525Y-107118632D02*
X138499368Y-107325475D01*
X138673760Y-107442000D01*
X138499368Y-107558525D01*
X138292525Y-107765368D01*
X138176000Y-107939760D01*
X138059475Y-107765368D01*
X137852632Y-107558525D01*
X137678240Y-107442000D01*
X137852632Y-107325475D01*
X138059475Y-107118632D01*
X138176000Y-106944240D01*
X138292525Y-107118632D01*
%TA.AperFunction,NonConductor*%
D25*
G36*
X138292525Y-107118632D02*
G01*
X138499368Y-107325475D01*
X138673760Y-107442000D01*
X138499368Y-107558525D01*
X138292525Y-107765368D01*
X138176000Y-107939760D01*
X138059475Y-107765368D01*
X137852632Y-107558525D01*
X137678240Y-107442000D01*
X137852632Y-107325475D01*
X138059475Y-107118632D01*
X138176000Y-106944240D01*
X138292525Y-107118632D01*
G37*
%TD.AperFunction*%
D24*
X157480001Y-106172000D02*
X150176372Y-106172000D01*
X150113999Y-106165857D01*
X150051626Y-106172000D01*
X150051620Y-106172000D01*
X149890755Y-106187844D01*
X149865036Y-106190377D01*
X149792416Y-106212406D01*
X149625641Y-106262997D01*
X149405012Y-106380925D01*
X149211630Y-106539630D01*
X149171863Y-106588086D01*
X148486022Y-107273928D01*
X148044000Y-107273928D01*
X147919518Y-107286188D01*
X147799820Y-107322498D01*
X147689506Y-107381463D01*
X147615741Y-107442000D01*
X146836372Y-107442000D01*
X146773999Y-107435857D01*
X146711626Y-107442000D01*
X146711620Y-107442000D01*
X146550755Y-107457844D01*
X146525036Y-107460377D01*
X146452416Y-107482406D01*
X146285641Y-107532997D01*
X146255918Y-107548884D01*
X148223593Y-105581210D01*
X148443740Y-105625000D01*
X148736260Y-105625000D01*
X149023158Y-105567932D01*
X149293411Y-105455990D01*
X149536632Y-105293475D01*
X149743475Y-105086632D01*
X149860000Y-104912240D01*
X149976525Y-105086632D01*
X150183368Y-105293475D01*
X150426589Y-105455990D01*
X150696842Y-105567932D01*
X150983740Y-105625000D01*
X151276260Y-105625000D01*
X151563158Y-105567932D01*
X151833411Y-105455990D01*
X152076632Y-105293475D01*
X152283475Y-105086632D01*
X152400000Y-104912240D01*
X152516525Y-105086632D01*
X152723368Y-105293475D01*
X152966589Y-105455990D01*
X153236842Y-105567932D01*
X153523740Y-105625000D01*
X153816260Y-105625000D01*
X154103158Y-105567932D01*
X154373411Y-105455990D01*
X154616632Y-105293475D01*
X154823475Y-105086632D01*
X154940000Y-104912240D01*
X155056525Y-105086632D01*
X155263368Y-105293475D01*
X155506589Y-105455990D01*
X155776842Y-105567932D01*
X156063740Y-105625000D01*
X156356260Y-105625000D01*
X156643158Y-105567932D01*
X156913411Y-105455990D01*
X157156632Y-105293475D01*
X157363475Y-105086632D01*
X157480000Y-104912240D01*
X157480001Y-106172000D01*
%TA.AperFunction,NonConductor*%
D25*
G36*
X157480001Y-106172000D02*
G01*
X150176372Y-106172000D01*
X150113999Y-106165857D01*
X150051626Y-106172000D01*
X150051620Y-106172000D01*
X149890755Y-106187844D01*
X149865036Y-106190377D01*
X149792416Y-106212406D01*
X149625641Y-106262997D01*
X149405012Y-106380925D01*
X149211630Y-106539630D01*
X149171863Y-106588086D01*
X148486022Y-107273928D01*
X148044000Y-107273928D01*
X147919518Y-107286188D01*
X147799820Y-107322498D01*
X147689506Y-107381463D01*
X147615741Y-107442000D01*
X146836372Y-107442000D01*
X146773999Y-107435857D01*
X146711626Y-107442000D01*
X146711620Y-107442000D01*
X146550755Y-107457844D01*
X146525036Y-107460377D01*
X146452416Y-107482406D01*
X146285641Y-107532997D01*
X146255918Y-107548884D01*
X148223593Y-105581210D01*
X148443740Y-105625000D01*
X148736260Y-105625000D01*
X149023158Y-105567932D01*
X149293411Y-105455990D01*
X149536632Y-105293475D01*
X149743475Y-105086632D01*
X149860000Y-104912240D01*
X149976525Y-105086632D01*
X150183368Y-105293475D01*
X150426589Y-105455990D01*
X150696842Y-105567932D01*
X150983740Y-105625000D01*
X151276260Y-105625000D01*
X151563158Y-105567932D01*
X151833411Y-105455990D01*
X152076632Y-105293475D01*
X152283475Y-105086632D01*
X152400000Y-104912240D01*
X152516525Y-105086632D01*
X152723368Y-105293475D01*
X152966589Y-105455990D01*
X153236842Y-105567932D01*
X153523740Y-105625000D01*
X153816260Y-105625000D01*
X154103158Y-105567932D01*
X154373411Y-105455990D01*
X154616632Y-105293475D01*
X154823475Y-105086632D01*
X154940000Y-104912240D01*
X155056525Y-105086632D01*
X155263368Y-105293475D01*
X155506589Y-105455990D01*
X155776842Y-105567932D01*
X156063740Y-105625000D01*
X156356260Y-105625000D01*
X156643158Y-105567932D01*
X156913411Y-105455990D01*
X157156632Y-105293475D01*
X157363475Y-105086632D01*
X157480000Y-104912240D01*
X157480001Y-106172000D01*
G37*
%TD.AperFunction*%
D24*
X138292525Y-104578632D02*
X138499368Y-104785475D01*
X138673760Y-104902000D01*
X138499368Y-105018525D01*
X138292525Y-105225368D01*
X138176000Y-105399760D01*
X138059475Y-105225368D01*
X137852632Y-105018525D01*
X137678240Y-104902000D01*
X137852632Y-104785475D01*
X138059475Y-104578632D01*
X138176000Y-104404240D01*
X138292525Y-104578632D01*
%TA.AperFunction,NonConductor*%
D25*
G36*
X138292525Y-104578632D02*
G01*
X138499368Y-104785475D01*
X138673760Y-104902000D01*
X138499368Y-105018525D01*
X138292525Y-105225368D01*
X138176000Y-105399760D01*
X138059475Y-105225368D01*
X137852632Y-105018525D01*
X137678240Y-104902000D01*
X137852632Y-104785475D01*
X138059475Y-104578632D01*
X138176000Y-104404240D01*
X138292525Y-104578632D01*
G37*
%TD.AperFunction*%
D24*
X138292525Y-102038632D02*
X138499368Y-102245475D01*
X138673760Y-102362000D01*
X138499368Y-102478525D01*
X138292525Y-102685368D01*
X138176000Y-102859760D01*
X138059475Y-102685368D01*
X137852632Y-102478525D01*
X137678240Y-102362000D01*
X137852632Y-102245475D01*
X138059475Y-102038632D01*
X138176000Y-101864240D01*
X138292525Y-102038632D01*
%TA.AperFunction,NonConductor*%
D25*
G36*
X138292525Y-102038632D02*
G01*
X138499368Y-102245475D01*
X138673760Y-102362000D01*
X138499368Y-102478525D01*
X138292525Y-102685368D01*
X138176000Y-102859760D01*
X138059475Y-102685368D01*
X137852632Y-102478525D01*
X137678240Y-102362000D01*
X137852632Y-102245475D01*
X138059475Y-102038632D01*
X138176000Y-101864240D01*
X138292525Y-102038632D01*
G37*
%TD.AperFunction*%
D24*
X138292525Y-99498632D02*
X138499368Y-99705475D01*
X138673760Y-99822000D01*
X138499368Y-99938525D01*
X138292525Y-100145368D01*
X138176000Y-100319760D01*
X138059475Y-100145368D01*
X137852632Y-99938525D01*
X137678240Y-99822000D01*
X137852632Y-99705475D01*
X138059475Y-99498632D01*
X138176000Y-99324240D01*
X138292525Y-99498632D01*
%TA.AperFunction,NonConductor*%
D25*
G36*
X138292525Y-99498632D02*
G01*
X138499368Y-99705475D01*
X138673760Y-99822000D01*
X138499368Y-99938525D01*
X138292525Y-100145368D01*
X138176000Y-100319760D01*
X138059475Y-100145368D01*
X137852632Y-99938525D01*
X137678240Y-99822000D01*
X137852632Y-99705475D01*
X138059475Y-99498632D01*
X138176000Y-99324240D01*
X138292525Y-99498632D01*
G37*
%TD.AperFunction*%
D24*
X138292525Y-96958632D02*
X138499368Y-97165475D01*
X138673760Y-97282000D01*
X138499368Y-97398525D01*
X138292525Y-97605368D01*
X138176000Y-97779760D01*
X138059475Y-97605368D01*
X137852632Y-97398525D01*
X137678240Y-97282000D01*
X137852632Y-97165475D01*
X138059475Y-96958632D01*
X138176000Y-96784240D01*
X138292525Y-96958632D01*
%TA.AperFunction,NonConductor*%
D25*
G36*
X138292525Y-96958632D02*
G01*
X138499368Y-97165475D01*
X138673760Y-97282000D01*
X138499368Y-97398525D01*
X138292525Y-97605368D01*
X138176000Y-97779760D01*
X138059475Y-97605368D01*
X137852632Y-97398525D01*
X137678240Y-97282000D01*
X137852632Y-97165475D01*
X138059475Y-96958632D01*
X138176000Y-96784240D01*
X138292525Y-96958632D01*
G37*
%TD.AperFunction*%
D24*
X138292525Y-94418632D02*
X138499368Y-94625475D01*
X138673760Y-94742000D01*
X138499368Y-94858525D01*
X138292525Y-95065368D01*
X138176000Y-95239760D01*
X138059475Y-95065368D01*
X137852632Y-94858525D01*
X137678240Y-94742000D01*
X137852632Y-94625475D01*
X138059475Y-94418632D01*
X138176000Y-94244240D01*
X138292525Y-94418632D01*
%TA.AperFunction,NonConductor*%
D25*
G36*
X138292525Y-94418632D02*
G01*
X138499368Y-94625475D01*
X138673760Y-94742000D01*
X138499368Y-94858525D01*
X138292525Y-95065368D01*
X138176000Y-95239760D01*
X138059475Y-95065368D01*
X137852632Y-94858525D01*
X137678240Y-94742000D01*
X137852632Y-94625475D01*
X138059475Y-94418632D01*
X138176000Y-94244240D01*
X138292525Y-94418632D01*
G37*
%TD.AperFunction*%
D24*
X138292525Y-91878632D02*
X138499368Y-92085475D01*
X138673760Y-92202000D01*
X138499368Y-92318525D01*
X138292525Y-92525368D01*
X138176000Y-92699760D01*
X138059475Y-92525368D01*
X137852632Y-92318525D01*
X137678240Y-92202000D01*
X137852632Y-92085475D01*
X138059475Y-91878632D01*
X138176000Y-91704240D01*
X138292525Y-91878632D01*
%TA.AperFunction,NonConductor*%
D25*
G36*
X138292525Y-91878632D02*
G01*
X138499368Y-92085475D01*
X138673760Y-92202000D01*
X138499368Y-92318525D01*
X138292525Y-92525368D01*
X138176000Y-92699760D01*
X138059475Y-92525368D01*
X137852632Y-92318525D01*
X137678240Y-92202000D01*
X137852632Y-92085475D01*
X138059475Y-91878632D01*
X138176000Y-91704240D01*
X138292525Y-91878632D01*
G37*
%TD.AperFunction*%
D24*
X138292525Y-89338632D02*
X138499368Y-89545475D01*
X138673760Y-89662000D01*
X138499368Y-89778525D01*
X138292525Y-89985368D01*
X138176000Y-90159760D01*
X138059475Y-89985368D01*
X137852632Y-89778525D01*
X137678240Y-89662000D01*
X137852632Y-89545475D01*
X138059475Y-89338632D01*
X138176000Y-89164240D01*
X138292525Y-89338632D01*
%TA.AperFunction,NonConductor*%
D25*
G36*
X138292525Y-89338632D02*
G01*
X138499368Y-89545475D01*
X138673760Y-89662000D01*
X138499368Y-89778525D01*
X138292525Y-89985368D01*
X138176000Y-90159760D01*
X138059475Y-89985368D01*
X137852632Y-89778525D01*
X137678240Y-89662000D01*
X137852632Y-89545475D01*
X138059475Y-89338632D01*
X138176000Y-89164240D01*
X138292525Y-89338632D01*
G37*
%TD.AperFunction*%
D24*
X126340000Y-139294000D02*
X112420000Y-139294000D01*
X112420000Y-126684688D01*
X112580589Y-126791990D01*
X112850842Y-126903932D01*
X113137740Y-126961000D01*
X113430260Y-126961000D01*
X113717158Y-126903932D01*
X113987411Y-126791990D01*
X114230632Y-126629475D01*
X114369107Y-126491000D01*
X117382542Y-126491000D01*
X117432402Y-126495911D01*
X117482262Y-126491000D01*
X117482265Y-126491000D01*
X117631377Y-126476314D01*
X117822705Y-126418275D01*
X117999034Y-126324025D01*
X118153588Y-126197186D01*
X118185381Y-126158446D01*
X125057067Y-119286762D01*
X125329740Y-119341000D01*
X125622260Y-119341000D01*
X125909158Y-119283932D01*
X126179411Y-119171990D01*
X126340001Y-119064687D01*
X126340000Y-139294000D01*
%TA.AperFunction,NonConductor*%
D25*
G36*
X126340000Y-139294000D02*
G01*
X112420000Y-139294000D01*
X112420000Y-126684688D01*
X112580589Y-126791990D01*
X112850842Y-126903932D01*
X113137740Y-126961000D01*
X113430260Y-126961000D01*
X113717158Y-126903932D01*
X113987411Y-126791990D01*
X114230632Y-126629475D01*
X114369107Y-126491000D01*
X117382542Y-126491000D01*
X117432402Y-126495911D01*
X117482262Y-126491000D01*
X117482265Y-126491000D01*
X117631377Y-126476314D01*
X117822705Y-126418275D01*
X117999034Y-126324025D01*
X118153588Y-126197186D01*
X118185381Y-126158446D01*
X125057067Y-119286762D01*
X125329740Y-119341000D01*
X125622260Y-119341000D01*
X125909158Y-119283932D01*
X126179411Y-119171990D01*
X126340001Y-119064687D01*
X126340000Y-139294000D01*
G37*
%TD.AperFunction*%
D24*
X117011977Y-124461000D02*
X114369107Y-124461000D01*
X114230632Y-124322525D01*
X114056240Y-124206000D01*
X114230632Y-124089475D01*
X114369107Y-123951000D01*
X117521977Y-123951000D01*
X117011977Y-124461000D01*
%TA.AperFunction,NonConductor*%
D25*
G36*
X117011977Y-124461000D02*
G01*
X114369107Y-124461000D01*
X114230632Y-124322525D01*
X114056240Y-124206000D01*
X114230632Y-124089475D01*
X114369107Y-123951000D01*
X117521977Y-123951000D01*
X117011977Y-124461000D01*
G37*
%TD.AperFunction*%
D24*
X112511760Y-124206000D02*
X112420000Y-124267312D01*
X112420000Y-124144688D01*
X112511760Y-124206000D01*
%TA.AperFunction,NonConductor*%
D25*
G36*
X112511760Y-124206000D02*
G01*
X112420000Y-124267312D01*
X112420000Y-124144688D01*
X112511760Y-124206000D01*
G37*
%TD.AperFunction*%
D24*
X117435575Y-121921000D02*
X114369107Y-121921000D01*
X114230632Y-121782525D01*
X114056240Y-121666000D01*
X114230632Y-121549475D01*
X114369107Y-121411000D01*
X117806140Y-121411000D01*
X117856000Y-121415911D01*
X117905860Y-121411000D01*
X117905863Y-121411000D01*
X117949913Y-121406661D01*
X117435575Y-121921000D01*
%TA.AperFunction,NonConductor*%
D25*
G36*
X117435575Y-121921000D02*
G01*
X114369107Y-121921000D01*
X114230632Y-121782525D01*
X114056240Y-121666000D01*
X114230632Y-121549475D01*
X114369107Y-121411000D01*
X117806140Y-121411000D01*
X117856000Y-121415911D01*
X117905860Y-121411000D01*
X117905863Y-121411000D01*
X117949913Y-121406661D01*
X117435575Y-121921000D01*
G37*
%TD.AperFunction*%
D24*
X112511760Y-121666000D02*
X112420000Y-121727312D01*
X112420000Y-121604688D01*
X112511760Y-121666000D01*
%TA.AperFunction,NonConductor*%
D25*
G36*
X112511760Y-121666000D02*
G01*
X112420000Y-121727312D01*
X112420000Y-121604688D01*
X112511760Y-121666000D01*
G37*
%TD.AperFunction*%
D24*
X116416498Y-118950180D02*
X116475463Y-119060494D01*
X116554815Y-119157185D01*
X116651506Y-119236537D01*
X116761820Y-119295502D01*
X116881518Y-119331812D01*
X117006000Y-119344072D01*
X117472503Y-119344072D01*
X117435575Y-119381000D01*
X114369107Y-119381000D01*
X114230632Y-119242525D01*
X114056240Y-119126000D01*
X114230632Y-119009475D01*
X114369107Y-118871000D01*
X116392479Y-118871000D01*
X116416498Y-118950180D01*
%TA.AperFunction,NonConductor*%
D25*
G36*
X116416498Y-118950180D02*
G01*
X116475463Y-119060494D01*
X116554815Y-119157185D01*
X116651506Y-119236537D01*
X116761820Y-119295502D01*
X116881518Y-119331812D01*
X117006000Y-119344072D01*
X117472503Y-119344072D01*
X117435575Y-119381000D01*
X114369107Y-119381000D01*
X114230632Y-119242525D01*
X114056240Y-119126000D01*
X114230632Y-119009475D01*
X114369107Y-118871000D01*
X116392479Y-118871000D01*
X116416498Y-118950180D01*
G37*
%TD.AperFunction*%
D24*
X112511760Y-119126000D02*
X112420000Y-119187312D01*
X112420000Y-119064688D01*
X112511760Y-119126000D01*
%TA.AperFunction,NonConductor*%
D25*
G36*
X112511760Y-119126000D02*
G01*
X112420000Y-119187312D01*
X112420000Y-119064688D01*
X112511760Y-119126000D01*
G37*
%TD.AperFunction*%
D24*
X126340001Y-88267474D02*
X126337939Y-88288929D01*
X126338021Y-88298144D01*
X126341980Y-88547209D01*
X126348766Y-88606670D01*
X126354715Y-88666163D01*
X126356585Y-88675187D01*
X126408846Y-88918740D01*
X126427037Y-88975704D01*
X126444444Y-89032959D01*
X126448032Y-89041447D01*
X126540462Y-89255959D01*
X126482576Y-89313845D01*
X126385723Y-89458795D01*
X126319010Y-89619855D01*
X126285000Y-89790835D01*
X126285000Y-89965165D01*
X126319010Y-90136145D01*
X126377768Y-90278000D01*
X126319010Y-90419855D01*
X126285000Y-90590835D01*
X126285000Y-90765165D01*
X126319010Y-90936145D01*
X126377768Y-91078000D01*
X126319010Y-91219855D01*
X126285000Y-91390835D01*
X126285000Y-91565165D01*
X126319010Y-91736145D01*
X126385723Y-91897205D01*
X126482576Y-92042155D01*
X126546937Y-92106516D01*
X126513081Y-92170191D01*
X126490298Y-92225468D01*
X126466721Y-92280475D01*
X126463997Y-92289278D01*
X126392357Y-92526559D01*
X126380736Y-92585246D01*
X126368300Y-92643752D01*
X126367337Y-92652917D01*
X126343150Y-92899595D01*
X126343150Y-92899608D01*
X126340001Y-92931581D01*
X126340000Y-109760418D01*
X126343274Y-109793660D01*
X126343274Y-109810137D01*
X126344237Y-109819302D01*
X126371866Y-110065618D01*
X126384297Y-110124098D01*
X126395921Y-110182808D01*
X126398647Y-110191611D01*
X126473592Y-110427869D01*
X126497146Y-110482824D01*
X126519953Y-110538158D01*
X126524336Y-110546264D01*
X126546266Y-110586155D01*
X126482576Y-110649845D01*
X126385723Y-110794795D01*
X126319010Y-110955855D01*
X126285000Y-111126835D01*
X126285000Y-111301165D01*
X126319010Y-111472145D01*
X126377768Y-111614000D01*
X126319010Y-111755855D01*
X126285000Y-111926835D01*
X126285000Y-112101165D01*
X126319010Y-112272145D01*
X126377768Y-112414000D01*
X126319010Y-112555855D01*
X126285000Y-112726835D01*
X126285000Y-112901165D01*
X126319010Y-113072145D01*
X126385723Y-113233205D01*
X126482576Y-113378155D01*
X126546937Y-113442516D01*
X126513081Y-113506191D01*
X126490298Y-113561468D01*
X126466721Y-113616475D01*
X126463997Y-113625278D01*
X126392357Y-113862559D01*
X126380736Y-113921246D01*
X126368300Y-113979752D01*
X126367337Y-113988917D01*
X126343150Y-114235595D01*
X126343150Y-114235608D01*
X126340001Y-114267581D01*
X126340001Y-116647313D01*
X126179411Y-116540010D01*
X125909158Y-116428068D01*
X125622260Y-116371000D01*
X125329740Y-116371000D01*
X125042842Y-116428068D01*
X124772589Y-116540010D01*
X124529368Y-116702525D01*
X124322525Y-116909368D01*
X124206000Y-117083760D01*
X124089475Y-116909368D01*
X123882632Y-116702525D01*
X123639411Y-116540010D01*
X123369158Y-116428068D01*
X123082260Y-116371000D01*
X122789740Y-116371000D01*
X122502842Y-116428068D01*
X122232589Y-116540010D01*
X121989368Y-116702525D01*
X121782525Y-116909368D01*
X121666000Y-117083760D01*
X121549475Y-116909368D01*
X121342632Y-116702525D01*
X121099411Y-116540010D01*
X120829158Y-116428068D01*
X120737575Y-116409851D01*
X125650451Y-111496975D01*
X125689186Y-111465186D01*
X125774323Y-111361446D01*
X125816025Y-111310633D01*
X125910275Y-111134304D01*
X125927155Y-111078656D01*
X125968314Y-110942975D01*
X125983000Y-110793863D01*
X125983000Y-110793861D01*
X125987911Y-110744000D01*
X125983000Y-110694139D01*
X125983000Y-85457361D01*
X125987911Y-85407500D01*
X125983000Y-85357637D01*
X125968314Y-85208525D01*
X125910275Y-85017197D01*
X125816025Y-84840867D01*
X125720972Y-84725045D01*
X125720970Y-84725043D01*
X125689186Y-84686314D01*
X125650457Y-84654530D01*
X123662972Y-82667047D01*
X123662972Y-82321400D01*
X123658900Y-82280055D01*
X123658900Y-74691945D01*
X123662972Y-74650600D01*
X123662972Y-73126600D01*
X123658900Y-73085255D01*
X123658900Y-66106745D01*
X123662972Y-66065400D01*
X123662972Y-64541400D01*
X123658900Y-64500055D01*
X123658900Y-56911945D01*
X123662972Y-56870600D01*
X123662972Y-55346600D01*
X123650712Y-55222118D01*
X123614402Y-55102420D01*
X123555437Y-54992106D01*
X123476085Y-54895415D01*
X123379394Y-54816063D01*
X123269080Y-54757098D01*
X123149382Y-54720788D01*
X123024900Y-54708528D01*
X122262900Y-54708528D01*
X122138418Y-54720788D01*
X122018720Y-54757098D01*
X121908406Y-54816063D01*
X121811715Y-54895415D01*
X121732363Y-54992106D01*
X121673398Y-55102420D01*
X121637088Y-55222118D01*
X121624828Y-55346600D01*
X121624828Y-56870600D01*
X121628901Y-56911954D01*
X121628900Y-64500054D01*
X121624828Y-64541400D01*
X121624828Y-66065400D01*
X121628901Y-66106754D01*
X121628900Y-73085254D01*
X121624828Y-73126600D01*
X121624828Y-74650600D01*
X121628901Y-74691954D01*
X121628900Y-82280054D01*
X121624828Y-82321400D01*
X121624828Y-83074882D01*
X121623989Y-83083400D01*
X121624828Y-83091918D01*
X121624828Y-83845400D01*
X121637088Y-83969882D01*
X121673398Y-84089580D01*
X121732363Y-84199894D01*
X121811715Y-84296585D01*
X121908406Y-84375937D01*
X122018720Y-84434902D01*
X122138418Y-84471212D01*
X122262900Y-84483472D01*
X122608546Y-84483472D01*
X123953001Y-85827928D01*
X123953000Y-110323574D01*
X117908647Y-116367928D01*
X117006000Y-116367928D01*
X116881518Y-116380188D01*
X116761820Y-116416498D01*
X116651506Y-116475463D01*
X116554815Y-116554815D01*
X116475463Y-116651506D01*
X116416498Y-116761820D01*
X116392479Y-116841000D01*
X114369107Y-116841000D01*
X114230632Y-116702525D01*
X114056240Y-116586000D01*
X114230632Y-116469475D01*
X114437475Y-116262632D01*
X114599990Y-116019411D01*
X114711932Y-115749158D01*
X114769000Y-115462260D01*
X114769000Y-115266426D01*
X115396452Y-114638974D01*
X115435187Y-114607185D01*
X115545782Y-114472425D01*
X115562026Y-114452632D01*
X115656276Y-114276303D01*
X115674678Y-114215639D01*
X115714315Y-114084974D01*
X115729001Y-113935862D01*
X115729001Y-113935860D01*
X115733912Y-113885999D01*
X115729001Y-113836138D01*
X115729001Y-94521872D01*
X118161000Y-94521872D01*
X118161000Y-94962128D01*
X118246890Y-95393925D01*
X118415369Y-95800669D01*
X118659962Y-96166729D01*
X118971271Y-96478038D01*
X119337331Y-96722631D01*
X119744075Y-96891110D01*
X120175872Y-96977000D01*
X120616128Y-96977000D01*
X121047925Y-96891110D01*
X121454669Y-96722631D01*
X121820729Y-96478038D01*
X122132038Y-96166729D01*
X122376631Y-95800669D01*
X122545110Y-95393925D01*
X122631000Y-94962128D01*
X122631000Y-94521872D01*
X122545110Y-94090075D01*
X122376631Y-93683331D01*
X122132038Y-93317271D01*
X121820729Y-93005962D01*
X121454669Y-92761369D01*
X121047925Y-92592890D01*
X120616128Y-92507000D01*
X120175872Y-92507000D01*
X119744075Y-92592890D01*
X119337331Y-92761369D01*
X118971271Y-93005962D01*
X118659962Y-93317271D01*
X118415369Y-93683331D01*
X118246890Y-94090075D01*
X118161000Y-94521872D01*
X115729001Y-94521872D01*
X115729001Y-86937924D01*
X118183455Y-84483472D01*
X118529100Y-84483472D01*
X118653582Y-84471212D01*
X118773280Y-84434902D01*
X118883594Y-84375937D01*
X118980285Y-84296585D01*
X119059637Y-84199894D01*
X119118602Y-84089580D01*
X119154912Y-83969882D01*
X119167172Y-83845400D01*
X119167172Y-83091909D01*
X119168010Y-83083401D01*
X119167172Y-83074893D01*
X119167172Y-82321400D01*
X119163100Y-82280055D01*
X119163100Y-74691945D01*
X119167172Y-74650600D01*
X119167172Y-73126600D01*
X119154912Y-73002118D01*
X119118602Y-72882420D01*
X119059637Y-72772106D01*
X118980285Y-72675415D01*
X118883594Y-72596063D01*
X118773280Y-72537098D01*
X118653582Y-72500788D01*
X118529100Y-72488528D01*
X117767100Y-72488528D01*
X117642618Y-72500788D01*
X117522920Y-72537098D01*
X117412606Y-72596063D01*
X117315915Y-72675415D01*
X117236563Y-72772106D01*
X117177598Y-72882420D01*
X117141288Y-73002118D01*
X117129028Y-73126600D01*
X117129028Y-74650600D01*
X117133101Y-74691954D01*
X117133100Y-82280054D01*
X117129028Y-82321400D01*
X117129028Y-82667045D01*
X114299000Y-85497075D01*
X114299000Y-70587925D01*
X118183455Y-66703472D01*
X118529100Y-66703472D01*
X118653582Y-66691212D01*
X118773280Y-66654902D01*
X118883594Y-66595937D01*
X118980285Y-66516585D01*
X119059637Y-66419894D01*
X119118602Y-66309580D01*
X119154912Y-66189882D01*
X119167172Y-66065400D01*
X119167172Y-65311909D01*
X119168010Y-65303401D01*
X119167172Y-65294893D01*
X119167172Y-64541400D01*
X119163100Y-64500055D01*
X119163100Y-56911945D01*
X119167172Y-56870600D01*
X119167172Y-55346600D01*
X119154912Y-55222118D01*
X119118602Y-55102420D01*
X119059637Y-54992106D01*
X118980285Y-54895415D01*
X118883594Y-54816063D01*
X118773280Y-54757098D01*
X118653582Y-54720788D01*
X118529100Y-54708528D01*
X117767100Y-54708528D01*
X117642618Y-54720788D01*
X117522920Y-54757098D01*
X117412606Y-54816063D01*
X117315915Y-54895415D01*
X117236563Y-54992106D01*
X117177598Y-55102420D01*
X117141288Y-55222118D01*
X117129028Y-55346600D01*
X117129028Y-56870600D01*
X117133101Y-56911954D01*
X117133100Y-64500054D01*
X117129028Y-64541400D01*
X117129028Y-64887045D01*
X112601550Y-69414525D01*
X112562815Y-69446314D01*
X112531029Y-69485046D01*
X112435975Y-69600868D01*
X112420000Y-69630755D01*
X112420000Y-50698000D01*
X126340000Y-50698000D01*
X126340001Y-88267474D01*
%TA.AperFunction,NonConductor*%
D25*
G36*
X126340001Y-88267474D02*
G01*
X126337939Y-88288929D01*
X126338021Y-88298144D01*
X126341980Y-88547209D01*
X126348766Y-88606670D01*
X126354715Y-88666163D01*
X126356585Y-88675187D01*
X126408846Y-88918740D01*
X126427037Y-88975704D01*
X126444444Y-89032959D01*
X126448032Y-89041447D01*
X126540462Y-89255959D01*
X126482576Y-89313845D01*
X126385723Y-89458795D01*
X126319010Y-89619855D01*
X126285000Y-89790835D01*
X126285000Y-89965165D01*
X126319010Y-90136145D01*
X126377768Y-90278000D01*
X126319010Y-90419855D01*
X126285000Y-90590835D01*
X126285000Y-90765165D01*
X126319010Y-90936145D01*
X126377768Y-91078000D01*
X126319010Y-91219855D01*
X126285000Y-91390835D01*
X126285000Y-91565165D01*
X126319010Y-91736145D01*
X126385723Y-91897205D01*
X126482576Y-92042155D01*
X126546937Y-92106516D01*
X126513081Y-92170191D01*
X126490298Y-92225468D01*
X126466721Y-92280475D01*
X126463997Y-92289278D01*
X126392357Y-92526559D01*
X126380736Y-92585246D01*
X126368300Y-92643752D01*
X126367337Y-92652917D01*
X126343150Y-92899595D01*
X126343150Y-92899608D01*
X126340001Y-92931581D01*
X126340000Y-109760418D01*
X126343274Y-109793660D01*
X126343274Y-109810137D01*
X126344237Y-109819302D01*
X126371866Y-110065618D01*
X126384297Y-110124098D01*
X126395921Y-110182808D01*
X126398647Y-110191611D01*
X126473592Y-110427869D01*
X126497146Y-110482824D01*
X126519953Y-110538158D01*
X126524336Y-110546264D01*
X126546266Y-110586155D01*
X126482576Y-110649845D01*
X126385723Y-110794795D01*
X126319010Y-110955855D01*
X126285000Y-111126835D01*
X126285000Y-111301165D01*
X126319010Y-111472145D01*
X126377768Y-111614000D01*
X126319010Y-111755855D01*
X126285000Y-111926835D01*
X126285000Y-112101165D01*
X126319010Y-112272145D01*
X126377768Y-112414000D01*
X126319010Y-112555855D01*
X126285000Y-112726835D01*
X126285000Y-112901165D01*
X126319010Y-113072145D01*
X126385723Y-113233205D01*
X126482576Y-113378155D01*
X126546937Y-113442516D01*
X126513081Y-113506191D01*
X126490298Y-113561468D01*
X126466721Y-113616475D01*
X126463997Y-113625278D01*
X126392357Y-113862559D01*
X126380736Y-113921246D01*
X126368300Y-113979752D01*
X126367337Y-113988917D01*
X126343150Y-114235595D01*
X126343150Y-114235608D01*
X126340001Y-114267581D01*
X126340001Y-116647313D01*
X126179411Y-116540010D01*
X125909158Y-116428068D01*
X125622260Y-116371000D01*
X125329740Y-116371000D01*
X125042842Y-116428068D01*
X124772589Y-116540010D01*
X124529368Y-116702525D01*
X124322525Y-116909368D01*
X124206000Y-117083760D01*
X124089475Y-116909368D01*
X123882632Y-116702525D01*
X123639411Y-116540010D01*
X123369158Y-116428068D01*
X123082260Y-116371000D01*
X122789740Y-116371000D01*
X122502842Y-116428068D01*
X122232589Y-116540010D01*
X121989368Y-116702525D01*
X121782525Y-116909368D01*
X121666000Y-117083760D01*
X121549475Y-116909368D01*
X121342632Y-116702525D01*
X121099411Y-116540010D01*
X120829158Y-116428068D01*
X120737575Y-116409851D01*
X125650451Y-111496975D01*
X125689186Y-111465186D01*
X125774323Y-111361446D01*
X125816025Y-111310633D01*
X125910275Y-111134304D01*
X125927155Y-111078656D01*
X125968314Y-110942975D01*
X125983000Y-110793863D01*
X125983000Y-110793861D01*
X125987911Y-110744000D01*
X125983000Y-110694139D01*
X125983000Y-85457361D01*
X125987911Y-85407500D01*
X125983000Y-85357637D01*
X125968314Y-85208525D01*
X125910275Y-85017197D01*
X125816025Y-84840867D01*
X125720972Y-84725045D01*
X125720970Y-84725043D01*
X125689186Y-84686314D01*
X125650457Y-84654530D01*
X123662972Y-82667047D01*
X123662972Y-82321400D01*
X123658900Y-82280055D01*
X123658900Y-74691945D01*
X123662972Y-74650600D01*
X123662972Y-73126600D01*
X123658900Y-73085255D01*
X123658900Y-66106745D01*
X123662972Y-66065400D01*
X123662972Y-64541400D01*
X123658900Y-64500055D01*
X123658900Y-56911945D01*
X123662972Y-56870600D01*
X123662972Y-55346600D01*
X123650712Y-55222118D01*
X123614402Y-55102420D01*
X123555437Y-54992106D01*
X123476085Y-54895415D01*
X123379394Y-54816063D01*
X123269080Y-54757098D01*
X123149382Y-54720788D01*
X123024900Y-54708528D01*
X122262900Y-54708528D01*
X122138418Y-54720788D01*
X122018720Y-54757098D01*
X121908406Y-54816063D01*
X121811715Y-54895415D01*
X121732363Y-54992106D01*
X121673398Y-55102420D01*
X121637088Y-55222118D01*
X121624828Y-55346600D01*
X121624828Y-56870600D01*
X121628901Y-56911954D01*
X121628900Y-64500054D01*
X121624828Y-64541400D01*
X121624828Y-66065400D01*
X121628901Y-66106754D01*
X121628900Y-73085254D01*
X121624828Y-73126600D01*
X121624828Y-74650600D01*
X121628901Y-74691954D01*
X121628900Y-82280054D01*
X121624828Y-82321400D01*
X121624828Y-83074882D01*
X121623989Y-83083400D01*
X121624828Y-83091918D01*
X121624828Y-83845400D01*
X121637088Y-83969882D01*
X121673398Y-84089580D01*
X121732363Y-84199894D01*
X121811715Y-84296585D01*
X121908406Y-84375937D01*
X122018720Y-84434902D01*
X122138418Y-84471212D01*
X122262900Y-84483472D01*
X122608546Y-84483472D01*
X123953001Y-85827928D01*
X123953000Y-110323574D01*
X117908647Y-116367928D01*
X117006000Y-116367928D01*
X116881518Y-116380188D01*
X116761820Y-116416498D01*
X116651506Y-116475463D01*
X116554815Y-116554815D01*
X116475463Y-116651506D01*
X116416498Y-116761820D01*
X116392479Y-116841000D01*
X114369107Y-116841000D01*
X114230632Y-116702525D01*
X114056240Y-116586000D01*
X114230632Y-116469475D01*
X114437475Y-116262632D01*
X114599990Y-116019411D01*
X114711932Y-115749158D01*
X114769000Y-115462260D01*
X114769000Y-115266426D01*
X115396452Y-114638974D01*
X115435187Y-114607185D01*
X115545782Y-114472425D01*
X115562026Y-114452632D01*
X115656276Y-114276303D01*
X115674678Y-114215639D01*
X115714315Y-114084974D01*
X115729001Y-113935862D01*
X115729001Y-113935860D01*
X115733912Y-113885999D01*
X115729001Y-113836138D01*
X115729001Y-94521872D01*
X118161000Y-94521872D01*
X118161000Y-94962128D01*
X118246890Y-95393925D01*
X118415369Y-95800669D01*
X118659962Y-96166729D01*
X118971271Y-96478038D01*
X119337331Y-96722631D01*
X119744075Y-96891110D01*
X120175872Y-96977000D01*
X120616128Y-96977000D01*
X121047925Y-96891110D01*
X121454669Y-96722631D01*
X121820729Y-96478038D01*
X122132038Y-96166729D01*
X122376631Y-95800669D01*
X122545110Y-95393925D01*
X122631000Y-94962128D01*
X122631000Y-94521872D01*
X122545110Y-94090075D01*
X122376631Y-93683331D01*
X122132038Y-93317271D01*
X121820729Y-93005962D01*
X121454669Y-92761369D01*
X121047925Y-92592890D01*
X120616128Y-92507000D01*
X120175872Y-92507000D01*
X119744075Y-92592890D01*
X119337331Y-92761369D01*
X118971271Y-93005962D01*
X118659962Y-93317271D01*
X118415369Y-93683331D01*
X118246890Y-94090075D01*
X118161000Y-94521872D01*
X115729001Y-94521872D01*
X115729001Y-86937924D01*
X118183455Y-84483472D01*
X118529100Y-84483472D01*
X118653582Y-84471212D01*
X118773280Y-84434902D01*
X118883594Y-84375937D01*
X118980285Y-84296585D01*
X119059637Y-84199894D01*
X119118602Y-84089580D01*
X119154912Y-83969882D01*
X119167172Y-83845400D01*
X119167172Y-83091909D01*
X119168010Y-83083401D01*
X119167172Y-83074893D01*
X119167172Y-82321400D01*
X119163100Y-82280055D01*
X119163100Y-74691945D01*
X119167172Y-74650600D01*
X119167172Y-73126600D01*
X119154912Y-73002118D01*
X119118602Y-72882420D01*
X119059637Y-72772106D01*
X118980285Y-72675415D01*
X118883594Y-72596063D01*
X118773280Y-72537098D01*
X118653582Y-72500788D01*
X118529100Y-72488528D01*
X117767100Y-72488528D01*
X117642618Y-72500788D01*
X117522920Y-72537098D01*
X117412606Y-72596063D01*
X117315915Y-72675415D01*
X117236563Y-72772106D01*
X117177598Y-72882420D01*
X117141288Y-73002118D01*
X117129028Y-73126600D01*
X117129028Y-74650600D01*
X117133101Y-74691954D01*
X117133100Y-82280054D01*
X117129028Y-82321400D01*
X117129028Y-82667045D01*
X114299000Y-85497075D01*
X114299000Y-70587925D01*
X118183455Y-66703472D01*
X118529100Y-66703472D01*
X118653582Y-66691212D01*
X118773280Y-66654902D01*
X118883594Y-66595937D01*
X118980285Y-66516585D01*
X119059637Y-66419894D01*
X119118602Y-66309580D01*
X119154912Y-66189882D01*
X119167172Y-66065400D01*
X119167172Y-65311909D01*
X119168010Y-65303401D01*
X119167172Y-65294893D01*
X119167172Y-64541400D01*
X119163100Y-64500055D01*
X119163100Y-56911945D01*
X119167172Y-56870600D01*
X119167172Y-55346600D01*
X119154912Y-55222118D01*
X119118602Y-55102420D01*
X119059637Y-54992106D01*
X118980285Y-54895415D01*
X118883594Y-54816063D01*
X118773280Y-54757098D01*
X118653582Y-54720788D01*
X118529100Y-54708528D01*
X117767100Y-54708528D01*
X117642618Y-54720788D01*
X117522920Y-54757098D01*
X117412606Y-54816063D01*
X117315915Y-54895415D01*
X117236563Y-54992106D01*
X117177598Y-55102420D01*
X117141288Y-55222118D01*
X117129028Y-55346600D01*
X117129028Y-56870600D01*
X117133101Y-56911954D01*
X117133100Y-64500054D01*
X117129028Y-64541400D01*
X117129028Y-64887045D01*
X112601550Y-69414525D01*
X112562815Y-69446314D01*
X112531029Y-69485046D01*
X112435975Y-69600868D01*
X112420000Y-69630755D01*
X112420000Y-50698000D01*
X126340000Y-50698000D01*
X126340001Y-88267474D01*
G37*
%TD.AperFunction*%
D24*
X112511760Y-116586000D02*
X112420000Y-116647312D01*
X112420000Y-116524688D01*
X112511760Y-116586000D01*
%TA.AperFunction,NonConductor*%
D25*
G36*
X112511760Y-116586000D02*
G01*
X112420000Y-116647312D01*
X112420000Y-116524688D01*
X112511760Y-116586000D01*
G37*
%TD.AperFunction*%
M02*
