%TF.GenerationSoftware,KiCad,Pcbnew,5.99.0+really5.1.9+dfsg1-1*%
%TF.CreationDate,2021-05-13T21:59:57+10:00*%
%TF.ProjectId,minisynth32,6d696e69-7379-46e7-9468-33322e6b6963,1.1*%
%TF.SameCoordinates,Original*%
%TF.FileFunction,Legend,Top*%
%TF.FilePolarity,Positive*%
%FSLAX46Y46*%
G04 Gerber Fmt 4.6, Leading zero omitted, Abs format (unit mm)*
G04 Created by KiCad (PCBNEW 5.99.0+really5.1.9+dfsg1-1) date 2021-05-13 21:59:57*
%MOMM*%
%LPD*%
G01*
G04 APERTURE LIST*
%ADD10C,0.150000*%
%ADD11C,0.120000*%
%ADD12C,0.152400*%
%ADD13C,0.400000*%
%ADD14C,0.127000*%
G04 APERTURE END LIST*
D10*
X151662000Y-138819380D02*
X151662000Y-137819380D01*
X151900095Y-137819380D01*
X152042952Y-137867000D01*
X152138190Y-137962238D01*
X152185809Y-138057476D01*
X152233428Y-138247952D01*
X152233428Y-138390809D01*
X152185809Y-138581285D01*
X152138190Y-138676523D01*
X152042952Y-138771761D01*
X151900095Y-138819380D01*
X151662000Y-138819380D01*
X152662000Y-138819380D02*
X152662000Y-137819380D01*
X153138190Y-138819380D02*
X153138190Y-137819380D01*
X153709619Y-138819380D01*
X153709619Y-137819380D01*
X154662000Y-137819380D02*
X154185809Y-137819380D01*
X154138190Y-138295571D01*
X154185809Y-138247952D01*
X154281047Y-138200333D01*
X154519142Y-138200333D01*
X154614380Y-138247952D01*
X154662000Y-138295571D01*
X154709619Y-138390809D01*
X154709619Y-138628904D01*
X154662000Y-138724142D01*
X154614380Y-138771761D01*
X154519142Y-138819380D01*
X154281047Y-138819380D01*
X154185809Y-138771761D01*
X154138190Y-138724142D01*
X152423904Y-140469380D02*
X152423904Y-139469380D01*
X152804857Y-139469380D01*
X152900095Y-139517000D01*
X152947714Y-139564619D01*
X152995333Y-139659857D01*
X152995333Y-139802714D01*
X152947714Y-139897952D01*
X152900095Y-139945571D01*
X152804857Y-139993190D01*
X152423904Y-139993190D01*
X153900095Y-139469380D02*
X153423904Y-139469380D01*
X153376285Y-139945571D01*
X153423904Y-139897952D01*
X153519142Y-139850333D01*
X153757238Y-139850333D01*
X153852476Y-139897952D01*
X153900095Y-139945571D01*
X153947714Y-140040809D01*
X153947714Y-140278904D01*
X153900095Y-140374142D01*
X153852476Y-140421761D01*
X153757238Y-140469380D01*
X153519142Y-140469380D01*
X153423904Y-140421761D01*
X153376285Y-140374142D01*
X142010000Y-138819380D02*
X142010000Y-137819380D01*
X142248095Y-137819380D01*
X142390952Y-137867000D01*
X142486190Y-137962238D01*
X142533809Y-138057476D01*
X142581428Y-138247952D01*
X142581428Y-138390809D01*
X142533809Y-138581285D01*
X142486190Y-138676523D01*
X142390952Y-138771761D01*
X142248095Y-138819380D01*
X142010000Y-138819380D01*
X143010000Y-138819380D02*
X143010000Y-137819380D01*
X143486190Y-138819380D02*
X143486190Y-137819380D01*
X144057619Y-138819380D01*
X144057619Y-137819380D01*
X145010000Y-137819380D02*
X144533809Y-137819380D01*
X144486190Y-138295571D01*
X144533809Y-138247952D01*
X144629047Y-138200333D01*
X144867142Y-138200333D01*
X144962380Y-138247952D01*
X145010000Y-138295571D01*
X145057619Y-138390809D01*
X145057619Y-138628904D01*
X145010000Y-138724142D01*
X144962380Y-138771761D01*
X144867142Y-138819380D01*
X144629047Y-138819380D01*
X144533809Y-138771761D01*
X144486190Y-138724142D01*
X142771904Y-140469380D02*
X142771904Y-139469380D01*
X143152857Y-139469380D01*
X143248095Y-139517000D01*
X143295714Y-139564619D01*
X143343333Y-139659857D01*
X143343333Y-139802714D01*
X143295714Y-139897952D01*
X143248095Y-139945571D01*
X143152857Y-139993190D01*
X142771904Y-139993190D01*
X144200476Y-139802714D02*
X144200476Y-140469380D01*
X143962380Y-139421761D02*
X143724285Y-140136047D01*
X144343333Y-140136047D01*
D11*
%TO.C,J7*%
X128016000Y-118364000D02*
X128016000Y-154432000D01*
X115316000Y-118364000D02*
X128016000Y-118364000D01*
X115316000Y-154432000D02*
X115316000Y-118364000D01*
X115316000Y-154432000D02*
X128016000Y-154432000D01*
D12*
%TO.C,SW3*%
X117271800Y-65608200D02*
X123520200Y-65608200D01*
X117271800Y-59359800D02*
X117271800Y-65608200D01*
X123520200Y-59359800D02*
X117271800Y-59359800D01*
X123520200Y-65608200D02*
X123520200Y-59359800D01*
%TO.C,SW2*%
X135153400Y-47385084D02*
X135153400Y-52386116D01*
X135153400Y-53277884D02*
X135153400Y-54406800D01*
X135153400Y-54406800D02*
X167259000Y-54406800D01*
X135153400Y-45364400D02*
X135153400Y-46493316D01*
X167259000Y-45364400D02*
X135153400Y-45364400D01*
X167259000Y-54406800D02*
X167259000Y-45364400D01*
%TO.C,SW1*%
X117271800Y-83388200D02*
X123520200Y-83388200D01*
X117271800Y-77139800D02*
X117271800Y-83388200D01*
X123520200Y-77139800D02*
X117271800Y-77139800D01*
X123520200Y-83388200D02*
X123520200Y-77139800D01*
D11*
%TO.C,J5*%
X150936000Y-137862000D02*
X150936000Y-139192000D01*
X149606000Y-137862000D02*
X150936000Y-137862000D01*
X148336000Y-137862000D02*
X148336000Y-140522000D01*
X148336000Y-140522000D02*
X145736000Y-140522000D01*
X148336000Y-137862000D02*
X145736000Y-137862000D01*
X145736000Y-137862000D02*
X145736000Y-140522000D01*
%TO.C,J4*%
X133410000Y-104962000D02*
X132080000Y-104962000D01*
X133410000Y-103632000D02*
X133410000Y-104962000D01*
X133410000Y-102362000D02*
X130750000Y-102362000D01*
X130750000Y-102362000D02*
X130750000Y-94682000D01*
X133410000Y-102362000D02*
X133410000Y-94682000D01*
X133410000Y-94682000D02*
X130750000Y-94682000D01*
D13*
%TO.C,J3*%
X148314000Y-64008000D02*
G75*
G03*
X148314000Y-64008000I-200000J0D01*
G01*
D14*
X149414000Y-61458000D02*
X149414000Y-59508000D01*
X155664000Y-59508000D02*
X163814000Y-59508000D01*
X149414000Y-68508000D02*
X149414000Y-66658000D01*
X149414000Y-59508000D02*
X150564000Y-59508000D01*
X163814000Y-68508000D02*
X149414000Y-68508000D01*
X163814000Y-59508000D02*
X163814000Y-68508000D01*
D11*
%TO.C,J1*%
X130750000Y-125162000D02*
X132080000Y-125162000D01*
X130750000Y-126492000D02*
X130750000Y-125162000D01*
X130750000Y-127762000D02*
X133410000Y-127762000D01*
X133410000Y-127762000D02*
X133410000Y-140522000D01*
X130750000Y-127762000D02*
X130750000Y-140522000D01*
X130750000Y-140522000D02*
X133410000Y-140522000D01*
%TO.C,A1*%
X143900000Y-75535000D02*
X143900000Y-104135000D01*
X145400000Y-105635000D02*
X159400000Y-105635000D01*
X160900000Y-104135000D02*
X160900000Y-75535000D01*
X159400000Y-74035000D02*
X145400000Y-74035000D01*
X162400000Y-76935000D02*
X162400000Y-81635000D01*
X162400000Y-81635000D02*
X148400000Y-81635000D01*
X148400000Y-81635000D02*
X148400000Y-76935000D01*
X148400000Y-76935000D02*
X162400000Y-76935000D01*
X145400000Y-105635000D02*
G75*
G02*
X143900000Y-104135000I0J1500000D01*
G01*
X160900000Y-104135000D02*
G75*
G02*
X159400000Y-105635000I-1500000J0D01*
G01*
X159400000Y-74035000D02*
G75*
G02*
X160900000Y-75535000I0J-1500000D01*
G01*
X143900000Y-75535000D02*
G75*
G02*
X145400000Y-74035000I1500000J0D01*
G01*
%TO.C,U1*%
X151622000Y-131632000D02*
X153272000Y-131632000D01*
X153272000Y-131632000D02*
X153272000Y-123892000D01*
X153272000Y-123892000D02*
X147972000Y-123892000D01*
X147972000Y-123892000D02*
X147972000Y-131632000D01*
X147972000Y-131632000D02*
X149622000Y-131632000D01*
X149622000Y-131632000D02*
G75*
G02*
X151622000Y-131632000I1000000J0D01*
G01*
%TO.C,R2*%
X146590000Y-134342000D02*
X146590000Y-134012000D01*
X146590000Y-134012000D02*
X153130000Y-134012000D01*
X153130000Y-134012000D02*
X153130000Y-134342000D01*
X146590000Y-136422000D02*
X146590000Y-136752000D01*
X146590000Y-136752000D02*
X153130000Y-136752000D01*
X153130000Y-136752000D02*
X153130000Y-136422000D01*
%TO.C,R1*%
X147098000Y-115292000D02*
X147098000Y-114962000D01*
X147098000Y-114962000D02*
X153638000Y-114962000D01*
X153638000Y-114962000D02*
X153638000Y-115292000D01*
X147098000Y-117372000D02*
X147098000Y-117702000D01*
X147098000Y-117702000D02*
X153638000Y-117702000D01*
X153638000Y-117702000D02*
X153638000Y-117372000D01*
%TO.C,J2*%
X140776000Y-137982000D02*
X138176000Y-137982000D01*
X140776000Y-137982000D02*
X140776000Y-87062000D01*
X140776000Y-87062000D02*
X135576000Y-87062000D01*
X135576000Y-135382000D02*
X135576000Y-87062000D01*
X138176000Y-135382000D02*
X135576000Y-135382000D01*
X138176000Y-137982000D02*
X138176000Y-135382000D01*
X135576000Y-137982000D02*
X135576000Y-136652000D01*
X136906000Y-137982000D02*
X135576000Y-137982000D01*
%TO.C,D1*%
X157630000Y-126326000D02*
X159870000Y-126326000D01*
X159870000Y-126326000D02*
X159870000Y-122086000D01*
X159870000Y-122086000D02*
X157630000Y-122086000D01*
X157630000Y-122086000D02*
X157630000Y-126326000D01*
X158750000Y-126976000D02*
X158750000Y-126326000D01*
X158750000Y-121436000D02*
X158750000Y-122086000D01*
X157630000Y-125606000D02*
X159870000Y-125606000D01*
X157630000Y-125486000D02*
X159870000Y-125486000D01*
X157630000Y-125726000D02*
X159870000Y-125726000D01*
%TO.C,C4*%
X159870000Y-113388000D02*
X152630000Y-113388000D01*
X159870000Y-111148000D02*
X152630000Y-111148000D01*
X159870000Y-113388000D02*
X159870000Y-111148000D01*
X152630000Y-113388000D02*
X152630000Y-111148000D01*
%TO.C,C3*%
X159870000Y-109324000D02*
X152630000Y-109324000D01*
X159870000Y-107084000D02*
X152630000Y-107084000D01*
X159870000Y-109324000D02*
X159870000Y-107084000D01*
X152630000Y-109324000D02*
X152630000Y-107084000D01*
%TO.C,C2*%
X145692000Y-119102000D02*
X152932000Y-119102000D01*
X145692000Y-121342000D02*
X152932000Y-121342000D01*
X145692000Y-119102000D02*
X145692000Y-121342000D01*
X152932000Y-119102000D02*
X152932000Y-121342000D01*
%TO.C,C1*%
X148364000Y-69088000D02*
G75*
G03*
X148364000Y-69088000I-4120000J0D01*
G01*
X144244000Y-73168000D02*
X144244000Y-65008000D01*
X144204000Y-73168000D02*
X144204000Y-65008000D01*
X144164000Y-73168000D02*
X144164000Y-65008000D01*
X144124000Y-73167000D02*
X144124000Y-65009000D01*
X144084000Y-73165000D02*
X144084000Y-65011000D01*
X144044000Y-73164000D02*
X144044000Y-65012000D01*
X144004000Y-73162000D02*
X144004000Y-65014000D01*
X143964000Y-73159000D02*
X143964000Y-65017000D01*
X143924000Y-73156000D02*
X143924000Y-65020000D01*
X143884000Y-73153000D02*
X143884000Y-65023000D01*
X143844000Y-73149000D02*
X143844000Y-65027000D01*
X143804000Y-73145000D02*
X143804000Y-65031000D01*
X143764000Y-73140000D02*
X143764000Y-65036000D01*
X143724000Y-73136000D02*
X143724000Y-65040000D01*
X143684000Y-73130000D02*
X143684000Y-65046000D01*
X143644000Y-73125000D02*
X143644000Y-65051000D01*
X143604000Y-73118000D02*
X143604000Y-65058000D01*
X143564000Y-73112000D02*
X143564000Y-65064000D01*
X143523000Y-73105000D02*
X143523000Y-70128000D01*
X143523000Y-68048000D02*
X143523000Y-65071000D01*
X143483000Y-73098000D02*
X143483000Y-70128000D01*
X143483000Y-68048000D02*
X143483000Y-65078000D01*
X143443000Y-73090000D02*
X143443000Y-70128000D01*
X143443000Y-68048000D02*
X143443000Y-65086000D01*
X143403000Y-73082000D02*
X143403000Y-70128000D01*
X143403000Y-68048000D02*
X143403000Y-65094000D01*
X143363000Y-73073000D02*
X143363000Y-70128000D01*
X143363000Y-68048000D02*
X143363000Y-65103000D01*
X143323000Y-73064000D02*
X143323000Y-70128000D01*
X143323000Y-68048000D02*
X143323000Y-65112000D01*
X143283000Y-73055000D02*
X143283000Y-70128000D01*
X143283000Y-68048000D02*
X143283000Y-65121000D01*
X143243000Y-73045000D02*
X143243000Y-70128000D01*
X143243000Y-68048000D02*
X143243000Y-65131000D01*
X143203000Y-73035000D02*
X143203000Y-70128000D01*
X143203000Y-68048000D02*
X143203000Y-65141000D01*
X143163000Y-73024000D02*
X143163000Y-70128000D01*
X143163000Y-68048000D02*
X143163000Y-65152000D01*
X143123000Y-73013000D02*
X143123000Y-70128000D01*
X143123000Y-68048000D02*
X143123000Y-65163000D01*
X143083000Y-73002000D02*
X143083000Y-70128000D01*
X143083000Y-68048000D02*
X143083000Y-65174000D01*
X143043000Y-72990000D02*
X143043000Y-70128000D01*
X143043000Y-68048000D02*
X143043000Y-65186000D01*
X143003000Y-72977000D02*
X143003000Y-70128000D01*
X143003000Y-68048000D02*
X143003000Y-65199000D01*
X142963000Y-72965000D02*
X142963000Y-70128000D01*
X142963000Y-68048000D02*
X142963000Y-65211000D01*
X142923000Y-72951000D02*
X142923000Y-70128000D01*
X142923000Y-68048000D02*
X142923000Y-65225000D01*
X142883000Y-72938000D02*
X142883000Y-70128000D01*
X142883000Y-68048000D02*
X142883000Y-65238000D01*
X142843000Y-72923000D02*
X142843000Y-70128000D01*
X142843000Y-68048000D02*
X142843000Y-65253000D01*
X142803000Y-72909000D02*
X142803000Y-70128000D01*
X142803000Y-68048000D02*
X142803000Y-65267000D01*
X142763000Y-72893000D02*
X142763000Y-70128000D01*
X142763000Y-68048000D02*
X142763000Y-65283000D01*
X142723000Y-72878000D02*
X142723000Y-70128000D01*
X142723000Y-68048000D02*
X142723000Y-65298000D01*
X142683000Y-72862000D02*
X142683000Y-70128000D01*
X142683000Y-68048000D02*
X142683000Y-65314000D01*
X142643000Y-72845000D02*
X142643000Y-70128000D01*
X142643000Y-68048000D02*
X142643000Y-65331000D01*
X142603000Y-72828000D02*
X142603000Y-70128000D01*
X142603000Y-68048000D02*
X142603000Y-65348000D01*
X142563000Y-72810000D02*
X142563000Y-70128000D01*
X142563000Y-68048000D02*
X142563000Y-65366000D01*
X142523000Y-72792000D02*
X142523000Y-70128000D01*
X142523000Y-68048000D02*
X142523000Y-65384000D01*
X142483000Y-72774000D02*
X142483000Y-70128000D01*
X142483000Y-68048000D02*
X142483000Y-65402000D01*
X142443000Y-72754000D02*
X142443000Y-70128000D01*
X142443000Y-68048000D02*
X142443000Y-65422000D01*
X142403000Y-72735000D02*
X142403000Y-70128000D01*
X142403000Y-68048000D02*
X142403000Y-65441000D01*
X142363000Y-72715000D02*
X142363000Y-70128000D01*
X142363000Y-68048000D02*
X142363000Y-65461000D01*
X142323000Y-72694000D02*
X142323000Y-70128000D01*
X142323000Y-68048000D02*
X142323000Y-65482000D01*
X142283000Y-72672000D02*
X142283000Y-70128000D01*
X142283000Y-68048000D02*
X142283000Y-65504000D01*
X142243000Y-72650000D02*
X142243000Y-70128000D01*
X142243000Y-68048000D02*
X142243000Y-65526000D01*
X142203000Y-72628000D02*
X142203000Y-70128000D01*
X142203000Y-68048000D02*
X142203000Y-65548000D01*
X142163000Y-72605000D02*
X142163000Y-70128000D01*
X142163000Y-68048000D02*
X142163000Y-65571000D01*
X142123000Y-72581000D02*
X142123000Y-70128000D01*
X142123000Y-68048000D02*
X142123000Y-65595000D01*
X142083000Y-72557000D02*
X142083000Y-70128000D01*
X142083000Y-68048000D02*
X142083000Y-65619000D01*
X142043000Y-72532000D02*
X142043000Y-70128000D01*
X142043000Y-68048000D02*
X142043000Y-65644000D01*
X142003000Y-72506000D02*
X142003000Y-70128000D01*
X142003000Y-68048000D02*
X142003000Y-65670000D01*
X141963000Y-72480000D02*
X141963000Y-70128000D01*
X141963000Y-68048000D02*
X141963000Y-65696000D01*
X141923000Y-72453000D02*
X141923000Y-70128000D01*
X141923000Y-68048000D02*
X141923000Y-65723000D01*
X141883000Y-72426000D02*
X141883000Y-70128000D01*
X141883000Y-68048000D02*
X141883000Y-65750000D01*
X141843000Y-72397000D02*
X141843000Y-70128000D01*
X141843000Y-68048000D02*
X141843000Y-65779000D01*
X141803000Y-72368000D02*
X141803000Y-70128000D01*
X141803000Y-68048000D02*
X141803000Y-65808000D01*
X141763000Y-72338000D02*
X141763000Y-70128000D01*
X141763000Y-68048000D02*
X141763000Y-65838000D01*
X141723000Y-72308000D02*
X141723000Y-70128000D01*
X141723000Y-68048000D02*
X141723000Y-65868000D01*
X141683000Y-72277000D02*
X141683000Y-70128000D01*
X141683000Y-68048000D02*
X141683000Y-65899000D01*
X141643000Y-72244000D02*
X141643000Y-70128000D01*
X141643000Y-68048000D02*
X141643000Y-65932000D01*
X141603000Y-72212000D02*
X141603000Y-70128000D01*
X141603000Y-68048000D02*
X141603000Y-65964000D01*
X141563000Y-72178000D02*
X141563000Y-70128000D01*
X141563000Y-68048000D02*
X141563000Y-65998000D01*
X141523000Y-72143000D02*
X141523000Y-70128000D01*
X141523000Y-68048000D02*
X141523000Y-66033000D01*
X141483000Y-72107000D02*
X141483000Y-70128000D01*
X141483000Y-68048000D02*
X141483000Y-66069000D01*
X141443000Y-72071000D02*
X141443000Y-66105000D01*
X141403000Y-72033000D02*
X141403000Y-66143000D01*
X141363000Y-71995000D02*
X141363000Y-66181000D01*
X141323000Y-71955000D02*
X141323000Y-66221000D01*
X141283000Y-71914000D02*
X141283000Y-66262000D01*
X141243000Y-71872000D02*
X141243000Y-66304000D01*
X141203000Y-71829000D02*
X141203000Y-66347000D01*
X141163000Y-71785000D02*
X141163000Y-66391000D01*
X141123000Y-71739000D02*
X141123000Y-66437000D01*
X141083000Y-71692000D02*
X141083000Y-66484000D01*
X141043000Y-71644000D02*
X141043000Y-66532000D01*
X141003000Y-71593000D02*
X141003000Y-66583000D01*
X140963000Y-71542000D02*
X140963000Y-66634000D01*
X140923000Y-71488000D02*
X140923000Y-66688000D01*
X140883000Y-71433000D02*
X140883000Y-66743000D01*
X140843000Y-71375000D02*
X140843000Y-66801000D01*
X140803000Y-71316000D02*
X140803000Y-66860000D01*
X140763000Y-71254000D02*
X140763000Y-66922000D01*
X140723000Y-71190000D02*
X140723000Y-66986000D01*
X140683000Y-71122000D02*
X140683000Y-67054000D01*
X140643000Y-71052000D02*
X140643000Y-67124000D01*
X140603000Y-70978000D02*
X140603000Y-67198000D01*
X140563000Y-70901000D02*
X140563000Y-67275000D01*
X140523000Y-70819000D02*
X140523000Y-67357000D01*
X140483000Y-70733000D02*
X140483000Y-67443000D01*
X140443000Y-70640000D02*
X140443000Y-67536000D01*
X140403000Y-70541000D02*
X140403000Y-67635000D01*
X140363000Y-70434000D02*
X140363000Y-67742000D01*
X140323000Y-70317000D02*
X140323000Y-67859000D01*
X140283000Y-70186000D02*
X140283000Y-67990000D01*
X140243000Y-70036000D02*
X140243000Y-68140000D01*
X140203000Y-69856000D02*
X140203000Y-68320000D01*
X140163000Y-69621000D02*
X140163000Y-68555000D01*
X148653698Y-71403000D02*
X147853698Y-71403000D01*
X148253698Y-71803000D02*
X148253698Y-71003000D01*
%TO.C,J7*%
D10*
X122070761Y-136238571D02*
X122118380Y-136095714D01*
X122118380Y-135857619D01*
X122070761Y-135762380D01*
X122023142Y-135714761D01*
X121927904Y-135667142D01*
X121832666Y-135667142D01*
X121737428Y-135714761D01*
X121689809Y-135762380D01*
X121642190Y-135857619D01*
X121594571Y-136048095D01*
X121546952Y-136143333D01*
X121499333Y-136190952D01*
X121404095Y-136238571D01*
X121308857Y-136238571D01*
X121213619Y-136190952D01*
X121166000Y-136143333D01*
X121118380Y-136048095D01*
X121118380Y-135810000D01*
X121166000Y-135667142D01*
X122070761Y-135286190D02*
X122118380Y-135143333D01*
X122118380Y-134905238D01*
X122070761Y-134810000D01*
X122023142Y-134762380D01*
X121927904Y-134714761D01*
X121832666Y-134714761D01*
X121737428Y-134762380D01*
X121689809Y-134810000D01*
X121642190Y-134905238D01*
X121594571Y-135095714D01*
X121546952Y-135190952D01*
X121499333Y-135238571D01*
X121404095Y-135286190D01*
X121308857Y-135286190D01*
X121213619Y-135238571D01*
X121166000Y-135190952D01*
X121118380Y-135095714D01*
X121118380Y-134857619D01*
X121166000Y-134714761D01*
X122118380Y-134286190D02*
X121118380Y-134286190D01*
X121118380Y-134048095D01*
X121166000Y-133905238D01*
X121261238Y-133810000D01*
X121356476Y-133762380D01*
X121546952Y-133714761D01*
X121689809Y-133714761D01*
X121880285Y-133762380D01*
X121975523Y-133810000D01*
X122070761Y-133905238D01*
X122118380Y-134048095D01*
X122118380Y-134286190D01*
X122118380Y-132762380D02*
X122118380Y-133333809D01*
X122118380Y-133048095D02*
X121118380Y-133048095D01*
X121261238Y-133143333D01*
X121356476Y-133238571D01*
X121404095Y-133333809D01*
X121118380Y-132429047D02*
X121118380Y-131810000D01*
X121499333Y-132143333D01*
X121499333Y-132000476D01*
X121546952Y-131905238D01*
X121594571Y-131857619D01*
X121689809Y-131810000D01*
X121927904Y-131810000D01*
X122023142Y-131857619D01*
X122070761Y-131905238D01*
X122118380Y-132000476D01*
X122118380Y-132286190D01*
X122070761Y-132381428D01*
X122023142Y-132429047D01*
X121118380Y-131190952D02*
X121118380Y-131095714D01*
X121166000Y-131000476D01*
X121213619Y-130952857D01*
X121308857Y-130905238D01*
X121499333Y-130857619D01*
X121737428Y-130857619D01*
X121927904Y-130905238D01*
X122023142Y-130952857D01*
X122070761Y-131000476D01*
X122118380Y-131095714D01*
X122118380Y-131190952D01*
X122070761Y-131286190D01*
X122023142Y-131333809D01*
X121927904Y-131381428D01*
X121737428Y-131429047D01*
X121499333Y-131429047D01*
X121308857Y-131381428D01*
X121213619Y-131333809D01*
X121166000Y-131286190D01*
X121118380Y-131190952D01*
X121118380Y-130000476D02*
X121118380Y-130190952D01*
X121166000Y-130286190D01*
X121213619Y-130333809D01*
X121356476Y-130429047D01*
X121546952Y-130476666D01*
X121927904Y-130476666D01*
X122023142Y-130429047D01*
X122070761Y-130381428D01*
X122118380Y-130286190D01*
X122118380Y-130095714D01*
X122070761Y-130000476D01*
X122023142Y-129952857D01*
X121927904Y-129905238D01*
X121689809Y-129905238D01*
X121594571Y-129952857D01*
X121546952Y-130000476D01*
X121499333Y-130095714D01*
X121499333Y-130286190D01*
X121546952Y-130381428D01*
X121594571Y-130429047D01*
X121689809Y-130476666D01*
X121118380Y-128524285D02*
X121118380Y-128333809D01*
X121166000Y-128238571D01*
X121261238Y-128143333D01*
X121451714Y-128095714D01*
X121785047Y-128095714D01*
X121975523Y-128143333D01*
X122070761Y-128238571D01*
X122118380Y-128333809D01*
X122118380Y-128524285D01*
X122070761Y-128619523D01*
X121975523Y-128714761D01*
X121785047Y-128762380D01*
X121451714Y-128762380D01*
X121261238Y-128714761D01*
X121166000Y-128619523D01*
X121118380Y-128524285D01*
X122118380Y-127190952D02*
X122118380Y-127667142D01*
X121118380Y-127667142D01*
X121594571Y-126857619D02*
X121594571Y-126524285D01*
X122118380Y-126381428D02*
X122118380Y-126857619D01*
X121118380Y-126857619D01*
X121118380Y-126381428D01*
X122118380Y-125952857D02*
X121118380Y-125952857D01*
X121118380Y-125714761D01*
X121166000Y-125571904D01*
X121261238Y-125476666D01*
X121356476Y-125429047D01*
X121546952Y-125381428D01*
X121689809Y-125381428D01*
X121880285Y-125429047D01*
X121975523Y-125476666D01*
X122070761Y-125571904D01*
X122118380Y-125714761D01*
X122118380Y-125952857D01*
%TO.C,SW3*%
X120324571Y-62888761D02*
X120372190Y-62745904D01*
X120419809Y-62698285D01*
X120515047Y-62650666D01*
X120657904Y-62650666D01*
X120753142Y-62698285D01*
X120800761Y-62745904D01*
X120848380Y-62841142D01*
X120848380Y-63222095D01*
X119848380Y-63222095D01*
X119848380Y-62888761D01*
X119896000Y-62793523D01*
X119943619Y-62745904D01*
X120038857Y-62698285D01*
X120134095Y-62698285D01*
X120229333Y-62745904D01*
X120276952Y-62793523D01*
X120324571Y-62888761D01*
X120324571Y-63222095D01*
X119943619Y-62269714D02*
X119896000Y-62222095D01*
X119848380Y-62126857D01*
X119848380Y-61888761D01*
X119896000Y-61793523D01*
X119943619Y-61745904D01*
X120038857Y-61698285D01*
X120134095Y-61698285D01*
X120276952Y-61745904D01*
X120848380Y-62317333D01*
X120848380Y-61698285D01*
%TO.C,SW1*%
X120324571Y-80668761D02*
X120372190Y-80525904D01*
X120419809Y-80478285D01*
X120515047Y-80430666D01*
X120657904Y-80430666D01*
X120753142Y-80478285D01*
X120800761Y-80525904D01*
X120848380Y-80621142D01*
X120848380Y-81002095D01*
X119848380Y-81002095D01*
X119848380Y-80668761D01*
X119896000Y-80573523D01*
X119943619Y-80525904D01*
X120038857Y-80478285D01*
X120134095Y-80478285D01*
X120229333Y-80525904D01*
X120276952Y-80573523D01*
X120324571Y-80668761D01*
X120324571Y-81002095D01*
X120848380Y-79478285D02*
X120848380Y-80049714D01*
X120848380Y-79764000D02*
X119848380Y-79764000D01*
X119991238Y-79859238D01*
X120086476Y-79954476D01*
X120134095Y-80049714D01*
%TO.C,J5*%
X155789619Y-139644380D02*
X155789619Y-138644380D01*
X156122952Y-139358666D01*
X156456285Y-138644380D01*
X156456285Y-139644380D01*
X156932476Y-139644380D02*
X156932476Y-138644380D01*
X157408666Y-139644380D02*
X157408666Y-138644380D01*
X157646761Y-138644380D01*
X157789619Y-138692000D01*
X157884857Y-138787238D01*
X157932476Y-138882476D01*
X157980095Y-139072952D01*
X157980095Y-139215809D01*
X157932476Y-139406285D01*
X157884857Y-139501523D01*
X157789619Y-139596761D01*
X157646761Y-139644380D01*
X157408666Y-139644380D01*
X158408666Y-139644380D02*
X158408666Y-138644380D01*
X158646761Y-139739619D02*
X159408666Y-139739619D01*
X159646761Y-139644380D02*
X159646761Y-138644380D01*
X160122952Y-139644380D02*
X160122952Y-138644380D01*
X160694380Y-139644380D01*
X160694380Y-138644380D01*
%TO.C,J4*%
X134167619Y-97830000D02*
X134643809Y-97496666D01*
X134167619Y-97258571D02*
X135167619Y-97258571D01*
X135167619Y-97639523D01*
X135120000Y-97734761D01*
X135072380Y-97782380D01*
X134977142Y-97830000D01*
X134834285Y-97830000D01*
X134739047Y-97782380D01*
X134691428Y-97734761D01*
X134643809Y-97639523D01*
X134643809Y-97258571D01*
X135167619Y-98449047D02*
X135167619Y-98639523D01*
X135120000Y-98734761D01*
X135024761Y-98830000D01*
X134834285Y-98877619D01*
X134500952Y-98877619D01*
X134310476Y-98830000D01*
X134215238Y-98734761D01*
X134167619Y-98639523D01*
X134167619Y-98449047D01*
X134215238Y-98353809D01*
X134310476Y-98258571D01*
X134500952Y-98210952D01*
X134834285Y-98210952D01*
X135024761Y-98258571D01*
X135120000Y-98353809D01*
X135167619Y-98449047D01*
X135167619Y-99163333D02*
X135167619Y-99734761D01*
X134167619Y-99449047D02*
X135167619Y-99449047D01*
X134072380Y-99830000D02*
X134072380Y-100591904D01*
X134167619Y-100830000D02*
X135167619Y-100830000D01*
X134691428Y-100830000D02*
X134691428Y-101401428D01*
X134167619Y-101401428D02*
X135167619Y-101401428D01*
X134167619Y-101877619D02*
X135167619Y-101877619D01*
X135167619Y-102115714D01*
X135120000Y-102258571D01*
X135024761Y-102353809D01*
X134929523Y-102401428D01*
X134739047Y-102449047D01*
X134596190Y-102449047D01*
X134405714Y-102401428D01*
X134310476Y-102353809D01*
X134215238Y-102258571D01*
X134167619Y-102115714D01*
X134167619Y-101877619D01*
X134167619Y-103449047D02*
X134643809Y-103115714D01*
X134167619Y-102877619D02*
X135167619Y-102877619D01*
X135167619Y-103258571D01*
X135120000Y-103353809D01*
X135072380Y-103401428D01*
X134977142Y-103449047D01*
X134834285Y-103449047D01*
X134739047Y-103401428D01*
X134691428Y-103353809D01*
X134643809Y-103258571D01*
X134643809Y-102877619D01*
%TO.C,J1*%
X132151428Y-118102380D02*
X132151428Y-117769047D01*
X131627619Y-117769047D02*
X132627619Y-117769047D01*
X132627619Y-118245238D01*
X131532380Y-118388095D02*
X131532380Y-119150000D01*
X131627619Y-119388095D02*
X132627619Y-119388095D01*
X132627619Y-119769047D01*
X132580000Y-119864285D01*
X132532380Y-119911904D01*
X132437142Y-119959523D01*
X132294285Y-119959523D01*
X132199047Y-119911904D01*
X132151428Y-119864285D01*
X132103809Y-119769047D01*
X132103809Y-119388095D01*
X131913333Y-120340476D02*
X131913333Y-120816666D01*
X131627619Y-120245238D02*
X132627619Y-120578571D01*
X131627619Y-120911904D01*
X131627619Y-121245238D02*
X132627619Y-121245238D01*
X131627619Y-121816666D01*
X132627619Y-121816666D01*
X132151428Y-122292857D02*
X132151428Y-122626190D01*
X131627619Y-122769047D02*
X131627619Y-122292857D01*
X132627619Y-122292857D01*
X132627619Y-122769047D01*
X131627619Y-123673809D02*
X131627619Y-123197619D01*
X132627619Y-123197619D01*
%TO.C,A1*%
X151900000Y-94685904D02*
X151852380Y-94781142D01*
X151852380Y-94924000D01*
X151900000Y-95066857D01*
X151995238Y-95162095D01*
X152090476Y-95209714D01*
X152280952Y-95257333D01*
X152423809Y-95257333D01*
X152614285Y-95209714D01*
X152709523Y-95162095D01*
X152804761Y-95066857D01*
X152852380Y-94924000D01*
X152852380Y-94828761D01*
X152804761Y-94685904D01*
X152757142Y-94638285D01*
X152423809Y-94638285D01*
X152423809Y-94828761D01*
X152376190Y-94019238D02*
X152852380Y-94019238D01*
X151852380Y-94352571D02*
X152376190Y-94019238D01*
X151852380Y-93685904D01*
X152471428Y-93352571D02*
X152471428Y-92590666D01*
X152852380Y-92114476D02*
X151852380Y-92114476D01*
X151852380Y-91733523D01*
X151900000Y-91638285D01*
X151947619Y-91590666D01*
X152042857Y-91543047D01*
X152185714Y-91543047D01*
X152280952Y-91590666D01*
X152328571Y-91638285D01*
X152376190Y-91733523D01*
X152376190Y-92114476D01*
X152757142Y-90543047D02*
X152804761Y-90590666D01*
X152852380Y-90733523D01*
X152852380Y-90828761D01*
X152804761Y-90971619D01*
X152709523Y-91066857D01*
X152614285Y-91114476D01*
X152423809Y-91162095D01*
X152280952Y-91162095D01*
X152090476Y-91114476D01*
X151995238Y-91066857D01*
X151900000Y-90971619D01*
X151852380Y-90828761D01*
X151852380Y-90733523D01*
X151900000Y-90590666D01*
X151947619Y-90543047D01*
X152852380Y-90114476D02*
X151852380Y-90114476D01*
X152566666Y-89781142D01*
X151852380Y-89447809D01*
X152852380Y-89447809D01*
X151852380Y-88495428D02*
X151852380Y-88971619D01*
X152328571Y-89019238D01*
X152280952Y-88971619D01*
X152233333Y-88876380D01*
X152233333Y-88638285D01*
X152280952Y-88543047D01*
X152328571Y-88495428D01*
X152423809Y-88447809D01*
X152661904Y-88447809D01*
X152757142Y-88495428D01*
X152804761Y-88543047D01*
X152852380Y-88638285D01*
X152852380Y-88876380D01*
X152804761Y-88971619D01*
X152757142Y-89019238D01*
X152852380Y-87495428D02*
X152852380Y-88066857D01*
X152852380Y-87781142D02*
X151852380Y-87781142D01*
X151995238Y-87876380D01*
X152090476Y-87971619D01*
X152138095Y-88066857D01*
X151852380Y-86876380D02*
X151852380Y-86781142D01*
X151900000Y-86685904D01*
X151947619Y-86638285D01*
X152042857Y-86590666D01*
X152233333Y-86543047D01*
X152471428Y-86543047D01*
X152661904Y-86590666D01*
X152757142Y-86638285D01*
X152804761Y-86685904D01*
X152852380Y-86781142D01*
X152852380Y-86876380D01*
X152804761Y-86971619D01*
X152757142Y-87019238D01*
X152661904Y-87066857D01*
X152471428Y-87114476D01*
X152233333Y-87114476D01*
X152042857Y-87066857D01*
X151947619Y-87019238D01*
X151900000Y-86971619D01*
X151852380Y-86876380D01*
X151947619Y-86162095D02*
X151900000Y-86114476D01*
X151852380Y-86019238D01*
X151852380Y-85781142D01*
X151900000Y-85685904D01*
X151947619Y-85638285D01*
X152042857Y-85590666D01*
X152138095Y-85590666D01*
X152280952Y-85638285D01*
X152852380Y-86209714D01*
X152852380Y-85590666D01*
%TO.C,U1*%
X149860095Y-132084380D02*
X149860095Y-132893904D01*
X149907714Y-132989142D01*
X149955333Y-133036761D01*
X150050571Y-133084380D01*
X150241047Y-133084380D01*
X150336285Y-133036761D01*
X150383904Y-132989142D01*
X150431523Y-132893904D01*
X150431523Y-132084380D01*
X151431523Y-133084380D02*
X150860095Y-133084380D01*
X151145809Y-133084380D02*
X151145809Y-132084380D01*
X151050571Y-132227238D01*
X150955333Y-132322476D01*
X150860095Y-132370095D01*
X150169619Y-125388952D02*
X151169619Y-125388952D01*
X150693428Y-125388952D02*
X150693428Y-125960380D01*
X150169619Y-125960380D02*
X151169619Y-125960380D01*
X150169619Y-126960380D02*
X150169619Y-126388952D01*
X150169619Y-126674666D02*
X151169619Y-126674666D01*
X151026761Y-126579428D01*
X150931523Y-126484190D01*
X150883904Y-126388952D01*
X150169619Y-127912761D02*
X150169619Y-127341333D01*
X150169619Y-127627047D02*
X151169619Y-127627047D01*
X151026761Y-127531809D01*
X150931523Y-127436571D01*
X150883904Y-127341333D01*
X150169619Y-128817523D02*
X150169619Y-128341333D01*
X151169619Y-128341333D01*
X150169619Y-129674666D02*
X150169619Y-129103238D01*
X150169619Y-129388952D02*
X151169619Y-129388952D01*
X151026761Y-129293714D01*
X150931523Y-129198476D01*
X150883904Y-129103238D01*
%TO.C,R2*%
X149693333Y-135834380D02*
X149360000Y-135358190D01*
X149121904Y-135834380D02*
X149121904Y-134834380D01*
X149502857Y-134834380D01*
X149598095Y-134882000D01*
X149645714Y-134929619D01*
X149693333Y-135024857D01*
X149693333Y-135167714D01*
X149645714Y-135262952D01*
X149598095Y-135310571D01*
X149502857Y-135358190D01*
X149121904Y-135358190D01*
X150074285Y-134929619D02*
X150121904Y-134882000D01*
X150217142Y-134834380D01*
X150455238Y-134834380D01*
X150550476Y-134882000D01*
X150598095Y-134929619D01*
X150645714Y-135024857D01*
X150645714Y-135120095D01*
X150598095Y-135262952D01*
X150026666Y-135834380D01*
X150645714Y-135834380D01*
X155487904Y-135183619D02*
X155535523Y-135136000D01*
X155630761Y-135088380D01*
X155868857Y-135088380D01*
X155964095Y-135136000D01*
X156011714Y-135183619D01*
X156059333Y-135278857D01*
X156059333Y-135374095D01*
X156011714Y-135516952D01*
X155440285Y-136088380D01*
X156059333Y-136088380D01*
X156440285Y-135183619D02*
X156487904Y-135136000D01*
X156583142Y-135088380D01*
X156821238Y-135088380D01*
X156916476Y-135136000D01*
X156964095Y-135183619D01*
X157011714Y-135278857D01*
X157011714Y-135374095D01*
X156964095Y-135516952D01*
X156392666Y-136088380D01*
X157011714Y-136088380D01*
X157630761Y-135088380D02*
X157726000Y-135088380D01*
X157821238Y-135136000D01*
X157868857Y-135183619D01*
X157916476Y-135278857D01*
X157964095Y-135469333D01*
X157964095Y-135707428D01*
X157916476Y-135897904D01*
X157868857Y-135993142D01*
X157821238Y-136040761D01*
X157726000Y-136088380D01*
X157630761Y-136088380D01*
X157535523Y-136040761D01*
X157487904Y-135993142D01*
X157440285Y-135897904D01*
X157392666Y-135707428D01*
X157392666Y-135469333D01*
X157440285Y-135278857D01*
X157487904Y-135183619D01*
X157535523Y-135136000D01*
X157630761Y-135088380D01*
X158964095Y-136088380D02*
X158630761Y-135612190D01*
X158392666Y-136088380D02*
X158392666Y-135088380D01*
X158773619Y-135088380D01*
X158868857Y-135136000D01*
X158916476Y-135183619D01*
X158964095Y-135278857D01*
X158964095Y-135421714D01*
X158916476Y-135516952D01*
X158868857Y-135564571D01*
X158773619Y-135612190D01*
X158392666Y-135612190D01*
%TO.C,R1*%
X150201333Y-116784380D02*
X149868000Y-116308190D01*
X149629904Y-116784380D02*
X149629904Y-115784380D01*
X150010857Y-115784380D01*
X150106095Y-115832000D01*
X150153714Y-115879619D01*
X150201333Y-115974857D01*
X150201333Y-116117714D01*
X150153714Y-116212952D01*
X150106095Y-116260571D01*
X150010857Y-116308190D01*
X149629904Y-116308190D01*
X151153714Y-116784380D02*
X150582285Y-116784380D01*
X150868000Y-116784380D02*
X150868000Y-115784380D01*
X150772761Y-115927238D01*
X150677523Y-116022476D01*
X150582285Y-116070095D01*
X143898952Y-116784380D02*
X143327523Y-116784380D01*
X143613238Y-116784380D02*
X143613238Y-115784380D01*
X143518000Y-115927238D01*
X143422761Y-116022476D01*
X143327523Y-116070095D01*
X144327523Y-116784380D02*
X144327523Y-115784380D01*
X144422761Y-116403428D02*
X144708476Y-116784380D01*
X144708476Y-116117714D02*
X144327523Y-116498666D01*
%TO.C,D1*%
X159202380Y-124690095D02*
X158202380Y-124690095D01*
X158202380Y-124452000D01*
X158250000Y-124309142D01*
X158345238Y-124213904D01*
X158440476Y-124166285D01*
X158630952Y-124118666D01*
X158773809Y-124118666D01*
X158964285Y-124166285D01*
X159059523Y-124213904D01*
X159154761Y-124309142D01*
X159202380Y-124452000D01*
X159202380Y-124690095D01*
X159202380Y-123166285D02*
X159202380Y-123737714D01*
X159202380Y-123452000D02*
X158202380Y-123452000D01*
X158345238Y-123547238D01*
X158440476Y-123642476D01*
X158488095Y-123737714D01*
X157170380Y-126094857D02*
X157170380Y-126666285D01*
X157170380Y-126380571D02*
X156170380Y-126380571D01*
X156313238Y-126475809D01*
X156408476Y-126571047D01*
X156456095Y-126666285D01*
X157170380Y-125666285D02*
X156170380Y-125666285D01*
X157170380Y-125094857D01*
X156170380Y-125094857D01*
X156503714Y-124190095D02*
X157170380Y-124190095D01*
X156122761Y-124428190D02*
X156837047Y-124666285D01*
X156837047Y-124047238D01*
X157170380Y-123142476D02*
X157170380Y-123713904D01*
X157170380Y-123428190D02*
X156170380Y-123428190D01*
X156313238Y-123523428D01*
X156408476Y-123618666D01*
X156456095Y-123713904D01*
X156503714Y-122285333D02*
X157170380Y-122285333D01*
X156122761Y-122523428D02*
X156837047Y-122761523D01*
X156837047Y-122142476D01*
X156598952Y-121618666D02*
X156551333Y-121713904D01*
X156503714Y-121761523D01*
X156408476Y-121809142D01*
X156360857Y-121809142D01*
X156265619Y-121761523D01*
X156218000Y-121713904D01*
X156170380Y-121618666D01*
X156170380Y-121428190D01*
X156218000Y-121332952D01*
X156265619Y-121285333D01*
X156360857Y-121237714D01*
X156408476Y-121237714D01*
X156503714Y-121285333D01*
X156551333Y-121332952D01*
X156598952Y-121428190D01*
X156598952Y-121618666D01*
X156646571Y-121713904D01*
X156694190Y-121761523D01*
X156789428Y-121809142D01*
X156979904Y-121809142D01*
X157075142Y-121761523D01*
X157122761Y-121713904D01*
X157170380Y-121618666D01*
X157170380Y-121428190D01*
X157122761Y-121332952D01*
X157075142Y-121285333D01*
X156979904Y-121237714D01*
X156789428Y-121237714D01*
X156694190Y-121285333D01*
X156646571Y-121332952D01*
X156598952Y-121428190D01*
X159202380Y-130309904D02*
X158202380Y-130309904D01*
X159202380Y-129738476D02*
X158630952Y-130167047D01*
X158202380Y-129738476D02*
X158773809Y-130309904D01*
%TO.C,C4*%
X156083333Y-112625142D02*
X156035714Y-112672761D01*
X155892857Y-112720380D01*
X155797619Y-112720380D01*
X155654761Y-112672761D01*
X155559523Y-112577523D01*
X155511904Y-112482285D01*
X155464285Y-112291809D01*
X155464285Y-112148952D01*
X155511904Y-111958476D01*
X155559523Y-111863238D01*
X155654761Y-111768000D01*
X155797619Y-111720380D01*
X155892857Y-111720380D01*
X156035714Y-111768000D01*
X156083333Y-111815619D01*
X156940476Y-112053714D02*
X156940476Y-112720380D01*
X156702380Y-111672761D02*
X156464285Y-112387047D01*
X157083333Y-112387047D01*
X149502952Y-112720380D02*
X148931523Y-112720380D01*
X149217238Y-112720380D02*
X149217238Y-111720380D01*
X149122000Y-111863238D01*
X149026761Y-111958476D01*
X148931523Y-112006095D01*
X150122000Y-111720380D02*
X150217238Y-111720380D01*
X150312476Y-111768000D01*
X150360095Y-111815619D01*
X150407714Y-111910857D01*
X150455333Y-112101333D01*
X150455333Y-112339428D01*
X150407714Y-112529904D01*
X150360095Y-112625142D01*
X150312476Y-112672761D01*
X150217238Y-112720380D01*
X150122000Y-112720380D01*
X150026761Y-112672761D01*
X149979142Y-112625142D01*
X149931523Y-112529904D01*
X149883904Y-112339428D01*
X149883904Y-112101333D01*
X149931523Y-111910857D01*
X149979142Y-111815619D01*
X150026761Y-111768000D01*
X150122000Y-111720380D01*
X151074380Y-111720380D02*
X151169619Y-111720380D01*
X151264857Y-111768000D01*
X151312476Y-111815619D01*
X151360095Y-111910857D01*
X151407714Y-112101333D01*
X151407714Y-112339428D01*
X151360095Y-112529904D01*
X151312476Y-112625142D01*
X151264857Y-112672761D01*
X151169619Y-112720380D01*
X151074380Y-112720380D01*
X150979142Y-112672761D01*
X150931523Y-112625142D01*
X150883904Y-112529904D01*
X150836285Y-112339428D01*
X150836285Y-112101333D01*
X150883904Y-111910857D01*
X150931523Y-111815619D01*
X150979142Y-111768000D01*
X151074380Y-111720380D01*
X151836285Y-112053714D02*
X151836285Y-112720380D01*
X151836285Y-112148952D02*
X151883904Y-112101333D01*
X151979142Y-112053714D01*
X152122000Y-112053714D01*
X152217238Y-112101333D01*
X152264857Y-112196571D01*
X152264857Y-112720380D01*
%TO.C,C3*%
X156043333Y-108561142D02*
X155995714Y-108608761D01*
X155852857Y-108656380D01*
X155757619Y-108656380D01*
X155614761Y-108608761D01*
X155519523Y-108513523D01*
X155471904Y-108418285D01*
X155424285Y-108227809D01*
X155424285Y-108084952D01*
X155471904Y-107894476D01*
X155519523Y-107799238D01*
X155614761Y-107704000D01*
X155757619Y-107656380D01*
X155852857Y-107656380D01*
X155995714Y-107704000D01*
X156043333Y-107751619D01*
X156376666Y-107656380D02*
X156995714Y-107656380D01*
X156662380Y-108037333D01*
X156805238Y-108037333D01*
X156900476Y-108084952D01*
X156948095Y-108132571D01*
X156995714Y-108227809D01*
X156995714Y-108465904D01*
X156948095Y-108561142D01*
X156900476Y-108608761D01*
X156805238Y-108656380D01*
X156519523Y-108656380D01*
X156424285Y-108608761D01*
X156376666Y-108561142D01*
X149502952Y-108656380D02*
X148931523Y-108656380D01*
X149217238Y-108656380D02*
X149217238Y-107656380D01*
X149122000Y-107799238D01*
X149026761Y-107894476D01*
X148931523Y-107942095D01*
X150122000Y-107656380D02*
X150217238Y-107656380D01*
X150312476Y-107704000D01*
X150360095Y-107751619D01*
X150407714Y-107846857D01*
X150455333Y-108037333D01*
X150455333Y-108275428D01*
X150407714Y-108465904D01*
X150360095Y-108561142D01*
X150312476Y-108608761D01*
X150217238Y-108656380D01*
X150122000Y-108656380D01*
X150026761Y-108608761D01*
X149979142Y-108561142D01*
X149931523Y-108465904D01*
X149883904Y-108275428D01*
X149883904Y-108037333D01*
X149931523Y-107846857D01*
X149979142Y-107751619D01*
X150026761Y-107704000D01*
X150122000Y-107656380D01*
X151074380Y-107656380D02*
X151169619Y-107656380D01*
X151264857Y-107704000D01*
X151312476Y-107751619D01*
X151360095Y-107846857D01*
X151407714Y-108037333D01*
X151407714Y-108275428D01*
X151360095Y-108465904D01*
X151312476Y-108561142D01*
X151264857Y-108608761D01*
X151169619Y-108656380D01*
X151074380Y-108656380D01*
X150979142Y-108608761D01*
X150931523Y-108561142D01*
X150883904Y-108465904D01*
X150836285Y-108275428D01*
X150836285Y-108037333D01*
X150883904Y-107846857D01*
X150931523Y-107751619D01*
X150979142Y-107704000D01*
X151074380Y-107656380D01*
X152264857Y-107989714D02*
X152264857Y-108656380D01*
X151836285Y-107989714D02*
X151836285Y-108513523D01*
X151883904Y-108608761D01*
X151979142Y-108656380D01*
X152122000Y-108656380D01*
X152217238Y-108608761D01*
X152264857Y-108561142D01*
%TO.C,C2*%
X148931333Y-120753142D02*
X148883714Y-120800761D01*
X148740857Y-120848380D01*
X148645619Y-120848380D01*
X148502761Y-120800761D01*
X148407523Y-120705523D01*
X148359904Y-120610285D01*
X148312285Y-120419809D01*
X148312285Y-120276952D01*
X148359904Y-120086476D01*
X148407523Y-119991238D01*
X148502761Y-119896000D01*
X148645619Y-119848380D01*
X148740857Y-119848380D01*
X148883714Y-119896000D01*
X148931333Y-119943619D01*
X149312285Y-119943619D02*
X149359904Y-119896000D01*
X149455142Y-119848380D01*
X149693238Y-119848380D01*
X149788476Y-119896000D01*
X149836095Y-119943619D01*
X149883714Y-120038857D01*
X149883714Y-120134095D01*
X149836095Y-120276952D01*
X149264666Y-120848380D01*
X149883714Y-120848380D01*
X142390952Y-120594380D02*
X141819523Y-120594380D01*
X142105238Y-120594380D02*
X142105238Y-119594380D01*
X142010000Y-119737238D01*
X141914761Y-119832476D01*
X141819523Y-119880095D01*
X143010000Y-119594380D02*
X143105238Y-119594380D01*
X143200476Y-119642000D01*
X143248095Y-119689619D01*
X143295714Y-119784857D01*
X143343333Y-119975333D01*
X143343333Y-120213428D01*
X143295714Y-120403904D01*
X143248095Y-120499142D01*
X143200476Y-120546761D01*
X143105238Y-120594380D01*
X143010000Y-120594380D01*
X142914761Y-120546761D01*
X142867142Y-120499142D01*
X142819523Y-120403904D01*
X142771904Y-120213428D01*
X142771904Y-119975333D01*
X142819523Y-119784857D01*
X142867142Y-119689619D01*
X142914761Y-119642000D01*
X143010000Y-119594380D01*
X143962380Y-119594380D02*
X144057619Y-119594380D01*
X144152857Y-119642000D01*
X144200476Y-119689619D01*
X144248095Y-119784857D01*
X144295714Y-119975333D01*
X144295714Y-120213428D01*
X144248095Y-120403904D01*
X144200476Y-120499142D01*
X144152857Y-120546761D01*
X144057619Y-120594380D01*
X143962380Y-120594380D01*
X143867142Y-120546761D01*
X143819523Y-120499142D01*
X143771904Y-120403904D01*
X143724285Y-120213428D01*
X143724285Y-119975333D01*
X143771904Y-119784857D01*
X143819523Y-119689619D01*
X143867142Y-119642000D01*
X143962380Y-119594380D01*
X144724285Y-119927714D02*
X144724285Y-120594380D01*
X144724285Y-120022952D02*
X144771904Y-119975333D01*
X144867142Y-119927714D01*
X145010000Y-119927714D01*
X145105238Y-119975333D01*
X145152857Y-120070571D01*
X145152857Y-120594380D01*
%TO.C,C1*%
X150201333Y-70461142D02*
X150153714Y-70508761D01*
X150010857Y-70556380D01*
X149915619Y-70556380D01*
X149772761Y-70508761D01*
X149677523Y-70413523D01*
X149629904Y-70318285D01*
X149582285Y-70127809D01*
X149582285Y-69984952D01*
X149629904Y-69794476D01*
X149677523Y-69699238D01*
X149772761Y-69604000D01*
X149915619Y-69556380D01*
X150010857Y-69556380D01*
X150153714Y-69604000D01*
X150201333Y-69651619D01*
X151153714Y-70556380D02*
X150582285Y-70556380D01*
X150868000Y-70556380D02*
X150868000Y-69556380D01*
X150772761Y-69699238D01*
X150677523Y-69794476D01*
X150582285Y-69842095D01*
X149677809Y-71667714D02*
X149677809Y-72334380D01*
X149439714Y-71286761D02*
X149201619Y-72001047D01*
X149820666Y-72001047D01*
X150106380Y-71334380D02*
X150773047Y-71334380D01*
X150344476Y-72334380D01*
X151344476Y-71334380D02*
X151439714Y-71334380D01*
X151534952Y-71382000D01*
X151582571Y-71429619D01*
X151630190Y-71524857D01*
X151677809Y-71715333D01*
X151677809Y-71953428D01*
X151630190Y-72143904D01*
X151582571Y-72239142D01*
X151534952Y-72286761D01*
X151439714Y-72334380D01*
X151344476Y-72334380D01*
X151249238Y-72286761D01*
X151201619Y-72239142D01*
X151154000Y-72143904D01*
X151106380Y-71953428D01*
X151106380Y-71715333D01*
X151154000Y-71524857D01*
X151201619Y-71429619D01*
X151249238Y-71382000D01*
X151344476Y-71334380D01*
X152534952Y-71667714D02*
X152534952Y-72334380D01*
X152106380Y-71667714D02*
X152106380Y-72191523D01*
X152154000Y-72286761D01*
X152249238Y-72334380D01*
X152392095Y-72334380D01*
X152487333Y-72286761D01*
X152534952Y-72239142D01*
X154296857Y-72334380D02*
X153725428Y-72334380D01*
X154011142Y-72334380D02*
X154011142Y-71334380D01*
X153915904Y-71477238D01*
X153820666Y-71572476D01*
X153725428Y-71620095D01*
X154915904Y-71334380D02*
X155011142Y-71334380D01*
X155106380Y-71382000D01*
X155154000Y-71429619D01*
X155201619Y-71524857D01*
X155249238Y-71715333D01*
X155249238Y-71953428D01*
X155201619Y-72143904D01*
X155154000Y-72239142D01*
X155106380Y-72286761D01*
X155011142Y-72334380D01*
X154915904Y-72334380D01*
X154820666Y-72286761D01*
X154773047Y-72239142D01*
X154725428Y-72143904D01*
X154677809Y-71953428D01*
X154677809Y-71715333D01*
X154725428Y-71524857D01*
X154773047Y-71429619D01*
X154820666Y-71382000D01*
X154915904Y-71334380D01*
X155534952Y-71334380D02*
X155868285Y-72334380D01*
X156201619Y-71334380D01*
%TD*%
M02*
