M48
; DRILL file {KiCad 5.99.0+really5.1.10+dfsg1-1} date Thu Oct  7 20:27:43 2021
; FORMAT={-:-/ absolute / inch / decimal}
; #@! TF.CreationDate,2021-10-07T20:27:43+11:00
; #@! TF.GenerationSoftware,Kicad,Pcbnew,5.99.0+really5.1.10+dfsg1-1
; #@! TF.FileFunction,Plated,1,2,PTH
FMAT,2
INCH
T1C0.0315
T2C0.0394
T3C0.0430
%
G90
G05
T1
X5.61Y-2.72
X5.665Y-4.58
X5.7478Y-2.72
X5.75Y-4.93
X5.75Y-5.03
X5.75Y-5.13
X5.79Y-4.7331
X5.86Y-4.28
X5.86Y-4.3784
X5.9869Y-4.7331
X6.05Y-4.93
X6.05Y-5.03
X6.05Y-5.13
X6.065Y-4.58
X6.25Y-4.23
X6.25Y-4.4269
X6.25Y-4.57
X6.25Y-4.87
X6.25Y-4.99
X6.25Y-5.39
T2
X4.3931Y-4.7825
X4.3931Y-4.8825
X4.3931Y-4.9825
X4.3931Y-5.0825
X4.3931Y-5.1825
X4.3931Y-5.2825
X4.4291Y-3.4567
X4.5276Y-2.0197
X4.5276Y-2.2165
X4.5276Y-2.5709
X4.5276Y-2.7677
X4.5276Y-3.0433
X4.5276Y-3.2402
X4.5276Y-3.6732
X4.5276Y-3.8701
X4.5665Y-4.9739
X4.626Y-3.4567
X4.6654Y-4.5197
X4.6654Y-4.6197
X4.6654Y-4.7197
X4.6654Y-4.8197
X4.6665Y-4.9739
X4.7047Y-3.1417
X4.7047Y-3.7717
X4.7665Y-4.9739
X4.8031Y-2.0197
X4.8031Y-2.2165
X4.8031Y-2.5709
X4.8031Y-2.7677
X4.8031Y-3.3583
X4.8031Y-3.5551
X4.8661Y-4.5197
X4.8661Y-4.6197
X4.8661Y-4.7197
X4.8661Y-4.8197
X4.8665Y-4.9739
X4.9016Y-3.1417
X4.9016Y-3.7717
X5.2Y-3.78
X5.2Y-3.88
X5.2Y-3.98
X5.2Y-4.08
X5.2Y-4.78
X5.2Y-4.88
X5.2Y-4.98
X5.2Y-5.08
X5.2Y-5.18
X5.2Y-5.28
X5.39Y-3.48
X5.39Y-3.58
X5.39Y-3.68
X5.39Y-3.78
X5.39Y-3.88
X5.39Y-3.98
X5.39Y-4.08
X5.39Y-4.18
X5.39Y-4.28
X5.39Y-4.38
X5.39Y-4.48
X5.39Y-4.58
X5.39Y-4.68
X5.39Y-4.78
X5.39Y-4.88
X5.39Y-4.98
X5.39Y-5.08
X5.39Y-5.18
X5.39Y-5.28
X5.39Y-5.38
X5.49Y-3.48
X5.49Y-3.58
X5.49Y-3.68
X5.49Y-3.78
X5.49Y-3.88
X5.49Y-3.98
X5.49Y-4.08
X5.49Y-4.18
X5.49Y-4.28
X5.49Y-4.38
X5.49Y-4.48
X5.49Y-4.58
X5.49Y-4.68
X5.49Y-4.78
X5.49Y-4.88
X5.49Y-4.98
X5.49Y-5.08
X5.49Y-5.18
X5.49Y-5.28
X5.49Y-5.38
X5.66Y-5.38
X5.725Y-3.05
X5.725Y-3.15
X5.725Y-3.25
X5.725Y-3.35
X5.725Y-3.45
X5.725Y-3.55
X5.725Y-3.65
X5.725Y-3.75
X5.725Y-3.85
X5.75Y-4.1
X5.76Y-5.38
X5.85Y-4.1
X5.95Y-4.1
X6.05Y-4.1
X6.15Y-4.1
X6.25Y-4.1
T3
X5.362Y-1.848
X5.362Y-2.08
X5.46Y-1.848
X5.46Y-2.08
T2
G00X5.91Y-2.4708
M15
G01X5.91Y-2.5692
M16
G05
G00X5.9887Y-2.335
M15
G01X6.0675Y-2.335
M16
G05
G00X6.1462Y-2.4806
M15
G01X6.1462Y-2.5594
M16
G05
T0
M30
