%TF.GenerationSoftware,KiCad,Pcbnew,5.99.0+really5.1.9+dfsg1-1*%
%TF.CreationDate,2021-05-13T21:59:57+10:00*%
%TF.ProjectId,minisynth32,6d696e69-7379-46e7-9468-33322e6b6963,1.1*%
%TF.SameCoordinates,Original*%
%TF.FileFunction,Legend,Bot*%
%TF.FilePolarity,Positive*%
%FSLAX46Y46*%
G04 Gerber Fmt 4.6, Leading zero omitted, Abs format (unit mm)*
G04 Created by KiCad (PCBNEW 5.99.0+really5.1.9+dfsg1-1) date 2021-05-13 21:59:57*
%MOMM*%
%LPD*%
G01*
G04 APERTURE LIST*
%ADD10C,0.150000*%
%ADD11C,0.120000*%
G04 APERTURE END LIST*
D10*
X158614619Y-99486404D02*
X159614619Y-99486404D01*
X158900333Y-99153071D01*
X159614619Y-98819738D01*
X158614619Y-98819738D01*
X158614619Y-98343547D02*
X159281285Y-98343547D01*
X159614619Y-98343547D02*
X159567000Y-98391166D01*
X159519380Y-98343547D01*
X159567000Y-98295928D01*
X159614619Y-98343547D01*
X159519380Y-98343547D01*
X159281285Y-97867357D02*
X158614619Y-97867357D01*
X159186047Y-97867357D02*
X159233666Y-97819738D01*
X159281285Y-97724500D01*
X159281285Y-97581642D01*
X159233666Y-97486404D01*
X159138428Y-97438785D01*
X158614619Y-97438785D01*
X158614619Y-96962595D02*
X159281285Y-96962595D01*
X159614619Y-96962595D02*
X159567000Y-97010214D01*
X159519380Y-96962595D01*
X159567000Y-96914976D01*
X159614619Y-96962595D01*
X159519380Y-96962595D01*
X158662238Y-96534023D02*
X158614619Y-96438785D01*
X158614619Y-96248309D01*
X158662238Y-96153071D01*
X158757476Y-96105452D01*
X158805095Y-96105452D01*
X158900333Y-96153071D01*
X158947952Y-96248309D01*
X158947952Y-96391166D01*
X158995571Y-96486404D01*
X159090809Y-96534023D01*
X159138428Y-96534023D01*
X159233666Y-96486404D01*
X159281285Y-96391166D01*
X159281285Y-96248309D01*
X159233666Y-96153071D01*
X159281285Y-95772119D02*
X158614619Y-95534023D01*
X159281285Y-95295928D02*
X158614619Y-95534023D01*
X158376523Y-95629261D01*
X158328904Y-95676880D01*
X158281285Y-95772119D01*
X159281285Y-94914976D02*
X158614619Y-94914976D01*
X159186047Y-94914976D02*
X159233666Y-94867357D01*
X159281285Y-94772119D01*
X159281285Y-94629261D01*
X159233666Y-94534023D01*
X159138428Y-94486404D01*
X158614619Y-94486404D01*
X159281285Y-94153071D02*
X159281285Y-93772119D01*
X159614619Y-94010214D02*
X158757476Y-94010214D01*
X158662238Y-93962595D01*
X158614619Y-93867357D01*
X158614619Y-93772119D01*
X158614619Y-93438785D02*
X159614619Y-93438785D01*
X158614619Y-93010214D02*
X159138428Y-93010214D01*
X159233666Y-93057833D01*
X159281285Y-93153071D01*
X159281285Y-93295928D01*
X159233666Y-93391166D01*
X159186047Y-93438785D01*
X159614619Y-91867357D02*
X159614619Y-91248309D01*
X159233666Y-91581642D01*
X159233666Y-91438785D01*
X159186047Y-91343547D01*
X159138428Y-91295928D01*
X159043190Y-91248309D01*
X158805095Y-91248309D01*
X158709857Y-91295928D01*
X158662238Y-91343547D01*
X158614619Y-91438785D01*
X158614619Y-91724500D01*
X158662238Y-91819738D01*
X158709857Y-91867357D01*
X159519380Y-90867357D02*
X159567000Y-90819738D01*
X159614619Y-90724500D01*
X159614619Y-90486404D01*
X159567000Y-90391166D01*
X159519380Y-90343547D01*
X159424142Y-90295928D01*
X159328904Y-90295928D01*
X159186047Y-90343547D01*
X158614619Y-90914976D01*
X158614619Y-90295928D01*
X158709857Y-89867357D02*
X158662238Y-89819738D01*
X158614619Y-89867357D01*
X158662238Y-89914976D01*
X158709857Y-89867357D01*
X158614619Y-89867357D01*
X159233666Y-89867357D02*
X159186047Y-89819738D01*
X159138428Y-89867357D01*
X159186047Y-89914976D01*
X159233666Y-89867357D01*
X159138428Y-89867357D01*
X158614619Y-88057833D02*
X159090809Y-88391166D01*
X158614619Y-88629261D02*
X159614619Y-88629261D01*
X159614619Y-88248309D01*
X159567000Y-88153071D01*
X159519380Y-88105452D01*
X159424142Y-88057833D01*
X159281285Y-88057833D01*
X159186047Y-88105452D01*
X159138428Y-88153071D01*
X159090809Y-88248309D01*
X159090809Y-88629261D01*
X158662238Y-87248309D02*
X158614619Y-87343547D01*
X158614619Y-87534023D01*
X158662238Y-87629261D01*
X158757476Y-87676880D01*
X159138428Y-87676880D01*
X159233666Y-87629261D01*
X159281285Y-87534023D01*
X159281285Y-87343547D01*
X159233666Y-87248309D01*
X159138428Y-87200690D01*
X159043190Y-87200690D01*
X158947952Y-87676880D01*
X158614619Y-86343547D02*
X159138428Y-86343547D01*
X159233666Y-86391166D01*
X159281285Y-86486404D01*
X159281285Y-86676880D01*
X159233666Y-86772119D01*
X158662238Y-86343547D02*
X158614619Y-86438785D01*
X158614619Y-86676880D01*
X158662238Y-86772119D01*
X158757476Y-86819738D01*
X158852714Y-86819738D01*
X158947952Y-86772119D01*
X158995571Y-86676880D01*
X158995571Y-86438785D01*
X159043190Y-86343547D01*
X158614619Y-85867357D02*
X159281285Y-85867357D01*
X159090809Y-85867357D02*
X159186047Y-85819738D01*
X159233666Y-85772119D01*
X159281285Y-85676880D01*
X159281285Y-85581642D01*
X159281285Y-84486404D02*
X158281285Y-84486404D01*
X159233666Y-84486404D02*
X159281285Y-84391166D01*
X159281285Y-84200690D01*
X159233666Y-84105452D01*
X159186047Y-84057833D01*
X159090809Y-84010214D01*
X158805095Y-84010214D01*
X158709857Y-84057833D01*
X158662238Y-84105452D01*
X158614619Y-84200690D01*
X158614619Y-84391166D01*
X158662238Y-84486404D01*
X158614619Y-83153071D02*
X159138428Y-83153071D01*
X159233666Y-83200690D01*
X159281285Y-83295928D01*
X159281285Y-83486404D01*
X159233666Y-83581642D01*
X158662238Y-83153071D02*
X158614619Y-83248309D01*
X158614619Y-83486404D01*
X158662238Y-83581642D01*
X158757476Y-83629261D01*
X158852714Y-83629261D01*
X158947952Y-83581642D01*
X158995571Y-83486404D01*
X158995571Y-83248309D01*
X159043190Y-83153071D01*
X159281285Y-82676880D02*
X158614619Y-82676880D01*
X159186047Y-82676880D02*
X159233666Y-82629261D01*
X159281285Y-82534023D01*
X159281285Y-82391166D01*
X159233666Y-82295928D01*
X159138428Y-82248309D01*
X158614619Y-82248309D01*
X158662238Y-81391166D02*
X158614619Y-81486404D01*
X158614619Y-81676880D01*
X158662238Y-81772119D01*
X158757476Y-81819738D01*
X159138428Y-81819738D01*
X159233666Y-81772119D01*
X159281285Y-81676880D01*
X159281285Y-81486404D01*
X159233666Y-81391166D01*
X159138428Y-81343547D01*
X159043190Y-81343547D01*
X158947952Y-81819738D01*
X158614619Y-80772119D02*
X158662238Y-80867357D01*
X158757476Y-80914976D01*
X159614619Y-80914976D01*
X158614619Y-79629261D02*
X159614619Y-79629261D01*
X159233666Y-79629261D02*
X159281285Y-79534023D01*
X159281285Y-79343547D01*
X159233666Y-79248309D01*
X159186047Y-79200690D01*
X159090809Y-79153071D01*
X158805095Y-79153071D01*
X158709857Y-79200690D01*
X158662238Y-79248309D01*
X158614619Y-79343547D01*
X158614619Y-79534023D01*
X158662238Y-79629261D01*
X158614619Y-78724500D02*
X159281285Y-78724500D01*
X159090809Y-78724500D02*
X159186047Y-78676880D01*
X159233666Y-78629261D01*
X159281285Y-78534023D01*
X159281285Y-78438785D01*
X158662238Y-77724500D02*
X158614619Y-77819738D01*
X158614619Y-78010214D01*
X158662238Y-78105452D01*
X158757476Y-78153071D01*
X159138428Y-78153071D01*
X159233666Y-78105452D01*
X159281285Y-78010214D01*
X159281285Y-77819738D01*
X159233666Y-77724500D01*
X159138428Y-77676880D01*
X159043190Y-77676880D01*
X158947952Y-78153071D01*
X158614619Y-76819738D02*
X159138428Y-76819738D01*
X159233666Y-76867357D01*
X159281285Y-76962595D01*
X159281285Y-77153071D01*
X159233666Y-77248309D01*
X158662238Y-76819738D02*
X158614619Y-76914976D01*
X158614619Y-77153071D01*
X158662238Y-77248309D01*
X158757476Y-77295928D01*
X158852714Y-77295928D01*
X158947952Y-77248309D01*
X158995571Y-77153071D01*
X158995571Y-76914976D01*
X159043190Y-76819738D01*
X158614619Y-76343547D02*
X159614619Y-76343547D01*
X158995571Y-76248309D02*
X158614619Y-75962595D01*
X159281285Y-75962595D02*
X158900333Y-76343547D01*
X158614619Y-75391166D02*
X158662238Y-75486404D01*
X158709857Y-75534023D01*
X158805095Y-75581642D01*
X159090809Y-75581642D01*
X159186047Y-75534023D01*
X159233666Y-75486404D01*
X159281285Y-75391166D01*
X159281285Y-75248309D01*
X159233666Y-75153071D01*
X159186047Y-75105452D01*
X159090809Y-75057833D01*
X158805095Y-75057833D01*
X158709857Y-75105452D01*
X158662238Y-75153071D01*
X158614619Y-75248309D01*
X158614619Y-75391166D01*
X159281285Y-74200690D02*
X158614619Y-74200690D01*
X159281285Y-74629261D02*
X158757476Y-74629261D01*
X158662238Y-74581642D01*
X158614619Y-74486404D01*
X158614619Y-74343547D01*
X158662238Y-74248309D01*
X158709857Y-74200690D01*
X159281285Y-73867357D02*
X159281285Y-73486404D01*
X159614619Y-73724500D02*
X158757476Y-73724500D01*
X158662238Y-73676880D01*
X158614619Y-73581642D01*
X158614619Y-73486404D01*
X158614619Y-72391166D02*
X159614619Y-72391166D01*
X159233666Y-72391166D02*
X159281285Y-72295928D01*
X159281285Y-72105452D01*
X159233666Y-72010214D01*
X159186047Y-71962595D01*
X159090809Y-71914976D01*
X158805095Y-71914976D01*
X158709857Y-71962595D01*
X158662238Y-72010214D01*
X158614619Y-72105452D01*
X158614619Y-72295928D01*
X158662238Y-72391166D01*
X158614619Y-71343547D02*
X158662238Y-71438785D01*
X158709857Y-71486404D01*
X158805095Y-71534023D01*
X159090809Y-71534023D01*
X159186047Y-71486404D01*
X159233666Y-71438785D01*
X159281285Y-71343547D01*
X159281285Y-71200690D01*
X159233666Y-71105452D01*
X159186047Y-71057833D01*
X159090809Y-71010214D01*
X158805095Y-71010214D01*
X158709857Y-71057833D01*
X158662238Y-71105452D01*
X158614619Y-71200690D01*
X158614619Y-71343547D01*
X158614619Y-70153071D02*
X159138428Y-70153071D01*
X159233666Y-70200690D01*
X159281285Y-70295928D01*
X159281285Y-70486404D01*
X159233666Y-70581642D01*
X158662238Y-70153071D02*
X158614619Y-70248309D01*
X158614619Y-70486404D01*
X158662238Y-70581642D01*
X158757476Y-70629261D01*
X158852714Y-70629261D01*
X158947952Y-70581642D01*
X158995571Y-70486404D01*
X158995571Y-70248309D01*
X159043190Y-70153071D01*
X158614619Y-69676880D02*
X159281285Y-69676880D01*
X159090809Y-69676880D02*
X159186047Y-69629261D01*
X159233666Y-69581642D01*
X159281285Y-69486404D01*
X159281285Y-69391166D01*
X158614619Y-68629261D02*
X159614619Y-68629261D01*
X158662238Y-68629261D02*
X158614619Y-68724500D01*
X158614619Y-68914976D01*
X158662238Y-69010214D01*
X158709857Y-69057833D01*
X158805095Y-69105452D01*
X159090809Y-69105452D01*
X159186047Y-69057833D01*
X159233666Y-69010214D01*
X159281285Y-68914976D01*
X159281285Y-68724500D01*
X159233666Y-68629261D01*
X156964619Y-99486404D02*
X157964619Y-99486404D01*
X156964619Y-99057833D02*
X157488428Y-99057833D01*
X157583666Y-99105452D01*
X157631285Y-99200690D01*
X157631285Y-99343547D01*
X157583666Y-99438785D01*
X157536047Y-99486404D01*
X157631285Y-98724500D02*
X157631285Y-98343547D01*
X157964619Y-98581642D02*
X157107476Y-98581642D01*
X157012238Y-98534023D01*
X156964619Y-98438785D01*
X156964619Y-98343547D01*
X157631285Y-98153071D02*
X157631285Y-97772119D01*
X157964619Y-98010214D02*
X157107476Y-98010214D01*
X157012238Y-97962595D01*
X156964619Y-97867357D01*
X156964619Y-97772119D01*
X157631285Y-97438785D02*
X156631285Y-97438785D01*
X157583666Y-97438785D02*
X157631285Y-97343547D01*
X157631285Y-97153071D01*
X157583666Y-97057833D01*
X157536047Y-97010214D01*
X157440809Y-96962595D01*
X157155095Y-96962595D01*
X157059857Y-97010214D01*
X157012238Y-97057833D01*
X156964619Y-97153071D01*
X156964619Y-97343547D01*
X157012238Y-97438785D01*
X157012238Y-96581642D02*
X156964619Y-96486404D01*
X156964619Y-96295928D01*
X157012238Y-96200690D01*
X157107476Y-96153071D01*
X157155095Y-96153071D01*
X157250333Y-96200690D01*
X157297952Y-96295928D01*
X157297952Y-96438785D01*
X157345571Y-96534023D01*
X157440809Y-96581642D01*
X157488428Y-96581642D01*
X157583666Y-96534023D01*
X157631285Y-96438785D01*
X157631285Y-96295928D01*
X157583666Y-96200690D01*
X157059857Y-95724500D02*
X157012238Y-95676880D01*
X156964619Y-95724500D01*
X157012238Y-95772119D01*
X157059857Y-95724500D01*
X156964619Y-95724500D01*
X157583666Y-95724500D02*
X157536047Y-95676880D01*
X157488428Y-95724500D01*
X157536047Y-95772119D01*
X157583666Y-95724500D01*
X157488428Y-95724500D01*
X158012238Y-94534023D02*
X156726523Y-95391166D01*
X158012238Y-93486404D02*
X156726523Y-94343547D01*
X157631285Y-92724500D02*
X156821761Y-92724500D01*
X156726523Y-92772119D01*
X156678904Y-92819738D01*
X156631285Y-92914976D01*
X156631285Y-93057833D01*
X156678904Y-93153071D01*
X157012238Y-92724500D02*
X156964619Y-92819738D01*
X156964619Y-93010214D01*
X157012238Y-93105452D01*
X157059857Y-93153071D01*
X157155095Y-93200690D01*
X157440809Y-93200690D01*
X157536047Y-93153071D01*
X157583666Y-93105452D01*
X157631285Y-93010214D01*
X157631285Y-92819738D01*
X157583666Y-92724500D01*
X156964619Y-92248309D02*
X157631285Y-92248309D01*
X157964619Y-92248309D02*
X157917000Y-92295928D01*
X157869380Y-92248309D01*
X157917000Y-92200690D01*
X157964619Y-92248309D01*
X157869380Y-92248309D01*
X157631285Y-91914976D02*
X157631285Y-91534023D01*
X157964619Y-91772119D02*
X157107476Y-91772119D01*
X157012238Y-91724500D01*
X156964619Y-91629261D01*
X156964619Y-91534023D01*
X156964619Y-91200690D02*
X157964619Y-91200690D01*
X156964619Y-90772119D02*
X157488428Y-90772119D01*
X157583666Y-90819738D01*
X157631285Y-90914976D01*
X157631285Y-91057833D01*
X157583666Y-91153071D01*
X157536047Y-91200690D01*
X157631285Y-89867357D02*
X156964619Y-89867357D01*
X157631285Y-90295928D02*
X157107476Y-90295928D01*
X157012238Y-90248309D01*
X156964619Y-90153071D01*
X156964619Y-90010214D01*
X157012238Y-89914976D01*
X157059857Y-89867357D01*
X156964619Y-89391166D02*
X157964619Y-89391166D01*
X157583666Y-89391166D02*
X157631285Y-89295928D01*
X157631285Y-89105452D01*
X157583666Y-89010214D01*
X157536047Y-88962595D01*
X157440809Y-88914976D01*
X157155095Y-88914976D01*
X157059857Y-88962595D01*
X157012238Y-89010214D01*
X156964619Y-89105452D01*
X156964619Y-89295928D01*
X157012238Y-89391166D01*
X157059857Y-88486404D02*
X157012238Y-88438785D01*
X156964619Y-88486404D01*
X157012238Y-88534023D01*
X157059857Y-88486404D01*
X156964619Y-88486404D01*
X157012238Y-87581642D02*
X156964619Y-87676880D01*
X156964619Y-87867357D01*
X157012238Y-87962595D01*
X157059857Y-88010214D01*
X157155095Y-88057833D01*
X157440809Y-88057833D01*
X157536047Y-88010214D01*
X157583666Y-87962595D01*
X157631285Y-87867357D01*
X157631285Y-87676880D01*
X157583666Y-87581642D01*
X156964619Y-87010214D02*
X157012238Y-87105452D01*
X157059857Y-87153071D01*
X157155095Y-87200690D01*
X157440809Y-87200690D01*
X157536047Y-87153071D01*
X157583666Y-87105452D01*
X157631285Y-87010214D01*
X157631285Y-86867357D01*
X157583666Y-86772119D01*
X157536047Y-86724500D01*
X157440809Y-86676880D01*
X157155095Y-86676880D01*
X157059857Y-86724500D01*
X157012238Y-86772119D01*
X156964619Y-86867357D01*
X156964619Y-87010214D01*
X156964619Y-86248309D02*
X157631285Y-86248309D01*
X157536047Y-86248309D02*
X157583666Y-86200690D01*
X157631285Y-86105452D01*
X157631285Y-85962595D01*
X157583666Y-85867357D01*
X157488428Y-85819738D01*
X156964619Y-85819738D01*
X157488428Y-85819738D02*
X157583666Y-85772119D01*
X157631285Y-85676880D01*
X157631285Y-85534023D01*
X157583666Y-85438785D01*
X157488428Y-85391166D01*
X156964619Y-85391166D01*
X158012238Y-84200690D02*
X156726523Y-85057833D01*
X157631285Y-83438785D02*
X156821761Y-83438785D01*
X156726523Y-83486404D01*
X156678904Y-83534023D01*
X156631285Y-83629261D01*
X156631285Y-83772119D01*
X156678904Y-83867357D01*
X157012238Y-83438785D02*
X156964619Y-83534023D01*
X156964619Y-83724500D01*
X157012238Y-83819738D01*
X157059857Y-83867357D01*
X157155095Y-83914976D01*
X157440809Y-83914976D01*
X157536047Y-83867357D01*
X157583666Y-83819738D01*
X157631285Y-83724500D01*
X157631285Y-83534023D01*
X157583666Y-83438785D01*
X156964619Y-82962595D02*
X157631285Y-82962595D01*
X157440809Y-82962595D02*
X157536047Y-82914976D01*
X157583666Y-82867357D01*
X157631285Y-82772119D01*
X157631285Y-82676880D01*
X156964619Y-81914976D02*
X157488428Y-81914976D01*
X157583666Y-81962595D01*
X157631285Y-82057833D01*
X157631285Y-82248309D01*
X157583666Y-82343547D01*
X157012238Y-81914976D02*
X156964619Y-82010214D01*
X156964619Y-82248309D01*
X157012238Y-82343547D01*
X157107476Y-82391166D01*
X157202714Y-82391166D01*
X157297952Y-82343547D01*
X157345571Y-82248309D01*
X157345571Y-82010214D01*
X157393190Y-81914976D01*
X157631285Y-81438785D02*
X156964619Y-81438785D01*
X157536047Y-81438785D02*
X157583666Y-81391166D01*
X157631285Y-81295928D01*
X157631285Y-81153071D01*
X157583666Y-81057833D01*
X157488428Y-81010214D01*
X156964619Y-81010214D01*
X157631285Y-80676880D02*
X157631285Y-80295928D01*
X157964619Y-80534023D02*
X157107476Y-80534023D01*
X157012238Y-80486404D01*
X156964619Y-80391166D01*
X156964619Y-80295928D01*
X157012238Y-79581642D02*
X156964619Y-79676880D01*
X156964619Y-79867357D01*
X157012238Y-79962595D01*
X157107476Y-80010214D01*
X157488428Y-80010214D01*
X157583666Y-79962595D01*
X157631285Y-79867357D01*
X157631285Y-79676880D01*
X157583666Y-79581642D01*
X157488428Y-79534023D01*
X157393190Y-79534023D01*
X157297952Y-80010214D01*
X156964619Y-79105452D02*
X157964619Y-79105452D01*
X157345571Y-79010214D02*
X156964619Y-78724500D01*
X157631285Y-78724500D02*
X157250333Y-79105452D01*
X158012238Y-77581642D02*
X156726523Y-78438785D01*
X156964619Y-77248309D02*
X157631285Y-77248309D01*
X157536047Y-77248309D02*
X157583666Y-77200690D01*
X157631285Y-77105452D01*
X157631285Y-76962595D01*
X157583666Y-76867357D01*
X157488428Y-76819738D01*
X156964619Y-76819738D01*
X157488428Y-76819738D02*
X157583666Y-76772119D01*
X157631285Y-76676880D01*
X157631285Y-76534023D01*
X157583666Y-76438785D01*
X157488428Y-76391166D01*
X156964619Y-76391166D01*
X156964619Y-75914976D02*
X157631285Y-75914976D01*
X157964619Y-75914976D02*
X157917000Y-75962595D01*
X157869380Y-75914976D01*
X157917000Y-75867357D01*
X157964619Y-75914976D01*
X157869380Y-75914976D01*
X157631285Y-75438785D02*
X156964619Y-75438785D01*
X157536047Y-75438785D02*
X157583666Y-75391166D01*
X157631285Y-75295928D01*
X157631285Y-75153071D01*
X157583666Y-75057833D01*
X157488428Y-75010214D01*
X156964619Y-75010214D01*
X156964619Y-74534023D02*
X157631285Y-74534023D01*
X157964619Y-74534023D02*
X157917000Y-74581642D01*
X157869380Y-74534023D01*
X157917000Y-74486404D01*
X157964619Y-74534023D01*
X157869380Y-74534023D01*
X157012238Y-74105452D02*
X156964619Y-74010214D01*
X156964619Y-73819738D01*
X157012238Y-73724500D01*
X157107476Y-73676880D01*
X157155095Y-73676880D01*
X157250333Y-73724500D01*
X157297952Y-73819738D01*
X157297952Y-73962595D01*
X157345571Y-74057833D01*
X157440809Y-74105452D01*
X157488428Y-74105452D01*
X157583666Y-74057833D01*
X157631285Y-73962595D01*
X157631285Y-73819738D01*
X157583666Y-73724500D01*
X157631285Y-73343547D02*
X156964619Y-73105452D01*
X157631285Y-72867357D02*
X156964619Y-73105452D01*
X156726523Y-73200690D01*
X156678904Y-73248309D01*
X156631285Y-73343547D01*
X157631285Y-72486404D02*
X156964619Y-72486404D01*
X157536047Y-72486404D02*
X157583666Y-72438785D01*
X157631285Y-72343547D01*
X157631285Y-72200690D01*
X157583666Y-72105452D01*
X157488428Y-72057833D01*
X156964619Y-72057833D01*
X157631285Y-71724500D02*
X157631285Y-71343547D01*
X157964619Y-71581642D02*
X157107476Y-71581642D01*
X157012238Y-71534023D01*
X156964619Y-71438785D01*
X156964619Y-71343547D01*
X156964619Y-71010214D02*
X157964619Y-71010214D01*
X156964619Y-70581642D02*
X157488428Y-70581642D01*
X157583666Y-70629261D01*
X157631285Y-70724500D01*
X157631285Y-70867357D01*
X157583666Y-70962595D01*
X157536047Y-71010214D01*
X157964619Y-70200690D02*
X157964619Y-69581642D01*
X157583666Y-69914976D01*
X157583666Y-69772119D01*
X157536047Y-69676880D01*
X157488428Y-69629261D01*
X157393190Y-69581642D01*
X157155095Y-69581642D01*
X157059857Y-69629261D01*
X157012238Y-69676880D01*
X156964619Y-69772119D01*
X156964619Y-70057833D01*
X157012238Y-70153071D01*
X157059857Y-70200690D01*
X157869380Y-69200690D02*
X157917000Y-69153071D01*
X157964619Y-69057833D01*
X157964619Y-68819738D01*
X157917000Y-68724500D01*
X157869380Y-68676880D01*
X157774142Y-68629261D01*
X157678904Y-68629261D01*
X157536047Y-68676880D01*
X156964619Y-69248309D01*
X156964619Y-68629261D01*
X122817380Y-58755595D02*
X121817380Y-58755595D01*
X122531666Y-59088928D01*
X121817380Y-59422261D01*
X122817380Y-59422261D01*
X122817380Y-59898452D02*
X122150714Y-59898452D01*
X121817380Y-59898452D02*
X121865000Y-59850833D01*
X121912619Y-59898452D01*
X121865000Y-59946071D01*
X121817380Y-59898452D01*
X121912619Y-59898452D01*
X122150714Y-60374642D02*
X122817380Y-60374642D01*
X122245952Y-60374642D02*
X122198333Y-60422261D01*
X122150714Y-60517500D01*
X122150714Y-60660357D01*
X122198333Y-60755595D01*
X122293571Y-60803214D01*
X122817380Y-60803214D01*
X122817380Y-61279404D02*
X122150714Y-61279404D01*
X121817380Y-61279404D02*
X121865000Y-61231785D01*
X121912619Y-61279404D01*
X121865000Y-61327023D01*
X121817380Y-61279404D01*
X121912619Y-61279404D01*
X122769761Y-61707976D02*
X122817380Y-61803214D01*
X122817380Y-61993690D01*
X122769761Y-62088928D01*
X122674523Y-62136547D01*
X122626904Y-62136547D01*
X122531666Y-62088928D01*
X122484047Y-61993690D01*
X122484047Y-61850833D01*
X122436428Y-61755595D01*
X122341190Y-61707976D01*
X122293571Y-61707976D01*
X122198333Y-61755595D01*
X122150714Y-61850833D01*
X122150714Y-61993690D01*
X122198333Y-62088928D01*
X122150714Y-62469880D02*
X122817380Y-62707976D01*
X122150714Y-62946071D02*
X122817380Y-62707976D01*
X123055476Y-62612738D01*
X123103095Y-62565119D01*
X123150714Y-62469880D01*
X122150714Y-63327023D02*
X122817380Y-63327023D01*
X122245952Y-63327023D02*
X122198333Y-63374642D01*
X122150714Y-63469880D01*
X122150714Y-63612738D01*
X122198333Y-63707976D01*
X122293571Y-63755595D01*
X122817380Y-63755595D01*
X122150714Y-64088928D02*
X122150714Y-64469880D01*
X121817380Y-64231785D02*
X122674523Y-64231785D01*
X122769761Y-64279404D01*
X122817380Y-64374642D01*
X122817380Y-64469880D01*
X122817380Y-64803214D02*
X121817380Y-64803214D01*
X122817380Y-65231785D02*
X122293571Y-65231785D01*
X122198333Y-65184166D01*
X122150714Y-65088928D01*
X122150714Y-64946071D01*
X122198333Y-64850833D01*
X122245952Y-64803214D01*
X121817380Y-66374642D02*
X121817380Y-66993690D01*
X122198333Y-66660357D01*
X122198333Y-66803214D01*
X122245952Y-66898452D01*
X122293571Y-66946071D01*
X122388809Y-66993690D01*
X122626904Y-66993690D01*
X122722142Y-66946071D01*
X122769761Y-66898452D01*
X122817380Y-66803214D01*
X122817380Y-66517500D01*
X122769761Y-66422261D01*
X122722142Y-66374642D01*
X121912619Y-67374642D02*
X121865000Y-67422261D01*
X121817380Y-67517500D01*
X121817380Y-67755595D01*
X121865000Y-67850833D01*
X121912619Y-67898452D01*
X122007857Y-67946071D01*
X122103095Y-67946071D01*
X122245952Y-67898452D01*
X122817380Y-67327023D01*
X122817380Y-67946071D01*
X122722142Y-68374642D02*
X122769761Y-68422261D01*
X122817380Y-68374642D01*
X122769761Y-68327023D01*
X122722142Y-68374642D01*
X122817380Y-68374642D01*
X122198333Y-68374642D02*
X122245952Y-68422261D01*
X122293571Y-68374642D01*
X122245952Y-68327023D01*
X122198333Y-68374642D01*
X122293571Y-68374642D01*
X122293571Y-69946071D02*
X122293571Y-69612738D01*
X122817380Y-69612738D02*
X121817380Y-69612738D01*
X121817380Y-70088928D01*
X122817380Y-70469880D02*
X122150714Y-70469880D01*
X122341190Y-70469880D02*
X122245952Y-70517500D01*
X122198333Y-70565119D01*
X122150714Y-70660357D01*
X122150714Y-70755595D01*
X122817380Y-71231785D02*
X122769761Y-71136547D01*
X122722142Y-71088928D01*
X122626904Y-71041309D01*
X122341190Y-71041309D01*
X122245952Y-71088928D01*
X122198333Y-71136547D01*
X122150714Y-71231785D01*
X122150714Y-71374642D01*
X122198333Y-71469880D01*
X122245952Y-71517500D01*
X122341190Y-71565119D01*
X122626904Y-71565119D01*
X122722142Y-71517500D01*
X122769761Y-71469880D01*
X122817380Y-71374642D01*
X122817380Y-71231785D01*
X122150714Y-71993690D02*
X122817380Y-71993690D01*
X122245952Y-71993690D02*
X122198333Y-72041309D01*
X122150714Y-72136547D01*
X122150714Y-72279404D01*
X122198333Y-72374642D01*
X122293571Y-72422261D01*
X122817380Y-72422261D01*
X122150714Y-72755595D02*
X122150714Y-73136547D01*
X121817380Y-72898452D02*
X122674523Y-72898452D01*
X122769761Y-72946071D01*
X122817380Y-73041309D01*
X122817380Y-73136547D01*
X122150714Y-74231785D02*
X123150714Y-74231785D01*
X122198333Y-74231785D02*
X122150714Y-74327023D01*
X122150714Y-74517500D01*
X122198333Y-74612738D01*
X122245952Y-74660357D01*
X122341190Y-74707976D01*
X122626904Y-74707976D01*
X122722142Y-74660357D01*
X122769761Y-74612738D01*
X122817380Y-74517500D01*
X122817380Y-74327023D01*
X122769761Y-74231785D01*
X122817380Y-75565119D02*
X122293571Y-75565119D01*
X122198333Y-75517500D01*
X122150714Y-75422261D01*
X122150714Y-75231785D01*
X122198333Y-75136547D01*
X122769761Y-75565119D02*
X122817380Y-75469880D01*
X122817380Y-75231785D01*
X122769761Y-75136547D01*
X122674523Y-75088928D01*
X122579285Y-75088928D01*
X122484047Y-75136547D01*
X122436428Y-75231785D01*
X122436428Y-75469880D01*
X122388809Y-75565119D01*
X122150714Y-76041309D02*
X122817380Y-76041309D01*
X122245952Y-76041309D02*
X122198333Y-76088928D01*
X122150714Y-76184166D01*
X122150714Y-76327023D01*
X122198333Y-76422261D01*
X122293571Y-76469880D01*
X122817380Y-76469880D01*
X122769761Y-77327023D02*
X122817380Y-77231785D01*
X122817380Y-77041309D01*
X122769761Y-76946071D01*
X122674523Y-76898452D01*
X122293571Y-76898452D01*
X122198333Y-76946071D01*
X122150714Y-77041309D01*
X122150714Y-77231785D01*
X122198333Y-77327023D01*
X122293571Y-77374642D01*
X122388809Y-77374642D01*
X122484047Y-76898452D01*
X122817380Y-77946071D02*
X122769761Y-77850833D01*
X122674523Y-77803214D01*
X121817380Y-77803214D01*
X122817380Y-79088928D02*
X121817380Y-79088928D01*
X122198333Y-79088928D02*
X122150714Y-79184166D01*
X122150714Y-79374642D01*
X122198333Y-79469880D01*
X122245952Y-79517500D01*
X122341190Y-79565119D01*
X122626904Y-79565119D01*
X122722142Y-79517500D01*
X122769761Y-79469880D01*
X122817380Y-79374642D01*
X122817380Y-79184166D01*
X122769761Y-79088928D01*
X122817380Y-80136547D02*
X122769761Y-80041309D01*
X122722142Y-79993690D01*
X122626904Y-79946071D01*
X122341190Y-79946071D01*
X122245952Y-79993690D01*
X122198333Y-80041309D01*
X122150714Y-80136547D01*
X122150714Y-80279404D01*
X122198333Y-80374642D01*
X122245952Y-80422261D01*
X122341190Y-80469880D01*
X122626904Y-80469880D01*
X122722142Y-80422261D01*
X122769761Y-80374642D01*
X122817380Y-80279404D01*
X122817380Y-80136547D01*
X122817380Y-81327023D02*
X122293571Y-81327023D01*
X122198333Y-81279404D01*
X122150714Y-81184166D01*
X122150714Y-80993690D01*
X122198333Y-80898452D01*
X122769761Y-81327023D02*
X122817380Y-81231785D01*
X122817380Y-80993690D01*
X122769761Y-80898452D01*
X122674523Y-80850833D01*
X122579285Y-80850833D01*
X122484047Y-80898452D01*
X122436428Y-80993690D01*
X122436428Y-81231785D01*
X122388809Y-81327023D01*
X122817380Y-81803214D02*
X122150714Y-81803214D01*
X122341190Y-81803214D02*
X122245952Y-81850833D01*
X122198333Y-81898452D01*
X122150714Y-81993690D01*
X122150714Y-82088928D01*
X122817380Y-82850833D02*
X121817380Y-82850833D01*
X122769761Y-82850833D02*
X122817380Y-82755595D01*
X122817380Y-82565119D01*
X122769761Y-82469880D01*
X122722142Y-82422261D01*
X122626904Y-82374642D01*
X122341190Y-82374642D01*
X122245952Y-82422261D01*
X122198333Y-82469880D01*
X122150714Y-82565119D01*
X122150714Y-82755595D01*
X122198333Y-82850833D01*
X124467380Y-58755595D02*
X123467380Y-58755595D01*
X124467380Y-59184166D02*
X123943571Y-59184166D01*
X123848333Y-59136547D01*
X123800714Y-59041309D01*
X123800714Y-58898452D01*
X123848333Y-58803214D01*
X123895952Y-58755595D01*
X123800714Y-59517500D02*
X123800714Y-59898452D01*
X123467380Y-59660357D02*
X124324523Y-59660357D01*
X124419761Y-59707976D01*
X124467380Y-59803214D01*
X124467380Y-59898452D01*
X123800714Y-60088928D02*
X123800714Y-60469880D01*
X123467380Y-60231785D02*
X124324523Y-60231785D01*
X124419761Y-60279404D01*
X124467380Y-60374642D01*
X124467380Y-60469880D01*
X123800714Y-60803214D02*
X124800714Y-60803214D01*
X123848333Y-60803214D02*
X123800714Y-60898452D01*
X123800714Y-61088928D01*
X123848333Y-61184166D01*
X123895952Y-61231785D01*
X123991190Y-61279404D01*
X124276904Y-61279404D01*
X124372142Y-61231785D01*
X124419761Y-61184166D01*
X124467380Y-61088928D01*
X124467380Y-60898452D01*
X124419761Y-60803214D01*
X124419761Y-61660357D02*
X124467380Y-61755595D01*
X124467380Y-61946071D01*
X124419761Y-62041309D01*
X124324523Y-62088928D01*
X124276904Y-62088928D01*
X124181666Y-62041309D01*
X124134047Y-61946071D01*
X124134047Y-61803214D01*
X124086428Y-61707976D01*
X123991190Y-61660357D01*
X123943571Y-61660357D01*
X123848333Y-61707976D01*
X123800714Y-61803214D01*
X123800714Y-61946071D01*
X123848333Y-62041309D01*
X124372142Y-62517500D02*
X124419761Y-62565119D01*
X124467380Y-62517500D01*
X124419761Y-62469880D01*
X124372142Y-62517500D01*
X124467380Y-62517500D01*
X123848333Y-62517500D02*
X123895952Y-62565119D01*
X123943571Y-62517500D01*
X123895952Y-62469880D01*
X123848333Y-62517500D01*
X123943571Y-62517500D01*
X123419761Y-63707976D02*
X124705476Y-62850833D01*
X123419761Y-64755595D02*
X124705476Y-63898452D01*
X123800714Y-65517500D02*
X124610238Y-65517500D01*
X124705476Y-65469880D01*
X124753095Y-65422261D01*
X124800714Y-65327023D01*
X124800714Y-65184166D01*
X124753095Y-65088928D01*
X124419761Y-65517500D02*
X124467380Y-65422261D01*
X124467380Y-65231785D01*
X124419761Y-65136547D01*
X124372142Y-65088928D01*
X124276904Y-65041309D01*
X123991190Y-65041309D01*
X123895952Y-65088928D01*
X123848333Y-65136547D01*
X123800714Y-65231785D01*
X123800714Y-65422261D01*
X123848333Y-65517500D01*
X124467380Y-65993690D02*
X123800714Y-65993690D01*
X123467380Y-65993690D02*
X123515000Y-65946071D01*
X123562619Y-65993690D01*
X123515000Y-66041309D01*
X123467380Y-65993690D01*
X123562619Y-65993690D01*
X123800714Y-66327023D02*
X123800714Y-66707976D01*
X123467380Y-66469880D02*
X124324523Y-66469880D01*
X124419761Y-66517500D01*
X124467380Y-66612738D01*
X124467380Y-66707976D01*
X124467380Y-67041309D02*
X123467380Y-67041309D01*
X124467380Y-67469880D02*
X123943571Y-67469880D01*
X123848333Y-67422261D01*
X123800714Y-67327023D01*
X123800714Y-67184166D01*
X123848333Y-67088928D01*
X123895952Y-67041309D01*
X123800714Y-68374642D02*
X124467380Y-68374642D01*
X123800714Y-67946071D02*
X124324523Y-67946071D01*
X124419761Y-67993690D01*
X124467380Y-68088928D01*
X124467380Y-68231785D01*
X124419761Y-68327023D01*
X124372142Y-68374642D01*
X124467380Y-68850833D02*
X123467380Y-68850833D01*
X123848333Y-68850833D02*
X123800714Y-68946071D01*
X123800714Y-69136547D01*
X123848333Y-69231785D01*
X123895952Y-69279404D01*
X123991190Y-69327023D01*
X124276904Y-69327023D01*
X124372142Y-69279404D01*
X124419761Y-69231785D01*
X124467380Y-69136547D01*
X124467380Y-68946071D01*
X124419761Y-68850833D01*
X124372142Y-69755595D02*
X124419761Y-69803214D01*
X124467380Y-69755595D01*
X124419761Y-69707976D01*
X124372142Y-69755595D01*
X124467380Y-69755595D01*
X124419761Y-70660357D02*
X124467380Y-70565119D01*
X124467380Y-70374642D01*
X124419761Y-70279404D01*
X124372142Y-70231785D01*
X124276904Y-70184166D01*
X123991190Y-70184166D01*
X123895952Y-70231785D01*
X123848333Y-70279404D01*
X123800714Y-70374642D01*
X123800714Y-70565119D01*
X123848333Y-70660357D01*
X124467380Y-71231785D02*
X124419761Y-71136547D01*
X124372142Y-71088928D01*
X124276904Y-71041309D01*
X123991190Y-71041309D01*
X123895952Y-71088928D01*
X123848333Y-71136547D01*
X123800714Y-71231785D01*
X123800714Y-71374642D01*
X123848333Y-71469880D01*
X123895952Y-71517500D01*
X123991190Y-71565119D01*
X124276904Y-71565119D01*
X124372142Y-71517500D01*
X124419761Y-71469880D01*
X124467380Y-71374642D01*
X124467380Y-71231785D01*
X124467380Y-71993690D02*
X123800714Y-71993690D01*
X123895952Y-71993690D02*
X123848333Y-72041309D01*
X123800714Y-72136547D01*
X123800714Y-72279404D01*
X123848333Y-72374642D01*
X123943571Y-72422261D01*
X124467380Y-72422261D01*
X123943571Y-72422261D02*
X123848333Y-72469880D01*
X123800714Y-72565119D01*
X123800714Y-72707976D01*
X123848333Y-72803214D01*
X123943571Y-72850833D01*
X124467380Y-72850833D01*
X123419761Y-74041309D02*
X124705476Y-73184166D01*
X123800714Y-74803214D02*
X124610238Y-74803214D01*
X124705476Y-74755595D01*
X124753095Y-74707976D01*
X124800714Y-74612738D01*
X124800714Y-74469880D01*
X124753095Y-74374642D01*
X124419761Y-74803214D02*
X124467380Y-74707976D01*
X124467380Y-74517500D01*
X124419761Y-74422261D01*
X124372142Y-74374642D01*
X124276904Y-74327023D01*
X123991190Y-74327023D01*
X123895952Y-74374642D01*
X123848333Y-74422261D01*
X123800714Y-74517500D01*
X123800714Y-74707976D01*
X123848333Y-74803214D01*
X124467380Y-75279404D02*
X123800714Y-75279404D01*
X123991190Y-75279404D02*
X123895952Y-75327023D01*
X123848333Y-75374642D01*
X123800714Y-75469880D01*
X123800714Y-75565119D01*
X124467380Y-76327023D02*
X123943571Y-76327023D01*
X123848333Y-76279404D01*
X123800714Y-76184166D01*
X123800714Y-75993690D01*
X123848333Y-75898452D01*
X124419761Y-76327023D02*
X124467380Y-76231785D01*
X124467380Y-75993690D01*
X124419761Y-75898452D01*
X124324523Y-75850833D01*
X124229285Y-75850833D01*
X124134047Y-75898452D01*
X124086428Y-75993690D01*
X124086428Y-76231785D01*
X124038809Y-76327023D01*
X123800714Y-76803214D02*
X124467380Y-76803214D01*
X123895952Y-76803214D02*
X123848333Y-76850833D01*
X123800714Y-76946071D01*
X123800714Y-77088928D01*
X123848333Y-77184166D01*
X123943571Y-77231785D01*
X124467380Y-77231785D01*
X123800714Y-77565119D02*
X123800714Y-77946071D01*
X123467380Y-77707976D02*
X124324523Y-77707976D01*
X124419761Y-77755595D01*
X124467380Y-77850833D01*
X124467380Y-77946071D01*
X124419761Y-78660357D02*
X124467380Y-78565119D01*
X124467380Y-78374642D01*
X124419761Y-78279404D01*
X124324523Y-78231785D01*
X123943571Y-78231785D01*
X123848333Y-78279404D01*
X123800714Y-78374642D01*
X123800714Y-78565119D01*
X123848333Y-78660357D01*
X123943571Y-78707976D01*
X124038809Y-78707976D01*
X124134047Y-78231785D01*
X124467380Y-79136547D02*
X123467380Y-79136547D01*
X124086428Y-79231785D02*
X124467380Y-79517500D01*
X123800714Y-79517500D02*
X124181666Y-79136547D01*
X123419761Y-80660357D02*
X124705476Y-79803214D01*
X124467380Y-80993690D02*
X123800714Y-80993690D01*
X123895952Y-80993690D02*
X123848333Y-81041309D01*
X123800714Y-81136547D01*
X123800714Y-81279404D01*
X123848333Y-81374642D01*
X123943571Y-81422261D01*
X124467380Y-81422261D01*
X123943571Y-81422261D02*
X123848333Y-81469880D01*
X123800714Y-81565119D01*
X123800714Y-81707976D01*
X123848333Y-81803214D01*
X123943571Y-81850833D01*
X124467380Y-81850833D01*
X124467380Y-82327023D02*
X123800714Y-82327023D01*
X123467380Y-82327023D02*
X123515000Y-82279404D01*
X123562619Y-82327023D01*
X123515000Y-82374642D01*
X123467380Y-82327023D01*
X123562619Y-82327023D01*
X123800714Y-82803214D02*
X124467380Y-82803214D01*
X123895952Y-82803214D02*
X123848333Y-82850833D01*
X123800714Y-82946071D01*
X123800714Y-83088928D01*
X123848333Y-83184166D01*
X123943571Y-83231785D01*
X124467380Y-83231785D01*
X124467380Y-83707976D02*
X123800714Y-83707976D01*
X123467380Y-83707976D02*
X123515000Y-83660357D01*
X123562619Y-83707976D01*
X123515000Y-83755595D01*
X123467380Y-83707976D01*
X123562619Y-83707976D01*
X124419761Y-84136547D02*
X124467380Y-84231785D01*
X124467380Y-84422261D01*
X124419761Y-84517500D01*
X124324523Y-84565119D01*
X124276904Y-84565119D01*
X124181666Y-84517500D01*
X124134047Y-84422261D01*
X124134047Y-84279404D01*
X124086428Y-84184166D01*
X123991190Y-84136547D01*
X123943571Y-84136547D01*
X123848333Y-84184166D01*
X123800714Y-84279404D01*
X123800714Y-84422261D01*
X123848333Y-84517500D01*
X123800714Y-84898452D02*
X124467380Y-85136547D01*
X123800714Y-85374642D02*
X124467380Y-85136547D01*
X124705476Y-85041309D01*
X124753095Y-84993690D01*
X124800714Y-84898452D01*
X123800714Y-85755595D02*
X124467380Y-85755595D01*
X123895952Y-85755595D02*
X123848333Y-85803214D01*
X123800714Y-85898452D01*
X123800714Y-86041309D01*
X123848333Y-86136547D01*
X123943571Y-86184166D01*
X124467380Y-86184166D01*
X123800714Y-86517500D02*
X123800714Y-86898452D01*
X123467380Y-86660357D02*
X124324523Y-86660357D01*
X124419761Y-86707976D01*
X124467380Y-86803214D01*
X124467380Y-86898452D01*
X124467380Y-87231785D02*
X123467380Y-87231785D01*
X124467380Y-87660357D02*
X123943571Y-87660357D01*
X123848333Y-87612738D01*
X123800714Y-87517500D01*
X123800714Y-87374642D01*
X123848333Y-87279404D01*
X123895952Y-87231785D01*
X123467380Y-88041309D02*
X123467380Y-88660357D01*
X123848333Y-88327023D01*
X123848333Y-88469880D01*
X123895952Y-88565119D01*
X123943571Y-88612738D01*
X124038809Y-88660357D01*
X124276904Y-88660357D01*
X124372142Y-88612738D01*
X124419761Y-88565119D01*
X124467380Y-88469880D01*
X124467380Y-88184166D01*
X124419761Y-88088928D01*
X124372142Y-88041309D01*
X123562619Y-89041309D02*
X123515000Y-89088928D01*
X123467380Y-89184166D01*
X123467380Y-89422261D01*
X123515000Y-89517500D01*
X123562619Y-89565119D01*
X123657857Y-89612738D01*
X123753095Y-89612738D01*
X123895952Y-89565119D01*
X124467380Y-88993690D01*
X124467380Y-89612738D01*
D11*
X133350000Y-104648000D02*
X133096000Y-104394000D01*
X134112000Y-104648000D02*
X133350000Y-104648000D01*
X133858000Y-101092000D02*
X133350000Y-101092000D01*
X134112000Y-101346000D02*
X133858000Y-101092000D01*
X133858000Y-98552000D02*
X133350000Y-98552000D01*
X134112000Y-98298000D02*
X133858000Y-98552000D01*
X133350000Y-96012000D02*
X134112000Y-96012000D01*
X133604000Y-128778000D02*
X133350000Y-129032000D01*
X133604000Y-128524000D02*
X133604000Y-128778000D01*
X133604000Y-127508000D02*
X133604000Y-128524000D01*
X133858000Y-127254000D02*
X133604000Y-127508000D01*
X133604000Y-131318000D02*
X133350000Y-131572000D01*
X133604000Y-130810000D02*
X133604000Y-131318000D01*
X133858000Y-130556000D02*
X133604000Y-130810000D01*
X133858000Y-134112000D02*
X133350000Y-134112000D01*
X133858000Y-139446000D02*
X133350000Y-139192000D01*
X134366000Y-139446000D02*
X133858000Y-139446000D01*
X139192000Y-138430000D02*
X139446000Y-138684000D01*
X135128000Y-138430000D02*
X139192000Y-138430000D01*
X135128000Y-138430000D02*
X133350000Y-136652000D01*
X132842000Y-124460000D02*
X132334000Y-125222000D01*
X133858000Y-124460000D02*
X132842000Y-124460000D01*
D10*
X135374000Y-105480857D02*
X135421619Y-105576095D01*
X135421619Y-105718952D01*
X135374000Y-105861809D01*
X135278761Y-105957047D01*
X135183523Y-106004666D01*
X134993047Y-106052285D01*
X134850190Y-106052285D01*
X134659714Y-106004666D01*
X134564476Y-105957047D01*
X134469238Y-105861809D01*
X134421619Y-105718952D01*
X134421619Y-105623714D01*
X134469238Y-105480857D01*
X134516857Y-105433238D01*
X134850190Y-105433238D01*
X134850190Y-105623714D01*
X134421619Y-105004666D02*
X135421619Y-105004666D01*
X134421619Y-104433238D01*
X135421619Y-104433238D01*
X134421619Y-103957047D02*
X135421619Y-103957047D01*
X135421619Y-103718952D01*
X135374000Y-103576095D01*
X135278761Y-103480857D01*
X135183523Y-103433238D01*
X134993047Y-103385619D01*
X134850190Y-103385619D01*
X134659714Y-103433238D01*
X134564476Y-103480857D01*
X134469238Y-103576095D01*
X134421619Y-103718952D01*
X134421619Y-103957047D01*
X134469238Y-102242761D02*
X134421619Y-102099904D01*
X134421619Y-101861809D01*
X134469238Y-101766571D01*
X134516857Y-101718952D01*
X134612095Y-101671333D01*
X134707333Y-101671333D01*
X134802571Y-101718952D01*
X134850190Y-101766571D01*
X134897809Y-101861809D01*
X134945428Y-102052285D01*
X134993047Y-102147523D01*
X135040666Y-102195142D01*
X135135904Y-102242761D01*
X135231142Y-102242761D01*
X135326380Y-102195142D01*
X135374000Y-102147523D01*
X135421619Y-102052285D01*
X135421619Y-101814190D01*
X135374000Y-101671333D01*
X135421619Y-101338000D02*
X134421619Y-101099904D01*
X135135904Y-100909428D01*
X134421619Y-100718952D01*
X135421619Y-100480857D01*
X134945428Y-98242761D02*
X134897809Y-98099904D01*
X134850190Y-98052285D01*
X134754952Y-98004666D01*
X134612095Y-98004666D01*
X134516857Y-98052285D01*
X134469238Y-98099904D01*
X134421619Y-98195142D01*
X134421619Y-98576095D01*
X135421619Y-98576095D01*
X135421619Y-98242761D01*
X135374000Y-98147523D01*
X135326380Y-98099904D01*
X135231142Y-98052285D01*
X135135904Y-98052285D01*
X135040666Y-98099904D01*
X134993047Y-98147523D01*
X134945428Y-98242761D01*
X134945428Y-98576095D01*
X134707333Y-96099904D02*
X134707333Y-95623714D01*
X134421619Y-96195142D02*
X135421619Y-95861809D01*
X134421619Y-95528476D01*
D11*
X125476000Y-121412000D02*
X125476000Y-120904000D01*
X119380000Y-127508000D02*
X125476000Y-121412000D01*
X122936000Y-122174000D02*
X122936000Y-120904000D01*
X119380000Y-125730000D02*
X122936000Y-122174000D01*
X120396000Y-122936000D02*
X120396000Y-120904000D01*
X119380000Y-123952000D02*
X120396000Y-122936000D01*
X117856000Y-121412000D02*
X117856000Y-120904000D01*
X116078000Y-122428000D02*
X114554000Y-119634000D01*
X116078000Y-123952000D02*
X114554000Y-122428000D01*
X116078000Y-125730000D02*
X114554000Y-124968000D01*
X116078000Y-127254000D02*
X114808000Y-127254000D01*
D10*
X118617904Y-121993000D02*
X118713142Y-121945380D01*
X118856000Y-121945380D01*
X118998857Y-121993000D01*
X119094095Y-122088238D01*
X119141714Y-122183476D01*
X119189333Y-122373952D01*
X119189333Y-122516809D01*
X119141714Y-122707285D01*
X119094095Y-122802523D01*
X118998857Y-122897761D01*
X118856000Y-122945380D01*
X118760761Y-122945380D01*
X118617904Y-122897761D01*
X118570285Y-122850142D01*
X118570285Y-122516809D01*
X118760761Y-122516809D01*
X118141714Y-122945380D02*
X118141714Y-121945380D01*
X117570285Y-122945380D01*
X117570285Y-121945380D01*
X117094095Y-122945380D02*
X117094095Y-121945380D01*
X116856000Y-121945380D01*
X116713142Y-121993000D01*
X116617904Y-122088238D01*
X116570285Y-122183476D01*
X116522666Y-122373952D01*
X116522666Y-122516809D01*
X116570285Y-122707285D01*
X116617904Y-122802523D01*
X116713142Y-122897761D01*
X116856000Y-122945380D01*
X117094095Y-122945380D01*
X119189333Y-123595380D02*
X118856000Y-124595380D01*
X118522666Y-123595380D01*
X117617904Y-124500142D02*
X117665523Y-124547761D01*
X117808380Y-124595380D01*
X117903619Y-124595380D01*
X118046476Y-124547761D01*
X118141714Y-124452523D01*
X118189333Y-124357285D01*
X118236952Y-124166809D01*
X118236952Y-124023952D01*
X118189333Y-123833476D01*
X118141714Y-123738238D01*
X118046476Y-123643000D01*
X117903619Y-123595380D01*
X117808380Y-123595380D01*
X117665523Y-123643000D01*
X117617904Y-123690619D01*
X116617904Y-124500142D02*
X116665523Y-124547761D01*
X116808380Y-124595380D01*
X116903619Y-124595380D01*
X117046476Y-124547761D01*
X117141714Y-124452523D01*
X117189333Y-124357285D01*
X117236952Y-124166809D01*
X117236952Y-124023952D01*
X117189333Y-123833476D01*
X117141714Y-123738238D01*
X117046476Y-123643000D01*
X116903619Y-123595380D01*
X116808380Y-123595380D01*
X116665523Y-123643000D01*
X116617904Y-123690619D01*
X119046476Y-126197761D02*
X118903619Y-126245380D01*
X118665523Y-126245380D01*
X118570285Y-126197761D01*
X118522666Y-126150142D01*
X118475047Y-126054904D01*
X118475047Y-125959666D01*
X118522666Y-125864428D01*
X118570285Y-125816809D01*
X118665523Y-125769190D01*
X118856000Y-125721571D01*
X118951238Y-125673952D01*
X118998857Y-125626333D01*
X119046476Y-125531095D01*
X119046476Y-125435857D01*
X118998857Y-125340619D01*
X118951238Y-125293000D01*
X118856000Y-125245380D01*
X118617904Y-125245380D01*
X118475047Y-125293000D01*
X117475047Y-126150142D02*
X117522666Y-126197761D01*
X117665523Y-126245380D01*
X117760761Y-126245380D01*
X117903619Y-126197761D01*
X117998857Y-126102523D01*
X118046476Y-126007285D01*
X118094095Y-125816809D01*
X118094095Y-125673952D01*
X118046476Y-125483476D01*
X117998857Y-125388238D01*
X117903619Y-125293000D01*
X117760761Y-125245380D01*
X117665523Y-125245380D01*
X117522666Y-125293000D01*
X117475047Y-125340619D01*
X116570285Y-126245380D02*
X117046476Y-126245380D01*
X117046476Y-125245380D01*
X119070285Y-127847761D02*
X118927428Y-127895380D01*
X118689333Y-127895380D01*
X118594095Y-127847761D01*
X118546476Y-127800142D01*
X118498857Y-127704904D01*
X118498857Y-127609666D01*
X118546476Y-127514428D01*
X118594095Y-127466809D01*
X118689333Y-127419190D01*
X118879809Y-127371571D01*
X118975047Y-127323952D01*
X119022666Y-127276333D01*
X119070285Y-127181095D01*
X119070285Y-127085857D01*
X119022666Y-126990619D01*
X118975047Y-126943000D01*
X118879809Y-126895380D01*
X118641714Y-126895380D01*
X118498857Y-126943000D01*
X118070285Y-127895380D02*
X118070285Y-126895380D01*
X117832190Y-126895380D01*
X117689333Y-126943000D01*
X117594095Y-127038238D01*
X117546476Y-127133476D01*
X117498857Y-127323952D01*
X117498857Y-127466809D01*
X117546476Y-127657285D01*
X117594095Y-127752523D01*
X117689333Y-127847761D01*
X117832190Y-127895380D01*
X118070285Y-127895380D01*
X117117904Y-127609666D02*
X116641714Y-127609666D01*
X117213142Y-127895380D02*
X116879809Y-126895380D01*
X116546476Y-127895380D01*
D11*
X116078000Y-112522000D02*
X114554000Y-114808000D01*
X116332000Y-115062000D02*
X114808000Y-117094000D01*
D10*
X117419428Y-115299904D02*
X117371809Y-115157047D01*
X117324190Y-115109428D01*
X117228952Y-115061809D01*
X117086095Y-115061809D01*
X116990857Y-115109428D01*
X116943238Y-115157047D01*
X116895619Y-115252285D01*
X116895619Y-115633238D01*
X117895619Y-115633238D01*
X117895619Y-115299904D01*
X117848000Y-115204666D01*
X117800380Y-115157047D01*
X117705142Y-115109428D01*
X117609904Y-115109428D01*
X117514666Y-115157047D01*
X117467047Y-115204666D01*
X117419428Y-115299904D01*
X117419428Y-115633238D01*
X116895619Y-114109428D02*
X116895619Y-114680857D01*
X116895619Y-114395142D02*
X117895619Y-114395142D01*
X117752761Y-114490380D01*
X117657523Y-114585619D01*
X117609904Y-114680857D01*
X117419428Y-112585619D02*
X117371809Y-112442761D01*
X117324190Y-112395142D01*
X117228952Y-112347523D01*
X117086095Y-112347523D01*
X116990857Y-112395142D01*
X116943238Y-112442761D01*
X116895619Y-112538000D01*
X116895619Y-112918952D01*
X117895619Y-112918952D01*
X117895619Y-112585619D01*
X117848000Y-112490380D01*
X117800380Y-112442761D01*
X117705142Y-112395142D01*
X117609904Y-112395142D01*
X117514666Y-112442761D01*
X117467047Y-112490380D01*
X117419428Y-112585619D01*
X117419428Y-112918952D01*
X117800380Y-111966571D02*
X117848000Y-111918952D01*
X117895619Y-111823714D01*
X117895619Y-111585619D01*
X117848000Y-111490380D01*
X117800380Y-111442761D01*
X117705142Y-111395142D01*
X117609904Y-111395142D01*
X117467047Y-111442761D01*
X116895619Y-112014190D01*
X116895619Y-111395142D01*
X140644190Y-139850761D02*
X140501333Y-139898380D01*
X140263238Y-139898380D01*
X140168000Y-139850761D01*
X140120380Y-139803142D01*
X140072761Y-139707904D01*
X140072761Y-139612666D01*
X140120380Y-139517428D01*
X140168000Y-139469809D01*
X140263238Y-139422190D01*
X140453714Y-139374571D01*
X140548952Y-139326952D01*
X140596571Y-139279333D01*
X140644190Y-139184095D01*
X140644190Y-139088857D01*
X140596571Y-138993619D01*
X140548952Y-138946000D01*
X140453714Y-138898380D01*
X140215619Y-138898380D01*
X140072761Y-138946000D01*
X139644190Y-139898380D02*
X139644190Y-138898380D01*
X139406095Y-138898380D01*
X139263238Y-138946000D01*
X139168000Y-139041238D01*
X139120380Y-139136476D01*
X139072761Y-139326952D01*
X139072761Y-139469809D01*
X139120380Y-139660285D01*
X139168000Y-139755523D01*
X139263238Y-139850761D01*
X139406095Y-139898380D01*
X139644190Y-139898380D01*
X138691809Y-139612666D02*
X138215619Y-139612666D01*
X138787047Y-139898380D02*
X138453714Y-138898380D01*
X138120380Y-139898380D01*
X137072761Y-139850761D02*
X136929904Y-139898380D01*
X136691809Y-139898380D01*
X136596571Y-139850761D01*
X136548952Y-139803142D01*
X136501333Y-139707904D01*
X136501333Y-139612666D01*
X136548952Y-139517428D01*
X136596571Y-139469809D01*
X136691809Y-139422190D01*
X136882285Y-139374571D01*
X136977523Y-139326952D01*
X137025142Y-139279333D01*
X137072761Y-139184095D01*
X137072761Y-139088857D01*
X137025142Y-138993619D01*
X136977523Y-138946000D01*
X136882285Y-138898380D01*
X136644190Y-138898380D01*
X136501333Y-138946000D01*
X135501333Y-139803142D02*
X135548952Y-139850761D01*
X135691809Y-139898380D01*
X135787047Y-139898380D01*
X135929904Y-139850761D01*
X136025142Y-139755523D01*
X136072761Y-139660285D01*
X136120380Y-139469809D01*
X136120380Y-139326952D01*
X136072761Y-139136476D01*
X136025142Y-139041238D01*
X135929904Y-138946000D01*
X135787047Y-138898380D01*
X135691809Y-138898380D01*
X135548952Y-138946000D01*
X135501333Y-138993619D01*
X134596571Y-139898380D02*
X135072761Y-139898380D01*
X135072761Y-138898380D01*
X135167619Y-135492380D02*
X134167619Y-135159047D01*
X135167619Y-134825714D01*
X134262857Y-133920952D02*
X134215238Y-133968571D01*
X134167619Y-134111428D01*
X134167619Y-134206666D01*
X134215238Y-134349523D01*
X134310476Y-134444761D01*
X134405714Y-134492380D01*
X134596190Y-134540000D01*
X134739047Y-134540000D01*
X134929523Y-134492380D01*
X135024761Y-134444761D01*
X135120000Y-134349523D01*
X135167619Y-134206666D01*
X135167619Y-134111428D01*
X135120000Y-133968571D01*
X135072380Y-133920952D01*
X134262857Y-132920952D02*
X134215238Y-132968571D01*
X134167619Y-133111428D01*
X134167619Y-133206666D01*
X134215238Y-133349523D01*
X134310476Y-133444761D01*
X134405714Y-133492380D01*
X134596190Y-133540000D01*
X134739047Y-133540000D01*
X134929523Y-133492380D01*
X135024761Y-133444761D01*
X135120000Y-133349523D01*
X135167619Y-133206666D01*
X135167619Y-133111428D01*
X135120000Y-132968571D01*
X135072380Y-132920952D01*
X135120000Y-131206666D02*
X135167619Y-131301904D01*
X135167619Y-131444761D01*
X135120000Y-131587619D01*
X135024761Y-131682857D01*
X134929523Y-131730476D01*
X134739047Y-131778095D01*
X134596190Y-131778095D01*
X134405714Y-131730476D01*
X134310476Y-131682857D01*
X134215238Y-131587619D01*
X134167619Y-131444761D01*
X134167619Y-131349523D01*
X134215238Y-131206666D01*
X134262857Y-131159047D01*
X134596190Y-131159047D01*
X134596190Y-131349523D01*
X134167619Y-130730476D02*
X135167619Y-130730476D01*
X134167619Y-130159047D01*
X135167619Y-130159047D01*
X134167619Y-129682857D02*
X135167619Y-129682857D01*
X135167619Y-129444761D01*
X135120000Y-129301904D01*
X135024761Y-129206666D01*
X134929523Y-129159047D01*
X134739047Y-129111428D01*
X134596190Y-129111428D01*
X134405714Y-129159047D01*
X134310476Y-129206666D01*
X134215238Y-129301904D01*
X134167619Y-129444761D01*
X134167619Y-129682857D01*
X134691428Y-127587619D02*
X134643809Y-127444761D01*
X134596190Y-127397142D01*
X134500952Y-127349523D01*
X134358095Y-127349523D01*
X134262857Y-127397142D01*
X134215238Y-127444761D01*
X134167619Y-127540000D01*
X134167619Y-127920952D01*
X135167619Y-127920952D01*
X135167619Y-127587619D01*
X135120000Y-127492380D01*
X135072380Y-127444761D01*
X134977142Y-127397142D01*
X134881904Y-127397142D01*
X134786666Y-127444761D01*
X134739047Y-127492380D01*
X134691428Y-127587619D01*
X134691428Y-127920952D01*
X134167619Y-126397142D02*
X134167619Y-126968571D01*
X134167619Y-126682857D02*
X135167619Y-126682857D01*
X135024761Y-126778095D01*
X134929523Y-126873333D01*
X134881904Y-126968571D01*
X134691428Y-124873333D02*
X134643809Y-124730476D01*
X134596190Y-124682857D01*
X134500952Y-124635238D01*
X134358095Y-124635238D01*
X134262857Y-124682857D01*
X134215238Y-124730476D01*
X134167619Y-124825714D01*
X134167619Y-125206666D01*
X135167619Y-125206666D01*
X135167619Y-124873333D01*
X135120000Y-124778095D01*
X135072380Y-124730476D01*
X134977142Y-124682857D01*
X134881904Y-124682857D01*
X134786666Y-124730476D01*
X134739047Y-124778095D01*
X134691428Y-124873333D01*
X134691428Y-125206666D01*
X135072380Y-124254285D02*
X135120000Y-124206666D01*
X135167619Y-124111428D01*
X135167619Y-123873333D01*
X135120000Y-123778095D01*
X135072380Y-123730476D01*
X134977142Y-123682857D01*
X134881904Y-123682857D01*
X134739047Y-123730476D01*
X134167619Y-124301904D01*
X134167619Y-123682857D01*
D11*
%TO.C,J6*%
X114614000Y-113224000D02*
X113284000Y-113224000D01*
X114614000Y-114554000D02*
X114614000Y-113224000D01*
X114614000Y-115824000D02*
X111954000Y-115824000D01*
X111954000Y-115824000D02*
X111954000Y-128584000D01*
X114614000Y-115824000D02*
X114614000Y-128584000D01*
X114614000Y-128584000D02*
X111954000Y-128584000D01*
D10*
X112831619Y-112592952D02*
X113307809Y-112926285D01*
X112831619Y-113164380D02*
X113831619Y-113164380D01*
X113831619Y-112783428D01*
X113784000Y-112688190D01*
X113736380Y-112640571D01*
X113641142Y-112592952D01*
X113498285Y-112592952D01*
X113403047Y-112640571D01*
X113355428Y-112688190D01*
X113307809Y-112783428D01*
X113307809Y-113164380D01*
X112736380Y-112402476D02*
X112736380Y-111640571D01*
X113355428Y-111069142D02*
X113307809Y-110926285D01*
X113260190Y-110878666D01*
X113164952Y-110831047D01*
X113022095Y-110831047D01*
X112926857Y-110878666D01*
X112879238Y-110926285D01*
X112831619Y-111021523D01*
X112831619Y-111402476D01*
X113831619Y-111402476D01*
X113831619Y-111069142D01*
X113784000Y-110973904D01*
X113736380Y-110926285D01*
X113641142Y-110878666D01*
X113545904Y-110878666D01*
X113450666Y-110926285D01*
X113403047Y-110973904D01*
X113355428Y-111069142D01*
X113355428Y-111402476D01*
X112831619Y-109831047D02*
X113307809Y-110164380D01*
X112831619Y-110402476D02*
X113831619Y-110402476D01*
X113831619Y-110021523D01*
X113784000Y-109926285D01*
X113736380Y-109878666D01*
X113641142Y-109831047D01*
X113498285Y-109831047D01*
X113403047Y-109878666D01*
X113355428Y-109926285D01*
X113307809Y-110021523D01*
X113307809Y-110402476D01*
X113355428Y-109402476D02*
X113355428Y-109069142D01*
X112831619Y-108926285D02*
X112831619Y-109402476D01*
X113831619Y-109402476D01*
X113831619Y-108926285D01*
X113117333Y-108545333D02*
X113117333Y-108069142D01*
X112831619Y-108640571D02*
X113831619Y-108307238D01*
X112831619Y-107973904D01*
X112831619Y-107640571D02*
X113831619Y-107640571D01*
X112831619Y-107069142D02*
X113403047Y-107497714D01*
X113831619Y-107069142D02*
X113260190Y-107640571D01*
X113831619Y-106450095D02*
X113831619Y-106259619D01*
X113784000Y-106164380D01*
X113688761Y-106069142D01*
X113498285Y-106021523D01*
X113164952Y-106021523D01*
X112974476Y-106069142D01*
X112879238Y-106164380D01*
X112831619Y-106259619D01*
X112831619Y-106450095D01*
X112879238Y-106545333D01*
X112974476Y-106640571D01*
X113164952Y-106688190D01*
X113498285Y-106688190D01*
X113688761Y-106640571D01*
X113784000Y-106545333D01*
X113831619Y-106450095D01*
X113831619Y-105592952D02*
X113022095Y-105592952D01*
X112926857Y-105545333D01*
X112879238Y-105497714D01*
X112831619Y-105402476D01*
X112831619Y-105212000D01*
X112879238Y-105116761D01*
X112926857Y-105069142D01*
X113022095Y-105021523D01*
X113831619Y-105021523D01*
X113831619Y-104688190D02*
X113831619Y-104116761D01*
X112831619Y-104402476D02*
X113831619Y-104402476D01*
%TD*%
M02*
