%TF.GenerationSoftware,KiCad,Pcbnew,5.99.0+really5.1.9+dfsg1-1*%
%TF.CreationDate,2021-05-13T21:59:57+10:00*%
%TF.ProjectId,minisynth32,6d696e69-7379-46e7-9468-33322e6b6963,1.1*%
%TF.SameCoordinates,Original*%
%TF.FileFunction,Profile,NP*%
%FSLAX46Y46*%
G04 Gerber Fmt 4.6, Leading zero omitted, Abs format (unit mm)*
G04 Created by KiCad (PCBNEW 5.99.0+really5.1.9+dfsg1-1) date 2021-05-13 21:59:57*
%MOMM*%
%LPD*%
G01*
G04 APERTURE LIST*
%TA.AperFunction,Profile*%
%ADD10C,0.050000*%
%TD*%
G04 APERTURE END LIST*
D10*
X129540000Y-85344000D02*
G75*
G02*
X127000000Y-85344000I-1270000J0D01*
G01*
X127000000Y-89916000D02*
G75*
G02*
X129540000Y-89916000I1270000J0D01*
G01*
X129540000Y-109728000D02*
G75*
G02*
X127000000Y-109728000I-1270000J0D01*
G01*
X127000000Y-114300000D02*
G75*
G02*
X129540000Y-114300000I1270000J0D01*
G01*
X129540000Y-114300000D02*
X129540000Y-141732000D01*
X127000000Y-141732000D02*
X127000000Y-114300000D01*
X127000000Y-109728000D02*
X127000000Y-89916000D01*
X129540000Y-89916000D02*
X129540000Y-109728000D01*
X132588000Y-55880000D02*
X132588000Y-43942000D01*
X129540000Y-85344000D02*
X129540000Y-81534000D01*
X127000000Y-51816000D02*
X127000000Y-85344000D01*
X139954000Y-80264000D02*
X139954000Y-57150000D01*
X138684000Y-55880000D02*
G75*
G02*
X139954000Y-57150000I0J-1270000D01*
G01*
X138684000Y-81534000D02*
X129540000Y-81534000D01*
X139954000Y-80264000D02*
G75*
G02*
X138684000Y-81534000I-1270000J0D01*
G01*
X138684000Y-55880000D02*
X132588000Y-55880000D01*
X111760000Y-141732000D02*
X127000000Y-141732000D01*
X111760000Y-51816000D02*
X111760000Y-141732000D01*
X127000000Y-51816000D02*
X111760000Y-51816000D01*
X161290000Y-43942000D02*
X132588000Y-43942000D01*
X161290000Y-141732000D02*
X161290000Y-43942000D01*
X134620000Y-141732000D02*
X161290000Y-141732000D01*
X129540000Y-141732000D02*
X134620000Y-141732000D01*
M02*
