%TF.GenerationSoftware,KiCad,Pcbnew,5.99.0+really5.1.9+dfsg1-1*%
%TF.CreationDate,2021-05-13T21:54:40+10:00*%
%TF.ProjectId,minisynth32-rear,6d696e69-7379-46e7-9468-33322d726561,1.1*%
%TF.SameCoordinates,Original*%
%TF.FileFunction,Legend,Bot*%
%TF.FilePolarity,Positive*%
%FSLAX46Y46*%
G04 Gerber Fmt 4.6, Leading zero omitted, Abs format (unit mm)*
G04 Created by KiCad (PCBNEW 5.99.0+really5.1.9+dfsg1-1) date 2021-05-13 21:54:40*
%MOMM*%
%LPD*%
G01*
G04 APERTURE LIST*
%ADD10C,0.150000*%
%ADD11C,0.120000*%
G04 APERTURE END LIST*
D10*
X158614619Y-99486404D02*
X159614619Y-99486404D01*
X158900333Y-99153071D01*
X159614619Y-98819738D01*
X158614619Y-98819738D01*
X158614619Y-98343547D02*
X159281285Y-98343547D01*
X159614619Y-98343547D02*
X159567000Y-98391166D01*
X159519380Y-98343547D01*
X159567000Y-98295928D01*
X159614619Y-98343547D01*
X159519380Y-98343547D01*
X159281285Y-97867357D02*
X158614619Y-97867357D01*
X159186047Y-97867357D02*
X159233666Y-97819738D01*
X159281285Y-97724500D01*
X159281285Y-97581642D01*
X159233666Y-97486404D01*
X159138428Y-97438785D01*
X158614619Y-97438785D01*
X158614619Y-96962595D02*
X159281285Y-96962595D01*
X159614619Y-96962595D02*
X159567000Y-97010214D01*
X159519380Y-96962595D01*
X159567000Y-96914976D01*
X159614619Y-96962595D01*
X159519380Y-96962595D01*
X158662238Y-96534023D02*
X158614619Y-96438785D01*
X158614619Y-96248309D01*
X158662238Y-96153071D01*
X158757476Y-96105452D01*
X158805095Y-96105452D01*
X158900333Y-96153071D01*
X158947952Y-96248309D01*
X158947952Y-96391166D01*
X158995571Y-96486404D01*
X159090809Y-96534023D01*
X159138428Y-96534023D01*
X159233666Y-96486404D01*
X159281285Y-96391166D01*
X159281285Y-96248309D01*
X159233666Y-96153071D01*
X159281285Y-95772119D02*
X158614619Y-95534023D01*
X159281285Y-95295928D02*
X158614619Y-95534023D01*
X158376523Y-95629261D01*
X158328904Y-95676880D01*
X158281285Y-95772119D01*
X159281285Y-94914976D02*
X158614619Y-94914976D01*
X159186047Y-94914976D02*
X159233666Y-94867357D01*
X159281285Y-94772119D01*
X159281285Y-94629261D01*
X159233666Y-94534023D01*
X159138428Y-94486404D01*
X158614619Y-94486404D01*
X159281285Y-94153071D02*
X159281285Y-93772119D01*
X159614619Y-94010214D02*
X158757476Y-94010214D01*
X158662238Y-93962595D01*
X158614619Y-93867357D01*
X158614619Y-93772119D01*
X158614619Y-93438785D02*
X159614619Y-93438785D01*
X158614619Y-93010214D02*
X159138428Y-93010214D01*
X159233666Y-93057833D01*
X159281285Y-93153071D01*
X159281285Y-93295928D01*
X159233666Y-93391166D01*
X159186047Y-93438785D01*
X159614619Y-91867357D02*
X159614619Y-91248309D01*
X159233666Y-91581642D01*
X159233666Y-91438785D01*
X159186047Y-91343547D01*
X159138428Y-91295928D01*
X159043190Y-91248309D01*
X158805095Y-91248309D01*
X158709857Y-91295928D01*
X158662238Y-91343547D01*
X158614619Y-91438785D01*
X158614619Y-91724500D01*
X158662238Y-91819738D01*
X158709857Y-91867357D01*
X159519380Y-90867357D02*
X159567000Y-90819738D01*
X159614619Y-90724500D01*
X159614619Y-90486404D01*
X159567000Y-90391166D01*
X159519380Y-90343547D01*
X159424142Y-90295928D01*
X159328904Y-90295928D01*
X159186047Y-90343547D01*
X158614619Y-90914976D01*
X158614619Y-90295928D01*
X158709857Y-89867357D02*
X158662238Y-89819738D01*
X158614619Y-89867357D01*
X158662238Y-89914976D01*
X158709857Y-89867357D01*
X158614619Y-89867357D01*
X159233666Y-89867357D02*
X159186047Y-89819738D01*
X159138428Y-89867357D01*
X159186047Y-89914976D01*
X159233666Y-89867357D01*
X159138428Y-89867357D01*
X158614619Y-88057833D02*
X159090809Y-88391166D01*
X158614619Y-88629261D02*
X159614619Y-88629261D01*
X159614619Y-88248309D01*
X159567000Y-88153071D01*
X159519380Y-88105452D01*
X159424142Y-88057833D01*
X159281285Y-88057833D01*
X159186047Y-88105452D01*
X159138428Y-88153071D01*
X159090809Y-88248309D01*
X159090809Y-88629261D01*
X158662238Y-87248309D02*
X158614619Y-87343547D01*
X158614619Y-87534023D01*
X158662238Y-87629261D01*
X158757476Y-87676880D01*
X159138428Y-87676880D01*
X159233666Y-87629261D01*
X159281285Y-87534023D01*
X159281285Y-87343547D01*
X159233666Y-87248309D01*
X159138428Y-87200690D01*
X159043190Y-87200690D01*
X158947952Y-87676880D01*
X158614619Y-86343547D02*
X159138428Y-86343547D01*
X159233666Y-86391166D01*
X159281285Y-86486404D01*
X159281285Y-86676880D01*
X159233666Y-86772119D01*
X158662238Y-86343547D02*
X158614619Y-86438785D01*
X158614619Y-86676880D01*
X158662238Y-86772119D01*
X158757476Y-86819738D01*
X158852714Y-86819738D01*
X158947952Y-86772119D01*
X158995571Y-86676880D01*
X158995571Y-86438785D01*
X159043190Y-86343547D01*
X158614619Y-85867357D02*
X159281285Y-85867357D01*
X159090809Y-85867357D02*
X159186047Y-85819738D01*
X159233666Y-85772119D01*
X159281285Y-85676880D01*
X159281285Y-85581642D01*
X159281285Y-84486404D02*
X158281285Y-84486404D01*
X159233666Y-84486404D02*
X159281285Y-84391166D01*
X159281285Y-84200690D01*
X159233666Y-84105452D01*
X159186047Y-84057833D01*
X159090809Y-84010214D01*
X158805095Y-84010214D01*
X158709857Y-84057833D01*
X158662238Y-84105452D01*
X158614619Y-84200690D01*
X158614619Y-84391166D01*
X158662238Y-84486404D01*
X158614619Y-83153071D02*
X159138428Y-83153071D01*
X159233666Y-83200690D01*
X159281285Y-83295928D01*
X159281285Y-83486404D01*
X159233666Y-83581642D01*
X158662238Y-83153071D02*
X158614619Y-83248309D01*
X158614619Y-83486404D01*
X158662238Y-83581642D01*
X158757476Y-83629261D01*
X158852714Y-83629261D01*
X158947952Y-83581642D01*
X158995571Y-83486404D01*
X158995571Y-83248309D01*
X159043190Y-83153071D01*
X159281285Y-82676880D02*
X158614619Y-82676880D01*
X159186047Y-82676880D02*
X159233666Y-82629261D01*
X159281285Y-82534023D01*
X159281285Y-82391166D01*
X159233666Y-82295928D01*
X159138428Y-82248309D01*
X158614619Y-82248309D01*
X158662238Y-81391166D02*
X158614619Y-81486404D01*
X158614619Y-81676880D01*
X158662238Y-81772119D01*
X158757476Y-81819738D01*
X159138428Y-81819738D01*
X159233666Y-81772119D01*
X159281285Y-81676880D01*
X159281285Y-81486404D01*
X159233666Y-81391166D01*
X159138428Y-81343547D01*
X159043190Y-81343547D01*
X158947952Y-81819738D01*
X158614619Y-80772119D02*
X158662238Y-80867357D01*
X158757476Y-80914976D01*
X159614619Y-80914976D01*
X158614619Y-79629261D02*
X159614619Y-79629261D01*
X159233666Y-79629261D02*
X159281285Y-79534023D01*
X159281285Y-79343547D01*
X159233666Y-79248309D01*
X159186047Y-79200690D01*
X159090809Y-79153071D01*
X158805095Y-79153071D01*
X158709857Y-79200690D01*
X158662238Y-79248309D01*
X158614619Y-79343547D01*
X158614619Y-79534023D01*
X158662238Y-79629261D01*
X158614619Y-78724500D02*
X159281285Y-78724500D01*
X159090809Y-78724500D02*
X159186047Y-78676880D01*
X159233666Y-78629261D01*
X159281285Y-78534023D01*
X159281285Y-78438785D01*
X158662238Y-77724500D02*
X158614619Y-77819738D01*
X158614619Y-78010214D01*
X158662238Y-78105452D01*
X158757476Y-78153071D01*
X159138428Y-78153071D01*
X159233666Y-78105452D01*
X159281285Y-78010214D01*
X159281285Y-77819738D01*
X159233666Y-77724500D01*
X159138428Y-77676880D01*
X159043190Y-77676880D01*
X158947952Y-78153071D01*
X158614619Y-76819738D02*
X159138428Y-76819738D01*
X159233666Y-76867357D01*
X159281285Y-76962595D01*
X159281285Y-77153071D01*
X159233666Y-77248309D01*
X158662238Y-76819738D02*
X158614619Y-76914976D01*
X158614619Y-77153071D01*
X158662238Y-77248309D01*
X158757476Y-77295928D01*
X158852714Y-77295928D01*
X158947952Y-77248309D01*
X158995571Y-77153071D01*
X158995571Y-76914976D01*
X159043190Y-76819738D01*
X158614619Y-76343547D02*
X159614619Y-76343547D01*
X158995571Y-76248309D02*
X158614619Y-75962595D01*
X159281285Y-75962595D02*
X158900333Y-76343547D01*
X158614619Y-75391166D02*
X158662238Y-75486404D01*
X158709857Y-75534023D01*
X158805095Y-75581642D01*
X159090809Y-75581642D01*
X159186047Y-75534023D01*
X159233666Y-75486404D01*
X159281285Y-75391166D01*
X159281285Y-75248309D01*
X159233666Y-75153071D01*
X159186047Y-75105452D01*
X159090809Y-75057833D01*
X158805095Y-75057833D01*
X158709857Y-75105452D01*
X158662238Y-75153071D01*
X158614619Y-75248309D01*
X158614619Y-75391166D01*
X159281285Y-74200690D02*
X158614619Y-74200690D01*
X159281285Y-74629261D02*
X158757476Y-74629261D01*
X158662238Y-74581642D01*
X158614619Y-74486404D01*
X158614619Y-74343547D01*
X158662238Y-74248309D01*
X158709857Y-74200690D01*
X159281285Y-73867357D02*
X159281285Y-73486404D01*
X159614619Y-73724500D02*
X158757476Y-73724500D01*
X158662238Y-73676880D01*
X158614619Y-73581642D01*
X158614619Y-73486404D01*
X158614619Y-72391166D02*
X159614619Y-72391166D01*
X159233666Y-72391166D02*
X159281285Y-72295928D01*
X159281285Y-72105452D01*
X159233666Y-72010214D01*
X159186047Y-71962595D01*
X159090809Y-71914976D01*
X158805095Y-71914976D01*
X158709857Y-71962595D01*
X158662238Y-72010214D01*
X158614619Y-72105452D01*
X158614619Y-72295928D01*
X158662238Y-72391166D01*
X158614619Y-71343547D02*
X158662238Y-71438785D01*
X158709857Y-71486404D01*
X158805095Y-71534023D01*
X159090809Y-71534023D01*
X159186047Y-71486404D01*
X159233666Y-71438785D01*
X159281285Y-71343547D01*
X159281285Y-71200690D01*
X159233666Y-71105452D01*
X159186047Y-71057833D01*
X159090809Y-71010214D01*
X158805095Y-71010214D01*
X158709857Y-71057833D01*
X158662238Y-71105452D01*
X158614619Y-71200690D01*
X158614619Y-71343547D01*
X158614619Y-70153071D02*
X159138428Y-70153071D01*
X159233666Y-70200690D01*
X159281285Y-70295928D01*
X159281285Y-70486404D01*
X159233666Y-70581642D01*
X158662238Y-70153071D02*
X158614619Y-70248309D01*
X158614619Y-70486404D01*
X158662238Y-70581642D01*
X158757476Y-70629261D01*
X158852714Y-70629261D01*
X158947952Y-70581642D01*
X158995571Y-70486404D01*
X158995571Y-70248309D01*
X159043190Y-70153071D01*
X158614619Y-69676880D02*
X159281285Y-69676880D01*
X159090809Y-69676880D02*
X159186047Y-69629261D01*
X159233666Y-69581642D01*
X159281285Y-69486404D01*
X159281285Y-69391166D01*
X158614619Y-68629261D02*
X159614619Y-68629261D01*
X158662238Y-68629261D02*
X158614619Y-68724500D01*
X158614619Y-68914976D01*
X158662238Y-69010214D01*
X158709857Y-69057833D01*
X158805095Y-69105452D01*
X159090809Y-69105452D01*
X159186047Y-69057833D01*
X159233666Y-69010214D01*
X159281285Y-68914976D01*
X159281285Y-68724500D01*
X159233666Y-68629261D01*
X156964619Y-99486404D02*
X157964619Y-99486404D01*
X156964619Y-99057833D02*
X157488428Y-99057833D01*
X157583666Y-99105452D01*
X157631285Y-99200690D01*
X157631285Y-99343547D01*
X157583666Y-99438785D01*
X157536047Y-99486404D01*
X157631285Y-98724500D02*
X157631285Y-98343547D01*
X157964619Y-98581642D02*
X157107476Y-98581642D01*
X157012238Y-98534023D01*
X156964619Y-98438785D01*
X156964619Y-98343547D01*
X157631285Y-98153071D02*
X157631285Y-97772119D01*
X157964619Y-98010214D02*
X157107476Y-98010214D01*
X157012238Y-97962595D01*
X156964619Y-97867357D01*
X156964619Y-97772119D01*
X157631285Y-97438785D02*
X156631285Y-97438785D01*
X157583666Y-97438785D02*
X157631285Y-97343547D01*
X157631285Y-97153071D01*
X157583666Y-97057833D01*
X157536047Y-97010214D01*
X157440809Y-96962595D01*
X157155095Y-96962595D01*
X157059857Y-97010214D01*
X157012238Y-97057833D01*
X156964619Y-97153071D01*
X156964619Y-97343547D01*
X157012238Y-97438785D01*
X157012238Y-96581642D02*
X156964619Y-96486404D01*
X156964619Y-96295928D01*
X157012238Y-96200690D01*
X157107476Y-96153071D01*
X157155095Y-96153071D01*
X157250333Y-96200690D01*
X157297952Y-96295928D01*
X157297952Y-96438785D01*
X157345571Y-96534023D01*
X157440809Y-96581642D01*
X157488428Y-96581642D01*
X157583666Y-96534023D01*
X157631285Y-96438785D01*
X157631285Y-96295928D01*
X157583666Y-96200690D01*
X157059857Y-95724500D02*
X157012238Y-95676880D01*
X156964619Y-95724500D01*
X157012238Y-95772119D01*
X157059857Y-95724500D01*
X156964619Y-95724500D01*
X157583666Y-95724500D02*
X157536047Y-95676880D01*
X157488428Y-95724500D01*
X157536047Y-95772119D01*
X157583666Y-95724500D01*
X157488428Y-95724500D01*
X158012238Y-94534023D02*
X156726523Y-95391166D01*
X158012238Y-93486404D02*
X156726523Y-94343547D01*
X157631285Y-92724500D02*
X156821761Y-92724500D01*
X156726523Y-92772119D01*
X156678904Y-92819738D01*
X156631285Y-92914976D01*
X156631285Y-93057833D01*
X156678904Y-93153071D01*
X157012238Y-92724500D02*
X156964619Y-92819738D01*
X156964619Y-93010214D01*
X157012238Y-93105452D01*
X157059857Y-93153071D01*
X157155095Y-93200690D01*
X157440809Y-93200690D01*
X157536047Y-93153071D01*
X157583666Y-93105452D01*
X157631285Y-93010214D01*
X157631285Y-92819738D01*
X157583666Y-92724500D01*
X156964619Y-92248309D02*
X157631285Y-92248309D01*
X157964619Y-92248309D02*
X157917000Y-92295928D01*
X157869380Y-92248309D01*
X157917000Y-92200690D01*
X157964619Y-92248309D01*
X157869380Y-92248309D01*
X157631285Y-91914976D02*
X157631285Y-91534023D01*
X157964619Y-91772119D02*
X157107476Y-91772119D01*
X157012238Y-91724500D01*
X156964619Y-91629261D01*
X156964619Y-91534023D01*
X156964619Y-91200690D02*
X157964619Y-91200690D01*
X156964619Y-90772119D02*
X157488428Y-90772119D01*
X157583666Y-90819738D01*
X157631285Y-90914976D01*
X157631285Y-91057833D01*
X157583666Y-91153071D01*
X157536047Y-91200690D01*
X157631285Y-89867357D02*
X156964619Y-89867357D01*
X157631285Y-90295928D02*
X157107476Y-90295928D01*
X157012238Y-90248309D01*
X156964619Y-90153071D01*
X156964619Y-90010214D01*
X157012238Y-89914976D01*
X157059857Y-89867357D01*
X156964619Y-89391166D02*
X157964619Y-89391166D01*
X157583666Y-89391166D02*
X157631285Y-89295928D01*
X157631285Y-89105452D01*
X157583666Y-89010214D01*
X157536047Y-88962595D01*
X157440809Y-88914976D01*
X157155095Y-88914976D01*
X157059857Y-88962595D01*
X157012238Y-89010214D01*
X156964619Y-89105452D01*
X156964619Y-89295928D01*
X157012238Y-89391166D01*
X157059857Y-88486404D02*
X157012238Y-88438785D01*
X156964619Y-88486404D01*
X157012238Y-88534023D01*
X157059857Y-88486404D01*
X156964619Y-88486404D01*
X157012238Y-87581642D02*
X156964619Y-87676880D01*
X156964619Y-87867357D01*
X157012238Y-87962595D01*
X157059857Y-88010214D01*
X157155095Y-88057833D01*
X157440809Y-88057833D01*
X157536047Y-88010214D01*
X157583666Y-87962595D01*
X157631285Y-87867357D01*
X157631285Y-87676880D01*
X157583666Y-87581642D01*
X156964619Y-87010214D02*
X157012238Y-87105452D01*
X157059857Y-87153071D01*
X157155095Y-87200690D01*
X157440809Y-87200690D01*
X157536047Y-87153071D01*
X157583666Y-87105452D01*
X157631285Y-87010214D01*
X157631285Y-86867357D01*
X157583666Y-86772119D01*
X157536047Y-86724500D01*
X157440809Y-86676880D01*
X157155095Y-86676880D01*
X157059857Y-86724500D01*
X157012238Y-86772119D01*
X156964619Y-86867357D01*
X156964619Y-87010214D01*
X156964619Y-86248309D02*
X157631285Y-86248309D01*
X157536047Y-86248309D02*
X157583666Y-86200690D01*
X157631285Y-86105452D01*
X157631285Y-85962595D01*
X157583666Y-85867357D01*
X157488428Y-85819738D01*
X156964619Y-85819738D01*
X157488428Y-85819738D02*
X157583666Y-85772119D01*
X157631285Y-85676880D01*
X157631285Y-85534023D01*
X157583666Y-85438785D01*
X157488428Y-85391166D01*
X156964619Y-85391166D01*
X158012238Y-84200690D02*
X156726523Y-85057833D01*
X157631285Y-83438785D02*
X156821761Y-83438785D01*
X156726523Y-83486404D01*
X156678904Y-83534023D01*
X156631285Y-83629261D01*
X156631285Y-83772119D01*
X156678904Y-83867357D01*
X157012238Y-83438785D02*
X156964619Y-83534023D01*
X156964619Y-83724500D01*
X157012238Y-83819738D01*
X157059857Y-83867357D01*
X157155095Y-83914976D01*
X157440809Y-83914976D01*
X157536047Y-83867357D01*
X157583666Y-83819738D01*
X157631285Y-83724500D01*
X157631285Y-83534023D01*
X157583666Y-83438785D01*
X156964619Y-82962595D02*
X157631285Y-82962595D01*
X157440809Y-82962595D02*
X157536047Y-82914976D01*
X157583666Y-82867357D01*
X157631285Y-82772119D01*
X157631285Y-82676880D01*
X156964619Y-81914976D02*
X157488428Y-81914976D01*
X157583666Y-81962595D01*
X157631285Y-82057833D01*
X157631285Y-82248309D01*
X157583666Y-82343547D01*
X157012238Y-81914976D02*
X156964619Y-82010214D01*
X156964619Y-82248309D01*
X157012238Y-82343547D01*
X157107476Y-82391166D01*
X157202714Y-82391166D01*
X157297952Y-82343547D01*
X157345571Y-82248309D01*
X157345571Y-82010214D01*
X157393190Y-81914976D01*
X157631285Y-81438785D02*
X156964619Y-81438785D01*
X157536047Y-81438785D02*
X157583666Y-81391166D01*
X157631285Y-81295928D01*
X157631285Y-81153071D01*
X157583666Y-81057833D01*
X157488428Y-81010214D01*
X156964619Y-81010214D01*
X157631285Y-80676880D02*
X157631285Y-80295928D01*
X157964619Y-80534023D02*
X157107476Y-80534023D01*
X157012238Y-80486404D01*
X156964619Y-80391166D01*
X156964619Y-80295928D01*
X157012238Y-79581642D02*
X156964619Y-79676880D01*
X156964619Y-79867357D01*
X157012238Y-79962595D01*
X157107476Y-80010214D01*
X157488428Y-80010214D01*
X157583666Y-79962595D01*
X157631285Y-79867357D01*
X157631285Y-79676880D01*
X157583666Y-79581642D01*
X157488428Y-79534023D01*
X157393190Y-79534023D01*
X157297952Y-80010214D01*
X156964619Y-79105452D02*
X157964619Y-79105452D01*
X157345571Y-79010214D02*
X156964619Y-78724500D01*
X157631285Y-78724500D02*
X157250333Y-79105452D01*
X158012238Y-77581642D02*
X156726523Y-78438785D01*
X156964619Y-77248309D02*
X157631285Y-77248309D01*
X157536047Y-77248309D02*
X157583666Y-77200690D01*
X157631285Y-77105452D01*
X157631285Y-76962595D01*
X157583666Y-76867357D01*
X157488428Y-76819738D01*
X156964619Y-76819738D01*
X157488428Y-76819738D02*
X157583666Y-76772119D01*
X157631285Y-76676880D01*
X157631285Y-76534023D01*
X157583666Y-76438785D01*
X157488428Y-76391166D01*
X156964619Y-76391166D01*
X156964619Y-75914976D02*
X157631285Y-75914976D01*
X157964619Y-75914976D02*
X157917000Y-75962595D01*
X157869380Y-75914976D01*
X157917000Y-75867357D01*
X157964619Y-75914976D01*
X157869380Y-75914976D01*
X157631285Y-75438785D02*
X156964619Y-75438785D01*
X157536047Y-75438785D02*
X157583666Y-75391166D01*
X157631285Y-75295928D01*
X157631285Y-75153071D01*
X157583666Y-75057833D01*
X157488428Y-75010214D01*
X156964619Y-75010214D01*
X156964619Y-74534023D02*
X157631285Y-74534023D01*
X157964619Y-74534023D02*
X157917000Y-74581642D01*
X157869380Y-74534023D01*
X157917000Y-74486404D01*
X157964619Y-74534023D01*
X157869380Y-74534023D01*
X157012238Y-74105452D02*
X156964619Y-74010214D01*
X156964619Y-73819738D01*
X157012238Y-73724500D01*
X157107476Y-73676880D01*
X157155095Y-73676880D01*
X157250333Y-73724500D01*
X157297952Y-73819738D01*
X157297952Y-73962595D01*
X157345571Y-74057833D01*
X157440809Y-74105452D01*
X157488428Y-74105452D01*
X157583666Y-74057833D01*
X157631285Y-73962595D01*
X157631285Y-73819738D01*
X157583666Y-73724500D01*
X157631285Y-73343547D02*
X156964619Y-73105452D01*
X157631285Y-72867357D02*
X156964619Y-73105452D01*
X156726523Y-73200690D01*
X156678904Y-73248309D01*
X156631285Y-73343547D01*
X157631285Y-72486404D02*
X156964619Y-72486404D01*
X157536047Y-72486404D02*
X157583666Y-72438785D01*
X157631285Y-72343547D01*
X157631285Y-72200690D01*
X157583666Y-72105452D01*
X157488428Y-72057833D01*
X156964619Y-72057833D01*
X157631285Y-71724500D02*
X157631285Y-71343547D01*
X157964619Y-71581642D02*
X157107476Y-71581642D01*
X157012238Y-71534023D01*
X156964619Y-71438785D01*
X156964619Y-71343547D01*
X156964619Y-71010214D02*
X157964619Y-71010214D01*
X156964619Y-70581642D02*
X157488428Y-70581642D01*
X157583666Y-70629261D01*
X157631285Y-70724500D01*
X157631285Y-70867357D01*
X157583666Y-70962595D01*
X157536047Y-71010214D01*
X157964619Y-70200690D02*
X157964619Y-69581642D01*
X157583666Y-69914976D01*
X157583666Y-69772119D01*
X157536047Y-69676880D01*
X157488428Y-69629261D01*
X157393190Y-69581642D01*
X157155095Y-69581642D01*
X157059857Y-69629261D01*
X157012238Y-69676880D01*
X156964619Y-69772119D01*
X156964619Y-70057833D01*
X157012238Y-70153071D01*
X157059857Y-70200690D01*
X157869380Y-69200690D02*
X157917000Y-69153071D01*
X157964619Y-69057833D01*
X157964619Y-68819738D01*
X157917000Y-68724500D01*
X157869380Y-68676880D01*
X157774142Y-68629261D01*
X157678904Y-68629261D01*
X157536047Y-68676880D01*
X156964619Y-69248309D01*
X156964619Y-68629261D01*
D11*
X133350000Y-104648000D02*
X133096000Y-104394000D01*
X134112000Y-104648000D02*
X133350000Y-104648000D01*
X133858000Y-101092000D02*
X133350000Y-101092000D01*
X134112000Y-101346000D02*
X133858000Y-101092000D01*
X133858000Y-98552000D02*
X133350000Y-98552000D01*
X134112000Y-98298000D02*
X133858000Y-98552000D01*
X133350000Y-96012000D02*
X134112000Y-96012000D01*
X133604000Y-128778000D02*
X133350000Y-129032000D01*
X133604000Y-128524000D02*
X133604000Y-128778000D01*
X133604000Y-127508000D02*
X133604000Y-128524000D01*
X133858000Y-127254000D02*
X133604000Y-127508000D01*
X133604000Y-131318000D02*
X133350000Y-131572000D01*
X133604000Y-130810000D02*
X133604000Y-131318000D01*
X133858000Y-130556000D02*
X133604000Y-130810000D01*
X133858000Y-134112000D02*
X133350000Y-134112000D01*
X133858000Y-139446000D02*
X133350000Y-139192000D01*
X134366000Y-139446000D02*
X133858000Y-139446000D01*
X139192000Y-138430000D02*
X139446000Y-138684000D01*
X135128000Y-138430000D02*
X139192000Y-138430000D01*
X135128000Y-138430000D02*
X133350000Y-136652000D01*
X132842000Y-124460000D02*
X132334000Y-125222000D01*
X133858000Y-124460000D02*
X132842000Y-124460000D01*
D10*
X135374000Y-105480857D02*
X135421619Y-105576095D01*
X135421619Y-105718952D01*
X135374000Y-105861809D01*
X135278761Y-105957047D01*
X135183523Y-106004666D01*
X134993047Y-106052285D01*
X134850190Y-106052285D01*
X134659714Y-106004666D01*
X134564476Y-105957047D01*
X134469238Y-105861809D01*
X134421619Y-105718952D01*
X134421619Y-105623714D01*
X134469238Y-105480857D01*
X134516857Y-105433238D01*
X134850190Y-105433238D01*
X134850190Y-105623714D01*
X134421619Y-105004666D02*
X135421619Y-105004666D01*
X134421619Y-104433238D01*
X135421619Y-104433238D01*
X134421619Y-103957047D02*
X135421619Y-103957047D01*
X135421619Y-103718952D01*
X135374000Y-103576095D01*
X135278761Y-103480857D01*
X135183523Y-103433238D01*
X134993047Y-103385619D01*
X134850190Y-103385619D01*
X134659714Y-103433238D01*
X134564476Y-103480857D01*
X134469238Y-103576095D01*
X134421619Y-103718952D01*
X134421619Y-103957047D01*
X134469238Y-102242761D02*
X134421619Y-102099904D01*
X134421619Y-101861809D01*
X134469238Y-101766571D01*
X134516857Y-101718952D01*
X134612095Y-101671333D01*
X134707333Y-101671333D01*
X134802571Y-101718952D01*
X134850190Y-101766571D01*
X134897809Y-101861809D01*
X134945428Y-102052285D01*
X134993047Y-102147523D01*
X135040666Y-102195142D01*
X135135904Y-102242761D01*
X135231142Y-102242761D01*
X135326380Y-102195142D01*
X135374000Y-102147523D01*
X135421619Y-102052285D01*
X135421619Y-101814190D01*
X135374000Y-101671333D01*
X135421619Y-101338000D02*
X134421619Y-101099904D01*
X135135904Y-100909428D01*
X134421619Y-100718952D01*
X135421619Y-100480857D01*
X134945428Y-98242761D02*
X134897809Y-98099904D01*
X134850190Y-98052285D01*
X134754952Y-98004666D01*
X134612095Y-98004666D01*
X134516857Y-98052285D01*
X134469238Y-98099904D01*
X134421619Y-98195142D01*
X134421619Y-98576095D01*
X135421619Y-98576095D01*
X135421619Y-98242761D01*
X135374000Y-98147523D01*
X135326380Y-98099904D01*
X135231142Y-98052285D01*
X135135904Y-98052285D01*
X135040666Y-98099904D01*
X134993047Y-98147523D01*
X134945428Y-98242761D01*
X134945428Y-98576095D01*
X134707333Y-96099904D02*
X134707333Y-95623714D01*
X134421619Y-96195142D02*
X135421619Y-95861809D01*
X134421619Y-95528476D01*
X140644190Y-139850761D02*
X140501333Y-139898380D01*
X140263238Y-139898380D01*
X140168000Y-139850761D01*
X140120380Y-139803142D01*
X140072761Y-139707904D01*
X140072761Y-139612666D01*
X140120380Y-139517428D01*
X140168000Y-139469809D01*
X140263238Y-139422190D01*
X140453714Y-139374571D01*
X140548952Y-139326952D01*
X140596571Y-139279333D01*
X140644190Y-139184095D01*
X140644190Y-139088857D01*
X140596571Y-138993619D01*
X140548952Y-138946000D01*
X140453714Y-138898380D01*
X140215619Y-138898380D01*
X140072761Y-138946000D01*
X139644190Y-139898380D02*
X139644190Y-138898380D01*
X139406095Y-138898380D01*
X139263238Y-138946000D01*
X139168000Y-139041238D01*
X139120380Y-139136476D01*
X139072761Y-139326952D01*
X139072761Y-139469809D01*
X139120380Y-139660285D01*
X139168000Y-139755523D01*
X139263238Y-139850761D01*
X139406095Y-139898380D01*
X139644190Y-139898380D01*
X138691809Y-139612666D02*
X138215619Y-139612666D01*
X138787047Y-139898380D02*
X138453714Y-138898380D01*
X138120380Y-139898380D01*
X137072761Y-139850761D02*
X136929904Y-139898380D01*
X136691809Y-139898380D01*
X136596571Y-139850761D01*
X136548952Y-139803142D01*
X136501333Y-139707904D01*
X136501333Y-139612666D01*
X136548952Y-139517428D01*
X136596571Y-139469809D01*
X136691809Y-139422190D01*
X136882285Y-139374571D01*
X136977523Y-139326952D01*
X137025142Y-139279333D01*
X137072761Y-139184095D01*
X137072761Y-139088857D01*
X137025142Y-138993619D01*
X136977523Y-138946000D01*
X136882285Y-138898380D01*
X136644190Y-138898380D01*
X136501333Y-138946000D01*
X135501333Y-139803142D02*
X135548952Y-139850761D01*
X135691809Y-139898380D01*
X135787047Y-139898380D01*
X135929904Y-139850761D01*
X136025142Y-139755523D01*
X136072761Y-139660285D01*
X136120380Y-139469809D01*
X136120380Y-139326952D01*
X136072761Y-139136476D01*
X136025142Y-139041238D01*
X135929904Y-138946000D01*
X135787047Y-138898380D01*
X135691809Y-138898380D01*
X135548952Y-138946000D01*
X135501333Y-138993619D01*
X134596571Y-139898380D02*
X135072761Y-139898380D01*
X135072761Y-138898380D01*
X135167619Y-135492380D02*
X134167619Y-135159047D01*
X135167619Y-134825714D01*
X134262857Y-133920952D02*
X134215238Y-133968571D01*
X134167619Y-134111428D01*
X134167619Y-134206666D01*
X134215238Y-134349523D01*
X134310476Y-134444761D01*
X134405714Y-134492380D01*
X134596190Y-134540000D01*
X134739047Y-134540000D01*
X134929523Y-134492380D01*
X135024761Y-134444761D01*
X135120000Y-134349523D01*
X135167619Y-134206666D01*
X135167619Y-134111428D01*
X135120000Y-133968571D01*
X135072380Y-133920952D01*
X134262857Y-132920952D02*
X134215238Y-132968571D01*
X134167619Y-133111428D01*
X134167619Y-133206666D01*
X134215238Y-133349523D01*
X134310476Y-133444761D01*
X134405714Y-133492380D01*
X134596190Y-133540000D01*
X134739047Y-133540000D01*
X134929523Y-133492380D01*
X135024761Y-133444761D01*
X135120000Y-133349523D01*
X135167619Y-133206666D01*
X135167619Y-133111428D01*
X135120000Y-132968571D01*
X135072380Y-132920952D01*
X135120000Y-131206666D02*
X135167619Y-131301904D01*
X135167619Y-131444761D01*
X135120000Y-131587619D01*
X135024761Y-131682857D01*
X134929523Y-131730476D01*
X134739047Y-131778095D01*
X134596190Y-131778095D01*
X134405714Y-131730476D01*
X134310476Y-131682857D01*
X134215238Y-131587619D01*
X134167619Y-131444761D01*
X134167619Y-131349523D01*
X134215238Y-131206666D01*
X134262857Y-131159047D01*
X134596190Y-131159047D01*
X134596190Y-131349523D01*
X134167619Y-130730476D02*
X135167619Y-130730476D01*
X134167619Y-130159047D01*
X135167619Y-130159047D01*
X134167619Y-129682857D02*
X135167619Y-129682857D01*
X135167619Y-129444761D01*
X135120000Y-129301904D01*
X135024761Y-129206666D01*
X134929523Y-129159047D01*
X134739047Y-129111428D01*
X134596190Y-129111428D01*
X134405714Y-129159047D01*
X134310476Y-129206666D01*
X134215238Y-129301904D01*
X134167619Y-129444761D01*
X134167619Y-129682857D01*
X134691428Y-127587619D02*
X134643809Y-127444761D01*
X134596190Y-127397142D01*
X134500952Y-127349523D01*
X134358095Y-127349523D01*
X134262857Y-127397142D01*
X134215238Y-127444761D01*
X134167619Y-127540000D01*
X134167619Y-127920952D01*
X135167619Y-127920952D01*
X135167619Y-127587619D01*
X135120000Y-127492380D01*
X135072380Y-127444761D01*
X134977142Y-127397142D01*
X134881904Y-127397142D01*
X134786666Y-127444761D01*
X134739047Y-127492380D01*
X134691428Y-127587619D01*
X134691428Y-127920952D01*
X134167619Y-126397142D02*
X134167619Y-126968571D01*
X134167619Y-126682857D02*
X135167619Y-126682857D01*
X135024761Y-126778095D01*
X134929523Y-126873333D01*
X134881904Y-126968571D01*
X134691428Y-124873333D02*
X134643809Y-124730476D01*
X134596190Y-124682857D01*
X134500952Y-124635238D01*
X134358095Y-124635238D01*
X134262857Y-124682857D01*
X134215238Y-124730476D01*
X134167619Y-124825714D01*
X134167619Y-125206666D01*
X135167619Y-125206666D01*
X135167619Y-124873333D01*
X135120000Y-124778095D01*
X135072380Y-124730476D01*
X134977142Y-124682857D01*
X134881904Y-124682857D01*
X134786666Y-124730476D01*
X134739047Y-124778095D01*
X134691428Y-124873333D01*
X134691428Y-125206666D01*
X135072380Y-124254285D02*
X135120000Y-124206666D01*
X135167619Y-124111428D01*
X135167619Y-123873333D01*
X135120000Y-123778095D01*
X135072380Y-123730476D01*
X134977142Y-123682857D01*
X134881904Y-123682857D01*
X134739047Y-123730476D01*
X134167619Y-124301904D01*
X134167619Y-123682857D01*
M02*
