M48
; DRILL file {KiCad 5.99.0+really5.1.9+dfsg1-1} date Thu May 13 21:54:58 2021
; FORMAT={-:-/ absolute / inch / decimal}
; #@! TF.CreationDate,2021-05-13T21:54:58+10:00
; #@! TF.GenerationSoftware,Kicad,Pcbnew,5.99.0+really5.1.9+dfsg1-1
; #@! TF.FileFunction,Plated,1,2,PTH
FMAT,2
INCH
T1C0.0315
T2C0.0394
T3C0.0430
%
G90
G05
T1
X5.61Y-2.72
X5.7478Y-2.72
X5.75Y-5.33
X5.77Y-4.58
X5.78Y-4.7331
X5.78Y-4.93
X5.78Y-5.03
X5.78Y-5.13
X5.9769Y-4.7331
X6.05Y-5.33
X6.0531Y-4.26
X6.0531Y-4.42
X6.07Y-4.58
X6.08Y-4.93
X6.08Y-5.03
X6.08Y-5.13
X6.25Y-4.26
X6.25Y-4.42
X6.25Y-4.74
X6.25Y-5.04
T2
X5.2Y-3.78
X5.2Y-3.88
X5.2Y-3.98
X5.2Y-4.08
X5.2Y-4.98
X5.2Y-5.08
X5.2Y-5.18
X5.2Y-5.28
X5.2Y-5.38
X5.2Y-5.48
X5.39Y-3.48
X5.39Y-3.58
X5.39Y-3.68
X5.39Y-3.78
X5.39Y-3.88
X5.39Y-3.98
X5.39Y-4.08
X5.39Y-4.18
X5.39Y-4.28
X5.39Y-4.38
X5.39Y-4.48
X5.39Y-4.58
X5.39Y-4.68
X5.39Y-4.78
X5.39Y-4.88
X5.39Y-4.98
X5.39Y-5.08
X5.39Y-5.18
X5.39Y-5.28
X5.39Y-5.38
X5.49Y-3.48
X5.49Y-3.58
X5.49Y-3.68
X5.49Y-3.78
X5.49Y-3.88
X5.49Y-3.98
X5.49Y-4.08
X5.49Y-4.18
X5.49Y-4.28
X5.49Y-4.38
X5.49Y-4.48
X5.49Y-4.58
X5.49Y-4.68
X5.49Y-4.78
X5.49Y-4.88
X5.49Y-4.98
X5.49Y-5.08
X5.49Y-5.18
X5.49Y-5.28
X5.49Y-5.38
X5.725Y-3.05
X5.725Y-3.15
X5.725Y-3.25
X5.725Y-3.35
X5.725Y-3.45
X5.725Y-3.55
X5.725Y-3.65
X5.725Y-3.75
X5.725Y-3.85
X5.75Y-4.1
X5.79Y-5.48
X5.85Y-4.1
X5.89Y-5.48
X5.95Y-4.1
X6.05Y-4.1
X6.15Y-4.1
X6.25Y-4.1
T3
X5.362Y-1.848
X5.362Y-2.08
X5.46Y-1.848
X5.46Y-2.08
T2
G00X5.91Y-2.4708
M15
G01X5.91Y-2.5692
M16
G05
G00X5.9887Y-2.335
M15
G01X6.0675Y-2.335
M16
G05
G00X6.1462Y-2.4806
M15
G01X6.1462Y-2.5594
M16
G05
T0
M30
