%TF.GenerationSoftware,KiCad,Pcbnew,5.99.0+really5.1.9+dfsg1-1*%
%TF.CreationDate,2021-05-13T21:54:40+10:00*%
%TF.ProjectId,minisynth32-rear,6d696e69-7379-46e7-9468-33322d726561,1.1*%
%TF.SameCoordinates,Original*%
%TF.FileFunction,Soldermask,Top*%
%TF.FilePolarity,Negative*%
%FSLAX46Y46*%
G04 Gerber Fmt 4.6, Leading zero omitted, Abs format (unit mm)*
G04 Created by KiCad (PCBNEW 5.99.0+really5.1.9+dfsg1-1) date 2021-05-13 21:54:40*
%MOMM*%
%LPD*%
G01*
G04 APERTURE LIST*
%ADD10C,1.905000*%
%ADD11C,1.600200*%
%ADD12O,1.700000X1.700000*%
%ADD13R,1.700000X1.700000*%
%ADD14O,4.500000X2.250000*%
%ADD15O,2.250000X4.500000*%
%ADD16O,2.500000X5.000000*%
%ADD17C,1.700000*%
%ADD18O,1.600000X1.600000*%
%ADD19R,1.600000X1.600000*%
%ADD20C,1.600000*%
G04 APERTURE END LIST*
D10*
%TO.C,SW2*%
X150114000Y-47688500D03*
X150114000Y-52082700D03*
D11*
X138684000Y-46939200D03*
X136194800Y-46939200D03*
X138684000Y-52832000D03*
X136194800Y-52832000D03*
%TD*%
D12*
%TO.C,J5*%
X147066000Y-139192000D03*
D13*
X149606000Y-139192000D03*
%TD*%
D12*
%TO.C,J4*%
X132080000Y-96012000D03*
X132080000Y-98552000D03*
X132080000Y-101092000D03*
D13*
X132080000Y-103632000D03*
%TD*%
D14*
%TO.C,J3*%
X153114000Y-59308000D03*
D15*
X156114000Y-64008000D03*
D16*
X150114000Y-64008000D03*
%TD*%
D12*
%TO.C,J1*%
X132080000Y-139192000D03*
X132080000Y-136652000D03*
X132080000Y-134112000D03*
X132080000Y-131572000D03*
X132080000Y-129032000D03*
D13*
X132080000Y-126492000D03*
%TD*%
D17*
%TO.C,A1*%
X158750000Y-104140000D03*
X156210000Y-104140000D03*
X153670000Y-104140000D03*
X151130000Y-104140000D03*
X148590000Y-104140000D03*
X146050000Y-104140000D03*
X145415000Y-77470000D03*
X145415000Y-80010000D03*
X145415000Y-82550000D03*
X145415000Y-85090000D03*
X145415000Y-87630000D03*
X145415000Y-90170000D03*
X145415000Y-92710000D03*
X145415000Y-95250000D03*
X145415000Y-97790000D03*
%TD*%
D18*
%TO.C,U1*%
X146812000Y-130302000D03*
X154432000Y-125222000D03*
X146812000Y-127762000D03*
X154432000Y-127762000D03*
X146812000Y-125222000D03*
D19*
X154432000Y-130302000D03*
%TD*%
D18*
%TO.C,R2*%
X153670000Y-135382000D03*
D20*
X146050000Y-135382000D03*
%TD*%
D18*
%TO.C,R1*%
X154178000Y-116332000D03*
D20*
X146558000Y-116332000D03*
%TD*%
D12*
%TO.C,J2*%
X139446000Y-88392000D03*
X136906000Y-88392000D03*
X139446000Y-90932000D03*
X136906000Y-90932000D03*
X139446000Y-93472000D03*
X136906000Y-93472000D03*
X139446000Y-96012000D03*
X136906000Y-96012000D03*
X139446000Y-98552000D03*
X136906000Y-98552000D03*
X139446000Y-101092000D03*
X136906000Y-101092000D03*
X139446000Y-103632000D03*
X136906000Y-103632000D03*
X139446000Y-106172000D03*
X136906000Y-106172000D03*
X139446000Y-108712000D03*
X136906000Y-108712000D03*
X139446000Y-111252000D03*
X136906000Y-111252000D03*
X139446000Y-113792000D03*
X136906000Y-113792000D03*
X139446000Y-116332000D03*
X136906000Y-116332000D03*
X139446000Y-118872000D03*
X136906000Y-118872000D03*
X139446000Y-121412000D03*
X136906000Y-121412000D03*
X139446000Y-123952000D03*
X136906000Y-123952000D03*
X139446000Y-126492000D03*
X136906000Y-126492000D03*
X139446000Y-129032000D03*
X136906000Y-129032000D03*
X139446000Y-131572000D03*
X136906000Y-131572000D03*
X139446000Y-134112000D03*
X136906000Y-134112000D03*
X139446000Y-136652000D03*
D13*
X136906000Y-136652000D03*
%TD*%
D18*
%TO.C,D1*%
X158750000Y-120396000D03*
D19*
X158750000Y-128016000D03*
%TD*%
D20*
%TO.C,C4*%
X153750000Y-112268000D03*
X158750000Y-112268000D03*
%TD*%
%TO.C,C3*%
X153750000Y-108204000D03*
X158750000Y-108204000D03*
%TD*%
%TO.C,C2*%
X151812000Y-120222000D03*
X146812000Y-120222000D03*
%TD*%
%TO.C,C1*%
X142494000Y-69088000D03*
D19*
X145994000Y-69088000D03*
%TD*%
M02*
