%TF.GenerationSoftware,KiCad,Pcbnew,5.99.0+really5.1.9+dfsg1-1*%
%TF.CreationDate,2021-05-09T00:16:48+10:00*%
%TF.ProjectId,minisynth32,6d696e69-7379-46e7-9468-33322e6b6963,1.0*%
%TF.SameCoordinates,Original*%
%TF.FileFunction,Copper,L1,Top*%
%TF.FilePolarity,Positive*%
%FSLAX46Y46*%
G04 Gerber Fmt 4.6, Leading zero omitted, Abs format (unit mm)*
G04 Created by KiCad (PCBNEW 5.99.0+really5.1.9+dfsg1-1) date 2021-05-09 00:16:48*
%MOMM*%
%LPD*%
G01*
G04 APERTURE LIST*
%TA.AperFunction,ComponentPad*%
%ADD10O,1.700000X1.700000*%
%TD*%
%TA.AperFunction,ComponentPad*%
%ADD11R,1.700000X1.700000*%
%TD*%
%TA.AperFunction,SMDPad,CuDef*%
%ADD12R,0.762000X1.524000*%
%TD*%
%TA.AperFunction,Conductor*%
%ADD13C,0.760000*%
%TD*%
%TA.AperFunction,NonConductor*%
%ADD14C,0.254000*%
%TD*%
%TA.AperFunction,NonConductor*%
%ADD15C,0.100000*%
%TD*%
G04 APERTURE END LIST*
D10*
%TO.P,J7,4*%
%TO.N,Net-(J6-Pad6)*%
X125476000Y-119634000D03*
%TO.P,J7,3*%
%TO.N,Net-(J6-Pad5)*%
X122936000Y-119634000D03*
%TO.P,J7,2*%
%TO.N,Net-(J6-Pad4)*%
X120396000Y-119634000D03*
D11*
%TO.P,J7,1*%
%TO.N,Net-(J6-Pad3)*%
X117856000Y-119634000D03*
%TD*%
D12*
%TO.P,SW3,1*%
%TO.N,Net-(SW1-Pad2)*%
X122643900Y-67081400D03*
%TO.P,SW3,3*%
%TO.N,Net-(J6-Pad2)*%
X118148100Y-67081400D03*
%TO.P,SW3,4*%
%TO.N,Net-(SW3-Pad4)*%
X118148100Y-57886600D03*
%TO.P,SW3,2*%
%TO.N,Net-(SW3-Pad2)*%
X122643900Y-57886600D03*
%TD*%
%TO.P,SW1,1*%
%TO.N,Net-(J6-Pad3)*%
X122643900Y-84861400D03*
%TO.P,SW1,3*%
%TO.N,Net-(J6-Pad1)*%
X118148100Y-84861400D03*
%TO.P,SW1,4*%
%TO.N,Net-(SW1-Pad4)*%
X118148100Y-75666600D03*
%TO.P,SW1,2*%
%TO.N,Net-(SW1-Pad2)*%
X122643900Y-75666600D03*
%TD*%
D10*
%TO.P,J6,6*%
%TO.N,Net-(J6-Pad6)*%
X113284000Y-127254000D03*
%TO.P,J6,5*%
%TO.N,Net-(J6-Pad5)*%
X113284000Y-124714000D03*
%TO.P,J6,4*%
%TO.N,Net-(J6-Pad4)*%
X113284000Y-122174000D03*
%TO.P,J6,3*%
%TO.N,Net-(J6-Pad3)*%
X113284000Y-119634000D03*
%TO.P,J6,2*%
%TO.N,Net-(J6-Pad2)*%
X113284000Y-117094000D03*
D11*
%TO.P,J6,1*%
%TO.N,Net-(J6-Pad1)*%
X113284000Y-114554000D03*
%TD*%
D13*
%TO.N,Net-(J6-Pad6)*%
X125052402Y-119634000D02*
X125476000Y-119634000D01*
X117432402Y-127254000D02*
X125052402Y-119634000D01*
X113284000Y-127254000D02*
X117432402Y-127254000D01*
%TO.N,Net-(J6-Pad5)*%
X117856000Y-124714000D02*
X122936000Y-119634000D01*
X113284000Y-124714000D02*
X117856000Y-124714000D01*
%TO.N,Net-(J6-Pad4)*%
X117856000Y-122174000D02*
X120396000Y-119634000D01*
X113284000Y-122174000D02*
X117856000Y-122174000D01*
%TO.N,Net-(J6-Pad3)*%
X113284000Y-119634000D02*
X117856000Y-119634000D01*
X117856000Y-119634000D02*
X124968000Y-112522000D01*
X124968000Y-87185500D02*
X122643900Y-84861400D01*
X124968000Y-112522000D02*
X124968000Y-87185500D01*
%TO.N,Net-(J6-Pad2)*%
X114714001Y-90482501D02*
X120396000Y-84800502D01*
X114714001Y-115663999D02*
X114714001Y-90482501D01*
X113284000Y-117094000D02*
X114714001Y-115663999D01*
X120396000Y-69329300D02*
X118148100Y-67081400D01*
X120396000Y-84800502D02*
X120396000Y-69329300D01*
%TO.N,Net-(J6-Pad1)*%
X113284000Y-89725500D02*
X118148100Y-84861400D01*
X113284000Y-114554000D02*
X113284000Y-89725500D01*
%TO.N,Net-(SW1-Pad2)*%
X122643900Y-75666600D02*
X122643900Y-67081400D01*
%TD*%
D14*
X126340000Y-122649582D02*
X126340001Y-141072000D01*
X112420000Y-141072000D01*
X112420000Y-128462688D01*
X112580589Y-128569990D01*
X112850842Y-128681932D01*
X113137740Y-128739000D01*
X113430260Y-128739000D01*
X113717158Y-128681932D01*
X113987411Y-128569990D01*
X114230632Y-128407475D01*
X114369107Y-128269000D01*
X117382542Y-128269000D01*
X117432402Y-128273911D01*
X117482262Y-128269000D01*
X117482265Y-128269000D01*
X117631377Y-128254314D01*
X117822705Y-128196275D01*
X117999034Y-128102025D01*
X118153588Y-127975186D01*
X118185381Y-127936446D01*
X125057067Y-121064762D01*
X125329740Y-121119000D01*
X125622260Y-121119000D01*
X125909158Y-121061932D01*
X126179411Y-120949990D01*
X126340000Y-120842688D01*
X126340000Y-122649582D01*
%TA.AperFunction,NonConductor*%
D15*
G36*
X126340000Y-122649582D02*
G01*
X126340001Y-141072000D01*
X112420000Y-141072000D01*
X112420000Y-128462688D01*
X112580589Y-128569990D01*
X112850842Y-128681932D01*
X113137740Y-128739000D01*
X113430260Y-128739000D01*
X113717158Y-128681932D01*
X113987411Y-128569990D01*
X114230632Y-128407475D01*
X114369107Y-128269000D01*
X117382542Y-128269000D01*
X117432402Y-128273911D01*
X117482262Y-128269000D01*
X117482265Y-128269000D01*
X117631377Y-128254314D01*
X117822705Y-128196275D01*
X117999034Y-128102025D01*
X118153588Y-127975186D01*
X118185381Y-127936446D01*
X125057067Y-121064762D01*
X125329740Y-121119000D01*
X125622260Y-121119000D01*
X125909158Y-121061932D01*
X126179411Y-120949990D01*
X126340000Y-120842688D01*
X126340000Y-122649582D01*
G37*
%TD.AperFunction*%
D14*
X117011977Y-126239000D02*
X114369107Y-126239000D01*
X114230632Y-126100525D01*
X114056240Y-125984000D01*
X114230632Y-125867475D01*
X114369107Y-125729000D01*
X117521977Y-125729000D01*
X117011977Y-126239000D01*
%TA.AperFunction,NonConductor*%
D15*
G36*
X117011977Y-126239000D02*
G01*
X114369107Y-126239000D01*
X114230632Y-126100525D01*
X114056240Y-125984000D01*
X114230632Y-125867475D01*
X114369107Y-125729000D01*
X117521977Y-125729000D01*
X117011977Y-126239000D01*
G37*
%TD.AperFunction*%
D14*
X112511760Y-125984000D02*
X112420000Y-126045312D01*
X112420000Y-125922688D01*
X112511760Y-125984000D01*
%TA.AperFunction,NonConductor*%
D15*
G36*
X112511760Y-125984000D02*
G01*
X112420000Y-126045312D01*
X112420000Y-125922688D01*
X112511760Y-125984000D01*
G37*
%TD.AperFunction*%
D14*
X117435575Y-123699000D02*
X114369107Y-123699000D01*
X114230632Y-123560525D01*
X114056240Y-123444000D01*
X114230632Y-123327475D01*
X114369107Y-123189000D01*
X117806140Y-123189000D01*
X117856000Y-123193911D01*
X117905860Y-123189000D01*
X117905863Y-123189000D01*
X117949913Y-123184661D01*
X117435575Y-123699000D01*
%TA.AperFunction,NonConductor*%
D15*
G36*
X117435575Y-123699000D02*
G01*
X114369107Y-123699000D01*
X114230632Y-123560525D01*
X114056240Y-123444000D01*
X114230632Y-123327475D01*
X114369107Y-123189000D01*
X117806140Y-123189000D01*
X117856000Y-123193911D01*
X117905860Y-123189000D01*
X117905863Y-123189000D01*
X117949913Y-123184661D01*
X117435575Y-123699000D01*
G37*
%TD.AperFunction*%
D14*
X112511760Y-123444000D02*
X112420000Y-123505312D01*
X112420000Y-123382688D01*
X112511760Y-123444000D01*
%TA.AperFunction,NonConductor*%
D15*
G36*
X112511760Y-123444000D02*
G01*
X112420000Y-123505312D01*
X112420000Y-123382688D01*
X112511760Y-123444000D01*
G37*
%TD.AperFunction*%
D14*
X116416498Y-120728180D02*
X116475463Y-120838494D01*
X116554815Y-120935185D01*
X116651506Y-121014537D01*
X116761820Y-121073502D01*
X116881518Y-121109812D01*
X117006000Y-121122072D01*
X117472503Y-121122072D01*
X117435575Y-121159000D01*
X114369107Y-121159000D01*
X114230632Y-121020525D01*
X114056240Y-120904000D01*
X114230632Y-120787475D01*
X114369107Y-120649000D01*
X116392479Y-120649000D01*
X116416498Y-120728180D01*
%TA.AperFunction,NonConductor*%
D15*
G36*
X116416498Y-120728180D02*
G01*
X116475463Y-120838494D01*
X116554815Y-120935185D01*
X116651506Y-121014537D01*
X116761820Y-121073502D01*
X116881518Y-121109812D01*
X117006000Y-121122072D01*
X117472503Y-121122072D01*
X117435575Y-121159000D01*
X114369107Y-121159000D01*
X114230632Y-121020525D01*
X114056240Y-120904000D01*
X114230632Y-120787475D01*
X114369107Y-120649000D01*
X116392479Y-120649000D01*
X116416498Y-120728180D01*
G37*
%TD.AperFunction*%
D14*
X112511760Y-120904000D02*
X112420000Y-120965312D01*
X112420000Y-120842688D01*
X112511760Y-120904000D01*
%TA.AperFunction,NonConductor*%
D15*
G36*
X112511760Y-120904000D02*
G01*
X112420000Y-120965312D01*
X112420000Y-120842688D01*
X112511760Y-120904000D01*
G37*
%TD.AperFunction*%
D14*
X126340001Y-68801581D02*
X126340000Y-73438418D01*
X126340001Y-73438428D01*
X126340000Y-112808418D01*
X126340001Y-112808428D01*
X126340000Y-117380418D01*
X126340001Y-117380428D01*
X126340001Y-118425313D01*
X126179411Y-118318010D01*
X125909158Y-118206068D01*
X125622260Y-118149000D01*
X125329740Y-118149000D01*
X125042842Y-118206068D01*
X124772589Y-118318010D01*
X124529368Y-118480525D01*
X124322525Y-118687368D01*
X124206000Y-118861760D01*
X124089475Y-118687368D01*
X123882632Y-118480525D01*
X123639411Y-118318010D01*
X123369158Y-118206068D01*
X123082260Y-118149000D01*
X122789740Y-118149000D01*
X122502842Y-118206068D01*
X122232589Y-118318010D01*
X121989368Y-118480525D01*
X121782525Y-118687368D01*
X121666000Y-118861760D01*
X121549475Y-118687368D01*
X121342632Y-118480525D01*
X121099411Y-118318010D01*
X120829158Y-118206068D01*
X120737575Y-118187851D01*
X125650451Y-113274975D01*
X125689186Y-113243186D01*
X125763436Y-113152713D01*
X125816025Y-113088633D01*
X125910275Y-112912304D01*
X125941788Y-112808418D01*
X125968314Y-112720975D01*
X125983000Y-112571863D01*
X125983000Y-112571861D01*
X125987911Y-112522000D01*
X125983000Y-112472139D01*
X125983000Y-87235361D01*
X125987911Y-87185500D01*
X125983000Y-87135637D01*
X125968314Y-86986525D01*
X125910275Y-86795197D01*
X125816025Y-86618867D01*
X125720972Y-86503045D01*
X125720970Y-86503043D01*
X125689186Y-86464314D01*
X125650457Y-86432530D01*
X123662972Y-84445047D01*
X123662972Y-84099400D01*
X123650712Y-83974918D01*
X123614402Y-83855220D01*
X123555437Y-83744906D01*
X123476085Y-83648215D01*
X123379394Y-83568863D01*
X123269080Y-83509898D01*
X123149382Y-83473588D01*
X123024900Y-83461328D01*
X122262900Y-83461328D01*
X122138418Y-83473588D01*
X122018720Y-83509898D01*
X121908406Y-83568863D01*
X121811715Y-83648215D01*
X121732363Y-83744906D01*
X121673398Y-83855220D01*
X121637088Y-83974918D01*
X121624828Y-84099400D01*
X121624828Y-84852882D01*
X121623989Y-84861400D01*
X121624828Y-84869918D01*
X121624828Y-85623400D01*
X121637088Y-85747882D01*
X121673398Y-85867580D01*
X121732363Y-85977894D01*
X121811715Y-86074585D01*
X121908406Y-86153937D01*
X122018720Y-86212902D01*
X122138418Y-86249212D01*
X122262900Y-86261472D01*
X122608546Y-86261472D01*
X123953001Y-87605928D01*
X123953000Y-112101574D01*
X117908647Y-118145928D01*
X117006000Y-118145928D01*
X116881518Y-118158188D01*
X116761820Y-118194498D01*
X116651506Y-118253463D01*
X116554815Y-118332815D01*
X116475463Y-118429506D01*
X116416498Y-118539820D01*
X116392479Y-118619000D01*
X114369107Y-118619000D01*
X114230632Y-118480525D01*
X114056240Y-118364000D01*
X114230632Y-118247475D01*
X114437475Y-118040632D01*
X114599990Y-117797411D01*
X114711932Y-117527158D01*
X114769000Y-117240260D01*
X114769000Y-117044426D01*
X115396452Y-116416974D01*
X115435187Y-116385185D01*
X115509437Y-116294712D01*
X115562026Y-116230632D01*
X115656276Y-116054303D01*
X115669784Y-116009772D01*
X115714315Y-115862974D01*
X115729001Y-115713862D01*
X115729001Y-115713860D01*
X115733912Y-115663999D01*
X115729001Y-115614138D01*
X115729001Y-96299872D01*
X118161000Y-96299872D01*
X118161000Y-96740128D01*
X118246890Y-97171925D01*
X118415369Y-97578669D01*
X118659962Y-97944729D01*
X118971271Y-98256038D01*
X119337331Y-98500631D01*
X119744075Y-98669110D01*
X120175872Y-98755000D01*
X120616128Y-98755000D01*
X121047925Y-98669110D01*
X121454669Y-98500631D01*
X121820729Y-98256038D01*
X122132038Y-97944729D01*
X122376631Y-97578669D01*
X122545110Y-97171925D01*
X122631000Y-96740128D01*
X122631000Y-96299872D01*
X122545110Y-95868075D01*
X122376631Y-95461331D01*
X122132038Y-95095271D01*
X121820729Y-94783962D01*
X121454669Y-94539369D01*
X121047925Y-94370890D01*
X120616128Y-94285000D01*
X120175872Y-94285000D01*
X119744075Y-94370890D01*
X119337331Y-94539369D01*
X118971271Y-94783962D01*
X118659962Y-95095271D01*
X118415369Y-95461331D01*
X118246890Y-95868075D01*
X118161000Y-96299872D01*
X115729001Y-96299872D01*
X115729001Y-90902926D01*
X121078451Y-85553477D01*
X121117186Y-85521688D01*
X121194047Y-85428032D01*
X121244025Y-85367135D01*
X121338274Y-85190806D01*
X121338275Y-85190805D01*
X121396314Y-84999477D01*
X121411000Y-84850365D01*
X121411000Y-84850356D01*
X121415910Y-84800503D01*
X121411000Y-84750650D01*
X121411000Y-69379161D01*
X121415911Y-69329300D01*
X121411000Y-69279437D01*
X121396314Y-69130325D01*
X121338275Y-68938997D01*
X121299481Y-68866419D01*
X121244025Y-68762667D01*
X121148972Y-68646845D01*
X121148970Y-68646843D01*
X121117186Y-68608114D01*
X121078457Y-68576330D01*
X119167172Y-66665047D01*
X119167172Y-66319400D01*
X121624828Y-66319400D01*
X121624828Y-67843400D01*
X121628901Y-67884754D01*
X121628900Y-74863254D01*
X121624828Y-74904600D01*
X121624828Y-76428600D01*
X121637088Y-76553082D01*
X121673398Y-76672780D01*
X121732363Y-76783094D01*
X121811715Y-76879785D01*
X121908406Y-76959137D01*
X122018720Y-77018102D01*
X122138418Y-77054412D01*
X122262900Y-77066672D01*
X123024900Y-77066672D01*
X123149382Y-77054412D01*
X123269080Y-77018102D01*
X123379394Y-76959137D01*
X123476085Y-76879785D01*
X123555437Y-76783094D01*
X123614402Y-76672780D01*
X123650712Y-76553082D01*
X123662972Y-76428600D01*
X123662972Y-74904600D01*
X123658900Y-74863255D01*
X123658900Y-67884745D01*
X123662972Y-67843400D01*
X123662972Y-66319400D01*
X123650712Y-66194918D01*
X123614402Y-66075220D01*
X123555437Y-65964906D01*
X123476085Y-65868215D01*
X123379394Y-65788863D01*
X123269080Y-65729898D01*
X123149382Y-65693588D01*
X123024900Y-65681328D01*
X122262900Y-65681328D01*
X122138418Y-65693588D01*
X122018720Y-65729898D01*
X121908406Y-65788863D01*
X121811715Y-65868215D01*
X121732363Y-65964906D01*
X121673398Y-66075220D01*
X121637088Y-66194918D01*
X121624828Y-66319400D01*
X119167172Y-66319400D01*
X119154912Y-66194918D01*
X119118602Y-66075220D01*
X119059637Y-65964906D01*
X118980285Y-65868215D01*
X118883594Y-65788863D01*
X118773280Y-65729898D01*
X118653582Y-65693588D01*
X118529100Y-65681328D01*
X117767100Y-65681328D01*
X117642618Y-65693588D01*
X117522920Y-65729898D01*
X117412606Y-65788863D01*
X117315915Y-65868215D01*
X117236563Y-65964906D01*
X117177598Y-66075220D01*
X117141288Y-66194918D01*
X117129028Y-66319400D01*
X117129028Y-67072882D01*
X117128189Y-67081400D01*
X117129028Y-67089918D01*
X117129028Y-67843400D01*
X117141288Y-67967882D01*
X117177598Y-68087580D01*
X117236563Y-68197894D01*
X117315915Y-68294585D01*
X117412606Y-68373937D01*
X117522920Y-68432902D01*
X117642618Y-68469212D01*
X117767100Y-68481472D01*
X118112746Y-68481472D01*
X119381001Y-69749728D01*
X119381000Y-84380076D01*
X119167172Y-84593904D01*
X119167172Y-84099400D01*
X119154912Y-83974918D01*
X119118602Y-83855220D01*
X119059637Y-83744906D01*
X118980285Y-83648215D01*
X118883594Y-83568863D01*
X118773280Y-83509898D01*
X118653582Y-83473588D01*
X118529100Y-83461328D01*
X117767100Y-83461328D01*
X117642618Y-83473588D01*
X117522920Y-83509898D01*
X117412606Y-83568863D01*
X117315915Y-83648215D01*
X117236563Y-83744906D01*
X117177598Y-83855220D01*
X117141288Y-83974918D01*
X117129028Y-84099400D01*
X117129028Y-84445045D01*
X112601550Y-88972525D01*
X112562815Y-89004314D01*
X112531029Y-89043046D01*
X112435975Y-89158868D01*
X112420000Y-89188755D01*
X112420000Y-74904600D01*
X117129028Y-74904600D01*
X117129028Y-76428600D01*
X117141288Y-76553082D01*
X117177598Y-76672780D01*
X117236563Y-76783094D01*
X117315915Y-76879785D01*
X117412606Y-76959137D01*
X117522920Y-77018102D01*
X117642618Y-77054412D01*
X117767100Y-77066672D01*
X118529100Y-77066672D01*
X118653582Y-77054412D01*
X118773280Y-77018102D01*
X118883594Y-76959137D01*
X118980285Y-76879785D01*
X119059637Y-76783094D01*
X119118602Y-76672780D01*
X119154912Y-76553082D01*
X119167172Y-76428600D01*
X119167172Y-74904600D01*
X119154912Y-74780118D01*
X119118602Y-74660420D01*
X119059637Y-74550106D01*
X118980285Y-74453415D01*
X118883594Y-74374063D01*
X118773280Y-74315098D01*
X118653582Y-74278788D01*
X118529100Y-74266528D01*
X117767100Y-74266528D01*
X117642618Y-74278788D01*
X117522920Y-74315098D01*
X117412606Y-74374063D01*
X117315915Y-74453415D01*
X117236563Y-74550106D01*
X117177598Y-74660420D01*
X117141288Y-74780118D01*
X117129028Y-74904600D01*
X112420000Y-74904600D01*
X112420000Y-57124600D01*
X117129028Y-57124600D01*
X117129028Y-58648600D01*
X117141288Y-58773082D01*
X117177598Y-58892780D01*
X117236563Y-59003094D01*
X117315915Y-59099785D01*
X117412606Y-59179137D01*
X117522920Y-59238102D01*
X117642618Y-59274412D01*
X117767100Y-59286672D01*
X118529100Y-59286672D01*
X118653582Y-59274412D01*
X118773280Y-59238102D01*
X118883594Y-59179137D01*
X118980285Y-59099785D01*
X119059637Y-59003094D01*
X119118602Y-58892780D01*
X119154912Y-58773082D01*
X119167172Y-58648600D01*
X119167172Y-57124600D01*
X121624828Y-57124600D01*
X121624828Y-58648600D01*
X121637088Y-58773082D01*
X121673398Y-58892780D01*
X121732363Y-59003094D01*
X121811715Y-59099785D01*
X121908406Y-59179137D01*
X122018720Y-59238102D01*
X122138418Y-59274412D01*
X122262900Y-59286672D01*
X123024900Y-59286672D01*
X123149382Y-59274412D01*
X123269080Y-59238102D01*
X123379394Y-59179137D01*
X123476085Y-59099785D01*
X123555437Y-59003094D01*
X123614402Y-58892780D01*
X123650712Y-58773082D01*
X123662972Y-58648600D01*
X123662972Y-57124600D01*
X123650712Y-57000118D01*
X123614402Y-56880420D01*
X123555437Y-56770106D01*
X123476085Y-56673415D01*
X123379394Y-56594063D01*
X123269080Y-56535098D01*
X123149382Y-56498788D01*
X123024900Y-56486528D01*
X122262900Y-56486528D01*
X122138418Y-56498788D01*
X122018720Y-56535098D01*
X121908406Y-56594063D01*
X121811715Y-56673415D01*
X121732363Y-56770106D01*
X121673398Y-56880420D01*
X121637088Y-57000118D01*
X121624828Y-57124600D01*
X119167172Y-57124600D01*
X119154912Y-57000118D01*
X119118602Y-56880420D01*
X119059637Y-56770106D01*
X118980285Y-56673415D01*
X118883594Y-56594063D01*
X118773280Y-56535098D01*
X118653582Y-56498788D01*
X118529100Y-56486528D01*
X117767100Y-56486528D01*
X117642618Y-56498788D01*
X117522920Y-56535098D01*
X117412606Y-56594063D01*
X117315915Y-56673415D01*
X117236563Y-56770106D01*
X117177598Y-56880420D01*
X117141288Y-57000118D01*
X117129028Y-57124600D01*
X112420000Y-57124600D01*
X112420000Y-52476000D01*
X126340000Y-52476000D01*
X126340001Y-68801581D01*
%TA.AperFunction,NonConductor*%
D15*
G36*
X126340001Y-68801581D02*
G01*
X126340000Y-73438418D01*
X126340001Y-73438428D01*
X126340000Y-112808418D01*
X126340001Y-112808428D01*
X126340000Y-117380418D01*
X126340001Y-117380428D01*
X126340001Y-118425313D01*
X126179411Y-118318010D01*
X125909158Y-118206068D01*
X125622260Y-118149000D01*
X125329740Y-118149000D01*
X125042842Y-118206068D01*
X124772589Y-118318010D01*
X124529368Y-118480525D01*
X124322525Y-118687368D01*
X124206000Y-118861760D01*
X124089475Y-118687368D01*
X123882632Y-118480525D01*
X123639411Y-118318010D01*
X123369158Y-118206068D01*
X123082260Y-118149000D01*
X122789740Y-118149000D01*
X122502842Y-118206068D01*
X122232589Y-118318010D01*
X121989368Y-118480525D01*
X121782525Y-118687368D01*
X121666000Y-118861760D01*
X121549475Y-118687368D01*
X121342632Y-118480525D01*
X121099411Y-118318010D01*
X120829158Y-118206068D01*
X120737575Y-118187851D01*
X125650451Y-113274975D01*
X125689186Y-113243186D01*
X125763436Y-113152713D01*
X125816025Y-113088633D01*
X125910275Y-112912304D01*
X125941788Y-112808418D01*
X125968314Y-112720975D01*
X125983000Y-112571863D01*
X125983000Y-112571861D01*
X125987911Y-112522000D01*
X125983000Y-112472139D01*
X125983000Y-87235361D01*
X125987911Y-87185500D01*
X125983000Y-87135637D01*
X125968314Y-86986525D01*
X125910275Y-86795197D01*
X125816025Y-86618867D01*
X125720972Y-86503045D01*
X125720970Y-86503043D01*
X125689186Y-86464314D01*
X125650457Y-86432530D01*
X123662972Y-84445047D01*
X123662972Y-84099400D01*
X123650712Y-83974918D01*
X123614402Y-83855220D01*
X123555437Y-83744906D01*
X123476085Y-83648215D01*
X123379394Y-83568863D01*
X123269080Y-83509898D01*
X123149382Y-83473588D01*
X123024900Y-83461328D01*
X122262900Y-83461328D01*
X122138418Y-83473588D01*
X122018720Y-83509898D01*
X121908406Y-83568863D01*
X121811715Y-83648215D01*
X121732363Y-83744906D01*
X121673398Y-83855220D01*
X121637088Y-83974918D01*
X121624828Y-84099400D01*
X121624828Y-84852882D01*
X121623989Y-84861400D01*
X121624828Y-84869918D01*
X121624828Y-85623400D01*
X121637088Y-85747882D01*
X121673398Y-85867580D01*
X121732363Y-85977894D01*
X121811715Y-86074585D01*
X121908406Y-86153937D01*
X122018720Y-86212902D01*
X122138418Y-86249212D01*
X122262900Y-86261472D01*
X122608546Y-86261472D01*
X123953001Y-87605928D01*
X123953000Y-112101574D01*
X117908647Y-118145928D01*
X117006000Y-118145928D01*
X116881518Y-118158188D01*
X116761820Y-118194498D01*
X116651506Y-118253463D01*
X116554815Y-118332815D01*
X116475463Y-118429506D01*
X116416498Y-118539820D01*
X116392479Y-118619000D01*
X114369107Y-118619000D01*
X114230632Y-118480525D01*
X114056240Y-118364000D01*
X114230632Y-118247475D01*
X114437475Y-118040632D01*
X114599990Y-117797411D01*
X114711932Y-117527158D01*
X114769000Y-117240260D01*
X114769000Y-117044426D01*
X115396452Y-116416974D01*
X115435187Y-116385185D01*
X115509437Y-116294712D01*
X115562026Y-116230632D01*
X115656276Y-116054303D01*
X115669784Y-116009772D01*
X115714315Y-115862974D01*
X115729001Y-115713862D01*
X115729001Y-115713860D01*
X115733912Y-115663999D01*
X115729001Y-115614138D01*
X115729001Y-96299872D01*
X118161000Y-96299872D01*
X118161000Y-96740128D01*
X118246890Y-97171925D01*
X118415369Y-97578669D01*
X118659962Y-97944729D01*
X118971271Y-98256038D01*
X119337331Y-98500631D01*
X119744075Y-98669110D01*
X120175872Y-98755000D01*
X120616128Y-98755000D01*
X121047925Y-98669110D01*
X121454669Y-98500631D01*
X121820729Y-98256038D01*
X122132038Y-97944729D01*
X122376631Y-97578669D01*
X122545110Y-97171925D01*
X122631000Y-96740128D01*
X122631000Y-96299872D01*
X122545110Y-95868075D01*
X122376631Y-95461331D01*
X122132038Y-95095271D01*
X121820729Y-94783962D01*
X121454669Y-94539369D01*
X121047925Y-94370890D01*
X120616128Y-94285000D01*
X120175872Y-94285000D01*
X119744075Y-94370890D01*
X119337331Y-94539369D01*
X118971271Y-94783962D01*
X118659962Y-95095271D01*
X118415369Y-95461331D01*
X118246890Y-95868075D01*
X118161000Y-96299872D01*
X115729001Y-96299872D01*
X115729001Y-90902926D01*
X121078451Y-85553477D01*
X121117186Y-85521688D01*
X121194047Y-85428032D01*
X121244025Y-85367135D01*
X121338274Y-85190806D01*
X121338275Y-85190805D01*
X121396314Y-84999477D01*
X121411000Y-84850365D01*
X121411000Y-84850356D01*
X121415910Y-84800503D01*
X121411000Y-84750650D01*
X121411000Y-69379161D01*
X121415911Y-69329300D01*
X121411000Y-69279437D01*
X121396314Y-69130325D01*
X121338275Y-68938997D01*
X121299481Y-68866419D01*
X121244025Y-68762667D01*
X121148972Y-68646845D01*
X121148970Y-68646843D01*
X121117186Y-68608114D01*
X121078457Y-68576330D01*
X119167172Y-66665047D01*
X119167172Y-66319400D01*
X121624828Y-66319400D01*
X121624828Y-67843400D01*
X121628901Y-67884754D01*
X121628900Y-74863254D01*
X121624828Y-74904600D01*
X121624828Y-76428600D01*
X121637088Y-76553082D01*
X121673398Y-76672780D01*
X121732363Y-76783094D01*
X121811715Y-76879785D01*
X121908406Y-76959137D01*
X122018720Y-77018102D01*
X122138418Y-77054412D01*
X122262900Y-77066672D01*
X123024900Y-77066672D01*
X123149382Y-77054412D01*
X123269080Y-77018102D01*
X123379394Y-76959137D01*
X123476085Y-76879785D01*
X123555437Y-76783094D01*
X123614402Y-76672780D01*
X123650712Y-76553082D01*
X123662972Y-76428600D01*
X123662972Y-74904600D01*
X123658900Y-74863255D01*
X123658900Y-67884745D01*
X123662972Y-67843400D01*
X123662972Y-66319400D01*
X123650712Y-66194918D01*
X123614402Y-66075220D01*
X123555437Y-65964906D01*
X123476085Y-65868215D01*
X123379394Y-65788863D01*
X123269080Y-65729898D01*
X123149382Y-65693588D01*
X123024900Y-65681328D01*
X122262900Y-65681328D01*
X122138418Y-65693588D01*
X122018720Y-65729898D01*
X121908406Y-65788863D01*
X121811715Y-65868215D01*
X121732363Y-65964906D01*
X121673398Y-66075220D01*
X121637088Y-66194918D01*
X121624828Y-66319400D01*
X119167172Y-66319400D01*
X119154912Y-66194918D01*
X119118602Y-66075220D01*
X119059637Y-65964906D01*
X118980285Y-65868215D01*
X118883594Y-65788863D01*
X118773280Y-65729898D01*
X118653582Y-65693588D01*
X118529100Y-65681328D01*
X117767100Y-65681328D01*
X117642618Y-65693588D01*
X117522920Y-65729898D01*
X117412606Y-65788863D01*
X117315915Y-65868215D01*
X117236563Y-65964906D01*
X117177598Y-66075220D01*
X117141288Y-66194918D01*
X117129028Y-66319400D01*
X117129028Y-67072882D01*
X117128189Y-67081400D01*
X117129028Y-67089918D01*
X117129028Y-67843400D01*
X117141288Y-67967882D01*
X117177598Y-68087580D01*
X117236563Y-68197894D01*
X117315915Y-68294585D01*
X117412606Y-68373937D01*
X117522920Y-68432902D01*
X117642618Y-68469212D01*
X117767100Y-68481472D01*
X118112746Y-68481472D01*
X119381001Y-69749728D01*
X119381000Y-84380076D01*
X119167172Y-84593904D01*
X119167172Y-84099400D01*
X119154912Y-83974918D01*
X119118602Y-83855220D01*
X119059637Y-83744906D01*
X118980285Y-83648215D01*
X118883594Y-83568863D01*
X118773280Y-83509898D01*
X118653582Y-83473588D01*
X118529100Y-83461328D01*
X117767100Y-83461328D01*
X117642618Y-83473588D01*
X117522920Y-83509898D01*
X117412606Y-83568863D01*
X117315915Y-83648215D01*
X117236563Y-83744906D01*
X117177598Y-83855220D01*
X117141288Y-83974918D01*
X117129028Y-84099400D01*
X117129028Y-84445045D01*
X112601550Y-88972525D01*
X112562815Y-89004314D01*
X112531029Y-89043046D01*
X112435975Y-89158868D01*
X112420000Y-89188755D01*
X112420000Y-74904600D01*
X117129028Y-74904600D01*
X117129028Y-76428600D01*
X117141288Y-76553082D01*
X117177598Y-76672780D01*
X117236563Y-76783094D01*
X117315915Y-76879785D01*
X117412606Y-76959137D01*
X117522920Y-77018102D01*
X117642618Y-77054412D01*
X117767100Y-77066672D01*
X118529100Y-77066672D01*
X118653582Y-77054412D01*
X118773280Y-77018102D01*
X118883594Y-76959137D01*
X118980285Y-76879785D01*
X119059637Y-76783094D01*
X119118602Y-76672780D01*
X119154912Y-76553082D01*
X119167172Y-76428600D01*
X119167172Y-74904600D01*
X119154912Y-74780118D01*
X119118602Y-74660420D01*
X119059637Y-74550106D01*
X118980285Y-74453415D01*
X118883594Y-74374063D01*
X118773280Y-74315098D01*
X118653582Y-74278788D01*
X118529100Y-74266528D01*
X117767100Y-74266528D01*
X117642618Y-74278788D01*
X117522920Y-74315098D01*
X117412606Y-74374063D01*
X117315915Y-74453415D01*
X117236563Y-74550106D01*
X117177598Y-74660420D01*
X117141288Y-74780118D01*
X117129028Y-74904600D01*
X112420000Y-74904600D01*
X112420000Y-57124600D01*
X117129028Y-57124600D01*
X117129028Y-58648600D01*
X117141288Y-58773082D01*
X117177598Y-58892780D01*
X117236563Y-59003094D01*
X117315915Y-59099785D01*
X117412606Y-59179137D01*
X117522920Y-59238102D01*
X117642618Y-59274412D01*
X117767100Y-59286672D01*
X118529100Y-59286672D01*
X118653582Y-59274412D01*
X118773280Y-59238102D01*
X118883594Y-59179137D01*
X118980285Y-59099785D01*
X119059637Y-59003094D01*
X119118602Y-58892780D01*
X119154912Y-58773082D01*
X119167172Y-58648600D01*
X119167172Y-57124600D01*
X121624828Y-57124600D01*
X121624828Y-58648600D01*
X121637088Y-58773082D01*
X121673398Y-58892780D01*
X121732363Y-59003094D01*
X121811715Y-59099785D01*
X121908406Y-59179137D01*
X122018720Y-59238102D01*
X122138418Y-59274412D01*
X122262900Y-59286672D01*
X123024900Y-59286672D01*
X123149382Y-59274412D01*
X123269080Y-59238102D01*
X123379394Y-59179137D01*
X123476085Y-59099785D01*
X123555437Y-59003094D01*
X123614402Y-58892780D01*
X123650712Y-58773082D01*
X123662972Y-58648600D01*
X123662972Y-57124600D01*
X123650712Y-57000118D01*
X123614402Y-56880420D01*
X123555437Y-56770106D01*
X123476085Y-56673415D01*
X123379394Y-56594063D01*
X123269080Y-56535098D01*
X123149382Y-56498788D01*
X123024900Y-56486528D01*
X122262900Y-56486528D01*
X122138418Y-56498788D01*
X122018720Y-56535098D01*
X121908406Y-56594063D01*
X121811715Y-56673415D01*
X121732363Y-56770106D01*
X121673398Y-56880420D01*
X121637088Y-57000118D01*
X121624828Y-57124600D01*
X119167172Y-57124600D01*
X119154912Y-57000118D01*
X119118602Y-56880420D01*
X119059637Y-56770106D01*
X118980285Y-56673415D01*
X118883594Y-56594063D01*
X118773280Y-56535098D01*
X118653582Y-56498788D01*
X118529100Y-56486528D01*
X117767100Y-56486528D01*
X117642618Y-56498788D01*
X117522920Y-56535098D01*
X117412606Y-56594063D01*
X117315915Y-56673415D01*
X117236563Y-56770106D01*
X117177598Y-56880420D01*
X117141288Y-57000118D01*
X117129028Y-57124600D01*
X112420000Y-57124600D01*
X112420000Y-52476000D01*
X126340000Y-52476000D01*
X126340001Y-68801581D01*
G37*
%TD.AperFunction*%
D14*
X112511760Y-118364000D02*
X112420000Y-118425312D01*
X112420000Y-118302688D01*
X112511760Y-118364000D01*
%TA.AperFunction,NonConductor*%
D15*
G36*
X112511760Y-118364000D02*
G01*
X112420000Y-118425312D01*
X112420000Y-118302688D01*
X112511760Y-118364000D01*
G37*
%TD.AperFunction*%
M02*
