%TF.GenerationSoftware,KiCad,Pcbnew,5.99.0+really5.1.9+dfsg1-1*%
%TF.CreationDate,2021-05-09T00:16:48+10:00*%
%TF.ProjectId,minisynth32,6d696e69-7379-46e7-9468-33322e6b6963,1.0*%
%TF.SameCoordinates,Original*%
%TF.FileFunction,Legend,Top*%
%TF.FilePolarity,Positive*%
%FSLAX46Y46*%
G04 Gerber Fmt 4.6, Leading zero omitted, Abs format (unit mm)*
G04 Created by KiCad (PCBNEW 5.99.0+really5.1.9+dfsg1-1) date 2021-05-09 00:16:48*
%MOMM*%
%LPD*%
G01*
G04 APERTURE LIST*
%ADD10C,0.120000*%
%ADD11C,0.152400*%
%ADD12C,0.150000*%
G04 APERTURE END LIST*
D10*
%TO.C,J7*%
X128016000Y-118364000D02*
X128016000Y-154432000D01*
X115316000Y-118364000D02*
X128016000Y-118364000D01*
X115316000Y-154432000D02*
X115316000Y-118364000D01*
X115316000Y-154432000D02*
X128016000Y-154432000D01*
D11*
%TO.C,SW3*%
X117271800Y-65608200D02*
X123520200Y-65608200D01*
X117271800Y-59359800D02*
X117271800Y-65608200D01*
X123520200Y-59359800D02*
X117271800Y-59359800D01*
X123520200Y-65608200D02*
X123520200Y-59359800D01*
%TO.C,SW1*%
X117271800Y-83388200D02*
X123520200Y-83388200D01*
X117271800Y-77139800D02*
X117271800Y-83388200D01*
X123520200Y-77139800D02*
X117271800Y-77139800D01*
X123520200Y-83388200D02*
X123520200Y-77139800D01*
%TO.C,J7*%
D12*
X122070761Y-136238571D02*
X122118380Y-136095714D01*
X122118380Y-135857619D01*
X122070761Y-135762380D01*
X122023142Y-135714761D01*
X121927904Y-135667142D01*
X121832666Y-135667142D01*
X121737428Y-135714761D01*
X121689809Y-135762380D01*
X121642190Y-135857619D01*
X121594571Y-136048095D01*
X121546952Y-136143333D01*
X121499333Y-136190952D01*
X121404095Y-136238571D01*
X121308857Y-136238571D01*
X121213619Y-136190952D01*
X121166000Y-136143333D01*
X121118380Y-136048095D01*
X121118380Y-135810000D01*
X121166000Y-135667142D01*
X122070761Y-135286190D02*
X122118380Y-135143333D01*
X122118380Y-134905238D01*
X122070761Y-134810000D01*
X122023142Y-134762380D01*
X121927904Y-134714761D01*
X121832666Y-134714761D01*
X121737428Y-134762380D01*
X121689809Y-134810000D01*
X121642190Y-134905238D01*
X121594571Y-135095714D01*
X121546952Y-135190952D01*
X121499333Y-135238571D01*
X121404095Y-135286190D01*
X121308857Y-135286190D01*
X121213619Y-135238571D01*
X121166000Y-135190952D01*
X121118380Y-135095714D01*
X121118380Y-134857619D01*
X121166000Y-134714761D01*
X122118380Y-134286190D02*
X121118380Y-134286190D01*
X121118380Y-134048095D01*
X121166000Y-133905238D01*
X121261238Y-133810000D01*
X121356476Y-133762380D01*
X121546952Y-133714761D01*
X121689809Y-133714761D01*
X121880285Y-133762380D01*
X121975523Y-133810000D01*
X122070761Y-133905238D01*
X122118380Y-134048095D01*
X122118380Y-134286190D01*
X122118380Y-132762380D02*
X122118380Y-133333809D01*
X122118380Y-133048095D02*
X121118380Y-133048095D01*
X121261238Y-133143333D01*
X121356476Y-133238571D01*
X121404095Y-133333809D01*
X121118380Y-132429047D02*
X121118380Y-131810000D01*
X121499333Y-132143333D01*
X121499333Y-132000476D01*
X121546952Y-131905238D01*
X121594571Y-131857619D01*
X121689809Y-131810000D01*
X121927904Y-131810000D01*
X122023142Y-131857619D01*
X122070761Y-131905238D01*
X122118380Y-132000476D01*
X122118380Y-132286190D01*
X122070761Y-132381428D01*
X122023142Y-132429047D01*
X121118380Y-131190952D02*
X121118380Y-131095714D01*
X121166000Y-131000476D01*
X121213619Y-130952857D01*
X121308857Y-130905238D01*
X121499333Y-130857619D01*
X121737428Y-130857619D01*
X121927904Y-130905238D01*
X122023142Y-130952857D01*
X122070761Y-131000476D01*
X122118380Y-131095714D01*
X122118380Y-131190952D01*
X122070761Y-131286190D01*
X122023142Y-131333809D01*
X121927904Y-131381428D01*
X121737428Y-131429047D01*
X121499333Y-131429047D01*
X121308857Y-131381428D01*
X121213619Y-131333809D01*
X121166000Y-131286190D01*
X121118380Y-131190952D01*
X121118380Y-130000476D02*
X121118380Y-130190952D01*
X121166000Y-130286190D01*
X121213619Y-130333809D01*
X121356476Y-130429047D01*
X121546952Y-130476666D01*
X121927904Y-130476666D01*
X122023142Y-130429047D01*
X122070761Y-130381428D01*
X122118380Y-130286190D01*
X122118380Y-130095714D01*
X122070761Y-130000476D01*
X122023142Y-129952857D01*
X121927904Y-129905238D01*
X121689809Y-129905238D01*
X121594571Y-129952857D01*
X121546952Y-130000476D01*
X121499333Y-130095714D01*
X121499333Y-130286190D01*
X121546952Y-130381428D01*
X121594571Y-130429047D01*
X121689809Y-130476666D01*
X121118380Y-128524285D02*
X121118380Y-128333809D01*
X121166000Y-128238571D01*
X121261238Y-128143333D01*
X121451714Y-128095714D01*
X121785047Y-128095714D01*
X121975523Y-128143333D01*
X122070761Y-128238571D01*
X122118380Y-128333809D01*
X122118380Y-128524285D01*
X122070761Y-128619523D01*
X121975523Y-128714761D01*
X121785047Y-128762380D01*
X121451714Y-128762380D01*
X121261238Y-128714761D01*
X121166000Y-128619523D01*
X121118380Y-128524285D01*
X122118380Y-127190952D02*
X122118380Y-127667142D01*
X121118380Y-127667142D01*
X121594571Y-126857619D02*
X121594571Y-126524285D01*
X122118380Y-126381428D02*
X122118380Y-126857619D01*
X121118380Y-126857619D01*
X121118380Y-126381428D01*
X122118380Y-125952857D02*
X121118380Y-125952857D01*
X121118380Y-125714761D01*
X121166000Y-125571904D01*
X121261238Y-125476666D01*
X121356476Y-125429047D01*
X121546952Y-125381428D01*
X121689809Y-125381428D01*
X121880285Y-125429047D01*
X121975523Y-125476666D01*
X122070761Y-125571904D01*
X122118380Y-125714761D01*
X122118380Y-125952857D01*
%TO.C,SW3*%
X120324571Y-62888761D02*
X120372190Y-62745904D01*
X120419809Y-62698285D01*
X120515047Y-62650666D01*
X120657904Y-62650666D01*
X120753142Y-62698285D01*
X120800761Y-62745904D01*
X120848380Y-62841142D01*
X120848380Y-63222095D01*
X119848380Y-63222095D01*
X119848380Y-62888761D01*
X119896000Y-62793523D01*
X119943619Y-62745904D01*
X120038857Y-62698285D01*
X120134095Y-62698285D01*
X120229333Y-62745904D01*
X120276952Y-62793523D01*
X120324571Y-62888761D01*
X120324571Y-63222095D01*
X119943619Y-62269714D02*
X119896000Y-62222095D01*
X119848380Y-62126857D01*
X119848380Y-61888761D01*
X119896000Y-61793523D01*
X119943619Y-61745904D01*
X120038857Y-61698285D01*
X120134095Y-61698285D01*
X120276952Y-61745904D01*
X120848380Y-62317333D01*
X120848380Y-61698285D01*
%TO.C,SW1*%
X120324571Y-80668761D02*
X120372190Y-80525904D01*
X120419809Y-80478285D01*
X120515047Y-80430666D01*
X120657904Y-80430666D01*
X120753142Y-80478285D01*
X120800761Y-80525904D01*
X120848380Y-80621142D01*
X120848380Y-81002095D01*
X119848380Y-81002095D01*
X119848380Y-80668761D01*
X119896000Y-80573523D01*
X119943619Y-80525904D01*
X120038857Y-80478285D01*
X120134095Y-80478285D01*
X120229333Y-80525904D01*
X120276952Y-80573523D01*
X120324571Y-80668761D01*
X120324571Y-81002095D01*
X120848380Y-79478285D02*
X120848380Y-80049714D01*
X120848380Y-79764000D02*
X119848380Y-79764000D01*
X119991238Y-79859238D01*
X120086476Y-79954476D01*
X120134095Y-80049714D01*
%TD*%
M02*
