%TF.GenerationSoftware,KiCad,Pcbnew,5.99.0+really5.1.10+dfsg1-1*%
%TF.CreationDate,2021-08-22T14:43:38+10:00*%
%TF.ProjectId,minisynth32,6d696e69-7379-46e7-9468-33322e6b6963,1.1-2.0*%
%TF.SameCoordinates,Original*%
%TF.FileFunction,Copper,L2,Bot*%
%TF.FilePolarity,Positive*%
%FSLAX46Y46*%
G04 Gerber Fmt 4.6, Leading zero omitted, Abs format (unit mm)*
G04 Created by KiCad (PCBNEW 5.99.0+really5.1.10+dfsg1-1) date 2021-08-22 14:43:38*
%MOMM*%
%LPD*%
G01*
G04 APERTURE LIST*
%TA.AperFunction,ComponentPad*%
%ADD10O,1.700000X1.700000*%
%TD*%
%TA.AperFunction,ComponentPad*%
%ADD11R,1.700000X1.700000*%
%TD*%
%TA.AperFunction,ComponentPad*%
%ADD12C,1.700000*%
%TD*%
%TA.AperFunction,Conductor*%
%ADD13C,0.254000*%
%TD*%
%TA.AperFunction,Conductor*%
%ADD14C,0.100000*%
%TD*%
G04 APERTURE END LIST*
D10*
%TO.P,J9,4*%
%TO.N,Net-(J9-Pad4)*%
X118500000Y-122420000D03*
%TO.P,J9,3*%
%TO.N,Net-(J9-Pad3)*%
X118500000Y-119880000D03*
%TO.P,J9,2*%
%TO.N,Net-(J9-Pad2)*%
X118500000Y-117340000D03*
D11*
%TO.P,J9,1*%
%TO.N,Net-(J9-Pad1)*%
X118500000Y-114800000D03*
%TD*%
D10*
%TO.P,J8,4*%
%TO.N,Net-(J8-Pad4)*%
X123600000Y-122420000D03*
%TO.P,J8,3*%
%TO.N,Net-(J8-Pad3)*%
X123600000Y-119880000D03*
%TO.P,J8,2*%
%TO.N,Net-(J8-Pad2)*%
X123600000Y-117340000D03*
D11*
%TO.P,J8,1*%
%TO.N,Net-(J8-Pad1)*%
X123600000Y-114800000D03*
%TD*%
D12*
%TO.P,SW10,1*%
%TO.N,Net-(J8-Pad3)*%
X124500000Y-79800000D03*
%TO.P,SW10,2*%
%TO.N,GND2*%
X119500000Y-79800000D03*
%TD*%
%TO.P,SW9,1*%
%TO.N,Net-(J8-Pad2)*%
X122000000Y-90300000D03*
%TO.P,SW9,2*%
%TO.N,GND2*%
X122000000Y-85300000D03*
%TD*%
%TO.P,SW8,1*%
%TO.N,Net-(J8-Pad1)*%
X124500000Y-95800000D03*
%TO.P,SW8,2*%
%TO.N,GND2*%
X119500000Y-95800000D03*
%TD*%
%TO.P,SW7,1*%
%TO.N,Net-(J9-Pad3)*%
X115000000Y-82300000D03*
%TO.P,SW7,2*%
%TO.N,GND2*%
X115000000Y-77300000D03*
%TD*%
%TO.P,SW6,1*%
%TO.N,Net-(J9-Pad2)*%
X112500000Y-87800000D03*
%TO.P,SW6,2*%
%TO.N,GND2*%
X117500000Y-87800000D03*
%TD*%
%TO.P,SW5,1*%
%TO.N,Net-(J9-Pad1)*%
X115000000Y-98300000D03*
%TO.P,SW5,2*%
%TO.N,GND2*%
X115000000Y-93300000D03*
%TD*%
%TO.P,SW4,1*%
%TO.N,Net-(J8-Pad4)*%
X122000000Y-56300000D03*
%TO.P,SW4,2*%
%TO.N,GND2*%
X122000000Y-51300000D03*
%TD*%
%TO.P,SW3,1*%
%TO.N,Net-(J9-Pad4)*%
X115000000Y-56300000D03*
%TO.P,SW3,2*%
%TO.N,GND2*%
X115000000Y-51300000D03*
%TD*%
%TO.P,SW2,1*%
%TO.N,Net-(J6-Pad2)*%
X122000000Y-70300000D03*
%TO.P,SW2,2*%
%TO.N,GND2*%
X122000000Y-65300000D03*
%TD*%
%TO.P,SW1,1*%
%TO.N,Net-(J6-Pad1)*%
X115000000Y-70300000D03*
%TO.P,SW1,2*%
%TO.N,GND2*%
X115000000Y-65300000D03*
%TD*%
D10*
%TO.P,J7,4*%
%TO.N,Net-(J6-Pad6)*%
X123610000Y-126336000D03*
%TO.P,J7,3*%
%TO.N,Net-(J6-Pad5)*%
X121070000Y-126336000D03*
%TO.P,J7,2*%
%TO.N,Net-(J6-Pad4)*%
X118530000Y-126336000D03*
D11*
%TO.P,J7,1*%
%TO.N,GND2*%
X115990000Y-126336000D03*
%TD*%
D10*
%TO.P,J6,6*%
%TO.N,Net-(J6-Pad6)*%
X111584000Y-134176000D03*
%TO.P,J6,5*%
%TO.N,Net-(J6-Pad5)*%
X111584000Y-131636000D03*
%TO.P,J6,4*%
%TO.N,Net-(J6-Pad4)*%
X111584000Y-129096000D03*
%TO.P,J6,3*%
%TO.N,GND2*%
X111584000Y-126556000D03*
%TO.P,J6,2*%
%TO.N,Net-(J6-Pad2)*%
X111584000Y-124016000D03*
D11*
%TO.P,J6,1*%
%TO.N,Net-(J6-Pad1)*%
X111584000Y-121476000D03*
%TD*%
D13*
%TO.N,GND2*%
X126340001Y-139340000D02*
X122660000Y-139340000D01*
X122660000Y-137237581D01*
X122657198Y-137209135D01*
X122657253Y-137201318D01*
X122656354Y-137192147D01*
X122630446Y-136945644D01*
X122618414Y-136887028D01*
X122607208Y-136828284D01*
X122604544Y-136819462D01*
X122531249Y-136582686D01*
X122508074Y-136527555D01*
X122485661Y-136472080D01*
X122481334Y-136463944D01*
X122363446Y-136245914D01*
X122330012Y-136196346D01*
X122297240Y-136146265D01*
X122291416Y-136139124D01*
X122133423Y-135948144D01*
X122090988Y-135906005D01*
X122049125Y-135863255D01*
X122042024Y-135857381D01*
X121849946Y-135700727D01*
X121800169Y-135667655D01*
X121750763Y-135633826D01*
X121742657Y-135629444D01*
X121523809Y-135513081D01*
X121468532Y-135490298D01*
X121413525Y-135466721D01*
X121404722Y-135463997D01*
X121167441Y-135392357D01*
X121108754Y-135380736D01*
X121050248Y-135368300D01*
X121041085Y-135367337D01*
X121041083Y-135367337D01*
X120794405Y-135343150D01*
X120794402Y-135343150D01*
X120762419Y-135340000D01*
X116237581Y-135340000D01*
X116209135Y-135342802D01*
X116201318Y-135342747D01*
X116192147Y-135343646D01*
X115945644Y-135369554D01*
X115887028Y-135381586D01*
X115828284Y-135392792D01*
X115819462Y-135395456D01*
X115582686Y-135468751D01*
X115527555Y-135491926D01*
X115472080Y-135514339D01*
X115463944Y-135518666D01*
X115245914Y-135636554D01*
X115196346Y-135669988D01*
X115146265Y-135702760D01*
X115139124Y-135708584D01*
X114948144Y-135866577D01*
X114906005Y-135909012D01*
X114863255Y-135950875D01*
X114857381Y-135957976D01*
X114700727Y-136150054D01*
X114667655Y-136199831D01*
X114633826Y-136249237D01*
X114629444Y-136257343D01*
X114513081Y-136476191D01*
X114490298Y-136531468D01*
X114466721Y-136586475D01*
X114463997Y-136595278D01*
X114392357Y-136832559D01*
X114380736Y-136891246D01*
X114368300Y-136949752D01*
X114367337Y-136958917D01*
X114343150Y-137205595D01*
X114343150Y-137205608D01*
X114340001Y-137237581D01*
X114340000Y-139340000D01*
X110660000Y-139340000D01*
X110660000Y-135344597D01*
X110880589Y-135491990D01*
X111150842Y-135603932D01*
X111437740Y-135661000D01*
X111730260Y-135661000D01*
X112017158Y-135603932D01*
X112287411Y-135491990D01*
X112530632Y-135329475D01*
X112737475Y-135122632D01*
X112899990Y-134879411D01*
X113011932Y-134609158D01*
X113069000Y-134322260D01*
X113069000Y-134029740D01*
X113011932Y-133742842D01*
X112899990Y-133472589D01*
X112737475Y-133229368D01*
X112530632Y-133022525D01*
X112356240Y-132906000D01*
X112530632Y-132789475D01*
X112737475Y-132582632D01*
X112899990Y-132339411D01*
X113011932Y-132069158D01*
X113069000Y-131782260D01*
X113069000Y-131489740D01*
X113011932Y-131202842D01*
X112899990Y-130932589D01*
X112737475Y-130689368D01*
X112530632Y-130482525D01*
X112356240Y-130366000D01*
X112530632Y-130249475D01*
X112737475Y-130042632D01*
X112899990Y-129799411D01*
X113011932Y-129529158D01*
X113069000Y-129242260D01*
X113069000Y-128949740D01*
X113011932Y-128662842D01*
X112899990Y-128392589D01*
X112737475Y-128149368D01*
X112530632Y-127942525D01*
X112348466Y-127820805D01*
X112465355Y-127751178D01*
X112681588Y-127556269D01*
X112855641Y-127322920D01*
X112920857Y-127186000D01*
X114501928Y-127186000D01*
X114514188Y-127310482D01*
X114550498Y-127430180D01*
X114609463Y-127540494D01*
X114688815Y-127637185D01*
X114785506Y-127716537D01*
X114895820Y-127775502D01*
X115015518Y-127811812D01*
X115140000Y-127824072D01*
X115704250Y-127821000D01*
X115863000Y-127662250D01*
X115863000Y-126463000D01*
X114663750Y-126463000D01*
X114505000Y-126621750D01*
X114501928Y-127186000D01*
X112920857Y-127186000D01*
X112980825Y-127060099D01*
X113025476Y-126912890D01*
X112904155Y-126683000D01*
X111711000Y-126683000D01*
X111711000Y-126703000D01*
X111457000Y-126703000D01*
X111457000Y-126683000D01*
X111437000Y-126683000D01*
X111437000Y-126429000D01*
X111457000Y-126429000D01*
X111457000Y-126409000D01*
X111711000Y-126409000D01*
X111711000Y-126429000D01*
X112904155Y-126429000D01*
X113025476Y-126199110D01*
X112980825Y-126051901D01*
X112855641Y-125789080D01*
X112681588Y-125555731D01*
X112604229Y-125486000D01*
X114501928Y-125486000D01*
X114505000Y-126050250D01*
X114663750Y-126209000D01*
X115863000Y-126209000D01*
X115863000Y-125009750D01*
X116117000Y-125009750D01*
X116117000Y-126209000D01*
X116137000Y-126209000D01*
X116137000Y-126463000D01*
X116117000Y-126463000D01*
X116117000Y-127662250D01*
X116275750Y-127821000D01*
X116840000Y-127824072D01*
X116964482Y-127811812D01*
X117084180Y-127775502D01*
X117194494Y-127716537D01*
X117291185Y-127637185D01*
X117370537Y-127540494D01*
X117429502Y-127430180D01*
X117451513Y-127357620D01*
X117583368Y-127489475D01*
X117826589Y-127651990D01*
X118096842Y-127763932D01*
X118383740Y-127821000D01*
X118676260Y-127821000D01*
X118963158Y-127763932D01*
X119233411Y-127651990D01*
X119476632Y-127489475D01*
X119683475Y-127282632D01*
X119800000Y-127108240D01*
X119916525Y-127282632D01*
X120123368Y-127489475D01*
X120366589Y-127651990D01*
X120636842Y-127763932D01*
X120923740Y-127821000D01*
X121216260Y-127821000D01*
X121503158Y-127763932D01*
X121773411Y-127651990D01*
X122016632Y-127489475D01*
X122223475Y-127282632D01*
X122340000Y-127108240D01*
X122456525Y-127282632D01*
X122663368Y-127489475D01*
X122906589Y-127651990D01*
X123176842Y-127763932D01*
X123463740Y-127821000D01*
X123756260Y-127821000D01*
X124043158Y-127763932D01*
X124313411Y-127651990D01*
X124556632Y-127489475D01*
X124763475Y-127282632D01*
X124925990Y-127039411D01*
X125037932Y-126769158D01*
X125095000Y-126482260D01*
X125095000Y-126189740D01*
X125037932Y-125902842D01*
X124925990Y-125632589D01*
X124763475Y-125389368D01*
X124556632Y-125182525D01*
X124313411Y-125020010D01*
X124043158Y-124908068D01*
X123756260Y-124851000D01*
X123463740Y-124851000D01*
X123176842Y-124908068D01*
X122906589Y-125020010D01*
X122663368Y-125182525D01*
X122456525Y-125389368D01*
X122340000Y-125563760D01*
X122223475Y-125389368D01*
X122016632Y-125182525D01*
X121773411Y-125020010D01*
X121503158Y-124908068D01*
X121216260Y-124851000D01*
X120923740Y-124851000D01*
X120636842Y-124908068D01*
X120366589Y-125020010D01*
X120123368Y-125182525D01*
X119916525Y-125389368D01*
X119800000Y-125563760D01*
X119683475Y-125389368D01*
X119476632Y-125182525D01*
X119233411Y-125020010D01*
X118963158Y-124908068D01*
X118676260Y-124851000D01*
X118383740Y-124851000D01*
X118096842Y-124908068D01*
X117826589Y-125020010D01*
X117583368Y-125182525D01*
X117451513Y-125314380D01*
X117429502Y-125241820D01*
X117370537Y-125131506D01*
X117291185Y-125034815D01*
X117194494Y-124955463D01*
X117084180Y-124896498D01*
X116964482Y-124860188D01*
X116840000Y-124847928D01*
X116275750Y-124851000D01*
X116117000Y-125009750D01*
X115863000Y-125009750D01*
X115704250Y-124851000D01*
X115140000Y-124847928D01*
X115015518Y-124860188D01*
X114895820Y-124896498D01*
X114785506Y-124955463D01*
X114688815Y-125034815D01*
X114609463Y-125131506D01*
X114550498Y-125241820D01*
X114514188Y-125361518D01*
X114501928Y-125486000D01*
X112604229Y-125486000D01*
X112465355Y-125360822D01*
X112348466Y-125291195D01*
X112530632Y-125169475D01*
X112737475Y-124962632D01*
X112899990Y-124719411D01*
X113011932Y-124449158D01*
X113069000Y-124162260D01*
X113069000Y-123869740D01*
X113011932Y-123582842D01*
X112899990Y-123312589D01*
X112737475Y-123069368D01*
X112605620Y-122937513D01*
X112678180Y-122915502D01*
X112788494Y-122856537D01*
X112885185Y-122777185D01*
X112964537Y-122680494D01*
X113023502Y-122570180D01*
X113059812Y-122450482D01*
X113072072Y-122326000D01*
X113072072Y-120626000D01*
X113059812Y-120501518D01*
X113023502Y-120381820D01*
X112964537Y-120271506D01*
X112885185Y-120174815D01*
X112788494Y-120095463D01*
X112678180Y-120036498D01*
X112558482Y-120000188D01*
X112434000Y-119987928D01*
X110734000Y-119987928D01*
X110660000Y-119995216D01*
X110660000Y-113950000D01*
X117011928Y-113950000D01*
X117011928Y-115650000D01*
X117024188Y-115774482D01*
X117060498Y-115894180D01*
X117119463Y-116004494D01*
X117198815Y-116101185D01*
X117295506Y-116180537D01*
X117405820Y-116239502D01*
X117478380Y-116261513D01*
X117346525Y-116393368D01*
X117184010Y-116636589D01*
X117072068Y-116906842D01*
X117015000Y-117193740D01*
X117015000Y-117486260D01*
X117072068Y-117773158D01*
X117184010Y-118043411D01*
X117346525Y-118286632D01*
X117553368Y-118493475D01*
X117727760Y-118610000D01*
X117553368Y-118726525D01*
X117346525Y-118933368D01*
X117184010Y-119176589D01*
X117072068Y-119446842D01*
X117015000Y-119733740D01*
X117015000Y-120026260D01*
X117072068Y-120313158D01*
X117184010Y-120583411D01*
X117346525Y-120826632D01*
X117553368Y-121033475D01*
X117727760Y-121150000D01*
X117553368Y-121266525D01*
X117346525Y-121473368D01*
X117184010Y-121716589D01*
X117072068Y-121986842D01*
X117015000Y-122273740D01*
X117015000Y-122566260D01*
X117072068Y-122853158D01*
X117184010Y-123123411D01*
X117346525Y-123366632D01*
X117553368Y-123573475D01*
X117796589Y-123735990D01*
X118066842Y-123847932D01*
X118353740Y-123905000D01*
X118646260Y-123905000D01*
X118933158Y-123847932D01*
X119203411Y-123735990D01*
X119446632Y-123573475D01*
X119653475Y-123366632D01*
X119815990Y-123123411D01*
X119927932Y-122853158D01*
X119985000Y-122566260D01*
X119985000Y-122273740D01*
X119927932Y-121986842D01*
X119815990Y-121716589D01*
X119653475Y-121473368D01*
X119446632Y-121266525D01*
X119272240Y-121150000D01*
X119446632Y-121033475D01*
X119653475Y-120826632D01*
X119815990Y-120583411D01*
X119927932Y-120313158D01*
X119985000Y-120026260D01*
X119985000Y-119733740D01*
X119927932Y-119446842D01*
X119815990Y-119176589D01*
X119653475Y-118933368D01*
X119446632Y-118726525D01*
X119272240Y-118610000D01*
X119446632Y-118493475D01*
X119653475Y-118286632D01*
X119815990Y-118043411D01*
X119927932Y-117773158D01*
X119985000Y-117486260D01*
X119985000Y-117193740D01*
X119927932Y-116906842D01*
X119815990Y-116636589D01*
X119653475Y-116393368D01*
X119521620Y-116261513D01*
X119594180Y-116239502D01*
X119704494Y-116180537D01*
X119801185Y-116101185D01*
X119880537Y-116004494D01*
X119939502Y-115894180D01*
X119975812Y-115774482D01*
X119988072Y-115650000D01*
X119988072Y-113950000D01*
X122111928Y-113950000D01*
X122111928Y-115650000D01*
X122124188Y-115774482D01*
X122160498Y-115894180D01*
X122219463Y-116004494D01*
X122298815Y-116101185D01*
X122395506Y-116180537D01*
X122505820Y-116239502D01*
X122578380Y-116261513D01*
X122446525Y-116393368D01*
X122284010Y-116636589D01*
X122172068Y-116906842D01*
X122115000Y-117193740D01*
X122115000Y-117486260D01*
X122172068Y-117773158D01*
X122284010Y-118043411D01*
X122446525Y-118286632D01*
X122653368Y-118493475D01*
X122827760Y-118610000D01*
X122653368Y-118726525D01*
X122446525Y-118933368D01*
X122284010Y-119176589D01*
X122172068Y-119446842D01*
X122115000Y-119733740D01*
X122115000Y-120026260D01*
X122172068Y-120313158D01*
X122284010Y-120583411D01*
X122446525Y-120826632D01*
X122653368Y-121033475D01*
X122827760Y-121150000D01*
X122653368Y-121266525D01*
X122446525Y-121473368D01*
X122284010Y-121716589D01*
X122172068Y-121986842D01*
X122115000Y-122273740D01*
X122115000Y-122566260D01*
X122172068Y-122853158D01*
X122284010Y-123123411D01*
X122446525Y-123366632D01*
X122653368Y-123573475D01*
X122896589Y-123735990D01*
X123166842Y-123847932D01*
X123453740Y-123905000D01*
X123746260Y-123905000D01*
X124033158Y-123847932D01*
X124303411Y-123735990D01*
X124546632Y-123573475D01*
X124753475Y-123366632D01*
X124915990Y-123123411D01*
X125027932Y-122853158D01*
X125085000Y-122566260D01*
X125085000Y-122273740D01*
X125027932Y-121986842D01*
X124915990Y-121716589D01*
X124753475Y-121473368D01*
X124546632Y-121266525D01*
X124372240Y-121150000D01*
X124546632Y-121033475D01*
X124753475Y-120826632D01*
X124915990Y-120583411D01*
X125027932Y-120313158D01*
X125085000Y-120026260D01*
X125085000Y-119733740D01*
X125027932Y-119446842D01*
X124915990Y-119176589D01*
X124753475Y-118933368D01*
X124546632Y-118726525D01*
X124372240Y-118610000D01*
X124546632Y-118493475D01*
X124753475Y-118286632D01*
X124915990Y-118043411D01*
X125027932Y-117773158D01*
X125085000Y-117486260D01*
X125085000Y-117193740D01*
X125027932Y-116906842D01*
X124915990Y-116636589D01*
X124753475Y-116393368D01*
X124621620Y-116261513D01*
X124694180Y-116239502D01*
X124804494Y-116180537D01*
X124901185Y-116101185D01*
X124980537Y-116004494D01*
X125039502Y-115894180D01*
X125075812Y-115774482D01*
X125088072Y-115650000D01*
X125088072Y-113950000D01*
X125075812Y-113825518D01*
X125039502Y-113705820D01*
X124980537Y-113595506D01*
X124901185Y-113498815D01*
X124804494Y-113419463D01*
X124694180Y-113360498D01*
X124574482Y-113324188D01*
X124450000Y-113311928D01*
X122750000Y-113311928D01*
X122625518Y-113324188D01*
X122505820Y-113360498D01*
X122395506Y-113419463D01*
X122298815Y-113498815D01*
X122219463Y-113595506D01*
X122160498Y-113705820D01*
X122124188Y-113825518D01*
X122111928Y-113950000D01*
X119988072Y-113950000D01*
X119975812Y-113825518D01*
X119939502Y-113705820D01*
X119880537Y-113595506D01*
X119801185Y-113498815D01*
X119704494Y-113419463D01*
X119594180Y-113360498D01*
X119474482Y-113324188D01*
X119350000Y-113311928D01*
X117650000Y-113311928D01*
X117525518Y-113324188D01*
X117405820Y-113360498D01*
X117295506Y-113419463D01*
X117198815Y-113498815D01*
X117119463Y-113595506D01*
X117060498Y-113705820D01*
X117024188Y-113825518D01*
X117011928Y-113950000D01*
X110660000Y-113950000D01*
X110660000Y-109079872D01*
X116265000Y-109079872D01*
X116265000Y-109520128D01*
X116350890Y-109951925D01*
X116519369Y-110358669D01*
X116763962Y-110724729D01*
X117075271Y-111036038D01*
X117441331Y-111280631D01*
X117848075Y-111449110D01*
X118279872Y-111535000D01*
X118720128Y-111535000D01*
X119151925Y-111449110D01*
X119558669Y-111280631D01*
X119924729Y-111036038D01*
X120236038Y-110724729D01*
X120480631Y-110358669D01*
X120649110Y-109951925D01*
X120735000Y-109520128D01*
X120735000Y-109079872D01*
X120649110Y-108648075D01*
X120480631Y-108241331D01*
X120236038Y-107875271D01*
X119924729Y-107563962D01*
X119558669Y-107319369D01*
X119151925Y-107150890D01*
X118720128Y-107065000D01*
X118279872Y-107065000D01*
X117848075Y-107150890D01*
X117441331Y-107319369D01*
X117075271Y-107563962D01*
X116763962Y-107875271D01*
X116519369Y-108241331D01*
X116350890Y-108648075D01*
X116265000Y-109079872D01*
X110660000Y-109079872D01*
X110660000Y-98153740D01*
X113515000Y-98153740D01*
X113515000Y-98446260D01*
X113572068Y-98733158D01*
X113684010Y-99003411D01*
X113846525Y-99246632D01*
X114053368Y-99453475D01*
X114296589Y-99615990D01*
X114566842Y-99727932D01*
X114853740Y-99785000D01*
X115146260Y-99785000D01*
X115433158Y-99727932D01*
X115703411Y-99615990D01*
X115946632Y-99453475D01*
X116153475Y-99246632D01*
X116315990Y-99003411D01*
X116427932Y-98733158D01*
X116485000Y-98446260D01*
X116485000Y-98153740D01*
X116427932Y-97866842D01*
X116315990Y-97596589D01*
X116153475Y-97353368D01*
X115946632Y-97146525D01*
X115703411Y-96984010D01*
X115433158Y-96872068D01*
X115213611Y-96828397D01*
X118651208Y-96828397D01*
X118728843Y-97077472D01*
X118992883Y-97203371D01*
X119276411Y-97275339D01*
X119568531Y-97290611D01*
X119858019Y-97248599D01*
X120133747Y-97150919D01*
X120271157Y-97077472D01*
X120348792Y-96828397D01*
X119500000Y-95979605D01*
X118651208Y-96828397D01*
X115213611Y-96828397D01*
X115146260Y-96815000D01*
X114853740Y-96815000D01*
X114566842Y-96872068D01*
X114296589Y-96984010D01*
X114053368Y-97146525D01*
X113846525Y-97353368D01*
X113684010Y-97596589D01*
X113572068Y-97866842D01*
X113515000Y-98153740D01*
X110660000Y-98153740D01*
X110660000Y-95868531D01*
X118009389Y-95868531D01*
X118051401Y-96158019D01*
X118149081Y-96433747D01*
X118222528Y-96571157D01*
X118471603Y-96648792D01*
X119320395Y-95800000D01*
X119679605Y-95800000D01*
X120528397Y-96648792D01*
X120777472Y-96571157D01*
X120903371Y-96307117D01*
X120975339Y-96023589D01*
X120990611Y-95731469D01*
X120979331Y-95653740D01*
X123015000Y-95653740D01*
X123015000Y-95946260D01*
X123072068Y-96233158D01*
X123184010Y-96503411D01*
X123346525Y-96746632D01*
X123553368Y-96953475D01*
X123796589Y-97115990D01*
X124066842Y-97227932D01*
X124353740Y-97285000D01*
X124646260Y-97285000D01*
X124933158Y-97227932D01*
X125203411Y-97115990D01*
X125446632Y-96953475D01*
X125653475Y-96746632D01*
X125815990Y-96503411D01*
X125927932Y-96233158D01*
X125985000Y-95946260D01*
X125985000Y-95653740D01*
X125927932Y-95366842D01*
X125815990Y-95096589D01*
X125653475Y-94853368D01*
X125446632Y-94646525D01*
X125203411Y-94484010D01*
X124933158Y-94372068D01*
X124646260Y-94315000D01*
X124353740Y-94315000D01*
X124066842Y-94372068D01*
X123796589Y-94484010D01*
X123553368Y-94646525D01*
X123346525Y-94853368D01*
X123184010Y-95096589D01*
X123072068Y-95366842D01*
X123015000Y-95653740D01*
X120979331Y-95653740D01*
X120948599Y-95441981D01*
X120850919Y-95166253D01*
X120777472Y-95028843D01*
X120528397Y-94951208D01*
X119679605Y-95800000D01*
X119320395Y-95800000D01*
X118471603Y-94951208D01*
X118222528Y-95028843D01*
X118096629Y-95292883D01*
X118024661Y-95576411D01*
X118009389Y-95868531D01*
X110660000Y-95868531D01*
X110660000Y-94328397D01*
X114151208Y-94328397D01*
X114228843Y-94577472D01*
X114492883Y-94703371D01*
X114776411Y-94775339D01*
X115068531Y-94790611D01*
X115199507Y-94771603D01*
X118651208Y-94771603D01*
X119500000Y-95620395D01*
X120348792Y-94771603D01*
X120271157Y-94522528D01*
X120007117Y-94396629D01*
X119723589Y-94324661D01*
X119431469Y-94309389D01*
X119141981Y-94351401D01*
X118866253Y-94449081D01*
X118728843Y-94522528D01*
X118651208Y-94771603D01*
X115199507Y-94771603D01*
X115358019Y-94748599D01*
X115633747Y-94650919D01*
X115771157Y-94577472D01*
X115848792Y-94328397D01*
X115000000Y-93479605D01*
X114151208Y-94328397D01*
X110660000Y-94328397D01*
X110660000Y-93368531D01*
X113509389Y-93368531D01*
X113551401Y-93658019D01*
X113649081Y-93933747D01*
X113722528Y-94071157D01*
X113971603Y-94148792D01*
X114820395Y-93300000D01*
X115179605Y-93300000D01*
X116028397Y-94148792D01*
X116277472Y-94071157D01*
X116403371Y-93807117D01*
X116475339Y-93523589D01*
X116490611Y-93231469D01*
X116448599Y-92941981D01*
X116350919Y-92666253D01*
X116277472Y-92528843D01*
X116028397Y-92451208D01*
X115179605Y-93300000D01*
X114820395Y-93300000D01*
X113971603Y-92451208D01*
X113722528Y-92528843D01*
X113596629Y-92792883D01*
X113524661Y-93076411D01*
X113509389Y-93368531D01*
X110660000Y-93368531D01*
X110660000Y-92271603D01*
X114151208Y-92271603D01*
X115000000Y-93120395D01*
X115848792Y-92271603D01*
X115771157Y-92022528D01*
X115507117Y-91896629D01*
X115223589Y-91824661D01*
X114931469Y-91809389D01*
X114641981Y-91851401D01*
X114366253Y-91949081D01*
X114228843Y-92022528D01*
X114151208Y-92271603D01*
X110660000Y-92271603D01*
X110660000Y-90153740D01*
X120515000Y-90153740D01*
X120515000Y-90446260D01*
X120572068Y-90733158D01*
X120684010Y-91003411D01*
X120846525Y-91246632D01*
X121053368Y-91453475D01*
X121296589Y-91615990D01*
X121566842Y-91727932D01*
X121853740Y-91785000D01*
X122146260Y-91785000D01*
X122433158Y-91727932D01*
X122703411Y-91615990D01*
X122946632Y-91453475D01*
X123153475Y-91246632D01*
X123315990Y-91003411D01*
X123427932Y-90733158D01*
X123485000Y-90446260D01*
X123485000Y-90153740D01*
X123427932Y-89866842D01*
X123315990Y-89596589D01*
X123153475Y-89353368D01*
X122946632Y-89146525D01*
X122703411Y-88984010D01*
X122433158Y-88872068D01*
X122146260Y-88815000D01*
X121853740Y-88815000D01*
X121566842Y-88872068D01*
X121296589Y-88984010D01*
X121053368Y-89146525D01*
X120846525Y-89353368D01*
X120684010Y-89596589D01*
X120572068Y-89866842D01*
X120515000Y-90153740D01*
X110660000Y-90153740D01*
X110660000Y-87653740D01*
X111015000Y-87653740D01*
X111015000Y-87946260D01*
X111072068Y-88233158D01*
X111184010Y-88503411D01*
X111346525Y-88746632D01*
X111553368Y-88953475D01*
X111796589Y-89115990D01*
X112066842Y-89227932D01*
X112353740Y-89285000D01*
X112646260Y-89285000D01*
X112933158Y-89227932D01*
X113203411Y-89115990D01*
X113446632Y-88953475D01*
X113571710Y-88828397D01*
X116651208Y-88828397D01*
X116728843Y-89077472D01*
X116992883Y-89203371D01*
X117276411Y-89275339D01*
X117568531Y-89290611D01*
X117858019Y-89248599D01*
X118133747Y-89150919D01*
X118271157Y-89077472D01*
X118348792Y-88828397D01*
X117500000Y-87979605D01*
X116651208Y-88828397D01*
X113571710Y-88828397D01*
X113653475Y-88746632D01*
X113815990Y-88503411D01*
X113927932Y-88233158D01*
X113985000Y-87946260D01*
X113985000Y-87868531D01*
X116009389Y-87868531D01*
X116051401Y-88158019D01*
X116149081Y-88433747D01*
X116222528Y-88571157D01*
X116471603Y-88648792D01*
X117320395Y-87800000D01*
X117679605Y-87800000D01*
X118528397Y-88648792D01*
X118777472Y-88571157D01*
X118903371Y-88307117D01*
X118975339Y-88023589D01*
X118990611Y-87731469D01*
X118948599Y-87441981D01*
X118850919Y-87166253D01*
X118777472Y-87028843D01*
X118528397Y-86951208D01*
X117679605Y-87800000D01*
X117320395Y-87800000D01*
X116471603Y-86951208D01*
X116222528Y-87028843D01*
X116096629Y-87292883D01*
X116024661Y-87576411D01*
X116009389Y-87868531D01*
X113985000Y-87868531D01*
X113985000Y-87653740D01*
X113927932Y-87366842D01*
X113815990Y-87096589D01*
X113653475Y-86853368D01*
X113571710Y-86771603D01*
X116651208Y-86771603D01*
X117500000Y-87620395D01*
X118348792Y-86771603D01*
X118271157Y-86522528D01*
X118007117Y-86396629D01*
X117738308Y-86328397D01*
X121151208Y-86328397D01*
X121228843Y-86577472D01*
X121492883Y-86703371D01*
X121776411Y-86775339D01*
X122068531Y-86790611D01*
X122358019Y-86748599D01*
X122633747Y-86650919D01*
X122771157Y-86577472D01*
X122848792Y-86328397D01*
X122000000Y-85479605D01*
X121151208Y-86328397D01*
X117738308Y-86328397D01*
X117723589Y-86324661D01*
X117431469Y-86309389D01*
X117141981Y-86351401D01*
X116866253Y-86449081D01*
X116728843Y-86522528D01*
X116651208Y-86771603D01*
X113571710Y-86771603D01*
X113446632Y-86646525D01*
X113203411Y-86484010D01*
X112933158Y-86372068D01*
X112646260Y-86315000D01*
X112353740Y-86315000D01*
X112066842Y-86372068D01*
X111796589Y-86484010D01*
X111553368Y-86646525D01*
X111346525Y-86853368D01*
X111184010Y-87096589D01*
X111072068Y-87366842D01*
X111015000Y-87653740D01*
X110660000Y-87653740D01*
X110660000Y-85368531D01*
X120509389Y-85368531D01*
X120551401Y-85658019D01*
X120649081Y-85933747D01*
X120722528Y-86071157D01*
X120971603Y-86148792D01*
X121820395Y-85300000D01*
X122179605Y-85300000D01*
X123028397Y-86148792D01*
X123277472Y-86071157D01*
X123403371Y-85807117D01*
X123475339Y-85523589D01*
X123490611Y-85231469D01*
X123448599Y-84941981D01*
X123350919Y-84666253D01*
X123277472Y-84528843D01*
X123028397Y-84451208D01*
X122179605Y-85300000D01*
X121820395Y-85300000D01*
X120971603Y-84451208D01*
X120722528Y-84528843D01*
X120596629Y-84792883D01*
X120524661Y-85076411D01*
X120509389Y-85368531D01*
X110660000Y-85368531D01*
X110660000Y-84271603D01*
X121151208Y-84271603D01*
X122000000Y-85120395D01*
X122848792Y-84271603D01*
X122771157Y-84022528D01*
X122507117Y-83896629D01*
X122223589Y-83824661D01*
X121931469Y-83809389D01*
X121641981Y-83851401D01*
X121366253Y-83949081D01*
X121228843Y-84022528D01*
X121151208Y-84271603D01*
X110660000Y-84271603D01*
X110660000Y-82153740D01*
X113515000Y-82153740D01*
X113515000Y-82446260D01*
X113572068Y-82733158D01*
X113684010Y-83003411D01*
X113846525Y-83246632D01*
X114053368Y-83453475D01*
X114296589Y-83615990D01*
X114566842Y-83727932D01*
X114853740Y-83785000D01*
X115146260Y-83785000D01*
X115433158Y-83727932D01*
X115703411Y-83615990D01*
X115946632Y-83453475D01*
X116153475Y-83246632D01*
X116315990Y-83003411D01*
X116427932Y-82733158D01*
X116485000Y-82446260D01*
X116485000Y-82153740D01*
X116427932Y-81866842D01*
X116315990Y-81596589D01*
X116153475Y-81353368D01*
X115946632Y-81146525D01*
X115703411Y-80984010D01*
X115433158Y-80872068D01*
X115213611Y-80828397D01*
X118651208Y-80828397D01*
X118728843Y-81077472D01*
X118992883Y-81203371D01*
X119276411Y-81275339D01*
X119568531Y-81290611D01*
X119858019Y-81248599D01*
X120133747Y-81150919D01*
X120271157Y-81077472D01*
X120348792Y-80828397D01*
X119500000Y-79979605D01*
X118651208Y-80828397D01*
X115213611Y-80828397D01*
X115146260Y-80815000D01*
X114853740Y-80815000D01*
X114566842Y-80872068D01*
X114296589Y-80984010D01*
X114053368Y-81146525D01*
X113846525Y-81353368D01*
X113684010Y-81596589D01*
X113572068Y-81866842D01*
X113515000Y-82153740D01*
X110660000Y-82153740D01*
X110660000Y-79868531D01*
X118009389Y-79868531D01*
X118051401Y-80158019D01*
X118149081Y-80433747D01*
X118222528Y-80571157D01*
X118471603Y-80648792D01*
X119320395Y-79800000D01*
X119679605Y-79800000D01*
X120528397Y-80648792D01*
X120777472Y-80571157D01*
X120903371Y-80307117D01*
X120975339Y-80023589D01*
X120990611Y-79731469D01*
X120979331Y-79653740D01*
X123015000Y-79653740D01*
X123015000Y-79946260D01*
X123072068Y-80233158D01*
X123184010Y-80503411D01*
X123346525Y-80746632D01*
X123553368Y-80953475D01*
X123796589Y-81115990D01*
X124066842Y-81227932D01*
X124353740Y-81285000D01*
X124646260Y-81285000D01*
X124933158Y-81227932D01*
X125203411Y-81115990D01*
X125446632Y-80953475D01*
X125653475Y-80746632D01*
X125815990Y-80503411D01*
X125927932Y-80233158D01*
X125985000Y-79946260D01*
X125985000Y-79653740D01*
X125927932Y-79366842D01*
X125815990Y-79096589D01*
X125653475Y-78853368D01*
X125446632Y-78646525D01*
X125203411Y-78484010D01*
X124933158Y-78372068D01*
X124646260Y-78315000D01*
X124353740Y-78315000D01*
X124066842Y-78372068D01*
X123796589Y-78484010D01*
X123553368Y-78646525D01*
X123346525Y-78853368D01*
X123184010Y-79096589D01*
X123072068Y-79366842D01*
X123015000Y-79653740D01*
X120979331Y-79653740D01*
X120948599Y-79441981D01*
X120850919Y-79166253D01*
X120777472Y-79028843D01*
X120528397Y-78951208D01*
X119679605Y-79800000D01*
X119320395Y-79800000D01*
X118471603Y-78951208D01*
X118222528Y-79028843D01*
X118096629Y-79292883D01*
X118024661Y-79576411D01*
X118009389Y-79868531D01*
X110660000Y-79868531D01*
X110660000Y-78328397D01*
X114151208Y-78328397D01*
X114228843Y-78577472D01*
X114492883Y-78703371D01*
X114776411Y-78775339D01*
X115068531Y-78790611D01*
X115199507Y-78771603D01*
X118651208Y-78771603D01*
X119500000Y-79620395D01*
X120348792Y-78771603D01*
X120271157Y-78522528D01*
X120007117Y-78396629D01*
X119723589Y-78324661D01*
X119431469Y-78309389D01*
X119141981Y-78351401D01*
X118866253Y-78449081D01*
X118728843Y-78522528D01*
X118651208Y-78771603D01*
X115199507Y-78771603D01*
X115358019Y-78748599D01*
X115633747Y-78650919D01*
X115771157Y-78577472D01*
X115848792Y-78328397D01*
X115000000Y-77479605D01*
X114151208Y-78328397D01*
X110660000Y-78328397D01*
X110660000Y-77368531D01*
X113509389Y-77368531D01*
X113551401Y-77658019D01*
X113649081Y-77933747D01*
X113722528Y-78071157D01*
X113971603Y-78148792D01*
X114820395Y-77300000D01*
X115179605Y-77300000D01*
X116028397Y-78148792D01*
X116277472Y-78071157D01*
X116403371Y-77807117D01*
X116475339Y-77523589D01*
X116490611Y-77231469D01*
X116448599Y-76941981D01*
X116350919Y-76666253D01*
X116277472Y-76528843D01*
X116028397Y-76451208D01*
X115179605Y-77300000D01*
X114820395Y-77300000D01*
X113971603Y-76451208D01*
X113722528Y-76528843D01*
X113596629Y-76792883D01*
X113524661Y-77076411D01*
X113509389Y-77368531D01*
X110660000Y-77368531D01*
X110660000Y-76271603D01*
X114151208Y-76271603D01*
X115000000Y-77120395D01*
X115848792Y-76271603D01*
X115771157Y-76022528D01*
X115507117Y-75896629D01*
X115223589Y-75824661D01*
X114931469Y-75809389D01*
X114641981Y-75851401D01*
X114366253Y-75949081D01*
X114228843Y-76022528D01*
X114151208Y-76271603D01*
X110660000Y-76271603D01*
X110660000Y-70153740D01*
X113515000Y-70153740D01*
X113515000Y-70446260D01*
X113572068Y-70733158D01*
X113684010Y-71003411D01*
X113846525Y-71246632D01*
X114053368Y-71453475D01*
X114296589Y-71615990D01*
X114566842Y-71727932D01*
X114853740Y-71785000D01*
X115146260Y-71785000D01*
X115433158Y-71727932D01*
X115703411Y-71615990D01*
X115946632Y-71453475D01*
X116153475Y-71246632D01*
X116315990Y-71003411D01*
X116427932Y-70733158D01*
X116485000Y-70446260D01*
X116485000Y-70153740D01*
X120515000Y-70153740D01*
X120515000Y-70446260D01*
X120572068Y-70733158D01*
X120684010Y-71003411D01*
X120846525Y-71246632D01*
X121053368Y-71453475D01*
X121296589Y-71615990D01*
X121566842Y-71727932D01*
X121853740Y-71785000D01*
X122146260Y-71785000D01*
X122433158Y-71727932D01*
X122703411Y-71615990D01*
X122946632Y-71453475D01*
X123153475Y-71246632D01*
X123315990Y-71003411D01*
X123427932Y-70733158D01*
X123485000Y-70446260D01*
X123485000Y-70153740D01*
X123427932Y-69866842D01*
X123315990Y-69596589D01*
X123153475Y-69353368D01*
X122946632Y-69146525D01*
X122703411Y-68984010D01*
X122433158Y-68872068D01*
X122146260Y-68815000D01*
X121853740Y-68815000D01*
X121566842Y-68872068D01*
X121296589Y-68984010D01*
X121053368Y-69146525D01*
X120846525Y-69353368D01*
X120684010Y-69596589D01*
X120572068Y-69866842D01*
X120515000Y-70153740D01*
X116485000Y-70153740D01*
X116427932Y-69866842D01*
X116315990Y-69596589D01*
X116153475Y-69353368D01*
X115946632Y-69146525D01*
X115703411Y-68984010D01*
X115433158Y-68872068D01*
X115146260Y-68815000D01*
X114853740Y-68815000D01*
X114566842Y-68872068D01*
X114296589Y-68984010D01*
X114053368Y-69146525D01*
X113846525Y-69353368D01*
X113684010Y-69596589D01*
X113572068Y-69866842D01*
X113515000Y-70153740D01*
X110660000Y-70153740D01*
X110660000Y-66328397D01*
X114151208Y-66328397D01*
X114228843Y-66577472D01*
X114492883Y-66703371D01*
X114776411Y-66775339D01*
X115068531Y-66790611D01*
X115358019Y-66748599D01*
X115633747Y-66650919D01*
X115771157Y-66577472D01*
X115848792Y-66328397D01*
X121151208Y-66328397D01*
X121228843Y-66577472D01*
X121492883Y-66703371D01*
X121776411Y-66775339D01*
X122068531Y-66790611D01*
X122358019Y-66748599D01*
X122633747Y-66650919D01*
X122771157Y-66577472D01*
X122848792Y-66328397D01*
X122000000Y-65479605D01*
X121151208Y-66328397D01*
X115848792Y-66328397D01*
X115000000Y-65479605D01*
X114151208Y-66328397D01*
X110660000Y-66328397D01*
X110660000Y-65368531D01*
X113509389Y-65368531D01*
X113551401Y-65658019D01*
X113649081Y-65933747D01*
X113722528Y-66071157D01*
X113971603Y-66148792D01*
X114820395Y-65300000D01*
X115179605Y-65300000D01*
X116028397Y-66148792D01*
X116277472Y-66071157D01*
X116403371Y-65807117D01*
X116475339Y-65523589D01*
X116483445Y-65368531D01*
X120509389Y-65368531D01*
X120551401Y-65658019D01*
X120649081Y-65933747D01*
X120722528Y-66071157D01*
X120971603Y-66148792D01*
X121820395Y-65300000D01*
X122179605Y-65300000D01*
X123028397Y-66148792D01*
X123277472Y-66071157D01*
X123403371Y-65807117D01*
X123475339Y-65523589D01*
X123490611Y-65231469D01*
X123448599Y-64941981D01*
X123350919Y-64666253D01*
X123277472Y-64528843D01*
X123028397Y-64451208D01*
X122179605Y-65300000D01*
X121820395Y-65300000D01*
X120971603Y-64451208D01*
X120722528Y-64528843D01*
X120596629Y-64792883D01*
X120524661Y-65076411D01*
X120509389Y-65368531D01*
X116483445Y-65368531D01*
X116490611Y-65231469D01*
X116448599Y-64941981D01*
X116350919Y-64666253D01*
X116277472Y-64528843D01*
X116028397Y-64451208D01*
X115179605Y-65300000D01*
X114820395Y-65300000D01*
X113971603Y-64451208D01*
X113722528Y-64528843D01*
X113596629Y-64792883D01*
X113524661Y-65076411D01*
X113509389Y-65368531D01*
X110660000Y-65368531D01*
X110660000Y-64271603D01*
X114151208Y-64271603D01*
X115000000Y-65120395D01*
X115848792Y-64271603D01*
X121151208Y-64271603D01*
X122000000Y-65120395D01*
X122848792Y-64271603D01*
X122771157Y-64022528D01*
X122507117Y-63896629D01*
X122223589Y-63824661D01*
X121931469Y-63809389D01*
X121641981Y-63851401D01*
X121366253Y-63949081D01*
X121228843Y-64022528D01*
X121151208Y-64271603D01*
X115848792Y-64271603D01*
X115771157Y-64022528D01*
X115507117Y-63896629D01*
X115223589Y-63824661D01*
X114931469Y-63809389D01*
X114641981Y-63851401D01*
X114366253Y-63949081D01*
X114228843Y-64022528D01*
X114151208Y-64271603D01*
X110660000Y-64271603D01*
X110660000Y-56153740D01*
X113515000Y-56153740D01*
X113515000Y-56446260D01*
X113572068Y-56733158D01*
X113684010Y-57003411D01*
X113846525Y-57246632D01*
X114053368Y-57453475D01*
X114296589Y-57615990D01*
X114566842Y-57727932D01*
X114853740Y-57785000D01*
X115146260Y-57785000D01*
X115433158Y-57727932D01*
X115703411Y-57615990D01*
X115946632Y-57453475D01*
X116153475Y-57246632D01*
X116315990Y-57003411D01*
X116427932Y-56733158D01*
X116485000Y-56446260D01*
X116485000Y-56153740D01*
X120515000Y-56153740D01*
X120515000Y-56446260D01*
X120572068Y-56733158D01*
X120684010Y-57003411D01*
X120846525Y-57246632D01*
X121053368Y-57453475D01*
X121296589Y-57615990D01*
X121566842Y-57727932D01*
X121853740Y-57785000D01*
X122146260Y-57785000D01*
X122433158Y-57727932D01*
X122703411Y-57615990D01*
X122946632Y-57453475D01*
X123153475Y-57246632D01*
X123315990Y-57003411D01*
X123427932Y-56733158D01*
X123485000Y-56446260D01*
X123485000Y-56153740D01*
X123427932Y-55866842D01*
X123315990Y-55596589D01*
X123153475Y-55353368D01*
X122946632Y-55146525D01*
X122703411Y-54984010D01*
X122433158Y-54872068D01*
X122146260Y-54815000D01*
X121853740Y-54815000D01*
X121566842Y-54872068D01*
X121296589Y-54984010D01*
X121053368Y-55146525D01*
X120846525Y-55353368D01*
X120684010Y-55596589D01*
X120572068Y-55866842D01*
X120515000Y-56153740D01*
X116485000Y-56153740D01*
X116427932Y-55866842D01*
X116315990Y-55596589D01*
X116153475Y-55353368D01*
X115946632Y-55146525D01*
X115703411Y-54984010D01*
X115433158Y-54872068D01*
X115146260Y-54815000D01*
X114853740Y-54815000D01*
X114566842Y-54872068D01*
X114296589Y-54984010D01*
X114053368Y-55146525D01*
X113846525Y-55353368D01*
X113684010Y-55596589D01*
X113572068Y-55866842D01*
X113515000Y-56153740D01*
X110660000Y-56153740D01*
X110660000Y-52328397D01*
X114151208Y-52328397D01*
X114228843Y-52577472D01*
X114492883Y-52703371D01*
X114776411Y-52775339D01*
X115068531Y-52790611D01*
X115358019Y-52748599D01*
X115633747Y-52650919D01*
X115771157Y-52577472D01*
X115848792Y-52328397D01*
X121151208Y-52328397D01*
X121228843Y-52577472D01*
X121492883Y-52703371D01*
X121776411Y-52775339D01*
X122068531Y-52790611D01*
X122358019Y-52748599D01*
X122633747Y-52650919D01*
X122771157Y-52577472D01*
X122848792Y-52328397D01*
X122000000Y-51479605D01*
X121151208Y-52328397D01*
X115848792Y-52328397D01*
X115000000Y-51479605D01*
X114151208Y-52328397D01*
X110660000Y-52328397D01*
X110660000Y-51368531D01*
X113509389Y-51368531D01*
X113551401Y-51658019D01*
X113649081Y-51933747D01*
X113722528Y-52071157D01*
X113971603Y-52148792D01*
X114820395Y-51300000D01*
X115179605Y-51300000D01*
X116028397Y-52148792D01*
X116277472Y-52071157D01*
X116403371Y-51807117D01*
X116475339Y-51523589D01*
X116483445Y-51368531D01*
X120509389Y-51368531D01*
X120551401Y-51658019D01*
X120649081Y-51933747D01*
X120722528Y-52071157D01*
X120971603Y-52148792D01*
X121820395Y-51300000D01*
X122179605Y-51300000D01*
X123028397Y-52148792D01*
X123277472Y-52071157D01*
X123403371Y-51807117D01*
X123475339Y-51523589D01*
X123490611Y-51231469D01*
X123448599Y-50941981D01*
X123350919Y-50666253D01*
X123277472Y-50528843D01*
X123028397Y-50451208D01*
X122179605Y-51300000D01*
X121820395Y-51300000D01*
X120971603Y-50451208D01*
X120722528Y-50528843D01*
X120596629Y-50792883D01*
X120524661Y-51076411D01*
X120509389Y-51368531D01*
X116483445Y-51368531D01*
X116490611Y-51231469D01*
X116448599Y-50941981D01*
X116350919Y-50666253D01*
X116277472Y-50528843D01*
X116028397Y-50451208D01*
X115179605Y-51300000D01*
X114820395Y-51300000D01*
X113971603Y-50451208D01*
X113722528Y-50528843D01*
X113596629Y-50792883D01*
X113524661Y-51076411D01*
X113509389Y-51368531D01*
X110660000Y-51368531D01*
X110660000Y-50271603D01*
X114151208Y-50271603D01*
X115000000Y-51120395D01*
X115848792Y-50271603D01*
X121151208Y-50271603D01*
X122000000Y-51120395D01*
X122848792Y-50271603D01*
X122771157Y-50022528D01*
X122507117Y-49896629D01*
X122223589Y-49824661D01*
X121931469Y-49809389D01*
X121641981Y-49851401D01*
X121366253Y-49949081D01*
X121228843Y-50022528D01*
X121151208Y-50271603D01*
X115848792Y-50271603D01*
X115771157Y-50022528D01*
X115507117Y-49896629D01*
X115223589Y-49824661D01*
X114931469Y-49809389D01*
X114641981Y-49851401D01*
X114366253Y-49949081D01*
X114228843Y-50022528D01*
X114151208Y-50271603D01*
X110660000Y-50271603D01*
X110660000Y-44460000D01*
X126340000Y-44460000D01*
X126340001Y-139340000D01*
%TA.AperFunction,Conductor*%
D14*
G36*
X126340001Y-139340000D02*
G01*
X122660000Y-139340000D01*
X122660000Y-137237581D01*
X122657198Y-137209135D01*
X122657253Y-137201318D01*
X122656354Y-137192147D01*
X122630446Y-136945644D01*
X122618414Y-136887028D01*
X122607208Y-136828284D01*
X122604544Y-136819462D01*
X122531249Y-136582686D01*
X122508074Y-136527555D01*
X122485661Y-136472080D01*
X122481334Y-136463944D01*
X122363446Y-136245914D01*
X122330012Y-136196346D01*
X122297240Y-136146265D01*
X122291416Y-136139124D01*
X122133423Y-135948144D01*
X122090988Y-135906005D01*
X122049125Y-135863255D01*
X122042024Y-135857381D01*
X121849946Y-135700727D01*
X121800169Y-135667655D01*
X121750763Y-135633826D01*
X121742657Y-135629444D01*
X121523809Y-135513081D01*
X121468532Y-135490298D01*
X121413525Y-135466721D01*
X121404722Y-135463997D01*
X121167441Y-135392357D01*
X121108754Y-135380736D01*
X121050248Y-135368300D01*
X121041085Y-135367337D01*
X121041083Y-135367337D01*
X120794405Y-135343150D01*
X120794402Y-135343150D01*
X120762419Y-135340000D01*
X116237581Y-135340000D01*
X116209135Y-135342802D01*
X116201318Y-135342747D01*
X116192147Y-135343646D01*
X115945644Y-135369554D01*
X115887028Y-135381586D01*
X115828284Y-135392792D01*
X115819462Y-135395456D01*
X115582686Y-135468751D01*
X115527555Y-135491926D01*
X115472080Y-135514339D01*
X115463944Y-135518666D01*
X115245914Y-135636554D01*
X115196346Y-135669988D01*
X115146265Y-135702760D01*
X115139124Y-135708584D01*
X114948144Y-135866577D01*
X114906005Y-135909012D01*
X114863255Y-135950875D01*
X114857381Y-135957976D01*
X114700727Y-136150054D01*
X114667655Y-136199831D01*
X114633826Y-136249237D01*
X114629444Y-136257343D01*
X114513081Y-136476191D01*
X114490298Y-136531468D01*
X114466721Y-136586475D01*
X114463997Y-136595278D01*
X114392357Y-136832559D01*
X114380736Y-136891246D01*
X114368300Y-136949752D01*
X114367337Y-136958917D01*
X114343150Y-137205595D01*
X114343150Y-137205608D01*
X114340001Y-137237581D01*
X114340000Y-139340000D01*
X110660000Y-139340000D01*
X110660000Y-135344597D01*
X110880589Y-135491990D01*
X111150842Y-135603932D01*
X111437740Y-135661000D01*
X111730260Y-135661000D01*
X112017158Y-135603932D01*
X112287411Y-135491990D01*
X112530632Y-135329475D01*
X112737475Y-135122632D01*
X112899990Y-134879411D01*
X113011932Y-134609158D01*
X113069000Y-134322260D01*
X113069000Y-134029740D01*
X113011932Y-133742842D01*
X112899990Y-133472589D01*
X112737475Y-133229368D01*
X112530632Y-133022525D01*
X112356240Y-132906000D01*
X112530632Y-132789475D01*
X112737475Y-132582632D01*
X112899990Y-132339411D01*
X113011932Y-132069158D01*
X113069000Y-131782260D01*
X113069000Y-131489740D01*
X113011932Y-131202842D01*
X112899990Y-130932589D01*
X112737475Y-130689368D01*
X112530632Y-130482525D01*
X112356240Y-130366000D01*
X112530632Y-130249475D01*
X112737475Y-130042632D01*
X112899990Y-129799411D01*
X113011932Y-129529158D01*
X113069000Y-129242260D01*
X113069000Y-128949740D01*
X113011932Y-128662842D01*
X112899990Y-128392589D01*
X112737475Y-128149368D01*
X112530632Y-127942525D01*
X112348466Y-127820805D01*
X112465355Y-127751178D01*
X112681588Y-127556269D01*
X112855641Y-127322920D01*
X112920857Y-127186000D01*
X114501928Y-127186000D01*
X114514188Y-127310482D01*
X114550498Y-127430180D01*
X114609463Y-127540494D01*
X114688815Y-127637185D01*
X114785506Y-127716537D01*
X114895820Y-127775502D01*
X115015518Y-127811812D01*
X115140000Y-127824072D01*
X115704250Y-127821000D01*
X115863000Y-127662250D01*
X115863000Y-126463000D01*
X114663750Y-126463000D01*
X114505000Y-126621750D01*
X114501928Y-127186000D01*
X112920857Y-127186000D01*
X112980825Y-127060099D01*
X113025476Y-126912890D01*
X112904155Y-126683000D01*
X111711000Y-126683000D01*
X111711000Y-126703000D01*
X111457000Y-126703000D01*
X111457000Y-126683000D01*
X111437000Y-126683000D01*
X111437000Y-126429000D01*
X111457000Y-126429000D01*
X111457000Y-126409000D01*
X111711000Y-126409000D01*
X111711000Y-126429000D01*
X112904155Y-126429000D01*
X113025476Y-126199110D01*
X112980825Y-126051901D01*
X112855641Y-125789080D01*
X112681588Y-125555731D01*
X112604229Y-125486000D01*
X114501928Y-125486000D01*
X114505000Y-126050250D01*
X114663750Y-126209000D01*
X115863000Y-126209000D01*
X115863000Y-125009750D01*
X116117000Y-125009750D01*
X116117000Y-126209000D01*
X116137000Y-126209000D01*
X116137000Y-126463000D01*
X116117000Y-126463000D01*
X116117000Y-127662250D01*
X116275750Y-127821000D01*
X116840000Y-127824072D01*
X116964482Y-127811812D01*
X117084180Y-127775502D01*
X117194494Y-127716537D01*
X117291185Y-127637185D01*
X117370537Y-127540494D01*
X117429502Y-127430180D01*
X117451513Y-127357620D01*
X117583368Y-127489475D01*
X117826589Y-127651990D01*
X118096842Y-127763932D01*
X118383740Y-127821000D01*
X118676260Y-127821000D01*
X118963158Y-127763932D01*
X119233411Y-127651990D01*
X119476632Y-127489475D01*
X119683475Y-127282632D01*
X119800000Y-127108240D01*
X119916525Y-127282632D01*
X120123368Y-127489475D01*
X120366589Y-127651990D01*
X120636842Y-127763932D01*
X120923740Y-127821000D01*
X121216260Y-127821000D01*
X121503158Y-127763932D01*
X121773411Y-127651990D01*
X122016632Y-127489475D01*
X122223475Y-127282632D01*
X122340000Y-127108240D01*
X122456525Y-127282632D01*
X122663368Y-127489475D01*
X122906589Y-127651990D01*
X123176842Y-127763932D01*
X123463740Y-127821000D01*
X123756260Y-127821000D01*
X124043158Y-127763932D01*
X124313411Y-127651990D01*
X124556632Y-127489475D01*
X124763475Y-127282632D01*
X124925990Y-127039411D01*
X125037932Y-126769158D01*
X125095000Y-126482260D01*
X125095000Y-126189740D01*
X125037932Y-125902842D01*
X124925990Y-125632589D01*
X124763475Y-125389368D01*
X124556632Y-125182525D01*
X124313411Y-125020010D01*
X124043158Y-124908068D01*
X123756260Y-124851000D01*
X123463740Y-124851000D01*
X123176842Y-124908068D01*
X122906589Y-125020010D01*
X122663368Y-125182525D01*
X122456525Y-125389368D01*
X122340000Y-125563760D01*
X122223475Y-125389368D01*
X122016632Y-125182525D01*
X121773411Y-125020010D01*
X121503158Y-124908068D01*
X121216260Y-124851000D01*
X120923740Y-124851000D01*
X120636842Y-124908068D01*
X120366589Y-125020010D01*
X120123368Y-125182525D01*
X119916525Y-125389368D01*
X119800000Y-125563760D01*
X119683475Y-125389368D01*
X119476632Y-125182525D01*
X119233411Y-125020010D01*
X118963158Y-124908068D01*
X118676260Y-124851000D01*
X118383740Y-124851000D01*
X118096842Y-124908068D01*
X117826589Y-125020010D01*
X117583368Y-125182525D01*
X117451513Y-125314380D01*
X117429502Y-125241820D01*
X117370537Y-125131506D01*
X117291185Y-125034815D01*
X117194494Y-124955463D01*
X117084180Y-124896498D01*
X116964482Y-124860188D01*
X116840000Y-124847928D01*
X116275750Y-124851000D01*
X116117000Y-125009750D01*
X115863000Y-125009750D01*
X115704250Y-124851000D01*
X115140000Y-124847928D01*
X115015518Y-124860188D01*
X114895820Y-124896498D01*
X114785506Y-124955463D01*
X114688815Y-125034815D01*
X114609463Y-125131506D01*
X114550498Y-125241820D01*
X114514188Y-125361518D01*
X114501928Y-125486000D01*
X112604229Y-125486000D01*
X112465355Y-125360822D01*
X112348466Y-125291195D01*
X112530632Y-125169475D01*
X112737475Y-124962632D01*
X112899990Y-124719411D01*
X113011932Y-124449158D01*
X113069000Y-124162260D01*
X113069000Y-123869740D01*
X113011932Y-123582842D01*
X112899990Y-123312589D01*
X112737475Y-123069368D01*
X112605620Y-122937513D01*
X112678180Y-122915502D01*
X112788494Y-122856537D01*
X112885185Y-122777185D01*
X112964537Y-122680494D01*
X113023502Y-122570180D01*
X113059812Y-122450482D01*
X113072072Y-122326000D01*
X113072072Y-120626000D01*
X113059812Y-120501518D01*
X113023502Y-120381820D01*
X112964537Y-120271506D01*
X112885185Y-120174815D01*
X112788494Y-120095463D01*
X112678180Y-120036498D01*
X112558482Y-120000188D01*
X112434000Y-119987928D01*
X110734000Y-119987928D01*
X110660000Y-119995216D01*
X110660000Y-113950000D01*
X117011928Y-113950000D01*
X117011928Y-115650000D01*
X117024188Y-115774482D01*
X117060498Y-115894180D01*
X117119463Y-116004494D01*
X117198815Y-116101185D01*
X117295506Y-116180537D01*
X117405820Y-116239502D01*
X117478380Y-116261513D01*
X117346525Y-116393368D01*
X117184010Y-116636589D01*
X117072068Y-116906842D01*
X117015000Y-117193740D01*
X117015000Y-117486260D01*
X117072068Y-117773158D01*
X117184010Y-118043411D01*
X117346525Y-118286632D01*
X117553368Y-118493475D01*
X117727760Y-118610000D01*
X117553368Y-118726525D01*
X117346525Y-118933368D01*
X117184010Y-119176589D01*
X117072068Y-119446842D01*
X117015000Y-119733740D01*
X117015000Y-120026260D01*
X117072068Y-120313158D01*
X117184010Y-120583411D01*
X117346525Y-120826632D01*
X117553368Y-121033475D01*
X117727760Y-121150000D01*
X117553368Y-121266525D01*
X117346525Y-121473368D01*
X117184010Y-121716589D01*
X117072068Y-121986842D01*
X117015000Y-122273740D01*
X117015000Y-122566260D01*
X117072068Y-122853158D01*
X117184010Y-123123411D01*
X117346525Y-123366632D01*
X117553368Y-123573475D01*
X117796589Y-123735990D01*
X118066842Y-123847932D01*
X118353740Y-123905000D01*
X118646260Y-123905000D01*
X118933158Y-123847932D01*
X119203411Y-123735990D01*
X119446632Y-123573475D01*
X119653475Y-123366632D01*
X119815990Y-123123411D01*
X119927932Y-122853158D01*
X119985000Y-122566260D01*
X119985000Y-122273740D01*
X119927932Y-121986842D01*
X119815990Y-121716589D01*
X119653475Y-121473368D01*
X119446632Y-121266525D01*
X119272240Y-121150000D01*
X119446632Y-121033475D01*
X119653475Y-120826632D01*
X119815990Y-120583411D01*
X119927932Y-120313158D01*
X119985000Y-120026260D01*
X119985000Y-119733740D01*
X119927932Y-119446842D01*
X119815990Y-119176589D01*
X119653475Y-118933368D01*
X119446632Y-118726525D01*
X119272240Y-118610000D01*
X119446632Y-118493475D01*
X119653475Y-118286632D01*
X119815990Y-118043411D01*
X119927932Y-117773158D01*
X119985000Y-117486260D01*
X119985000Y-117193740D01*
X119927932Y-116906842D01*
X119815990Y-116636589D01*
X119653475Y-116393368D01*
X119521620Y-116261513D01*
X119594180Y-116239502D01*
X119704494Y-116180537D01*
X119801185Y-116101185D01*
X119880537Y-116004494D01*
X119939502Y-115894180D01*
X119975812Y-115774482D01*
X119988072Y-115650000D01*
X119988072Y-113950000D01*
X122111928Y-113950000D01*
X122111928Y-115650000D01*
X122124188Y-115774482D01*
X122160498Y-115894180D01*
X122219463Y-116004494D01*
X122298815Y-116101185D01*
X122395506Y-116180537D01*
X122505820Y-116239502D01*
X122578380Y-116261513D01*
X122446525Y-116393368D01*
X122284010Y-116636589D01*
X122172068Y-116906842D01*
X122115000Y-117193740D01*
X122115000Y-117486260D01*
X122172068Y-117773158D01*
X122284010Y-118043411D01*
X122446525Y-118286632D01*
X122653368Y-118493475D01*
X122827760Y-118610000D01*
X122653368Y-118726525D01*
X122446525Y-118933368D01*
X122284010Y-119176589D01*
X122172068Y-119446842D01*
X122115000Y-119733740D01*
X122115000Y-120026260D01*
X122172068Y-120313158D01*
X122284010Y-120583411D01*
X122446525Y-120826632D01*
X122653368Y-121033475D01*
X122827760Y-121150000D01*
X122653368Y-121266525D01*
X122446525Y-121473368D01*
X122284010Y-121716589D01*
X122172068Y-121986842D01*
X122115000Y-122273740D01*
X122115000Y-122566260D01*
X122172068Y-122853158D01*
X122284010Y-123123411D01*
X122446525Y-123366632D01*
X122653368Y-123573475D01*
X122896589Y-123735990D01*
X123166842Y-123847932D01*
X123453740Y-123905000D01*
X123746260Y-123905000D01*
X124033158Y-123847932D01*
X124303411Y-123735990D01*
X124546632Y-123573475D01*
X124753475Y-123366632D01*
X124915990Y-123123411D01*
X125027932Y-122853158D01*
X125085000Y-122566260D01*
X125085000Y-122273740D01*
X125027932Y-121986842D01*
X124915990Y-121716589D01*
X124753475Y-121473368D01*
X124546632Y-121266525D01*
X124372240Y-121150000D01*
X124546632Y-121033475D01*
X124753475Y-120826632D01*
X124915990Y-120583411D01*
X125027932Y-120313158D01*
X125085000Y-120026260D01*
X125085000Y-119733740D01*
X125027932Y-119446842D01*
X124915990Y-119176589D01*
X124753475Y-118933368D01*
X124546632Y-118726525D01*
X124372240Y-118610000D01*
X124546632Y-118493475D01*
X124753475Y-118286632D01*
X124915990Y-118043411D01*
X125027932Y-117773158D01*
X125085000Y-117486260D01*
X125085000Y-117193740D01*
X125027932Y-116906842D01*
X124915990Y-116636589D01*
X124753475Y-116393368D01*
X124621620Y-116261513D01*
X124694180Y-116239502D01*
X124804494Y-116180537D01*
X124901185Y-116101185D01*
X124980537Y-116004494D01*
X125039502Y-115894180D01*
X125075812Y-115774482D01*
X125088072Y-115650000D01*
X125088072Y-113950000D01*
X125075812Y-113825518D01*
X125039502Y-113705820D01*
X124980537Y-113595506D01*
X124901185Y-113498815D01*
X124804494Y-113419463D01*
X124694180Y-113360498D01*
X124574482Y-113324188D01*
X124450000Y-113311928D01*
X122750000Y-113311928D01*
X122625518Y-113324188D01*
X122505820Y-113360498D01*
X122395506Y-113419463D01*
X122298815Y-113498815D01*
X122219463Y-113595506D01*
X122160498Y-113705820D01*
X122124188Y-113825518D01*
X122111928Y-113950000D01*
X119988072Y-113950000D01*
X119975812Y-113825518D01*
X119939502Y-113705820D01*
X119880537Y-113595506D01*
X119801185Y-113498815D01*
X119704494Y-113419463D01*
X119594180Y-113360498D01*
X119474482Y-113324188D01*
X119350000Y-113311928D01*
X117650000Y-113311928D01*
X117525518Y-113324188D01*
X117405820Y-113360498D01*
X117295506Y-113419463D01*
X117198815Y-113498815D01*
X117119463Y-113595506D01*
X117060498Y-113705820D01*
X117024188Y-113825518D01*
X117011928Y-113950000D01*
X110660000Y-113950000D01*
X110660000Y-109079872D01*
X116265000Y-109079872D01*
X116265000Y-109520128D01*
X116350890Y-109951925D01*
X116519369Y-110358669D01*
X116763962Y-110724729D01*
X117075271Y-111036038D01*
X117441331Y-111280631D01*
X117848075Y-111449110D01*
X118279872Y-111535000D01*
X118720128Y-111535000D01*
X119151925Y-111449110D01*
X119558669Y-111280631D01*
X119924729Y-111036038D01*
X120236038Y-110724729D01*
X120480631Y-110358669D01*
X120649110Y-109951925D01*
X120735000Y-109520128D01*
X120735000Y-109079872D01*
X120649110Y-108648075D01*
X120480631Y-108241331D01*
X120236038Y-107875271D01*
X119924729Y-107563962D01*
X119558669Y-107319369D01*
X119151925Y-107150890D01*
X118720128Y-107065000D01*
X118279872Y-107065000D01*
X117848075Y-107150890D01*
X117441331Y-107319369D01*
X117075271Y-107563962D01*
X116763962Y-107875271D01*
X116519369Y-108241331D01*
X116350890Y-108648075D01*
X116265000Y-109079872D01*
X110660000Y-109079872D01*
X110660000Y-98153740D01*
X113515000Y-98153740D01*
X113515000Y-98446260D01*
X113572068Y-98733158D01*
X113684010Y-99003411D01*
X113846525Y-99246632D01*
X114053368Y-99453475D01*
X114296589Y-99615990D01*
X114566842Y-99727932D01*
X114853740Y-99785000D01*
X115146260Y-99785000D01*
X115433158Y-99727932D01*
X115703411Y-99615990D01*
X115946632Y-99453475D01*
X116153475Y-99246632D01*
X116315990Y-99003411D01*
X116427932Y-98733158D01*
X116485000Y-98446260D01*
X116485000Y-98153740D01*
X116427932Y-97866842D01*
X116315990Y-97596589D01*
X116153475Y-97353368D01*
X115946632Y-97146525D01*
X115703411Y-96984010D01*
X115433158Y-96872068D01*
X115213611Y-96828397D01*
X118651208Y-96828397D01*
X118728843Y-97077472D01*
X118992883Y-97203371D01*
X119276411Y-97275339D01*
X119568531Y-97290611D01*
X119858019Y-97248599D01*
X120133747Y-97150919D01*
X120271157Y-97077472D01*
X120348792Y-96828397D01*
X119500000Y-95979605D01*
X118651208Y-96828397D01*
X115213611Y-96828397D01*
X115146260Y-96815000D01*
X114853740Y-96815000D01*
X114566842Y-96872068D01*
X114296589Y-96984010D01*
X114053368Y-97146525D01*
X113846525Y-97353368D01*
X113684010Y-97596589D01*
X113572068Y-97866842D01*
X113515000Y-98153740D01*
X110660000Y-98153740D01*
X110660000Y-95868531D01*
X118009389Y-95868531D01*
X118051401Y-96158019D01*
X118149081Y-96433747D01*
X118222528Y-96571157D01*
X118471603Y-96648792D01*
X119320395Y-95800000D01*
X119679605Y-95800000D01*
X120528397Y-96648792D01*
X120777472Y-96571157D01*
X120903371Y-96307117D01*
X120975339Y-96023589D01*
X120990611Y-95731469D01*
X120979331Y-95653740D01*
X123015000Y-95653740D01*
X123015000Y-95946260D01*
X123072068Y-96233158D01*
X123184010Y-96503411D01*
X123346525Y-96746632D01*
X123553368Y-96953475D01*
X123796589Y-97115990D01*
X124066842Y-97227932D01*
X124353740Y-97285000D01*
X124646260Y-97285000D01*
X124933158Y-97227932D01*
X125203411Y-97115990D01*
X125446632Y-96953475D01*
X125653475Y-96746632D01*
X125815990Y-96503411D01*
X125927932Y-96233158D01*
X125985000Y-95946260D01*
X125985000Y-95653740D01*
X125927932Y-95366842D01*
X125815990Y-95096589D01*
X125653475Y-94853368D01*
X125446632Y-94646525D01*
X125203411Y-94484010D01*
X124933158Y-94372068D01*
X124646260Y-94315000D01*
X124353740Y-94315000D01*
X124066842Y-94372068D01*
X123796589Y-94484010D01*
X123553368Y-94646525D01*
X123346525Y-94853368D01*
X123184010Y-95096589D01*
X123072068Y-95366842D01*
X123015000Y-95653740D01*
X120979331Y-95653740D01*
X120948599Y-95441981D01*
X120850919Y-95166253D01*
X120777472Y-95028843D01*
X120528397Y-94951208D01*
X119679605Y-95800000D01*
X119320395Y-95800000D01*
X118471603Y-94951208D01*
X118222528Y-95028843D01*
X118096629Y-95292883D01*
X118024661Y-95576411D01*
X118009389Y-95868531D01*
X110660000Y-95868531D01*
X110660000Y-94328397D01*
X114151208Y-94328397D01*
X114228843Y-94577472D01*
X114492883Y-94703371D01*
X114776411Y-94775339D01*
X115068531Y-94790611D01*
X115199507Y-94771603D01*
X118651208Y-94771603D01*
X119500000Y-95620395D01*
X120348792Y-94771603D01*
X120271157Y-94522528D01*
X120007117Y-94396629D01*
X119723589Y-94324661D01*
X119431469Y-94309389D01*
X119141981Y-94351401D01*
X118866253Y-94449081D01*
X118728843Y-94522528D01*
X118651208Y-94771603D01*
X115199507Y-94771603D01*
X115358019Y-94748599D01*
X115633747Y-94650919D01*
X115771157Y-94577472D01*
X115848792Y-94328397D01*
X115000000Y-93479605D01*
X114151208Y-94328397D01*
X110660000Y-94328397D01*
X110660000Y-93368531D01*
X113509389Y-93368531D01*
X113551401Y-93658019D01*
X113649081Y-93933747D01*
X113722528Y-94071157D01*
X113971603Y-94148792D01*
X114820395Y-93300000D01*
X115179605Y-93300000D01*
X116028397Y-94148792D01*
X116277472Y-94071157D01*
X116403371Y-93807117D01*
X116475339Y-93523589D01*
X116490611Y-93231469D01*
X116448599Y-92941981D01*
X116350919Y-92666253D01*
X116277472Y-92528843D01*
X116028397Y-92451208D01*
X115179605Y-93300000D01*
X114820395Y-93300000D01*
X113971603Y-92451208D01*
X113722528Y-92528843D01*
X113596629Y-92792883D01*
X113524661Y-93076411D01*
X113509389Y-93368531D01*
X110660000Y-93368531D01*
X110660000Y-92271603D01*
X114151208Y-92271603D01*
X115000000Y-93120395D01*
X115848792Y-92271603D01*
X115771157Y-92022528D01*
X115507117Y-91896629D01*
X115223589Y-91824661D01*
X114931469Y-91809389D01*
X114641981Y-91851401D01*
X114366253Y-91949081D01*
X114228843Y-92022528D01*
X114151208Y-92271603D01*
X110660000Y-92271603D01*
X110660000Y-90153740D01*
X120515000Y-90153740D01*
X120515000Y-90446260D01*
X120572068Y-90733158D01*
X120684010Y-91003411D01*
X120846525Y-91246632D01*
X121053368Y-91453475D01*
X121296589Y-91615990D01*
X121566842Y-91727932D01*
X121853740Y-91785000D01*
X122146260Y-91785000D01*
X122433158Y-91727932D01*
X122703411Y-91615990D01*
X122946632Y-91453475D01*
X123153475Y-91246632D01*
X123315990Y-91003411D01*
X123427932Y-90733158D01*
X123485000Y-90446260D01*
X123485000Y-90153740D01*
X123427932Y-89866842D01*
X123315990Y-89596589D01*
X123153475Y-89353368D01*
X122946632Y-89146525D01*
X122703411Y-88984010D01*
X122433158Y-88872068D01*
X122146260Y-88815000D01*
X121853740Y-88815000D01*
X121566842Y-88872068D01*
X121296589Y-88984010D01*
X121053368Y-89146525D01*
X120846525Y-89353368D01*
X120684010Y-89596589D01*
X120572068Y-89866842D01*
X120515000Y-90153740D01*
X110660000Y-90153740D01*
X110660000Y-87653740D01*
X111015000Y-87653740D01*
X111015000Y-87946260D01*
X111072068Y-88233158D01*
X111184010Y-88503411D01*
X111346525Y-88746632D01*
X111553368Y-88953475D01*
X111796589Y-89115990D01*
X112066842Y-89227932D01*
X112353740Y-89285000D01*
X112646260Y-89285000D01*
X112933158Y-89227932D01*
X113203411Y-89115990D01*
X113446632Y-88953475D01*
X113571710Y-88828397D01*
X116651208Y-88828397D01*
X116728843Y-89077472D01*
X116992883Y-89203371D01*
X117276411Y-89275339D01*
X117568531Y-89290611D01*
X117858019Y-89248599D01*
X118133747Y-89150919D01*
X118271157Y-89077472D01*
X118348792Y-88828397D01*
X117500000Y-87979605D01*
X116651208Y-88828397D01*
X113571710Y-88828397D01*
X113653475Y-88746632D01*
X113815990Y-88503411D01*
X113927932Y-88233158D01*
X113985000Y-87946260D01*
X113985000Y-87868531D01*
X116009389Y-87868531D01*
X116051401Y-88158019D01*
X116149081Y-88433747D01*
X116222528Y-88571157D01*
X116471603Y-88648792D01*
X117320395Y-87800000D01*
X117679605Y-87800000D01*
X118528397Y-88648792D01*
X118777472Y-88571157D01*
X118903371Y-88307117D01*
X118975339Y-88023589D01*
X118990611Y-87731469D01*
X118948599Y-87441981D01*
X118850919Y-87166253D01*
X118777472Y-87028843D01*
X118528397Y-86951208D01*
X117679605Y-87800000D01*
X117320395Y-87800000D01*
X116471603Y-86951208D01*
X116222528Y-87028843D01*
X116096629Y-87292883D01*
X116024661Y-87576411D01*
X116009389Y-87868531D01*
X113985000Y-87868531D01*
X113985000Y-87653740D01*
X113927932Y-87366842D01*
X113815990Y-87096589D01*
X113653475Y-86853368D01*
X113571710Y-86771603D01*
X116651208Y-86771603D01*
X117500000Y-87620395D01*
X118348792Y-86771603D01*
X118271157Y-86522528D01*
X118007117Y-86396629D01*
X117738308Y-86328397D01*
X121151208Y-86328397D01*
X121228843Y-86577472D01*
X121492883Y-86703371D01*
X121776411Y-86775339D01*
X122068531Y-86790611D01*
X122358019Y-86748599D01*
X122633747Y-86650919D01*
X122771157Y-86577472D01*
X122848792Y-86328397D01*
X122000000Y-85479605D01*
X121151208Y-86328397D01*
X117738308Y-86328397D01*
X117723589Y-86324661D01*
X117431469Y-86309389D01*
X117141981Y-86351401D01*
X116866253Y-86449081D01*
X116728843Y-86522528D01*
X116651208Y-86771603D01*
X113571710Y-86771603D01*
X113446632Y-86646525D01*
X113203411Y-86484010D01*
X112933158Y-86372068D01*
X112646260Y-86315000D01*
X112353740Y-86315000D01*
X112066842Y-86372068D01*
X111796589Y-86484010D01*
X111553368Y-86646525D01*
X111346525Y-86853368D01*
X111184010Y-87096589D01*
X111072068Y-87366842D01*
X111015000Y-87653740D01*
X110660000Y-87653740D01*
X110660000Y-85368531D01*
X120509389Y-85368531D01*
X120551401Y-85658019D01*
X120649081Y-85933747D01*
X120722528Y-86071157D01*
X120971603Y-86148792D01*
X121820395Y-85300000D01*
X122179605Y-85300000D01*
X123028397Y-86148792D01*
X123277472Y-86071157D01*
X123403371Y-85807117D01*
X123475339Y-85523589D01*
X123490611Y-85231469D01*
X123448599Y-84941981D01*
X123350919Y-84666253D01*
X123277472Y-84528843D01*
X123028397Y-84451208D01*
X122179605Y-85300000D01*
X121820395Y-85300000D01*
X120971603Y-84451208D01*
X120722528Y-84528843D01*
X120596629Y-84792883D01*
X120524661Y-85076411D01*
X120509389Y-85368531D01*
X110660000Y-85368531D01*
X110660000Y-84271603D01*
X121151208Y-84271603D01*
X122000000Y-85120395D01*
X122848792Y-84271603D01*
X122771157Y-84022528D01*
X122507117Y-83896629D01*
X122223589Y-83824661D01*
X121931469Y-83809389D01*
X121641981Y-83851401D01*
X121366253Y-83949081D01*
X121228843Y-84022528D01*
X121151208Y-84271603D01*
X110660000Y-84271603D01*
X110660000Y-82153740D01*
X113515000Y-82153740D01*
X113515000Y-82446260D01*
X113572068Y-82733158D01*
X113684010Y-83003411D01*
X113846525Y-83246632D01*
X114053368Y-83453475D01*
X114296589Y-83615990D01*
X114566842Y-83727932D01*
X114853740Y-83785000D01*
X115146260Y-83785000D01*
X115433158Y-83727932D01*
X115703411Y-83615990D01*
X115946632Y-83453475D01*
X116153475Y-83246632D01*
X116315990Y-83003411D01*
X116427932Y-82733158D01*
X116485000Y-82446260D01*
X116485000Y-82153740D01*
X116427932Y-81866842D01*
X116315990Y-81596589D01*
X116153475Y-81353368D01*
X115946632Y-81146525D01*
X115703411Y-80984010D01*
X115433158Y-80872068D01*
X115213611Y-80828397D01*
X118651208Y-80828397D01*
X118728843Y-81077472D01*
X118992883Y-81203371D01*
X119276411Y-81275339D01*
X119568531Y-81290611D01*
X119858019Y-81248599D01*
X120133747Y-81150919D01*
X120271157Y-81077472D01*
X120348792Y-80828397D01*
X119500000Y-79979605D01*
X118651208Y-80828397D01*
X115213611Y-80828397D01*
X115146260Y-80815000D01*
X114853740Y-80815000D01*
X114566842Y-80872068D01*
X114296589Y-80984010D01*
X114053368Y-81146525D01*
X113846525Y-81353368D01*
X113684010Y-81596589D01*
X113572068Y-81866842D01*
X113515000Y-82153740D01*
X110660000Y-82153740D01*
X110660000Y-79868531D01*
X118009389Y-79868531D01*
X118051401Y-80158019D01*
X118149081Y-80433747D01*
X118222528Y-80571157D01*
X118471603Y-80648792D01*
X119320395Y-79800000D01*
X119679605Y-79800000D01*
X120528397Y-80648792D01*
X120777472Y-80571157D01*
X120903371Y-80307117D01*
X120975339Y-80023589D01*
X120990611Y-79731469D01*
X120979331Y-79653740D01*
X123015000Y-79653740D01*
X123015000Y-79946260D01*
X123072068Y-80233158D01*
X123184010Y-80503411D01*
X123346525Y-80746632D01*
X123553368Y-80953475D01*
X123796589Y-81115990D01*
X124066842Y-81227932D01*
X124353740Y-81285000D01*
X124646260Y-81285000D01*
X124933158Y-81227932D01*
X125203411Y-81115990D01*
X125446632Y-80953475D01*
X125653475Y-80746632D01*
X125815990Y-80503411D01*
X125927932Y-80233158D01*
X125985000Y-79946260D01*
X125985000Y-79653740D01*
X125927932Y-79366842D01*
X125815990Y-79096589D01*
X125653475Y-78853368D01*
X125446632Y-78646525D01*
X125203411Y-78484010D01*
X124933158Y-78372068D01*
X124646260Y-78315000D01*
X124353740Y-78315000D01*
X124066842Y-78372068D01*
X123796589Y-78484010D01*
X123553368Y-78646525D01*
X123346525Y-78853368D01*
X123184010Y-79096589D01*
X123072068Y-79366842D01*
X123015000Y-79653740D01*
X120979331Y-79653740D01*
X120948599Y-79441981D01*
X120850919Y-79166253D01*
X120777472Y-79028843D01*
X120528397Y-78951208D01*
X119679605Y-79800000D01*
X119320395Y-79800000D01*
X118471603Y-78951208D01*
X118222528Y-79028843D01*
X118096629Y-79292883D01*
X118024661Y-79576411D01*
X118009389Y-79868531D01*
X110660000Y-79868531D01*
X110660000Y-78328397D01*
X114151208Y-78328397D01*
X114228843Y-78577472D01*
X114492883Y-78703371D01*
X114776411Y-78775339D01*
X115068531Y-78790611D01*
X115199507Y-78771603D01*
X118651208Y-78771603D01*
X119500000Y-79620395D01*
X120348792Y-78771603D01*
X120271157Y-78522528D01*
X120007117Y-78396629D01*
X119723589Y-78324661D01*
X119431469Y-78309389D01*
X119141981Y-78351401D01*
X118866253Y-78449081D01*
X118728843Y-78522528D01*
X118651208Y-78771603D01*
X115199507Y-78771603D01*
X115358019Y-78748599D01*
X115633747Y-78650919D01*
X115771157Y-78577472D01*
X115848792Y-78328397D01*
X115000000Y-77479605D01*
X114151208Y-78328397D01*
X110660000Y-78328397D01*
X110660000Y-77368531D01*
X113509389Y-77368531D01*
X113551401Y-77658019D01*
X113649081Y-77933747D01*
X113722528Y-78071157D01*
X113971603Y-78148792D01*
X114820395Y-77300000D01*
X115179605Y-77300000D01*
X116028397Y-78148792D01*
X116277472Y-78071157D01*
X116403371Y-77807117D01*
X116475339Y-77523589D01*
X116490611Y-77231469D01*
X116448599Y-76941981D01*
X116350919Y-76666253D01*
X116277472Y-76528843D01*
X116028397Y-76451208D01*
X115179605Y-77300000D01*
X114820395Y-77300000D01*
X113971603Y-76451208D01*
X113722528Y-76528843D01*
X113596629Y-76792883D01*
X113524661Y-77076411D01*
X113509389Y-77368531D01*
X110660000Y-77368531D01*
X110660000Y-76271603D01*
X114151208Y-76271603D01*
X115000000Y-77120395D01*
X115848792Y-76271603D01*
X115771157Y-76022528D01*
X115507117Y-75896629D01*
X115223589Y-75824661D01*
X114931469Y-75809389D01*
X114641981Y-75851401D01*
X114366253Y-75949081D01*
X114228843Y-76022528D01*
X114151208Y-76271603D01*
X110660000Y-76271603D01*
X110660000Y-70153740D01*
X113515000Y-70153740D01*
X113515000Y-70446260D01*
X113572068Y-70733158D01*
X113684010Y-71003411D01*
X113846525Y-71246632D01*
X114053368Y-71453475D01*
X114296589Y-71615990D01*
X114566842Y-71727932D01*
X114853740Y-71785000D01*
X115146260Y-71785000D01*
X115433158Y-71727932D01*
X115703411Y-71615990D01*
X115946632Y-71453475D01*
X116153475Y-71246632D01*
X116315990Y-71003411D01*
X116427932Y-70733158D01*
X116485000Y-70446260D01*
X116485000Y-70153740D01*
X120515000Y-70153740D01*
X120515000Y-70446260D01*
X120572068Y-70733158D01*
X120684010Y-71003411D01*
X120846525Y-71246632D01*
X121053368Y-71453475D01*
X121296589Y-71615990D01*
X121566842Y-71727932D01*
X121853740Y-71785000D01*
X122146260Y-71785000D01*
X122433158Y-71727932D01*
X122703411Y-71615990D01*
X122946632Y-71453475D01*
X123153475Y-71246632D01*
X123315990Y-71003411D01*
X123427932Y-70733158D01*
X123485000Y-70446260D01*
X123485000Y-70153740D01*
X123427932Y-69866842D01*
X123315990Y-69596589D01*
X123153475Y-69353368D01*
X122946632Y-69146525D01*
X122703411Y-68984010D01*
X122433158Y-68872068D01*
X122146260Y-68815000D01*
X121853740Y-68815000D01*
X121566842Y-68872068D01*
X121296589Y-68984010D01*
X121053368Y-69146525D01*
X120846525Y-69353368D01*
X120684010Y-69596589D01*
X120572068Y-69866842D01*
X120515000Y-70153740D01*
X116485000Y-70153740D01*
X116427932Y-69866842D01*
X116315990Y-69596589D01*
X116153475Y-69353368D01*
X115946632Y-69146525D01*
X115703411Y-68984010D01*
X115433158Y-68872068D01*
X115146260Y-68815000D01*
X114853740Y-68815000D01*
X114566842Y-68872068D01*
X114296589Y-68984010D01*
X114053368Y-69146525D01*
X113846525Y-69353368D01*
X113684010Y-69596589D01*
X113572068Y-69866842D01*
X113515000Y-70153740D01*
X110660000Y-70153740D01*
X110660000Y-66328397D01*
X114151208Y-66328397D01*
X114228843Y-66577472D01*
X114492883Y-66703371D01*
X114776411Y-66775339D01*
X115068531Y-66790611D01*
X115358019Y-66748599D01*
X115633747Y-66650919D01*
X115771157Y-66577472D01*
X115848792Y-66328397D01*
X121151208Y-66328397D01*
X121228843Y-66577472D01*
X121492883Y-66703371D01*
X121776411Y-66775339D01*
X122068531Y-66790611D01*
X122358019Y-66748599D01*
X122633747Y-66650919D01*
X122771157Y-66577472D01*
X122848792Y-66328397D01*
X122000000Y-65479605D01*
X121151208Y-66328397D01*
X115848792Y-66328397D01*
X115000000Y-65479605D01*
X114151208Y-66328397D01*
X110660000Y-66328397D01*
X110660000Y-65368531D01*
X113509389Y-65368531D01*
X113551401Y-65658019D01*
X113649081Y-65933747D01*
X113722528Y-66071157D01*
X113971603Y-66148792D01*
X114820395Y-65300000D01*
X115179605Y-65300000D01*
X116028397Y-66148792D01*
X116277472Y-66071157D01*
X116403371Y-65807117D01*
X116475339Y-65523589D01*
X116483445Y-65368531D01*
X120509389Y-65368531D01*
X120551401Y-65658019D01*
X120649081Y-65933747D01*
X120722528Y-66071157D01*
X120971603Y-66148792D01*
X121820395Y-65300000D01*
X122179605Y-65300000D01*
X123028397Y-66148792D01*
X123277472Y-66071157D01*
X123403371Y-65807117D01*
X123475339Y-65523589D01*
X123490611Y-65231469D01*
X123448599Y-64941981D01*
X123350919Y-64666253D01*
X123277472Y-64528843D01*
X123028397Y-64451208D01*
X122179605Y-65300000D01*
X121820395Y-65300000D01*
X120971603Y-64451208D01*
X120722528Y-64528843D01*
X120596629Y-64792883D01*
X120524661Y-65076411D01*
X120509389Y-65368531D01*
X116483445Y-65368531D01*
X116490611Y-65231469D01*
X116448599Y-64941981D01*
X116350919Y-64666253D01*
X116277472Y-64528843D01*
X116028397Y-64451208D01*
X115179605Y-65300000D01*
X114820395Y-65300000D01*
X113971603Y-64451208D01*
X113722528Y-64528843D01*
X113596629Y-64792883D01*
X113524661Y-65076411D01*
X113509389Y-65368531D01*
X110660000Y-65368531D01*
X110660000Y-64271603D01*
X114151208Y-64271603D01*
X115000000Y-65120395D01*
X115848792Y-64271603D01*
X121151208Y-64271603D01*
X122000000Y-65120395D01*
X122848792Y-64271603D01*
X122771157Y-64022528D01*
X122507117Y-63896629D01*
X122223589Y-63824661D01*
X121931469Y-63809389D01*
X121641981Y-63851401D01*
X121366253Y-63949081D01*
X121228843Y-64022528D01*
X121151208Y-64271603D01*
X115848792Y-64271603D01*
X115771157Y-64022528D01*
X115507117Y-63896629D01*
X115223589Y-63824661D01*
X114931469Y-63809389D01*
X114641981Y-63851401D01*
X114366253Y-63949081D01*
X114228843Y-64022528D01*
X114151208Y-64271603D01*
X110660000Y-64271603D01*
X110660000Y-56153740D01*
X113515000Y-56153740D01*
X113515000Y-56446260D01*
X113572068Y-56733158D01*
X113684010Y-57003411D01*
X113846525Y-57246632D01*
X114053368Y-57453475D01*
X114296589Y-57615990D01*
X114566842Y-57727932D01*
X114853740Y-57785000D01*
X115146260Y-57785000D01*
X115433158Y-57727932D01*
X115703411Y-57615990D01*
X115946632Y-57453475D01*
X116153475Y-57246632D01*
X116315990Y-57003411D01*
X116427932Y-56733158D01*
X116485000Y-56446260D01*
X116485000Y-56153740D01*
X120515000Y-56153740D01*
X120515000Y-56446260D01*
X120572068Y-56733158D01*
X120684010Y-57003411D01*
X120846525Y-57246632D01*
X121053368Y-57453475D01*
X121296589Y-57615990D01*
X121566842Y-57727932D01*
X121853740Y-57785000D01*
X122146260Y-57785000D01*
X122433158Y-57727932D01*
X122703411Y-57615990D01*
X122946632Y-57453475D01*
X123153475Y-57246632D01*
X123315990Y-57003411D01*
X123427932Y-56733158D01*
X123485000Y-56446260D01*
X123485000Y-56153740D01*
X123427932Y-55866842D01*
X123315990Y-55596589D01*
X123153475Y-55353368D01*
X122946632Y-55146525D01*
X122703411Y-54984010D01*
X122433158Y-54872068D01*
X122146260Y-54815000D01*
X121853740Y-54815000D01*
X121566842Y-54872068D01*
X121296589Y-54984010D01*
X121053368Y-55146525D01*
X120846525Y-55353368D01*
X120684010Y-55596589D01*
X120572068Y-55866842D01*
X120515000Y-56153740D01*
X116485000Y-56153740D01*
X116427932Y-55866842D01*
X116315990Y-55596589D01*
X116153475Y-55353368D01*
X115946632Y-55146525D01*
X115703411Y-54984010D01*
X115433158Y-54872068D01*
X115146260Y-54815000D01*
X114853740Y-54815000D01*
X114566842Y-54872068D01*
X114296589Y-54984010D01*
X114053368Y-55146525D01*
X113846525Y-55353368D01*
X113684010Y-55596589D01*
X113572068Y-55866842D01*
X113515000Y-56153740D01*
X110660000Y-56153740D01*
X110660000Y-52328397D01*
X114151208Y-52328397D01*
X114228843Y-52577472D01*
X114492883Y-52703371D01*
X114776411Y-52775339D01*
X115068531Y-52790611D01*
X115358019Y-52748599D01*
X115633747Y-52650919D01*
X115771157Y-52577472D01*
X115848792Y-52328397D01*
X121151208Y-52328397D01*
X121228843Y-52577472D01*
X121492883Y-52703371D01*
X121776411Y-52775339D01*
X122068531Y-52790611D01*
X122358019Y-52748599D01*
X122633747Y-52650919D01*
X122771157Y-52577472D01*
X122848792Y-52328397D01*
X122000000Y-51479605D01*
X121151208Y-52328397D01*
X115848792Y-52328397D01*
X115000000Y-51479605D01*
X114151208Y-52328397D01*
X110660000Y-52328397D01*
X110660000Y-51368531D01*
X113509389Y-51368531D01*
X113551401Y-51658019D01*
X113649081Y-51933747D01*
X113722528Y-52071157D01*
X113971603Y-52148792D01*
X114820395Y-51300000D01*
X115179605Y-51300000D01*
X116028397Y-52148792D01*
X116277472Y-52071157D01*
X116403371Y-51807117D01*
X116475339Y-51523589D01*
X116483445Y-51368531D01*
X120509389Y-51368531D01*
X120551401Y-51658019D01*
X120649081Y-51933747D01*
X120722528Y-52071157D01*
X120971603Y-52148792D01*
X121820395Y-51300000D01*
X122179605Y-51300000D01*
X123028397Y-52148792D01*
X123277472Y-52071157D01*
X123403371Y-51807117D01*
X123475339Y-51523589D01*
X123490611Y-51231469D01*
X123448599Y-50941981D01*
X123350919Y-50666253D01*
X123277472Y-50528843D01*
X123028397Y-50451208D01*
X122179605Y-51300000D01*
X121820395Y-51300000D01*
X120971603Y-50451208D01*
X120722528Y-50528843D01*
X120596629Y-50792883D01*
X120524661Y-51076411D01*
X120509389Y-51368531D01*
X116483445Y-51368531D01*
X116490611Y-51231469D01*
X116448599Y-50941981D01*
X116350919Y-50666253D01*
X116277472Y-50528843D01*
X116028397Y-50451208D01*
X115179605Y-51300000D01*
X114820395Y-51300000D01*
X113971603Y-50451208D01*
X113722528Y-50528843D01*
X113596629Y-50792883D01*
X113524661Y-51076411D01*
X113509389Y-51368531D01*
X110660000Y-51368531D01*
X110660000Y-50271603D01*
X114151208Y-50271603D01*
X115000000Y-51120395D01*
X115848792Y-50271603D01*
X121151208Y-50271603D01*
X122000000Y-51120395D01*
X122848792Y-50271603D01*
X122771157Y-50022528D01*
X122507117Y-49896629D01*
X122223589Y-49824661D01*
X121931469Y-49809389D01*
X121641981Y-49851401D01*
X121366253Y-49949081D01*
X121228843Y-50022528D01*
X121151208Y-50271603D01*
X115848792Y-50271603D01*
X115771157Y-50022528D01*
X115507117Y-49896629D01*
X115223589Y-49824661D01*
X114931469Y-49809389D01*
X114641981Y-49851401D01*
X114366253Y-49949081D01*
X114228843Y-50022528D01*
X114151208Y-50271603D01*
X110660000Y-50271603D01*
X110660000Y-44460000D01*
X126340000Y-44460000D01*
X126340001Y-139340000D01*
G37*
%TD.AperFunction*%
%TD*%
M02*
