M48
; DRILL file {KiCad 5.99.0+really5.1.10+dfsg1-1} date Thu Oct  7 20:34:07 2021
; FORMAT={-:-/ absolute / inch / decimal}
; #@! TF.CreationDate,2021-10-07T20:34:07+11:00
; #@! TF.GenerationSoftware,Kicad,Pcbnew,5.99.0+really5.1.10+dfsg1-1
; #@! TF.FileFunction,Plated,1,2,PTH
FMAT,2
INCH
T1C0.0394
%
G90
G05
T1
X4.3931Y-4.7825
X4.3931Y-4.8825
X4.3931Y-4.9825
X4.3931Y-5.0825
X4.3931Y-5.1825
X4.3931Y-5.2825
X4.4291Y-3.4567
X4.5276Y-2.0197
X4.5276Y-2.2165
X4.5276Y-2.5709
X4.5276Y-2.7677
X4.5276Y-3.0433
X4.5276Y-3.2402
X4.5276Y-3.6732
X4.5276Y-3.8701
X4.5665Y-4.9739
X4.626Y-3.4567
X4.6654Y-4.5197
X4.6654Y-4.6197
X4.6654Y-4.7197
X4.6654Y-4.8197
X4.6665Y-4.9739
X4.7047Y-3.1417
X4.7047Y-3.7717
X4.7665Y-4.9739
X4.8031Y-2.0197
X4.8031Y-2.2165
X4.8031Y-2.5709
X4.8031Y-2.7677
X4.8031Y-3.3583
X4.8031Y-3.5551
X4.8661Y-4.5197
X4.8661Y-4.6197
X4.8661Y-4.7197
X4.8661Y-4.8197
X4.8665Y-4.9739
X4.9016Y-3.1417
X4.9016Y-3.7717
T0
M30
