%TF.GenerationSoftware,KiCad,Pcbnew,5.99.0+really5.1.10+dfsg1-1*%
%TF.CreationDate,2021-10-07T20:33:57+11:00*%
%TF.ProjectId,minisynth32-front,6d696e69-7379-46e7-9468-33322d66726f,2.0*%
%TF.SameCoordinates,Original*%
%TF.FileFunction,Legend,Top*%
%TF.FilePolarity,Positive*%
%FSLAX46Y46*%
G04 Gerber Fmt 4.6, Leading zero omitted, Abs format (unit mm)*
G04 Created by KiCad (PCBNEW 5.99.0+really5.1.10+dfsg1-1) date 2021-10-07 20:33:57*
%MOMM*%
%LPD*%
G01*
G04 APERTURE LIST*
%ADD10C,0.150000*%
%ADD11C,0.120000*%
%ADD12O,1.700000X1.700000*%
%ADD13R,1.700000X1.700000*%
%ADD14C,1.700000*%
%ADD15C,3.200000*%
G04 APERTURE END LIST*
D10*
X112152380Y-49052380D02*
X112152380Y-48052380D01*
X112723809Y-49052380D01*
X112723809Y-48052380D01*
X113390476Y-48052380D02*
X113580952Y-48052380D01*
X113676190Y-48100000D01*
X113771428Y-48195238D01*
X113819047Y-48385714D01*
X113819047Y-48719047D01*
X113771428Y-48909523D01*
X113676190Y-49004761D01*
X113580952Y-49052380D01*
X113390476Y-49052380D01*
X113295238Y-49004761D01*
X113200000Y-48909523D01*
X113152380Y-48719047D01*
X113152380Y-48385714D01*
X113200000Y-48195238D01*
X113295238Y-48100000D01*
X113390476Y-48052380D01*
X114104761Y-48052380D02*
X114676190Y-48052380D01*
X114390476Y-49052380D02*
X114390476Y-48052380D01*
X116104761Y-48528571D02*
X115771428Y-48528571D01*
X115771428Y-49052380D02*
X115771428Y-48052380D01*
X116247619Y-48052380D01*
X116628571Y-48052380D02*
X116628571Y-48861904D01*
X116676190Y-48957142D01*
X116723809Y-49004761D01*
X116819047Y-49052380D01*
X117009523Y-49052380D01*
X117104761Y-49004761D01*
X117152380Y-48957142D01*
X117200000Y-48861904D01*
X117200000Y-48052380D01*
X117676190Y-49052380D02*
X117676190Y-48052380D01*
X118247619Y-49052380D01*
X118247619Y-48052380D01*
X119295238Y-48957142D02*
X119247619Y-49004761D01*
X119104761Y-49052380D01*
X119009523Y-49052380D01*
X118866666Y-49004761D01*
X118771428Y-48909523D01*
X118723809Y-48814285D01*
X118676190Y-48623809D01*
X118676190Y-48480952D01*
X118723809Y-48290476D01*
X118771428Y-48195238D01*
X118866666Y-48100000D01*
X119009523Y-48052380D01*
X119104761Y-48052380D01*
X119247619Y-48100000D01*
X119295238Y-48147619D01*
X119580952Y-48052380D02*
X120152380Y-48052380D01*
X119866666Y-49052380D02*
X119866666Y-48052380D01*
X120485714Y-49052380D02*
X120485714Y-48052380D01*
X121152380Y-48052380D02*
X121342857Y-48052380D01*
X121438095Y-48100000D01*
X121533333Y-48195238D01*
X121580952Y-48385714D01*
X121580952Y-48719047D01*
X121533333Y-48909523D01*
X121438095Y-49004761D01*
X121342857Y-49052380D01*
X121152380Y-49052380D01*
X121057142Y-49004761D01*
X120961904Y-48909523D01*
X120914285Y-48719047D01*
X120914285Y-48385714D01*
X120961904Y-48195238D01*
X121057142Y-48100000D01*
X121152380Y-48052380D01*
X122009523Y-49052380D02*
X122009523Y-48052380D01*
X122580952Y-49052380D01*
X122580952Y-48052380D01*
X123009523Y-48766666D02*
X123485714Y-48766666D01*
X122914285Y-49052380D02*
X123247619Y-48052380D01*
X123580952Y-49052380D01*
X124390476Y-49052380D02*
X123914285Y-49052380D01*
X123914285Y-48052380D01*
D11*
X126500000Y-58800000D02*
X111000000Y-58800000D01*
X126500000Y-47100000D02*
X126500000Y-58800000D01*
X111000000Y-47100000D02*
X126500000Y-47100000D01*
X111000000Y-58800000D02*
X111000000Y-47100000D01*
D10*
X112414285Y-100902380D02*
X112414285Y-99902380D01*
X112985714Y-100902380D01*
X112985714Y-99902380D01*
X113652380Y-99902380D02*
X113842857Y-99902380D01*
X113938095Y-99950000D01*
X114033333Y-100045238D01*
X114080952Y-100235714D01*
X114080952Y-100569047D01*
X114033333Y-100759523D01*
X113938095Y-100854761D01*
X113842857Y-100902380D01*
X113652380Y-100902380D01*
X113557142Y-100854761D01*
X113461904Y-100759523D01*
X113414285Y-100569047D01*
X113414285Y-100235714D01*
X113461904Y-100045238D01*
X113557142Y-99950000D01*
X113652380Y-99902380D01*
X114366666Y-99902380D02*
X114938095Y-99902380D01*
X114652380Y-100902380D02*
X114652380Y-99902380D01*
X116366666Y-100378571D02*
X116033333Y-100378571D01*
X116033333Y-100902380D02*
X116033333Y-99902380D01*
X116509523Y-99902380D01*
X116890476Y-99902380D02*
X116890476Y-100711904D01*
X116938095Y-100807142D01*
X116985714Y-100854761D01*
X117080952Y-100902380D01*
X117271428Y-100902380D01*
X117366666Y-100854761D01*
X117414285Y-100807142D01*
X117461904Y-100711904D01*
X117461904Y-99902380D01*
X117938095Y-100902380D02*
X117938095Y-99902380D01*
X118509523Y-100902380D01*
X118509523Y-99902380D01*
X119557142Y-100807142D02*
X119509523Y-100854761D01*
X119366666Y-100902380D01*
X119271428Y-100902380D01*
X119128571Y-100854761D01*
X119033333Y-100759523D01*
X118985714Y-100664285D01*
X118938095Y-100473809D01*
X118938095Y-100330952D01*
X118985714Y-100140476D01*
X119033333Y-100045238D01*
X119128571Y-99950000D01*
X119271428Y-99902380D01*
X119366666Y-99902380D01*
X119509523Y-99950000D01*
X119557142Y-99997619D01*
X119842857Y-99902380D02*
X120414285Y-99902380D01*
X120128571Y-100902380D02*
X120128571Y-99902380D01*
X120747619Y-100902380D02*
X120747619Y-99902380D01*
X121414285Y-99902380D02*
X121604761Y-99902380D01*
X121700000Y-99950000D01*
X121795238Y-100045238D01*
X121842857Y-100235714D01*
X121842857Y-100569047D01*
X121795238Y-100759523D01*
X121700000Y-100854761D01*
X121604761Y-100902380D01*
X121414285Y-100902380D01*
X121319047Y-100854761D01*
X121223809Y-100759523D01*
X121176190Y-100569047D01*
X121176190Y-100235714D01*
X121223809Y-100045238D01*
X121319047Y-99950000D01*
X121414285Y-99902380D01*
X122271428Y-100902380D02*
X122271428Y-99902380D01*
X122842857Y-100902380D01*
X122842857Y-99902380D01*
X123271428Y-100616666D02*
X123747619Y-100616666D01*
X123176190Y-100902380D02*
X123509523Y-99902380D01*
X123842857Y-100902380D01*
X124652380Y-100902380D02*
X124176190Y-100902380D01*
X124176190Y-99902380D01*
X124985714Y-100807142D02*
X125033333Y-100854761D01*
X124985714Y-100902380D01*
X124938095Y-100854761D01*
X124985714Y-100807142D01*
X124985714Y-100902380D01*
X124985714Y-100283333D02*
X125033333Y-100330952D01*
X124985714Y-100378571D01*
X124938095Y-100330952D01*
X124985714Y-100283333D01*
X124985714Y-100378571D01*
X111342857Y-101552380D02*
X111914285Y-101552380D01*
X111628571Y-102552380D02*
X111628571Y-101552380D01*
X112676190Y-102552380D02*
X112676190Y-102028571D01*
X112628571Y-101933333D01*
X112533333Y-101885714D01*
X112342857Y-101885714D01*
X112247619Y-101933333D01*
X112676190Y-102504761D02*
X112580952Y-102552380D01*
X112342857Y-102552380D01*
X112247619Y-102504761D01*
X112200000Y-102409523D01*
X112200000Y-102314285D01*
X112247619Y-102219047D01*
X112342857Y-102171428D01*
X112580952Y-102171428D01*
X112676190Y-102123809D01*
X113580952Y-102504761D02*
X113485714Y-102552380D01*
X113295238Y-102552380D01*
X113200000Y-102504761D01*
X113152380Y-102457142D01*
X113104761Y-102361904D01*
X113104761Y-102076190D01*
X113152380Y-101980952D01*
X113200000Y-101933333D01*
X113295238Y-101885714D01*
X113485714Y-101885714D01*
X113580952Y-101933333D01*
X113866666Y-101885714D02*
X114247619Y-101885714D01*
X114009523Y-101552380D02*
X114009523Y-102409523D01*
X114057142Y-102504761D01*
X114152380Y-102552380D01*
X114247619Y-102552380D01*
X114580952Y-102552380D02*
X114580952Y-101885714D01*
X114580952Y-101552380D02*
X114533333Y-101600000D01*
X114580952Y-101647619D01*
X114628571Y-101600000D01*
X114580952Y-101552380D01*
X114580952Y-101647619D01*
X115200000Y-102552380D02*
X115104761Y-102504761D01*
X115057142Y-102409523D01*
X115057142Y-101552380D01*
X115961904Y-102504761D02*
X115866666Y-102552380D01*
X115676190Y-102552380D01*
X115580952Y-102504761D01*
X115533333Y-102409523D01*
X115533333Y-102028571D01*
X115580952Y-101933333D01*
X115676190Y-101885714D01*
X115866666Y-101885714D01*
X115961904Y-101933333D01*
X116009523Y-102028571D01*
X116009523Y-102123809D01*
X115533333Y-102219047D01*
X117152380Y-102504761D02*
X117247619Y-102552380D01*
X117438095Y-102552380D01*
X117533333Y-102504761D01*
X117580952Y-102409523D01*
X117580952Y-102361904D01*
X117533333Y-102266666D01*
X117438095Y-102219047D01*
X117295238Y-102219047D01*
X117200000Y-102171428D01*
X117152380Y-102076190D01*
X117152380Y-102028571D01*
X117200000Y-101933333D01*
X117295238Y-101885714D01*
X117438095Y-101885714D01*
X117533333Y-101933333D01*
X117914285Y-101885714D02*
X118104761Y-102552380D01*
X118295238Y-102076190D01*
X118485714Y-102552380D01*
X118676190Y-101885714D01*
X119057142Y-102552380D02*
X119057142Y-101885714D01*
X119057142Y-101552380D02*
X119009523Y-101600000D01*
X119057142Y-101647619D01*
X119104761Y-101600000D01*
X119057142Y-101552380D01*
X119057142Y-101647619D01*
X119390476Y-101885714D02*
X119771428Y-101885714D01*
X119533333Y-101552380D02*
X119533333Y-102409523D01*
X119580952Y-102504761D01*
X119676190Y-102552380D01*
X119771428Y-102552380D01*
X120533333Y-102504761D02*
X120438095Y-102552380D01*
X120247619Y-102552380D01*
X120152380Y-102504761D01*
X120104761Y-102457142D01*
X120057142Y-102361904D01*
X120057142Y-102076190D01*
X120104761Y-101980952D01*
X120152380Y-101933333D01*
X120247619Y-101885714D01*
X120438095Y-101885714D01*
X120533333Y-101933333D01*
X120961904Y-102552380D02*
X120961904Y-101552380D01*
X121390476Y-102552380D02*
X121390476Y-102028571D01*
X121342857Y-101933333D01*
X121247619Y-101885714D01*
X121104761Y-101885714D01*
X121009523Y-101933333D01*
X120961904Y-101980952D01*
X122247619Y-102504761D02*
X122152380Y-102552380D01*
X121961904Y-102552380D01*
X121866666Y-102504761D01*
X121819047Y-102409523D01*
X121819047Y-102028571D01*
X121866666Y-101933333D01*
X121961904Y-101885714D01*
X122152380Y-101885714D01*
X122247619Y-101933333D01*
X122295238Y-102028571D01*
X122295238Y-102123809D01*
X121819047Y-102219047D01*
X122676190Y-102504761D02*
X122771428Y-102552380D01*
X122961904Y-102552380D01*
X123057142Y-102504761D01*
X123104761Y-102409523D01*
X123104761Y-102361904D01*
X123057142Y-102266666D01*
X122961904Y-102219047D01*
X122819047Y-102219047D01*
X122723809Y-102171428D01*
X122676190Y-102076190D01*
X122676190Y-102028571D01*
X122723809Y-101933333D01*
X122819047Y-101885714D01*
X122961904Y-101885714D01*
X123057142Y-101933333D01*
X124152380Y-101885714D02*
X124533333Y-101885714D01*
X124295238Y-102552380D02*
X124295238Y-101695238D01*
X124342857Y-101600000D01*
X124438095Y-101552380D01*
X124533333Y-101552380D01*
X125009523Y-102552380D02*
X124914285Y-102504761D01*
X124866666Y-102457142D01*
X124819047Y-102361904D01*
X124819047Y-102076190D01*
X124866666Y-101980952D01*
X124914285Y-101933333D01*
X125009523Y-101885714D01*
X125152380Y-101885714D01*
X125247619Y-101933333D01*
X125295238Y-101980952D01*
X125342857Y-102076190D01*
X125342857Y-102361904D01*
X125295238Y-102457142D01*
X125247619Y-102504761D01*
X125152380Y-102552380D01*
X125009523Y-102552380D01*
X125771428Y-102552380D02*
X125771428Y-101885714D01*
X125771428Y-102076190D02*
X125819047Y-101980952D01*
X125866666Y-101933333D01*
X125961904Y-101885714D01*
X126057142Y-101885714D01*
X113771428Y-103535714D02*
X114152380Y-103535714D01*
X113914285Y-103202380D02*
X113914285Y-104059523D01*
X113961904Y-104154761D01*
X114057142Y-104202380D01*
X114152380Y-104202380D01*
X114914285Y-104202380D02*
X114914285Y-103678571D01*
X114866666Y-103583333D01*
X114771428Y-103535714D01*
X114580952Y-103535714D01*
X114485714Y-103583333D01*
X114914285Y-104154761D02*
X114819047Y-104202380D01*
X114580952Y-104202380D01*
X114485714Y-104154761D01*
X114438095Y-104059523D01*
X114438095Y-103964285D01*
X114485714Y-103869047D01*
X114580952Y-103821428D01*
X114819047Y-103821428D01*
X114914285Y-103773809D01*
X115819047Y-104154761D02*
X115723809Y-104202380D01*
X115533333Y-104202380D01*
X115438095Y-104154761D01*
X115390476Y-104107142D01*
X115342857Y-104011904D01*
X115342857Y-103726190D01*
X115390476Y-103630952D01*
X115438095Y-103583333D01*
X115533333Y-103535714D01*
X115723809Y-103535714D01*
X115819047Y-103583333D01*
X116104761Y-103535714D02*
X116485714Y-103535714D01*
X116247619Y-103202380D02*
X116247619Y-104059523D01*
X116295238Y-104154761D01*
X116390476Y-104202380D01*
X116485714Y-104202380D01*
X116819047Y-104202380D02*
X116819047Y-103535714D01*
X116819047Y-103202380D02*
X116771428Y-103250000D01*
X116819047Y-103297619D01*
X116866666Y-103250000D01*
X116819047Y-103202380D01*
X116819047Y-103297619D01*
X117438095Y-104202380D02*
X117342857Y-104154761D01*
X117295238Y-104059523D01*
X117295238Y-103202380D01*
X117819047Y-104202380D02*
X117819047Y-103535714D01*
X117819047Y-103202380D02*
X117771428Y-103250000D01*
X117819047Y-103297619D01*
X117866666Y-103250000D01*
X117819047Y-103202380D01*
X117819047Y-103297619D01*
X118152380Y-103535714D02*
X118533333Y-103535714D01*
X118295238Y-103202380D02*
X118295238Y-104059523D01*
X118342857Y-104154761D01*
X118438095Y-104202380D01*
X118533333Y-104202380D01*
X118771428Y-103535714D02*
X119009523Y-104202380D01*
X119247619Y-103535714D02*
X119009523Y-104202380D01*
X118914285Y-104440476D01*
X118866666Y-104488095D01*
X118771428Y-104535714D01*
X120533333Y-104202380D02*
X120438095Y-104154761D01*
X120390476Y-104107142D01*
X120342857Y-104011904D01*
X120342857Y-103726190D01*
X120390476Y-103630952D01*
X120438095Y-103583333D01*
X120533333Y-103535714D01*
X120676190Y-103535714D01*
X120771428Y-103583333D01*
X120819047Y-103630952D01*
X120866666Y-103726190D01*
X120866666Y-104011904D01*
X120819047Y-104107142D01*
X120771428Y-104154761D01*
X120676190Y-104202380D01*
X120533333Y-104202380D01*
X121295238Y-103535714D02*
X121295238Y-104202380D01*
X121295238Y-103630952D02*
X121342857Y-103583333D01*
X121438095Y-103535714D01*
X121580952Y-103535714D01*
X121676190Y-103583333D01*
X121723809Y-103678571D01*
X121723809Y-104202380D01*
X122342857Y-104202380D02*
X122247619Y-104154761D01*
X122200000Y-104059523D01*
X122200000Y-103202380D01*
X122628571Y-103535714D02*
X122866666Y-104202380D01*
X123104761Y-103535714D02*
X122866666Y-104202380D01*
X122771428Y-104440476D01*
X122723809Y-104488095D01*
X122628571Y-104535714D01*
X123485714Y-104107142D02*
X123533333Y-104154761D01*
X123485714Y-104202380D01*
X123438095Y-104154761D01*
X123485714Y-104107142D01*
X123485714Y-104202380D01*
D11*
X111000000Y-105000000D02*
X111000000Y-75600000D01*
X126500000Y-105000000D02*
X111000000Y-105000000D01*
X126500000Y-75600000D02*
X126500000Y-105000000D01*
X111000000Y-75600000D02*
X126500000Y-75600000D01*
%TO.C,SW10*%
X118900000Y-82900000D02*
X118900000Y-80900000D01*
X118900000Y-76700000D02*
X125100000Y-76700000D01*
X125100000Y-82900000D02*
X118900000Y-82900000D01*
X118900000Y-78700000D02*
X118900000Y-76690000D01*
X125100000Y-78700000D02*
X125100000Y-76700000D01*
X125100000Y-82900000D02*
X125100000Y-80900000D01*
%TO.C,SW9*%
X118900000Y-84700000D02*
X120900000Y-84700000D01*
X125100000Y-84700000D02*
X125100000Y-90900000D01*
X118900000Y-90900000D02*
X118900000Y-84700000D01*
X123100000Y-84700000D02*
X125110000Y-84700000D01*
X123100000Y-90900000D02*
X125100000Y-90900000D01*
X118900000Y-90900000D02*
X120900000Y-90900000D01*
%TO.C,SW8*%
X118900000Y-98900000D02*
X118900000Y-96900000D01*
X118900000Y-92700000D02*
X125100000Y-92700000D01*
X125100000Y-98900000D02*
X118900000Y-98900000D01*
X118900000Y-94700000D02*
X118900000Y-92690000D01*
X125100000Y-94700000D02*
X125100000Y-92700000D01*
X125100000Y-98900000D02*
X125100000Y-96900000D01*
%TO.C,SW7*%
X111900000Y-76700000D02*
X113900000Y-76700000D01*
X118100000Y-76700000D02*
X118100000Y-82900000D01*
X111900000Y-82900000D02*
X111900000Y-76700000D01*
X116100000Y-76700000D02*
X118110000Y-76700000D01*
X116100000Y-82900000D02*
X118100000Y-82900000D01*
X111900000Y-82900000D02*
X113900000Y-82900000D01*
%TO.C,SW6*%
X118100000Y-84700000D02*
X118100000Y-86700000D01*
X118100000Y-90900000D02*
X111900000Y-90900000D01*
X111900000Y-84700000D02*
X118100000Y-84700000D01*
X118100000Y-88900000D02*
X118100000Y-90910000D01*
X111900000Y-88900000D02*
X111900000Y-90900000D01*
X111900000Y-84700000D02*
X111900000Y-86700000D01*
%TO.C,SW5*%
X111900000Y-92700000D02*
X113900000Y-92700000D01*
X118100000Y-92700000D02*
X118100000Y-98900000D01*
X111900000Y-98900000D02*
X111900000Y-92700000D01*
X116100000Y-92700000D02*
X118110000Y-92700000D01*
X116100000Y-98900000D02*
X118100000Y-98900000D01*
X111900000Y-98900000D02*
X113900000Y-98900000D01*
%TO.C,SW4*%
X118900000Y-50700000D02*
X120900000Y-50700000D01*
X125100000Y-50700000D02*
X125100000Y-56900000D01*
X118900000Y-56900000D02*
X118900000Y-50700000D01*
X123100000Y-50700000D02*
X125110000Y-50700000D01*
X123100000Y-56900000D02*
X125100000Y-56900000D01*
X118900000Y-56900000D02*
X120900000Y-56900000D01*
%TO.C,SW3*%
X111900000Y-50700000D02*
X113900000Y-50700000D01*
X118100000Y-50700000D02*
X118100000Y-56900000D01*
X111900000Y-56900000D02*
X111900000Y-50700000D01*
X116100000Y-50700000D02*
X118110000Y-50700000D01*
X116100000Y-56900000D02*
X118100000Y-56900000D01*
X111900000Y-56900000D02*
X113900000Y-56900000D01*
%TO.C,SW2*%
X118900000Y-64700000D02*
X120900000Y-64700000D01*
X125100000Y-64700000D02*
X125100000Y-70900000D01*
X118900000Y-70900000D02*
X118900000Y-64700000D01*
X123100000Y-64700000D02*
X125110000Y-64700000D01*
X123100000Y-70900000D02*
X125100000Y-70900000D01*
X118900000Y-70900000D02*
X120900000Y-70900000D01*
%TO.C,SW1*%
X111900000Y-64700000D02*
X113900000Y-64700000D01*
X118100000Y-64700000D02*
X118100000Y-70900000D01*
X111900000Y-70900000D02*
X111900000Y-64700000D01*
X116100000Y-64700000D02*
X118110000Y-64700000D01*
X116100000Y-70900000D02*
X118100000Y-70900000D01*
X111900000Y-70900000D02*
X113900000Y-70900000D01*
%TO.C,J7*%
X126150000Y-125066000D02*
X126150000Y-161134000D01*
X113450000Y-125066000D02*
X126150000Y-125066000D01*
X113450000Y-161134000D02*
X113450000Y-125066000D01*
X113450000Y-161134000D02*
X126150000Y-161134000D01*
%TO.C,SW2*%
D10*
X121928571Y-68304761D02*
X121976190Y-68161904D01*
X122023809Y-68114285D01*
X122119047Y-68066666D01*
X122261904Y-68066666D01*
X122357142Y-68114285D01*
X122404761Y-68161904D01*
X122452380Y-68257142D01*
X122452380Y-68638095D01*
X121452380Y-68638095D01*
X121452380Y-68304761D01*
X121500000Y-68209523D01*
X121547619Y-68161904D01*
X121642857Y-68114285D01*
X121738095Y-68114285D01*
X121833333Y-68161904D01*
X121880952Y-68209523D01*
X121928571Y-68304761D01*
X121928571Y-68638095D01*
X121547619Y-67685714D02*
X121500000Y-67638095D01*
X121452380Y-67542857D01*
X121452380Y-67304761D01*
X121500000Y-67209523D01*
X121547619Y-67161904D01*
X121642857Y-67114285D01*
X121738095Y-67114285D01*
X121880952Y-67161904D01*
X122452380Y-67733333D01*
X122452380Y-67114285D01*
%TO.C,SW1*%
X114928571Y-68104761D02*
X114976190Y-67961904D01*
X115023809Y-67914285D01*
X115119047Y-67866666D01*
X115261904Y-67866666D01*
X115357142Y-67914285D01*
X115404761Y-67961904D01*
X115452380Y-68057142D01*
X115452380Y-68438095D01*
X114452380Y-68438095D01*
X114452380Y-68104761D01*
X114500000Y-68009523D01*
X114547619Y-67961904D01*
X114642857Y-67914285D01*
X114738095Y-67914285D01*
X114833333Y-67961904D01*
X114880952Y-68009523D01*
X114928571Y-68104761D01*
X114928571Y-68438095D01*
X115452380Y-66914285D02*
X115452380Y-67485714D01*
X115452380Y-67200000D02*
X114452380Y-67200000D01*
X114595238Y-67295238D01*
X114690476Y-67390476D01*
X114738095Y-67485714D01*
%TO.C,J7*%
X120204761Y-142940571D02*
X120252380Y-142797714D01*
X120252380Y-142559619D01*
X120204761Y-142464380D01*
X120157142Y-142416761D01*
X120061904Y-142369142D01*
X119966666Y-142369142D01*
X119871428Y-142416761D01*
X119823809Y-142464380D01*
X119776190Y-142559619D01*
X119728571Y-142750095D01*
X119680952Y-142845333D01*
X119633333Y-142892952D01*
X119538095Y-142940571D01*
X119442857Y-142940571D01*
X119347619Y-142892952D01*
X119300000Y-142845333D01*
X119252380Y-142750095D01*
X119252380Y-142512000D01*
X119300000Y-142369142D01*
X120204761Y-141988190D02*
X120252380Y-141845333D01*
X120252380Y-141607238D01*
X120204761Y-141512000D01*
X120157142Y-141464380D01*
X120061904Y-141416761D01*
X119966666Y-141416761D01*
X119871428Y-141464380D01*
X119823809Y-141512000D01*
X119776190Y-141607238D01*
X119728571Y-141797714D01*
X119680952Y-141892952D01*
X119633333Y-141940571D01*
X119538095Y-141988190D01*
X119442857Y-141988190D01*
X119347619Y-141940571D01*
X119300000Y-141892952D01*
X119252380Y-141797714D01*
X119252380Y-141559619D01*
X119300000Y-141416761D01*
X120252380Y-140988190D02*
X119252380Y-140988190D01*
X119252380Y-140750095D01*
X119300000Y-140607238D01*
X119395238Y-140512000D01*
X119490476Y-140464380D01*
X119680952Y-140416761D01*
X119823809Y-140416761D01*
X120014285Y-140464380D01*
X120109523Y-140512000D01*
X120204761Y-140607238D01*
X120252380Y-140750095D01*
X120252380Y-140988190D01*
X120252380Y-139464380D02*
X120252380Y-140035809D01*
X120252380Y-139750095D02*
X119252380Y-139750095D01*
X119395238Y-139845333D01*
X119490476Y-139940571D01*
X119538095Y-140035809D01*
X119252380Y-139131047D02*
X119252380Y-138512000D01*
X119633333Y-138845333D01*
X119633333Y-138702476D01*
X119680952Y-138607238D01*
X119728571Y-138559619D01*
X119823809Y-138512000D01*
X120061904Y-138512000D01*
X120157142Y-138559619D01*
X120204761Y-138607238D01*
X120252380Y-138702476D01*
X120252380Y-138988190D01*
X120204761Y-139083428D01*
X120157142Y-139131047D01*
X119252380Y-137892952D02*
X119252380Y-137797714D01*
X119300000Y-137702476D01*
X119347619Y-137654857D01*
X119442857Y-137607238D01*
X119633333Y-137559619D01*
X119871428Y-137559619D01*
X120061904Y-137607238D01*
X120157142Y-137654857D01*
X120204761Y-137702476D01*
X120252380Y-137797714D01*
X120252380Y-137892952D01*
X120204761Y-137988190D01*
X120157142Y-138035809D01*
X120061904Y-138083428D01*
X119871428Y-138131047D01*
X119633333Y-138131047D01*
X119442857Y-138083428D01*
X119347619Y-138035809D01*
X119300000Y-137988190D01*
X119252380Y-137892952D01*
X119252380Y-136702476D02*
X119252380Y-136892952D01*
X119300000Y-136988190D01*
X119347619Y-137035809D01*
X119490476Y-137131047D01*
X119680952Y-137178666D01*
X120061904Y-137178666D01*
X120157142Y-137131047D01*
X120204761Y-137083428D01*
X120252380Y-136988190D01*
X120252380Y-136797714D01*
X120204761Y-136702476D01*
X120157142Y-136654857D01*
X120061904Y-136607238D01*
X119823809Y-136607238D01*
X119728571Y-136654857D01*
X119680952Y-136702476D01*
X119633333Y-136797714D01*
X119633333Y-136988190D01*
X119680952Y-137083428D01*
X119728571Y-137131047D01*
X119823809Y-137178666D01*
X119252380Y-135226285D02*
X119252380Y-135035809D01*
X119300000Y-134940571D01*
X119395238Y-134845333D01*
X119585714Y-134797714D01*
X119919047Y-134797714D01*
X120109523Y-134845333D01*
X120204761Y-134940571D01*
X120252380Y-135035809D01*
X120252380Y-135226285D01*
X120204761Y-135321523D01*
X120109523Y-135416761D01*
X119919047Y-135464380D01*
X119585714Y-135464380D01*
X119395238Y-135416761D01*
X119300000Y-135321523D01*
X119252380Y-135226285D01*
X120252380Y-133892952D02*
X120252380Y-134369142D01*
X119252380Y-134369142D01*
X119728571Y-133559619D02*
X119728571Y-133226285D01*
X120252380Y-133083428D02*
X120252380Y-133559619D01*
X119252380Y-133559619D01*
X119252380Y-133083428D01*
X120252380Y-132654857D02*
X119252380Y-132654857D01*
X119252380Y-132416761D01*
X119300000Y-132273904D01*
X119395238Y-132178666D01*
X119490476Y-132131047D01*
X119680952Y-132083428D01*
X119823809Y-132083428D01*
X120014285Y-132131047D01*
X120109523Y-132178666D01*
X120204761Y-132273904D01*
X120252380Y-132416761D01*
X120252380Y-132654857D01*
%TD*%
%LPC*%
D12*
%TO.C,J9*%
X118500000Y-122420000D03*
X118500000Y-119880000D03*
X118500000Y-117340000D03*
D13*
X118500000Y-114800000D03*
%TD*%
D12*
%TO.C,J8*%
X123600000Y-122420000D03*
X123600000Y-119880000D03*
X123600000Y-117340000D03*
D13*
X123600000Y-114800000D03*
%TD*%
D14*
%TO.C,SW10*%
X124500000Y-79800000D03*
X119500000Y-79800000D03*
%TD*%
%TO.C,SW9*%
X122000000Y-90300000D03*
X122000000Y-85300000D03*
%TD*%
%TO.C,SW8*%
X124500000Y-95800000D03*
X119500000Y-95800000D03*
%TD*%
%TO.C,SW7*%
X115000000Y-82300000D03*
X115000000Y-77300000D03*
%TD*%
%TO.C,SW6*%
X112500000Y-87800000D03*
X117500000Y-87800000D03*
%TD*%
%TO.C,SW5*%
X115000000Y-98300000D03*
X115000000Y-93300000D03*
%TD*%
%TO.C,SW4*%
X122000000Y-56300000D03*
X122000000Y-51300000D03*
%TD*%
%TO.C,SW3*%
X115000000Y-56300000D03*
X115000000Y-51300000D03*
%TD*%
%TO.C,SW2*%
X122000000Y-70300000D03*
X122000000Y-65300000D03*
%TD*%
%TO.C,SW1*%
X115000000Y-70300000D03*
X115000000Y-65300000D03*
%TD*%
D12*
%TO.C,J7*%
X123610000Y-126336000D03*
X121070000Y-126336000D03*
X118530000Y-126336000D03*
D13*
X115990000Y-126336000D03*
%TD*%
D12*
%TO.C,J6*%
X111584000Y-134176000D03*
X111584000Y-131636000D03*
X111584000Y-129096000D03*
X111584000Y-126556000D03*
X111584000Y-124016000D03*
D13*
X111584000Y-121476000D03*
%TD*%
D15*
%TO.C,REF\u002A\u002A*%
X118500000Y-109300000D03*
%TD*%
M02*
