%TF.GenerationSoftware,KiCad,Pcbnew,5.99.0+really5.1.10+dfsg1-1*%
%TF.CreationDate,2021-08-22T14:43:38+10:00*%
%TF.ProjectId,minisynth32,6d696e69-7379-46e7-9468-33322e6b6963,1.1-2.0*%
%TF.SameCoordinates,Original*%
%TF.FileFunction,Legend,Top*%
%TF.FilePolarity,Positive*%
%FSLAX46Y46*%
G04 Gerber Fmt 4.6, Leading zero omitted, Abs format (unit mm)*
G04 Created by KiCad (PCBNEW 5.99.0+really5.1.10+dfsg1-1) date 2021-08-22 14:43:38*
%MOMM*%
%LPD*%
G01*
G04 APERTURE LIST*
%ADD10C,0.150000*%
%ADD11C,0.120000*%
%ADD12O,1.700000X1.700000*%
%ADD13R,1.700000X1.700000*%
%ADD14C,1.700000*%
%ADD15C,3.200000*%
G04 APERTURE END LIST*
D10*
X115438095Y-48052380D02*
X115438095Y-48861904D01*
X115485714Y-48957142D01*
X115533333Y-49004761D01*
X115628571Y-49052380D01*
X115819047Y-49052380D01*
X115914285Y-49004761D01*
X115961904Y-48957142D01*
X116009523Y-48861904D01*
X116009523Y-48052380D01*
X116485714Y-49052380D02*
X116485714Y-48052380D01*
X117057142Y-49052380D01*
X117057142Y-48052380D01*
X117533333Y-48052380D02*
X117533333Y-48861904D01*
X117580952Y-48957142D01*
X117628571Y-49004761D01*
X117723809Y-49052380D01*
X117914285Y-49052380D01*
X118009523Y-49004761D01*
X118057142Y-48957142D01*
X118104761Y-48861904D01*
X118104761Y-48052380D01*
X118533333Y-49004761D02*
X118676190Y-49052380D01*
X118914285Y-49052380D01*
X119009523Y-49004761D01*
X119057142Y-48957142D01*
X119104761Y-48861904D01*
X119104761Y-48766666D01*
X119057142Y-48671428D01*
X119009523Y-48623809D01*
X118914285Y-48576190D01*
X118723809Y-48528571D01*
X118628571Y-48480952D01*
X118580952Y-48433333D01*
X118533333Y-48338095D01*
X118533333Y-48242857D01*
X118580952Y-48147619D01*
X118628571Y-48100000D01*
X118723809Y-48052380D01*
X118961904Y-48052380D01*
X119104761Y-48100000D01*
X119533333Y-48528571D02*
X119866666Y-48528571D01*
X120009523Y-49052380D02*
X119533333Y-49052380D01*
X119533333Y-48052380D01*
X120009523Y-48052380D01*
X120438095Y-49052380D02*
X120438095Y-48052380D01*
X120676190Y-48052380D01*
X120819047Y-48100000D01*
X120914285Y-48195238D01*
X120961904Y-48290476D01*
X121009523Y-48480952D01*
X121009523Y-48623809D01*
X120961904Y-48814285D01*
X120914285Y-48909523D01*
X120819047Y-49004761D01*
X120676190Y-49052380D01*
X120438095Y-49052380D01*
D11*
X126500000Y-58800000D02*
X111000000Y-47100000D01*
X111000000Y-58800000D02*
X126500000Y-47100000D01*
X126500000Y-58800000D02*
X111000000Y-58800000D01*
X126500000Y-47100000D02*
X126500000Y-58800000D01*
X111000000Y-47100000D02*
X126500000Y-47100000D01*
X111000000Y-58800000D02*
X111000000Y-47100000D01*
D10*
X111533333Y-99877380D02*
X111533333Y-100686904D01*
X111580952Y-100782142D01*
X111628571Y-100829761D01*
X111723809Y-100877380D01*
X111914285Y-100877380D01*
X112009523Y-100829761D01*
X112057142Y-100782142D01*
X112104761Y-100686904D01*
X112104761Y-99877380D01*
X112580952Y-100877380D02*
X112580952Y-99877380D01*
X113152380Y-100877380D01*
X113152380Y-99877380D01*
X113628571Y-99877380D02*
X113628571Y-100686904D01*
X113676190Y-100782142D01*
X113723809Y-100829761D01*
X113819047Y-100877380D01*
X114009523Y-100877380D01*
X114104761Y-100829761D01*
X114152380Y-100782142D01*
X114200000Y-100686904D01*
X114200000Y-99877380D01*
X114628571Y-100829761D02*
X114771428Y-100877380D01*
X115009523Y-100877380D01*
X115104761Y-100829761D01*
X115152380Y-100782142D01*
X115200000Y-100686904D01*
X115200000Y-100591666D01*
X115152380Y-100496428D01*
X115104761Y-100448809D01*
X115009523Y-100401190D01*
X114819047Y-100353571D01*
X114723809Y-100305952D01*
X114676190Y-100258333D01*
X114628571Y-100163095D01*
X114628571Y-100067857D01*
X114676190Y-99972619D01*
X114723809Y-99925000D01*
X114819047Y-99877380D01*
X115057142Y-99877380D01*
X115200000Y-99925000D01*
X115628571Y-100353571D02*
X115961904Y-100353571D01*
X116104761Y-100877380D02*
X115628571Y-100877380D01*
X115628571Y-99877380D01*
X116104761Y-99877380D01*
X116533333Y-100877380D02*
X116533333Y-99877380D01*
X116771428Y-99877380D01*
X116914285Y-99925000D01*
X117009523Y-100020238D01*
X117057142Y-100115476D01*
X117104761Y-100305952D01*
X117104761Y-100448809D01*
X117057142Y-100639285D01*
X117009523Y-100734523D01*
X116914285Y-100829761D01*
X116771428Y-100877380D01*
X116533333Y-100877380D01*
X117533333Y-100782142D02*
X117580952Y-100829761D01*
X117533333Y-100877380D01*
X117485714Y-100829761D01*
X117533333Y-100782142D01*
X117533333Y-100877380D01*
X117533333Y-100258333D02*
X117580952Y-100305952D01*
X117533333Y-100353571D01*
X117485714Y-100305952D01*
X117533333Y-100258333D01*
X117533333Y-100353571D01*
X119104761Y-100353571D02*
X118771428Y-100353571D01*
X118771428Y-100877380D02*
X118771428Y-99877380D01*
X119247619Y-99877380D01*
X119771428Y-100877380D02*
X119676190Y-100829761D01*
X119628571Y-100782142D01*
X119580952Y-100686904D01*
X119580952Y-100401190D01*
X119628571Y-100305952D01*
X119676190Y-100258333D01*
X119771428Y-100210714D01*
X119914285Y-100210714D01*
X120009523Y-100258333D01*
X120057142Y-100305952D01*
X120104761Y-100401190D01*
X120104761Y-100686904D01*
X120057142Y-100782142D01*
X120009523Y-100829761D01*
X119914285Y-100877380D01*
X119771428Y-100877380D01*
X120533333Y-100877380D02*
X120533333Y-100210714D01*
X120533333Y-100401190D02*
X120580952Y-100305952D01*
X120628571Y-100258333D01*
X120723809Y-100210714D01*
X120819047Y-100210714D01*
X121771428Y-100210714D02*
X122152380Y-100210714D01*
X121914285Y-100877380D02*
X121914285Y-100020238D01*
X121961904Y-99925000D01*
X122057142Y-99877380D01*
X122152380Y-99877380D01*
X122914285Y-100210714D02*
X122914285Y-100877380D01*
X122485714Y-100210714D02*
X122485714Y-100734523D01*
X122533333Y-100829761D01*
X122628571Y-100877380D01*
X122771428Y-100877380D01*
X122866666Y-100829761D01*
X122914285Y-100782142D01*
X123247619Y-100210714D02*
X123628571Y-100210714D01*
X123390476Y-99877380D02*
X123390476Y-100734523D01*
X123438095Y-100829761D01*
X123533333Y-100877380D01*
X123628571Y-100877380D01*
X124390476Y-100210714D02*
X124390476Y-100877380D01*
X123961904Y-100210714D02*
X123961904Y-100734523D01*
X124009523Y-100829761D01*
X124104761Y-100877380D01*
X124247619Y-100877380D01*
X124342857Y-100829761D01*
X124390476Y-100782142D01*
X124866666Y-100877380D02*
X124866666Y-100210714D01*
X124866666Y-100401190D02*
X124914285Y-100305952D01*
X124961904Y-100258333D01*
X125057142Y-100210714D01*
X125152380Y-100210714D01*
X125866666Y-100829761D02*
X125771428Y-100877380D01*
X125580952Y-100877380D01*
X125485714Y-100829761D01*
X125438095Y-100734523D01*
X125438095Y-100353571D01*
X125485714Y-100258333D01*
X125580952Y-100210714D01*
X125771428Y-100210714D01*
X125866666Y-100258333D01*
X125914285Y-100353571D01*
X125914285Y-100448809D01*
X125438095Y-100544047D01*
X112485714Y-102479761D02*
X112390476Y-102527380D01*
X112200000Y-102527380D01*
X112104761Y-102479761D01*
X112057142Y-102384523D01*
X112057142Y-102003571D01*
X112104761Y-101908333D01*
X112200000Y-101860714D01*
X112390476Y-101860714D01*
X112485714Y-101908333D01*
X112533333Y-102003571D01*
X112533333Y-102098809D01*
X112057142Y-102194047D01*
X112866666Y-102527380D02*
X113390476Y-101860714D01*
X112866666Y-101860714D02*
X113390476Y-102527380D01*
X113771428Y-101860714D02*
X113771428Y-102860714D01*
X113771428Y-101908333D02*
X113866666Y-101860714D01*
X114057142Y-101860714D01*
X114152380Y-101908333D01*
X114200000Y-101955952D01*
X114247619Y-102051190D01*
X114247619Y-102336904D01*
X114200000Y-102432142D01*
X114152380Y-102479761D01*
X114057142Y-102527380D01*
X113866666Y-102527380D01*
X113771428Y-102479761D01*
X115104761Y-102527380D02*
X115104761Y-102003571D01*
X115057142Y-101908333D01*
X114961904Y-101860714D01*
X114771428Y-101860714D01*
X114676190Y-101908333D01*
X115104761Y-102479761D02*
X115009523Y-102527380D01*
X114771428Y-102527380D01*
X114676190Y-102479761D01*
X114628571Y-102384523D01*
X114628571Y-102289285D01*
X114676190Y-102194047D01*
X114771428Y-102146428D01*
X115009523Y-102146428D01*
X115104761Y-102098809D01*
X115580952Y-101860714D02*
X115580952Y-102527380D01*
X115580952Y-101955952D02*
X115628571Y-101908333D01*
X115723809Y-101860714D01*
X115866666Y-101860714D01*
X115961904Y-101908333D01*
X116009523Y-102003571D01*
X116009523Y-102527380D01*
X116438095Y-102479761D02*
X116533333Y-102527380D01*
X116723809Y-102527380D01*
X116819047Y-102479761D01*
X116866666Y-102384523D01*
X116866666Y-102336904D01*
X116819047Y-102241666D01*
X116723809Y-102194047D01*
X116580952Y-102194047D01*
X116485714Y-102146428D01*
X116438095Y-102051190D01*
X116438095Y-102003571D01*
X116485714Y-101908333D01*
X116580952Y-101860714D01*
X116723809Y-101860714D01*
X116819047Y-101908333D01*
X117295238Y-102527380D02*
X117295238Y-101860714D01*
X117295238Y-101527380D02*
X117247619Y-101575000D01*
X117295238Y-101622619D01*
X117342857Y-101575000D01*
X117295238Y-101527380D01*
X117295238Y-101622619D01*
X117914285Y-102527380D02*
X117819047Y-102479761D01*
X117771428Y-102432142D01*
X117723809Y-102336904D01*
X117723809Y-102051190D01*
X117771428Y-101955952D01*
X117819047Y-101908333D01*
X117914285Y-101860714D01*
X118057142Y-101860714D01*
X118152380Y-101908333D01*
X118200000Y-101955952D01*
X118247619Y-102051190D01*
X118247619Y-102336904D01*
X118200000Y-102432142D01*
X118152380Y-102479761D01*
X118057142Y-102527380D01*
X117914285Y-102527380D01*
X118676190Y-101860714D02*
X118676190Y-102527380D01*
X118676190Y-101955952D02*
X118723809Y-101908333D01*
X118819047Y-101860714D01*
X118961904Y-101860714D01*
X119057142Y-101908333D01*
X119104761Y-102003571D01*
X119104761Y-102527380D01*
X120485714Y-102527380D02*
X120390476Y-102479761D01*
X120342857Y-102432142D01*
X120295238Y-102336904D01*
X120295238Y-102051190D01*
X120342857Y-101955952D01*
X120390476Y-101908333D01*
X120485714Y-101860714D01*
X120628571Y-101860714D01*
X120723809Y-101908333D01*
X120771428Y-101955952D01*
X120819047Y-102051190D01*
X120819047Y-102336904D01*
X120771428Y-102432142D01*
X120723809Y-102479761D01*
X120628571Y-102527380D01*
X120485714Y-102527380D01*
X121247619Y-102527380D02*
X121247619Y-101860714D01*
X121247619Y-102051190D02*
X121295238Y-101955952D01*
X121342857Y-101908333D01*
X121438095Y-101860714D01*
X121533333Y-101860714D01*
X122485714Y-101860714D02*
X122866666Y-101860714D01*
X122628571Y-102527380D02*
X122628571Y-101670238D01*
X122676190Y-101575000D01*
X122771428Y-101527380D01*
X122866666Y-101527380D01*
X123628571Y-102527380D02*
X123628571Y-102003571D01*
X123580952Y-101908333D01*
X123485714Y-101860714D01*
X123295238Y-101860714D01*
X123200000Y-101908333D01*
X123628571Y-102479761D02*
X123533333Y-102527380D01*
X123295238Y-102527380D01*
X123200000Y-102479761D01*
X123152380Y-102384523D01*
X123152380Y-102289285D01*
X123200000Y-102194047D01*
X123295238Y-102146428D01*
X123533333Y-102146428D01*
X123628571Y-102098809D01*
X124104761Y-102527380D02*
X124104761Y-101527380D01*
X124200000Y-102146428D02*
X124485714Y-102527380D01*
X124485714Y-101860714D02*
X124104761Y-102241666D01*
X125295238Y-102479761D02*
X125200000Y-102527380D01*
X125009523Y-102527380D01*
X124914285Y-102479761D01*
X124866666Y-102384523D01*
X124866666Y-102003571D01*
X124914285Y-101908333D01*
X125009523Y-101860714D01*
X125200000Y-101860714D01*
X125295238Y-101908333D01*
X125342857Y-102003571D01*
X125342857Y-102098809D01*
X124866666Y-102194047D01*
X112604761Y-104129761D02*
X112509523Y-104177380D01*
X112319047Y-104177380D01*
X112223809Y-104129761D01*
X112176190Y-104082142D01*
X112128571Y-103986904D01*
X112128571Y-103701190D01*
X112176190Y-103605952D01*
X112223809Y-103558333D01*
X112319047Y-103510714D01*
X112509523Y-103510714D01*
X112604761Y-103558333D01*
X113176190Y-104177380D02*
X113080952Y-104129761D01*
X113033333Y-104034523D01*
X113033333Y-103177380D01*
X113557142Y-104177380D02*
X113557142Y-103510714D01*
X113557142Y-103177380D02*
X113509523Y-103225000D01*
X113557142Y-103272619D01*
X113604761Y-103225000D01*
X113557142Y-103177380D01*
X113557142Y-103272619D01*
X114461904Y-104129761D02*
X114366666Y-104177380D01*
X114176190Y-104177380D01*
X114080952Y-104129761D01*
X114033333Y-104082142D01*
X113985714Y-103986904D01*
X113985714Y-103701190D01*
X114033333Y-103605952D01*
X114080952Y-103558333D01*
X114176190Y-103510714D01*
X114366666Y-103510714D01*
X114461904Y-103558333D01*
X114890476Y-104177380D02*
X114890476Y-103177380D01*
X114985714Y-103796428D02*
X115271428Y-104177380D01*
X115271428Y-103510714D02*
X114890476Y-103891666D01*
X116128571Y-104177380D02*
X116128571Y-103653571D01*
X116080952Y-103558333D01*
X115985714Y-103510714D01*
X115795238Y-103510714D01*
X115700000Y-103558333D01*
X116128571Y-104129761D02*
X116033333Y-104177380D01*
X115795238Y-104177380D01*
X115700000Y-104129761D01*
X115652380Y-104034523D01*
X115652380Y-103939285D01*
X115700000Y-103844047D01*
X115795238Y-103796428D01*
X116033333Y-103796428D01*
X116128571Y-103748809D01*
X116604761Y-104177380D02*
X116604761Y-103177380D01*
X116604761Y-103558333D02*
X116700000Y-103510714D01*
X116890476Y-103510714D01*
X116985714Y-103558333D01*
X117033333Y-103605952D01*
X117080952Y-103701190D01*
X117080952Y-103986904D01*
X117033333Y-104082142D01*
X116985714Y-104129761D01*
X116890476Y-104177380D01*
X116700000Y-104177380D01*
X116604761Y-104129761D01*
X117652380Y-104177380D02*
X117557142Y-104129761D01*
X117509523Y-104034523D01*
X117509523Y-103177380D01*
X118414285Y-104129761D02*
X118319047Y-104177380D01*
X118128571Y-104177380D01*
X118033333Y-104129761D01*
X117985714Y-104034523D01*
X117985714Y-103653571D01*
X118033333Y-103558333D01*
X118128571Y-103510714D01*
X118319047Y-103510714D01*
X118414285Y-103558333D01*
X118461904Y-103653571D01*
X118461904Y-103748809D01*
X117985714Y-103844047D01*
X119652380Y-104177380D02*
X119652380Y-103177380D01*
X119652380Y-103558333D02*
X119747619Y-103510714D01*
X119938095Y-103510714D01*
X120033333Y-103558333D01*
X120080952Y-103605952D01*
X120128571Y-103701190D01*
X120128571Y-103986904D01*
X120080952Y-104082142D01*
X120033333Y-104129761D01*
X119938095Y-104177380D01*
X119747619Y-104177380D01*
X119652380Y-104129761D01*
X120985714Y-103510714D02*
X120985714Y-104177380D01*
X120557142Y-103510714D02*
X120557142Y-104034523D01*
X120604761Y-104129761D01*
X120700000Y-104177380D01*
X120842857Y-104177380D01*
X120938095Y-104129761D01*
X120985714Y-104082142D01*
X121319047Y-103510714D02*
X121700000Y-103510714D01*
X121461904Y-103177380D02*
X121461904Y-104034523D01*
X121509523Y-104129761D01*
X121604761Y-104177380D01*
X121700000Y-104177380D01*
X121890476Y-103510714D02*
X122271428Y-103510714D01*
X122033333Y-103177380D02*
X122033333Y-104034523D01*
X122080952Y-104129761D01*
X122176190Y-104177380D01*
X122271428Y-104177380D01*
X122747619Y-104177380D02*
X122652380Y-104129761D01*
X122604761Y-104082142D01*
X122557142Y-103986904D01*
X122557142Y-103701190D01*
X122604761Y-103605952D01*
X122652380Y-103558333D01*
X122747619Y-103510714D01*
X122890476Y-103510714D01*
X122985714Y-103558333D01*
X123033333Y-103605952D01*
X123080952Y-103701190D01*
X123080952Y-103986904D01*
X123033333Y-104082142D01*
X122985714Y-104129761D01*
X122890476Y-104177380D01*
X122747619Y-104177380D01*
X123509523Y-103510714D02*
X123509523Y-104177380D01*
X123509523Y-103605952D02*
X123557142Y-103558333D01*
X123652380Y-103510714D01*
X123795238Y-103510714D01*
X123890476Y-103558333D01*
X123938095Y-103653571D01*
X123938095Y-104177380D01*
X124366666Y-104129761D02*
X124461904Y-104177380D01*
X124652380Y-104177380D01*
X124747619Y-104129761D01*
X124795238Y-104034523D01*
X124795238Y-103986904D01*
X124747619Y-103891666D01*
X124652380Y-103844047D01*
X124509523Y-103844047D01*
X124414285Y-103796428D01*
X124366666Y-103701190D01*
X124366666Y-103653571D01*
X124414285Y-103558333D01*
X124509523Y-103510714D01*
X124652380Y-103510714D01*
X124747619Y-103558333D01*
X125223809Y-104082142D02*
X125271428Y-104129761D01*
X125223809Y-104177380D01*
X125176190Y-104129761D01*
X125223809Y-104082142D01*
X125223809Y-104177380D01*
D11*
X111000000Y-104900000D02*
X126500000Y-75600000D01*
X111000000Y-75600000D02*
X126500000Y-105000000D01*
X111000000Y-105000000D02*
X111000000Y-75600000D01*
X126500000Y-105000000D02*
X111000000Y-105000000D01*
X126500000Y-75600000D02*
X126500000Y-105000000D01*
X111000000Y-75600000D02*
X126500000Y-75600000D01*
%TO.C,SW10*%
X125100000Y-82900000D02*
X125100000Y-80900000D01*
X125100000Y-78700000D02*
X125100000Y-76700000D01*
X118900000Y-78700000D02*
X118900000Y-76690000D01*
X125100000Y-82900000D02*
X118900000Y-82900000D01*
X118900000Y-76700000D02*
X125100000Y-76700000D01*
X118900000Y-82900000D02*
X118900000Y-80900000D01*
%TO.C,SW9*%
X118900000Y-90900000D02*
X120900000Y-90900000D01*
X123100000Y-90900000D02*
X125100000Y-90900000D01*
X123100000Y-84700000D02*
X125110000Y-84700000D01*
X118900000Y-90900000D02*
X118900000Y-84700000D01*
X125100000Y-84700000D02*
X125100000Y-90900000D01*
X118900000Y-84700000D02*
X120900000Y-84700000D01*
%TO.C,SW8*%
X125100000Y-98900000D02*
X125100000Y-96900000D01*
X125100000Y-94700000D02*
X125100000Y-92700000D01*
X118900000Y-94700000D02*
X118900000Y-92690000D01*
X125100000Y-98900000D02*
X118900000Y-98900000D01*
X118900000Y-92700000D02*
X125100000Y-92700000D01*
X118900000Y-98900000D02*
X118900000Y-96900000D01*
%TO.C,SW7*%
X111900000Y-82900000D02*
X113900000Y-82900000D01*
X116100000Y-82900000D02*
X118100000Y-82900000D01*
X116100000Y-76700000D02*
X118110000Y-76700000D01*
X111900000Y-82900000D02*
X111900000Y-76700000D01*
X118100000Y-76700000D02*
X118100000Y-82900000D01*
X111900000Y-76700000D02*
X113900000Y-76700000D01*
%TO.C,SW6*%
X111900000Y-84700000D02*
X111900000Y-86700000D01*
X111900000Y-88900000D02*
X111900000Y-90900000D01*
X118100000Y-88900000D02*
X118100000Y-90910000D01*
X111900000Y-84700000D02*
X118100000Y-84700000D01*
X118100000Y-90900000D02*
X111900000Y-90900000D01*
X118100000Y-84700000D02*
X118100000Y-86700000D01*
%TO.C,SW5*%
X111900000Y-98900000D02*
X113900000Y-98900000D01*
X116100000Y-98900000D02*
X118100000Y-98900000D01*
X116100000Y-92700000D02*
X118110000Y-92700000D01*
X111900000Y-98900000D02*
X111900000Y-92700000D01*
X118100000Y-92700000D02*
X118100000Y-98900000D01*
X111900000Y-92700000D02*
X113900000Y-92700000D01*
%TO.C,SW4*%
X118900000Y-56900000D02*
X120900000Y-56900000D01*
X123100000Y-56900000D02*
X125100000Y-56900000D01*
X123100000Y-50700000D02*
X125110000Y-50700000D01*
X118900000Y-56900000D02*
X118900000Y-50700000D01*
X125100000Y-50700000D02*
X125100000Y-56900000D01*
X118900000Y-50700000D02*
X120900000Y-50700000D01*
%TO.C,SW3*%
X111900000Y-56900000D02*
X113900000Y-56900000D01*
X116100000Y-56900000D02*
X118100000Y-56900000D01*
X116100000Y-50700000D02*
X118110000Y-50700000D01*
X111900000Y-56900000D02*
X111900000Y-50700000D01*
X118100000Y-50700000D02*
X118100000Y-56900000D01*
X111900000Y-50700000D02*
X113900000Y-50700000D01*
%TO.C,SW2*%
X118900000Y-70900000D02*
X120900000Y-70900000D01*
X123100000Y-70900000D02*
X125100000Y-70900000D01*
X123100000Y-64700000D02*
X125110000Y-64700000D01*
X118900000Y-70900000D02*
X118900000Y-64700000D01*
X125100000Y-64700000D02*
X125100000Y-70900000D01*
X118900000Y-64700000D02*
X120900000Y-64700000D01*
%TO.C,SW1*%
X111900000Y-70900000D02*
X113900000Y-70900000D01*
X116100000Y-70900000D02*
X118100000Y-70900000D01*
X116100000Y-64700000D02*
X118110000Y-64700000D01*
X111900000Y-70900000D02*
X111900000Y-64700000D01*
X118100000Y-64700000D02*
X118100000Y-70900000D01*
X111900000Y-64700000D02*
X113900000Y-64700000D01*
%TO.C,J7*%
X113450000Y-161134000D02*
X126150000Y-161134000D01*
X113450000Y-161134000D02*
X113450000Y-125066000D01*
X113450000Y-125066000D02*
X126150000Y-125066000D01*
X126150000Y-125066000D02*
X126150000Y-161134000D01*
%TO.C,SW2*%
D10*
X121928571Y-68304761D02*
X121976190Y-68161904D01*
X122023809Y-68114285D01*
X122119047Y-68066666D01*
X122261904Y-68066666D01*
X122357142Y-68114285D01*
X122404761Y-68161904D01*
X122452380Y-68257142D01*
X122452380Y-68638095D01*
X121452380Y-68638095D01*
X121452380Y-68304761D01*
X121500000Y-68209523D01*
X121547619Y-68161904D01*
X121642857Y-68114285D01*
X121738095Y-68114285D01*
X121833333Y-68161904D01*
X121880952Y-68209523D01*
X121928571Y-68304761D01*
X121928571Y-68638095D01*
X121547619Y-67685714D02*
X121500000Y-67638095D01*
X121452380Y-67542857D01*
X121452380Y-67304761D01*
X121500000Y-67209523D01*
X121547619Y-67161904D01*
X121642857Y-67114285D01*
X121738095Y-67114285D01*
X121880952Y-67161904D01*
X122452380Y-67733333D01*
X122452380Y-67114285D01*
%TO.C,SW1*%
X114928571Y-68104761D02*
X114976190Y-67961904D01*
X115023809Y-67914285D01*
X115119047Y-67866666D01*
X115261904Y-67866666D01*
X115357142Y-67914285D01*
X115404761Y-67961904D01*
X115452380Y-68057142D01*
X115452380Y-68438095D01*
X114452380Y-68438095D01*
X114452380Y-68104761D01*
X114500000Y-68009523D01*
X114547619Y-67961904D01*
X114642857Y-67914285D01*
X114738095Y-67914285D01*
X114833333Y-67961904D01*
X114880952Y-68009523D01*
X114928571Y-68104761D01*
X114928571Y-68438095D01*
X115452380Y-66914285D02*
X115452380Y-67485714D01*
X115452380Y-67200000D02*
X114452380Y-67200000D01*
X114595238Y-67295238D01*
X114690476Y-67390476D01*
X114738095Y-67485714D01*
%TO.C,J7*%
X120204761Y-142940571D02*
X120252380Y-142797714D01*
X120252380Y-142559619D01*
X120204761Y-142464380D01*
X120157142Y-142416761D01*
X120061904Y-142369142D01*
X119966666Y-142369142D01*
X119871428Y-142416761D01*
X119823809Y-142464380D01*
X119776190Y-142559619D01*
X119728571Y-142750095D01*
X119680952Y-142845333D01*
X119633333Y-142892952D01*
X119538095Y-142940571D01*
X119442857Y-142940571D01*
X119347619Y-142892952D01*
X119300000Y-142845333D01*
X119252380Y-142750095D01*
X119252380Y-142512000D01*
X119300000Y-142369142D01*
X120204761Y-141988190D02*
X120252380Y-141845333D01*
X120252380Y-141607238D01*
X120204761Y-141512000D01*
X120157142Y-141464380D01*
X120061904Y-141416761D01*
X119966666Y-141416761D01*
X119871428Y-141464380D01*
X119823809Y-141512000D01*
X119776190Y-141607238D01*
X119728571Y-141797714D01*
X119680952Y-141892952D01*
X119633333Y-141940571D01*
X119538095Y-141988190D01*
X119442857Y-141988190D01*
X119347619Y-141940571D01*
X119300000Y-141892952D01*
X119252380Y-141797714D01*
X119252380Y-141559619D01*
X119300000Y-141416761D01*
X120252380Y-140988190D02*
X119252380Y-140988190D01*
X119252380Y-140750095D01*
X119300000Y-140607238D01*
X119395238Y-140512000D01*
X119490476Y-140464380D01*
X119680952Y-140416761D01*
X119823809Y-140416761D01*
X120014285Y-140464380D01*
X120109523Y-140512000D01*
X120204761Y-140607238D01*
X120252380Y-140750095D01*
X120252380Y-140988190D01*
X120252380Y-139464380D02*
X120252380Y-140035809D01*
X120252380Y-139750095D02*
X119252380Y-139750095D01*
X119395238Y-139845333D01*
X119490476Y-139940571D01*
X119538095Y-140035809D01*
X119252380Y-139131047D02*
X119252380Y-138512000D01*
X119633333Y-138845333D01*
X119633333Y-138702476D01*
X119680952Y-138607238D01*
X119728571Y-138559619D01*
X119823809Y-138512000D01*
X120061904Y-138512000D01*
X120157142Y-138559619D01*
X120204761Y-138607238D01*
X120252380Y-138702476D01*
X120252380Y-138988190D01*
X120204761Y-139083428D01*
X120157142Y-139131047D01*
X119252380Y-137892952D02*
X119252380Y-137797714D01*
X119300000Y-137702476D01*
X119347619Y-137654857D01*
X119442857Y-137607238D01*
X119633333Y-137559619D01*
X119871428Y-137559619D01*
X120061904Y-137607238D01*
X120157142Y-137654857D01*
X120204761Y-137702476D01*
X120252380Y-137797714D01*
X120252380Y-137892952D01*
X120204761Y-137988190D01*
X120157142Y-138035809D01*
X120061904Y-138083428D01*
X119871428Y-138131047D01*
X119633333Y-138131047D01*
X119442857Y-138083428D01*
X119347619Y-138035809D01*
X119300000Y-137988190D01*
X119252380Y-137892952D01*
X119252380Y-136702476D02*
X119252380Y-136892952D01*
X119300000Y-136988190D01*
X119347619Y-137035809D01*
X119490476Y-137131047D01*
X119680952Y-137178666D01*
X120061904Y-137178666D01*
X120157142Y-137131047D01*
X120204761Y-137083428D01*
X120252380Y-136988190D01*
X120252380Y-136797714D01*
X120204761Y-136702476D01*
X120157142Y-136654857D01*
X120061904Y-136607238D01*
X119823809Y-136607238D01*
X119728571Y-136654857D01*
X119680952Y-136702476D01*
X119633333Y-136797714D01*
X119633333Y-136988190D01*
X119680952Y-137083428D01*
X119728571Y-137131047D01*
X119823809Y-137178666D01*
X119252380Y-135226285D02*
X119252380Y-135035809D01*
X119300000Y-134940571D01*
X119395238Y-134845333D01*
X119585714Y-134797714D01*
X119919047Y-134797714D01*
X120109523Y-134845333D01*
X120204761Y-134940571D01*
X120252380Y-135035809D01*
X120252380Y-135226285D01*
X120204761Y-135321523D01*
X120109523Y-135416761D01*
X119919047Y-135464380D01*
X119585714Y-135464380D01*
X119395238Y-135416761D01*
X119300000Y-135321523D01*
X119252380Y-135226285D01*
X120252380Y-133892952D02*
X120252380Y-134369142D01*
X119252380Y-134369142D01*
X119728571Y-133559619D02*
X119728571Y-133226285D01*
X120252380Y-133083428D02*
X120252380Y-133559619D01*
X119252380Y-133559619D01*
X119252380Y-133083428D01*
X120252380Y-132654857D02*
X119252380Y-132654857D01*
X119252380Y-132416761D01*
X119300000Y-132273904D01*
X119395238Y-132178666D01*
X119490476Y-132131047D01*
X119680952Y-132083428D01*
X119823809Y-132083428D01*
X120014285Y-132131047D01*
X120109523Y-132178666D01*
X120204761Y-132273904D01*
X120252380Y-132416761D01*
X120252380Y-132654857D01*
%TD*%
%LPC*%
D12*
%TO.C,J9*%
X118500000Y-122420000D03*
X118500000Y-119880000D03*
X118500000Y-117340000D03*
D13*
X118500000Y-114800000D03*
%TD*%
D12*
%TO.C,J8*%
X123600000Y-122420000D03*
X123600000Y-119880000D03*
X123600000Y-117340000D03*
D13*
X123600000Y-114800000D03*
%TD*%
D14*
%TO.C,SW10*%
X124500000Y-79800000D03*
X119500000Y-79800000D03*
%TD*%
%TO.C,SW9*%
X122000000Y-90300000D03*
X122000000Y-85300000D03*
%TD*%
%TO.C,SW8*%
X124500000Y-95800000D03*
X119500000Y-95800000D03*
%TD*%
%TO.C,SW7*%
X115000000Y-82300000D03*
X115000000Y-77300000D03*
%TD*%
%TO.C,SW6*%
X112500000Y-87800000D03*
X117500000Y-87800000D03*
%TD*%
%TO.C,SW5*%
X115000000Y-98300000D03*
X115000000Y-93300000D03*
%TD*%
%TO.C,SW4*%
X122000000Y-56300000D03*
X122000000Y-51300000D03*
%TD*%
%TO.C,SW3*%
X115000000Y-56300000D03*
X115000000Y-51300000D03*
%TD*%
%TO.C,SW2*%
X122000000Y-70300000D03*
X122000000Y-65300000D03*
%TD*%
%TO.C,SW1*%
X115000000Y-70300000D03*
X115000000Y-65300000D03*
%TD*%
D12*
%TO.C,J7*%
X123610000Y-126336000D03*
X121070000Y-126336000D03*
X118530000Y-126336000D03*
D13*
X115990000Y-126336000D03*
%TD*%
D12*
%TO.C,J6*%
X111584000Y-134176000D03*
X111584000Y-131636000D03*
X111584000Y-129096000D03*
X111584000Y-126556000D03*
X111584000Y-124016000D03*
D13*
X111584000Y-121476000D03*
%TD*%
D15*
%TO.C,REF\u002A\u002A*%
X118500000Y-109300000D03*
%TD*%
M02*
