%TF.GenerationSoftware,KiCad,Pcbnew,5.99.0+really5.1.9+dfsg1-1*%
%TF.CreationDate,2021-05-15T21:19:59+10:00*%
%TF.ProjectId,minisynth32-front,6d696e69-7379-46e7-9468-33322d66726f,1.1*%
%TF.SameCoordinates,Original*%
%TF.FileFunction,Copper,L2,Bot*%
%TF.FilePolarity,Positive*%
%FSLAX46Y46*%
G04 Gerber Fmt 4.6, Leading zero omitted, Abs format (unit mm)*
G04 Created by KiCad (PCBNEW 5.99.0+really5.1.9+dfsg1-1) date 2021-05-15 21:19:59*
%MOMM*%
%LPD*%
G01*
G04 APERTURE LIST*
%TA.AperFunction,ComponentPad*%
%ADD10O,1.700000X1.700000*%
%TD*%
%TA.AperFunction,ComponentPad*%
%ADD11R,1.700000X1.700000*%
%TD*%
%TA.AperFunction,NonConductor*%
%ADD12C,0.254000*%
%TD*%
%TA.AperFunction,NonConductor*%
%ADD13C,0.100000*%
%TD*%
G04 APERTURE END LIST*
D10*
%TO.P,J7,4*%
%TO.N,Net-(J6-Pad6)*%
X125476000Y-117856000D03*
%TO.P,J7,3*%
%TO.N,Net-(J6-Pad5)*%
X122936000Y-117856000D03*
%TO.P,J7,2*%
%TO.N,Net-(J6-Pad4)*%
X120396000Y-117856000D03*
D11*
%TO.P,J7,1*%
%TO.N,Net-(J6-Pad3)*%
X117856000Y-117856000D03*
%TD*%
D10*
%TO.P,J6,6*%
%TO.N,Net-(J6-Pad6)*%
X113284000Y-125476000D03*
%TO.P,J6,5*%
%TO.N,Net-(J6-Pad5)*%
X113284000Y-122936000D03*
%TO.P,J6,4*%
%TO.N,Net-(J6-Pad4)*%
X113284000Y-120396000D03*
%TO.P,J6,3*%
%TO.N,Net-(J6-Pad3)*%
X113284000Y-117856000D03*
%TO.P,J6,2*%
%TO.N,Net-(J6-Pad2)*%
X113284000Y-115316000D03*
D11*
%TO.P,J6,1*%
%TO.N,Net-(J6-Pad1)*%
X113284000Y-112776000D03*
%TD*%
D12*
X126340000Y-116647312D02*
X126179411Y-116540010D01*
X125909158Y-116428068D01*
X125622260Y-116371000D01*
X125329740Y-116371000D01*
X125042842Y-116428068D01*
X124772589Y-116540010D01*
X124529368Y-116702525D01*
X124322525Y-116909368D01*
X124206000Y-117083760D01*
X124089475Y-116909368D01*
X123882632Y-116702525D01*
X123639411Y-116540010D01*
X123369158Y-116428068D01*
X123082260Y-116371000D01*
X122789740Y-116371000D01*
X122502842Y-116428068D01*
X122232589Y-116540010D01*
X121989368Y-116702525D01*
X121782525Y-116909368D01*
X121666000Y-117083760D01*
X121549475Y-116909368D01*
X121342632Y-116702525D01*
X121099411Y-116540010D01*
X120829158Y-116428068D01*
X120542260Y-116371000D01*
X120249740Y-116371000D01*
X119962842Y-116428068D01*
X119692589Y-116540010D01*
X119449368Y-116702525D01*
X119317513Y-116834380D01*
X119295502Y-116761820D01*
X119236537Y-116651506D01*
X119157185Y-116554815D01*
X119060494Y-116475463D01*
X118950180Y-116416498D01*
X118830482Y-116380188D01*
X118706000Y-116367928D01*
X117006000Y-116367928D01*
X116881518Y-116380188D01*
X116761820Y-116416498D01*
X116651506Y-116475463D01*
X116554815Y-116554815D01*
X116475463Y-116651506D01*
X116416498Y-116761820D01*
X116380188Y-116881518D01*
X116367928Y-117006000D01*
X116367928Y-118706000D01*
X116380188Y-118830482D01*
X116416498Y-118950180D01*
X116475463Y-119060494D01*
X116554815Y-119157185D01*
X116651506Y-119236537D01*
X116761820Y-119295502D01*
X116881518Y-119331812D01*
X117006000Y-119344072D01*
X118706000Y-119344072D01*
X118830482Y-119331812D01*
X118950180Y-119295502D01*
X119060494Y-119236537D01*
X119157185Y-119157185D01*
X119236537Y-119060494D01*
X119295502Y-118950180D01*
X119317513Y-118877620D01*
X119449368Y-119009475D01*
X119692589Y-119171990D01*
X119962842Y-119283932D01*
X120249740Y-119341000D01*
X120542260Y-119341000D01*
X120829158Y-119283932D01*
X121099411Y-119171990D01*
X121342632Y-119009475D01*
X121549475Y-118802632D01*
X121666000Y-118628240D01*
X121782525Y-118802632D01*
X121989368Y-119009475D01*
X122232589Y-119171990D01*
X122502842Y-119283932D01*
X122789740Y-119341000D01*
X123082260Y-119341000D01*
X123369158Y-119283932D01*
X123639411Y-119171990D01*
X123882632Y-119009475D01*
X124089475Y-118802632D01*
X124206000Y-118628240D01*
X124322525Y-118802632D01*
X124529368Y-119009475D01*
X124772589Y-119171990D01*
X125042842Y-119283932D01*
X125329740Y-119341000D01*
X125622260Y-119341000D01*
X125909158Y-119283932D01*
X126179411Y-119171990D01*
X126340000Y-119064688D01*
X126340000Y-139294000D01*
X112420000Y-139294000D01*
X112420000Y-126684688D01*
X112580589Y-126791990D01*
X112850842Y-126903932D01*
X113137740Y-126961000D01*
X113430260Y-126961000D01*
X113717158Y-126903932D01*
X113987411Y-126791990D01*
X114230632Y-126629475D01*
X114437475Y-126422632D01*
X114599990Y-126179411D01*
X114711932Y-125909158D01*
X114769000Y-125622260D01*
X114769000Y-125329740D01*
X114711932Y-125042842D01*
X114599990Y-124772589D01*
X114437475Y-124529368D01*
X114230632Y-124322525D01*
X114056240Y-124206000D01*
X114230632Y-124089475D01*
X114437475Y-123882632D01*
X114599990Y-123639411D01*
X114711932Y-123369158D01*
X114769000Y-123082260D01*
X114769000Y-122789740D01*
X114711932Y-122502842D01*
X114599990Y-122232589D01*
X114437475Y-121989368D01*
X114230632Y-121782525D01*
X114056240Y-121666000D01*
X114230632Y-121549475D01*
X114437475Y-121342632D01*
X114599990Y-121099411D01*
X114711932Y-120829158D01*
X114769000Y-120542260D01*
X114769000Y-120249740D01*
X114711932Y-119962842D01*
X114599990Y-119692589D01*
X114437475Y-119449368D01*
X114230632Y-119242525D01*
X114056240Y-119126000D01*
X114230632Y-119009475D01*
X114437475Y-118802632D01*
X114599990Y-118559411D01*
X114711932Y-118289158D01*
X114769000Y-118002260D01*
X114769000Y-117709740D01*
X114711932Y-117422842D01*
X114599990Y-117152589D01*
X114437475Y-116909368D01*
X114230632Y-116702525D01*
X114056240Y-116586000D01*
X114230632Y-116469475D01*
X114437475Y-116262632D01*
X114599990Y-116019411D01*
X114711932Y-115749158D01*
X114769000Y-115462260D01*
X114769000Y-115169740D01*
X114711932Y-114882842D01*
X114599990Y-114612589D01*
X114437475Y-114369368D01*
X114305620Y-114237513D01*
X114378180Y-114215502D01*
X114488494Y-114156537D01*
X114585185Y-114077185D01*
X114664537Y-113980494D01*
X114723502Y-113870180D01*
X114759812Y-113750482D01*
X114772072Y-113626000D01*
X114772072Y-111926000D01*
X114759812Y-111801518D01*
X114723502Y-111681820D01*
X114664537Y-111571506D01*
X114585185Y-111474815D01*
X114488494Y-111395463D01*
X114378180Y-111336498D01*
X114258482Y-111300188D01*
X114134000Y-111287928D01*
X112434000Y-111287928D01*
X112420000Y-111289307D01*
X112420000Y-94521872D01*
X118161000Y-94521872D01*
X118161000Y-94962128D01*
X118246890Y-95393925D01*
X118415369Y-95800669D01*
X118659962Y-96166729D01*
X118971271Y-96478038D01*
X119337331Y-96722631D01*
X119744075Y-96891110D01*
X120175872Y-96977000D01*
X120616128Y-96977000D01*
X121047925Y-96891110D01*
X121454669Y-96722631D01*
X121820729Y-96478038D01*
X122132038Y-96166729D01*
X122376631Y-95800669D01*
X122545110Y-95393925D01*
X122631000Y-94962128D01*
X122631000Y-94521872D01*
X122545110Y-94090075D01*
X122376631Y-93683331D01*
X122132038Y-93317271D01*
X121820729Y-93005962D01*
X121454669Y-92761369D01*
X121047925Y-92592890D01*
X120616128Y-92507000D01*
X120175872Y-92507000D01*
X119744075Y-92592890D01*
X119337331Y-92761369D01*
X118971271Y-93005962D01*
X118659962Y-93317271D01*
X118415369Y-93683331D01*
X118246890Y-94090075D01*
X118161000Y-94521872D01*
X112420000Y-94521872D01*
X112420000Y-50698000D01*
X126340001Y-50698000D01*
X126340000Y-116647312D01*
%TA.AperFunction,NonConductor*%
D13*
G36*
X126340000Y-116647312D02*
G01*
X126179411Y-116540010D01*
X125909158Y-116428068D01*
X125622260Y-116371000D01*
X125329740Y-116371000D01*
X125042842Y-116428068D01*
X124772589Y-116540010D01*
X124529368Y-116702525D01*
X124322525Y-116909368D01*
X124206000Y-117083760D01*
X124089475Y-116909368D01*
X123882632Y-116702525D01*
X123639411Y-116540010D01*
X123369158Y-116428068D01*
X123082260Y-116371000D01*
X122789740Y-116371000D01*
X122502842Y-116428068D01*
X122232589Y-116540010D01*
X121989368Y-116702525D01*
X121782525Y-116909368D01*
X121666000Y-117083760D01*
X121549475Y-116909368D01*
X121342632Y-116702525D01*
X121099411Y-116540010D01*
X120829158Y-116428068D01*
X120542260Y-116371000D01*
X120249740Y-116371000D01*
X119962842Y-116428068D01*
X119692589Y-116540010D01*
X119449368Y-116702525D01*
X119317513Y-116834380D01*
X119295502Y-116761820D01*
X119236537Y-116651506D01*
X119157185Y-116554815D01*
X119060494Y-116475463D01*
X118950180Y-116416498D01*
X118830482Y-116380188D01*
X118706000Y-116367928D01*
X117006000Y-116367928D01*
X116881518Y-116380188D01*
X116761820Y-116416498D01*
X116651506Y-116475463D01*
X116554815Y-116554815D01*
X116475463Y-116651506D01*
X116416498Y-116761820D01*
X116380188Y-116881518D01*
X116367928Y-117006000D01*
X116367928Y-118706000D01*
X116380188Y-118830482D01*
X116416498Y-118950180D01*
X116475463Y-119060494D01*
X116554815Y-119157185D01*
X116651506Y-119236537D01*
X116761820Y-119295502D01*
X116881518Y-119331812D01*
X117006000Y-119344072D01*
X118706000Y-119344072D01*
X118830482Y-119331812D01*
X118950180Y-119295502D01*
X119060494Y-119236537D01*
X119157185Y-119157185D01*
X119236537Y-119060494D01*
X119295502Y-118950180D01*
X119317513Y-118877620D01*
X119449368Y-119009475D01*
X119692589Y-119171990D01*
X119962842Y-119283932D01*
X120249740Y-119341000D01*
X120542260Y-119341000D01*
X120829158Y-119283932D01*
X121099411Y-119171990D01*
X121342632Y-119009475D01*
X121549475Y-118802632D01*
X121666000Y-118628240D01*
X121782525Y-118802632D01*
X121989368Y-119009475D01*
X122232589Y-119171990D01*
X122502842Y-119283932D01*
X122789740Y-119341000D01*
X123082260Y-119341000D01*
X123369158Y-119283932D01*
X123639411Y-119171990D01*
X123882632Y-119009475D01*
X124089475Y-118802632D01*
X124206000Y-118628240D01*
X124322525Y-118802632D01*
X124529368Y-119009475D01*
X124772589Y-119171990D01*
X125042842Y-119283932D01*
X125329740Y-119341000D01*
X125622260Y-119341000D01*
X125909158Y-119283932D01*
X126179411Y-119171990D01*
X126340000Y-119064688D01*
X126340000Y-139294000D01*
X112420000Y-139294000D01*
X112420000Y-126684688D01*
X112580589Y-126791990D01*
X112850842Y-126903932D01*
X113137740Y-126961000D01*
X113430260Y-126961000D01*
X113717158Y-126903932D01*
X113987411Y-126791990D01*
X114230632Y-126629475D01*
X114437475Y-126422632D01*
X114599990Y-126179411D01*
X114711932Y-125909158D01*
X114769000Y-125622260D01*
X114769000Y-125329740D01*
X114711932Y-125042842D01*
X114599990Y-124772589D01*
X114437475Y-124529368D01*
X114230632Y-124322525D01*
X114056240Y-124206000D01*
X114230632Y-124089475D01*
X114437475Y-123882632D01*
X114599990Y-123639411D01*
X114711932Y-123369158D01*
X114769000Y-123082260D01*
X114769000Y-122789740D01*
X114711932Y-122502842D01*
X114599990Y-122232589D01*
X114437475Y-121989368D01*
X114230632Y-121782525D01*
X114056240Y-121666000D01*
X114230632Y-121549475D01*
X114437475Y-121342632D01*
X114599990Y-121099411D01*
X114711932Y-120829158D01*
X114769000Y-120542260D01*
X114769000Y-120249740D01*
X114711932Y-119962842D01*
X114599990Y-119692589D01*
X114437475Y-119449368D01*
X114230632Y-119242525D01*
X114056240Y-119126000D01*
X114230632Y-119009475D01*
X114437475Y-118802632D01*
X114599990Y-118559411D01*
X114711932Y-118289158D01*
X114769000Y-118002260D01*
X114769000Y-117709740D01*
X114711932Y-117422842D01*
X114599990Y-117152589D01*
X114437475Y-116909368D01*
X114230632Y-116702525D01*
X114056240Y-116586000D01*
X114230632Y-116469475D01*
X114437475Y-116262632D01*
X114599990Y-116019411D01*
X114711932Y-115749158D01*
X114769000Y-115462260D01*
X114769000Y-115169740D01*
X114711932Y-114882842D01*
X114599990Y-114612589D01*
X114437475Y-114369368D01*
X114305620Y-114237513D01*
X114378180Y-114215502D01*
X114488494Y-114156537D01*
X114585185Y-114077185D01*
X114664537Y-113980494D01*
X114723502Y-113870180D01*
X114759812Y-113750482D01*
X114772072Y-113626000D01*
X114772072Y-111926000D01*
X114759812Y-111801518D01*
X114723502Y-111681820D01*
X114664537Y-111571506D01*
X114585185Y-111474815D01*
X114488494Y-111395463D01*
X114378180Y-111336498D01*
X114258482Y-111300188D01*
X114134000Y-111287928D01*
X112434000Y-111287928D01*
X112420000Y-111289307D01*
X112420000Y-94521872D01*
X118161000Y-94521872D01*
X118161000Y-94962128D01*
X118246890Y-95393925D01*
X118415369Y-95800669D01*
X118659962Y-96166729D01*
X118971271Y-96478038D01*
X119337331Y-96722631D01*
X119744075Y-96891110D01*
X120175872Y-96977000D01*
X120616128Y-96977000D01*
X121047925Y-96891110D01*
X121454669Y-96722631D01*
X121820729Y-96478038D01*
X122132038Y-96166729D01*
X122376631Y-95800669D01*
X122545110Y-95393925D01*
X122631000Y-94962128D01*
X122631000Y-94521872D01*
X122545110Y-94090075D01*
X122376631Y-93683331D01*
X122132038Y-93317271D01*
X121820729Y-93005962D01*
X121454669Y-92761369D01*
X121047925Y-92592890D01*
X120616128Y-92507000D01*
X120175872Y-92507000D01*
X119744075Y-92592890D01*
X119337331Y-92761369D01*
X118971271Y-93005962D01*
X118659962Y-93317271D01*
X118415369Y-93683331D01*
X118246890Y-94090075D01*
X118161000Y-94521872D01*
X112420000Y-94521872D01*
X112420000Y-50698000D01*
X126340001Y-50698000D01*
X126340000Y-116647312D01*
G37*
%TD.AperFunction*%
D12*
X112511760Y-124206000D02*
X112420000Y-124267312D01*
X112420000Y-124144688D01*
X112511760Y-124206000D01*
%TA.AperFunction,NonConductor*%
D13*
G36*
X112511760Y-124206000D02*
G01*
X112420000Y-124267312D01*
X112420000Y-124144688D01*
X112511760Y-124206000D01*
G37*
%TD.AperFunction*%
D12*
X112511760Y-121666000D02*
X112420000Y-121727312D01*
X112420000Y-121604688D01*
X112511760Y-121666000D01*
%TA.AperFunction,NonConductor*%
D13*
G36*
X112511760Y-121666000D02*
G01*
X112420000Y-121727312D01*
X112420000Y-121604688D01*
X112511760Y-121666000D01*
G37*
%TD.AperFunction*%
D12*
X112511760Y-119126000D02*
X112420000Y-119187312D01*
X112420000Y-119064688D01*
X112511760Y-119126000D01*
%TA.AperFunction,NonConductor*%
D13*
G36*
X112511760Y-119126000D02*
G01*
X112420000Y-119187312D01*
X112420000Y-119064688D01*
X112511760Y-119126000D01*
G37*
%TD.AperFunction*%
D12*
X112511760Y-116586000D02*
X112420000Y-116647312D01*
X112420000Y-116524688D01*
X112511760Y-116586000D01*
%TA.AperFunction,NonConductor*%
D13*
G36*
X112511760Y-116586000D02*
G01*
X112420000Y-116647312D01*
X112420000Y-116524688D01*
X112511760Y-116586000D01*
G37*
%TD.AperFunction*%
M02*
