%TF.GenerationSoftware,KiCad,Pcbnew,5.99.0+really5.1.9+dfsg1-1*%
%TF.CreationDate,2021-05-15T21:19:59+10:00*%
%TF.ProjectId,minisynth32-front,6d696e69-7379-46e7-9468-33322d66726f,1.1*%
%TF.SameCoordinates,Original*%
%TF.FileFunction,Legend,Bot*%
%TF.FilePolarity,Positive*%
%FSLAX46Y46*%
G04 Gerber Fmt 4.6, Leading zero omitted, Abs format (unit mm)*
G04 Created by KiCad (PCBNEW 5.99.0+really5.1.9+dfsg1-1) date 2021-05-15 21:19:59*
%MOMM*%
%LPD*%
G01*
G04 APERTURE LIST*
%ADD10C,0.150000*%
%ADD11C,0.120000*%
G04 APERTURE END LIST*
D10*
X121992380Y-56977595D02*
X120992380Y-56977595D01*
X121706666Y-57310928D01*
X120992380Y-57644261D01*
X121992380Y-57644261D01*
X121992380Y-58120452D02*
X121325714Y-58120452D01*
X120992380Y-58120452D02*
X121040000Y-58072833D01*
X121087619Y-58120452D01*
X121040000Y-58168071D01*
X120992380Y-58120452D01*
X121087619Y-58120452D01*
X121325714Y-58596642D02*
X121992380Y-58596642D01*
X121420952Y-58596642D02*
X121373333Y-58644261D01*
X121325714Y-58739500D01*
X121325714Y-58882357D01*
X121373333Y-58977595D01*
X121468571Y-59025214D01*
X121992380Y-59025214D01*
X121992380Y-59501404D02*
X121325714Y-59501404D01*
X120992380Y-59501404D02*
X121040000Y-59453785D01*
X121087619Y-59501404D01*
X121040000Y-59549023D01*
X120992380Y-59501404D01*
X121087619Y-59501404D01*
X121944761Y-59929976D02*
X121992380Y-60025214D01*
X121992380Y-60215690D01*
X121944761Y-60310928D01*
X121849523Y-60358547D01*
X121801904Y-60358547D01*
X121706666Y-60310928D01*
X121659047Y-60215690D01*
X121659047Y-60072833D01*
X121611428Y-59977595D01*
X121516190Y-59929976D01*
X121468571Y-59929976D01*
X121373333Y-59977595D01*
X121325714Y-60072833D01*
X121325714Y-60215690D01*
X121373333Y-60310928D01*
X121325714Y-60691880D02*
X121992380Y-60929976D01*
X121325714Y-61168071D02*
X121992380Y-60929976D01*
X122230476Y-60834738D01*
X122278095Y-60787119D01*
X122325714Y-60691880D01*
X121325714Y-61549023D02*
X121992380Y-61549023D01*
X121420952Y-61549023D02*
X121373333Y-61596642D01*
X121325714Y-61691880D01*
X121325714Y-61834738D01*
X121373333Y-61929976D01*
X121468571Y-61977595D01*
X121992380Y-61977595D01*
X121325714Y-62310928D02*
X121325714Y-62691880D01*
X120992380Y-62453785D02*
X121849523Y-62453785D01*
X121944761Y-62501404D01*
X121992380Y-62596642D01*
X121992380Y-62691880D01*
X121992380Y-63025214D02*
X120992380Y-63025214D01*
X121992380Y-63453785D02*
X121468571Y-63453785D01*
X121373333Y-63406166D01*
X121325714Y-63310928D01*
X121325714Y-63168071D01*
X121373333Y-63072833D01*
X121420952Y-63025214D01*
X120992380Y-64596642D02*
X120992380Y-65215690D01*
X121373333Y-64882357D01*
X121373333Y-65025214D01*
X121420952Y-65120452D01*
X121468571Y-65168071D01*
X121563809Y-65215690D01*
X121801904Y-65215690D01*
X121897142Y-65168071D01*
X121944761Y-65120452D01*
X121992380Y-65025214D01*
X121992380Y-64739500D01*
X121944761Y-64644261D01*
X121897142Y-64596642D01*
X121087619Y-65596642D02*
X121040000Y-65644261D01*
X120992380Y-65739500D01*
X120992380Y-65977595D01*
X121040000Y-66072833D01*
X121087619Y-66120452D01*
X121182857Y-66168071D01*
X121278095Y-66168071D01*
X121420952Y-66120452D01*
X121992380Y-65549023D01*
X121992380Y-66168071D01*
X121897142Y-66596642D02*
X121944761Y-66644261D01*
X121992380Y-66596642D01*
X121944761Y-66549023D01*
X121897142Y-66596642D01*
X121992380Y-66596642D01*
X121373333Y-66596642D02*
X121420952Y-66644261D01*
X121468571Y-66596642D01*
X121420952Y-66549023D01*
X121373333Y-66596642D01*
X121468571Y-66596642D01*
X121468571Y-68168071D02*
X121468571Y-67834738D01*
X121992380Y-67834738D02*
X120992380Y-67834738D01*
X120992380Y-68310928D01*
X121992380Y-68691880D02*
X121325714Y-68691880D01*
X121516190Y-68691880D02*
X121420952Y-68739500D01*
X121373333Y-68787119D01*
X121325714Y-68882357D01*
X121325714Y-68977595D01*
X121992380Y-69453785D02*
X121944761Y-69358547D01*
X121897142Y-69310928D01*
X121801904Y-69263309D01*
X121516190Y-69263309D01*
X121420952Y-69310928D01*
X121373333Y-69358547D01*
X121325714Y-69453785D01*
X121325714Y-69596642D01*
X121373333Y-69691880D01*
X121420952Y-69739500D01*
X121516190Y-69787119D01*
X121801904Y-69787119D01*
X121897142Y-69739500D01*
X121944761Y-69691880D01*
X121992380Y-69596642D01*
X121992380Y-69453785D01*
X121325714Y-70215690D02*
X121992380Y-70215690D01*
X121420952Y-70215690D02*
X121373333Y-70263309D01*
X121325714Y-70358547D01*
X121325714Y-70501404D01*
X121373333Y-70596642D01*
X121468571Y-70644261D01*
X121992380Y-70644261D01*
X121325714Y-70977595D02*
X121325714Y-71358547D01*
X120992380Y-71120452D02*
X121849523Y-71120452D01*
X121944761Y-71168071D01*
X121992380Y-71263309D01*
X121992380Y-71358547D01*
X121325714Y-72453785D02*
X122325714Y-72453785D01*
X121373333Y-72453785D02*
X121325714Y-72549023D01*
X121325714Y-72739500D01*
X121373333Y-72834738D01*
X121420952Y-72882357D01*
X121516190Y-72929976D01*
X121801904Y-72929976D01*
X121897142Y-72882357D01*
X121944761Y-72834738D01*
X121992380Y-72739500D01*
X121992380Y-72549023D01*
X121944761Y-72453785D01*
X121992380Y-73787119D02*
X121468571Y-73787119D01*
X121373333Y-73739500D01*
X121325714Y-73644261D01*
X121325714Y-73453785D01*
X121373333Y-73358547D01*
X121944761Y-73787119D02*
X121992380Y-73691880D01*
X121992380Y-73453785D01*
X121944761Y-73358547D01*
X121849523Y-73310928D01*
X121754285Y-73310928D01*
X121659047Y-73358547D01*
X121611428Y-73453785D01*
X121611428Y-73691880D01*
X121563809Y-73787119D01*
X121325714Y-74263309D02*
X121992380Y-74263309D01*
X121420952Y-74263309D02*
X121373333Y-74310928D01*
X121325714Y-74406166D01*
X121325714Y-74549023D01*
X121373333Y-74644261D01*
X121468571Y-74691880D01*
X121992380Y-74691880D01*
X121944761Y-75549023D02*
X121992380Y-75453785D01*
X121992380Y-75263309D01*
X121944761Y-75168071D01*
X121849523Y-75120452D01*
X121468571Y-75120452D01*
X121373333Y-75168071D01*
X121325714Y-75263309D01*
X121325714Y-75453785D01*
X121373333Y-75549023D01*
X121468571Y-75596642D01*
X121563809Y-75596642D01*
X121659047Y-75120452D01*
X121992380Y-76168071D02*
X121944761Y-76072833D01*
X121849523Y-76025214D01*
X120992380Y-76025214D01*
X121992380Y-77310928D02*
X120992380Y-77310928D01*
X121373333Y-77310928D02*
X121325714Y-77406166D01*
X121325714Y-77596642D01*
X121373333Y-77691880D01*
X121420952Y-77739500D01*
X121516190Y-77787119D01*
X121801904Y-77787119D01*
X121897142Y-77739500D01*
X121944761Y-77691880D01*
X121992380Y-77596642D01*
X121992380Y-77406166D01*
X121944761Y-77310928D01*
X121992380Y-78358547D02*
X121944761Y-78263309D01*
X121897142Y-78215690D01*
X121801904Y-78168071D01*
X121516190Y-78168071D01*
X121420952Y-78215690D01*
X121373333Y-78263309D01*
X121325714Y-78358547D01*
X121325714Y-78501404D01*
X121373333Y-78596642D01*
X121420952Y-78644261D01*
X121516190Y-78691880D01*
X121801904Y-78691880D01*
X121897142Y-78644261D01*
X121944761Y-78596642D01*
X121992380Y-78501404D01*
X121992380Y-78358547D01*
X121992380Y-79549023D02*
X121468571Y-79549023D01*
X121373333Y-79501404D01*
X121325714Y-79406166D01*
X121325714Y-79215690D01*
X121373333Y-79120452D01*
X121944761Y-79549023D02*
X121992380Y-79453785D01*
X121992380Y-79215690D01*
X121944761Y-79120452D01*
X121849523Y-79072833D01*
X121754285Y-79072833D01*
X121659047Y-79120452D01*
X121611428Y-79215690D01*
X121611428Y-79453785D01*
X121563809Y-79549023D01*
X121992380Y-80025214D02*
X121325714Y-80025214D01*
X121516190Y-80025214D02*
X121420952Y-80072833D01*
X121373333Y-80120452D01*
X121325714Y-80215690D01*
X121325714Y-80310928D01*
X121992380Y-81072833D02*
X120992380Y-81072833D01*
X121944761Y-81072833D02*
X121992380Y-80977595D01*
X121992380Y-80787119D01*
X121944761Y-80691880D01*
X121897142Y-80644261D01*
X121801904Y-80596642D01*
X121516190Y-80596642D01*
X121420952Y-80644261D01*
X121373333Y-80691880D01*
X121325714Y-80787119D01*
X121325714Y-80977595D01*
X121373333Y-81072833D01*
X123642380Y-56977595D02*
X122642380Y-56977595D01*
X123642380Y-57406166D02*
X123118571Y-57406166D01*
X123023333Y-57358547D01*
X122975714Y-57263309D01*
X122975714Y-57120452D01*
X123023333Y-57025214D01*
X123070952Y-56977595D01*
X122975714Y-57739500D02*
X122975714Y-58120452D01*
X122642380Y-57882357D02*
X123499523Y-57882357D01*
X123594761Y-57929976D01*
X123642380Y-58025214D01*
X123642380Y-58120452D01*
X122975714Y-58310928D02*
X122975714Y-58691880D01*
X122642380Y-58453785D02*
X123499523Y-58453785D01*
X123594761Y-58501404D01*
X123642380Y-58596642D01*
X123642380Y-58691880D01*
X122975714Y-59025214D02*
X123975714Y-59025214D01*
X123023333Y-59025214D02*
X122975714Y-59120452D01*
X122975714Y-59310928D01*
X123023333Y-59406166D01*
X123070952Y-59453785D01*
X123166190Y-59501404D01*
X123451904Y-59501404D01*
X123547142Y-59453785D01*
X123594761Y-59406166D01*
X123642380Y-59310928D01*
X123642380Y-59120452D01*
X123594761Y-59025214D01*
X123594761Y-59882357D02*
X123642380Y-59977595D01*
X123642380Y-60168071D01*
X123594761Y-60263309D01*
X123499523Y-60310928D01*
X123451904Y-60310928D01*
X123356666Y-60263309D01*
X123309047Y-60168071D01*
X123309047Y-60025214D01*
X123261428Y-59929976D01*
X123166190Y-59882357D01*
X123118571Y-59882357D01*
X123023333Y-59929976D01*
X122975714Y-60025214D01*
X122975714Y-60168071D01*
X123023333Y-60263309D01*
X123547142Y-60739500D02*
X123594761Y-60787119D01*
X123642380Y-60739500D01*
X123594761Y-60691880D01*
X123547142Y-60739500D01*
X123642380Y-60739500D01*
X123023333Y-60739500D02*
X123070952Y-60787119D01*
X123118571Y-60739500D01*
X123070952Y-60691880D01*
X123023333Y-60739500D01*
X123118571Y-60739500D01*
X122594761Y-61929976D02*
X123880476Y-61072833D01*
X122594761Y-62977595D02*
X123880476Y-62120452D01*
X122975714Y-63739500D02*
X123785238Y-63739500D01*
X123880476Y-63691880D01*
X123928095Y-63644261D01*
X123975714Y-63549023D01*
X123975714Y-63406166D01*
X123928095Y-63310928D01*
X123594761Y-63739500D02*
X123642380Y-63644261D01*
X123642380Y-63453785D01*
X123594761Y-63358547D01*
X123547142Y-63310928D01*
X123451904Y-63263309D01*
X123166190Y-63263309D01*
X123070952Y-63310928D01*
X123023333Y-63358547D01*
X122975714Y-63453785D01*
X122975714Y-63644261D01*
X123023333Y-63739500D01*
X123642380Y-64215690D02*
X122975714Y-64215690D01*
X122642380Y-64215690D02*
X122690000Y-64168071D01*
X122737619Y-64215690D01*
X122690000Y-64263309D01*
X122642380Y-64215690D01*
X122737619Y-64215690D01*
X122975714Y-64549023D02*
X122975714Y-64929976D01*
X122642380Y-64691880D02*
X123499523Y-64691880D01*
X123594761Y-64739500D01*
X123642380Y-64834738D01*
X123642380Y-64929976D01*
X123642380Y-65263309D02*
X122642380Y-65263309D01*
X123642380Y-65691880D02*
X123118571Y-65691880D01*
X123023333Y-65644261D01*
X122975714Y-65549023D01*
X122975714Y-65406166D01*
X123023333Y-65310928D01*
X123070952Y-65263309D01*
X122975714Y-66596642D02*
X123642380Y-66596642D01*
X122975714Y-66168071D02*
X123499523Y-66168071D01*
X123594761Y-66215690D01*
X123642380Y-66310928D01*
X123642380Y-66453785D01*
X123594761Y-66549023D01*
X123547142Y-66596642D01*
X123642380Y-67072833D02*
X122642380Y-67072833D01*
X123023333Y-67072833D02*
X122975714Y-67168071D01*
X122975714Y-67358547D01*
X123023333Y-67453785D01*
X123070952Y-67501404D01*
X123166190Y-67549023D01*
X123451904Y-67549023D01*
X123547142Y-67501404D01*
X123594761Y-67453785D01*
X123642380Y-67358547D01*
X123642380Y-67168071D01*
X123594761Y-67072833D01*
X123547142Y-67977595D02*
X123594761Y-68025214D01*
X123642380Y-67977595D01*
X123594761Y-67929976D01*
X123547142Y-67977595D01*
X123642380Y-67977595D01*
X123594761Y-68882357D02*
X123642380Y-68787119D01*
X123642380Y-68596642D01*
X123594761Y-68501404D01*
X123547142Y-68453785D01*
X123451904Y-68406166D01*
X123166190Y-68406166D01*
X123070952Y-68453785D01*
X123023333Y-68501404D01*
X122975714Y-68596642D01*
X122975714Y-68787119D01*
X123023333Y-68882357D01*
X123642380Y-69453785D02*
X123594761Y-69358547D01*
X123547142Y-69310928D01*
X123451904Y-69263309D01*
X123166190Y-69263309D01*
X123070952Y-69310928D01*
X123023333Y-69358547D01*
X122975714Y-69453785D01*
X122975714Y-69596642D01*
X123023333Y-69691880D01*
X123070952Y-69739500D01*
X123166190Y-69787119D01*
X123451904Y-69787119D01*
X123547142Y-69739500D01*
X123594761Y-69691880D01*
X123642380Y-69596642D01*
X123642380Y-69453785D01*
X123642380Y-70215690D02*
X122975714Y-70215690D01*
X123070952Y-70215690D02*
X123023333Y-70263309D01*
X122975714Y-70358547D01*
X122975714Y-70501404D01*
X123023333Y-70596642D01*
X123118571Y-70644261D01*
X123642380Y-70644261D01*
X123118571Y-70644261D02*
X123023333Y-70691880D01*
X122975714Y-70787119D01*
X122975714Y-70929976D01*
X123023333Y-71025214D01*
X123118571Y-71072833D01*
X123642380Y-71072833D01*
X122594761Y-72263309D02*
X123880476Y-71406166D01*
X122975714Y-73025214D02*
X123785238Y-73025214D01*
X123880476Y-72977595D01*
X123928095Y-72929976D01*
X123975714Y-72834738D01*
X123975714Y-72691880D01*
X123928095Y-72596642D01*
X123594761Y-73025214D02*
X123642380Y-72929976D01*
X123642380Y-72739500D01*
X123594761Y-72644261D01*
X123547142Y-72596642D01*
X123451904Y-72549023D01*
X123166190Y-72549023D01*
X123070952Y-72596642D01*
X123023333Y-72644261D01*
X122975714Y-72739500D01*
X122975714Y-72929976D01*
X123023333Y-73025214D01*
X123642380Y-73501404D02*
X122975714Y-73501404D01*
X123166190Y-73501404D02*
X123070952Y-73549023D01*
X123023333Y-73596642D01*
X122975714Y-73691880D01*
X122975714Y-73787119D01*
X123642380Y-74549023D02*
X123118571Y-74549023D01*
X123023333Y-74501404D01*
X122975714Y-74406166D01*
X122975714Y-74215690D01*
X123023333Y-74120452D01*
X123594761Y-74549023D02*
X123642380Y-74453785D01*
X123642380Y-74215690D01*
X123594761Y-74120452D01*
X123499523Y-74072833D01*
X123404285Y-74072833D01*
X123309047Y-74120452D01*
X123261428Y-74215690D01*
X123261428Y-74453785D01*
X123213809Y-74549023D01*
X122975714Y-75025214D02*
X123642380Y-75025214D01*
X123070952Y-75025214D02*
X123023333Y-75072833D01*
X122975714Y-75168071D01*
X122975714Y-75310928D01*
X123023333Y-75406166D01*
X123118571Y-75453785D01*
X123642380Y-75453785D01*
X122975714Y-75787119D02*
X122975714Y-76168071D01*
X122642380Y-75929976D02*
X123499523Y-75929976D01*
X123594761Y-75977595D01*
X123642380Y-76072833D01*
X123642380Y-76168071D01*
X123594761Y-76882357D02*
X123642380Y-76787119D01*
X123642380Y-76596642D01*
X123594761Y-76501404D01*
X123499523Y-76453785D01*
X123118571Y-76453785D01*
X123023333Y-76501404D01*
X122975714Y-76596642D01*
X122975714Y-76787119D01*
X123023333Y-76882357D01*
X123118571Y-76929976D01*
X123213809Y-76929976D01*
X123309047Y-76453785D01*
X123642380Y-77358547D02*
X122642380Y-77358547D01*
X123261428Y-77453785D02*
X123642380Y-77739500D01*
X122975714Y-77739500D02*
X123356666Y-77358547D01*
X122594761Y-78882357D02*
X123880476Y-78025214D01*
X123642380Y-79215690D02*
X122975714Y-79215690D01*
X123070952Y-79215690D02*
X123023333Y-79263309D01*
X122975714Y-79358547D01*
X122975714Y-79501404D01*
X123023333Y-79596642D01*
X123118571Y-79644261D01*
X123642380Y-79644261D01*
X123118571Y-79644261D02*
X123023333Y-79691880D01*
X122975714Y-79787119D01*
X122975714Y-79929976D01*
X123023333Y-80025214D01*
X123118571Y-80072833D01*
X123642380Y-80072833D01*
X123642380Y-80549023D02*
X122975714Y-80549023D01*
X122642380Y-80549023D02*
X122690000Y-80501404D01*
X122737619Y-80549023D01*
X122690000Y-80596642D01*
X122642380Y-80549023D01*
X122737619Y-80549023D01*
X122975714Y-81025214D02*
X123642380Y-81025214D01*
X123070952Y-81025214D02*
X123023333Y-81072833D01*
X122975714Y-81168071D01*
X122975714Y-81310928D01*
X123023333Y-81406166D01*
X123118571Y-81453785D01*
X123642380Y-81453785D01*
X123642380Y-81929976D02*
X122975714Y-81929976D01*
X122642380Y-81929976D02*
X122690000Y-81882357D01*
X122737619Y-81929976D01*
X122690000Y-81977595D01*
X122642380Y-81929976D01*
X122737619Y-81929976D01*
X123594761Y-82358547D02*
X123642380Y-82453785D01*
X123642380Y-82644261D01*
X123594761Y-82739500D01*
X123499523Y-82787119D01*
X123451904Y-82787119D01*
X123356666Y-82739500D01*
X123309047Y-82644261D01*
X123309047Y-82501404D01*
X123261428Y-82406166D01*
X123166190Y-82358547D01*
X123118571Y-82358547D01*
X123023333Y-82406166D01*
X122975714Y-82501404D01*
X122975714Y-82644261D01*
X123023333Y-82739500D01*
X122975714Y-83120452D02*
X123642380Y-83358547D01*
X122975714Y-83596642D02*
X123642380Y-83358547D01*
X123880476Y-83263309D01*
X123928095Y-83215690D01*
X123975714Y-83120452D01*
X122975714Y-83977595D02*
X123642380Y-83977595D01*
X123070952Y-83977595D02*
X123023333Y-84025214D01*
X122975714Y-84120452D01*
X122975714Y-84263309D01*
X123023333Y-84358547D01*
X123118571Y-84406166D01*
X123642380Y-84406166D01*
X122975714Y-84739500D02*
X122975714Y-85120452D01*
X122642380Y-84882357D02*
X123499523Y-84882357D01*
X123594761Y-84929976D01*
X123642380Y-85025214D01*
X123642380Y-85120452D01*
X123642380Y-85453785D02*
X122642380Y-85453785D01*
X123642380Y-85882357D02*
X123118571Y-85882357D01*
X123023333Y-85834738D01*
X122975714Y-85739500D01*
X122975714Y-85596642D01*
X123023333Y-85501404D01*
X123070952Y-85453785D01*
X122642380Y-86263309D02*
X122642380Y-86882357D01*
X123023333Y-86549023D01*
X123023333Y-86691880D01*
X123070952Y-86787119D01*
X123118571Y-86834738D01*
X123213809Y-86882357D01*
X123451904Y-86882357D01*
X123547142Y-86834738D01*
X123594761Y-86787119D01*
X123642380Y-86691880D01*
X123642380Y-86406166D01*
X123594761Y-86310928D01*
X123547142Y-86263309D01*
X122737619Y-87263309D02*
X122690000Y-87310928D01*
X122642380Y-87406166D01*
X122642380Y-87644261D01*
X122690000Y-87739500D01*
X122737619Y-87787119D01*
X122832857Y-87834738D01*
X122928095Y-87834738D01*
X123070952Y-87787119D01*
X123642380Y-87215690D01*
X123642380Y-87834738D01*
X125292380Y-57549023D02*
X124816190Y-57215690D01*
X125292380Y-56977595D02*
X124292380Y-56977595D01*
X124292380Y-57358547D01*
X124340000Y-57453785D01*
X124387619Y-57501404D01*
X124482857Y-57549023D01*
X124625714Y-57549023D01*
X124720952Y-57501404D01*
X124768571Y-57453785D01*
X124816190Y-57358547D01*
X124816190Y-56977595D01*
X125244761Y-58358547D02*
X125292380Y-58263309D01*
X125292380Y-58072833D01*
X125244761Y-57977595D01*
X125149523Y-57929976D01*
X124768571Y-57929976D01*
X124673333Y-57977595D01*
X124625714Y-58072833D01*
X124625714Y-58263309D01*
X124673333Y-58358547D01*
X124768571Y-58406166D01*
X124863809Y-58406166D01*
X124959047Y-57929976D01*
X124625714Y-58739500D02*
X125292380Y-58977595D01*
X124625714Y-59215690D01*
X125292380Y-60882357D02*
X125292380Y-60310928D01*
X125292380Y-60596642D02*
X124292380Y-60596642D01*
X124435238Y-60501404D01*
X124530476Y-60406166D01*
X124578095Y-60310928D01*
X125197142Y-61310928D02*
X125244761Y-61358547D01*
X125292380Y-61310928D01*
X125244761Y-61263309D01*
X125197142Y-61310928D01*
X125292380Y-61310928D01*
X125292380Y-62310928D02*
X125292380Y-61739500D01*
X125292380Y-62025214D02*
X124292380Y-62025214D01*
X124435238Y-61929976D01*
X124530476Y-61834738D01*
X124578095Y-61739500D01*
D11*
X125476000Y-119634000D02*
X125476000Y-119126000D01*
X119380000Y-125730000D02*
X125476000Y-119634000D01*
X122936000Y-120396000D02*
X122936000Y-119126000D01*
X119380000Y-123952000D02*
X122936000Y-120396000D01*
X120396000Y-121158000D02*
X120396000Y-119126000D01*
X119380000Y-122174000D02*
X120396000Y-121158000D01*
X117856000Y-119634000D02*
X117856000Y-119126000D01*
X116078000Y-120650000D02*
X114554000Y-117856000D01*
X116078000Y-122174000D02*
X114554000Y-120650000D01*
X116078000Y-123952000D02*
X114554000Y-123190000D01*
X116078000Y-125476000D02*
X114808000Y-125476000D01*
D10*
X118617904Y-120215000D02*
X118713142Y-120167380D01*
X118856000Y-120167380D01*
X118998857Y-120215000D01*
X119094095Y-120310238D01*
X119141714Y-120405476D01*
X119189333Y-120595952D01*
X119189333Y-120738809D01*
X119141714Y-120929285D01*
X119094095Y-121024523D01*
X118998857Y-121119761D01*
X118856000Y-121167380D01*
X118760761Y-121167380D01*
X118617904Y-121119761D01*
X118570285Y-121072142D01*
X118570285Y-120738809D01*
X118760761Y-120738809D01*
X118141714Y-121167380D02*
X118141714Y-120167380D01*
X117570285Y-121167380D01*
X117570285Y-120167380D01*
X117094095Y-121167380D02*
X117094095Y-120167380D01*
X116856000Y-120167380D01*
X116713142Y-120215000D01*
X116617904Y-120310238D01*
X116570285Y-120405476D01*
X116522666Y-120595952D01*
X116522666Y-120738809D01*
X116570285Y-120929285D01*
X116617904Y-121024523D01*
X116713142Y-121119761D01*
X116856000Y-121167380D01*
X117094095Y-121167380D01*
X119189333Y-121817380D02*
X118856000Y-122817380D01*
X118522666Y-121817380D01*
X117617904Y-122722142D02*
X117665523Y-122769761D01*
X117808380Y-122817380D01*
X117903619Y-122817380D01*
X118046476Y-122769761D01*
X118141714Y-122674523D01*
X118189333Y-122579285D01*
X118236952Y-122388809D01*
X118236952Y-122245952D01*
X118189333Y-122055476D01*
X118141714Y-121960238D01*
X118046476Y-121865000D01*
X117903619Y-121817380D01*
X117808380Y-121817380D01*
X117665523Y-121865000D01*
X117617904Y-121912619D01*
X116617904Y-122722142D02*
X116665523Y-122769761D01*
X116808380Y-122817380D01*
X116903619Y-122817380D01*
X117046476Y-122769761D01*
X117141714Y-122674523D01*
X117189333Y-122579285D01*
X117236952Y-122388809D01*
X117236952Y-122245952D01*
X117189333Y-122055476D01*
X117141714Y-121960238D01*
X117046476Y-121865000D01*
X116903619Y-121817380D01*
X116808380Y-121817380D01*
X116665523Y-121865000D01*
X116617904Y-121912619D01*
X119046476Y-124419761D02*
X118903619Y-124467380D01*
X118665523Y-124467380D01*
X118570285Y-124419761D01*
X118522666Y-124372142D01*
X118475047Y-124276904D01*
X118475047Y-124181666D01*
X118522666Y-124086428D01*
X118570285Y-124038809D01*
X118665523Y-123991190D01*
X118856000Y-123943571D01*
X118951238Y-123895952D01*
X118998857Y-123848333D01*
X119046476Y-123753095D01*
X119046476Y-123657857D01*
X118998857Y-123562619D01*
X118951238Y-123515000D01*
X118856000Y-123467380D01*
X118617904Y-123467380D01*
X118475047Y-123515000D01*
X117475047Y-124372142D02*
X117522666Y-124419761D01*
X117665523Y-124467380D01*
X117760761Y-124467380D01*
X117903619Y-124419761D01*
X117998857Y-124324523D01*
X118046476Y-124229285D01*
X118094095Y-124038809D01*
X118094095Y-123895952D01*
X118046476Y-123705476D01*
X117998857Y-123610238D01*
X117903619Y-123515000D01*
X117760761Y-123467380D01*
X117665523Y-123467380D01*
X117522666Y-123515000D01*
X117475047Y-123562619D01*
X116570285Y-124467380D02*
X117046476Y-124467380D01*
X117046476Y-123467380D01*
X119070285Y-126069761D02*
X118927428Y-126117380D01*
X118689333Y-126117380D01*
X118594095Y-126069761D01*
X118546476Y-126022142D01*
X118498857Y-125926904D01*
X118498857Y-125831666D01*
X118546476Y-125736428D01*
X118594095Y-125688809D01*
X118689333Y-125641190D01*
X118879809Y-125593571D01*
X118975047Y-125545952D01*
X119022666Y-125498333D01*
X119070285Y-125403095D01*
X119070285Y-125307857D01*
X119022666Y-125212619D01*
X118975047Y-125165000D01*
X118879809Y-125117380D01*
X118641714Y-125117380D01*
X118498857Y-125165000D01*
X118070285Y-126117380D02*
X118070285Y-125117380D01*
X117832190Y-125117380D01*
X117689333Y-125165000D01*
X117594095Y-125260238D01*
X117546476Y-125355476D01*
X117498857Y-125545952D01*
X117498857Y-125688809D01*
X117546476Y-125879285D01*
X117594095Y-125974523D01*
X117689333Y-126069761D01*
X117832190Y-126117380D01*
X118070285Y-126117380D01*
X117117904Y-125831666D02*
X116641714Y-125831666D01*
X117213142Y-126117380D02*
X116879809Y-125117380D01*
X116546476Y-126117380D01*
D11*
X116078000Y-110744000D02*
X114554000Y-113030000D01*
X116332000Y-113284000D02*
X114808000Y-115316000D01*
D10*
X117419428Y-113521904D02*
X117371809Y-113379047D01*
X117324190Y-113331428D01*
X117228952Y-113283809D01*
X117086095Y-113283809D01*
X116990857Y-113331428D01*
X116943238Y-113379047D01*
X116895619Y-113474285D01*
X116895619Y-113855238D01*
X117895619Y-113855238D01*
X117895619Y-113521904D01*
X117848000Y-113426666D01*
X117800380Y-113379047D01*
X117705142Y-113331428D01*
X117609904Y-113331428D01*
X117514666Y-113379047D01*
X117467047Y-113426666D01*
X117419428Y-113521904D01*
X117419428Y-113855238D01*
X116895619Y-112331428D02*
X116895619Y-112902857D01*
X116895619Y-112617142D02*
X117895619Y-112617142D01*
X117752761Y-112712380D01*
X117657523Y-112807619D01*
X117609904Y-112902857D01*
X117419428Y-110807619D02*
X117371809Y-110664761D01*
X117324190Y-110617142D01*
X117228952Y-110569523D01*
X117086095Y-110569523D01*
X116990857Y-110617142D01*
X116943238Y-110664761D01*
X116895619Y-110760000D01*
X116895619Y-111140952D01*
X117895619Y-111140952D01*
X117895619Y-110807619D01*
X117848000Y-110712380D01*
X117800380Y-110664761D01*
X117705142Y-110617142D01*
X117609904Y-110617142D01*
X117514666Y-110664761D01*
X117467047Y-110712380D01*
X117419428Y-110807619D01*
X117419428Y-111140952D01*
X117800380Y-110188571D02*
X117848000Y-110140952D01*
X117895619Y-110045714D01*
X117895619Y-109807619D01*
X117848000Y-109712380D01*
X117800380Y-109664761D01*
X117705142Y-109617142D01*
X117609904Y-109617142D01*
X117467047Y-109664761D01*
X116895619Y-110236190D01*
X116895619Y-109617142D01*
D11*
%TO.C,J6*%
X114614000Y-111446000D02*
X113284000Y-111446000D01*
X114614000Y-112776000D02*
X114614000Y-111446000D01*
X114614000Y-114046000D02*
X111954000Y-114046000D01*
X111954000Y-114046000D02*
X111954000Y-126806000D01*
X114614000Y-114046000D02*
X114614000Y-126806000D01*
X114614000Y-126806000D02*
X111954000Y-126806000D01*
D10*
X112831619Y-110814952D02*
X113307809Y-111148285D01*
X112831619Y-111386380D02*
X113831619Y-111386380D01*
X113831619Y-111005428D01*
X113784000Y-110910190D01*
X113736380Y-110862571D01*
X113641142Y-110814952D01*
X113498285Y-110814952D01*
X113403047Y-110862571D01*
X113355428Y-110910190D01*
X113307809Y-111005428D01*
X113307809Y-111386380D01*
X112736380Y-110624476D02*
X112736380Y-109862571D01*
X113355428Y-109291142D02*
X113307809Y-109148285D01*
X113260190Y-109100666D01*
X113164952Y-109053047D01*
X113022095Y-109053047D01*
X112926857Y-109100666D01*
X112879238Y-109148285D01*
X112831619Y-109243523D01*
X112831619Y-109624476D01*
X113831619Y-109624476D01*
X113831619Y-109291142D01*
X113784000Y-109195904D01*
X113736380Y-109148285D01*
X113641142Y-109100666D01*
X113545904Y-109100666D01*
X113450666Y-109148285D01*
X113403047Y-109195904D01*
X113355428Y-109291142D01*
X113355428Y-109624476D01*
X112831619Y-108053047D02*
X113307809Y-108386380D01*
X112831619Y-108624476D02*
X113831619Y-108624476D01*
X113831619Y-108243523D01*
X113784000Y-108148285D01*
X113736380Y-108100666D01*
X113641142Y-108053047D01*
X113498285Y-108053047D01*
X113403047Y-108100666D01*
X113355428Y-108148285D01*
X113307809Y-108243523D01*
X113307809Y-108624476D01*
X113355428Y-107624476D02*
X113355428Y-107291142D01*
X112831619Y-107148285D02*
X112831619Y-107624476D01*
X113831619Y-107624476D01*
X113831619Y-107148285D01*
X113117333Y-106767333D02*
X113117333Y-106291142D01*
X112831619Y-106862571D02*
X113831619Y-106529238D01*
X112831619Y-106195904D01*
X112831619Y-105862571D02*
X113831619Y-105862571D01*
X112831619Y-105291142D02*
X113403047Y-105719714D01*
X113831619Y-105291142D02*
X113260190Y-105862571D01*
X113831619Y-104672095D02*
X113831619Y-104481619D01*
X113784000Y-104386380D01*
X113688761Y-104291142D01*
X113498285Y-104243523D01*
X113164952Y-104243523D01*
X112974476Y-104291142D01*
X112879238Y-104386380D01*
X112831619Y-104481619D01*
X112831619Y-104672095D01*
X112879238Y-104767333D01*
X112974476Y-104862571D01*
X113164952Y-104910190D01*
X113498285Y-104910190D01*
X113688761Y-104862571D01*
X113784000Y-104767333D01*
X113831619Y-104672095D01*
X113831619Y-103814952D02*
X113022095Y-103814952D01*
X112926857Y-103767333D01*
X112879238Y-103719714D01*
X112831619Y-103624476D01*
X112831619Y-103434000D01*
X112879238Y-103338761D01*
X112926857Y-103291142D01*
X113022095Y-103243523D01*
X113831619Y-103243523D01*
X113831619Y-102910190D02*
X113831619Y-102338761D01*
X112831619Y-102624476D02*
X113831619Y-102624476D01*
%TD*%
M02*
