%TF.GenerationSoftware,KiCad,Pcbnew,5.99.0+really5.1.9+dfsg1-1*%
%TF.CreationDate,2021-05-15T21:19:59+10:00*%
%TF.ProjectId,minisynth32-front,6d696e69-7379-46e7-9468-33322d66726f,1.1*%
%TF.SameCoordinates,Original*%
%TF.FileFunction,Copper,L1,Top*%
%TF.FilePolarity,Positive*%
%FSLAX46Y46*%
G04 Gerber Fmt 4.6, Leading zero omitted, Abs format (unit mm)*
G04 Created by KiCad (PCBNEW 5.99.0+really5.1.9+dfsg1-1) date 2021-05-15 21:19:59*
%MOMM*%
%LPD*%
G01*
G04 APERTURE LIST*
%TA.AperFunction,ComponentPad*%
%ADD10O,1.700000X1.700000*%
%TD*%
%TA.AperFunction,ComponentPad*%
%ADD11R,1.700000X1.700000*%
%TD*%
%TA.AperFunction,SMDPad,CuDef*%
%ADD12R,0.762000X1.524000*%
%TD*%
%TA.AperFunction,Conductor*%
%ADD13C,0.760000*%
%TD*%
%TA.AperFunction,NonConductor*%
%ADD14C,0.254000*%
%TD*%
%TA.AperFunction,NonConductor*%
%ADD15C,0.100000*%
%TD*%
G04 APERTURE END LIST*
D10*
%TO.P,J7,4*%
%TO.N,Net-(J6-Pad6)*%
X125476000Y-117856000D03*
%TO.P,J7,3*%
%TO.N,Net-(J6-Pad5)*%
X122936000Y-117856000D03*
%TO.P,J7,2*%
%TO.N,Net-(J6-Pad4)*%
X120396000Y-117856000D03*
D11*
%TO.P,J7,1*%
%TO.N,Net-(J6-Pad3)*%
X117856000Y-117856000D03*
%TD*%
D12*
%TO.P,SW3,1*%
%TO.N,Net-(J6-Pad3)*%
X122643900Y-65303400D03*
%TO.P,SW3,3*%
%TO.N,Net-(J6-Pad1)*%
X118148100Y-65303400D03*
%TO.P,SW3,4*%
X118148100Y-56108600D03*
%TO.P,SW3,2*%
%TO.N,Net-(J6-Pad3)*%
X122643900Y-56108600D03*
%TD*%
%TO.P,SW1,1*%
%TO.N,Net-(J6-Pad3)*%
X122643900Y-83083400D03*
%TO.P,SW1,3*%
%TO.N,Net-(J6-Pad2)*%
X118148100Y-83083400D03*
%TO.P,SW1,4*%
X118148100Y-73888600D03*
%TO.P,SW1,2*%
%TO.N,Net-(J6-Pad3)*%
X122643900Y-73888600D03*
%TD*%
D10*
%TO.P,J6,6*%
%TO.N,Net-(J6-Pad6)*%
X113284000Y-125476000D03*
%TO.P,J6,5*%
%TO.N,Net-(J6-Pad5)*%
X113284000Y-122936000D03*
%TO.P,J6,4*%
%TO.N,Net-(J6-Pad4)*%
X113284000Y-120396000D03*
%TO.P,J6,3*%
%TO.N,Net-(J6-Pad3)*%
X113284000Y-117856000D03*
%TO.P,J6,2*%
%TO.N,Net-(J6-Pad2)*%
X113284000Y-115316000D03*
D11*
%TO.P,J6,1*%
%TO.N,Net-(J6-Pad1)*%
X113284000Y-112776000D03*
%TD*%
D13*
%TO.N,Net-(J6-Pad6)*%
X125052402Y-117856000D02*
X125476000Y-117856000D01*
X117432402Y-125476000D02*
X125052402Y-117856000D01*
X113284000Y-125476000D02*
X117432402Y-125476000D01*
%TO.N,Net-(J6-Pad5)*%
X117856000Y-122936000D02*
X122936000Y-117856000D01*
X113284000Y-122936000D02*
X117856000Y-122936000D01*
%TO.N,Net-(J6-Pad4)*%
X117856000Y-120396000D02*
X120396000Y-117856000D01*
X113284000Y-120396000D02*
X117856000Y-120396000D01*
%TO.N,Net-(J6-Pad3)*%
X113284000Y-117856000D02*
X117856000Y-117856000D01*
X117856000Y-117856000D02*
X124968000Y-110744000D01*
X124968000Y-110744000D02*
X124968000Y-85407500D01*
X124968000Y-85407500D02*
X122643900Y-83083400D01*
X122643900Y-83083400D02*
X122643900Y-73888600D01*
X122643900Y-73888600D02*
X122643900Y-65303400D01*
X122643900Y-65303400D02*
X122643900Y-56108600D01*
%TO.N,Net-(J6-Pad2)*%
X114714001Y-113885999D02*
X114714001Y-86517499D01*
X114714001Y-86517499D02*
X118148100Y-83083400D01*
X113284000Y-115316000D02*
X114714001Y-113885999D01*
X118148100Y-83083400D02*
X118148100Y-73888600D01*
%TO.N,Net-(J6-Pad1)*%
X113284000Y-70167500D02*
X118148100Y-65303400D01*
X113284000Y-112776000D02*
X113284000Y-70167500D01*
X118148100Y-65303400D02*
X118148100Y-56108600D01*
%TD*%
D14*
X126340000Y-139294000D02*
X112420000Y-139294000D01*
X112420000Y-126684688D01*
X112580589Y-126791990D01*
X112850842Y-126903932D01*
X113137740Y-126961000D01*
X113430260Y-126961000D01*
X113717158Y-126903932D01*
X113987411Y-126791990D01*
X114230632Y-126629475D01*
X114369107Y-126491000D01*
X117382542Y-126491000D01*
X117432402Y-126495911D01*
X117482262Y-126491000D01*
X117482265Y-126491000D01*
X117631377Y-126476314D01*
X117822705Y-126418275D01*
X117999034Y-126324025D01*
X118153588Y-126197186D01*
X118185381Y-126158446D01*
X125057067Y-119286762D01*
X125329740Y-119341000D01*
X125622260Y-119341000D01*
X125909158Y-119283932D01*
X126179411Y-119171990D01*
X126340000Y-119064688D01*
X126340000Y-139294000D01*
%TA.AperFunction,NonConductor*%
D15*
G36*
X126340000Y-139294000D02*
G01*
X112420000Y-139294000D01*
X112420000Y-126684688D01*
X112580589Y-126791990D01*
X112850842Y-126903932D01*
X113137740Y-126961000D01*
X113430260Y-126961000D01*
X113717158Y-126903932D01*
X113987411Y-126791990D01*
X114230632Y-126629475D01*
X114369107Y-126491000D01*
X117382542Y-126491000D01*
X117432402Y-126495911D01*
X117482262Y-126491000D01*
X117482265Y-126491000D01*
X117631377Y-126476314D01*
X117822705Y-126418275D01*
X117999034Y-126324025D01*
X118153588Y-126197186D01*
X118185381Y-126158446D01*
X125057067Y-119286762D01*
X125329740Y-119341000D01*
X125622260Y-119341000D01*
X125909158Y-119283932D01*
X126179411Y-119171990D01*
X126340000Y-119064688D01*
X126340000Y-139294000D01*
G37*
%TD.AperFunction*%
D14*
X117011977Y-124461000D02*
X114369107Y-124461000D01*
X114230632Y-124322525D01*
X114056240Y-124206000D01*
X114230632Y-124089475D01*
X114369107Y-123951000D01*
X117521977Y-123951000D01*
X117011977Y-124461000D01*
%TA.AperFunction,NonConductor*%
D15*
G36*
X117011977Y-124461000D02*
G01*
X114369107Y-124461000D01*
X114230632Y-124322525D01*
X114056240Y-124206000D01*
X114230632Y-124089475D01*
X114369107Y-123951000D01*
X117521977Y-123951000D01*
X117011977Y-124461000D01*
G37*
%TD.AperFunction*%
D14*
X112511760Y-124206000D02*
X112420000Y-124267312D01*
X112420000Y-124144688D01*
X112511760Y-124206000D01*
%TA.AperFunction,NonConductor*%
D15*
G36*
X112511760Y-124206000D02*
G01*
X112420000Y-124267312D01*
X112420000Y-124144688D01*
X112511760Y-124206000D01*
G37*
%TD.AperFunction*%
D14*
X117435575Y-121921000D02*
X114369107Y-121921000D01*
X114230632Y-121782525D01*
X114056240Y-121666000D01*
X114230632Y-121549475D01*
X114369107Y-121411000D01*
X117806140Y-121411000D01*
X117856000Y-121415911D01*
X117905860Y-121411000D01*
X117905863Y-121411000D01*
X117949913Y-121406661D01*
X117435575Y-121921000D01*
%TA.AperFunction,NonConductor*%
D15*
G36*
X117435575Y-121921000D02*
G01*
X114369107Y-121921000D01*
X114230632Y-121782525D01*
X114056240Y-121666000D01*
X114230632Y-121549475D01*
X114369107Y-121411000D01*
X117806140Y-121411000D01*
X117856000Y-121415911D01*
X117905860Y-121411000D01*
X117905863Y-121411000D01*
X117949913Y-121406661D01*
X117435575Y-121921000D01*
G37*
%TD.AperFunction*%
D14*
X112511760Y-121666000D02*
X112420000Y-121727312D01*
X112420000Y-121604688D01*
X112511760Y-121666000D01*
%TA.AperFunction,NonConductor*%
D15*
G36*
X112511760Y-121666000D02*
G01*
X112420000Y-121727312D01*
X112420000Y-121604688D01*
X112511760Y-121666000D01*
G37*
%TD.AperFunction*%
D14*
X116416498Y-118950180D02*
X116475463Y-119060494D01*
X116554815Y-119157185D01*
X116651506Y-119236537D01*
X116761820Y-119295502D01*
X116881518Y-119331812D01*
X117006000Y-119344072D01*
X117472503Y-119344072D01*
X117435575Y-119381000D01*
X114369107Y-119381000D01*
X114230632Y-119242525D01*
X114056240Y-119126000D01*
X114230632Y-119009475D01*
X114369107Y-118871000D01*
X116392479Y-118871000D01*
X116416498Y-118950180D01*
%TA.AperFunction,NonConductor*%
D15*
G36*
X116416498Y-118950180D02*
G01*
X116475463Y-119060494D01*
X116554815Y-119157185D01*
X116651506Y-119236537D01*
X116761820Y-119295502D01*
X116881518Y-119331812D01*
X117006000Y-119344072D01*
X117472503Y-119344072D01*
X117435575Y-119381000D01*
X114369107Y-119381000D01*
X114230632Y-119242525D01*
X114056240Y-119126000D01*
X114230632Y-119009475D01*
X114369107Y-118871000D01*
X116392479Y-118871000D01*
X116416498Y-118950180D01*
G37*
%TD.AperFunction*%
D14*
X112511760Y-119126000D02*
X112420000Y-119187312D01*
X112420000Y-119064688D01*
X112511760Y-119126000D01*
%TA.AperFunction,NonConductor*%
D15*
G36*
X112511760Y-119126000D02*
G01*
X112420000Y-119187312D01*
X112420000Y-119064688D01*
X112511760Y-119126000D01*
G37*
%TD.AperFunction*%
D14*
X126340000Y-116647312D02*
X126179411Y-116540010D01*
X125909158Y-116428068D01*
X125622260Y-116371000D01*
X125329740Y-116371000D01*
X125042842Y-116428068D01*
X124772589Y-116540010D01*
X124529368Y-116702525D01*
X124322525Y-116909368D01*
X124206000Y-117083760D01*
X124089475Y-116909368D01*
X123882632Y-116702525D01*
X123639411Y-116540010D01*
X123369158Y-116428068D01*
X123082260Y-116371000D01*
X122789740Y-116371000D01*
X122502842Y-116428068D01*
X122232589Y-116540010D01*
X121989368Y-116702525D01*
X121782525Y-116909368D01*
X121666000Y-117083760D01*
X121549475Y-116909368D01*
X121342632Y-116702525D01*
X121099411Y-116540010D01*
X120829158Y-116428068D01*
X120737575Y-116409851D01*
X125650451Y-111496975D01*
X125689186Y-111465186D01*
X125763436Y-111374713D01*
X125816025Y-111310633D01*
X125910275Y-111134304D01*
X125923783Y-111089773D01*
X125968314Y-110942975D01*
X125983000Y-110793863D01*
X125983000Y-110793861D01*
X125987911Y-110744000D01*
X125983000Y-110694139D01*
X125983000Y-85457361D01*
X125987911Y-85407500D01*
X125983000Y-85357637D01*
X125968314Y-85208525D01*
X125910275Y-85017197D01*
X125816025Y-84840867D01*
X125720972Y-84725045D01*
X125720970Y-84725043D01*
X125689186Y-84686314D01*
X125650457Y-84654530D01*
X123662972Y-82667047D01*
X123662972Y-82321400D01*
X123658900Y-82280055D01*
X123658900Y-74691945D01*
X123662972Y-74650600D01*
X123662972Y-73126600D01*
X123658900Y-73085255D01*
X123658900Y-66106745D01*
X123662972Y-66065400D01*
X123662972Y-64541400D01*
X123658900Y-64500055D01*
X123658900Y-56911945D01*
X123662972Y-56870600D01*
X123662972Y-55346600D01*
X123650712Y-55222118D01*
X123614402Y-55102420D01*
X123555437Y-54992106D01*
X123476085Y-54895415D01*
X123379394Y-54816063D01*
X123269080Y-54757098D01*
X123149382Y-54720788D01*
X123024900Y-54708528D01*
X122262900Y-54708528D01*
X122138418Y-54720788D01*
X122018720Y-54757098D01*
X121908406Y-54816063D01*
X121811715Y-54895415D01*
X121732363Y-54992106D01*
X121673398Y-55102420D01*
X121637088Y-55222118D01*
X121624828Y-55346600D01*
X121624828Y-56870600D01*
X121628901Y-56911954D01*
X121628900Y-64500054D01*
X121624828Y-64541400D01*
X121624828Y-66065400D01*
X121628901Y-66106754D01*
X121628900Y-73085254D01*
X121624828Y-73126600D01*
X121624828Y-74650600D01*
X121628901Y-74691954D01*
X121628900Y-82280054D01*
X121624828Y-82321400D01*
X121624828Y-83074882D01*
X121623989Y-83083400D01*
X121624828Y-83091918D01*
X121624828Y-83845400D01*
X121637088Y-83969882D01*
X121673398Y-84089580D01*
X121732363Y-84199894D01*
X121811715Y-84296585D01*
X121908406Y-84375937D01*
X122018720Y-84434902D01*
X122138418Y-84471212D01*
X122262900Y-84483472D01*
X122608546Y-84483472D01*
X123953001Y-85827928D01*
X123953000Y-110323574D01*
X117908647Y-116367928D01*
X117006000Y-116367928D01*
X116881518Y-116380188D01*
X116761820Y-116416498D01*
X116651506Y-116475463D01*
X116554815Y-116554815D01*
X116475463Y-116651506D01*
X116416498Y-116761820D01*
X116392479Y-116841000D01*
X114369107Y-116841000D01*
X114230632Y-116702525D01*
X114056240Y-116586000D01*
X114230632Y-116469475D01*
X114437475Y-116262632D01*
X114599990Y-116019411D01*
X114711932Y-115749158D01*
X114769000Y-115462260D01*
X114769000Y-115266426D01*
X115396452Y-114638974D01*
X115435187Y-114607185D01*
X115509437Y-114516712D01*
X115562026Y-114452632D01*
X115656276Y-114276303D01*
X115669784Y-114231772D01*
X115714315Y-114084974D01*
X115729001Y-113935862D01*
X115729001Y-113935860D01*
X115733912Y-113885999D01*
X115729001Y-113836138D01*
X115729001Y-94521872D01*
X118161000Y-94521872D01*
X118161000Y-94962128D01*
X118246890Y-95393925D01*
X118415369Y-95800669D01*
X118659962Y-96166729D01*
X118971271Y-96478038D01*
X119337331Y-96722631D01*
X119744075Y-96891110D01*
X120175872Y-96977000D01*
X120616128Y-96977000D01*
X121047925Y-96891110D01*
X121454669Y-96722631D01*
X121820729Y-96478038D01*
X122132038Y-96166729D01*
X122376631Y-95800669D01*
X122545110Y-95393925D01*
X122631000Y-94962128D01*
X122631000Y-94521872D01*
X122545110Y-94090075D01*
X122376631Y-93683331D01*
X122132038Y-93317271D01*
X121820729Y-93005962D01*
X121454669Y-92761369D01*
X121047925Y-92592890D01*
X120616128Y-92507000D01*
X120175872Y-92507000D01*
X119744075Y-92592890D01*
X119337331Y-92761369D01*
X118971271Y-93005962D01*
X118659962Y-93317271D01*
X118415369Y-93683331D01*
X118246890Y-94090075D01*
X118161000Y-94521872D01*
X115729001Y-94521872D01*
X115729001Y-86937924D01*
X118183455Y-84483472D01*
X118529100Y-84483472D01*
X118653582Y-84471212D01*
X118773280Y-84434902D01*
X118883594Y-84375937D01*
X118980285Y-84296585D01*
X119059637Y-84199894D01*
X119118602Y-84089580D01*
X119154912Y-83969882D01*
X119167172Y-83845400D01*
X119167172Y-83091909D01*
X119168010Y-83083401D01*
X119167172Y-83074893D01*
X119167172Y-82321400D01*
X119163100Y-82280055D01*
X119163100Y-74691945D01*
X119167172Y-74650600D01*
X119167172Y-73126600D01*
X119154912Y-73002118D01*
X119118602Y-72882420D01*
X119059637Y-72772106D01*
X118980285Y-72675415D01*
X118883594Y-72596063D01*
X118773280Y-72537098D01*
X118653582Y-72500788D01*
X118529100Y-72488528D01*
X117767100Y-72488528D01*
X117642618Y-72500788D01*
X117522920Y-72537098D01*
X117412606Y-72596063D01*
X117315915Y-72675415D01*
X117236563Y-72772106D01*
X117177598Y-72882420D01*
X117141288Y-73002118D01*
X117129028Y-73126600D01*
X117129028Y-74650600D01*
X117133101Y-74691954D01*
X117133100Y-82280054D01*
X117129028Y-82321400D01*
X117129028Y-82667045D01*
X114299000Y-85497075D01*
X114299000Y-70587925D01*
X118183455Y-66703472D01*
X118529100Y-66703472D01*
X118653582Y-66691212D01*
X118773280Y-66654902D01*
X118883594Y-66595937D01*
X118980285Y-66516585D01*
X119059637Y-66419894D01*
X119118602Y-66309580D01*
X119154912Y-66189882D01*
X119167172Y-66065400D01*
X119167172Y-65311909D01*
X119168010Y-65303401D01*
X119167172Y-65294893D01*
X119167172Y-64541400D01*
X119163100Y-64500055D01*
X119163100Y-56911945D01*
X119167172Y-56870600D01*
X119167172Y-55346600D01*
X119154912Y-55222118D01*
X119118602Y-55102420D01*
X119059637Y-54992106D01*
X118980285Y-54895415D01*
X118883594Y-54816063D01*
X118773280Y-54757098D01*
X118653582Y-54720788D01*
X118529100Y-54708528D01*
X117767100Y-54708528D01*
X117642618Y-54720788D01*
X117522920Y-54757098D01*
X117412606Y-54816063D01*
X117315915Y-54895415D01*
X117236563Y-54992106D01*
X117177598Y-55102420D01*
X117141288Y-55222118D01*
X117129028Y-55346600D01*
X117129028Y-56870600D01*
X117133101Y-56911954D01*
X117133100Y-64500054D01*
X117129028Y-64541400D01*
X117129028Y-64887045D01*
X112601550Y-69414525D01*
X112562815Y-69446314D01*
X112531029Y-69485046D01*
X112435975Y-69600868D01*
X112420000Y-69630755D01*
X112420000Y-50698000D01*
X126340001Y-50698000D01*
X126340000Y-116647312D01*
%TA.AperFunction,NonConductor*%
D15*
G36*
X126340000Y-116647312D02*
G01*
X126179411Y-116540010D01*
X125909158Y-116428068D01*
X125622260Y-116371000D01*
X125329740Y-116371000D01*
X125042842Y-116428068D01*
X124772589Y-116540010D01*
X124529368Y-116702525D01*
X124322525Y-116909368D01*
X124206000Y-117083760D01*
X124089475Y-116909368D01*
X123882632Y-116702525D01*
X123639411Y-116540010D01*
X123369158Y-116428068D01*
X123082260Y-116371000D01*
X122789740Y-116371000D01*
X122502842Y-116428068D01*
X122232589Y-116540010D01*
X121989368Y-116702525D01*
X121782525Y-116909368D01*
X121666000Y-117083760D01*
X121549475Y-116909368D01*
X121342632Y-116702525D01*
X121099411Y-116540010D01*
X120829158Y-116428068D01*
X120737575Y-116409851D01*
X125650451Y-111496975D01*
X125689186Y-111465186D01*
X125763436Y-111374713D01*
X125816025Y-111310633D01*
X125910275Y-111134304D01*
X125923783Y-111089773D01*
X125968314Y-110942975D01*
X125983000Y-110793863D01*
X125983000Y-110793861D01*
X125987911Y-110744000D01*
X125983000Y-110694139D01*
X125983000Y-85457361D01*
X125987911Y-85407500D01*
X125983000Y-85357637D01*
X125968314Y-85208525D01*
X125910275Y-85017197D01*
X125816025Y-84840867D01*
X125720972Y-84725045D01*
X125720970Y-84725043D01*
X125689186Y-84686314D01*
X125650457Y-84654530D01*
X123662972Y-82667047D01*
X123662972Y-82321400D01*
X123658900Y-82280055D01*
X123658900Y-74691945D01*
X123662972Y-74650600D01*
X123662972Y-73126600D01*
X123658900Y-73085255D01*
X123658900Y-66106745D01*
X123662972Y-66065400D01*
X123662972Y-64541400D01*
X123658900Y-64500055D01*
X123658900Y-56911945D01*
X123662972Y-56870600D01*
X123662972Y-55346600D01*
X123650712Y-55222118D01*
X123614402Y-55102420D01*
X123555437Y-54992106D01*
X123476085Y-54895415D01*
X123379394Y-54816063D01*
X123269080Y-54757098D01*
X123149382Y-54720788D01*
X123024900Y-54708528D01*
X122262900Y-54708528D01*
X122138418Y-54720788D01*
X122018720Y-54757098D01*
X121908406Y-54816063D01*
X121811715Y-54895415D01*
X121732363Y-54992106D01*
X121673398Y-55102420D01*
X121637088Y-55222118D01*
X121624828Y-55346600D01*
X121624828Y-56870600D01*
X121628901Y-56911954D01*
X121628900Y-64500054D01*
X121624828Y-64541400D01*
X121624828Y-66065400D01*
X121628901Y-66106754D01*
X121628900Y-73085254D01*
X121624828Y-73126600D01*
X121624828Y-74650600D01*
X121628901Y-74691954D01*
X121628900Y-82280054D01*
X121624828Y-82321400D01*
X121624828Y-83074882D01*
X121623989Y-83083400D01*
X121624828Y-83091918D01*
X121624828Y-83845400D01*
X121637088Y-83969882D01*
X121673398Y-84089580D01*
X121732363Y-84199894D01*
X121811715Y-84296585D01*
X121908406Y-84375937D01*
X122018720Y-84434902D01*
X122138418Y-84471212D01*
X122262900Y-84483472D01*
X122608546Y-84483472D01*
X123953001Y-85827928D01*
X123953000Y-110323574D01*
X117908647Y-116367928D01*
X117006000Y-116367928D01*
X116881518Y-116380188D01*
X116761820Y-116416498D01*
X116651506Y-116475463D01*
X116554815Y-116554815D01*
X116475463Y-116651506D01*
X116416498Y-116761820D01*
X116392479Y-116841000D01*
X114369107Y-116841000D01*
X114230632Y-116702525D01*
X114056240Y-116586000D01*
X114230632Y-116469475D01*
X114437475Y-116262632D01*
X114599990Y-116019411D01*
X114711932Y-115749158D01*
X114769000Y-115462260D01*
X114769000Y-115266426D01*
X115396452Y-114638974D01*
X115435187Y-114607185D01*
X115509437Y-114516712D01*
X115562026Y-114452632D01*
X115656276Y-114276303D01*
X115669784Y-114231772D01*
X115714315Y-114084974D01*
X115729001Y-113935862D01*
X115729001Y-113935860D01*
X115733912Y-113885999D01*
X115729001Y-113836138D01*
X115729001Y-94521872D01*
X118161000Y-94521872D01*
X118161000Y-94962128D01*
X118246890Y-95393925D01*
X118415369Y-95800669D01*
X118659962Y-96166729D01*
X118971271Y-96478038D01*
X119337331Y-96722631D01*
X119744075Y-96891110D01*
X120175872Y-96977000D01*
X120616128Y-96977000D01*
X121047925Y-96891110D01*
X121454669Y-96722631D01*
X121820729Y-96478038D01*
X122132038Y-96166729D01*
X122376631Y-95800669D01*
X122545110Y-95393925D01*
X122631000Y-94962128D01*
X122631000Y-94521872D01*
X122545110Y-94090075D01*
X122376631Y-93683331D01*
X122132038Y-93317271D01*
X121820729Y-93005962D01*
X121454669Y-92761369D01*
X121047925Y-92592890D01*
X120616128Y-92507000D01*
X120175872Y-92507000D01*
X119744075Y-92592890D01*
X119337331Y-92761369D01*
X118971271Y-93005962D01*
X118659962Y-93317271D01*
X118415369Y-93683331D01*
X118246890Y-94090075D01*
X118161000Y-94521872D01*
X115729001Y-94521872D01*
X115729001Y-86937924D01*
X118183455Y-84483472D01*
X118529100Y-84483472D01*
X118653582Y-84471212D01*
X118773280Y-84434902D01*
X118883594Y-84375937D01*
X118980285Y-84296585D01*
X119059637Y-84199894D01*
X119118602Y-84089580D01*
X119154912Y-83969882D01*
X119167172Y-83845400D01*
X119167172Y-83091909D01*
X119168010Y-83083401D01*
X119167172Y-83074893D01*
X119167172Y-82321400D01*
X119163100Y-82280055D01*
X119163100Y-74691945D01*
X119167172Y-74650600D01*
X119167172Y-73126600D01*
X119154912Y-73002118D01*
X119118602Y-72882420D01*
X119059637Y-72772106D01*
X118980285Y-72675415D01*
X118883594Y-72596063D01*
X118773280Y-72537098D01*
X118653582Y-72500788D01*
X118529100Y-72488528D01*
X117767100Y-72488528D01*
X117642618Y-72500788D01*
X117522920Y-72537098D01*
X117412606Y-72596063D01*
X117315915Y-72675415D01*
X117236563Y-72772106D01*
X117177598Y-72882420D01*
X117141288Y-73002118D01*
X117129028Y-73126600D01*
X117129028Y-74650600D01*
X117133101Y-74691954D01*
X117133100Y-82280054D01*
X117129028Y-82321400D01*
X117129028Y-82667045D01*
X114299000Y-85497075D01*
X114299000Y-70587925D01*
X118183455Y-66703472D01*
X118529100Y-66703472D01*
X118653582Y-66691212D01*
X118773280Y-66654902D01*
X118883594Y-66595937D01*
X118980285Y-66516585D01*
X119059637Y-66419894D01*
X119118602Y-66309580D01*
X119154912Y-66189882D01*
X119167172Y-66065400D01*
X119167172Y-65311909D01*
X119168010Y-65303401D01*
X119167172Y-65294893D01*
X119167172Y-64541400D01*
X119163100Y-64500055D01*
X119163100Y-56911945D01*
X119167172Y-56870600D01*
X119167172Y-55346600D01*
X119154912Y-55222118D01*
X119118602Y-55102420D01*
X119059637Y-54992106D01*
X118980285Y-54895415D01*
X118883594Y-54816063D01*
X118773280Y-54757098D01*
X118653582Y-54720788D01*
X118529100Y-54708528D01*
X117767100Y-54708528D01*
X117642618Y-54720788D01*
X117522920Y-54757098D01*
X117412606Y-54816063D01*
X117315915Y-54895415D01*
X117236563Y-54992106D01*
X117177598Y-55102420D01*
X117141288Y-55222118D01*
X117129028Y-55346600D01*
X117129028Y-56870600D01*
X117133101Y-56911954D01*
X117133100Y-64500054D01*
X117129028Y-64541400D01*
X117129028Y-64887045D01*
X112601550Y-69414525D01*
X112562815Y-69446314D01*
X112531029Y-69485046D01*
X112435975Y-69600868D01*
X112420000Y-69630755D01*
X112420000Y-50698000D01*
X126340001Y-50698000D01*
X126340000Y-116647312D01*
G37*
%TD.AperFunction*%
D14*
X112511760Y-116586000D02*
X112420000Y-116647312D01*
X112420000Y-116524688D01*
X112511760Y-116586000D01*
%TA.AperFunction,NonConductor*%
D15*
G36*
X112511760Y-116586000D02*
G01*
X112420000Y-116647312D01*
X112420000Y-116524688D01*
X112511760Y-116586000D01*
G37*
%TD.AperFunction*%
M02*
