%TF.GenerationSoftware,KiCad,Pcbnew,5.99.0+really5.1.9+dfsg1-1*%
%TF.CreationDate,2021-05-15T21:19:59+10:00*%
%TF.ProjectId,minisynth32-front,6d696e69-7379-46e7-9468-33322d66726f,1.1*%
%TF.SameCoordinates,Original*%
%TF.FileFunction,Legend,Top*%
%TF.FilePolarity,Positive*%
%FSLAX46Y46*%
G04 Gerber Fmt 4.6, Leading zero omitted, Abs format (unit mm)*
G04 Created by KiCad (PCBNEW 5.99.0+really5.1.9+dfsg1-1) date 2021-05-15 21:19:59*
%MOMM*%
%LPD*%
G01*
G04 APERTURE LIST*
%ADD10C,0.120000*%
%ADD11C,0.152400*%
%ADD12C,0.150000*%
G04 APERTURE END LIST*
D10*
%TO.C,J7*%
X128016000Y-116586000D02*
X128016000Y-152654000D01*
X115316000Y-116586000D02*
X128016000Y-116586000D01*
X115316000Y-152654000D02*
X115316000Y-116586000D01*
X115316000Y-152654000D02*
X128016000Y-152654000D01*
D11*
%TO.C,SW3*%
X117271800Y-63830200D02*
X123520200Y-63830200D01*
X117271800Y-57581800D02*
X117271800Y-63830200D01*
X123520200Y-57581800D02*
X117271800Y-57581800D01*
X123520200Y-63830200D02*
X123520200Y-57581800D01*
%TO.C,SW1*%
X117271800Y-81610200D02*
X123520200Y-81610200D01*
X117271800Y-75361800D02*
X117271800Y-81610200D01*
X123520200Y-75361800D02*
X117271800Y-75361800D01*
X123520200Y-81610200D02*
X123520200Y-75361800D01*
%TO.C,J7*%
D12*
X122070761Y-134460571D02*
X122118380Y-134317714D01*
X122118380Y-134079619D01*
X122070761Y-133984380D01*
X122023142Y-133936761D01*
X121927904Y-133889142D01*
X121832666Y-133889142D01*
X121737428Y-133936761D01*
X121689809Y-133984380D01*
X121642190Y-134079619D01*
X121594571Y-134270095D01*
X121546952Y-134365333D01*
X121499333Y-134412952D01*
X121404095Y-134460571D01*
X121308857Y-134460571D01*
X121213619Y-134412952D01*
X121166000Y-134365333D01*
X121118380Y-134270095D01*
X121118380Y-134032000D01*
X121166000Y-133889142D01*
X122070761Y-133508190D02*
X122118380Y-133365333D01*
X122118380Y-133127238D01*
X122070761Y-133032000D01*
X122023142Y-132984380D01*
X121927904Y-132936761D01*
X121832666Y-132936761D01*
X121737428Y-132984380D01*
X121689809Y-133032000D01*
X121642190Y-133127238D01*
X121594571Y-133317714D01*
X121546952Y-133412952D01*
X121499333Y-133460571D01*
X121404095Y-133508190D01*
X121308857Y-133508190D01*
X121213619Y-133460571D01*
X121166000Y-133412952D01*
X121118380Y-133317714D01*
X121118380Y-133079619D01*
X121166000Y-132936761D01*
X122118380Y-132508190D02*
X121118380Y-132508190D01*
X121118380Y-132270095D01*
X121166000Y-132127238D01*
X121261238Y-132032000D01*
X121356476Y-131984380D01*
X121546952Y-131936761D01*
X121689809Y-131936761D01*
X121880285Y-131984380D01*
X121975523Y-132032000D01*
X122070761Y-132127238D01*
X122118380Y-132270095D01*
X122118380Y-132508190D01*
X122118380Y-130984380D02*
X122118380Y-131555809D01*
X122118380Y-131270095D02*
X121118380Y-131270095D01*
X121261238Y-131365333D01*
X121356476Y-131460571D01*
X121404095Y-131555809D01*
X121118380Y-130651047D02*
X121118380Y-130032000D01*
X121499333Y-130365333D01*
X121499333Y-130222476D01*
X121546952Y-130127238D01*
X121594571Y-130079619D01*
X121689809Y-130032000D01*
X121927904Y-130032000D01*
X122023142Y-130079619D01*
X122070761Y-130127238D01*
X122118380Y-130222476D01*
X122118380Y-130508190D01*
X122070761Y-130603428D01*
X122023142Y-130651047D01*
X121118380Y-129412952D02*
X121118380Y-129317714D01*
X121166000Y-129222476D01*
X121213619Y-129174857D01*
X121308857Y-129127238D01*
X121499333Y-129079619D01*
X121737428Y-129079619D01*
X121927904Y-129127238D01*
X122023142Y-129174857D01*
X122070761Y-129222476D01*
X122118380Y-129317714D01*
X122118380Y-129412952D01*
X122070761Y-129508190D01*
X122023142Y-129555809D01*
X121927904Y-129603428D01*
X121737428Y-129651047D01*
X121499333Y-129651047D01*
X121308857Y-129603428D01*
X121213619Y-129555809D01*
X121166000Y-129508190D01*
X121118380Y-129412952D01*
X121118380Y-128222476D02*
X121118380Y-128412952D01*
X121166000Y-128508190D01*
X121213619Y-128555809D01*
X121356476Y-128651047D01*
X121546952Y-128698666D01*
X121927904Y-128698666D01*
X122023142Y-128651047D01*
X122070761Y-128603428D01*
X122118380Y-128508190D01*
X122118380Y-128317714D01*
X122070761Y-128222476D01*
X122023142Y-128174857D01*
X121927904Y-128127238D01*
X121689809Y-128127238D01*
X121594571Y-128174857D01*
X121546952Y-128222476D01*
X121499333Y-128317714D01*
X121499333Y-128508190D01*
X121546952Y-128603428D01*
X121594571Y-128651047D01*
X121689809Y-128698666D01*
X121118380Y-126746285D02*
X121118380Y-126555809D01*
X121166000Y-126460571D01*
X121261238Y-126365333D01*
X121451714Y-126317714D01*
X121785047Y-126317714D01*
X121975523Y-126365333D01*
X122070761Y-126460571D01*
X122118380Y-126555809D01*
X122118380Y-126746285D01*
X122070761Y-126841523D01*
X121975523Y-126936761D01*
X121785047Y-126984380D01*
X121451714Y-126984380D01*
X121261238Y-126936761D01*
X121166000Y-126841523D01*
X121118380Y-126746285D01*
X122118380Y-125412952D02*
X122118380Y-125889142D01*
X121118380Y-125889142D01*
X121594571Y-125079619D02*
X121594571Y-124746285D01*
X122118380Y-124603428D02*
X122118380Y-125079619D01*
X121118380Y-125079619D01*
X121118380Y-124603428D01*
X122118380Y-124174857D02*
X121118380Y-124174857D01*
X121118380Y-123936761D01*
X121166000Y-123793904D01*
X121261238Y-123698666D01*
X121356476Y-123651047D01*
X121546952Y-123603428D01*
X121689809Y-123603428D01*
X121880285Y-123651047D01*
X121975523Y-123698666D01*
X122070761Y-123793904D01*
X122118380Y-123936761D01*
X122118380Y-124174857D01*
%TO.C,SW3*%
X120324571Y-61110761D02*
X120372190Y-60967904D01*
X120419809Y-60920285D01*
X120515047Y-60872666D01*
X120657904Y-60872666D01*
X120753142Y-60920285D01*
X120800761Y-60967904D01*
X120848380Y-61063142D01*
X120848380Y-61444095D01*
X119848380Y-61444095D01*
X119848380Y-61110761D01*
X119896000Y-61015523D01*
X119943619Y-60967904D01*
X120038857Y-60920285D01*
X120134095Y-60920285D01*
X120229333Y-60967904D01*
X120276952Y-61015523D01*
X120324571Y-61110761D01*
X120324571Y-61444095D01*
X119943619Y-60491714D02*
X119896000Y-60444095D01*
X119848380Y-60348857D01*
X119848380Y-60110761D01*
X119896000Y-60015523D01*
X119943619Y-59967904D01*
X120038857Y-59920285D01*
X120134095Y-59920285D01*
X120276952Y-59967904D01*
X120848380Y-60539333D01*
X120848380Y-59920285D01*
%TO.C,SW1*%
X120324571Y-78890761D02*
X120372190Y-78747904D01*
X120419809Y-78700285D01*
X120515047Y-78652666D01*
X120657904Y-78652666D01*
X120753142Y-78700285D01*
X120800761Y-78747904D01*
X120848380Y-78843142D01*
X120848380Y-79224095D01*
X119848380Y-79224095D01*
X119848380Y-78890761D01*
X119896000Y-78795523D01*
X119943619Y-78747904D01*
X120038857Y-78700285D01*
X120134095Y-78700285D01*
X120229333Y-78747904D01*
X120276952Y-78795523D01*
X120324571Y-78890761D01*
X120324571Y-79224095D01*
X120848380Y-77700285D02*
X120848380Y-78271714D01*
X120848380Y-77986000D02*
X119848380Y-77986000D01*
X119991238Y-78081238D01*
X120086476Y-78176476D01*
X120134095Y-78271714D01*
%TD*%
M02*
